<?xml version="1.0" standalone="no"?>
<!DOCTYPE svg PUBLIC "-//W3C//DTD SVG 1.1//EN" "http://www.w3.org/Graphics/SVG/1.1/DTD/svg11.dtd" >
<svg xmlns="http://www.w3.org/2000/svg" xmlns:xlink="http://www.w3.org/1999/xlink" version="1.1">
<metadata>
Created by FontForge 20201107 at Wed Jun 14 12:00:55 2023
 By 
Copyright 2014 The DM Sans Project Authors (https://github.com/googlefonts/dm-fonts)
</metadata>
<defs>
<font id="DMSans36pt-Bold" horiz-adv-x="579" >
  <font-face 
    font-family="DM Sans 36pt"
    font-weight="700"
    font-stretch="normal"
    units-per-em="1000"
    panose-1="0 0 0 0 0 0 0 0 0 0"
    ascent="800"
    descent="-200"
    x-height="496"
    cap-height="700"
    bbox="-75 -280 1225 976"
    underline-thickness="50"
    underline-position="-125"
    unicode-range="U+000D-FB02"
  />
<missing-glyph horiz-adv-x="502" 
d="M50 0v700h401v-700h-401zM120 57h261v586h-261v-586z" />
    <glyph glyph-name="fi" unicode="fi" horiz-adv-x="574" 
d="M80 0v385h-68v111h68v38q0 63 21 100t60 54t93 17h46v-113h-26q-32 0 -45.5 -12.5t-13.5 -42.5v-41h299v-496h-135v385h-164v-385h-135zM447 548q-36 0 -59.5 22t-23.5 55t23.5 54.5t59.5 21.5q38 0 61 -21.5t23 -54.5t-23 -55t-61 -22z" />
    <glyph glyph-name="fl" unicode="fl" horiz-adv-x="571" 
d="M80 0v534q0 63 21 100t60 54t92 17h56v-113h-35q-32 0 -45.5 -12.5t-13.5 -43.5v-536h-135zM12 387v109h307v-109h-307zM386 0v705h135v-705h-135z" />
    <glyph glyph-name=".notdef" horiz-adv-x="502" 
d="M50 0v700h401v-700h-401zM120 57h261v586h-261v-586z" />
    <glyph glyph-name=".null" horiz-adv-x="0" 
 />
    <glyph glyph-name="nonmarkingreturn" horiz-adv-x="333" 
 />
    <glyph glyph-name="CR" unicode="&#xd;" horiz-adv-x="600" 
 />
    <glyph glyph-name="space" unicode=" " horiz-adv-x="208" 
 />
    <glyph glyph-name="exclam" unicode="!" horiz-adv-x="252" 
d="M69 226l-16 474h145l-15 -474h-114zM126 -5q-36 0 -59.5 22.5t-23.5 54.5q0 33 23.5 55.5t59.5 22.5q37 0 60 -22.5t23 -55.5q0 -32 -23 -54.5t-60 -22.5z" />
    <glyph glyph-name="quotedbl" unicode="&#x22;" horiz-adv-x="355" 
d="M215 544l-12 211h115l-11 -211h-92zM50 544l-13 211h116l-12 -211h-91z" />
    <glyph glyph-name="numbersign" unicode="#" horiz-adv-x="867" 
d="M455 0l156 726h126l-155 -726h-127zM142 0l155 726h127l-155 -726h-127zM34 171v122h741v-122h-741zM89 437v121h742v-121h-742z" />
    <glyph glyph-name="dollar" unicode="$" horiz-adv-x="572" 
d="M253 -87v879h66v-879h-66zM295 -12q-76 0 -135.5 26t-94 76t-36.5 121h144q1 -31 15.5 -56t41.5 -39.5t64 -14.5q32 0 55.5 9.5t37 28.5t13.5 47q0 30 -14.5 50t-40.5 34t-59 25.5t-68 23.5q-84 29 -128.5 74.5t-44.5 120.5q0 61 30.5 105.5t84.5 68.5t123 24
q71 0 124.5 -24.5t85 -70.5t32.5 -108h-145q0 26 -12.5 46.5t-35 32.5t-52.5 12q-26 0 -47.5 -8t-34 -25t-12.5 -44q0 -25 12 -42t33.5 -29.5t51.5 -24t66 -23.5q53 -18 97 -42.5t70 -63.5t26 -102q0 -55 -28.5 -102.5t-83 -76.5t-135.5 -29z" />
    <glyph glyph-name="percent" unicode="%" horiz-adv-x="887" 
d="M180 0l393 700h131l-393 -700h-131zM674 -12q-48 0 -87.5 21.5t-63 62t-23.5 95.5q0 56 23.5 96t63 61.5t87.5 21.5q50 0 88.5 -21.5t61.5 -61.5t23 -96q0 -55 -23 -95.5t-62 -62t-88 -21.5zM673 81q20 0 35.5 10t24.5 29t9 47q0 29 -9 48.5t-24 29.5t-35 10
q-19 0 -34.5 -10t-24.5 -29.5t-9 -48.5q0 -28 9 -47t24 -29t34 -10zM214 353q-48 0 -87.5 22t-63 62t-23.5 95q0 57 23.5 96.5t63 61.5t88.5 22t87.5 -22t62 -61.5t23.5 -96.5q0 -55 -23.5 -95t-62.5 -62t-88 -22zM214 446q19 0 34.5 10t24.5 29t9 47q0 30 -9 49t-24.5 29
t-34.5 10t-34.5 -10t-24.5 -29.5t-9 -48.5q0 -28 9 -47t24.5 -29t34.5 -10z" />
    <glyph glyph-name="ampersand" unicode="&#x26;" horiz-adv-x="732" 
d="M568 0l-377 378q-45 45 -63 83t-18 78q0 48 24 87.5t70.5 62.5t113.5 23q66 0 111 -24t68 -63.5t24 -88.5h-129q-1 36 -23 54.5t-54 18.5q-36 0 -57 -18.5t-21 -49.5q0 -24 14.5 -49.5t45.5 -56.5l429 -435h-158zM280 -11q-77 0 -135.5 26.5t-90 74.5t-31.5 112
q0 50 20 93t60 76.5t99 53.5l20 7l63 -81l-20 -7q-55 -19 -83.5 -53.5t-28.5 -79.5q0 -32 15.5 -57.5t45.5 -39.5t72 -14q56 0 98.5 21.5t71.5 64.5q20 29 31.5 66.5t16.5 83.5l5 37h127l-8 -43q-6 -66 -26.5 -120.5t-53.5 -96.5q-47 -60 -114 -92t-154 -32z" />
    <glyph glyph-name="quotesingle" unicode="'" horiz-adv-x="192" 
d="M50 544l-13 211h117l-12 -211h-92z" />
    <glyph glyph-name="parenleft" unicode="(" horiz-adv-x="376" 
d="M230 -130q-56 56 -99.5 128.5t-68.5 157.5t-25 177q0 93 25 177.5t68.5 157.5t99.5 128h135v-13q-60 -63 -103.5 -136.5t-67.5 -152.5t-24 -161q0 -81 24 -160.5t67.5 -153t103.5 -137.5v-12h-135z" />
    <glyph glyph-name="parenright" unicode=")" horiz-adv-x="376" 
d="M146 -130h-135v13q60 63 104 136.5t67.5 153t23.5 160.5q0 82 -23.5 161t-67.5 153t-104 136v13h135q56 -55 99.5 -128t68.5 -157.5t25 -177.5q0 -92 -25 -177t-68.5 -157.5t-99.5 -128.5z" />
    <glyph glyph-name="asterisk" unicode="*" horiz-adv-x="485" 
d="M196 345l19 139l-110 -88l-50 89l129 50l-128 48l47 85l113 -87l-21 141h98l-22 -141l113 87l46 -84l-129 -51l129 -49l-48 -87l-111 87l21 -139h-96z" />
    <glyph glyph-name="plus" unicode="+" 
d="M232 61v456h115v-456h-115zM45 233v113h488v-113h-488z" />
    <glyph glyph-name="comma" unicode="," horiz-adv-x="219" 
d="M12 -123l57 254h130l-99 -254h-88z" />
    <glyph glyph-name="hyphen" unicode="-" horiz-adv-x="578" 
d="M79 233v113h422v-113h-422z" />
    <glyph glyph-name="period" unicode="." horiz-adv-x="238" 
d="M119 -5q-36 0 -59.5 22.5t-23.5 54.5q0 33 23.5 55.5t59.5 22.5q37 0 60 -22.5t23 -55.5q0 -32 -23 -54.5t-60 -22.5z" />
    <glyph glyph-name="slash" unicode="/" horiz-adv-x="427" 
d="M24 -114l250 893h131l-250 -893h-131z" />
    <glyph glyph-name="zero" unicode="0" horiz-adv-x="698" 
d="M350 -12q-98 0 -168 46t-107.5 127.5t-37.5 188.5t37.5 188.5t107.5 127.5t167 46q98 0 167.5 -46t106.5 -127.5t37 -188.5t-37 -188.5t-106.5 -127.5t-166.5 -46zM349 109q52 0 91 29.5t61 83.5t22 128q0 75 -22 128.5t-61 82.5t-91 29q-51 0 -90.5 -29t-61.5 -82.5
t-22 -128.5q0 -74 22 -128t61.5 -83.5t90.5 -29.5z" />
    <glyph glyph-name="one" unicode="1" horiz-adv-x="325" 
d="M135 0v545l-117 -27v105l174 77h82v-700h-139z" />
    <glyph glyph-name="two" unicode="2" horiz-adv-x="545" 
d="M32 0v99q63 51 123 102t108 101.5t75.5 98.5t27.5 93q0 28 -10 51.5t-31 38t-56 14.5q-34 0 -58 -16t-36 -42.5t-12 -59.5h-130q2 77 34 129t86 77.5t120 25.5q74 0 124.5 -27.5t77 -74.5t26.5 -108q0 -46 -16.5 -90t-46 -85.5t-66 -79.5t-76 -72.5t-77.5 -64.5h298v-110
h-485z" />
    <glyph glyph-name="three" unicode="3" horiz-adv-x="573" 
d="M290 -12q-69 0 -125.5 25t-90.5 76t-36 129h132q1 -33 15 -59.5t41 -42t64 -15.5q35 0 60 14t37.5 37t12.5 53q0 36 -17 59.5t-47.5 36t-69.5 12.5h-52v111h52q48 0 81.5 22.5t33.5 68.5q0 37 -24.5 60t-67.5 23q-47 0 -73.5 -28t-29.5 -69h-132q3 66 33 113.5t82 72.5
t120 25q73 0 122.5 -25.5t75.5 -68t26 -93.5q0 -40 -15.5 -71.5t-40.5 -52.5t-56 -31q39 -7 68.5 -30t46 -58.5t16.5 -81.5q0 -57 -28 -105.5t-82 -77.5t-132 -29z" />
    <glyph glyph-name="four" unicode="4" horiz-adv-x="626" 
d="M374 0v127h-344v107l277 466h201v-456h91v-117h-91v-127h-134zM174 244h208v357h-3z" />
    <glyph glyph-name="five" unicode="5" horiz-adv-x="574" 
d="M291 -12q-77 0 -132.5 27.5t-87 75t-37.5 107.5h132q8 -40 42 -67.5t84 -27.5q36 0 63 18t42.5 49.5t15.5 69.5q0 41 -15.5 70.5t-42.5 45t-62 15.5q-43 0 -74.5 -21t-44.5 -53h-129l60 403h390v-118h-290l-31 -154q22 23 59 38t84 15q56 0 98.5 -19.5t71 -53.5t42.5 -77
t14 -89q0 -56 -18.5 -102.5t-52 -80.5t-79.5 -52.5t-102 -18.5z" />
    <glyph glyph-name="six" unicode="6" horiz-adv-x="601" 
d="M322 -12q-80 0 -134.5 29.5t-87 78.5t-47.5 109t-15 122q0 118 33.5 204t96 133.5t149.5 47.5q74 0 125 -28.5t79 -75t33 -100.5h-126q-8 45 -37 69t-75 24q-42 0 -74 -26t-50.5 -78t-21.5 -131v-2v-3q16 27 43 47.5t61 32.5t71 12q59 0 109.5 -28t82 -79t31.5 -121
q0 -63 -31 -117.5t-86.5 -87t-128.5 -32.5zM314 104q36 0 64.5 15t44.5 41.5t16 60.5q0 36 -16 62t-44.5 41t-65.5 15q-35 0 -63.5 -15.5t-45 -42t-16.5 -59.5q0 -34 16.5 -60.5t45 -42t64.5 -15.5z" />
    <glyph glyph-name="seven" unicode="7" horiz-adv-x="529" 
d="M103 0l261 585h-338v115h477v-95l-261 -605h-139z" />
    <glyph glyph-name="eight" unicode="8" horiz-adv-x="598" 
d="M299 -12q-72 0 -130.5 26t-93 73t-34.5 109q0 43 14.5 78t41 62t63.5 41q-46 21 -74 60t-28 88t27.5 92t81 69t132.5 26q80 0 133.5 -26t80.5 -69t27 -92q0 -48 -28.5 -87.5t-73.5 -60.5q37 -15 63.5 -41.5t41.5 -61.5t15 -78q0 -62 -35 -109t-93 -73t-131 -26zM299 101
q63 0 94.5 30t31.5 76q0 51 -33.5 80.5t-92.5 29.5t-93 -29.5t-34 -80.5q0 -46 32.5 -76t94.5 -30zM299 416q51 0 79.5 26t28.5 67q0 44 -28.5 68.5t-79.5 24.5t-79 -24.5t-28 -69.5q0 -40 28 -66t79 -26z" />
    <glyph glyph-name="nine" unicode="9" horiz-adv-x="601" 
d="M283 -12q-73 0 -123.5 28.5t-78.5 75.5t-33 100h125q9 -45 37.5 -69t74.5 -24q43 0 74.5 26t50 78t20.5 130v3v3q-15 -26 -42 -47t-61 -33t-71 -12q-58 0 -109 28t-82.5 79t-31.5 121q0 64 31 118t86.5 86.5t128.5 32.5q80 0 134.5 -29.5t87 -78.5t47.5 -109t15 -122
q0 -117 -33.5 -203.5t-95.5 -134t-151 -47.5zM288 361q36 0 64 15.5t45 42t17 59.5q0 34 -17 61t-45.5 42t-64.5 15t-64.5 -15t-44.5 -41t-16 -61t16 -61.5t44.5 -41.5t65.5 -15z" />
    <glyph glyph-name="colon" unicode=":" horiz-adv-x="238" 
d="M119 -5q-36 0 -59.5 22.5t-23.5 54.5q0 33 23.5 55.5t59.5 22.5q37 0 60 -22.5t23 -55.5q0 -32 -23 -54.5t-60 -22.5zM119 354q-36 0 -59.5 22.5t-23.5 54.5q0 33 23.5 55.5t59.5 22.5q37 0 60 -22.5t23 -55.5q0 -32 -23 -54.5t-60 -22.5z" />
    <glyph glyph-name="semicolon" unicode=";" horiz-adv-x="262" 
d="M143 354q-36 0 -59.5 22.5t-23.5 54.5q0 33 23.5 55.5t59.5 22.5q37 0 60 -22.5t23 -55.5q0 -32 -23 -54.5t-60 -22.5zM18 -123l57 254h130l-99 -254h-88z" />
    <glyph glyph-name="less" unicode="&#x3c;" 
d="M475 46h-170l-199 203v43l199 204h170l-221 -225z" />
    <glyph glyph-name="equal" unicode="=" 
d="M75 343v118h429v-118h-429zM75 119v118h429v-118h-429z" />
    <glyph glyph-name="greater" unicode="&#x3e;" 
d="M105 46l220 225l-220 225h170l199 -204v-43l-199 -203h-170z" />
    <glyph glyph-name="question" unicode="?" horiz-adv-x="530" 
d="M132 221l-5 166h48q38 0 71 5t57.5 17t38.5 35t14 58q0 31 -12.5 53t-35 34t-53.5 12t-54 -12.5t-35 -34t-12 -51.5h-128q0 60 27 107t78.5 74.5t125.5 27.5q68 0 119.5 -24.5t80.5 -71.5t29 -114q0 -68 -29.5 -113.5t-82 -67.5t-120.5 -23l-6 -77h-116zM191 -5
q-37 0 -60 22.5t-23 54.5q0 33 23 55.5t60 22.5q36 0 59 -22.5t23 -55.5q0 -32 -23 -54.5t-59 -22.5z" />
    <glyph glyph-name="at" unicode="@" horiz-adv-x="1032" 
d="M435 -214q-112 0 -195.5 42.5t-130 121t-46.5 184.5q0 112 39.5 207t110.5 166t167 110t209 39q117 0 202 -44t131 -122t46 -181q0 -61 -15.5 -117t-45.5 -100.5t-74 -70.5t-101 -26q-70 0 -102 40t-23 106l3 32l20 -54q-25 -58 -77 -92t-117 -34q-75 0 -117.5 45.5
t-42.5 122.5q0 55 17.5 105t49 89.5t74.5 62.5t95 23q59 0 92 -28.5t40 -81.5l-21 -15l21 117h110l-46 -266q-7 -37 1.5 -60.5t41.5 -23.5q29 0 50 20t35 53t21 72t7 77q0 81 -34.5 139t-98.5 89.5t-156 31.5q-88 0 -162 -32.5t-129.5 -90t-86 -133.5t-30.5 -164
q0 -84 34 -144t97.5 -91t151.5 -31q46 0 91 9t82 26l21 -88q-47 -20 -100 -30t-109 -10zM479 92q35 0 64 19.5t47 52.5t20 75q2 30 -7.5 53.5t-29 37t-49.5 13.5t-53.5 -13t-40.5 -35.5t-26 -51t-9 -59.5q0 -41 21 -66.5t63 -25.5z" />
    <glyph glyph-name="A" unicode="A" horiz-adv-x="682" 
d="M9 0l231 700h204l229 -700h-143l-187 602h-3l-190 -602h-141zM122 190l36 106h356l35 -106h-427z" />
    <glyph glyph-name="B" unicode="B" horiz-adv-x="611" 
d="M50 0v700h288q72 0 122 -23t76 -63.5t26 -93.5t-23 -89t-61 -55.5t-82 -22.5l16 11q48 -2 85.5 -25.5t59 -62.5t21.5 -85q0 -56 -27 -99t-78.5 -67.5t-125.5 -24.5h-297zM185 110h141q55 0 85 25t30 72t-31 73.5t-86 26.5h-139v-197zM185 408h131q52 0 80 24t28 68
q0 43 -28 67.5t-82 24.5h-129v-184z" />
    <glyph glyph-name="C" unicode="C" horiz-adv-x="725" 
d="M378 -12q-106 0 -182 45.5t-117.5 127t-41.5 188.5t41.5 189t117.5 128t182 46q127 0 208.5 -63t101.5 -178h-148q-13 56 -54 87.5t-109 31.5q-64 0 -109 -29.5t-69 -83.5t-24 -128t24 -127.5t69 -82.5t109 -29q68 0 109 29t54 82h148q-20 -109 -101.5 -171t-208.5 -62z
" />
    <glyph glyph-name="D" unicode="D" horiz-adv-x="690" 
d="M50 0v700h244q122 0 201.5 -43.5t118 -122t38.5 -184.5t-38.5 -184.5t-118 -122t-201.5 -43.5h-244zM185 116h101q87 0 136.5 28t70.5 80.5t21 125.5q0 74 -21 126.5t-70.5 80.5t-136.5 28h-101v-469z" />
    <glyph glyph-name="E" unicode="E" horiz-adv-x="547" 
d="M50 0v700h461v-109h-326v-183h296v-105h-296v-194h326v-109h-461z" />
    <glyph glyph-name="F" unicode="F" horiz-adv-x="525" 
d="M50 0v700h456v-109h-321v-187h258v-106h-258v-298h-135z" />
    <glyph glyph-name="G" unicode="G" horiz-adv-x="760" 
d="M355 -12q-94 0 -165.5 44.5t-112 125t-40.5 187.5q0 108 42.5 190.5t121.5 129.5t188 47q124 0 205.5 -59t105.5 -164h-151q-15 46 -55.5 72.5t-104.5 26.5q-69 0 -116.5 -30t-72.5 -84t-25 -129q0 -76 25 -129t71.5 -80.5t109.5 -27.5q92 0 139 49.5t57 128.5h-172v101
h307v-387h-123l-11 111h-3q-23 -39 -55 -67t-73.5 -42t-91.5 -14z" />
    <glyph glyph-name="H" unicode="H" horiz-adv-x="677" 
d="M492 0v700h135v-700h-135zM50 0v700h135v-700h-135zM167 303v109h347v-109h-347z" />
    <glyph glyph-name="I" unicode="I" horiz-adv-x="236" 
d="M50 0v700h135v-700h-135z" />
    <glyph glyph-name="J" unicode="J" horiz-adv-x="516" 
d="M249 -12q-68 0 -119.5 26t-79.5 76.5t-28 122.5h134q0 -32 10 -55.5t29.5 -36t50.5 -12.5q30 0 48.5 11.5t27 33t8.5 51.5v495h135v-495q0 -105 -58.5 -161t-157.5 -56z" />
    <glyph glyph-name="K" unicode="K" horiz-adv-x="622" 
d="M50 0v700h135v-275l254 275h166l-289 -309l297 -391h-167l-244 318l-17 -17v-301h-135z" />
    <glyph glyph-name="L" unicode="L" horiz-adv-x="516" 
d="M50 0v700h135v-595h308v-105h-443z" />
    <glyph glyph-name="M" unicode="M" horiz-adv-x="856" 
d="M50 0v700h174l204 -457h3l202 457h173v-700h-135v484h-3l-175 -384h-131l-174 384h-3v-484h-135z" />
    <glyph glyph-name="N" unicode="N" horiz-adv-x="693" 
d="M50 0v700h160l294 -510h3v510h135v-700h-159l-295 509h-3v-509h-135z" />
    <glyph glyph-name="O" unicode="O" horiz-adv-x="778" 
d="M389 -12q-104 0 -183 46t-124 127.5t-45 188.5t45 188.5t124 127.5t183 46t183.5 -46t123.5 -127.5t44 -188.5t-44 -188.5t-123.5 -127.5t-183.5 -46zM389 109q65 0 113 29.5t74.5 83.5t26.5 128q0 75 -26.5 128.5t-74.5 82.5t-113 29t-113 -29t-74.5 -82.5t-26.5 -128.5
q0 -74 26.5 -128t74.5 -83.5t113 -29.5z" />
    <glyph glyph-name="P" unicode="P" horiz-adv-x="587" 
d="M50 0v700h264q85 0 140.5 -28.5t82.5 -77.5t27 -111q0 -57 -26 -106t-81.5 -79.5t-142.5 -30.5h-129v-267h-135zM185 376h120q65 0 93 29t28 78q0 51 -28 79t-93 28h-120v-214z" />
    <glyph glyph-name="Q" unicode="Q" horiz-adv-x="778" 
d="M554 -110l-255 401h155l261 -401h-161zM389 -12q-104 0 -183 46t-124 127.5t-45 188.5t45 188.5t124 127.5t183 46t183.5 -46t123.5 -127.5t44 -188.5t-44 -188.5t-123.5 -127.5t-183.5 -46zM389 109q65 0 113 29.5t74.5 83.5t26.5 128q0 75 -26.5 128.5t-74.5 82.5
t-113 29t-113 -29t-74.5 -82.5t-26.5 -128.5q0 -74 26.5 -128t74.5 -83.5t113 -29.5z" />
    <glyph glyph-name="R" unicode="R" horiz-adv-x="590" 
d="M50 0v700h262q85 0 140 -29t82 -77.5t27 -107.5q0 -56 -26.5 -104.5t-81.5 -78t-142 -29.5h-126v-274h-135zM413 0l-144 308h147l152 -308h-155zM185 372h119q61 0 90 30t29 79t-28.5 77.5t-91.5 28.5h-118v-215z" />
    <glyph glyph-name="S" unicode="S" horiz-adv-x="572" 
d="M295 -12q-76 0 -135.5 26t-94 76t-36.5 121h144q1 -31 15.5 -56t41.5 -39.5t64 -14.5q32 0 55.5 9.5t37 28.5t13.5 47q0 30 -14.5 50t-40.5 34t-59 25.5t-68 23.5q-84 29 -128.5 74.5t-44.5 120.5q0 61 30.5 105.5t84.5 68.5t123 24q71 0 124.5 -24.5t85 -70.5t32.5 -108
h-145q0 26 -12.5 46.5t-35 32.5t-52.5 12q-26 0 -47.5 -8t-34 -25t-12.5 -44q0 -25 12 -42t33.5 -29.5t51.5 -24t66 -23.5q53 -18 97 -42.5t70 -63.5t26 -102q0 -55 -28.5 -102.5t-83 -76.5t-135.5 -29z" />
    <glyph glyph-name="T" unicode="T" horiz-adv-x="564" 
d="M215 0v591h-205v109h544v-109h-205v-591h-134z" />
    <glyph glyph-name="U" unicode="U" horiz-adv-x="651" 
d="M323 -12q-77 0 -140.5 31t-100 93t-36.5 158v430h135v-431q0 -52 17 -87.5t49.5 -52.5t77.5 -17q46 0 78.5 17t50 52.5t17.5 87.5v431h135v-430q0 -96 -38.5 -158t-102.5 -93t-142 -31z" />
    <glyph glyph-name="V" unicode="V" horiz-adv-x="681" 
d="M238 0l-231 700h143l190 -602h3l189 602h142l-229 -700h-207z" />
    <glyph glyph-name="W" unicode="W" horiz-adv-x="1000" 
d="M177 0l-167 700h143l124 -598h3l141 598h159l145 -598h3l118 598h144l-167 -700h-190l-133 543h-3l-131 -543h-189z" />
    <glyph glyph-name="X" unicode="X" horiz-adv-x="631" 
d="M14 0l221 355l-224 345h156l152 -239h3l139 239h153l-219 -351l225 -349h-156l-153 243h-3l-141 -243h-153z" />
    <glyph glyph-name="Y" unicode="Y" horiz-adv-x="621" 
d="M243 0v242l-236 458h153l155 -334h-6l154 334h151l-236 -458v-242h-135z" />
    <glyph glyph-name="Z" unicode="Z" horiz-adv-x="514" 
d="M19 0v104l319 484h-317v112h472v-104l-320 -484h322v-112h-476z" />
    <glyph glyph-name="bracketleft" unicode="[" horiz-adv-x="331" 
d="M50 -158v954h248v-109h-121v-735h121v-110h-248z" />
    <glyph glyph-name="backslash" unicode="\" horiz-adv-x="432" 
d="M408 -114h-131l-250 893h131z" />
    <glyph glyph-name="bracketright" unicode="]" horiz-adv-x="331" 
d="M280 -158h-248v110h122v735h-122v109h248v-954z" />
    <glyph glyph-name="asciicircum" unicode="^" horiz-adv-x="661" 
d="M27 168l239 532h129l239 -532h-137l-165 373h-3l-166 -373h-136z" />
    <glyph glyph-name="underscore" unicode="_" horiz-adv-x="737" 
d="M78 -168v129h581v-129h-581z" />
    <glyph glyph-name="grave" unicode="`" horiz-adv-x="228" 
d="M228 539l-228 108v107h3l225 -114v-101z" />
    <glyph glyph-name="a" unicode="a" horiz-adv-x="551" 
d="M210 -12q-60 0 -99 20t-57.5 54t-18.5 75q0 46 23.5 81t71.5 54.5t121 19.5h125q0 37 -10.5 61t-32 35.5t-54.5 11.5q-39 0 -66.5 -17t-34.5 -54h-131q6 55 36.5 95t81 62t114.5 22q72 0 124 -23.5t80 -69t28 -110.5v-305h-113l-14 77h-3q-14 -22 -32 -38.5t-39 -27.5
t-46.5 -17t-53.5 -6zM252 92q27 0 48 9.5t35.5 25.5t23 37.5t11.5 44.5v0h-104q-31 0 -50.5 -7.5t-28.5 -21t-9 -31.5t9 -31t26 -19.5t39 -6.5z" />
    <glyph glyph-name="b" unicode="b" horiz-adv-x="621" 
d="M355 -12q-40 0 -73.5 11.5t-59.5 32t-45 50.5h-3l-9 -82h-115v705h135v-275q24 32 66 55t101 23q72 0 125.5 -33.5t83 -92.5t29.5 -134t-29.5 -134t-82.5 -92.5t-123 -33.5zM318 101q41 0 71.5 19t47 52t16.5 77q0 43 -16.5 76t-47 52t-71.5 19q-40 0 -71 -19t-48 -52
t-17 -77q0 -43 17 -76.5t48 -52t71 -18.5z" />
    <glyph glyph-name="c" unicode="c" horiz-adv-x="568" 
d="M292 -12q-79 0 -137.5 33.5t-91 92t-32.5 134.5t33.5 134.5t92 92t135.5 33.5q96 0 162 -50t83 -138h-143q-8 35 -36.5 55t-66.5 20q-35 0 -62.5 -17.5t-43.5 -50.5t-16 -79q0 -34 9 -60.5t25.5 -45.5t38.5 -29t49 -10q26 0 47 8.5t36 25t20 39.5h143q-17 -86 -83 -137
t-162 -51z" />
    <glyph glyph-name="d" unicode="d" horiz-adv-x="621" 
d="M266 -12q-70 0 -123 33.5t-82.5 92.5t-29.5 134t29.5 134t83.5 92.5t126 33.5q57 0 99.5 -22t66.5 -55v274h135v-705h-115l-9 83h-3q-18 -29 -44 -50t-59 -33t-75 -12zM303 101q41 0 71.5 19t47.5 52t17 77q0 43 -17 76t-47.5 52t-71.5 19q-40 0 -70.5 -19t-47.5 -52
t-17 -76q0 -44 17 -77t47.5 -52t70.5 -19z" />
    <glyph glyph-name="e" unicode="e" horiz-adv-x="567" 
d="M290 -12q-76 0 -134.5 32t-91.5 90t-33 133q0 78 32.5 137.5t91 93.5t136.5 34q74 0 130 -32t88 -87.5t32 -125.5v-22.5t-2 -25.5h-412v83h277q-3 47 -34.5 75t-78.5 28q-35 0 -64 -15.5t-46 -47t-17 -79.5v-29q0 -41 16 -70.5t44.5 -45.5t64.5 -16q37 0 62 16.5t38 42.5
h138q-15 -47 -48 -85.5t-81 -61t-108 -22.5z" />
    <glyph glyph-name="f" unicode="f" horiz-adv-x="336" 
d="M80 0v534q0 63 21 100t60 54t92 17h56v-113h-35q-32 0 -45.5 -12.5t-13.5 -43.5v-536h-135zM12 387v109h307v-109h-307z" />
    <glyph glyph-name="g" unicode="g" horiz-adv-x="574" 
d="M275 -217q-71 0 -124.5 17.5t-83 51t-29.5 82.5q0 34 18 64t53 54.5t86 42.5l49 -66q-44 -15 -64 -36.5t-20 -47.5q0 -21 14.5 -35.5t40.5 -22t60 -7.5q33 0 56 8t35.5 22.5t12.5 34.5q0 26 -19 41.5t-74 19.5q-51 4 -90 11.5t-68.5 18t-50.5 23.5t-34 26v23l107 111
l83 -30l-112 -121l37 61q10 -5 20.5 -9t27 -8t42 -8t64.5 -7q66 -6 108 -24t62 -49t20 -76q0 -41 -24.5 -78.5t-74.5 -62t-128 -24.5zM276 147q-63 0 -108.5 24t-70 65t-24.5 91t24.5 91t70 65.5t108.5 24.5t108.5 -24.5t69.5 -65.5t24 -91t-24 -91t-69.5 -65t-108.5 -24z
M275 246q39 0 63.5 20.5t24.5 60.5t-24.5 60t-62.5 20q-39 0 -64 -20t-25 -60t25 -60.5t63 -20.5zM357 404l-22 92h208v-75z" />
    <glyph glyph-name="h" unicode="h" horiz-adv-x="582" 
d="M50 0v705h133v-290h3q26 45 68 69t99 24q60 0 102.5 -26.5t64.5 -77.5t22 -126v-278h-134v266q0 62 -24.5 95t-78.5 33q-35 0 -62 -16.5t-42.5 -47t-15.5 -74.5v-256h-135z" />
    <glyph glyph-name="i" unicode="i" horiz-adv-x="254" 
d="M59 0v496h135v-496h-135zM127 561q-37 0 -60.5 22t-23.5 54q0 33 23.5 55t60.5 22t60.5 -22t23.5 -55q0 -32 -23.5 -54t-60.5 -22z" />
    <glyph glyph-name="j" unicode="j" horiz-adv-x="257" 
d="M-41 -205v113h40q33 0 46 13t13 44v531h135v-530q0 -62 -21 -99.5t-60 -54.5t-92 -17h-61zM127 561q-37 0 -60.5 22t-23.5 54q0 33 23.5 55t60.5 22t60 -22t23 -55q0 -32 -23 -54t-60 -22z" />
    <glyph glyph-name="k" unicode="k" horiz-adv-x="557" 
d="M381 0l-216 273l191 223h160l-247 -279l-1 107l281 -324h-168zM50 0v705h135v-705h-135z" />
    <glyph glyph-name="l" unicode="l" horiz-adv-x="235" 
d="M50 0v705h135v-705h-135z" />
    <glyph glyph-name="m" unicode="m" horiz-adv-x="908" 
d="M46 0v496h118l12 -79h3q23 45 63.5 68t94.5 23q37 0 68 -10t55 -31t40 -54h3q28 45 70.5 70t103.5 25q60 0 102.5 -26.5t65.5 -77.5t23 -126v-278h-134v266q0 62 -24 95t-76 33q-33 0 -57.5 -15t-38.5 -44t-14 -72v-263h-134v266q0 62 -24 95t-76 33q-30 0 -55 -16.5
t-39.5 -47t-14.5 -74.5v-256h-135z" />
    <glyph glyph-name="n" unicode="n" 
d="M46 0v496h116l11 -81h3q24 43 66 68t103 25q62 0 105 -26.5t65.5 -77.5t22.5 -126v-278h-134v266q0 62 -25 95t-80 33q-34 0 -61 -16.5t-42 -47t-15 -74.5v-256h-135z" />
    <glyph glyph-name="o" unicode="o" horiz-adv-x="572" 
d="M286 -12q-72 0 -130 33t-91.5 92t-33.5 135q0 77 34 135.5t92 91.5t129 33q72 0 130 -33t91.5 -91.5t33.5 -135.5t-34 -135.5t-91.5 -91.5t-129.5 -33zM285 102q33 0 59.5 16.5t43 49t16.5 80.5q0 49 -16.5 81.5t-43 48.5t-57.5 16q-32 0 -59 -16t-43 -48.5t-16 -81.5
q0 -48 16 -80.5t42.5 -49t57.5 -16.5z" />
    <glyph glyph-name="p" unicode="p" horiz-adv-x="621" 
d="M50 -205v701h115l9 -83h3q19 29 44.5 50t59 33t74.5 12q70 0 123 -33.5t82.5 -92.5t29.5 -134t-29.5 -134t-83 -92.5t-125.5 -33.5q-58 0 -100 22t-67 55v-270h-135zM318 100q41 0 71.5 19t47 52t16.5 76q0 44 -16.5 77t-47 52t-71.5 19q-40 0 -71 -19t-48 -52t-17 -76
q0 -44 17 -77t48 -52t71 -19z" />
    <glyph glyph-name="q" unicode="q" horiz-adv-x="621" 
d="M436 -205v271q-24 -32 -66 -55t-100 -23q-72 0 -126 33.5t-83.5 92.5t-29.5 134q0 76 29.5 134.5t82.5 92t123 33.5q41 0 74 -11t59.5 -32t44.5 -51h3l9 82h115v-701h-135zM303 100q41 0 71.5 19t47.5 52t17 77q0 43 -17 76.5t-47.5 52t-71.5 18.5q-40 0 -70.5 -19
t-47.5 -52t-17 -76q0 -44 17 -77t47.5 -52t70.5 -19z" />
    <glyph glyph-name="r" unicode="r" horiz-adv-x="370" 
d="M46 0v496h116l12 -105h3q21 48 47.5 73t60 34.5t75.5 9.5v-143h-36q-34 0 -60.5 -7.5t-45 -24t-28 -43t-9.5 -65.5v-225h-135z" />
    <glyph glyph-name="s" unicode="s" horiz-adv-x="491" 
d="M254 -12q-66 0 -117 22t-81 60.5t-35 87.5h134q5 -18 17 -34t32.5 -25.5t47.5 -9.5t44.5 8t25.5 20t8 25q0 20 -12.5 30.5t-36 18t-54.5 16.5q-33 8 -66.5 18.5t-61.5 25.5t-45 40t-17 61q0 44 24 79t69.5 56t109.5 21q90 0 143.5 -41t62.5 -113h-127q-5 25 -25.5 38.5
t-53.5 13.5q-35 0 -53.5 -13t-18.5 -32q0 -14 12.5 -24t35.5 -17.5t56 -16.5q53 -13 96.5 -28.5t70 -43t26.5 -79.5q1 -47 -25 -84t-73 -58.5t-113 -21.5z" />
    <glyph glyph-name="t" unicode="t" horiz-adv-x="378" 
d="M272 0q-53 0 -92.5 16.5t-61.5 55t-22 105.5v210h-85v109h85l15 135h120v-135h132v-109h-132v-212q0 -35 15 -48.5t51 -13.5h63v-113h-88z" />
    <glyph glyph-name="u" unicode="u" 
d="M234 -12q-62 0 -105 26t-66 77.5t-23 126.5v278h135v-266q0 -62 25 -95t79 -33q35 0 61.5 16.5t41.5 47.5t15 74v256h135v-496h-116l-11 80h-3q-23 -42 -65 -67t-103 -25z" />
    <glyph glyph-name="v" unicode="v" horiz-adv-x="539" 
d="M173 0l-165 496h142l118 -397h4l119 397h141l-166 -496h-193z" />
    <glyph glyph-name="w" unicode="w" horiz-adv-x="794" 
d="M141 0l-133 496h133l87 -405h-5l98 405h152l99 -404h-5l86 404h133l-134 -496h-156l-102 405h6l-103 -405h-156z" />
    <glyph glyph-name="x" unicode="x" horiz-adv-x="553" 
d="M8 0l182 248l-182 248h146l121 -171h3l122 171h145l-182 -248l182 -248h-145l-122 171h-3l-121 -171h-146z" />
    <glyph glyph-name="y" unicode="y" horiz-adv-x="583" 
d="M124 -205l116 261h-29l-203 440h147l144 -321h3l128 321h144l-307 -701h-143z" />
    <glyph glyph-name="z" unicode="z" horiz-adv-x="465" 
d="M27 0v107l251 279h-248v110h401v-107l-255 -279h260v-110h-409z" />
    <glyph glyph-name="braceleft" unicode="{" horiz-adv-x="392" 
d="M301 -162q-79 0 -127.5 42t-48.5 123q0 34 5.5 61t11 52.5t5.5 55.5q0 23 -9.5 42.5t-31 32t-57.5 17.5v108q36 5 57.5 17t31 31.5t9.5 42.5q0 27 -5.5 53t-11 53.5t-5.5 62.5q0 80 48.5 122t127.5 42h63v-112h-38q-36 0 -53 -15.5t-17 -49.5q0 -26 4.5 -51.5t9 -52.5
t4.5 -57q0 -53 -25.5 -90t-82.5 -49v-3q57 -11 82.5 -48.5t25.5 -90.5q0 -33 -4.5 -59.5t-9 -51t-4.5 -50.5q0 -33 17 -49.5t53 -16.5h38v-112h-63z" />
    <glyph glyph-name="bar" unicode="|" horiz-adv-x="236" 
d="M50 -100v820h135v-820h-135z" />
    <glyph glyph-name="braceright" unicode="}" horiz-adv-x="392" 
d="M91 -162h-64v112h39q35 0 52.5 16.5t17.5 49.5q0 26 -4.5 50.5t-9.5 51t-5 59.5q0 53 26.5 90.5t82.5 48.5v3q-56 12 -82.5 49t-26.5 90q0 30 5 57t9.5 52.5t4.5 51.5q0 34 -17 49.5t-53 15.5h-39v112h64q79 0 127 -42t48 -122q0 -34 -5 -62t-10.5 -54t-5.5 -53
q0 -23 9.5 -42.5t31 -32t57.5 -16.5v-108q-36 -5 -57.5 -17.5t-31 -32t-9.5 -42.5q0 -30 5.5 -55.5t10.5 -52.5t5 -61q0 -81 -48 -123t-127 -42z" />
    <glyph glyph-name="asciitilde" unicode="~" 
d="M377 225q-31 0 -55.5 10t-45.5 23t-41 23t-42 10q-25 0 -42 -17t-22 -49h-100q11 65 35 106.5t59 60.5t78 19q32 0 56.5 -10t45 -23t40.5 -23t42 -10q26 0 43 17t21 49h100q-9 -65 -33.5 -106t-59.5 -60.5t-79 -19.5z" />
    <glyph glyph-name="uni00A0" unicode="&#xa0;" horiz-adv-x="208" 
 />
    <glyph glyph-name="exclamdown" unicode="&#xa1;" horiz-adv-x="252" 
d="M69 277h114l15 -474h-145zM126 508q37 0 60 -22.5t23 -54.5q0 -33 -23 -55.5t-60 -22.5q-36 0 -59.5 22.5t-23.5 55.5q0 32 23.5 54.5t59.5 22.5z" />
    <glyph glyph-name="cent" unicode="&#xa2;" horiz-adv-x="568" 
d="M232 -104v172h124v-172h-124zM232 428v172h124v-172h-124zM292 -12q-79 0 -137.5 33.5t-91 92t-32.5 134.5t33.5 134.5t92 92t135.5 33.5q96 0 162 -50t83 -138h-143q-8 35 -36.5 55t-66.5 20q-35 0 -62.5 -17.5t-43.5 -50.5t-16 -79q0 -34 9 -60.5t25.5 -45.5t38.5 -29
t49 -10q26 0 47 8.5t36 25t20 39.5h143q-17 -86 -83 -137t-162 -51z" />
    <glyph glyph-name="sterling" unicode="&#xa3;" horiz-adv-x="598" 
d="M64 0v79q26 25 44 52t27 59.5t9 75.5q0 27 -7.5 54t-18.5 55t-18.5 58.5t-7.5 64.5q0 67 29 114.5t81 73.5t119 26q77 0 127.5 -29.5t77 -78.5t28.5 -110h-124q-2 46 -28.5 76.5t-77.5 30.5q-28 0 -52 -12t-38 -35.5t-14 -59.5q0 -25 7.5 -52.5t18 -56t18.5 -58.5t8 -60
q0 -41 -15.5 -82.5t-53.5 -76.5h355v-108h-494zM29 297v91h402v-91h-402z" />
    <glyph glyph-name="currency" unicode="&#xa4;" horiz-adv-x="533" 
d="M267 118q-57 0 -100.5 22t-68.5 62.5t-25 95.5t25.5 95t69.5 61.5t100 21.5t100 -21.5t69 -61.5t25 -95t-25.5 -95.5t-69.5 -62.5t-100 -22zM104 79l-55 55l93 92l64 -44zM429 79l-91 91l57 52l89 -88zM267 204q20 0 39 9.5t31.5 30t12.5 53.5q0 34 -12.5 54.5t-31 30
t-39.5 9.5t-40 -9.5t-30.5 -30t-11.5 -54.5q0 -33 11 -53.5t30.5 -30t40.5 -9.5zM139 374l-90 89l55 55l96 -96zM386 365l-53 57l96 96l55 -55z" />
    <glyph glyph-name="yen" unicode="&#xa5;" horiz-adv-x="665" 
d="M65 148v92h535v-92h-535zM291 314h-226v92h222zM404 314l4 92h192v-92h-196zM265 0v242l-236 458h153l155 -334h-6l155 334h150l-236 -458v-242h-135z" />
    <glyph glyph-name="brokenbar" unicode="&#xa6;" horiz-adv-x="236" 
d="M50 395v325h135v-325h-135zM50 -100v325h135v-325h-135z" />
    <glyph glyph-name="section" unicode="&#xa7;" horiz-adv-x="585" 
d="M289 -232q-70 0 -124 24.5t-85 70.5t-33 108h144q2 -23 14 -43.5t34 -33t52 -12.5q40 -1 67 19t27 59q0 25 -12.5 41t-34.5 27t-52 20.5t-65 21.5q-51 17 -95.5 43t-70.5 65.5t-26 99.5q0 39 14 74.5t42 63.5q-13 19 -20 42.5t-7 52.5q0 63 30.5 108t84.5 69t123 24
q71 0 124.5 -24.5t85 -70.5t32.5 -108h-144q-1 23 -13.5 43.5t-34.5 33t-52 12.5q-40 1 -67 -19t-27 -59q0 -25 12.5 -41t34.5 -27t51.5 -20.5t65.5 -21.5q52 -18 95.5 -43.5t70 -64.5t26.5 -100q0 -39 -14 -74.5t-42 -63.5q14 -19 20.5 -42.5t6.5 -52.5q0 -62 -30.5 -107.5
t-84 -69.5t-123.5 -24zM392 139q10 10 15 24t5 30q0 26 -11.5 44t-33.5 31.5t-52 25.5t-66 25q-18 6 -31.5 11.5t-24.5 10.5q-10 -10 -15 -23.5t-5 -30.5q0 -20 7.5 -35t21.5 -27.5t34 -22.5t45 -20t55 -21q15 -5 29 -10.5t27 -11.5z" />
    <glyph glyph-name="dieresis" unicode="&#xa8;" horiz-adv-x="320" 
d="M252 563q-27 0 -45.5 18.5t-18.5 45.5t18.5 45.5t45.5 18.5t45 -18.5t18 -45.5t-18 -45.5t-45 -18.5zM68 563q-27 0 -45 18.5t-18 45.5t18 45.5t45 18.5t45.5 -18.5t18.5 -45.5t-18.5 -45.5t-45.5 -18.5z" />
    <glyph glyph-name="copyright" unicode="&#xa9;" horiz-adv-x="786" 
d="M393 -6q-104 0 -182.5 46t-123 127t-44.5 185q0 105 44.5 185.5t123 126t182.5 45.5t182.5 -45.5t122.5 -126t44 -185.5q0 -104 -44 -185t-122.5 -127t-182.5 -46zM393 124q-61 0 -111.5 27.5t-79 79t-28.5 121.5q0 71 28.5 122t79 78.5t111.5 27.5q78 0 134.5 -42
t73.5 -117h-118q-10 31 -34.5 48.5t-58.5 17.5q-30 0 -53.5 -15t-37.5 -45t-14 -75t14 -75t37.5 -45t53.5 -15q37 0 59.5 17.5t33.5 48.5h118q-17 -72 -73.5 -115.5t-134.5 -43.5zM393 42q92 0 159 39.5t103 109t36 161.5q0 94 -36.5 163t-103 107.5t-158.5 38.5t-159 -38.5
t-103 -107.5t-36 -163q0 -92 36 -162t103 -109t159 -39z" />
    <glyph glyph-name="ordfeminine" unicode="&#xaa;" horiz-adv-x="458" 
d="M199 347q-49 0 -86 23.5t-57.5 64.5t-20.5 94q0 54 20.5 95t58 64t87.5 23q43 0 72.5 -16t47.5 -39l6 47h90v-348h-83l-6 60h-2q-19 -32 -51 -50t-76 -18zM227 426q28 0 49 13t33.5 36t12.5 54q0 47 -26.5 75.5t-68.5 28.5q-41 0 -67.5 -28.5t-26.5 -75.5t26.5 -75
t67.5 -28z" />
    <glyph glyph-name="guillemotleft" unicode="&#xab;" horiz-adv-x="514" 
d="M337 120l-90 175l90 175h127l-93 -175l93 -175h-127zM131 120l-89 175l89 175h127l-92 -175l92 -175h-127z" />
    <glyph glyph-name="logicalnot" unicode="&#xac;" 
d="M453 198v136h-462v104h597v-240h-135z" />
    <glyph glyph-name="registered" unicode="&#xae;" horiz-adv-x="510" 
d="M255 291q-61 0 -109 27.5t-75 74.5t-27 108q0 62 27 109.5t75 74.5t109 27q62 0 109 -27t74 -74.5t27 -109.5q0 -61 -27 -108t-74 -74.5t-109 -27.5zM288 397l-56 96h65l62 -96h-71zM255 339q49 0 84.5 20.5t55 57.5t19.5 84q0 49 -19.5 85.5t-55 57t-84.5 20.5
q-48 0 -84 -20.5t-55.5 -57t-19.5 -85.5q0 -47 19.5 -84t55.5 -57.5t84 -20.5zM169 397v213h104q35 0 55.5 -18t20.5 -49t-20.5 -49.5t-55.5 -18.5h-42v-78h-62zM230 520h35q9 0 15 4.5t6 14.5q0 11 -6 15t-15 4h-35v-38z" />
    <glyph glyph-name="macron" unicode="&#xaf;" horiz-adv-x="386" 
d="M4 577v95h378v-95h-378z" />
    <glyph glyph-name="degree" unicode="&#xb0;" horiz-adv-x="363" 
d="M181 423q-38 0 -71 17.5t-53 50t-20 75.5q0 45 20.5 78t53.5 50.5t71 17.5q39 0 71.5 -17.5t52 -50.5t19.5 -78q0 -43 -20 -75.5t-52.5 -50t-71.5 -17.5zM181 508q20 0 38 15t18 45t-17.5 44.5t-37.5 14.5t-38 -15t-18 -44q0 -30 17.5 -45t37.5 -15z" />
    <glyph glyph-name="plusminus" unicode="&#xb1;" 
d="M42 0v103h495v-103h-495zM232 169v363h115v-363h-115zM42 294v113h495v-113h-495z" />
    <glyph glyph-name="uni00B2" unicode="&#xb2;" horiz-adv-x="361" 
d="M37 352v76l118 82q29 20 45 40.5t16 45.5q0 20 -10.5 30.5t-26.5 10.5q-19 0 -29.5 -12t-13.5 -33h-102q3 52 42.5 86t111.5 34q46 0 76.5 -15.5t45.5 -40.5t15 -53q0 -39 -26.5 -67.5t-82.5 -60.5l-69 -42h177v-81h-287z" />
    <glyph glyph-name="uni00B3" unicode="&#xb3;" horiz-adv-x="356" 
d="M177 348q-76 0 -114.5 31t-42.5 84h105q2 -15 8 -24t16.5 -13t22.5 -4q21 0 33 10.5t12 30.5q0 21 -14 32t-37 11h-39v50h35q24 0 37.5 10.5t13.5 31.5q0 19 -12 29t-33 10q-19 0 -30.5 -9.5t-15.5 -27.5h-97q2 30 19 56t50.5 41t84.5 15q63 0 103 -29.5t40 -73.5
q0 -31 -17.5 -50.5t-48.5 -27.5v-2q33 -10 52 -30t19 -52q0 -44 -40.5 -71.5t-109.5 -27.5z" />
    <glyph glyph-name="acute" unicode="&#xb4;" horiz-adv-x="228" 
d="M0 539v101l225 114h3v-107z" />
    <glyph glyph-name="uni00B5" unicode="&#xb5;" horiz-adv-x="589" 
d="M50 -220v716h135v-266q0 -62 25 -95t80 -33q34 0 60.5 16.5t41.5 47.5t15 74v256h135v-496h-117l-11 86h-1q-23 -45 -66 -71.5t-103 -26.5q-17 0 -31.5 3.5t-27.5 10.5v-222h-135z" />
    <glyph glyph-name="paragraph" unicode="&#xb6;" horiz-adv-x="625" 
d="M277 -100v381h-17q-83 0 -135.5 29t-77 76.5t-24.5 103.5q0 57 25 104.5t77.5 76.5t134.5 29h314v-800h-113v696h-70v-696h-114z" />
    <glyph glyph-name="periodcentered" unicode="&#xb7;" horiz-adv-x="239" 
d="M120 240q-37 0 -60.5 22.5t-23.5 54.5q0 34 23.5 56.5t60.5 22.5t60 -22.5t23 -56.5q0 -32 -23 -54.5t-60 -22.5z" />
    <glyph glyph-name="cedilla" unicode="&#xb8;" horiz-adv-x="266" 
d="M0 -264v77h115q25 0 38 8.5t13 26.5t-13 26t-38 8h-62v125h84v-55q33 1 62.5 -10t48 -34.5t18.5 -61.5q0 -37 -18.5 -61.5t-48 -36.5t-64.5 -12h-135z" />
    <glyph glyph-name="uni00B9" unicode="&#xb9;" horiz-adv-x="237" 
d="M93 352v255l-70 -16v64l115 49h59v-352h-104z" />
    <glyph glyph-name="ordmasculine" unicode="&#xba;" horiz-adv-x="454" 
d="M226 348q-58 0 -102 23t-68.5 64.5t-24.5 95.5t25 94.5t69.5 63.5t101.5 23q58 0 102.5 -23t69 -63.5t24.5 -94.5t-25 -95.5t-69.5 -64.5t-102.5 -23zM226 429q24 0 44.5 11.5t33.5 34t13 55.5q0 34 -12.5 56.5t-33 34t-45.5 11.5q-24 0 -44 -11.5t-32.5 -34t-12.5 -56.5
q0 -33 12 -55.5t32.5 -34t44.5 -11.5z" />
    <glyph glyph-name="guillemotright" unicode="&#xbb;" horiz-adv-x="514" 
d="M177 120h-127l92 175l-92 175h127l89 -175zM383 120h-127l92 175l-92 175h127l89 -175z" />
    <glyph glyph-name="onequarter" unicode="&#xbc;" horiz-adv-x="838" 
d="M93 352v255l-70 -16v64l115 49h59v-352h-104zM133 0l393 700h132l-394 -700h-131zM679 0v61h-165v68l133 219h132v-217h37v-70h-37v-61h-100zM612 131h75v123h-3z" />
    <glyph glyph-name="onehalf" unicode="&#xbd;" horiz-adv-x="873" 
d="M93 352v255l-70 -16v64l115 49h59v-352h-104zM133 0l393 700h132l-394 -700h-131zM549 0v76l118 82q29 20 45 40.5t16 45.5q0 20 -10.5 30.5t-26.5 10.5q-19 0 -29.5 -12t-13.5 -33h-102q3 52 42.5 86t111.5 34q46 0 76.5 -15.5t45.5 -40.5t15 -53q0 -39 -26.5 -67.5
t-82.5 -60.5l-69 -42h177v-81h-287z" />
    <glyph glyph-name="threequarters" unicode="&#xbe;" horiz-adv-x="925" 
d="M177 348q-76 0 -114.5 31t-42.5 84h105q2 -15 8 -24t16.5 -13t22.5 -4q21 0 33 10.5t12 30.5q0 21 -14 32t-37 11h-39v50h35q24 0 37.5 10.5t13.5 31.5q0 19 -12 29t-33 10q-19 0 -30.5 -9.5t-15.5 -27.5h-97q2 30 19 56t50.5 41t84.5 15q63 0 103 -29.5t40 -73.5
q0 -31 -17.5 -50.5t-48.5 -27.5v-2q33 -10 52 -30t19 -52q0 -44 -40.5 -71.5t-109.5 -27.5zM220 0l393 700h132l-394 -700h-131zM766 0v61h-165v68l133 219h132v-217h37v-70h-37v-61h-100zM699 131h75v123h-3z" />
    <glyph glyph-name="questiondown" unicode="&#xbf;" horiz-adv-x="530" 
d="M398 282l5 -166h-48q-38 0 -71 -5t-57.5 -17t-38.5 -35t-14 -58q0 -30 12.5 -52.5t35 -34.5t52.5 -12q33 0 55 12.5t34.5 34.5t12.5 51h128q1 -60 -26.5 -107t-79.5 -74.5t-125 -27.5q-67 0 -119 24.5t-81.5 72t-29.5 113.5q0 69 30 114t83 67.5t120 22.5l6 77h116z
M339 508q37 0 60 -22.5t23 -54.5q0 -33 -23 -55.5t-60 -22.5q-36 0 -59 22.5t-23 55.5q0 32 23 54.5t59 22.5z" />
    <glyph glyph-name="Agrave" unicode="&#xc0;" horiz-adv-x="682" 
d="M9 0l231 700h204l229 -700h-143l-187 602h-3l-190 -602h-141zM122 190l36 106h356l35 -106h-427zM455 743l-228 108v107h3l225 -114v-101z" />
    <glyph glyph-name="Aacute" unicode="&#xc1;" horiz-adv-x="682" 
d="M9 0l231 700h204l229 -700h-143l-187 602h-3l-190 -602h-141zM122 190l36 106h356l35 -106h-427zM227 743v101l225 114h3v-107z" />
    <glyph glyph-name="Acircumflex" unicode="&#xc2;" horiz-adv-x="682" 
d="M9 0l231 700h204l229 -700h-143l-187 602h-3l-190 -602h-141zM122 190l36 106h356l35 -106h-427zM194 745v97l148 79l147 -79v-97l-147 83z" />
    <glyph glyph-name="Atilde" unicode="&#xc3;" horiz-adv-x="682" 
d="M9 0l231 700h204l229 -700h-143l-187 602h-3l-190 -602h-141zM122 190l36 106h356l35 -106h-427zM405 751q-29 0 -49.5 11.5t-37.5 23t-38 11.5q-16 0 -27.5 -11t-15.5 -34h-71q11 67 42.5 97.5t77.5 30.5q29 0 49 -11.5t37.5 -23t38.5 -11.5q17 0 28.5 11.5t14.5 33.5
h71q-10 -66 -41.5 -97t-78.5 -31z" />
    <glyph glyph-name="Adieresis" unicode="&#xc4;" horiz-adv-x="682" 
d="M9 0l231 700h204l229 -700h-143l-187 602h-3l-190 -602h-141zM122 190l36 106h356l35 -106h-427zM249 767q-26 0 -44.5 18.5t-18.5 45.5t18.5 45.5t44.5 18.5q28 0 46.5 -18.5t18.5 -45.5t-18.5 -45.5t-46.5 -18.5zM433 767q-27 0 -45.5 18.5t-18.5 45.5t18.5 45.5
t45.5 18.5t45.5 -18.5t18.5 -45.5t-18.5 -45.5t-45.5 -18.5z" />
    <glyph glyph-name="Aring" unicode="&#xc5;" horiz-adv-x="682" 
d="M9 0l231 700h204l229 -700h-143l-187 602h-3l-190 -602h-141zM122 190l36 106h356l35 -106h-427zM341 749q-47 0 -81 30.5t-34 83.5t34 83t81 30q48 0 82 -30t34 -83t-34 -83.5t-82 -30.5zM341 809q22 0 37 15t15 39q0 25 -15 39t-37 14q-21 0 -36 -14t-15 -39
q0 -24 15 -39t36 -15z" />
    <glyph glyph-name="AE" unicode="&#xc6;" horiz-adv-x="913" 
d="M9 0l376 700h493v-107h-268v-185h238v-104h-238v-197h268v-107h-403v598h-3l-316 -598h-147zM142 165l41 105h350l26 -105h-417z" />
    <glyph glyph-name="Ccedilla" unicode="&#xc7;" horiz-adv-x="725" 
d="M378 -12q-106 0 -182 45.5t-117.5 127t-41.5 188.5t41.5 189t117.5 128t182 46q127 0 208.5 -63t101.5 -178h-148q-13 56 -54 87.5t-109 31.5q-64 0 -109 -29.5t-69 -83.5t-24 -128t24 -127.5t69 -82.5t109 -29q68 0 109 29t54 82h148q-20 -109 -101.5 -171t-208.5 -62z
M274 -267v77h115q25 0 38 8.5t13 26.5t-13 26t-38 8h-62v125h84v-55q33 1 62.5 -10t48 -34.5t18.5 -61.5q0 -37 -18.5 -61.5t-48 -36.5t-64.5 -12h-135z" />
    <glyph glyph-name="Egrave" unicode="&#xc8;" horiz-adv-x="547" 
d="M50 0v700h461v-109h-326v-183h296v-105h-296v-194h326v-109h-461zM395 743l-228 108v107h3l225 -114v-101z" />
    <glyph glyph-name="Eacute" unicode="&#xc9;" horiz-adv-x="547" 
d="M50 0v700h461v-109h-326v-183h296v-105h-296v-194h326v-109h-461zM167 743v101l225 114h3v-107z" />
    <glyph glyph-name="Ecircumflex" unicode="&#xca;" horiz-adv-x="547" 
d="M50 0v700h461v-109h-326v-183h296v-105h-296v-194h326v-109h-461zM134 745v97l148 79l147 -79v-97l-147 83z" />
    <glyph glyph-name="Edieresis" unicode="&#xcb;" horiz-adv-x="547" 
d="M50 0v700h461v-109h-326v-183h296v-105h-296v-194h326v-109h-461zM189 767q-26 0 -44.5 18.5t-18.5 45.5t18.5 45.5t44.5 18.5q28 0 46.5 -18.5t18.5 -45.5t-18.5 -45.5t-46.5 -18.5zM373 767q-27 0 -45.5 18.5t-18.5 45.5t18.5 45.5t45.5 18.5t45.5 -18.5t18.5 -45.5
t-18.5 -45.5t-45.5 -18.5z" />
    <glyph glyph-name="Igrave" unicode="&#xcc;" horiz-adv-x="236" 
d="M50 0v700h135v-700h-135zM232 743l-228 108v107h3l225 -114v-101z" />
    <glyph glyph-name="Iacute" unicode="&#xcd;" horiz-adv-x="236" 
d="M50 0v700h135v-700h-135zM4 743v101l225 114h3v-107z" />
    <glyph glyph-name="Icircumflex" unicode="&#xce;" horiz-adv-x="236" 
d="M50 0v700h135v-700h-135zM-29 745v97l148 79l147 -79v-97l-147 83z" />
    <glyph glyph-name="Idieresis" unicode="&#xcf;" horiz-adv-x="236" 
d="M50 0v700h135v-700h-135zM26 767q-26 0 -44.5 18.5t-18.5 45.5t18.5 45.5t44.5 18.5q28 0 46.5 -18.5t18.5 -45.5t-18.5 -45.5t-46.5 -18.5zM210 767q-27 0 -45.5 18.5t-18.5 45.5t18.5 45.5t45.5 18.5t45.5 -18.5t18.5 -45.5t-18.5 -45.5t-45.5 -18.5z" />
    <glyph glyph-name="Eth" unicode="&#xd0;" horiz-adv-x="705" 
d="M9 293v115h373v-115h-373zM65 0v700h244q122 0 201.5 -43.5t118 -122t38.5 -184.5t-38.5 -184.5t-118 -122t-201.5 -43.5h-244zM200 116h101q87 0 136.5 28t70.5 80.5t21 125.5q0 74 -21 126.5t-70.5 80.5t-136.5 28h-101v-469z" />
    <glyph glyph-name="Ntilde" unicode="&#xd1;" horiz-adv-x="693" 
d="M50 0v700h160l294 -510h3v510h135v-700h-159l-295 509h-3v-509h-135zM410 751q-29 0 -49.5 11.5t-37.5 23t-38 11.5q-16 0 -27.5 -11t-15.5 -34h-71q11 67 42.5 97.5t77.5 30.5q29 0 49 -11.5t37.5 -23t38.5 -11.5q17 0 28.5 11.5t14.5 33.5h71q-10 -66 -41.5 -97
t-78.5 -31z" />
    <glyph glyph-name="Ograve" unicode="&#xd2;" horiz-adv-x="778" 
d="M389 -12q-104 0 -183 46t-124 127.5t-45 188.5t45 188.5t124 127.5t183 46t183.5 -46t123.5 -127.5t44 -188.5t-44 -188.5t-123.5 -127.5t-183.5 -46zM389 109q65 0 113 29.5t74.5 83.5t26.5 128q0 75 -26.5 128.5t-74.5 82.5t-113 29t-113 -29t-74.5 -82.5t-26.5 -128.5
q0 -74 26.5 -128t74.5 -83.5t113 -29.5zM503 743l-228 108v107h3l225 -114v-101z" />
    <glyph glyph-name="Oacute" unicode="&#xd3;" horiz-adv-x="778" 
d="M389 -12q-104 0 -183 46t-124 127.5t-45 188.5t45 188.5t124 127.5t183 46t183.5 -46t123.5 -127.5t44 -188.5t-44 -188.5t-123.5 -127.5t-183.5 -46zM389 109q65 0 113 29.5t74.5 83.5t26.5 128q0 75 -26.5 128.5t-74.5 82.5t-113 29t-113 -29t-74.5 -82.5t-26.5 -128.5
q0 -74 26.5 -128t74.5 -83.5t113 -29.5zM275 743v101l225 114h3v-107z" />
    <glyph glyph-name="Ocircumflex" unicode="&#xd4;" horiz-adv-x="778" 
d="M389 -12q-104 0 -183 46t-124 127.5t-45 188.5t45 188.5t124 127.5t183 46t183.5 -46t123.5 -127.5t44 -188.5t-44 -188.5t-123.5 -127.5t-183.5 -46zM389 109q65 0 113 29.5t74.5 83.5t26.5 128q0 75 -26.5 128.5t-74.5 82.5t-113 29t-113 -29t-74.5 -82.5t-26.5 -128.5
q0 -74 26.5 -128t74.5 -83.5t113 -29.5zM241 745v97l148 79l147 -79v-97l-147 83z" />
    <glyph glyph-name="Otilde" unicode="&#xd5;" horiz-adv-x="778" 
d="M389 -12q-104 0 -183 46t-124 127.5t-45 188.5t45 188.5t124 127.5t183 46t183.5 -46t123.5 -127.5t44 -188.5t-44 -188.5t-123.5 -127.5t-183.5 -46zM389 109q65 0 113 29.5t74.5 83.5t26.5 128q0 75 -26.5 128.5t-74.5 82.5t-113 29t-113 -29t-74.5 -82.5t-26.5 -128.5
q0 -74 26.5 -128t74.5 -83.5t113 -29.5zM452 751q-29 0 -49.5 11.5t-37.5 23t-38 11.5q-16 0 -27.5 -11t-15.5 -34h-71q11 67 42.5 97.5t77.5 30.5q29 0 49 -11.5t37.5 -23t38.5 -11.5q17 0 28.5 11.5t14.5 33.5h71q-10 -66 -41.5 -97t-78.5 -31z" />
    <glyph glyph-name="Odieresis" unicode="&#xd6;" horiz-adv-x="778" 
d="M389 -12q-104 0 -183 46t-124 127.5t-45 188.5t45 188.5t124 127.5t183 46t183.5 -46t123.5 -127.5t44 -188.5t-44 -188.5t-123.5 -127.5t-183.5 -46zM389 109q65 0 113 29.5t74.5 83.5t26.5 128q0 75 -26.5 128.5t-74.5 82.5t-113 29t-113 -29t-74.5 -82.5t-26.5 -128.5
q0 -74 26.5 -128t74.5 -83.5t113 -29.5zM297 767q-26 0 -44.5 18.5t-18.5 45.5t18.5 45.5t44.5 18.5q28 0 46.5 -18.5t18.5 -45.5t-18.5 -45.5t-46.5 -18.5zM481 767q-27 0 -45.5 18.5t-18.5 45.5t18.5 45.5t45.5 18.5t45.5 -18.5t18.5 -45.5t-18.5 -45.5t-45.5 -18.5z" />
    <glyph glyph-name="multiply" unicode="&#xd7;" 
d="M166 87l-80 79l124 124l-121 121l79 80l122 -122l123 124l79 -79l-123 -124l121 -122l-79 -79l-122 122z" />
    <glyph glyph-name="Oslash" unicode="&#xd8;" horiz-adv-x="775" 
d="M25 0l598 700h127l-598 -700h-127zM388 -12q-104 0 -183 46t-123.5 127.5t-44.5 188.5t44.5 188.5t123.5 127.5t183 46q105 0 184 -46t123.5 -127.5t44.5 -188.5t-44.5 -188.5t-123.5 -127.5t-184 -46zM388 109q66 0 114 29.5t74 83.5t26 128q0 75 -26 128.5t-74 82.5
t-114 29q-64 0 -112.5 -29t-75 -82.5t-26.5 -128.5q0 -74 26.5 -128t75 -83.5t112.5 -29.5z" />
    <glyph glyph-name="Ugrave" unicode="&#xd9;" horiz-adv-x="651" 
d="M323 -12q-77 0 -140.5 31t-100 93t-36.5 158v430h135v-431q0 -52 17 -87.5t49.5 -52.5t77.5 -17q46 0 78.5 17t50 52.5t17.5 87.5v431h135v-430q0 -96 -38.5 -158t-102.5 -93t-142 -31zM439 743l-228 108v107h3l225 -114v-101z" />
    <glyph glyph-name="Uacute" unicode="&#xda;" horiz-adv-x="651" 
d="M323 -12q-77 0 -140.5 31t-100 93t-36.5 158v430h135v-431q0 -52 17 -87.5t49.5 -52.5t77.5 -17q46 0 78.5 17t50 52.5t17.5 87.5v431h135v-430q0 -96 -38.5 -158t-102.5 -93t-142 -31zM211 743v101l225 114h3v-107z" />
    <glyph glyph-name="Ucircumflex" unicode="&#xdb;" horiz-adv-x="651" 
d="M323 -12q-77 0 -140.5 31t-100 93t-36.5 158v430h135v-431q0 -52 17 -87.5t49.5 -52.5t77.5 -17q46 0 78.5 17t50 52.5t17.5 87.5v431h135v-430q0 -96 -38.5 -158t-102.5 -93t-142 -31zM178 745v97l148 79l147 -79v-97l-147 83z" />
    <glyph glyph-name="Udieresis" unicode="&#xdc;" horiz-adv-x="651" 
d="M323 -12q-77 0 -140.5 31t-100 93t-36.5 158v430h135v-431q0 -52 17 -87.5t49.5 -52.5t77.5 -17q46 0 78.5 17t50 52.5t17.5 87.5v431h135v-430q0 -96 -38.5 -158t-102.5 -93t-142 -31zM233 767q-26 0 -44.5 18.5t-18.5 45.5t18.5 45.5t44.5 18.5q28 0 46.5 -18.5
t18.5 -45.5t-18.5 -45.5t-46.5 -18.5zM417 767q-27 0 -45.5 18.5t-18.5 45.5t18.5 45.5t45.5 18.5t45.5 -18.5t18.5 -45.5t-18.5 -45.5t-45.5 -18.5z" />
    <glyph glyph-name="Yacute" unicode="&#xdd;" horiz-adv-x="621" 
d="M243 0v242l-236 458h153l155 -334h-6l154 334h151l-236 -458v-242h-135zM197 743v101l225 114h3v-107z" />
    <glyph glyph-name="Thorn" unicode="&#xde;" horiz-adv-x="587" 
d="M50 0v700h135v-134h129q84 0 140 -28t83 -77t27 -112q0 -57 -26 -106t-81.5 -79t-142.5 -30h-129v-134h-135zM185 243h120q65 0 93 29t28 77q0 51 -28 79t-93 28h-120v-213z" />
    <glyph glyph-name="germandbls" unicode="&#xdf;" horiz-adv-x="687" 
d="M464 -10q-93 0 -151.5 48.5t-68.5 137.5h126q4 -39 28 -62.5t64 -23.5q36 0 55.5 16t19.5 46q0 29 -19 47.5t-73 36.5q-82 29 -118 58.5t-36 75.5q0 28 12.5 46t31 30.5t37 23.5t31 25t12.5 35q0 34 -29.5 54t-79.5 20q-62 0 -92 -31.5t-30 -88.5v-484h-134v492
q0 67 31 117.5t89.5 79t141.5 28.5q74 0 127 -23t81.5 -62t28.5 -86q0 -32 -12 -53t-30.5 -35t-37 -24.5t-31 -21t-12.5 -24.5q0 -10 8 -19.5t29.5 -20t63.5 -25.5q76 -27 108.5 -65.5t32.5 -96.5q0 -51 -25 -89.5t-70.5 -60t-108.5 -21.5z" />
    <glyph glyph-name="agrave" unicode="&#xe0;" horiz-adv-x="551" 
d="M210 -12q-60 0 -99 20t-57.5 54t-18.5 75q0 46 23.5 81t71.5 54.5t121 19.5h125q0 37 -10.5 61t-32 35.5t-54.5 11.5q-39 0 -66.5 -17t-34.5 -54h-131q6 55 36.5 95t81 62t114.5 22q72 0 124 -23.5t80 -69t28 -110.5v-305h-113l-14 77h-3q-14 -22 -32 -38.5t-39 -27.5
t-46.5 -17t-53.5 -6zM252 92q27 0 48 9.5t35.5 25.5t23 37.5t11.5 44.5v0h-104q-31 0 -50.5 -7.5t-28.5 -21t-9 -31.5t9 -31t26 -19.5t39 -6.5zM387 539l-228 108v107h3l225 -114v-101z" />
    <glyph glyph-name="aacute" unicode="&#xe1;" horiz-adv-x="551" 
d="M210 -12q-60 0 -99 20t-57.5 54t-18.5 75q0 46 23.5 81t71.5 54.5t121 19.5h125q0 37 -10.5 61t-32 35.5t-54.5 11.5q-39 0 -66.5 -17t-34.5 -54h-131q6 55 36.5 95t81 62t114.5 22q72 0 124 -23.5t80 -69t28 -110.5v-305h-113l-14 77h-3q-14 -22 -32 -38.5t-39 -27.5
t-46.5 -17t-53.5 -6zM252 92q27 0 48 9.5t35.5 25.5t23 37.5t11.5 44.5v0h-104q-31 0 -50.5 -7.5t-28.5 -21t-9 -31.5t9 -31t26 -19.5t39 -6.5zM159 539v101l225 114h3v-107z" />
    <glyph glyph-name="acircumflex" unicode="&#xe2;" horiz-adv-x="551" 
d="M210 -12q-60 0 -99 20t-57.5 54t-18.5 75q0 46 23.5 81t71.5 54.5t121 19.5h125q0 37 -10.5 61t-32 35.5t-54.5 11.5q-39 0 -66.5 -17t-34.5 -54h-131q6 55 36.5 95t81 62t114.5 22q72 0 124 -23.5t80 -69t28 -110.5v-305h-113l-14 77h-3q-14 -22 -32 -38.5t-39 -27.5
t-46.5 -17t-53.5 -6zM252 92q27 0 48 9.5t35.5 25.5t23 37.5t11.5 44.5v0h-104q-31 0 -50.5 -7.5t-28.5 -21t-9 -31.5t9 -31t26 -19.5t39 -6.5zM126 542v96l148 80l147 -80v-96l-147 83z" />
    <glyph glyph-name="atilde" unicode="&#xe3;" horiz-adv-x="551" 
d="M210 -12q-60 0 -99 20t-57.5 54t-18.5 75q0 46 23.5 81t71.5 54.5t121 19.5h125q0 37 -10.5 61t-32 35.5t-54.5 11.5q-39 0 -66.5 -17t-34.5 -54h-131q6 55 36.5 95t81 62t114.5 22q72 0 124 -23.5t80 -69t28 -110.5v-305h-113l-14 77h-3q-14 -22 -32 -38.5t-39 -27.5
t-46.5 -17t-53.5 -6zM252 92q27 0 48 9.5t35.5 25.5t23 37.5t11.5 44.5v0h-104q-31 0 -50.5 -7.5t-28.5 -21t-9 -31.5t9 -31t26 -19.5t39 -6.5zM332 562q-29 0 -49.5 11.5t-37.5 23t-38 11.5q-16 0 -27.5 -11t-15.5 -34h-71q11 67 42.5 97.5t77.5 30.5q29 0 49 -11.5
t37.5 -22.5t38.5 -11q17 0 28.5 11t14.5 34h71q-10 -67 -41.5 -98t-78.5 -31z" />
    <glyph glyph-name="adieresis" unicode="&#xe4;" horiz-adv-x="551" 
d="M210 -12q-60 0 -99 20t-57.5 54t-18.5 75q0 46 23.5 81t71.5 54.5t121 19.5h125q0 37 -10.5 61t-32 35.5t-54.5 11.5q-39 0 -66.5 -17t-34.5 -54h-131q6 55 36.5 95t81 62t114.5 22q72 0 124 -23.5t80 -69t28 -110.5v-305h-113l-14 77h-3q-14 -22 -32 -38.5t-39 -27.5
t-46.5 -17t-53.5 -6zM252 92q27 0 48 9.5t35.5 25.5t23 37.5t11.5 44.5v0h-104q-31 0 -50.5 -7.5t-28.5 -21t-9 -31.5t9 -31t26 -19.5t39 -6.5zM180 562q-26 0 -44.5 18.5t-18.5 44.5q0 28 18.5 46.5t44.5 18.5q28 0 46.5 -18.5t18.5 -46.5q0 -26 -18.5 -44.5t-46.5 -18.5z
M364 562q-27 0 -45.5 18.5t-18.5 44.5q0 28 18.5 46.5t45.5 18.5t45.5 -18.5t18.5 -46.5q0 -26 -18.5 -44.5t-45.5 -18.5z" />
    <glyph glyph-name="aring" unicode="&#xe5;" horiz-adv-x="551" 
d="M210 -12q-60 0 -99 20t-57.5 54t-18.5 75q0 46 23.5 81t71.5 54.5t121 19.5h125q0 37 -10.5 61t-32 35.5t-54.5 11.5q-39 0 -66.5 -17t-34.5 -54h-131q6 55 36.5 95t81 62t114.5 22q72 0 124 -23.5t80 -69t28 -110.5v-305h-113l-14 77h-3q-14 -22 -32 -38.5t-39 -27.5
t-46.5 -17t-53.5 -6zM252 92q27 0 48 9.5t35.5 25.5t23 37.5t11.5 44.5v0h-104q-31 0 -50.5 -7.5t-28.5 -21t-9 -31.5t9 -31t26 -19.5t39 -6.5zM273 562q-47 0 -81 30.5t-34 83.5q0 52 34 82.5t81 30.5q48 0 82 -30.5t34 -82.5q0 -53 -34 -83.5t-82 -30.5zM273 622
q22 0 37 14.5t15 39.5t-15 39t-37 14q-21 0 -36 -14t-15 -39t15 -39.5t36 -14.5z" />
    <glyph glyph-name="ae" unicode="&#xe6;" horiz-adv-x="913" 
d="M219 -12q-64 0 -104.5 20t-60 54.5t-19.5 75.5q0 46 23.5 81t71 54.5t120.5 19.5h127q0 36 -10.5 60t-32 35.5t-54.5 11.5q-37 0 -65 -17t-34 -53h-131q5 54 35.5 94t81 62t114.5 22q60 0 105 -17.5t75 -49.5q32 32 77.5 49.5t98.5 17.5q74 0 130.5 -32t88 -87.5
t31.5 -125.5v-22.5t-2 -25.5h-372q3 -36 19.5 -62.5t43.5 -40.5t60 -14q37 0 62.5 17.5t38.5 45.5h137q-14 -49 -47.5 -88t-81.5 -62t-108 -23q-65 0 -118 25t-88 70q-29 -34 -62.5 -55t-71 -30.5t-78.5 -9.5zM253 92q34 0 59 16t40 42.5t19 57.5v2h-105q-31 0 -50.5 -7.5
t-28.5 -21t-9 -31.5t9 -31t26 -20t40 -7zM516 297h234q-3 48 -34.5 76t-77.5 28q-30 0 -55.5 -11.5t-43 -34.5t-23.5 -58z" />
    <glyph glyph-name="ccedilla" unicode="&#xe7;" horiz-adv-x="568" 
d="M292 -12q-79 0 -137.5 33.5t-91 92t-32.5 134.5t33.5 134.5t92 92t135.5 33.5q96 0 162 -50t83 -138h-143q-8 35 -36.5 55t-66.5 20q-35 0 -62.5 -17.5t-43.5 -50.5t-16 -79q0 -34 9 -60.5t25.5 -45.5t38.5 -29t49 -10q26 0 47 8.5t36 25t20 39.5h143q-17 -86 -83 -137
t-162 -51zM196 -267v77h115q25 0 38 8.5t13 26.5t-13 26t-38 8h-62v125h84v-55q33 1 62.5 -10t48 -34.5t18.5 -61.5q0 -37 -18.5 -61.5t-48 -36.5t-64.5 -12h-135z" />
    <glyph glyph-name="egrave" unicode="&#xe8;" horiz-adv-x="567" 
d="M290 -12q-76 0 -134.5 32t-91.5 90t-33 133q0 78 32.5 137.5t91 93.5t136.5 34q74 0 130 -32t88 -87.5t32 -125.5v-22.5t-2 -25.5h-412v83h277q-3 47 -34.5 75t-78.5 28q-35 0 -64 -15.5t-46 -47t-17 -79.5v-29q0 -41 16 -70.5t44.5 -45.5t64.5 -16q37 0 62 16.5t38 42.5
h138q-15 -47 -48 -85.5t-81 -61t-108 -22.5zM399 539l-228 108v107h3l225 -114v-101z" />
    <glyph glyph-name="eacute" unicode="&#xe9;" horiz-adv-x="567" 
d="M290 -12q-76 0 -134.5 32t-91.5 90t-33 133q0 78 32.5 137.5t91 93.5t136.5 34q74 0 130 -32t88 -87.5t32 -125.5v-22.5t-2 -25.5h-412v83h277q-3 47 -34.5 75t-78.5 28q-35 0 -64 -15.5t-46 -47t-17 -79.5v-29q0 -41 16 -70.5t44.5 -45.5t64.5 -16q37 0 62 16.5t38 42.5
h138q-15 -47 -48 -85.5t-81 -61t-108 -22.5zM171 539v101l225 114h3v-107z" />
    <glyph glyph-name="ecircumflex" unicode="&#xea;" horiz-adv-x="567" 
d="M290 -12q-76 0 -134.5 32t-91.5 90t-33 133q0 78 32.5 137.5t91 93.5t136.5 34q74 0 130 -32t88 -87.5t32 -125.5v-22.5t-2 -25.5h-412v83h277q-3 47 -34.5 75t-78.5 28q-35 0 -64 -15.5t-46 -47t-17 -79.5v-29q0 -41 16 -70.5t44.5 -45.5t64.5 -16q37 0 62 16.5t38 42.5
h138q-15 -47 -48 -85.5t-81 -61t-108 -22.5zM138 542v96l148 80l147 -80v-96l-147 83z" />
    <glyph glyph-name="edieresis" unicode="&#xeb;" horiz-adv-x="567" 
d="M290 -12q-76 0 -134.5 32t-91.5 90t-33 133q0 78 32.5 137.5t91 93.5t136.5 34q74 0 130 -32t88 -87.5t32 -125.5v-22.5t-2 -25.5h-412v83h277q-3 47 -34.5 75t-78.5 28q-35 0 -64 -15.5t-46 -47t-17 -79.5v-29q0 -41 16 -70.5t44.5 -45.5t64.5 -16q37 0 62 16.5t38 42.5
h138q-15 -47 -48 -85.5t-81 -61t-108 -22.5zM192 562q-26 0 -44.5 18.5t-18.5 44.5q0 28 18.5 46.5t44.5 18.5q28 0 46.5 -18.5t18.5 -46.5q0 -26 -18.5 -44.5t-46.5 -18.5zM376 562q-27 0 -45.5 18.5t-18.5 44.5q0 28 18.5 46.5t45.5 18.5t45.5 -18.5t18.5 -46.5
q0 -26 -18.5 -44.5t-45.5 -18.5z" />
    <glyph glyph-name="igrave" unicode="&#xec;" horiz-adv-x="227" 
d="M46 0v496h135v-496h-135zM228 539l-228 108v107h3l225 -114v-101z" />
    <glyph glyph-name="iacute" unicode="&#xed;" horiz-adv-x="227" 
d="M46 0v496h135v-496h-135zM0 539v101l225 114h3v-107z" />
    <glyph glyph-name="icircumflex" unicode="&#xee;" horiz-adv-x="227" 
d="M46 0v496h135v-496h-135zM-34 542v96l148 80l147 -80v-96l-147 83z" />
    <glyph glyph-name="idieresis" unicode="&#xef;" horiz-adv-x="227" 
d="M46 0v496h135v-496h-135zM21 562q-26 0 -44.5 18.5t-18.5 44.5q0 28 18.5 46.5t44.5 18.5q28 0 46.5 -18.5t18.5 -46.5q0 -26 -18.5 -44.5t-46.5 -18.5zM205 562q-27 0 -45.5 18.5t-18.5 44.5q0 28 18.5 46.5t45.5 18.5t45.5 -18.5t18.5 -46.5q0 -26 -18.5 -44.5
t-45.5 -18.5z" />
    <glyph glyph-name="eth" unicode="&#xf0;" horiz-adv-x="581" 
d="M290 -12q-74 0 -132.5 32t-92.5 90.5t-34 136.5q0 80 33 136.5t90.5 87t130.5 30.5q34 0 64 -7.5t56 -23.5q-14 33 -32.5 64.5t-41 60.5t-48 55t-53.5 50h126q53 -46 90 -98t60 -106.5t33.5 -110t10.5 -109.5q0 -89 -34.5 -154t-93.5 -99.5t-132 -34.5zM291 102
q33 0 61 16.5t44.5 49t16.5 79.5q0 48 -16.5 80.5t-44 49t-61.5 16.5q-32 0 -60 -16.5t-45 -49t-17 -80.5q0 -47 17 -79.5t44.5 -49t60.5 -16.5zM213 535v80l296 94v-80z" />
    <glyph glyph-name="ntilde" unicode="&#xf1;" 
d="M46 0v496h116l11 -81h3q24 43 66 68t103 25q62 0 105 -26.5t65.5 -77.5t22.5 -126v-278h-134v266q0 62 -25 95t-80 33q-34 0 -61 -16.5t-42 -47t-15 -74.5v-256h-135zM355 562q-29 0 -49.5 11.5t-37.5 23t-38 11.5q-16 0 -27.5 -11t-15.5 -34h-71q11 67 42.5 97.5
t77.5 30.5q29 0 49 -11.5t37.5 -22.5t38.5 -11q17 0 28.5 11t14.5 34h71q-10 -67 -41.5 -98t-78.5 -31z" />
    <glyph glyph-name="ograve" unicode="&#xf2;" horiz-adv-x="572" 
d="M286 -12q-72 0 -130 33t-91.5 92t-33.5 135q0 77 34 135.5t92 91.5t129 33q72 0 130 -33t91.5 -91.5t33.5 -135.5t-34 -135.5t-91.5 -91.5t-129.5 -33zM285 102q33 0 59.5 16.5t43 49t16.5 80.5q0 49 -16.5 81.5t-43 48.5t-57.5 16q-32 0 -59 -16t-43 -48.5t-16 -81.5
q0 -48 16 -80.5t42.5 -49t57.5 -16.5zM400 539l-228 108v107h3l225 -114v-101z" />
    <glyph glyph-name="oacute" unicode="&#xf3;" horiz-adv-x="572" 
d="M286 -12q-72 0 -130 33t-91.5 92t-33.5 135q0 77 34 135.5t92 91.5t129 33q72 0 130 -33t91.5 -91.5t33.5 -135.5t-34 -135.5t-91.5 -91.5t-129.5 -33zM285 102q33 0 59.5 16.5t43 49t16.5 80.5q0 49 -16.5 81.5t-43 48.5t-57.5 16q-32 0 -59 -16t-43 -48.5t-16 -81.5
q0 -48 16 -80.5t42.5 -49t57.5 -16.5zM172 539v101l225 114h3v-107z" />
    <glyph glyph-name="ocircumflex" unicode="&#xf4;" horiz-adv-x="572" 
d="M286 -12q-72 0 -130 33t-91.5 92t-33.5 135q0 77 34 135.5t92 91.5t129 33q72 0 130 -33t91.5 -91.5t33.5 -135.5t-34 -135.5t-91.5 -91.5t-129.5 -33zM285 102q33 0 59.5 16.5t43 49t16.5 80.5q0 49 -16.5 81.5t-43 48.5t-57.5 16q-32 0 -59 -16t-43 -48.5t-16 -81.5
q0 -48 16 -80.5t42.5 -49t57.5 -16.5zM139 542v96l148 80l147 -80v-96l-147 83z" />
    <glyph glyph-name="otilde" unicode="&#xf5;" horiz-adv-x="572" 
d="M286 -12q-72 0 -130 33t-91.5 92t-33.5 135q0 77 34 135.5t92 91.5t129 33q72 0 130 -33t91.5 -91.5t33.5 -135.5t-34 -135.5t-91.5 -91.5t-129.5 -33zM285 102q33 0 59.5 16.5t43 49t16.5 80.5q0 49 -16.5 81.5t-43 48.5t-57.5 16q-32 0 -59 -16t-43 -48.5t-16 -81.5
q0 -48 16 -80.5t42.5 -49t57.5 -16.5zM345 562q-29 0 -49.5 11.5t-37.5 23t-38 11.5q-16 0 -27.5 -11t-15.5 -34h-71q11 67 42.5 97.5t77.5 30.5q29 0 49 -11.5t37.5 -22.5t38.5 -11q17 0 28.5 11t14.5 34h71q-10 -67 -41.5 -98t-78.5 -31z" />
    <glyph glyph-name="odieresis" unicode="&#xf6;" horiz-adv-x="572" 
d="M286 -12q-72 0 -130 33t-91.5 92t-33.5 135q0 77 34 135.5t92 91.5t129 33q72 0 130 -33t91.5 -91.5t33.5 -135.5t-34 -135.5t-91.5 -91.5t-129.5 -33zM285 102q33 0 59.5 16.5t43 49t16.5 80.5q0 49 -16.5 81.5t-43 48.5t-57.5 16q-32 0 -59 -16t-43 -48.5t-16 -81.5
q0 -48 16 -80.5t42.5 -49t57.5 -16.5zM193 562q-26 0 -44.5 18.5t-18.5 44.5q0 28 18.5 46.5t44.5 18.5q28 0 46.5 -18.5t18.5 -46.5q0 -26 -18.5 -44.5t-46.5 -18.5zM377 562q-27 0 -45.5 18.5t-18.5 44.5q0 28 18.5 46.5t45.5 18.5t45.5 -18.5t18.5 -46.5
q0 -26 -18.5 -44.5t-45.5 -18.5z" />
    <glyph glyph-name="divide" unicode="&#xf7;" 
d="M72 233v113h435v-113h-435zM291 31q-37 0 -60.5 22.5t-23.5 54.5q0 33 23.5 55.5t60.5 22.5q36 0 59 -22.5t23 -55.5q0 -32 -23 -54.5t-59 -22.5zM291 396q-37 0 -60.5 22.5t-23.5 54.5q0 33 23.5 55.5t60.5 22.5q36 0 59 -22.5t23 -55.5q0 -32 -23 -54.5t-59 -22.5z" />
    <glyph glyph-name="oslash" unicode="&#xf8;" horiz-adv-x="567" 
d="M18 0l427 496h104l-426 -496h-105zM283 -12q-72 0 -129.5 33t-91.5 92t-34 135q0 77 34 135.5t92 91.5t130 33t129.5 -33t91 -91.5t33.5 -135.5t-33.5 -135.5t-91.5 -91.5t-130 -33zM283 102q32 0 58.5 16.5t43 48.5t16.5 81t-16 81.5t-42.5 48.5t-58.5 16t-59 -16
t-43 -48.5t-16 -81.5t16 -81t42.5 -48.5t58.5 -16.5z" />
    <glyph glyph-name="ugrave" unicode="&#xf9;" 
d="M234 -12q-62 0 -105 26t-66 77.5t-23 126.5v278h135v-266q0 -62 25 -95t79 -33q35 0 61.5 16.5t41.5 47.5t15 74v256h135v-496h-116l-11 80h-3q-23 -42 -65 -67t-103 -25zM400 539l-228 108v107h3l225 -114v-101z" />
    <glyph glyph-name="uacute" unicode="&#xfa;" 
d="M234 -12q-62 0 -105 26t-66 77.5t-23 126.5v278h135v-266q0 -62 25 -95t79 -33q35 0 61.5 16.5t41.5 47.5t15 74v256h135v-496h-116l-11 80h-3q-23 -42 -65 -67t-103 -25zM172 539v101l225 114h3v-107z" />
    <glyph glyph-name="ucircumflex" unicode="&#xfb;" 
d="M234 -12q-62 0 -105 26t-66 77.5t-23 126.5v278h135v-266q0 -62 25 -95t79 -33q35 0 61.5 16.5t41.5 47.5t15 74v256h135v-496h-116l-11 80h-3q-23 -42 -65 -67t-103 -25zM138 542v96l148 80l147 -80v-96l-147 83z" />
    <glyph glyph-name="udieresis" unicode="&#xfc;" 
d="M234 -12q-62 0 -105 26t-66 77.5t-23 126.5v278h135v-266q0 -62 25 -95t79 -33q35 0 61.5 16.5t41.5 47.5t15 74v256h135v-496h-116l-11 80h-3q-23 -42 -65 -67t-103 -25zM193 562q-26 0 -44.5 18.5t-18.5 44.5q0 28 18.5 46.5t44.5 18.5q28 0 46.5 -18.5t18.5 -46.5
q0 -26 -18.5 -44.5t-46.5 -18.5zM377 562q-27 0 -45.5 18.5t-18.5 44.5q0 28 18.5 46.5t45.5 18.5t45.5 -18.5t18.5 -46.5q0 -26 -18.5 -44.5t-45.5 -18.5z" />
    <glyph glyph-name="yacute" unicode="&#xfd;" horiz-adv-x="583" 
d="M124 -205l116 261h-29l-203 440h147l144 -321h3l128 321h144l-307 -701h-143zM177 539v101l225 114h3v-107z" />
    <glyph glyph-name="thorn" unicode="&#xfe;" horiz-adv-x="621" 
d="M50 -205v895h135v-260q17 24 41 41.5t55.5 27t69.5 9.5q70 0 124 -33t84.5 -92t30.5 -135q0 -77 -30.5 -135.5t-84.5 -91.5t-124 -33q-55 0 -97.5 20t-68.5 55v-268h-135zM318 100q40 0 70.5 19t47.5 52t17 77t-17 77t-47.5 52t-70.5 19t-71 -19t-48 -52t-17 -77t17 -77
t48 -52t71 -19z" />
    <glyph glyph-name="ydieresis" unicode="&#xff;" horiz-adv-x="583" 
d="M124 -205l116 261h-29l-203 440h147l144 -321h3l128 321h144l-307 -701h-143zM199 562q-26 0 -44.5 18.5t-18.5 44.5q0 28 18.5 46.5t44.5 18.5q28 0 46.5 -18.5t18.5 -46.5q0 -26 -18.5 -44.5t-46.5 -18.5zM383 562q-27 0 -45.5 18.5t-18.5 44.5q0 28 18.5 46.5
t45.5 18.5t45.5 -18.5t18.5 -46.5q0 -26 -18.5 -44.5t-45.5 -18.5z" />
    <glyph glyph-name="Amacron" unicode="&#x100;" horiz-adv-x="682" 
d="M9 0l231 700h204l229 -700h-143l-187 602h-3l-190 -602h-141zM122 190l36 106h356l35 -106h-427zM152 781v95h378v-95h-378z" />
    <glyph glyph-name="amacron" unicode="&#x101;" horiz-adv-x="551" 
d="M210 -12q-60 0 -99 20t-57.5 54t-18.5 75q0 46 23.5 81t71.5 54.5t121 19.5h125q0 37 -10.5 61t-32 35.5t-54.5 11.5q-39 0 -66.5 -17t-34.5 -54h-131q6 55 36.5 95t81 62t114.5 22q72 0 124 -23.5t80 -69t28 -110.5v-305h-113l-14 77h-3q-14 -22 -32 -38.5t-39 -27.5
t-46.5 -17t-53.5 -6zM252 92q27 0 48 9.5t35.5 25.5t23 37.5t11.5 44.5v0h-104q-31 0 -50.5 -7.5t-28.5 -21t-9 -31.5t9 -31t26 -19.5t39 -6.5zM84 586v95h378v-95h-378z" />
    <glyph glyph-name="Abreve" unicode="&#x102;" horiz-adv-x="682" 
d="M9 0l231 700h204l229 -700h-143l-187 602h-3l-190 -602h-141zM122 190l36 106h356l35 -106h-427zM342 748q-49 0 -84.5 19t-54.5 53.5t-19 82.5v17h71q0 -34 19 -53t68 -19q48 0 67.5 19t19.5 53h71v-18q0 -47 -19.5 -82t-55 -53.5t-83.5 -18.5z" />
    <glyph glyph-name="abreve" unicode="&#x103;" horiz-adv-x="551" 
d="M210 -12q-60 0 -99 20t-57.5 54t-18.5 75q0 46 23.5 81t71.5 54.5t121 19.5h125q0 37 -10.5 61t-32 35.5t-54.5 11.5q-39 0 -66.5 -17t-34.5 -54h-131q6 55 36.5 95t81 62t114.5 22q72 0 124 -23.5t80 -69t28 -110.5v-305h-113l-14 77h-3q-14 -22 -32 -38.5t-39 -27.5
t-46.5 -17t-53.5 -6zM252 92q27 0 48 9.5t35.5 25.5t23 37.5t11.5 44.5v0h-104q-31 0 -50.5 -7.5t-28.5 -21t-9 -31.5t9 -31t26 -19.5t39 -6.5zM273 555q-49 0 -84.5 19t-54.5 53.5t-19 82.5v17h71q0 -33 19 -52t68 -19q48 0 67.5 19t19.5 52h71v-17q0 -48 -19.5 -83
t-55 -53.5t-83.5 -18.5z" />
    <glyph glyph-name="Aogonek" unicode="&#x104;" horiz-adv-x="682" 
d="M9 0l231 700h204l229 -700h-143l-187 602h-3l-190 -602h-141zM122 190l36 106h356l35 -106h-427zM590 -211q-37 0 -68 11t-49.5 35t-18.5 60q0 27 13 52t44.5 49t86.5 47l45 20l30 -63l-51 -25q-36 -18 -51 -34t-15 -34t13.5 -29t37.5 -11q15 0 33.5 4t37.5 11v-79
q-19 -7 -41.5 -10.5t-46.5 -3.5z" />
    <glyph glyph-name="aogonek" unicode="&#x105;" horiz-adv-x="551" 
d="M210 -12q-60 0 -99 20t-57.5 54t-18.5 75q0 46 23.5 81t71.5 54.5t121 19.5h125q0 37 -10.5 61t-32 35.5t-54.5 11.5q-39 0 -66.5 -17t-34.5 -54h-131q6 55 36.5 95t81 62t114.5 22q72 0 124 -23.5t80 -69t28 -110.5v-305h-113l-14 77h-3q-14 -22 -32 -38.5t-39 -27.5
t-46.5 -17t-53.5 -6zM252 92q27 0 48 9.5t35.5 25.5t23 37.5t11.5 44.5v0h-104q-31 0 -50.5 -7.5t-28.5 -21t-9 -31.5t9 -31t26 -19.5t39 -6.5zM428 -211q-37 0 -68 11t-49.5 35t-18.5 60q0 27 13 52t44.5 49t86.5 47l45 20l30 -63l-51 -25q-36 -18 -51 -34t-15 -34
t13.5 -29t37.5 -11q15 0 33.5 4t37.5 11v-79q-19 -7 -41.5 -10.5t-46.5 -3.5z" />
    <glyph glyph-name="Cacute" unicode="&#x106;" horiz-adv-x="725" 
d="M378 -12q-106 0 -182 45.5t-117.5 127t-41.5 188.5t41.5 189t117.5 128t182 46q127 0 208.5 -63t101.5 -178h-148q-13 56 -54 87.5t-109 31.5q-64 0 -109 -29.5t-69 -83.5t-24 -128t24 -127.5t69 -82.5t109 -29q68 0 109 29t54 82h148q-20 -109 -101.5 -171t-208.5 -62z
M248 743v101l225 114h3v-107z" />
    <glyph glyph-name="cacute" unicode="&#x107;" horiz-adv-x="568" 
d="M292 -12q-79 0 -137.5 33.5t-91 92t-32.5 134.5t33.5 134.5t92 92t135.5 33.5q96 0 162 -50t83 -138h-143q-8 35 -36.5 55t-66.5 20q-35 0 -62.5 -17.5t-43.5 -50.5t-16 -79q0 -34 9 -60.5t25.5 -45.5t38.5 -29t49 -10q26 0 47 8.5t36 25t20 39.5h143q-17 -86 -83 -137
t-162 -51zM170 539v101l225 114h3v-107z" />
    <glyph glyph-name="Cdotaccent" unicode="&#x10a;" horiz-adv-x="725" 
d="M378 -12q-106 0 -182 45.5t-117.5 127t-41.5 188.5t41.5 189t117.5 128t182 46q127 0 208.5 -63t101.5 -178h-148q-13 56 -54 87.5t-109 31.5q-64 0 -109 -29.5t-69 -83.5t-24 -128t24 -127.5t69 -82.5t109 -29q68 0 109 29t54 82h148q-20 -109 -101.5 -171t-208.5 -62z
M362 764q-26 0 -44.5 18.5t-18.5 44.5q0 27 18.5 45.5t44.5 18.5q28 0 46.5 -18.5t18.5 -45.5q0 -26 -18.5 -44.5t-46.5 -18.5z" />
    <glyph glyph-name="cdotaccent" unicode="&#x10b;" horiz-adv-x="568" 
d="M292 -12q-79 0 -137.5 33.5t-91 92t-32.5 134.5t33.5 134.5t92 92t135.5 33.5q96 0 162 -50t83 -138h-143q-8 35 -36.5 55t-66.5 20q-35 0 -62.5 -17.5t-43.5 -50.5t-16 -79q0 -34 9 -60.5t25.5 -45.5t38.5 -29t49 -10q26 0 47 8.5t36 25t20 39.5h143q-17 -86 -83 -137
t-162 -51zM283 563q-26 0 -44.5 18.5t-18.5 44.5q0 28 18.5 46.5t44.5 18.5q28 0 46.5 -18.5t18.5 -46.5q0 -26 -18.5 -44.5t-46.5 -18.5z" />
    <glyph glyph-name="Ccaron" unicode="&#x10c;" horiz-adv-x="725" 
d="M378 -12q-106 0 -182 45.5t-117.5 127t-41.5 188.5t41.5 189t117.5 128t182 46q127 0 208.5 -63t101.5 -178h-148q-13 56 -54 87.5t-109 31.5q-64 0 -109 -29.5t-69 -83.5t-24 -128t24 -127.5t69 -82.5t109 -29q68 0 109 29t54 82h148q-20 -109 -101.5 -171t-208.5 -62z
M363 749l-148 80v96l148 -85l147 85v-96z" />
    <glyph glyph-name="ccaron" unicode="&#x10d;" horiz-adv-x="568" 
d="M292 -12q-79 0 -137.5 33.5t-91 92t-32.5 134.5t33.5 134.5t92 92t135.5 33.5q96 0 162 -50t83 -138h-143q-8 35 -36.5 55t-66.5 20q-35 0 -62.5 -17.5t-43.5 -50.5t-16 -79q0 -34 9 -60.5t25.5 -45.5t38.5 -29t49 -10q26 0 47 8.5t36 25t20 39.5h143q-17 -86 -83 -137
t-162 -51zM285 555l-148 80v96l148 -85l147 85v-96z" />
    <glyph glyph-name="Dcaron" unicode="&#x10e;" horiz-adv-x="690" 
d="M50 0v700h244q122 0 201.5 -43.5t118 -122t38.5 -184.5t-38.5 -184.5t-118 -122t-201.5 -43.5h-244zM185 116h101q87 0 136.5 28t70.5 80.5t21 125.5q0 74 -21 126.5t-70.5 80.5t-136.5 28h-101v-469zM290 749l-148 80v96l148 -85l147 85v-96z" />
    <glyph glyph-name="dcaron" unicode="&#x10f;" horiz-adv-x="742" 
d="M266 -12q-70 0 -123 33.5t-82.5 92.5t-29.5 134t29.5 134t83.5 92.5t126 33.5q57 0 99.5 -22t66.5 -55v274h135v-705h-115l-9 83h-3q-18 -29 -44 -50t-59 -33t-75 -12zM303 101q41 0 71.5 19t47.5 52t17 77q0 43 -17 76t-47.5 52t-71.5 19q-40 0 -70.5 -19t-47.5 -52
t-17 -76q0 -44 17 -77t47.5 -52t70.5 -19zM614 506v55q24 0 35.5 8.5t11.5 27.5v19h-47v106h115q1 -29 2 -51.5t1 -46.5q0 -57 -30 -87.5t-88 -30.5z" />
    <glyph glyph-name="Dcroat" unicode="&#x110;" horiz-adv-x="705" 
d="M9 293v115h373v-115h-373zM65 0v700h244q122 0 201.5 -43.5t118 -122t38.5 -184.5t-38.5 -184.5t-118 -122t-201.5 -43.5h-244zM200 116h101q87 0 136.5 28t70.5 80.5t21 125.5q0 74 -21 126.5t-70.5 80.5t-136.5 28h-101v-469z" />
    <glyph glyph-name="dcroat" unicode="&#x111;" horiz-adv-x="645" 
d="M316 550v81h309v-81h-309zM266 -12q-70 0 -123 33.5t-82.5 92.5t-29.5 134t29.5 134t83.5 92.5t126 33.5q57 0 99.5 -22t66.5 -55v274h135v-705h-115l-9 83h-3q-18 -29 -44 -50t-59 -33t-75 -12zM303 101q41 0 71.5 19t47.5 52t17 77q0 43 -17 76t-47.5 52t-71.5 19
q-40 0 -70.5 -19t-47.5 -52t-17 -76q0 -44 17 -77t47.5 -52t70.5 -19z" />
    <glyph glyph-name="Emacron" unicode="&#x112;" horiz-adv-x="547" 
d="M50 0v700h461v-109h-326v-183h296v-105h-296v-194h326v-109h-461zM92 781v95h378v-95h-378z" />
    <glyph glyph-name="emacron" unicode="&#x113;" horiz-adv-x="567" 
d="M290 -12q-76 0 -134.5 32t-91.5 90t-33 133q0 78 32.5 137.5t91 93.5t136.5 34q74 0 130 -32t88 -87.5t32 -125.5v-22.5t-2 -25.5h-412v83h277q-3 47 -34.5 75t-78.5 28q-35 0 -64 -15.5t-46 -47t-17 -79.5v-29q0 -41 16 -70.5t44.5 -45.5t64.5 -16q37 0 62 16.5t38 42.5
h138q-15 -47 -48 -85.5t-81 -61t-108 -22.5zM96 586v95h378v-95h-378z" />
    <glyph glyph-name="Ebreve" unicode="&#x114;" horiz-adv-x="547" 
d="M50 0v700h461v-109h-326v-183h296v-105h-296v-194h326v-109h-461zM282 748q-49 0 -84.5 19t-54.5 53.5t-19 82.5v17h71q0 -34 19 -53t68 -19q48 0 67.5 19t19.5 53h71v-18q0 -47 -19.5 -82t-55 -53.5t-83.5 -18.5z" />
    <glyph glyph-name="ebreve" unicode="&#x115;" horiz-adv-x="567" 
d="M290 -12q-76 0 -134.5 32t-91.5 90t-33 133q0 78 32.5 137.5t91 93.5t136.5 34q74 0 130 -32t88 -87.5t32 -125.5v-22.5t-2 -25.5h-412v83h277q-3 47 -34.5 75t-78.5 28q-35 0 -64 -15.5t-46 -47t-17 -79.5v-29q0 -41 16 -70.5t44.5 -45.5t64.5 -16q37 0 62 16.5t38 42.5
h138q-15 -47 -48 -85.5t-81 -61t-108 -22.5zM285 555q-49 0 -84.5 19t-54.5 53.5t-19 82.5v17h71q0 -33 19 -52t68 -19q48 0 67.5 19t19.5 52h71v-17q0 -48 -19.5 -83t-55 -53.5t-83.5 -18.5z" />
    <glyph glyph-name="Edotaccent" unicode="&#x116;" horiz-adv-x="547" 
d="M50 0v700h461v-109h-326v-183h296v-105h-296v-194h326v-109h-461zM280 764q-26 0 -44.5 18.5t-18.5 44.5q0 27 18.5 45.5t44.5 18.5q28 0 46.5 -18.5t18.5 -45.5q0 -26 -18.5 -44.5t-46.5 -18.5z" />
    <glyph glyph-name="edotaccent" unicode="&#x117;" horiz-adv-x="567" 
d="M290 -12q-76 0 -134.5 32t-91.5 90t-33 133q0 78 32.5 137.5t91 93.5t136.5 34q74 0 130 -32t88 -87.5t32 -125.5v-22.5t-2 -25.5h-412v83h277q-3 47 -34.5 75t-78.5 28q-35 0 -64 -15.5t-46 -47t-17 -79.5v-29q0 -41 16 -70.5t44.5 -45.5t64.5 -16q37 0 62 16.5t38 42.5
h138q-15 -47 -48 -85.5t-81 -61t-108 -22.5zM284 563q-26 0 -44.5 18.5t-18.5 44.5q0 28 18.5 46.5t44.5 18.5q28 0 46.5 -18.5t18.5 -46.5q0 -26 -18.5 -44.5t-46.5 -18.5z" />
    <glyph glyph-name="Eogonek" unicode="&#x118;" horiz-adv-x="547" 
d="M50 0v700h461v-109h-326v-183h296v-105h-296v-194h326v-109h-461zM428 -211q-37 0 -68 11t-49.5 35t-18.5 60q0 27 13 52t44.5 49t86.5 47l45 20l30 -63l-51 -25q-36 -18 -51 -34t-15 -34t13.5 -29t37.5 -11q15 0 33.5 4t37.5 11v-79q-19 -7 -41.5 -10.5t-46.5 -3.5z" />
    <glyph glyph-name="eogonek" unicode="&#x119;" horiz-adv-x="567" 
d="M290 -12q-76 0 -134.5 32t-91.5 90t-33 133q0 78 32.5 137.5t91 93.5t136.5 34q74 0 130 -32t88 -87.5t32 -125.5v-22.5t-2 -25.5h-412v83h277q-3 47 -34.5 75t-78.5 28q-35 0 -64 -15.5t-46 -47t-17 -79.5v-29q0 -41 16 -70.5t44.5 -45.5t64.5 -16q37 0 62 16.5t38 42.5
h138q-15 -47 -48 -85.5t-81 -61t-108 -22.5zM311 -201q-37 0 -68 11t-49.5 35t-18.5 60q0 27 13 52t44.5 49t86.5 47l45 20l30 -63l-51 -25q-36 -18 -51 -34t-15 -34t13.5 -29t37.5 -11q15 0 33.5 4t37.5 11v-79q-19 -7 -41.5 -10.5t-46.5 -3.5z" />
    <glyph glyph-name="Ecaron" unicode="&#x11a;" horiz-adv-x="547" 
d="M50 0v700h461v-109h-326v-183h296v-105h-296v-194h326v-109h-461zM282 749l-148 80v96l148 -85l147 85v-96z" />
    <glyph glyph-name="ecaron" unicode="&#x11b;" horiz-adv-x="567" 
d="M290 -12q-76 0 -134.5 32t-91.5 90t-33 133q0 78 32.5 137.5t91 93.5t136.5 34q74 0 130 -32t88 -87.5t32 -125.5v-22.5t-2 -25.5h-412v83h277q-3 47 -34.5 75t-78.5 28q-35 0 -64 -15.5t-46 -47t-17 -79.5v-29q0 -41 16 -70.5t44.5 -45.5t64.5 -16q37 0 62 16.5t38 42.5
h138q-15 -47 -48 -85.5t-81 -61t-108 -22.5zM286 555l-148 80v96l148 -85l147 85v-96z" />
    <glyph glyph-name="Gbreve" unicode="&#x11e;" horiz-adv-x="760" 
d="M355 -12q-94 0 -165.5 44.5t-112 125t-40.5 187.5q0 108 42.5 190.5t121.5 129.5t188 47q124 0 205.5 -59t105.5 -164h-151q-15 46 -55.5 72.5t-104.5 26.5q-69 0 -116.5 -30t-72.5 -84t-25 -129q0 -76 25 -129t71.5 -80.5t109.5 -27.5q92 0 139 49.5t57 128.5h-172v101
h307v-387h-123l-11 111h-3q-23 -39 -55 -67t-73.5 -42t-91.5 -14zM381 748q-49 0 -84.5 19t-54.5 53.5t-19 82.5v17h71q0 -34 19 -53t68 -19q48 0 67.5 19t19.5 53h71v-18q0 -47 -19.5 -82t-55 -53.5t-83.5 -18.5z" />
    <glyph glyph-name="gbreve" unicode="&#x11f;" horiz-adv-x="574" 
d="M275 -217q-71 0 -124.5 17.5t-83 51t-29.5 82.5q0 34 18 64t53 54.5t86 42.5l49 -66q-44 -15 -64 -36.5t-20 -47.5q0 -21 14.5 -35.5t40.5 -22t60 -7.5q33 0 56 8t35.5 22.5t12.5 34.5q0 26 -19 41.5t-74 19.5q-51 4 -90 11.5t-68.5 18t-50.5 23.5t-34 26v23l107 111
l83 -30l-112 -121l37 61q10 -5 20.5 -9t27 -8t42 -8t64.5 -7q66 -6 108 -24t62 -49t20 -76q0 -41 -24.5 -78.5t-74.5 -62t-128 -24.5zM276 147q-63 0 -108.5 24t-70 65t-24.5 91t24.5 91t70 65.5t108.5 24.5t108.5 -24.5t69.5 -65.5t24 -91t-24 -91t-69.5 -65t-108.5 -24z
M275 246q39 0 63.5 20.5t24.5 60.5t-24.5 60t-62.5 20q-39 0 -64 -20t-25 -60t25 -60.5t63 -20.5zM357 404l-22 92h208v-75zM276 555q-49 0 -84.5 19t-54.5 53.5t-19 82.5v17h71q0 -33 19 -52t68 -19q48 0 67.5 19t19.5 52h71v-17q0 -48 -19.5 -83t-55 -53.5t-83.5 -18.5z
" />
    <glyph glyph-name="Gdotaccent" unicode="&#x120;" horiz-adv-x="760" 
d="M355 -12q-94 0 -165.5 44.5t-112 125t-40.5 187.5q0 108 42.5 190.5t121.5 129.5t188 47q124 0 205.5 -59t105.5 -164h-151q-15 46 -55.5 72.5t-104.5 26.5q-69 0 -116.5 -30t-72.5 -84t-25 -129q0 -76 25 -129t71.5 -80.5t109.5 -27.5q92 0 139 49.5t57 128.5h-172v101
h307v-387h-123l-11 111h-3q-23 -39 -55 -67t-73.5 -42t-91.5 -14zM379 764q-26 0 -44.5 18.5t-18.5 44.5q0 27 18.5 45.5t44.5 18.5q28 0 46.5 -18.5t18.5 -45.5q0 -26 -18.5 -44.5t-46.5 -18.5z" />
    <glyph glyph-name="gdotaccent" unicode="&#x121;" horiz-adv-x="574" 
d="M275 -217q-71 0 -124.5 17.5t-83 51t-29.5 82.5q0 34 18 64t53 54.5t86 42.5l49 -66q-44 -15 -64 -36.5t-20 -47.5q0 -21 14.5 -35.5t40.5 -22t60 -7.5q33 0 56 8t35.5 22.5t12.5 34.5q0 26 -19 41.5t-74 19.5q-51 4 -90 11.5t-68.5 18t-50.5 23.5t-34 26v23l107 111
l83 -30l-112 -121l37 61q10 -5 20.5 -9t27 -8t42 -8t64.5 -7q66 -6 108 -24t62 -49t20 -76q0 -41 -24.5 -78.5t-74.5 -62t-128 -24.5zM276 147q-63 0 -108.5 24t-70 65t-24.5 91t24.5 91t70 65.5t108.5 24.5t108.5 -24.5t69.5 -65.5t24 -91t-24 -91t-69.5 -65t-108.5 -24z
M275 246q39 0 63.5 20.5t24.5 60.5t-24.5 60t-62.5 20q-39 0 -64 -20t-25 -60t25 -60.5t63 -20.5zM357 404l-22 92h208v-75zM275 563q-26 0 -44.5 18.5t-18.5 44.5q0 28 18.5 46.5t44.5 18.5q28 0 46.5 -18.5t18.5 -46.5q0 -26 -18.5 -44.5t-46.5 -18.5z" />
    <glyph glyph-name="uni0122" unicode="&#x122;" horiz-adv-x="760" 
d="M355 -12q-94 0 -165.5 44.5t-112 125t-40.5 187.5q0 108 42.5 190.5t121.5 129.5t188 47q124 0 205.5 -59t105.5 -164h-151q-15 46 -55.5 72.5t-104.5 26.5q-69 0 -116.5 -30t-72.5 -84t-25 -129q0 -76 25 -129t71.5 -80.5t109.5 -27.5q92 0 139 49.5t57 128.5h-172v101
h307v-387h-123l-11 111h-3q-23 -39 -55 -67t-73.5 -42t-91.5 -14zM322 -280v54q26 0 38 15.5t12 47.5v15h-56v104h124q3 -27 3.5 -52t0.5 -48q0 -64 -30.5 -100t-91.5 -36z" />
    <glyph glyph-name="uni0123" unicode="&#x123;" horiz-adv-x="574" 
d="M275 -217q-71 0 -124.5 17.5t-83 51t-29.5 82.5q0 34 18 64t53 54.5t86 42.5l49 -66q-44 -15 -64 -36.5t-20 -47.5q0 -21 14.5 -35.5t40.5 -22t60 -7.5q33 0 56 8t35.5 22.5t12.5 34.5q0 26 -19 41.5t-74 19.5q-51 4 -90 11.5t-68.5 18t-50.5 23.5t-34 26v23l107 111
l83 -30l-112 -121l37 61q10 -5 20.5 -9t27 -8t42 -8t64.5 -7q66 -6 108 -24t62 -49t20 -76q0 -41 -24.5 -78.5t-74.5 -62t-128 -24.5zM276 147q-63 0 -108.5 24t-70 65t-24.5 91t24.5 91t70 65.5t108.5 24.5t108.5 -24.5t69.5 -65.5t24 -91t-24 -91t-69.5 -65t-108.5 -24z
M275 246q39 0 63.5 20.5t24.5 60.5t-24.5 60t-62.5 20q-39 0 -64 -20t-25 -60t25 -60.5t63 -20.5zM357 404l-22 92h208v-75zM335 774v-55q-23 0 -35 -8.5t-12 -27.5v-19h47v-106h-115q-1 30 -2 52t-1 46q0 57 30 87.5t88 30.5z" />
    <glyph glyph-name="Hbar" unicode="&#x126;" horiz-adv-x="764" 
d="M28 493v108h707v-108h-707zM535 0v700h135v-700h-135zM94 0v700h135v-700h-135zM211 303v109h347v-109h-347z" />
    <glyph glyph-name="hbar" unicode="&#x127;" horiz-adv-x="612" 
d="M20 550v81h308v-81h-308zM80 0v705h133v-290h3q26 45 68 69t99 24q60 0 102 -26.5t64.5 -77.5t22.5 -126v-278h-134v266q0 62 -24.5 95t-79.5 33q-34 0 -61.5 -16.5t-42.5 -47t-15 -74.5v-256h-135z" />
    <glyph glyph-name="Itilde" unicode="&#x128;" horiz-adv-x="236" 
d="M50 0v700h135v-700h-135zM182 751q-29 0 -49.5 11.5t-37.5 23t-38 11.5q-16 0 -27.5 -11t-15.5 -34h-71q11 67 42.5 97.5t77.5 30.5q29 0 49 -11.5t37.5 -23t38.5 -11.5q17 0 28.5 11.5t14.5 33.5h71q-10 -66 -41.5 -97t-78.5 -31z" />
    <glyph glyph-name="itilde" unicode="&#x129;" horiz-adv-x="227" 
d="M46 0v496h135v-496h-135zM173 562q-29 0 -49.5 11.5t-37.5 23t-38 11.5q-16 0 -27.5 -11t-15.5 -34h-71q11 67 42.5 97.5t77.5 30.5q29 0 49 -11.5t37.5 -22.5t38.5 -11q17 0 28.5 11t14.5 34h71q-10 -67 -41.5 -98t-78.5 -31z" />
    <glyph glyph-name="Imacron" unicode="&#x12a;" horiz-adv-x="236" 
d="M50 0v700h135v-700h-135zM-71 781v95h378v-95h-378z" />
    <glyph glyph-name="imacron" unicode="&#x12b;" horiz-adv-x="227" 
d="M46 0v496h135v-496h-135zM-75 586v95h378v-95h-378z" />
    <glyph glyph-name="Ibreve" unicode="&#x12c;" horiz-adv-x="236" 
d="M50 0v700h135v-700h-135zM119 748q-49 0 -84.5 19t-54.5 53.5t-19 82.5v17h71q0 -34 19 -53t68 -19q48 0 67.5 19t19.5 53h71v-18q0 -47 -19.5 -82t-55 -53.5t-83.5 -18.5z" />
    <glyph glyph-name="ibreve" unicode="&#x12d;" horiz-adv-x="227" 
d="M46 0v496h135v-496h-135zM114 555q-49 0 -84.5 19t-54.5 53.5t-19 82.5v17h71q0 -33 19 -52t68 -19q48 0 67.5 19t19.5 52h71v-17q0 -48 -19.5 -83t-55 -53.5t-83.5 -18.5z" />
    <glyph glyph-name="Iogonek" unicode="&#x12e;" horiz-adv-x="236" 
d="M50 0v700h135v-700h-135zM103 -211q-37 0 -68 11t-49.5 35t-18.5 60q0 27 13 52t44.5 49t86.5 47l45 20l30 -63l-51 -25q-36 -18 -51 -34t-15 -34t13.5 -29t37.5 -11q15 0 33.5 4t37.5 11v-79q-19 -7 -41.5 -10.5t-46.5 -3.5z" />
    <glyph glyph-name="iogonek" unicode="&#x12f;" horiz-adv-x="227" 
d="M46 0v496h135v-496h-135zM113 563q-26 0 -44.5 18.5t-18.5 44.5q0 28 18.5 46.5t44.5 18.5q28 0 46.5 -18.5t18.5 -46.5q0 -26 -18.5 -44.5t-46.5 -18.5zM98 -211q-37 0 -68 11t-49.5 35t-18.5 60q0 27 13 52t44.5 49t86.5 47l45 20l30 -63l-51 -25q-36 -18 -51 -34
t-15 -34t13.5 -29t37.5 -11q15 0 33.5 4t37.5 11v-79q-19 -7 -41.5 -10.5t-46.5 -3.5z" />
    <glyph glyph-name="Idotaccent" unicode="&#x130;" horiz-adv-x="236" 
d="M50 0v700h135v-700h-135zM117 764q-26 0 -44.5 18.5t-18.5 44.5q0 27 18.5 45.5t44.5 18.5q28 0 46.5 -18.5t18.5 -45.5q0 -26 -18.5 -44.5t-46.5 -18.5z" />
    <glyph glyph-name="dotlessi" unicode="&#x131;" horiz-adv-x="227" 
d="M46 0v496h135v-496h-135z" />
    <glyph glyph-name="IJ" unicode="&#x132;" horiz-adv-x="728" 
d="M50 0v700h135v-700h-135zM461 -12q-68 0 -119.5 26t-79.5 76.5t-28 122.5h134q0 -32 10 -55.5t29.5 -36t50.5 -12.5q30 0 48.5 11.5t27 33t8.5 51.5v495h135v-495q0 -105 -58.5 -161t-157.5 -56z" />
    <glyph glyph-name="ij" unicode="&#x133;" horiz-adv-x="480" 
d="M59 0v496h135v-496h-135zM127 561q-37 0 -60.5 22t-23.5 54q0 33 23.5 55t60.5 22t60.5 -22t23.5 -55q0 -32 -23.5 -54t-60.5 -22zM182 -205v113h40q33 0 46 13t13 44v531h135v-530q0 -62 -21 -99.5t-60 -54.5t-92 -17h-61zM350 561q-37 0 -60.5 22t-23.5 54
q0 33 23.5 55t60.5 22t60 -22t23 -55q0 -32 -23 -54t-60 -22z" />
    <glyph glyph-name="uni0136" unicode="&#x136;" horiz-adv-x="622" 
d="M50 0v700h135v-275l254 275h166l-289 -309l297 -391h-167l-244 318l-17 -17v-301h-135zM252 -280v54q26 0 38 15.5t12 47.5v15h-56v104h124q3 -27 3.5 -52t0.5 -48q0 -64 -30.5 -100t-91.5 -36z" />
    <glyph glyph-name="uni0137" unicode="&#x137;" horiz-adv-x="557" 
d="M381 0l-216 273l191 223h160l-247 -279l-1 107l281 -324h-168zM50 0v705h135v-705h-135zM220 -280v54q26 0 38 15.5t12 47.5v15h-56v104h124q3 -27 3.5 -52t0.5 -48q0 -64 -30.5 -100t-91.5 -36z" />
    <glyph glyph-name="Lacute" unicode="&#x139;" horiz-adv-x="516" 
d="M50 0v700h135v-595h308v-105h-443zM6 743v101l225 114h3v-107z" />
    <glyph glyph-name="lacute" unicode="&#x13a;" horiz-adv-x="235" 
d="M50 0v705h135v-705h-135zM3 748v101l225 114h3v-107z" />
    <glyph glyph-name="uni013B" unicode="&#x13b;" horiz-adv-x="516" 
d="M50 0v700h135v-595h308v-105h-443zM240 -280v54q26 0 38 15.5t12 47.5v15h-56v104h124q3 -27 3.5 -52t0.5 -48q0 -64 -30.5 -100t-91.5 -36z" />
    <glyph glyph-name="uni013C" unicode="&#x13c;" horiz-adv-x="235" 
d="M50 0v705h135v-705h-135zM59 -280v54q26 0 38 15.5t12 47.5v15h-56v104h124q3 -27 3.5 -52t0.5 -48q0 -64 -30.5 -100t-91.5 -36z" />
    <glyph glyph-name="Lcaron" unicode="&#x13d;" horiz-adv-x="516" 
d="M50 0v700h135v-595h308v-105h-443zM297 501v55q24 0 35.5 8.5t11.5 27.5v19h-47v106h115q1 -29 2 -51.5t1 -46.5q0 -57 -30 -87.5t-88 -30.5z" />
    <glyph glyph-name="lcaron" unicode="&#x13e;" horiz-adv-x="356" 
d="M50 0v705h135v-705h-135zM228 506v55q24 0 35.5 8.5t11.5 27.5v19h-47v106h115q1 -29 2 -51.5t1 -46.5q0 -57 -30 -87.5t-88 -30.5z" />
    <glyph glyph-name="Ldot" unicode="&#x13f;" horiz-adv-x="516" 
d="M50 0v700h135v-595h308v-105h-443zM370 272q-37 0 -60.5 22.5t-23.5 54.5q0 34 23.5 56.5t60.5 22.5t60 -22.5t23 -56.5q0 -32 -23 -54.5t-60 -22.5z" />
    <glyph glyph-name="ldot" unicode="&#x140;" horiz-adv-x="439" 
d="M50 0v705h135v-705h-135zM327 240q-37 0 -60.5 22.5t-23.5 54.5q0 34 23.5 56.5t60.5 22.5t60 -22.5t23 -56.5q0 -32 -23 -54.5t-60 -22.5z" />
    <glyph glyph-name="Lslash" unicode="&#x141;" horiz-adv-x="540" 
d="M20 266v112l305 100v-112zM75 0v700h135v-595h307v-105h-442z" />
    <glyph glyph-name="lslash" unicode="&#x142;" horiz-adv-x="295" 
d="M11 287v113l273 93v-113zM80 0v705h135v-705h-135z" />
    <glyph glyph-name="Nacute" unicode="&#x143;" horiz-adv-x="693" 
d="M50 0v700h160l294 -510h3v510h135v-700h-159l-295 509h-3v-509h-135zM232 743v101l225 114h3v-107z" />
    <glyph glyph-name="nacute" unicode="&#x144;" 
d="M46 0v496h116l11 -81h3q24 43 66 68t103 25q62 0 105 -26.5t65.5 -77.5t22.5 -126v-278h-134v266q0 62 -25 95t-80 33q-34 0 -61 -16.5t-42 -47t-15 -74.5v-256h-135zM181 539v101l225 114h3v-107z" />
    <glyph glyph-name="uni0145" unicode="&#x145;" horiz-adv-x="693" 
d="M50 0v700h160l294 -510h3v510h135v-700h-159l-295 509h-3v-509h-135zM288 -280v54q26 0 38 15.5t12 47.5v15h-56v104h124q3 -27 3.5 -52t0.5 -48q0 -64 -30.5 -100t-91.5 -36z" />
    <glyph glyph-name="uni0146" unicode="&#x146;" 
d="M46 0v496h116l11 -81h3q24 43 66 68t103 25q62 0 105 -26.5t65.5 -77.5t22.5 -126v-278h-134v266q0 62 -25 95t-80 33q-34 0 -61 -16.5t-42 -47t-15 -74.5v-256h-135zM232 -280v54q26 0 38 15.5t12 47.5v15h-56v104h124q3 -27 3.5 -52t0.5 -48q0 -64 -30.5 -100
t-91.5 -36z" />
    <glyph glyph-name="Ncaron" unicode="&#x147;" horiz-adv-x="693" 
d="M50 0v700h160l294 -510h3v510h135v-700h-159l-295 509h-3v-509h-135zM347 749l-148 80v96l148 -85l147 85v-96z" />
    <glyph glyph-name="ncaron" unicode="&#x148;" 
d="M46 0v496h116l11 -81h3q24 43 66 68t103 25q62 0 105 -26.5t65.5 -77.5t22.5 -126v-278h-134v266q0 62 -25 95t-80 33q-34 0 -61 -16.5t-42 -47t-15 -74.5v-256h-135zM296 555l-148 80v96l148 -85l147 85v-96z" />
    <glyph glyph-name="Eng" unicode="&#x14a;" horiz-adv-x="693" 
d="M50 0v700h160l294 -474h3v474h135v-734q0 -62 -21 -99.5t-60 -54.5t-92 -17h-61v113h40q33 0 46 13t13 44v35l-319 509h-3v-509h-135z" />
    <glyph glyph-name="eng" unicode="&#x14b;" horiz-adv-x="584" 
d="M46 0v496h116l11 -81h3q24 43 66 68t103 25q62 0 105 -26.5t65.5 -77.5t22.5 -126v-312q0 -62 -21 -99.5t-60.5 -54.5t-92.5 -17h-61v113h41q32 0 46 13t14 44v301q0 62 -25 95t-80 33q-34 0 -61 -16.5t-42 -47t-15 -74.5v-256h-135z" />
    <glyph glyph-name="Omacron" unicode="&#x14c;" horiz-adv-x="778" 
d="M389 -12q-104 0 -183 46t-124 127.5t-45 188.5t45 188.5t124 127.5t183 46t183.5 -46t123.5 -127.5t44 -188.5t-44 -188.5t-123.5 -127.5t-183.5 -46zM389 109q65 0 113 29.5t74.5 83.5t26.5 128q0 75 -26.5 128.5t-74.5 82.5t-113 29t-113 -29t-74.5 -82.5t-26.5 -128.5
q0 -74 26.5 -128t74.5 -83.5t113 -29.5zM200 781v95h378v-95h-378z" />
    <glyph glyph-name="omacron" unicode="&#x14d;" horiz-adv-x="572" 
d="M286 -12q-72 0 -130 33t-91.5 92t-33.5 135q0 77 34 135.5t92 91.5t129 33q72 0 130 -33t91.5 -91.5t33.5 -135.5t-34 -135.5t-91.5 -91.5t-129.5 -33zM285 102q33 0 59.5 16.5t43 49t16.5 80.5q0 49 -16.5 81.5t-43 48.5t-57.5 16q-32 0 -59 -16t-43 -48.5t-16 -81.5
q0 -48 16 -80.5t42.5 -49t57.5 -16.5zM97 586v95h378v-95h-378z" />
    <glyph glyph-name="Obreve" unicode="&#x14e;" horiz-adv-x="778" 
d="M389 -12q-104 0 -183 46t-124 127.5t-45 188.5t45 188.5t124 127.5t183 46t183.5 -46t123.5 -127.5t44 -188.5t-44 -188.5t-123.5 -127.5t-183.5 -46zM389 109q65 0 113 29.5t74.5 83.5t26.5 128q0 75 -26.5 128.5t-74.5 82.5t-113 29t-113 -29t-74.5 -82.5t-26.5 -128.5
q0 -74 26.5 -128t74.5 -83.5t113 -29.5zM389 748q-49 0 -84.5 19t-54.5 53.5t-19 82.5v17h71q0 -34 19 -53t68 -19q48 0 67.5 19t19.5 53h71v-18q0 -47 -19.5 -82t-55 -53.5t-83.5 -18.5z" />
    <glyph glyph-name="obreve" unicode="&#x14f;" horiz-adv-x="572" 
d="M286 -12q-72 0 -130 33t-91.5 92t-33.5 135q0 77 34 135.5t92 91.5t129 33q72 0 130 -33t91.5 -91.5t33.5 -135.5t-34 -135.5t-91.5 -91.5t-129.5 -33zM285 102q33 0 59.5 16.5t43 49t16.5 80.5q0 49 -16.5 81.5t-43 48.5t-57.5 16q-32 0 -59 -16t-43 -48.5t-16 -81.5
q0 -48 16 -80.5t42.5 -49t57.5 -16.5zM287 555q-49 0 -84.5 19t-54.5 53.5t-19 82.5v17h71q0 -33 19 -52t68 -19q48 0 67.5 19t19.5 52h71v-17q0 -48 -19.5 -83t-55 -53.5t-83.5 -18.5z" />
    <glyph glyph-name="Ohungarumlaut" unicode="&#x150;" horiz-adv-x="778" 
d="M389 -12q-104 0 -183 46t-124 127.5t-45 188.5t45 188.5t124 127.5t183 46t183.5 -46t123.5 -127.5t44 -188.5t-44 -188.5t-123.5 -127.5t-183.5 -46zM389 109q65 0 113 29.5t74.5 83.5t26.5 128q0 75 -26.5 128.5t-74.5 82.5t-113 29t-113 -29t-74.5 -82.5t-26.5 -128.5
q0 -74 26.5 -128t74.5 -83.5t113 -29.5zM423 747l82 184h110l-108 -184h-84zM249 747l71 184h110l-96 -184h-85z" />
    <glyph glyph-name="ohungarumlaut" unicode="&#x151;" horiz-adv-x="572" 
d="M286 -12q-72 0 -130 33t-91.5 92t-33.5 135q0 77 34 135.5t92 91.5t129 33q72 0 130 -33t91.5 -91.5t33.5 -135.5t-34 -135.5t-91.5 -91.5t-129.5 -33zM285 102q33 0 59.5 16.5t43 49t16.5 80.5q0 49 -16.5 81.5t-43 48.5t-57.5 16q-32 0 -59 -16t-43 -48.5t-16 -81.5
q0 -48 16 -80.5t42.5 -49t57.5 -16.5zM320 543l82 184h110l-108 -184h-84zM146 543l71 184h110l-96 -184h-85z" />
    <glyph glyph-name="OE" unicode="&#x152;" horiz-adv-x="1094" 
d="M383 -12q-75 0 -138.5 26.5t-110 74.5t-72 114.5t-25.5 146.5t25.5 146.5t72.5 114.5t110 74.5t138 26.5q67 0 124.5 -21t98.5 -65v74h453v-109h-318v-183h288v-105h-288v-194h318v-109h-453v74q-28 -28 -62.5 -47.5t-75 -29t-85.5 -9.5zM390 109q64 0 112 29.5
t75.5 83.5t27.5 128q0 75 -27.5 128.5t-75.5 82.5t-112 29t-112.5 -29t-75.5 -82.5t-27 -128.5q0 -74 27 -128t75.5 -83.5t112.5 -29.5z" />
    <glyph glyph-name="oe" unicode="&#x153;" horiz-adv-x="943" 
d="M286 -12q-71 0 -129 33t-92 91.5t-34 135.5t34 135.5t92 91.5t130 33q58 0 106 -22t80 -62q34 40 83 62t110 22q75 0 131 -32t88 -87.5t32 -125.5q0 -10 -0.5 -22.5t-1.5 -25.5h-374q3 -36 19.5 -62.5t43.5 -40.5t61 -14q38 0 63.5 17.5t38.5 45.5h137q-14 -49 -47.5 -88
t-81.5 -62t-109 -23t-111 21.5t-83 61.5q-33 -40 -81 -61.5t-105 -21.5zM286 102q33 0 59.5 16.5t43 48.5t16.5 81t-16.5 81.5t-43 48.5t-58.5 16t-59 -16t-43 -48.5t-16 -81.5t16 -81t43 -48.5t58 -16.5zM544 298h236q-3 47 -34.5 75t-78.5 28q-30 0 -55.5 -11.5t-43.5 -34
t-24 -57.5z" />
    <glyph glyph-name="Racute" unicode="&#x154;" horiz-adv-x="590" 
d="M50 0v700h262q85 0 140 -29t82 -77.5t27 -107.5q0 -56 -26.5 -104.5t-81.5 -78t-142 -29.5h-126v-274h-135zM413 0l-144 308h147l152 -308h-155zM185 372h119q61 0 90 30t29 79t-28.5 77.5t-91.5 28.5h-118v-215zM181 743v101l225 114h3v-107z" />
    <glyph glyph-name="racute" unicode="&#x155;" horiz-adv-x="370" 
d="M46 0v496h116l12 -105h3q21 48 47.5 73t60 34.5t75.5 9.5v-143h-36q-34 0 -60.5 -7.5t-45 -24t-28 -43t-9.5 -65.5v-225h-135zM81 539v101l225 114h3v-107z" />
    <glyph glyph-name="uni0156" unicode="&#x156;" horiz-adv-x="590" 
d="M50 0v700h262q85 0 140 -29t82 -77.5t27 -107.5q0 -56 -26.5 -104.5t-81.5 -78t-142 -29.5h-126v-274h-135zM413 0l-144 308h147l152 -308h-155zM185 372h119q61 0 90 30t29 79t-28.5 77.5t-91.5 28.5h-118v-215zM237 -280v54q26 0 38 15.5t12 47.5v15h-56v104h124
q3 -27 3.5 -52t0.5 -48q0 -64 -30.5 -100t-91.5 -36z" />
    <glyph glyph-name="uni0157" unicode="&#x157;" horiz-adv-x="370" 
d="M46 0v496h116l12 -105h3q21 48 47.5 73t60 34.5t75.5 9.5v-143h-36q-34 0 -60.5 -7.5t-45 -24t-28 -43t-9.5 -65.5v-225h-135zM58 -280v54q26 0 38 15.5t12 47.5v15h-56v104h124q3 -27 3.5 -52t0.5 -48q0 -64 -30.5 -100t-91.5 -36z" />
    <glyph glyph-name="Rcaron" unicode="&#x158;" horiz-adv-x="590" 
d="M50 0v700h262q85 0 140 -29t82 -77.5t27 -107.5q0 -56 -26.5 -104.5t-81.5 -78t-142 -29.5h-126v-274h-135zM413 0l-144 308h147l152 -308h-155zM185 372h119q61 0 90 30t29 79t-28.5 77.5t-91.5 28.5h-118v-215zM296 749l-148 80v96l148 -85l147 85v-96z" />
    <glyph glyph-name="rcaron" unicode="&#x159;" horiz-adv-x="370" 
d="M46 0v496h116l12 -105h3q21 48 47.5 73t60 34.5t75.5 9.5v-143h-36q-34 0 -60.5 -7.5t-45 -24t-28 -43t-9.5 -65.5v-225h-135zM196 555l-148 80v96l148 -85l147 85v-96z" />
    <glyph glyph-name="Sacute" unicode="&#x15a;" horiz-adv-x="572" 
d="M295 -12q-76 0 -135.5 26t-94 76t-36.5 121h144q1 -31 15.5 -56t41.5 -39.5t64 -14.5q32 0 55.5 9.5t37 28.5t13.5 47q0 30 -14.5 50t-40.5 34t-59 25.5t-68 23.5q-84 29 -128.5 74.5t-44.5 120.5q0 61 30.5 105.5t84.5 68.5t123 24q71 0 124.5 -24.5t85 -70.5t32.5 -108
h-145q0 26 -12.5 46.5t-35 32.5t-52.5 12q-26 0 -47.5 -8t-34 -25t-12.5 -44q0 -25 12 -42t33.5 -29.5t51.5 -24t66 -23.5q53 -18 97 -42.5t70 -63.5t26 -102q0 -55 -28.5 -102.5t-83 -76.5t-135.5 -29zM171 743v101l225 114h3v-107z" />
    <glyph glyph-name="sacute" unicode="&#x15b;" horiz-adv-x="491" 
d="M254 -12q-66 0 -117 22t-81 60.5t-35 87.5h134q5 -18 17 -34t32.5 -25.5t47.5 -9.5t44.5 8t25.5 20t8 25q0 20 -12.5 30.5t-36 18t-54.5 16.5q-33 8 -66.5 18.5t-61.5 25.5t-45 40t-17 61q0 44 24 79t69.5 56t109.5 21q90 0 143.5 -41t62.5 -113h-127q-5 25 -25.5 38.5
t-53.5 13.5q-35 0 -53.5 -13t-18.5 -32q0 -14 12.5 -24t35.5 -17.5t56 -16.5q53 -13 96.5 -28.5t70 -43t26.5 -79.5q1 -47 -25 -84t-73 -58.5t-113 -21.5zM131 539v101l225 114h3v-107z" />
    <glyph glyph-name="Scedilla" unicode="&#x15e;" horiz-adv-x="572" 
d="M295 -12q-76 0 -135.5 26t-94 76t-36.5 121h144q1 -31 15.5 -56t41.5 -39.5t64 -14.5q32 0 55.5 9.5t37 28.5t13.5 47q0 30 -14.5 50t-40.5 34t-59 25.5t-68 23.5q-84 29 -128.5 74.5t-44.5 120.5q0 61 30.5 105.5t84.5 68.5t123 24q71 0 124.5 -24.5t85 -70.5t32.5 -108
h-145q0 26 -12.5 46.5t-35 32.5t-52.5 12q-26 0 -47.5 -8t-34 -25t-12.5 -44q0 -25 12 -42t33.5 -29.5t51.5 -24t66 -23.5q53 -18 97 -42.5t70 -63.5t26 -102q0 -55 -28.5 -102.5t-83 -76.5t-135.5 -29zM199 -267v77h115q25 0 38 8.5t13 26.5t-13 26t-38 8h-62v125h84v-55
q33 1 62.5 -10t48 -34.5t18.5 -61.5q0 -37 -18.5 -61.5t-48 -36.5t-64.5 -12h-135z" />
    <glyph glyph-name="scedilla" unicode="&#x15f;" horiz-adv-x="491" 
d="M254 -12q-66 0 -117 22t-81 60.5t-35 87.5h134q5 -18 17 -34t32.5 -25.5t47.5 -9.5t44.5 8t25.5 20t8 25q0 20 -12.5 30.5t-36 18t-54.5 16.5q-33 8 -66.5 18.5t-61.5 25.5t-45 40t-17 61q0 44 24 79t69.5 56t109.5 21q90 0 143.5 -41t62.5 -113h-127q-5 25 -25.5 38.5
t-53.5 13.5q-35 0 -53.5 -13t-18.5 -32q0 -14 12.5 -24t35.5 -17.5t56 -16.5q53 -13 96.5 -28.5t70 -43t26.5 -79.5q1 -47 -25 -84t-73 -58.5t-113 -21.5zM157 -267v77h115q25 0 38 8.5t13 26.5t-13 26t-38 8h-62v125h84v-55q33 1 62.5 -10t48 -34.5t18.5 -61.5
q0 -37 -18.5 -61.5t-48 -36.5t-64.5 -12h-135z" />
    <glyph glyph-name="Scaron" unicode="&#x160;" horiz-adv-x="572" 
d="M295 -12q-76 0 -135.5 26t-94 76t-36.5 121h144q1 -31 15.5 -56t41.5 -39.5t64 -14.5q32 0 55.5 9.5t37 28.5t13.5 47q0 30 -14.5 50t-40.5 34t-59 25.5t-68 23.5q-84 29 -128.5 74.5t-44.5 120.5q0 61 30.5 105.5t84.5 68.5t123 24q71 0 124.5 -24.5t85 -70.5t32.5 -108
h-145q0 26 -12.5 46.5t-35 32.5t-52.5 12q-26 0 -47.5 -8t-34 -25t-12.5 -44q0 -25 12 -42t33.5 -29.5t51.5 -24t66 -23.5q53 -18 97 -42.5t70 -63.5t26 -102q0 -55 -28.5 -102.5t-83 -76.5t-135.5 -29zM286 749l-148 80v96l148 -85l147 85v-96z" />
    <glyph glyph-name="scaron" unicode="&#x161;" horiz-adv-x="491" 
d="M254 -12q-66 0 -117 22t-81 60.5t-35 87.5h134q5 -18 17 -34t32.5 -25.5t47.5 -9.5t44.5 8t25.5 20t8 25q0 20 -12.5 30.5t-36 18t-54.5 16.5q-33 8 -66.5 18.5t-61.5 25.5t-45 40t-17 61q0 44 24 79t69.5 56t109.5 21q90 0 143.5 -41t62.5 -113h-127q-5 25 -25.5 38.5
t-53.5 13.5q-35 0 -53.5 -13t-18.5 -32q0 -14 12.5 -24t35.5 -17.5t56 -16.5q53 -13 96.5 -28.5t70 -43t26.5 -79.5q1 -47 -25 -84t-73 -58.5t-113 -21.5zM246 555l-148 80v96l148 -85l147 85v-96z" />
    <glyph glyph-name="uni0162" unicode="&#x162;" horiz-adv-x="564" 
d="M215 0v591h-205v109h544v-109h-205v-591h-134zM193 -267v77h115q25 0 38 8.5t13 26.5t-13 26t-38 8h-62v125h84v-55q33 1 62.5 -10t48 -34.5t18.5 -61.5q0 -37 -18.5 -61.5t-48 -36.5t-64.5 -12h-135z" />
    <glyph glyph-name="uni0163" unicode="&#x163;" horiz-adv-x="378" 
d="M272 0q-53 0 -92.5 16.5t-61.5 55t-22 105.5v210h-85v109h85l15 135h120v-135h132v-109h-132v-212q0 -35 15 -48.5t51 -13.5h63v-113h-88zM172 -267v77h115q25 0 38 8.5t13 26.5t-13 26t-38 8h-62v125h84v-55q33 1 62.5 -10t48 -34.5t18.5 -61.5q0 -37 -18.5 -61.5
t-48 -36.5t-64.5 -12h-135z" />
    <glyph glyph-name="Tcaron" unicode="&#x164;" horiz-adv-x="564" 
d="M215 0v591h-205v109h544v-109h-205v-591h-134zM282 745l-147 80v96l147 -86l148 86v-96z" />
    <glyph glyph-name="tcaron" unicode="&#x165;" horiz-adv-x="378" 
d="M272 0q-53 0 -92.5 16.5t-61.5 55t-22 105.5v210h-85v109h85l15 135h120v-135h132v-109h-132v-212q0 -35 15 -48.5t51 -13.5h63v-113h-88zM291 538v55q24 0 35.5 8.5t11.5 27.5v19h-47v106h115q1 -29 2 -51.5t1 -46.5q0 -57 -30 -87.5t-88 -30.5z" />
    <glyph glyph-name="Utilde" unicode="&#x168;" horiz-adv-x="651" 
d="M323 -12q-77 0 -140.5 31t-100 93t-36.5 158v430h135v-431q0 -52 17 -87.5t49.5 -52.5t77.5 -17q46 0 78.5 17t50 52.5t17.5 87.5v431h135v-430q0 -96 -38.5 -158t-102.5 -93t-142 -31zM389 751q-29 0 -49.5 11.5t-37.5 23t-38 11.5q-16 0 -27.5 -11t-15.5 -34h-71
q11 67 42.5 97.5t77.5 30.5q29 0 49 -11.5t37.5 -23t38.5 -11.5q17 0 28.5 11.5t14.5 33.5h71q-10 -66 -41.5 -97t-78.5 -31z" />
    <glyph glyph-name="utilde" unicode="&#x169;" 
d="M234 -12q-62 0 -105 26t-66 77.5t-23 126.5v278h135v-266q0 -62 25 -95t79 -33q35 0 61.5 16.5t41.5 47.5t15 74v256h135v-496h-116l-11 80h-3q-23 -42 -65 -67t-103 -25zM345 562q-29 0 -49.5 11.5t-37.5 23t-38 11.5q-16 0 -27.5 -11t-15.5 -34h-71q11 67 42.5 97.5
t77.5 30.5q29 0 49 -11.5t37.5 -22.5t38.5 -11q17 0 28.5 11t14.5 34h71q-10 -67 -41.5 -98t-78.5 -31z" />
    <glyph glyph-name="Umacron" unicode="&#x16a;" horiz-adv-x="651" 
d="M323 -12q-77 0 -140.5 31t-100 93t-36.5 158v430h135v-431q0 -52 17 -87.5t49.5 -52.5t77.5 -17q46 0 78.5 17t50 52.5t17.5 87.5v431h135v-430q0 -96 -38.5 -158t-102.5 -93t-142 -31zM136 781v95h378v-95h-378z" />
    <glyph glyph-name="umacron" unicode="&#x16b;" 
d="M234 -12q-62 0 -105 26t-66 77.5t-23 126.5v278h135v-266q0 -62 25 -95t79 -33q35 0 61.5 16.5t41.5 47.5t15 74v256h135v-496h-116l-11 80h-3q-23 -42 -65 -67t-103 -25zM97 586v95h378v-95h-378z" />
    <glyph glyph-name="Ubreve" unicode="&#x16c;" horiz-adv-x="651" 
d="M323 -12q-77 0 -140.5 31t-100 93t-36.5 158v430h135v-431q0 -52 17 -87.5t49.5 -52.5t77.5 -17q46 0 78.5 17t50 52.5t17.5 87.5v431h135v-430q0 -96 -38.5 -158t-102.5 -93t-142 -31zM326 748q-49 0 -84.5 19t-54.5 53.5t-19 82.5v17h71q0 -34 19 -53t68 -19
q48 0 67.5 19t19.5 53h71v-18q0 -47 -19.5 -82t-55 -53.5t-83.5 -18.5z" />
    <glyph glyph-name="ubreve" unicode="&#x16d;" 
d="M234 -12q-62 0 -105 26t-66 77.5t-23 126.5v278h135v-266q0 -62 25 -95t79 -33q35 0 61.5 16.5t41.5 47.5t15 74v256h135v-496h-116l-11 80h-3q-23 -42 -65 -67t-103 -25zM286 555q-49 0 -84.5 19t-54.5 53.5t-19 82.5v17h71q0 -33 19 -52t68 -19q48 0 67.5 19t19.5 52
h71v-17q0 -48 -19.5 -83t-55 -53.5t-83.5 -18.5z" />
    <glyph glyph-name="Uring" unicode="&#x16e;" horiz-adv-x="651" 
d="M323 -12q-77 0 -140.5 31t-100 93t-36.5 158v430h135v-431q0 -52 17 -87.5t49.5 -52.5t77.5 -17q46 0 78.5 17t50 52.5t17.5 87.5v431h135v-430q0 -96 -38.5 -158t-102.5 -93t-142 -31zM326 749q-47 0 -81 30.5t-34 83.5t34 83t81 30q48 0 82 -30t34 -83t-34 -83.5
t-82 -30.5zM326 809q22 0 37 15t15 39q0 25 -15 39t-37 14q-21 0 -36 -14t-15 -39q0 -24 15 -39t36 -15z" />
    <glyph glyph-name="uring" unicode="&#x16f;" 
d="M234 -12q-62 0 -105 26t-66 77.5t-23 126.5v278h135v-266q0 -62 25 -95t79 -33q35 0 61.5 16.5t41.5 47.5t15 74v256h135v-496h-116l-11 80h-3q-23 -42 -65 -67t-103 -25zM286 562q-47 0 -81 30.5t-34 83.5q0 52 34 82.5t81 30.5q48 0 82 -30.5t34 -82.5q0 -53 -34 -83.5
t-82 -30.5zM286 622q22 0 37 14.5t15 39.5t-15 39t-37 14q-21 0 -36 -14t-15 -39t15 -39.5t36 -14.5z" />
    <glyph glyph-name="Uhungarumlaut" unicode="&#x170;" horiz-adv-x="651" 
d="M323 -12q-77 0 -140.5 31t-100 93t-36.5 158v430h135v-431q0 -52 17 -87.5t49.5 -52.5t77.5 -17q46 0 78.5 17t50 52.5t17.5 87.5v431h135v-430q0 -96 -38.5 -158t-102.5 -93t-142 -31zM359 747l82 184h110l-108 -184h-84zM185 747l71 184h110l-96 -184h-85z" />
    <glyph glyph-name="uhungarumlaut" unicode="&#x171;" 
d="M234 -12q-62 0 -105 26t-66 77.5t-23 126.5v278h135v-266q0 -62 25 -95t79 -33q35 0 61.5 16.5t41.5 47.5t15 74v256h135v-496h-116l-11 80h-3q-23 -42 -65 -67t-103 -25zM320 543l82 184h110l-108 -184h-84zM146 543l71 184h110l-96 -184h-85z" />
    <glyph glyph-name="Uogonek" unicode="&#x172;" horiz-adv-x="651" 
d="M323 -12q-77 0 -140.5 31t-100 93t-36.5 158v430h135v-431q0 -52 17 -87.5t49.5 -52.5t77.5 -17q46 0 78.5 17t50 52.5t17.5 87.5v431h135v-430q0 -96 -38.5 -158t-102.5 -93t-142 -31zM352 -203q-37 0 -68 11t-49.5 35t-18.5 60q0 27 13 52t44.5 49t86.5 47l45 20
l30 -63l-51 -25q-37 -18 -51.5 -34t-14.5 -34t13.5 -29t37.5 -11q15 0 33.5 4t37.5 11v-79q-19 -7 -41.5 -10.5t-46.5 -3.5z" />
    <glyph glyph-name="uogonek" unicode="&#x173;" 
d="M234 -12q-62 0 -105 26t-66 77.5t-23 126.5v278h135v-266q0 -62 25 -95t79 -33q35 0 61.5 16.5t41.5 47.5t15 74v256h135v-496h-116l-11 80h-3q-23 -42 -65 -67t-103 -25zM450 -211q-37 0 -68 11t-49.5 35t-18.5 60q0 27 13 52t44.5 49t86.5 47l45 20l30 -63l-51 -25
q-36 -18 -51 -34t-15 -34t13.5 -29t37.5 -11q15 0 33.5 4t37.5 11v-79q-19 -7 -41.5 -10.5t-46.5 -3.5z" />
    <glyph glyph-name="Wcircumflex" unicode="&#x174;" horiz-adv-x="1000" 
d="M177 0l-167 700h143l124 -598h3l141 598h159l145 -598h3l118 598h144l-167 -700h-190l-133 543h-3l-131 -543h-189zM353 745v97l148 79l147 -79v-97l-147 83z" />
    <glyph glyph-name="wcircumflex" unicode="&#x175;" horiz-adv-x="794" 
d="M141 0l-133 496h133l87 -405h-5l98 405h152l99 -404h-5l86 404h133l-134 -496h-156l-102 405h6l-103 -405h-156zM249 542v96l148 80l147 -80v-96l-147 83z" />
    <glyph glyph-name="Ycircumflex" unicode="&#x176;" horiz-adv-x="621" 
d="M243 0v242l-236 458h153l155 -334h-6l154 334h151l-236 -458v-242h-135zM163 745v97l148 79l147 -79v-97l-147 83z" />
    <glyph glyph-name="ycircumflex" unicode="&#x177;" horiz-adv-x="583" 
d="M124 -205l116 261h-29l-203 440h147l144 -321h3l128 321h144l-307 -701h-143zM144 542v96l148 80l147 -80v-96l-147 83z" />
    <glyph glyph-name="Ydieresis" unicode="&#x178;" horiz-adv-x="621" 
d="M243 0v242l-236 458h153l155 -334h-6l154 334h151l-236 -458v-242h-135zM219 767q-26 0 -44.5 18.5t-18.5 45.5t18.5 45.5t44.5 18.5q28 0 46.5 -18.5t18.5 -45.5t-18.5 -45.5t-46.5 -18.5zM403 767q-27 0 -45.5 18.5t-18.5 45.5t18.5 45.5t45.5 18.5t45.5 -18.5
t18.5 -45.5t-18.5 -45.5t-45.5 -18.5z" />
    <glyph glyph-name="Zacute" unicode="&#x179;" horiz-adv-x="514" 
d="M19 0v104l319 484h-317v112h472v-104l-320 -484h322v-112h-476zM143 743v101l225 114h3v-107z" />
    <glyph glyph-name="zacute" unicode="&#x17a;" horiz-adv-x="465" 
d="M27 0v107l251 279h-248v110h401v-107l-255 -279h260v-110h-409zM118 539v101l225 114h3v-107z" />
    <glyph glyph-name="Zdotaccent" unicode="&#x17b;" horiz-adv-x="514" 
d="M19 0v104l319 484h-317v112h472v-104l-320 -484h322v-112h-476zM256 764q-26 0 -44.5 18.5t-18.5 44.5q0 27 18.5 45.5t44.5 18.5q28 0 46.5 -18.5t18.5 -45.5q0 -26 -18.5 -44.5t-46.5 -18.5z" />
    <glyph glyph-name="zdotaccent" unicode="&#x17c;" horiz-adv-x="465" 
d="M27 0v107l251 279h-248v110h401v-107l-255 -279h260v-110h-409zM231 563q-26 0 -44.5 18.5t-18.5 44.5q0 28 18.5 46.5t44.5 18.5q28 0 46.5 -18.5t18.5 -46.5q0 -26 -18.5 -44.5t-46.5 -18.5z" />
    <glyph glyph-name="Zcaron" unicode="&#x17d;" horiz-adv-x="514" 
d="M19 0v104l319 484h-317v112h472v-104l-320 -484h322v-112h-476zM258 749l-148 80v96l148 -85l147 85v-96z" />
    <glyph glyph-name="zcaron" unicode="&#x17e;" horiz-adv-x="465" 
d="M27 0v107l251 279h-248v110h401v-107l-255 -279h260v-110h-409zM233 555l-148 80v96l148 -85l147 85v-96z" />
    <glyph glyph-name="uni018F" unicode="&#x18f;" horiz-adv-x="753" 
d="M374 -12q-75 0 -137 23t-106.5 67t-69 106.5t-24.5 142.5q0 14 1.5 29.5t2.5 31.5h554v-97h-418q1 -54 25.5 -94.5t68.5 -63t101 -22.5q42 0 78.5 13.5t64.5 39t43.5 62.5t15.5 85v61q0 69 -26 117.5t-71 74.5t-102 26q-64 0 -113 -31t-68 -86h-148q20 71 65.5 125
t112.5 84t150 30q102 0 179 -45t119.5 -127t42.5 -192q0 -108 -42.5 -189t-119.5 -126t-179 -45z" />
    <glyph glyph-name="florin" unicode="&#x192;" horiz-adv-x="335" 
d="M-55 -235l11 114h24q23 0 34.5 12t14.5 39l70 656q10 100 70 145t174 45l-12 -114q-47 0 -70.5 -17t-26.5 -59l-70 -656q-6 -62 -31.5 -98.5t-66.5 -51.5t-95 -15h-26zM22 442l11 112h294l-11 -112h-294z" />
    <glyph glyph-name="AEacute" unicode="&#x1fc;" horiz-adv-x="913" 
d="M9 0l376 700h493v-107h-268v-185h238v-104h-238v-197h268v-107h-403v598h-3l-316 -598h-147zM142 165l41 105h350l26 -105h-417zM440 743v101l225 114h3v-107z" />
    <glyph glyph-name="aeacute" unicode="&#x1fd;" horiz-adv-x="913" 
d="M219 -12q-64 0 -104.5 20t-60 54.5t-19.5 75.5q0 46 23.5 81t71 54.5t120.5 19.5h127q0 36 -10.5 60t-32 35.5t-54.5 11.5q-37 0 -65 -17t-34 -53h-131q5 54 35.5 94t81 62t114.5 22q60 0 105 -17.5t75 -49.5q32 32 77.5 49.5t98.5 17.5q74 0 130.5 -32t88 -87.5
t31.5 -125.5v-22.5t-2 -25.5h-372q3 -36 19.5 -62.5t43.5 -40.5t60 -14q37 0 62.5 17.5t38.5 45.5h137q-14 -49 -47.5 -88t-81.5 -62t-108 -23q-65 0 -118 25t-88 70q-29 -34 -62.5 -55t-71 -30.5t-78.5 -9.5zM253 92q34 0 59 16t40 42.5t19 57.5v2h-105q-31 0 -50.5 -7.5
t-28.5 -21t-9 -31.5t9 -31t26 -20t40 -7zM516 297h234q-3 48 -34.5 76t-77.5 28q-30 0 -55.5 -11.5t-43 -34.5t-23.5 -58zM343 539v101l225 114h3v-107z" />
    <glyph glyph-name="uni0218" unicode="&#x218;" horiz-adv-x="572" 
d="M295 -12q-76 0 -135.5 26t-94 76t-36.5 121h144q1 -31 15.5 -56t41.5 -39.5t64 -14.5q32 0 55.5 9.5t37 28.5t13.5 47q0 30 -14.5 50t-40.5 34t-59 25.5t-68 23.5q-84 29 -128.5 74.5t-44.5 120.5q0 61 30.5 105.5t84.5 68.5t123 24q71 0 124.5 -24.5t85 -70.5t32.5 -108
h-145q0 26 -12.5 46.5t-35 32.5t-52.5 12q-26 0 -47.5 -8t-34 -25t-12.5 -44q0 -25 12 -42t33.5 -29.5t51.5 -24t66 -23.5q53 -18 97 -42.5t70 -63.5t26 -102q0 -55 -28.5 -102.5t-83 -76.5t-135.5 -29zM229 -280v54q26 0 38 15.5t12 47.5v15h-56v104h124q3 -27 3.5 -52
t0.5 -48q0 -64 -30.5 -100t-91.5 -36z" />
    <glyph glyph-name="uni0219" unicode="&#x219;" horiz-adv-x="491" 
d="M254 -12q-66 0 -117 22t-81 60.5t-35 87.5h134q5 -18 17 -34t32.5 -25.5t47.5 -9.5t44.5 8t25.5 20t8 25q0 20 -12.5 30.5t-36 18t-54.5 16.5q-33 8 -66.5 18.5t-61.5 25.5t-45 40t-17 61q0 44 24 79t69.5 56t109.5 21q90 0 143.5 -41t62.5 -113h-127q-5 25 -25.5 38.5
t-53.5 13.5q-35 0 -53.5 -13t-18.5 -32q0 -14 12.5 -24t35.5 -17.5t56 -16.5q53 -13 96.5 -28.5t70 -43t26.5 -79.5q1 -47 -25 -84t-73 -58.5t-113 -21.5zM188 -280v54q26 0 38 15.5t12 47.5v15h-56v104h124q3 -27 3.5 -52t0.5 -48q0 -64 -30.5 -100t-91.5 -36z" />
    <glyph glyph-name="uni021A" unicode="&#x21a;" horiz-adv-x="564" 
d="M215 0v591h-205v109h544v-109h-205v-591h-134zM224 -280v54q26 0 38 15.5t12 47.5v15h-56v104h124q3 -27 3.5 -52t0.5 -48q0 -64 -30.5 -100t-91.5 -36z" />
    <glyph glyph-name="uni021B" unicode="&#x21b;" horiz-adv-x="378" 
d="M272 0q-53 0 -92.5 16.5t-61.5 55t-22 105.5v210h-85v109h85l15 135h120v-135h132v-109h-132v-212q0 -35 15 -48.5t51 -13.5h63v-113h-88zM203 -280v54q26 0 38 15.5t12 47.5v15h-56v104h124q3 -27 3.5 -52t0.5 -48q0 -64 -30.5 -100t-91.5 -36z" />
    <glyph glyph-name="uni0237" unicode="&#x237;" horiz-adv-x="239" 
d="M-41 -205v113h40q33 0 46 13t13 44v531h135v-530q0 -62 -21 -99.5t-60 -54.5t-92 -17h-61z" />
    <glyph glyph-name="uni0259" unicode="&#x259;" horiz-adv-x="567" 
d="M277 508q76 0 134.5 -32t91.5 -89.5t33 -133.5q0 -77 -32.5 -137t-90.5 -94t-137 -34q-73 0 -130 32t-88.5 88t-31.5 125q0 11 0.5 23t1.5 25h411v-83h-276q3 -47 34.5 -75t78.5 -28q36 0 64.5 15.5t45.5 47.5t17 79v29q0 41 -16 70.5t-44 45.5t-65 16q-36 0 -61.5 -16.5
t-38.5 -42.5h-138q15 48 48 86t81 60.5t108 22.5z" />
    <glyph glyph-name="circumflex" unicode="&#x2c6;" horiz-adv-x="303" 
d="M4 541v97l147 79l148 -79v-97l-148 83z" />
    <glyph glyph-name="caron" unicode="&#x2c7;" horiz-adv-x="303" 
d="M151 541l-147 80v96l147 -86l148 86v-96z" />
    <glyph glyph-name="breve" unicode="&#x2d8;" horiz-adv-x="324" 
d="M161 544q-48 0 -83.5 19t-54.5 53.5t-19 82.5v17h70q0 -34 19.5 -53t67.5 -19q49 0 68 19t19 53h72v-18q0 -47 -20 -82t-55 -53.5t-84 -18.5z" />
    <glyph glyph-name="dotaccent" unicode="&#x2d9;" horiz-adv-x="136" 
d="M68 560q-27 0 -45.5 18.5t-18.5 44.5q0 27 18.5 45.5t45.5 18.5t45.5 -18.5t18.5 -45.5q0 -26 -18.5 -44.5t-45.5 -18.5z" />
    <glyph glyph-name="ring" unicode="&#x2da;" horiz-adv-x="237" 
d="M118 545q-47 0 -81 30.5t-34 83.5t34 83t81 30q48 0 82 -30t34 -83t-34 -83.5t-82 -30.5zM118 605q22 0 37 15t15 39q0 25 -15 39t-36 14t-36.5 -14t-15.5 -39q0 -24 15.5 -39t35.5 -15z" />
    <glyph glyph-name="ogonek" unicode="&#x2db;" horiz-adv-x="224" 
d="M136 -211q-37 0 -68 11t-49.5 35t-18.5 60q0 27 13 52t44.5 49t86.5 47l45 20l30 -63l-51 -25q-37 -18 -51.5 -34t-14.5 -34t13.5 -29t37.5 -11q15 0 33.5 4t37.5 11v-79q-19 -7 -41.5 -10.5t-46.5 -3.5z" />
    <glyph glyph-name="tilde" unicode="&#x2dc;" horiz-adv-x="365" 
d="M242 547q-29 0 -49.5 11.5t-37.5 23t-38 11.5q-16 0 -27.5 -11t-15.5 -34h-71q11 67 42.5 97.5t77.5 30.5q29 0 49 -11.5t37.5 -23t37.5 -11.5q17 0 29 11.5t15 33.5h71q-10 -66 -41.5 -97t-78.5 -31z" />
    <glyph glyph-name="hungarumlaut" unicode="&#x2dd;" horiz-adv-x="375" 
d="M177 543l83 184h110l-108 -184h-85zM4 543l71 184h109l-95 -184h-85z" />
    <glyph glyph-name="gravecomb" unicode="&#x300;" horiz-adv-x="0" 
d="M228 539l-228 108v107h3l225 -114v-101z" />
    <glyph glyph-name="acutecomb" unicode="&#x301;" horiz-adv-x="0" 
d="M0 539v101l225 114h3v-107z" />
    <glyph glyph-name="uni0302" unicode="&#x302;" horiz-adv-x="0" 
d="M0 542v96l148 80l147 -80v-96l-147 83z" />
    <glyph glyph-name="tildecomb" unicode="&#x303;" horiz-adv-x="0" 
d="M239 562q-29 0 -49.5 11.5t-37.5 23t-38 11.5q-16 0 -27.5 -11t-15.5 -34h-71q11 67 42.5 97.5t77.5 30.5q29 0 49 -11.5t37.5 -22.5t38.5 -11q17 0 28.5 11t14.5 34h71q-10 -67 -41.5 -98t-78.5 -31z" />
    <glyph glyph-name="uni0304" unicode="&#x304;" horiz-adv-x="0" 
d="M0 586v95h378v-95h-378z" />
    <glyph glyph-name="uni0306" unicode="&#x306;" horiz-adv-x="0" 
d="M158 555q-49 0 -84.5 19t-54.5 53.5t-19 82.5v17h71q0 -33 19 -52t68 -19q48 0 67.5 19t19.5 52h71v-17q0 -48 -19.5 -83t-55 -53.5t-83.5 -18.5z" />
    <glyph glyph-name="uni0307" unicode="&#x307;" horiz-adv-x="0" 
d="M63 563q-26 0 -44.5 18.5t-18.5 44.5q0 28 18.5 46.5t44.5 18.5q28 0 46.5 -18.5t18.5 -46.5q0 -26 -18.5 -44.5t-46.5 -18.5z" />
    <glyph glyph-name="uni0308" unicode="&#x308;" horiz-adv-x="0" 
d="M63 562q-26 0 -44.5 18.5t-18.5 44.5q0 28 18.5 46.5t44.5 18.5q28 0 46.5 -18.5t18.5 -46.5q0 -26 -18.5 -44.5t-46.5 -18.5zM247 562q-27 0 -45.5 18.5t-18.5 44.5q0 28 18.5 46.5t45.5 18.5t45.5 -18.5t18.5 -46.5q0 -26 -18.5 -44.5t-45.5 -18.5z" />
    <glyph glyph-name="uni030A" unicode="&#x30a;" horiz-adv-x="0" 
d="M115 562q-47 0 -81 30.5t-34 83.5q0 52 34 82.5t81 30.5q48 0 82 -30.5t34 -82.5q0 -53 -34 -83.5t-82 -30.5zM115 622q22 0 37 14.5t15 39.5t-15 39t-37 14q-21 0 -36 -14t-15 -39t15 -39.5t36 -14.5z" />
    <glyph glyph-name="uni030B" unicode="&#x30b;" horiz-adv-x="0" 
d="M174 543l82 184h110l-108 -184h-84zM0 543l71 184h110l-96 -184h-85z" />
    <glyph glyph-name="uni030C" unicode="&#x30c;" horiz-adv-x="0" 
d="M148 555l-148 80v96l148 -85l147 85v-96z" />
    <glyph glyph-name="uni0312" unicode="&#x312;" horiz-adv-x="0" 
d="M118 774v-55q-23 0 -35 -8.5t-12 -27.5v-19h47v-106h-115q-1 30 -2 52t-1 46q0 57 30 87.5t88 30.5z" />
    <glyph glyph-name="uni0326" unicode="&#x326;" horiz-adv-x="0" 
d="M6 -280v54q26 0 38 15.5t12 47.5v15h-56v104h124q3 -27 3.5 -52t0.5 -48q0 -64 -30.5 -100t-91.5 -36z" />
    <glyph glyph-name="uni0327" unicode="&#x327;" horiz-adv-x="0" 
d="M0 -264v77h115q25 0 38 8.5t13 26.5t-13 26t-38 8h-62v125h84v-55q33 1 62.5 -10t48 -34.5t18.5 -61.5q0 -37 -18.5 -61.5t-48 -36.5t-64.5 -12h-135z" />
    <glyph glyph-name="uni0328" unicode="&#x328;" horiz-adv-x="0" 
d="M136 -211q-37 0 -68 11t-49.5 35t-18.5 60q0 27 13 52t44.5 49t86.5 47l45 20l30 -63l-51 -25q-36 -18 -51 -34t-15 -34t13.5 -29t37.5 -11q15 0 33.5 4t37.5 11v-79q-19 -7 -41.5 -10.5t-46.5 -3.5z" />
    <glyph glyph-name="pi" unicode="&#x3c0;" horiz-adv-x="647" 
d="M104 0v392h-73v104h585v-104h-74v-392h-135v392h-168v-392h-135z" />
    <glyph glyph-name="Wgrave" unicode="&#x1e80;" horiz-adv-x="1000" 
d="M177 0l-167 700h143l124 -598h3l141 598h159l145 -598h3l118 598h144l-167 -700h-190l-133 543h-3l-131 -543h-189zM614 743l-228 108v107h3l225 -114v-101z" />
    <glyph glyph-name="wgrave" unicode="&#x1e81;" horiz-adv-x="794" 
d="M141 0l-133 496h133l87 -405h-5l98 405h152l99 -404h-5l86 404h133l-134 -496h-156l-102 405h6l-103 -405h-156zM511 539l-228 108v107h3l225 -114v-101z" />
    <glyph glyph-name="Wacute" unicode="&#x1e82;" horiz-adv-x="1000" 
d="M177 0l-167 700h143l124 -598h3l141 598h159l145 -598h3l118 598h144l-167 -700h-190l-133 543h-3l-131 -543h-189zM386 743v101l225 114h3v-107z" />
    <glyph glyph-name="wacute" unicode="&#x1e83;" horiz-adv-x="794" 
d="M141 0l-133 496h133l87 -405h-5l98 405h152l99 -404h-5l86 404h133l-134 -496h-156l-102 405h6l-103 -405h-156zM283 539v101l225 114h3v-107z" />
    <glyph glyph-name="Wdieresis" unicode="&#x1e84;" horiz-adv-x="1000" 
d="M177 0l-167 700h143l124 -598h3l141 598h159l145 -598h3l118 598h144l-167 -700h-190l-133 543h-3l-131 -543h-189zM408 767q-26 0 -44.5 18.5t-18.5 45.5t18.5 45.5t44.5 18.5q28 0 46.5 -18.5t18.5 -45.5t-18.5 -45.5t-46.5 -18.5zM592 767q-27 0 -45.5 18.5
t-18.5 45.5t18.5 45.5t45.5 18.5t45.5 -18.5t18.5 -45.5t-18.5 -45.5t-45.5 -18.5z" />
    <glyph glyph-name="wdieresis" unicode="&#x1e85;" horiz-adv-x="794" 
d="M141 0l-133 496h133l87 -405h-5l98 405h152l99 -404h-5l86 404h133l-134 -496h-156l-102 405h6l-103 -405h-156zM304 562q-26 0 -44.5 18.5t-18.5 44.5q0 28 18.5 46.5t44.5 18.5q28 0 46.5 -18.5t18.5 -46.5q0 -26 -18.5 -44.5t-46.5 -18.5zM488 562q-27 0 -45.5 18.5
t-18.5 44.5q0 28 18.5 46.5t45.5 18.5t45.5 -18.5t18.5 -46.5q0 -26 -18.5 -44.5t-45.5 -18.5z" />
    <glyph glyph-name="uni1E9E" unicode="&#x1e9e;" horiz-adv-x="699" 
d="M449 -6q-105 0 -162 57.5t-57 167.5h132q0 -50 20.5 -81t68.5 -31q34 0 53.5 14.5t28 40t8.5 57.5q-1 64 -33 94t-93 30h-106v90l149 152h-213q-32 0 -46 -13t-14 -43v-529h-135v529q0 63 21.5 100t60.5 54t92 17h392v-102l-167 -167h15q66 0 111.5 -27t69.5 -74t24 -109
q0 -71 -26 -122t-75 -78t-119 -27z" />
    <glyph glyph-name="uni1EBC" unicode="&#x1ebc;" horiz-adv-x="547" 
d="M50 0v700h461v-109h-326v-183h296v-105h-296v-194h326v-109h-461zM345 751q-29 0 -49.5 11.5t-37.5 23t-38 11.5q-16 0 -27.5 -11t-15.5 -34h-71q11 67 42.5 97.5t77.5 30.5q29 0 49 -11.5t37.5 -23t38.5 -11.5q17 0 28.5 11.5t14.5 33.5h71q-10 -66 -41.5 -97t-78.5 -31
z" />
    <glyph glyph-name="uni1EBD" unicode="&#x1ebd;" horiz-adv-x="567" 
d="M290 -12q-76 0 -134.5 32t-91.5 90t-33 133q0 78 32.5 137.5t91 93.5t136.5 34q74 0 130 -32t88 -87.5t32 -125.5v-22.5t-2 -25.5h-412v83h277q-3 47 -34.5 75t-78.5 28q-35 0 -64 -15.5t-46 -47t-17 -79.5v-29q0 -41 16 -70.5t44.5 -45.5t64.5 -16q37 0 62 16.5t38 42.5
h138q-15 -47 -48 -85.5t-81 -61t-108 -22.5zM344 562q-29 0 -49.5 11.5t-37.5 23t-38 11.5q-16 0 -27.5 -11t-15.5 -34h-71q11 67 42.5 97.5t77.5 30.5q29 0 49 -11.5t37.5 -22.5t38.5 -11q17 0 28.5 11t14.5 34h71q-10 -67 -41.5 -98t-78.5 -31z" />
    <glyph glyph-name="Ygrave" unicode="&#x1ef2;" horiz-adv-x="621" 
d="M243 0v242l-236 458h153l155 -334h-6l154 334h151l-236 -458v-242h-135zM425 743l-228 108v107h3l225 -114v-101z" />
    <glyph glyph-name="ygrave" unicode="&#x1ef3;" horiz-adv-x="583" 
d="M124 -205l116 261h-29l-203 440h147l144 -321h3l128 321h144l-307 -701h-143zM405 539l-228 108v107h3l225 -114v-101z" />
    <glyph glyph-name="uni1EF8" unicode="&#x1ef8;" horiz-adv-x="621" 
d="M243 0v242l-236 458h153l155 -334h-6l154 334h151l-236 -458v-242h-135zM374 751q-29 0 -49.5 11.5t-37.5 23t-38 11.5q-16 0 -27.5 -11t-15.5 -34h-71q11 67 42.5 97.5t77.5 30.5q29 0 49 -11.5t37.5 -23t38.5 -11.5q17 0 28.5 11.5t14.5 33.5h71q-10 -66 -41.5 -97
t-78.5 -31z" />
    <glyph glyph-name="uni1EF9" unicode="&#x1ef9;" horiz-adv-x="583" 
d="M124 -205l116 261h-29l-203 440h147l144 -321h3l128 321h144l-307 -701h-143zM351 562q-29 0 -49.5 11.5t-37.5 23t-38 11.5q-16 0 -27.5 -11t-15.5 -34h-71q11 67 42.5 97.5t77.5 30.5q29 0 49 -11.5t37.5 -22.5t38.5 -11q17 0 28.5 11t14.5 34h71q-10 -67 -41.5 -98
t-78.5 -31z" />
    <glyph glyph-name="endash" unicode="&#x2013;" horiz-adv-x="699" 
d="M78 233v113h543v-113h-543z" />
    <glyph glyph-name="emdash" unicode="&#x2014;" horiz-adv-x="921" 
d="M78 233v113h765v-113h-765z" />
    <glyph glyph-name="quoteleft" unicode="&#x2018;" horiz-adv-x="248" 
d="M26 451l103 249h92l-53 -249h-142z" />
    <glyph glyph-name="quoteright" unicode="&#x2019;" horiz-adv-x="248" 
d="M221 700l-103 -249h-92l54 249h141z" />
    <glyph glyph-name="quotesinglbase" unicode="&#x201a;" horiz-adv-x="228" 
d="M12 -111l54 249h142l-104 -249h-92z" />
    <glyph glyph-name="quotedblleft" unicode="&#x201c;" horiz-adv-x="446" 
d="M224 451l104 249h91l-54 -249h-141zM26 451l103 249h92l-53 -249h-142z" />
    <glyph glyph-name="quotedblright" unicode="&#x201d;" horiz-adv-x="446" 
d="M221 700l-103 -249h-92l54 249h141zM419 700l-102 -249h-93l54 249h141z" />
    <glyph glyph-name="quotedblbase" unicode="&#x201e;" horiz-adv-x="425" 
d="M12 -111l54 249h142l-104 -249h-92zM211 -111l54 249h141l-103 -249h-92z" />
    <glyph glyph-name="dagger" unicode="&#x2020;" horiz-adv-x="603" 
d="M234 -263l13 723l-201 -10v104l201 -11l-13 242h135l-14 -242l201 11v-104l-201 10l14 -723h-135z" />
    <glyph glyph-name="daggerdbl" unicode="&#x2021;" horiz-adv-x="604" 
d="M234 -263l14 242l-201 -10v104l201 -11v398l-201 -10v104l201 -11l-14 242h135l-14 -242l202 11v-104l-202 10v-398l202 11v-104l-202 10l14 -242h-135z" />
    <glyph glyph-name="bullet" unicode="&#x2022;" horiz-adv-x="391" 
d="M195 195q-38 0 -69 18.5t-49.5 50t-18.5 69.5q0 39 18 70.5t49.5 50t69.5 18.5q39 0 70.5 -18.5t49.5 -50t18 -70.5q0 -38 -18 -69.5t-49.5 -50t-70.5 -18.5z" />
    <glyph glyph-name="ellipsis" unicode="&#x2026;" horiz-adv-x="673" 
d="M336 -5q-36 0 -59.5 22.5t-23.5 54.5q0 33 23.5 55.5t59.5 22.5q37 0 60 -22.5t23 -55.5q0 -32 -23 -54.5t-60 -22.5zM554 -5q-36 0 -59.5 22.5t-23.5 54.5q0 33 23.5 55.5t59.5 22.5q37 0 60 -22.5t23 -55.5q0 -32 -23 -54.5t-60 -22.5zM119 -5q-36 0 -59.5 22.5
t-23.5 54.5q0 33 23.5 55.5t59.5 22.5q37 0 60 -22.5t23 -55.5q0 -32 -23 -54.5t-60 -22.5z" />
    <glyph glyph-name="perthousand" unicode="&#x2030;" horiz-adv-x="1265" 
d="M1052 -12q-49 0 -88.5 21.5t-62.5 62t-23 95.5q0 56 23.5 96t63 61.5t88.5 21.5q48 0 87 -21.5t62 -61.5t23 -96q0 -55 -23 -95.5t-62 -62t-88 -21.5zM1051 80q20 0 35.5 10t24.5 29.5t9 47.5q0 30 -8.5 49t-24 29.5t-35.5 10.5t-35.5 -10.5t-24.5 -29.5t-9 -49
q0 -28 9 -47.5t24.5 -29.5t34.5 -10zM180 0l393 700h131l-393 -700h-131zM674 -12q-48 0 -87.5 21.5t-63 62t-23.5 95.5q0 56 23.5 96t63 61.5t87.5 21.5q50 0 88.5 -21.5t61.5 -61.5t23 -96q0 -55 -23 -95.5t-62 -62t-88 -21.5zM673 81q20 0 35.5 10t24.5 29t9 47
q0 29 -9 48.5t-24 29.5t-35 10q-19 0 -34.5 -10t-24.5 -29.5t-9 -48.5q0 -28 9 -47t24 -29t34 -10zM214 353q-48 0 -87.5 22t-63 62t-23.5 95q0 57 23.5 96.5t63 61.5t88.5 22t87.5 -22t62 -61.5t23.5 -96.5q0 -55 -23.5 -95t-62.5 -62t-88 -22zM214 446q19 0 34.5 10
t24.5 29t9 47q0 30 -9 49t-24.5 29t-34.5 10t-34.5 -10t-24.5 -29.5t-9 -48.5q0 -28 9 -47t24.5 -29t34.5 -10z" />
    <glyph glyph-name="guilsinglleft" unicode="&#x2039;" horiz-adv-x="296" 
d="M126 120l-89 175l89 175h127l-92 -175l92 -175h-127z" />
    <glyph glyph-name="guilsinglright" unicode="&#x203a;" horiz-adv-x="296" 
d="M169 120h-126l92 175l-92 175h126l90 -175z" />
    <glyph glyph-name="fraction" unicode="&#x2044;" horiz-adv-x="512" 
d="M-4 0l393 700h132l-394 -700h-131z" />
    <glyph glyph-name="uni2074" unicode="&#x2074;" horiz-adv-x="350" 
d="M191 352v61h-165v68l133 219h132v-217h37v-70h-37v-61h-100zM124 483h75v123h-3z" />
    <glyph glyph-name="uni20A8" unicode="&#x20a8;" horiz-adv-x="1058" 
d="M50 0v700h262q85 0 140 -29t82 -77.5t27 -107.5q0 -56 -26.5 -104.5t-81.5 -78t-142 -29.5h-126v-274h-135zM413 0l-144 308h147l152 -308h-155zM185 372h119q61 0 90 30t29 79t-28.5 77.5t-91.5 28.5h-118v-215zM820 -12q-66 0 -117 22t-81 60.5t-35 87.5h134
q5 -18 17 -34t32.5 -25.5t47.5 -9.5t44.5 8t25.5 20t8 25q0 20 -12.5 30.5t-36 18t-54.5 16.5q-33 8 -66.5 18.5t-61.5 25.5t-45 40t-17 61q0 44 24 79t69.5 56t109.5 21q90 0 143.5 -41t62.5 -113h-127q-5 25 -25.5 38.5t-53.5 13.5q-35 0 -53.5 -13t-18.5 -32
q0 -14 12.5 -24t35.5 -17.5t56 -16.5q53 -13 96.5 -28.5t70 -43t26.5 -79.5q1 -47 -25 -84t-73 -58.5t-113 -21.5z" />
    <glyph glyph-name="Euro" unicode="&#x20ac;" horiz-adv-x="777" 
d="M21 236v78h432v-78h-432zM21 385v78h432v-78h-432zM429 -12q-105 0 -181.5 45.5t-117.5 127t-41 188.5t41.5 189t117.5 128t181 46q128 0 209 -63t102 -178h-149q-12 56 -53.5 87.5t-109.5 31.5q-63 0 -108.5 -29.5t-69 -83.5t-23.5 -128t23.5 -127.5t69 -82.5t108.5 -29
q68 0 109.5 29t54.5 82h148q-20 -109 -101.5 -171t-209.5 -62z" />
    <glyph glyph-name="uni20B9" unicode="&#x20b9;" horiz-adv-x="616" 
d="M292 -11q-106 0 -162 56.5t-56 167.5v136q93 0 148 5t81.5 20.5t35 48.5t8.5 88v141h127v-138q0 -65 -14 -113.5t-45.5 -80t-84.5 -47t-130 -15.5v-60q0 -47 20 -76.5t70 -29.5q48 0 68 27.5t20 77.5h124q-2 -99 -55 -153.5t-155 -54.5zM44 440v86h535v-86h-535zM44 607
v93h535v-93h-535z" />
    <glyph glyph-name="uni20BA" unicode="&#x20ba;" horiz-adv-x="826" 
d="M379 -10q-49 0 -103 6.5t-113 18.5v688h137v-580q21 -4 40 -5.5t38 -1.5q70 0 116 23.5t72 66.5t37 102.5t11 131.5h138q0 -153 -37.5 -253t-119.5 -148.5t-216 -48.5zM21 215v87l433 90v-87zM19 379v85l436 93v-86z" />
    <glyph glyph-name="uni20BD" unicode="&#x20bd;" horiz-adv-x="630" 
d="M19 100v104h78v70h-78v104h78v322h261q84 0 139.5 -28.5t83 -77t27.5 -109.5q0 -57 -26.5 -106t-81.5 -78.5t-142 -29.5h-126v-67h208v-104h-208v-100h-135v100h-78zM232 379h118q64 0 92 29t28 77q0 50 -28 78.5t-92 28.5h-118v-213z" />
    <glyph glyph-name="uni2113" unicode="&#x2113;" horiz-adv-x="236" 
d="M50 -100v820h135v-820h-135z" />
    <glyph glyph-name="trademark" unicode="&#x2122;" horiz-adv-x="837" 
d="M27 620v80h270v-80h-85v-271h-100v271h-85zM349 349v351h133l88 -231l97 231h123v-351h-92v229l-97 -229h-68l-95 233v-233h-89z" />
    <glyph glyph-name="uni2126" unicode="&#x2126;" horiz-adv-x="788" 
d="M47 0v104h194l-21 -33q-64 27 -104 71.5t-59 101.5t-19 120q0 80 27.5 143.5t76.5 109.5t113.5 70.5t138.5 24.5q75 0 139.5 -24.5t113.5 -70.5t76.5 -109.5t27.5 -143.5q0 -63 -19 -120t-59 -101.5t-105 -71.5l-21 33h194v-104h-271v107q42 21 74.5 55.5t50.5 81.5
t18 106q0 56 -16 100t-45 75t-69.5 47.5t-88.5 16.5q-49 0 -89 -16.5t-69 -47.5t-45 -75.5t-16 -99.5q0 -59 18.5 -106t51 -81.5t74.5 -55.5v-107h-272z" />
    <glyph glyph-name="estimated" unicode="&#x212e;" horiz-adv-x="754" 
d="M386 -7q-99 0 -177 40t-123.5 116t-45.5 185q0 104 39.5 189t114.5 134.5t183 49.5q81 0 143.5 -27t105.5 -73.5t65 -105t22 -121.5v-62h-507v-173q36 -35 79.5 -52.5t100.5 -17.5q49 0 91.5 14t81 40t75.5 63l51 -57q-63 -67 -137 -104.5t-162 -37.5zM206 395h337v170
q-29 31 -72 46.5t-94 15.5q-54 0 -97 -17.5t-74 -52.5v-162z" />
    <glyph glyph-name="arrowleft" unicode="&#x2190;" horiz-adv-x="765" 
d="M732 287h-510l249 -225l-85 -85l-354 331v79l354 330l85 -85l-250 -225h511v-120z" />
    <glyph glyph-name="arrowup" unicode="&#x2191;" horiz-adv-x="872" 
d="M31 346l365 354h80l365 -354l-85 -85l-256 251v-512h-128v512l-256 -251z" />
    <glyph glyph-name="arrowright" unicode="&#x2192;" horiz-adv-x="765" 
d="M33 287v120h511l-250 225l85 85l354 -330v-79l-354 -331l-85 85l249 225h-510z" />
    <glyph glyph-name="arrowdown" unicode="&#x2193;" horiz-adv-x="875" 
d="M33 354l85 85l255 -251v512h128v-512l256 251l85 -85l-365 -354h-80z" />
    <glyph glyph-name="arrowboth" unicode="&#x2194;" horiz-adv-x="943" 
d="M36 306v80l294 318l85 -72l-212 -224h537l-212 224l86 72l294 -318v-80l-294 -319l-86 72l216 229h-544l215 -229l-85 -72z" />
    <glyph glyph-name="arrowupdn" unicode="&#x2195;" horiz-adv-x="799" 
d="M33 216l70 85l236 -154v407l-236 -153l-70 84l326 217h80l327 -217l-71 -84l-234 152v-404l234 152l71 -85l-327 -216h-80z" />
    <glyph glyph-name="uni2196" unicode="&#x2196;" horiz-adv-x="643" 
d="M519 45l-363 363v-360h-118v511l57 57h510v-118h-361l364 -363z" />
    <glyph glyph-name="uni2197" unicode="&#x2197;" horiz-adv-x="637" 
d="M125 57l-90 90l364 363h-361v118h510l57 -57v-511h-118v360z" />
    <glyph glyph-name="uni2198" unicode="&#x2198;" horiz-adv-x="643" 
d="M125 627l362 -363v360h118v-511l-57 -57h-510v118h361l-364 363z" />
    <glyph glyph-name="uni2199" unicode="&#x2199;" horiz-adv-x="643" 
d="M519 627l89 -90l-364 -363h361v-118h-510l-57 57v511h118v-360z" />
    <glyph glyph-name="partialdiff" unicode="&#x2202;" horiz-adv-x="595" 
d="M254 -8q-59 0 -108.5 26.5t-79.5 81t-30 137.5q0 68 20.5 127t57 102.5t86 68t106.5 24.5q26 0 49 -6.5t41.5 -22.5t31.5 -43q-4 52 -21 91t-49 61.5t-84 22.5q-17 0 -34.5 -2.5t-37.5 -6.5v71q30 9 56.5 12.5t50.5 3.5q82 0 137.5 -40t84 -114t28.5 -178
q0 -129 -39 -222.5t-107.5 -143.5t-158.5 -50zM267 107q33 0 59.5 17t45.5 46t29.5 68t10.5 82q0 65 -26.5 95.5t-69.5 30.5q-32 0 -58.5 -15.5t-45.5 -44t-29 -66.5t-10 -82q0 -68 27.5 -99.5t66.5 -31.5z" />
    <glyph glyph-name="uni2206" unicode="&#x2206;" horiz-adv-x="689" 
d="M9 0v103l280 597h110l280 -597v-103h-670zM148 103h393l-197 444z" />
    <glyph glyph-name="product" unicode="&#x220f;" horiz-adv-x="738" 
d="M101 0v596h-74v104h684v-104h-74v-596h-135v596h-266v-596h-135z" />
    <glyph glyph-name="summation" unicode="&#x2211;" horiz-adv-x="500" 
d="M44 -50v157l246 224l-245 213v156h429v-103h-316l260 -217v-98l-256 -228h311v-104h-429z" />
    <glyph glyph-name="minus" unicode="&#x2212;" 
d="M79 233v113h422v-113h-422z" />
    <glyph glyph-name="uni2215" unicode="&#x2215;" horiz-adv-x="427" 
d="M24 -114l250 893h131l-250 -893h-131z" />
    <glyph glyph-name="radical" unicode="&#x221a;" horiz-adv-x="793" 
d="M19 224l192 113l126 -223l424 774h86l-511 -930h-66l-137 244l-75 -43z" />
    <glyph glyph-name="infinity" unicode="&#x221e;" horiz-adv-x="746" 
d="M198 126q-71 0 -118 42t-47 117q0 53 22.5 89.5t60.5 55.5t85 19t81.5 -16.5t61 -43t48.5 -56t43 -56t45 -43.5t54 -17q32 0 51.5 19t19.5 52q0 34 -18.5 51.5t-48.5 17.5q-39 0 -73 -27t-52 -73l-67 30q12 43 39 79.5t68.5 60t94.5 22.5q72 0 118.5 -42t46.5 -117
q0 -52 -22.5 -89t-61 -56t-85.5 -19t-82.5 16.5t-63.5 43t-51.5 56t-45.5 56t-44 43.5t-50 17t-47 -18.5t-19 -52.5q0 -33 19 -51t49 -18q39 0 73 27.5t51 72.5l67 -30q-11 -41 -38 -78.5t-68.5 -60.5t-95.5 -23z" />
    <glyph glyph-name="integral" unicode="&#x222b;" horiz-adv-x="278" 
d="M-45 -235l11 114h19q21 0 31 12t13 39l89 838q7 62 32 97.5t65.5 50.5t92.5 15h19l-11 -115h-18q-20 0 -31 -10.5t-14 -37.5l-89 -838q-7 -62 -31.5 -98.5t-65 -51.5t-92.5 -15h-20z" />
    <glyph glyph-name="approxequal" unicode="&#x2248;" 
d="M377 85q-31 0 -55.5 10t-45.5 23t-41 23t-42 10q-25 0 -42 -17t-22 -49h-100q11 65 35 106.5t59 60.5t78 19q32 0 56.5 -10t45 -23t40.5 -23t42 -10q26 0 43 17t21 49h100q-9 -65 -33.5 -106t-59.5 -60.5t-79 -19.5zM377 307q-31 0 -55.5 10t-45.5 23t-41 23t-42 10
q-25 0 -42 -17t-22 -49h-100q11 65 35 106.5t59 60.5t78 19q32 0 56.5 -10t45 -23t40.5 -23t42 -10q26 0 43 17t21 49h100q-9 -65 -33.5 -106t-59.5 -60.5t-79 -19.5z" />
    <glyph glyph-name="notequal" unicode="&#x2260;" 
d="M81 51l250 476h105l-251 -476h-104zM78 342v118h429v-118h-429zM78 118v118h429v-118h-429z" />
    <glyph glyph-name="lessequal" unicode="&#x2264;" 
d="M477 169h-170l-198 167v42l198 167h170l-219 -188zM480 0h-378v103h378v-103z" />
    <glyph glyph-name="greaterequal" unicode="&#x2265;" 
d="M102 169l219 188l-219 188h170l198 -167v-42l-197 -167h-171zM99 0v103h378v-103h-378z" />
    <glyph glyph-name="lozenge" unicode="&#x25ca;" horiz-adv-x="560" 
d="M280 98l-253 254l254 252l252 -252zM280 233l118 119l-117 118l-118 -118z" />
    <glyph glyph-name="Q.ss06" horiz-adv-x="778" 
d="M575 -137l-201 196l130 30l232 -226h-161zM389 -12q-104 0 -183 46t-124 127.5t-45 188.5t45 188.5t124 127.5t183 46t183.5 -46t123.5 -127.5t44 -188.5t-44 -188.5t-123.5 -127.5t-183.5 -46zM389 109q65 0 113 29.5t74.5 83.5t26.5 128q0 75 -26.5 128.5t-74.5 82.5
t-113 29t-113 -29t-74.5 -82.5t-26.5 -128.5q0 -74 26.5 -128t74.5 -83.5t113 -29.5z" />
    <glyph glyph-name="i.loclTRK" horiz-adv-x="227" 
d="M46 0v496h135v-496h-135zM113 563q-26 0 -44.5 18.5t-18.5 44.5q0 28 18.5 46.5t44.5 18.5q28 0 46.5 -18.5t18.5 -46.5q0 -26 -18.5 -44.5t-46.5 -18.5z" />
    <glyph glyph-name="a.ss02" horiz-adv-x="618" 
d="M266 -12q-70 0 -123 33.5t-82.5 92.5t-29.5 134t29.5 134t83.5 92.5t126 33.5q57 0 99.5 -22t66.5 -55l9 65h126v-496h-116l-8 83h-3q-27 -43 -71 -69t-107 -26zM303 101q41 0 71.5 19t47.5 52t17 77q0 43 -17 76t-47.5 52t-71.5 19q-40 0 -70.5 -19t-47.5 -52t-17 -76
q0 -44 17 -77t47.5 -52t70.5 -19z" />
    <glyph glyph-name="aacute.ss02" horiz-adv-x="618" 
d="M266 -12q-70 0 -123 33.5t-82.5 92.5t-29.5 134t29.5 134t83.5 92.5t126 33.5q57 0 99.5 -22t66.5 -55l9 65h126v-496h-116l-8 83h-3q-27 -43 -71 -69t-107 -26zM303 101q41 0 71.5 19t47.5 52t17 77q0 43 -17 76t-47.5 52t-71.5 19q-40 0 -70.5 -19t-47.5 -52t-17 -76
q0 -44 17 -77t47.5 -52t70.5 -19zM188 539v101l225 114h3v-107z" />
    <glyph glyph-name="abreve.ss02" horiz-adv-x="618" 
d="M266 -12q-70 0 -123 33.5t-82.5 92.5t-29.5 134t29.5 134t83.5 92.5t126 33.5q57 0 99.5 -22t66.5 -55l9 65h126v-496h-116l-8 83h-3q-27 -43 -71 -69t-107 -26zM303 101q41 0 71.5 19t47.5 52t17 77q0 43 -17 76t-47.5 52t-71.5 19q-40 0 -70.5 -19t-47.5 -52t-17 -76
q0 -44 17 -77t47.5 -52t70.5 -19zM302 555q-49 0 -84.5 19t-54.5 53.5t-19 82.5v17h71q0 -33 19 -52t68 -19q48 0 67.5 19t19.5 52h71v-17q0 -48 -19.5 -83t-55 -53.5t-83.5 -18.5z" />
    <glyph glyph-name="acircumflex.ss02" horiz-adv-x="618" 
d="M266 -12q-70 0 -123 33.5t-82.5 92.5t-29.5 134t29.5 134t83.5 92.5t126 33.5q57 0 99.5 -22t66.5 -55l9 65h126v-496h-116l-8 83h-3q-27 -43 -71 -69t-107 -26zM303 101q41 0 71.5 19t47.5 52t17 77q0 43 -17 76t-47.5 52t-71.5 19q-40 0 -70.5 -19t-47.5 -52t-17 -76
q0 -44 17 -77t47.5 -52t70.5 -19zM154 542v96l148 80l147 -80v-96l-147 83z" />
    <glyph glyph-name="adieresis.ss02" horiz-adv-x="618" 
d="M266 -12q-70 0 -123 33.5t-82.5 92.5t-29.5 134t29.5 134t83.5 92.5t126 33.5q57 0 99.5 -22t66.5 -55l9 65h126v-496h-116l-8 83h-3q-27 -43 -71 -69t-107 -26zM303 101q41 0 71.5 19t47.5 52t17 77q0 43 -17 76t-47.5 52t-71.5 19q-40 0 -70.5 -19t-47.5 -52t-17 -76
q0 -44 17 -77t47.5 -52t70.5 -19zM209 562q-26 0 -44.5 18.5t-18.5 44.5q0 28 18.5 46.5t44.5 18.5q28 0 46.5 -18.5t18.5 -46.5q0 -26 -18.5 -44.5t-46.5 -18.5zM393 562q-27 0 -45.5 18.5t-18.5 44.5q0 28 18.5 46.5t45.5 18.5t45.5 -18.5t18.5 -46.5q0 -26 -18.5 -44.5
t-45.5 -18.5z" />
    <glyph glyph-name="agrave.ss02" horiz-adv-x="618" 
d="M266 -12q-70 0 -123 33.5t-82.5 92.5t-29.5 134t29.5 134t83.5 92.5t126 33.5q57 0 99.5 -22t66.5 -55l9 65h126v-496h-116l-8 83h-3q-27 -43 -71 -69t-107 -26zM303 101q41 0 71.5 19t47.5 52t17 77q0 43 -17 76t-47.5 52t-71.5 19q-40 0 -70.5 -19t-47.5 -52t-17 -76
q0 -44 17 -77t47.5 -52t70.5 -19zM416 539l-228 108v107h3l225 -114v-101z" />
    <glyph glyph-name="amacron.ss02" horiz-adv-x="618" 
d="M266 -12q-70 0 -123 33.5t-82.5 92.5t-29.5 134t29.5 134t83.5 92.5t126 33.5q57 0 99.5 -22t66.5 -55l9 65h126v-496h-116l-8 83h-3q-27 -43 -71 -69t-107 -26zM303 101q41 0 71.5 19t47.5 52t17 77q0 43 -17 76t-47.5 52t-71.5 19q-40 0 -70.5 -19t-47.5 -52t-17 -76
q0 -44 17 -77t47.5 -52t70.5 -19zM113 586v95h378v-95h-378z" />
    <glyph glyph-name="aogonek.ss02" horiz-adv-x="618" 
d="M266 -12q-70 0 -123 33.5t-82.5 92.5t-29.5 134t29.5 134t83.5 92.5t126 33.5q57 0 99.5 -22t66.5 -55l9 65h126v-496h-116l-8 83h-3q-27 -43 -71 -69t-107 -26zM303 101q41 0 71.5 19t47.5 52t17 77q0 43 -17 76t-47.5 52t-71.5 19q-40 0 -70.5 -19t-47.5 -52t-17 -76
q0 -44 17 -77t47.5 -52t70.5 -19zM489 -211q-37 0 -68 11t-49.5 35t-18.5 60q0 27 13 52t44.5 49t86.5 47l45 20l30 -63l-51 -25q-36 -18 -51 -34t-15 -34t13.5 -29t37.5 -11q15 0 33.5 4t37.5 11v-79q-19 -7 -41.5 -10.5t-46.5 -3.5z" />
    <glyph glyph-name="aring.ss02" horiz-adv-x="618" 
d="M266 -12q-70 0 -123 33.5t-82.5 92.5t-29.5 134t29.5 134t83.5 92.5t126 33.5q57 0 99.5 -22t66.5 -55l9 65h126v-496h-116l-8 83h-3q-27 -43 -71 -69t-107 -26zM303 101q41 0 71.5 19t47.5 52t17 77q0 43 -17 76t-47.5 52t-71.5 19q-40 0 -70.5 -19t-47.5 -52t-17 -76
q0 -44 17 -77t47.5 -52t70.5 -19zM302 562q-47 0 -81 30.5t-34 83.5q0 52 34 82.5t81 30.5q48 0 82 -30.5t34 -82.5q0 -53 -34 -83.5t-82 -30.5zM302 622q22 0 37 14.5t15 39.5t-15 39t-37 14q-21 0 -36 -14t-15 -39t15 -39.5t36 -14.5z" />
    <glyph glyph-name="atilde.ss02" horiz-adv-x="618" 
d="M266 -12q-70 0 -123 33.5t-82.5 92.5t-29.5 134t29.5 134t83.5 92.5t126 33.5q57 0 99.5 -22t66.5 -55l9 65h126v-496h-116l-8 83h-3q-27 -43 -71 -69t-107 -26zM303 101q41 0 71.5 19t47.5 52t17 77q0 43 -17 76t-47.5 52t-71.5 19q-40 0 -70.5 -19t-47.5 -52t-17 -76
q0 -44 17 -77t47.5 -52t70.5 -19zM361 562q-29 0 -49.5 11.5t-37.5 23t-38 11.5q-16 0 -27.5 -11t-15.5 -34h-71q11 67 42.5 97.5t77.5 30.5q29 0 49 -11.5t37.5 -22.5t38.5 -11q17 0 28.5 11t14.5 34h71q-10 -67 -41.5 -98t-78.5 -31z" />
    <glyph glyph-name="ae.ss02" horiz-adv-x="980" 
d="M267 -12q-70 0 -123.5 33.5t-83 92t-29.5 132.5q0 78 30 136.5t84 92t125 33.5q56 0 98.5 -21.5t66.5 -53.5l9 63h117v-37q30 25 66.5 37t81.5 12q71 0 126.5 -32t87 -87.5t31.5 -125.5q0 -10 -0.5 -22.5t-1.5 -25.5h-374q2 -36 18 -62t43.5 -40.5t60.5 -14.5
q39 0 65 17.5t39 45.5h136q-13 -49 -46.5 -88t-81.5 -62t-108 -23q-41 0 -77 12t-66 34v-34h-109l-7 77h-3q-19 -30 -45.5 -49.5t-58.5 -29.5t-71 -10zM303 101q40 0 70.5 18.5t48 52t17.5 76.5q0 44 -17 77t-47.5 52t-71.5 19q-39 0 -70 -19t-48 -52t-17 -76t16.5 -76.5
t47 -52.5t71.5 -19zM581 298h236q-3 47 -34.5 75t-80.5 28q-29 0 -54.5 -11.5t-43 -34t-23.5 -57.5z" />
    <glyph glyph-name="aeacute.ss02" horiz-adv-x="980" 
d="M267 -12q-70 0 -123.5 33.5t-83 92t-29.5 132.5q0 78 30 136.5t84 92t125 33.5q56 0 98.5 -21.5t66.5 -53.5l9 63h117v-37q30 25 66.5 37t81.5 12q71 0 126.5 -32t87 -87.5t31.5 -125.5q0 -10 -0.5 -22.5t-1.5 -25.5h-374q2 -36 18 -62t43.5 -40.5t60.5 -14.5
q39 0 65 17.5t39 45.5h136q-13 -49 -46.5 -88t-81.5 -62t-108 -23q-41 0 -77 12t-66 34v-34h-109l-7 77h-3q-19 -30 -45.5 -49.5t-58.5 -29.5t-71 -10zM303 101q40 0 70.5 18.5t48 52t17.5 76.5q0 44 -17 77t-47.5 52t-71.5 19q-39 0 -70 -19t-48 -52t-17 -76t16.5 -76.5
t47 -52.5t71.5 -19zM581 298h236q-3 47 -34.5 75t-80.5 28q-29 0 -54.5 -11.5t-43 -34t-23.5 -57.5zM378 539v101l225 114h3v-107z" />
    <glyph glyph-name="g.ss03" horiz-adv-x="620" 
d="M308 -217q-48 0 -93 11.5t-81.5 35t-60 61t-30.5 89.5h134q7 -28 24.5 -46t44 -27.5t59.5 -9.5q38 0 68 15t48 46.5t18 78.5v38q-16 -22 -39 -39.5t-55 -28.5t-74 -11q-72 0 -126 33.5t-84 92t-30 131.5q0 74 30 131.5t83 90.5t124 33q40 0 74 -11.5t60.5 -32.5t43.5 -50
h3l9 82h116v-458q0 -63 -21 -110.5t-57.5 -80t-84.5 -48.5t-103 -16zM304 106q41 0 71.5 19t47.5 51.5t17 75.5t-17 76t-47.5 52t-71.5 19t-71.5 -19t-47.5 -51.5t-17 -76.5q0 -42 17 -75t47.5 -52t71.5 -19z" />
    <glyph glyph-name="gbreve.ss03" horiz-adv-x="620" 
d="M308 -217q-48 0 -93 11.5t-81.5 35t-60 61t-30.5 89.5h134q7 -28 24.5 -46t44 -27.5t59.5 -9.5q38 0 68 15t48 46.5t18 78.5v38q-16 -22 -39 -39.5t-55 -28.5t-74 -11q-72 0 -126 33.5t-84 92t-30 131.5q0 74 30 131.5t83 90.5t124 33q40 0 74 -11.5t60.5 -32.5t43.5 -50
h3l9 82h116v-458q0 -63 -21 -110.5t-57.5 -80t-84.5 -48.5t-103 -16zM304 106q41 0 71.5 19t47.5 51.5t17 75.5t-17 76t-47.5 52t-71.5 19t-71.5 -19t-47.5 -51.5t-17 -76.5q0 -42 17 -75t47.5 -52t71.5 -19zM311 555q-49 0 -84.5 19t-54.5 53.5t-19 82.5v17h71
q0 -33 19 -52t68 -19q48 0 67.5 19t19.5 52h71v-17q0 -48 -19.5 -83t-55 -53.5t-83.5 -18.5z" />
    <glyph glyph-name="uni0123.ss03" horiz-adv-x="620" 
d="M308 -217q-48 0 -93 11.5t-81.5 35t-60 61t-30.5 89.5h134q7 -28 24.5 -46t44 -27.5t59.5 -9.5q38 0 68 15t48 46.5t18 78.5v38q-16 -22 -39 -39.5t-55 -28.5t-74 -11q-72 0 -126 33.5t-84 92t-30 131.5q0 74 30 131.5t83 90.5t124 33q40 0 74 -11.5t60.5 -32.5t43.5 -50
h3l9 82h116v-458q0 -63 -21 -110.5t-57.5 -80t-84.5 -48.5t-103 -16zM304 106q41 0 71.5 19t47.5 51.5t17 75.5t-17 76t-47.5 52t-71.5 19t-71.5 -19t-47.5 -51.5t-17 -76.5q0 -42 17 -75t47.5 -52t71.5 -19zM369 774v-55q-23 0 -35 -8.5t-12 -27.5v-19h47v-106h-115
q-1 30 -2 52t-1 46q0 57 30 87.5t88 30.5z" />
    <glyph glyph-name="gdotaccent.ss03" horiz-adv-x="620" 
d="M308 -217q-48 0 -93 11.5t-81.5 35t-60 61t-30.5 89.5h134q7 -28 24.5 -46t44 -27.5t59.5 -9.5q38 0 68 15t48 46.5t18 78.5v38q-16 -22 -39 -39.5t-55 -28.5t-74 -11q-72 0 -126 33.5t-84 92t-30 131.5q0 74 30 131.5t83 90.5t124 33q40 0 74 -11.5t60.5 -32.5t43.5 -50
h3l9 82h116v-458q0 -63 -21 -110.5t-57.5 -80t-84.5 -48.5t-103 -16zM304 106q41 0 71.5 19t47.5 51.5t17 75.5t-17 76t-47.5 52t-71.5 19t-71.5 -19t-47.5 -51.5t-17 -76.5q0 -42 17 -75t47.5 -52t71.5 -19zM309 563q-26 0 -44.5 18.5t-18.5 44.5q0 28 18.5 46.5t44.5 18.5
q28 0 46.5 -18.5t18.5 -46.5q0 -26 -18.5 -44.5t-46.5 -18.5z" />
    <glyph glyph-name="u.ss04" horiz-adv-x="575" 
d="M288 -12q-124 0 -186 62.5t-62 176.5v269h135v-258q0 -48 11.5 -81t36.5 -49.5t65 -16.5q39 0 64 16.5t36.5 49.5t11.5 81v258h134v-269q0 -114 -61.5 -176.5t-184.5 -62.5z" />
    <glyph glyph-name="uacute.ss04" horiz-adv-x="575" 
d="M288 -12q-124 0 -186 62.5t-62 176.5v269h135v-258q0 -48 11.5 -81t36.5 -49.5t65 -16.5q39 0 64 16.5t36.5 49.5t11.5 81v258h134v-269q0 -114 -61.5 -176.5t-184.5 -62.5zM173 539v101l225 114h3v-107z" />
    <glyph glyph-name="ubreve.ss04" horiz-adv-x="575" 
d="M288 -12q-124 0 -186 62.5t-62 176.5v269h135v-258q0 -48 11.5 -81t36.5 -49.5t65 -16.5q39 0 64 16.5t36.5 49.5t11.5 81v258h134v-269q0 -114 -61.5 -176.5t-184.5 -62.5zM288 555q-49 0 -84.5 19t-54.5 53.5t-19 82.5v17h71q0 -33 19 -52t68 -19q48 0 67.5 19t19.5 52
h71v-17q0 -48 -19.5 -83t-55 -53.5t-83.5 -18.5z" />
    <glyph glyph-name="ucircumflex.ss04" horiz-adv-x="575" 
d="M288 -12q-124 0 -186 62.5t-62 176.5v269h135v-258q0 -48 11.5 -81t36.5 -49.5t65 -16.5q39 0 64 16.5t36.5 49.5t11.5 81v258h134v-269q0 -114 -61.5 -176.5t-184.5 -62.5zM140 542v96l148 80l147 -80v-96l-147 83z" />
    <glyph glyph-name="udieresis.ss04" horiz-adv-x="575" 
d="M288 -12q-124 0 -186 62.5t-62 176.5v269h135v-258q0 -48 11.5 -81t36.5 -49.5t65 -16.5q39 0 64 16.5t36.5 49.5t11.5 81v258h134v-269q0 -114 -61.5 -176.5t-184.5 -62.5zM195 562q-26 0 -44.5 18.5t-18.5 44.5q0 28 18.5 46.5t44.5 18.5q28 0 46.5 -18.5t18.5 -46.5
q0 -26 -18.5 -44.5t-46.5 -18.5zM379 562q-27 0 -45.5 18.5t-18.5 44.5q0 28 18.5 46.5t45.5 18.5t45.5 -18.5t18.5 -46.5q0 -26 -18.5 -44.5t-45.5 -18.5z" />
    <glyph glyph-name="ugrave.ss04" horiz-adv-x="575" 
d="M288 -12q-124 0 -186 62.5t-62 176.5v269h135v-258q0 -48 11.5 -81t36.5 -49.5t65 -16.5q39 0 64 16.5t36.5 49.5t11.5 81v258h134v-269q0 -114 -61.5 -176.5t-184.5 -62.5zM401 539l-228 108v107h3l225 -114v-101z" />
    <glyph glyph-name="uhungarumlaut.ss04" horiz-adv-x="575" 
d="M288 -12q-124 0 -186 62.5t-62 176.5v269h135v-258q0 -48 11.5 -81t36.5 -49.5t65 -16.5q39 0 64 16.5t36.5 49.5t11.5 81v258h134v-269q0 -114 -61.5 -176.5t-184.5 -62.5zM321 543l82 184h110l-108 -184h-84zM147 543l71 184h110l-96 -184h-85z" />
    <glyph glyph-name="umacron.ss04" horiz-adv-x="575" 
d="M288 -12q-124 0 -186 62.5t-62 176.5v269h135v-258q0 -48 11.5 -81t36.5 -49.5t65 -16.5q39 0 64 16.5t36.5 49.5t11.5 81v258h134v-269q0 -114 -61.5 -176.5t-184.5 -62.5zM99 586v95h378v-95h-378z" />
    <glyph glyph-name="uogonek.ss04" horiz-adv-x="575" 
d="M288 -12q-124 0 -186 62.5t-62 176.5v269h135v-258q0 -48 11.5 -81t36.5 -49.5t65 -16.5q39 0 64 16.5t36.5 49.5t11.5 81v258h134v-269q0 -114 -61.5 -176.5t-184.5 -62.5zM329 -201q-37 0 -68 11t-49.5 35t-18.5 60q0 27 13 52t44.5 49t86.5 47l45 20l30 -63l-51 -25
q-36 -18 -51 -34t-15 -34t13.5 -29t37.5 -11q15 0 33.5 4t37.5 11v-79q-19 -7 -41.5 -10.5t-46.5 -3.5z" />
    <glyph glyph-name="uring.ss04" horiz-adv-x="575" 
d="M288 -12q-124 0 -186 62.5t-62 176.5v269h135v-258q0 -48 11.5 -81t36.5 -49.5t65 -16.5q39 0 64 16.5t36.5 49.5t11.5 81v258h134v-269q0 -114 -61.5 -176.5t-184.5 -62.5zM288 562q-47 0 -81 30.5t-34 83.5q0 52 34 82.5t81 30.5q48 0 82 -30.5t34 -82.5
q0 -53 -34 -83.5t-82 -30.5zM288 622q22 0 37 14.5t15 39.5t-15 39t-37 14q-21 0 -36 -14t-15 -39t15 -39.5t36 -14.5z" />
    <glyph glyph-name="utilde.ss04" horiz-adv-x="575" 
d="M288 -12q-124 0 -186 62.5t-62 176.5v269h135v-258q0 -48 11.5 -81t36.5 -49.5t65 -16.5q39 0 64 16.5t36.5 49.5t11.5 81v258h134v-269q0 -114 -61.5 -176.5t-184.5 -62.5zM347 562q-29 0 -49.5 11.5t-37.5 23t-38 11.5q-16 0 -27.5 -11t-15.5 -34h-71q11 67 42.5 97.5
t77.5 30.5q29 0 49 -11.5t37.5 -22.5t38.5 -11q17 0 28.5 11t14.5 34h71q-10 -67 -41.5 -98t-78.5 -31z" />
    <glyph glyph-name="y.ss05" horiz-adv-x="582" 
d="M291 -217q-42 0 -83.5 11t-76.5 34t-57.5 59t-27.5 86h133q5 -24 20 -42t38 -28t52 -10q37 0 62.5 16t38.5 48.5t13 82.5v33h-3q-22 -33 -62 -54t-99 -21q-62 0 -106.5 25.5t-68.5 77t-24 127.5v268h134v-260q0 -61 27 -94.5t83 -33.5q39 0 65 16.5t40 47.5t14 74v250
h135v-457q0 -85 -33 -142t-88.5 -85.5t-125.5 -28.5z" />
    <glyph glyph-name="yacute.ss05" horiz-adv-x="582" 
d="M291 -217q-42 0 -83.5 11t-76.5 34t-57.5 59t-27.5 86h133q5 -24 20 -42t38 -28t52 -10q37 0 62.5 16t38.5 48.5t13 82.5v33h-3q-22 -33 -62 -54t-99 -21q-62 0 -106.5 25.5t-68.5 77t-24 127.5v268h134v-260q0 -61 27 -94.5t83 -33.5q39 0 65 16.5t40 47.5t14 74v250
h135v-457q0 -85 -33 -142t-88.5 -85.5t-125.5 -28.5zM177 539v101l225 114h3v-107z" />
    <glyph glyph-name="ycircumflex.ss05" horiz-adv-x="582" 
d="M291 -217q-42 0 -83.5 11t-76.5 34t-57.5 59t-27.5 86h133q5 -24 20 -42t38 -28t52 -10q37 0 62.5 16t38.5 48.5t13 82.5v33h-3q-22 -33 -62 -54t-99 -21q-62 0 -106.5 25.5t-68.5 77t-24 127.5v268h134v-260q0 -61 27 -94.5t83 -33.5q39 0 65 16.5t40 47.5t14 74v250
h135v-457q0 -85 -33 -142t-88.5 -85.5t-125.5 -28.5zM144 542v96l148 80l147 -80v-96l-147 83z" />
    <glyph glyph-name="ydieresis.ss05" horiz-adv-x="582" 
d="M291 -217q-42 0 -83.5 11t-76.5 34t-57.5 59t-27.5 86h133q5 -24 20 -42t38 -28t52 -10q37 0 62.5 16t38.5 48.5t13 82.5v33h-3q-22 -33 -62 -54t-99 -21q-62 0 -106.5 25.5t-68.5 77t-24 127.5v268h134v-260q0 -61 27 -94.5t83 -33.5q39 0 65 16.5t40 47.5t14 74v250
h135v-457q0 -85 -33 -142t-88.5 -85.5t-125.5 -28.5zM199 562q-26 0 -44.5 18.5t-18.5 44.5q0 28 18.5 46.5t44.5 18.5q28 0 46.5 -18.5t18.5 -46.5q0 -26 -18.5 -44.5t-46.5 -18.5zM383 562q-27 0 -45.5 18.5t-18.5 44.5q0 28 18.5 46.5t45.5 18.5t45.5 -18.5t18.5 -46.5
q0 -26 -18.5 -44.5t-45.5 -18.5z" />
    <glyph glyph-name="ygrave.ss05" horiz-adv-x="582" 
d="M291 -217q-42 0 -83.5 11t-76.5 34t-57.5 59t-27.5 86h133q5 -24 20 -42t38 -28t52 -10q37 0 62.5 16t38.5 48.5t13 82.5v33h-3q-22 -33 -62 -54t-99 -21q-62 0 -106.5 25.5t-68.5 77t-24 127.5v268h134v-260q0 -61 27 -94.5t83 -33.5q39 0 65 16.5t40 47.5t14 74v250
h135v-457q0 -85 -33 -142t-88.5 -85.5t-125.5 -28.5zM405 539l-228 108v107h3l225 -114v-101z" />
    <glyph glyph-name="uni1EF9.ss05" horiz-adv-x="582" 
d="M291 -217q-42 0 -83.5 11t-76.5 34t-57.5 59t-27.5 86h133q5 -24 20 -42t38 -28t52 -10q37 0 62.5 16t38.5 48.5t13 82.5v33h-3q-22 -33 -62 -54t-99 -21q-62 0 -106.5 25.5t-68.5 77t-24 127.5v268h134v-260q0 -61 27 -94.5t83 -33.5q39 0 65 16.5t40 47.5t14 74v250
h135v-457q0 -85 -33 -142t-88.5 -85.5t-125.5 -28.5zM351 562q-29 0 -49.5 11.5t-37.5 23t-38 11.5q-16 0 -27.5 -11t-15.5 -34h-71q11 67 42.5 97.5t77.5 30.5q29 0 49 -11.5t37.5 -22.5t38.5 -11q17 0 28.5 11t14.5 34h71q-10 -67 -41.5 -98t-78.5 -31z" />
    <glyph glyph-name="one.ss07" horiz-adv-x="403" 
d="M135 0v545l-116 -27v105l174 77h82v-700h-140zM26 106h358v-106h-358v106z" />
    <glyph glyph-name="three.ss07" horiz-adv-x="580" 
d="M292 -6q-70 0 -126 25t-90 75t-38 127h133q4 -50 33.5 -82t88.5 -32q54 0 85.5 31t31.5 86t-34.5 87t-94.5 32h-99v90l197 184l44 -32h-345v115h432v-102l-221 -204l-61 39h70q112 0 176.5 -56t64.5 -158q0 -67 -30 -118t-86 -79t-131 -28z" />
    <glyph glyph-name="four.ss07" horiz-adv-x="622" 
d="M366 0v133h-336v108l289 459h144l-289 -450h201v157l125 29v-186h92v-117h-92v-133h-134z" />
    <glyph glyph-name="six.ss07" horiz-adv-x="572" 
d="M287 -12q-76 0 -134 32t-90 88t-32 128q0 54 18.5 107.5t59.5 113.5l164 243h151l-210 -301l-6 46q28 8 53.5 14.5t53.5 6.5q67 0 117.5 -28t79.5 -79.5t29 -124.5t-33 -129t-90.5 -86.5t-130.5 -30.5zM287 104q58 0 92 35t34 94q0 39 -15.5 68t-43.5 45t-67 16
q-38 0 -66.5 -16t-44 -44.5t-15.5 -68.5q0 -59 34.5 -94t91.5 -35z" />
    <glyph glyph-name="nine.ss07" horiz-adv-x="572" 
d="M148 0l211 301l5 -46q-27 -8 -53 -14.5t-54 -6.5q-66 0 -117 28t-80 80t-29 124q0 74 33.5 129.5t90.5 86t130 30.5q77 0 134.5 -32t89.5 -88t32 -128q0 -54 -18 -107t-59 -114l-164 -243h-152zM285 338q39 0 67.5 16t43.5 45t15 68q0 59 -34 94t-92 35t-91.5 -35
t-33.5 -94q0 -39 15 -68t43.5 -45t66.5 -16z" />
    <glyph glyph-name="one.dnom" horiz-adv-x="237" 
d="M93 0v255l-70 -16v64l115 49h59v-352h-104z" />
    <glyph glyph-name="two.dnom" horiz-adv-x="361" 
d="M37 0v76l118 82q29 20 45 40.5t16 45.5q0 20 -10.5 30.5t-26.5 10.5q-19 0 -29.5 -12t-13.5 -33h-102q3 52 42.5 86t111.5 34q46 0 76.5 -15.5t45.5 -40.5t15 -53q0 -39 -26.5 -67.5t-82.5 -60.5l-69 -42h177v-81h-287z" />
    <glyph glyph-name="three.dnom" horiz-adv-x="356" 
d="M177 -4q-76 0 -114.5 31t-42.5 84h105q2 -15 8 -24t16.5 -13t22.5 -4q21 0 33 10.5t12 30.5q0 21 -14 32t-37 11h-39v50h35q24 0 37.5 10.5t13.5 31.5q0 19 -12 29t-33 10q-19 0 -30.5 -9.5t-15.5 -27.5h-97q2 30 19 56t50.5 41t84.5 15q63 0 103 -29.5t40 -73.5
q0 -31 -17.5 -50.5t-48.5 -27.5v-2q33 -10 52 -30t19 -52q0 -44 -40.5 -71.5t-109.5 -27.5z" />
    <glyph glyph-name="four.dnom" horiz-adv-x="350" 
d="M191 0v61h-165v68l133 219h132v-217h37v-70h-37v-61h-100zM124 131h75v123h-3z" />
    <glyph glyph-name="one.numr" horiz-adv-x="237" 
d="M93 352v255l-70 -16v64l115 49h59v-352h-104z" />
    <glyph glyph-name="two.numr" horiz-adv-x="361" 
d="M37 352v76l118 82q29 20 45 40.5t16 45.5q0 20 -10.5 30.5t-26.5 10.5q-19 0 -29.5 -12t-13.5 -33h-102q3 52 42.5 86t111.5 34q46 0 76.5 -15.5t45.5 -40.5t15 -53q0 -39 -26.5 -67.5t-82.5 -60.5l-69 -42h177v-81h-287z" />
    <glyph glyph-name="three.numr" horiz-adv-x="356" 
d="M177 348q-76 0 -114.5 31t-42.5 84h105q2 -15 8 -24t16.5 -13t22.5 -4q21 0 33 10.5t12 30.5q0 21 -14 32t-37 11h-39v50h35q24 0 37.5 10.5t13.5 31.5q0 19 -12 29t-33 10q-19 0 -30.5 -9.5t-15.5 -27.5h-97q2 30 19 56t50.5 41t84.5 15q63 0 103 -29.5t40 -73.5
q0 -31 -17.5 -50.5t-48.5 -27.5v-2q33 -10 52 -30t19 -52q0 -44 -40.5 -71.5t-109.5 -27.5z" />
    <glyph glyph-name="four.numr" horiz-adv-x="350" 
d="M191 352v61h-165v68l133 219h132v-217h37v-70h-37v-61h-100zM124 483h75v123h-3z" />
    <glyph glyph-name="comma.ss01" horiz-adv-x="206" 
d="M42 -103v55q26 0 38 14.5t12 46.5v19h-57v106h126q2 -29 3 -56t1 -50q0 -63 -31 -99t-92 -36z" />
    <glyph glyph-name="semicolon.ss01" horiz-adv-x="229" 
d="M109 354q-36 0 -59.5 22.5t-23.5 54.5q0 33 23.5 55.5t59.5 22.5q37 0 60 -22.5t23 -55.5q0 -32 -23 -54.5t-60 -22.5zM51 -103v55q26 0 38 14.5t12 46.5v19h-57v106h126q2 -29 3 -56t1 -50q0 -63 -31 -99t-92 -36z" />
    <glyph glyph-name="quotesinglbase.ss01" horiz-adv-x="206" 
d="M42 -103v55q26 0 38 14.5t12 46.5v19h-57v106h126q2 -27 3 -54t1 -53q0 -62 -30.5 -98t-92.5 -36z" />
    <glyph glyph-name="quotedblbase.ss01" horiz-adv-x="366" 
d="M202 -103v55q26 0 38 14.5t12 46.5v19h-57v106h126q2 -27 3 -54t1 -53q0 -62 -30.5 -98t-92.5 -36zM42 -103v55q26 0 38 14.5t12 46.5v19h-57v106h126q2 -27 3 -54t1 -53q0 -62 -30.5 -98t-92.5 -36z" />
    <glyph glyph-name="quotedblleft.ss01" horiz-adv-x="349" 
d="M155 735v-55q-25 0 -37.5 -14.5t-12.5 -46.5v-19h57v-106h-126q-2 27 -3 54t-1 52q0 64 31 99.5t92 35.5zM315 735v-55q-25 0 -37.5 -14.5t-12.5 -46.5v-19h57v-106h-125q-2 27 -3 54t-1 52q0 64 30.5 99.5t91.5 35.5z" />
    <glyph glyph-name="quotedblright.ss01" horiz-adv-x="349" 
d="M194 494v55q26 0 38 14.5t12 46.5v19h-57v106h126q2 -27 3 -54t1 -53q0 -62 -30.5 -98t-92.5 -36zM34 494v55q26 0 38 14.5t12 46.5v19h-57v106h126q2 -27 3 -54t1 -53q0 -62 -30.5 -98t-92.5 -36z" />
    <glyph glyph-name="quoteleft.ss01" horiz-adv-x="189" 
d="M155 735v-55q-25 0 -37.5 -14.5t-12.5 -46.5v-19h57v-106h-126q-2 27 -3 54t-1 52q0 64 31 99.5t92 35.5z" />
    <glyph glyph-name="quoteright.ss01" horiz-adv-x="189" 
d="M34 492v55q26 0 38 14.5t12 46.5v19h-57v106h126q2 -27 3 -54t1 -53q0 -62 -30.5 -98t-92.5 -36z" />
    <glyph glyph-name="quotedblleft.ss08" horiz-adv-x="764" 
d="M382 -12q75 0 140.5 28t115.5 78t78 115.5t28 140.5t-28 140.5t-78 115.5t-115.5 78t-140.5 28t-140.5 -28t-115.5 -78t-78 -115.5t-28 -140.5t28 -140.5t78 -115.5t115.5 -78t140.5 -28zM360 484v-59q-28 0 -41.5 -16.5t-13.5 -51.5v-22h63v-116h-138q-2 30 -3 59.5
t-1 57.5q0 47 14.5 80t45 50.5t74.5 17.5zM537 484v-59q-29 0 -42.5 -16.5t-13.5 -51.5v-22h62v-116h-137q-2 30 -3 59.5t-1 57.5q0 47 15 80t45 50.5t75 17.5z" />
    <glyph glyph-name="quotedblright.ss08" horiz-adv-x="764" 
d="M382 712q-75 0 -140.5 -28t-115.5 -78t-78 -115.5t-28 -140.5t28 -140.5t78 -115.5t115.5 -78t140.5 -28t140.5 28t115.5 78t78 115.5t28 140.5t-28 140.5t-78 115.5t-115.5 78t-140.5 28zM404 216v59q29 0 42 16.5t13 51.5v22h-63v116h138q2 -30 3 -59.5t1 -57.5
q0 -47 -14.5 -80t-44.5 -50.5t-75 -17.5zM227 216v59q29 0 42.5 16.5t13.5 51.5v22h-62v116h137q2 -30 3 -59.5t1 -57.5q0 -47 -15 -80t-44.5 -50.5t-75.5 -17.5z" />
    <glyph glyph-name="arrowup.ss08" horiz-adv-x="764" 
d="M382 -12q-75 0 -140.5 28t-115.5 78t-78 115.5t-28 140.5t28 140.5t78 115.5t115.5 78t140.5 28t140.5 -28t115.5 -77.5t78 -115t28 -141.5q0 -75 -28 -140.5t-78 -115.5t-115.5 -78t-140.5 -28zM338 165h89v240l108 -106l57 58l-183 179h-53l-183 -180l57 -58l108 107
v-240z" />
    <glyph glyph-name="uni2197.ss08" horiz-adv-x="764" 
d="M382 -12q-75 0 -140.5 28t-115.5 78t-78 115.5t-28 140.5t28 140.5t78 115.5t115.5 78t140.5 28t140.5 -28t115.5 -77.5t78 -115.5t28 -141t-28 -140.5t-78 -115.5t-115.5 -78t-140.5 -28zM286 197l172 169v-165h78v266l-37 37h-265v-79h164l-171 -169z" />
    <glyph glyph-name="arrowright.ss08" horiz-adv-x="764" 
d="M382 -12q-75 0 -140.5 28t-115.5 78t-78 115.5t-28 140.5t28 140.5t78 115.5t115.5 78t140.5 28t140.5 -28t115.5 -78t78 -115.5t28 -140.5t-28 -140.5t-77.5 -115.5t-115.5 -78t-141 -28zM387 142l181 182v53l-181 181l-57 -56l112 -109h-246v-85h246l-112 -110z" />
    <glyph glyph-name="uni2198.ss08" horiz-adv-x="764" 
d="M382 712q75 0 140.5 -28t115.5 -78t78 -115.5t28 -140.5t-28 -141t-78 -115.5t-115.5 -77.5t-140.5 -28t-140.5 28t-115.5 78t-78 115.5t-28 140.5t28 140.5t78 115.5t115.5 78t140.5 28zM286 503l-59 -59l171 -169h-164v-79h265l37 37v266h-78v-165z" />
    <glyph glyph-name="arrowdown.ss08" horiz-adv-x="764" 
d="M382 712q75 0 140.5 -28t115.5 -78t78 -115.5t28 -140.5q0 -76 -28 -141.5t-78 -115t-115.5 -77.5t-140.5 -28t-140.5 28t-115.5 78t-78 115.5t-28 140.5t28 140.5t78 115.5t115.5 78t140.5 28zM338 535v-240l-108 107l-57 -58l183 -180h53l183 179l-57 58l-108 -106v240
h-89z" />
    <glyph glyph-name="uni2199.ss08" horiz-adv-x="764" 
d="M382 712q75 0 140.5 -28t115.5 -78t78 -115.5t28 -140.5t-28 -140.5t-78 -115.5t-115.5 -78t-140.5 -28t-140.5 28t-115.5 77.5t-78 115.5t-28 141t28 140.5t78 115.5t115.5 78t140.5 28zM478 503l-172 -169v165h-78v-266l37 -37h265v79h-164l171 169z" />
    <glyph glyph-name="arrowleft.ss08" horiz-adv-x="764" 
d="M382 -12q-75 0 -141 28t-115.5 78t-77.5 115.5t-28 140.5t28 140.5t78 115.5t115.5 78t140.5 28t140.5 -28t115.5 -78t78 -115.5t28 -140.5t-28 -140.5t-78 -115.5t-115.5 -78t-140.5 -28zM377 142l57 56l-112 110h246v85h-246l112 109l-57 56l-181 -181v-53z" />
    <glyph glyph-name="uni2196.ss08" horiz-adv-x="764" 
d="M382 -12q-75 0 -140.5 28t-115.5 78t-78 115.5t-28 140.5t28 141t78 115.5t115.5 77.5t140.5 28t140.5 -28t115.5 -78t78 -115.5t28 -140.5t-28 -140.5t-78 -115.5t-115.5 -78t-140.5 -28zM478 197l59 59l-171 169h164v79h-265l-37 -37v-266h78v165z" />
    <glyph glyph-name="arrowboth.ss08" horiz-adv-x="764" 
d="M382 -12q-75 0 -140.5 28t-115.5 78t-78 115.5t-28 140.5t28 140.5t78 115.5t115.5 78t140.5 28t140.5 -28t115.5 -77.5t78 -115.5t28 -141t-28 -140.5t-78 -115.5t-115.5 -78t-140.5 -28zM288 148l64 50l-89 108h243l-89 -108l64 -50l142 176v53l-142 174l-64 -48
l89 -109h-243l89 109l-64 48l-143 -174v-53z" />
    <glyph glyph-name="arrowupdn.ss08" horiz-adv-x="764" 
d="M382 -12q-75 0 -140.5 28t-115.5 78t-78 115.5t-28 140.5t28 140.5t78 115.5t115.5 78t140.5 28t140.5 -28t115.5 -78t78 -115.5t28 -140.5t-28 -140.5t-77.5 -115.5t-115.5 -78t-141 -28zM357 113h53l173 142l-47 63l-109 -89v242l109 -89l47 63l-173 142h-53l-175 -141
l48 -64l109 89v-242l-109 89l-48 -64z" />
    <glyph glyph-name="uni030C.alt" horiz-adv-x="0" 
d="M0 509v55q24 0 35.5 8.5t11.5 27.5v19h-47v106h115q1 -29 2 -51.5t1 -46.5q0 -57 -30 -87.5t-88 -30.5z" />
    <glyph glyph-name="uni0308.case" horiz-adv-x="0" 
d="M63 767q-26 0 -44.5 18.5t-18.5 45.5t18.5 45.5t44.5 18.5q28 0 46.5 -18.5t18.5 -45.5t-18.5 -45.5t-46.5 -18.5zM247 767q-27 0 -45.5 18.5t-18.5 45.5t18.5 45.5t45.5 18.5t45.5 -18.5t18.5 -45.5t-18.5 -45.5t-45.5 -18.5z" />
    <glyph glyph-name="uni0307.case" horiz-adv-x="0" 
d="M63 764q-26 0 -44.5 18.5t-18.5 44.5q0 27 18.5 45.5t44.5 18.5q28 0 46.5 -18.5t18.5 -45.5q0 -26 -18.5 -44.5t-46.5 -18.5z" />
    <glyph glyph-name="gravecomb.case" horiz-adv-x="0" 
d="M228 743l-228 108v107h3l225 -114v-101z" />
    <glyph glyph-name="acutecomb.case" horiz-adv-x="0" 
d="M0 743v101l225 114h3v-107z" />
    <glyph glyph-name="uni030B.case" horiz-adv-x="0" 
d="M174 747l82 184h110l-108 -184h-84zM0 747l71 184h110l-96 -184h-85z" />
    <glyph glyph-name="uni0302.case" horiz-adv-x="0" 
d="M0 745v97l148 79l147 -79v-97l-147 83z" />
    <glyph glyph-name="uni030C.case" horiz-adv-x="0" 
d="M148 749l-148 80v96l148 -85l147 85v-96z" />
    <glyph glyph-name="uni0306.case" horiz-adv-x="0" 
d="M158 748q-49 0 -84.5 19t-54.5 53.5t-19 82.5v17h71q0 -34 19 -53t68 -19q48 0 67.5 19t19.5 53h71v-18q0 -47 -19.5 -82t-55 -53.5t-83.5 -18.5z" />
    <glyph glyph-name="uni030A.case" horiz-adv-x="0" 
d="M115 749q-47 0 -81 30.5t-34 83.5t34 83t81 30q48 0 82 -30t34 -83t-34 -83.5t-82 -30.5zM115 809q22 0 37 15t15 39q0 25 -15 39t-37 14q-21 0 -36 -14t-15 -39q0 -24 15 -39t36 -15z" />
    <glyph glyph-name="tildecomb.case" horiz-adv-x="0" 
d="M239 751q-29 0 -49.5 11.5t-37.5 23t-38 11.5q-16 0 -27.5 -11t-15.5 -34h-71q11 67 42.5 97.5t77.5 30.5q29 0 49 -11.5t37.5 -23t38.5 -11.5q17 0 28.5 11.5t14.5 33.5h71q-10 -66 -41.5 -97t-78.5 -31z" />
    <glyph glyph-name="uni0304.case" horiz-adv-x="0" 
d="M0 781v95h378v-95h-378z" />
    <glyph glyph-name="uni0327.case" horiz-adv-x="0" 
d="M0 -264v77h115q25 0 38 8.5t13 26.5t-13 26t-38 8h-62v125h84v-55q33 1 62.5 -10t48 -34.5t18.5 -61.5q0 -37 -18.5 -61.5t-48 -36.5t-64.5 -12h-135z" />
    <glyph glyph-name="uni0328.case" horiz-adv-x="0" 
d="M136 -211q-37 0 -68 11t-49.5 35t-18.5 60q0 27 13 52t44.5 49t86.5 47l45 20l30 -63l-51 -25q-36 -18 -51 -34t-15 -34t13.5 -29t37.5 -11q15 0 33.5 4t37.5 11v-79q-19 -7 -41.5 -10.5t-46.5 -3.5z" />
    </font>
</defs>
</svg>
