<?xml version="1.0" standalone="no"?>
<!DOCTYPE svg PUBLIC "-//W3C//DTD SVG 1.1//EN" "http://www.w3.org/Graphics/SVG/1.1/DTD/svg11.dtd" >
<svg xmlns="http://www.w3.org/2000/svg" xmlns:xlink="http://www.w3.org/1999/xlink" version="1.1">
<metadata>
Created by FontForge 20201107 at Wed Jun 14 12:00:55 2023
 By 
Copyright 2014 The DM Sans Project Authors (https://github.com/googlefonts/dm-fonts)
</metadata>
<defs>
<font id="DMSans24pt-Black" horiz-adv-x="0" >
  <font-face 
    font-family="DM Sans 24pt Black"
    font-weight="900"
    font-stretch="normal"
    units-per-em="1000"
    panose-1="0 0 0 0 0 0 0 0 0 0"
    ascent="800"
    descent="-200"
    x-height="496"
    cap-height="700"
    bbox="-58 -293 1267 986"
    underline-thickness="50"
    underline-position="-125"
    unicode-range="U+000D-FB02"
  />
<missing-glyph horiz-adv-x="531" 
d="M65 0v700h401v-700h-401zM135 57h261v586h-261v-586z" />
    <glyph glyph-name="fi" unicode="fi" horiz-adv-x="626" 
d="M84 0v371h-65v125h65v44q0 66 23 105.5t64 57t96 17.5h57v-127h-34q-30 0 -43 -12t-13 -40v-45h326v-496h-150v371h-176v-371h-150zM485 555q-39 0 -64.5 23.5t-25.5 58.5t25.5 58.5t64.5 23.5q42 0 67 -23.5t25 -58.5t-25 -58.5t-67 -23.5z" />
    <glyph glyph-name="fl" unicode="fl" horiz-adv-x="650" 
d="M84 0v540q0 66 23 105.5t64 57t96 17.5h57v-127h-34q-30 0 -43 -12t-13 -40v-541h-150zM19 371v125h314v-125h-314zM436 0v720h150v-720h-150z" />
    <glyph glyph-name=".notdef" horiz-adv-x="531" 
d="M65 0v700h401v-700h-401zM135 57h261v586h-261v-586z" />
    <glyph glyph-name=".null" 
 />
    <glyph glyph-name="nonmarkingreturn" horiz-adv-x="333" 
 />
    <glyph glyph-name="CR" unicode="&#xd;" horiz-adv-x="600" 
 />
    <glyph glyph-name="space" unicode=" " horiz-adv-x="225" 
 />
    <glyph glyph-name="exclam" unicode="!" horiz-adv-x="319" 
d="M96 235l-17 465h161l-17 -465h-127zM160 -5q-41 0 -66 24.5t-25 59.5q0 36 25 60.5t66 24.5q40 0 65.5 -24.5t25.5 -60.5q0 -35 -25.5 -59.5t-65.5 -24.5z" />
    <glyph glyph-name="quotedbl" unicode="&#x22;" horiz-adv-x="380" 
d="M227 540l-12 215h126l-12 -215h-102zM52 540l-13 215h126l-12 -215h-101z" />
    <glyph glyph-name="numbersign" unicode="#" horiz-adv-x="882" 
d="M456 0l156 732h141l-157 -732h-140zM137 0l157 732h140l-156 -732h-141zM26 164v135h761v-135h-761zM85 437v135h761v-135h-761z" />
    <glyph glyph-name="dollar" unicode="$" horiz-adv-x="607" 
d="M270 -87v879h65v-879h-65zM311 -12q-75 0 -135.5 25.5t-95.5 75.5t-38 123h160q1 -29 15 -51t38 -34.5t56 -12.5q27 0 47.5 8.5t32.5 25t12 41.5q0 27 -14.5 46t-39 32t-56.5 24t-68 23q-81 27 -125 72.5t-44 122.5q0 64 31.5 109.5t86.5 69.5t125 24q72 0 127 -24.5
t87 -71t34 -110.5h-161q-1 22 -12.5 40t-31 29t-45.5 11q-23 1 -41.5 -6.5t-30 -23t-11.5 -38.5q0 -22 11.5 -38.5t32 -28t48 -21.5t60.5 -20q53 -18 97.5 -42.5t72 -64t27.5 -104.5q0 -57 -29.5 -105t-85 -77t-137.5 -29z" />
    <glyph glyph-name="percent" unicode="%" horiz-adv-x="921" 
d="M192 0l389 700h145l-389 -700h-145zM704 -12q-50 0 -90.5 22t-64 63t-23.5 97q0 58 23.5 98.5t64 62.5t90.5 22t90 -22t63.5 -62.5t23.5 -98.5q0 -56 -23.5 -97t-63.5 -63t-90 -22zM703 89q18 0 32 9.5t22 27.5t8 44q0 28 -7.5 46t-21.5 27.5t-33 9.5q-18 0 -32 -9.5
t-22 -27.5t-8 -45t8 -45t22 -27.5t32 -9.5zM219 347q-50 0 -90.5 22t-64.5 63t-24 97q0 58 24 98.5t64.5 62.5t90.5 22t89.5 -22t63.5 -62.5t24 -98.5q0 -56 -24 -97t-63.5 -63t-89.5 -22zM218 448q18 0 32 9.5t22 27.5t8 44q0 28 -8 46t-22 27.5t-32 9.5t-32 -9.5
t-22 -27.5t-8 -46q0 -26 8 -44t22 -27.5t32 -9.5z" />
    <glyph glyph-name="ampersand" unicode="&#x26;" horiz-adv-x="791" 
d="M602 0l-386 378q-47 46 -65.5 83t-18.5 78q0 49 24.5 88t71 62t113.5 23t112.5 -24.5t68.5 -64.5t21 -89h-142q1 33 -17 48.5t-45 15.5q-29 0 -47 -15.5t-18 -42.5q0 -22 15 -46.5t44 -55.5l445 -438h-176zM297 -11q-79 0 -137.5 26.5t-90.5 75t-32 112.5q0 51 21 94.5
t64 77.5t107 54l59 19l64 -92l-52 -17q-60 -18 -89 -51t-29 -75q0 -28 15 -51.5t42 -37t64 -13.5q55 0 98 23.5t81 73.5q18 24 35.5 52.5t33.5 64.5l18 39h152l-30 -63q-26 -54 -52.5 -98.5t-56.5 -79.5q-58 -70 -127.5 -102t-157.5 -32z" />
    <glyph glyph-name="quotesingle" unicode="'" horiz-adv-x="206" 
d="M52 540l-13 215h127l-12 -215h-102z" />
    <glyph glyph-name="parenleft" unicode="(" horiz-adv-x="412" 
d="M234 -145q-56 58 -99 132.5t-67 162t-24 183.5q0 97 24 184t67 162t99 132h149v-14q-59 -65 -102.5 -140t-66.5 -157t-23 -167t23.5 -167t66.5 -157t102 -140v-14h-149z" />
    <glyph glyph-name="parenright" unicode=")" horiz-adv-x="412" 
d="M178 -145h-149v14q59 65 102.5 140t66.5 157t23 167t-23 167t-66.5 157t-102.5 140v14h149q56 -57 99 -132t67 -162t24 -184q0 -96 -24 -183.5t-67 -162t-99 -132.5z" />
    <glyph glyph-name="asterisk" unicode="*" horiz-adv-x="520" 
d="M210 360l21 136l-105 -89l-55 97l127 47l-126 45l51 92l109 -87l-23 137h107l-23 -137l109 87l50 -91l-127 -48l127 -46l-53 -95l-106 88l22 -136h-105z" />
    <glyph glyph-name="plus" unicode="+" horiz-adv-x="588" 
d="M231 58v462h126v-462h-126zM45 227v125h497v-125h-497z" />
    <glyph glyph-name="comma" unicode="," horiz-adv-x="258" 
d="M24 -123l56 263h143l-102 -263h-97z" />
    <glyph glyph-name="hyphen" unicode="-" horiz-adv-x="586" 
d="M78 227v125h430v-125h-430z" />
    <glyph glyph-name="period" unicode="." horiz-adv-x="262" 
d="M131 -5q-41 0 -66 24.5t-25 59.5q0 36 25 60.5t66 24.5t66 -24.5t25 -60.5q0 -35 -25 -59.5t-66 -24.5z" />
    <glyph glyph-name="slash" unicode="/" horiz-adv-x="436" 
d="M20 -119l250 903h145l-249 -903h-146z" />
    <glyph glyph-name="zero" unicode="0" horiz-adv-x="718" 
d="M360 -12q-99 0 -169.5 46t-108.5 127.5t-38 188.5t38 188.5t108 127.5t169 46t169 -46t108 -127.5t38 -188.5t-38 -188.5t-108 -127.5t-168 -46zM359 123q49 0 85.5 28t56.5 78.5t20 120.5t-20 120.5t-56.5 78t-85.5 27.5q-48 0 -85 -27.5t-57 -78t-20 -120.5t20 -120.5
t57 -78.5t85 -28z" />
    <glyph glyph-name="one" unicode="1" horiz-adv-x="366" 
d="M145 0v527l-117 -27v119l183 81h90v-700h-156z" />
    <glyph glyph-name="two" unicode="2" horiz-adv-x="571" 
d="M45 0v111q61 50 119.5 99t106 97.5t75 95t27.5 89.5q0 25 -9.5 46.5t-28.5 34t-49 12.5q-31 0 -53 -14t-33 -38.5t-11 -56.5h-145q3 80 36 133t88 78t122 25q77 0 129 -28.5t78 -76t26 -105.5q0 -46 -15.5 -88.5t-43.5 -82t-63 -76t-73.5 -70t-76.5 -63.5h286v-122h-492z
" />
    <glyph glyph-name="three" unicode="3" horiz-adv-x="601" 
d="M299 -12q-69 0 -126.5 25t-92 76.5t-36.5 131.5h146q1 -31 14 -55.5t37 -38.5t58 -14q32 0 54 12.5t34 33t12 47.5q0 32 -15.5 53.5t-43.5 33t-65 11.5h-52v123h52q43 0 74.5 20t31.5 62q0 36 -23 56.5t-60 20.5q-44 0 -68 -26.5t-27 -63.5h-145q3 68 33.5 116.5t84 74
t122.5 25.5q74 0 125.5 -26t78 -69.5t26.5 -94.5q0 -42 -16 -73.5t-41.5 -52t-54.5 -29.5q39 -7 67.5 -30t44.5 -58t16 -79q0 -58 -28.5 -106.5t-83 -77t-133.5 -28.5z" />
    <glyph glyph-name="four" unicode="4" horiz-adv-x="660" 
d="M386 0v120h-340v120l322 460h168v-450h88v-130h-88v-120h-150zM205 250h192v285v0z" />
    <glyph glyph-name="five" unicode="5" horiz-adv-x="624" 
d="M322 -12q-79 0 -135.5 27.5t-88 76t-36.5 109.5h147q7 -35 38 -60.5t75 -25.5q32 0 56.5 17t39 45.5t14.5 63.5q0 38 -14.5 64.5t-39 40.5t-55.5 14q-38 0 -67 -20t-40 -48h-144l60 408h397v-131h-287l-27 -137q21 22 56.5 35.5t79.5 13.5q58 0 100.5 -20t70 -54
t41 -76.5t13.5 -87.5q0 -57 -19 -104t-53 -80.5t-80.5 -52t-101.5 -18.5z" />
    <glyph glyph-name="six" unicode="6" horiz-adv-x="635" 
d="M334 -12q-81 0 -136.5 29.5t-88.5 79t-48 110t-15 122.5q0 118 33.5 203.5t96.5 132.5t152 47q76 0 127.5 -29.5t80 -76.5t32.5 -101h-139q-8 41 -34 63t-69 22q-39 0 -68 -24.5t-45.5 -72t-18.5 -119.5v-2.5v-2.5q16 26 42 45t58.5 29.5t66.5 10.5q57 0 107.5 -27.5
t81.5 -79t31 -121.5q0 -65 -31.5 -119.5t-87.5 -86.5t-128 -32zM325 116q33 0 58.5 13.5t40 37.5t14.5 54q0 33 -14.5 56.5t-40.5 37t-59 13.5t-58.5 -13.5t-40.5 -37.5t-15 -54q0 -31 15 -55t41 -38t59 -14z" />
    <glyph glyph-name="seven" unicode="7" horiz-adv-x="535" 
d="M96 0l257 572h-325v128h479v-105l-256 -595h-155z" />
    <glyph glyph-name="eight" unicode="8" horiz-adv-x="639" 
d="M319 -12q-73 0 -132.5 26t-95 73.5t-35.5 110.5q0 43 14 77.5t39.5 61t60.5 41.5q-43 22 -70 59.5t-27 86.5t27.5 92t82 69.5t136.5 26.5q83 0 137.5 -26.5t81.5 -69.5t27 -92q0 -47 -27.5 -86t-69.5 -60q36 -16 61.5 -42.5t39.5 -60.5t14 -77q0 -63 -35.5 -110.5
t-95 -73.5t-133.5 -26zM319 112q58 0 87.5 28.5t29.5 70.5q0 46 -30.5 73.5t-86.5 27.5q-55 0 -86 -27.5t-31 -73.5q0 -42 30 -70.5t87 -28.5zM319 420q48 0 73.5 24t25.5 61q0 40 -25.5 63t-73.5 23q-47 0 -72.5 -23t-25.5 -64q0 -37 25.5 -60.5t72.5 -23.5z" />
    <glyph glyph-name="nine" unicode="9" horiz-adv-x="635" 
d="M307 -12q-75 0 -127 29.5t-79.5 77t-33.5 100.5h140q8 -41 34 -63t68 -22q40 0 68.5 24t45 71.5t18.5 117.5v4v4q-15 -25 -41.5 -44.5t-58.5 -30t-66 -10.5q-57 0 -107.5 27.5t-82 79t-31.5 121.5q0 66 32 120t88 86t128 32q81 0 136 -29.5t88 -79t48 -110t15 -122.5
q0 -117 -33 -203t-96.5 -133t-152.5 -47zM312 372q32 0 57.5 13.5t41 37.5t15.5 54q0 31 -15.5 55.5t-41.5 38t-59 13.5t-58.5 -13.5t-40 -37t-14.5 -54.5q0 -32 14.5 -56t40.5 -37.5t60 -13.5z" />
    <glyph glyph-name="colon" unicode=":" horiz-adv-x="263" 
d="M131 -5q-41 0 -66 24.5t-25 59.5q0 36 25 60.5t66 24.5t66 -24.5t25 -60.5q0 -35 -25 -59.5t-66 -24.5zM131 342q-41 0 -66 24.5t-25 59.5q0 36 25 60.5t66 24.5t66 -24.5t25 -60.5q0 -35 -25 -59.5t-66 -24.5z" />
    <glyph glyph-name="semicolon" unicode=";" horiz-adv-x="287" 
d="M154 342q-41 0 -66 24.5t-25 59.5q0 36 25 60.5t66 24.5t66 -24.5t25 -60.5q0 -35 -25 -59.5t-66 -24.5zM29 -123l56 263h143l-102 -263h-97z" />
    <glyph glyph-name="less" unicode="&#x3c;" horiz-adv-x="588" 
d="M495 49h-189l-213 224v0l213 223h189l-214 -223z" />
    <glyph glyph-name="equal" unicode="=" horiz-adv-x="588" 
d="M75 338v132h438v-132h-438zM75 109v132h438v-132h-438z" />
    <glyph glyph-name="greater" unicode="&#x3e;" horiz-adv-x="588" 
d="M93 49l214 224l-214 223h189l213 -223v0l-213 -224h-189z" />
    <glyph glyph-name="question" unicode="?" horiz-adv-x="533" 
d="M130 229l-4 167h53q36 0 67.5 4.5t54.5 15.5t36 32t13 53q0 28 -11 47t-31 30t-46 11q-29 0 -49 -11t-31 -31t-11 -47h-142q-1 60 26 108t80 76t128 28q69 0 121 -24.5t82 -72t30 -115.5q0 -66 -29.5 -111t-81 -67.5t-119.5 -23.5l-3 -69h-133zM198 -5q-41 0 -66.5 24.5
t-25.5 59.5q0 36 25.5 60.5t66.5 24.5q40 0 65 -24.5t25 -60.5q0 -35 -25 -59.5t-65 -24.5z" />
    <glyph glyph-name="at" unicode="@" horiz-adv-x="1064" 
d="M449 -219q-113 0 -197.5 43.5t-131.5 122.5t-47 187q0 113 40.5 209t112 167.5t169 111t212.5 39.5q118 0 204.5 -44.5t132.5 -123t46 -182.5q0 -62 -15.5 -118.5t-46.5 -101t-76.5 -70.5t-104.5 -26q-72 0 -106 41t-24 109l3 32l21 -61q-25 -57 -76.5 -90t-115.5 -33
q-75 0 -117.5 45t-42.5 122q0 55 17.5 105t48.5 89.5t74 62.5t95 23q57 0 89.5 -27t38.5 -78l-20 -16l20 113h121l-45 -259q-6 -36 1.5 -58.5t38.5 -22.5q28 0 48 19.5t33 51t19.5 69.5t6.5 74q0 79 -33.5 136t-96.5 87.5t-153 30.5q-87 0 -160.5 -32t-128.5 -88.5t-85 -132
t-30 -162.5q0 -82 33 -141t95 -89.5t148 -30.5q47 0 92.5 9t82.5 26l24 -96q-48 -21 -102 -31.5t-112 -10.5zM497 102q33 0 59.5 18.5t43.5 49.5t18 70q1 27 -8 47.5t-27 32.5t-45 12q-26 0 -48 -12t-37.5 -32t-24 -46.5t-8.5 -55.5q0 -37 19.5 -60.5t57.5 -23.5z" />
    <glyph glyph-name="A" unicode="A" horiz-adv-x="720" 
d="M19 0l255 700h172l255 -700h-159l-183 531v0l-183 -531h-157zM131 153l39 116h368l38 -116h-445z" />
    <glyph glyph-name="B" unicode="B" horiz-adv-x="645" 
d="M65 0v700h299q72 0 122.5 -22.5t77 -63t26.5 -95.5q0 -53 -23 -89t-60.5 -55t-82.5 -23l16 12q49 -2 86 -26t58.5 -62.5t21.5 -84.5q0 -57 -27 -100t-79 -67t-126 -24h-309zM215 122h134q50 0 77.5 22.5t27.5 65.5t-28.5 67t-78.5 24h-132v-179zM215 412h123
q48 0 73.5 22t25.5 62t-25.5 62.5t-74.5 22.5h-122v-169z" />
    <glyph glyph-name="C" unicode="C" horiz-adv-x="746" 
d="M386 -12q-106 0 -183 45.5t-118 127t-41 187.5q0 108 41 189.5t118 128t183 46.5q130 0 213 -65t103 -183h-165q-12 53 -50.5 82.5t-101.5 29.5q-60 0 -102 -28t-64 -78.5t-22 -121.5q0 -69 22 -119.5t64 -78t102 -27.5q63 0 101.5 26.5t50.5 76.5h165
q-20 -111 -103 -174.5t-213 -63.5z" />
    <glyph glyph-name="D" unicode="D" horiz-adv-x="719" 
d="M65 0v700h252q121 0 201 -43.5t118.5 -122t38.5 -184.5q0 -105 -38.5 -183.5t-118 -122.5t-202.5 -44h-251zM215 129h92q82 0 129 26.5t66.5 76t19.5 118.5q0 70 -19.5 119.5t-66.5 76t-129 26.5h-92v-443z" />
    <glyph glyph-name="E" unicode="E" horiz-adv-x="585" 
d="M65 0v700h469v-121h-319v-165h289v-116h-289v-177h319v-121h-469z" />
    <glyph glyph-name="F" unicode="F" horiz-adv-x="559" 
d="M65 0v700h465v-121h-315v-170h248v-117h-248v-292h-150z" />
    <glyph glyph-name="G" unicode="G" horiz-adv-x="781" 
d="M374 -12q-99 0 -173.5 44.5t-115.5 124.5t-41 187q0 108 42.5 191t122.5 130t190 47q126 0 208 -60t107 -166h-167q-15 42 -52.5 65t-96.5 23q-65 0 -110 -28.5t-68 -80t-23 -121.5q0 -72 23 -122t66.5 -75.5t104.5 -25.5q86 0 130.5 45t54.5 113h-164v112h314v-391h-138
l-12 81v0q-21 -30 -49.5 -51t-66 -31.5t-86.5 -10.5z" />
    <glyph glyph-name="H" unicode="H" horiz-adv-x="719" 
d="M504 0v700h150v-700h-150zM65 0v700h150v-700h-150zM196 297v121h332v-121h-332z" />
    <glyph glyph-name="I" unicode="I" horiz-adv-x="280" 
d="M65 0v700h150v-700h-150z" />
    <glyph glyph-name="J" unicode="J" horiz-adv-x="548" 
d="M261 -12q-70 0 -123 26.5t-82.5 78.5t-29.5 127h150q0 -31 9 -53t27 -33.5t45 -11.5q26 0 43 10.5t25 30.5t8 48v489h150v-489q0 -109 -60.5 -166t-161.5 -57z" />
    <glyph glyph-name="K" unicode="K" horiz-adv-x="669" 
d="M65 0v700h150v-265l242 265h184l-257 -277l266 -423h-184l-189 307l-62 -67v-240h-150z" />
    <glyph glyph-name="L" unicode="L" horiz-adv-x="564" 
d="M65 0v700h150v-584h302v-116h-452z" />
    <glyph glyph-name="M" unicode="M" horiz-adv-x="902" 
d="M65 0v700h180l208 -420v0l205 420h179v-700h-150v448v0l-176 -348h-120l-176 349v0v-449h-150z" />
    <glyph glyph-name="N" unicode="N" horiz-adv-x="737" 
d="M65 0v700h150l307 -459v0v459h150v-700h-150l-307 458v0v-458h-150z" />
    <glyph glyph-name="O" unicode="O" horiz-adv-x="795" 
d="M397 -12q-104 0 -183.5 46t-124.5 127.5t-45 188.5t45 188.5t124.5 127.5t183.5 46q105 0 185 -46t124.5 -127.5t44.5 -188.5t-44.5 -188.5t-124.5 -127.5t-185 -46zM397 123q62 0 107 28t69.5 78.5t24.5 120.5t-24.5 120.5t-69.5 78t-107 27.5q-61 0 -106 -27.5
t-69.5 -78t-24.5 -120.5t24.5 -120.5t69.5 -78.5t106 -28z" />
    <glyph glyph-name="P" unicode="P" horiz-adv-x="621" 
d="M65 0v700h273q85 0 141.5 -29t84.5 -78.5t28 -113.5q0 -57 -26.5 -107t-83 -81t-144.5 -31h-123v-260h-150zM215 380h113q59 0 85 27t26 72q0 47 -26 73t-85 26h-113v-198z" />
    <glyph glyph-name="Q" unicode="Q" horiz-adv-x="795" 
d="M556 -114l-260 410h172l268 -410h-180zM397 -12q-104 0 -183.5 46t-124.5 127.5t-45 188.5t45 188.5t124.5 127.5t183.5 46q105 0 185 -46t124.5 -127.5t44.5 -188.5t-44.5 -188.5t-124.5 -127.5t-185 -46zM397 123q62 0 107 28t69.5 78.5t24.5 120.5t-24.5 120.5
t-69.5 78t-107 27.5q-61 0 -106 -27.5t-69.5 -78t-24.5 -120.5t24.5 -120.5t69.5 -78.5t106 -28z" />
    <glyph glyph-name="R" unicode="R" horiz-adv-x="638" 
d="M65 0v700h272q85 0 141.5 -29.5t84 -78.5t27.5 -109q0 -56 -26.5 -105t-82.5 -79t-145 -30h-121v-269h-150zM426 0l-141 306h161l150 -306h-170zM215 377h113q56 0 82.5 27t26.5 73q0 45 -26.5 71.5t-82.5 26.5h-113v-198z" />
    <glyph glyph-name="S" unicode="S" horiz-adv-x="607" 
d="M311 -12q-75 0 -135.5 25.5t-95.5 75.5t-38 123h160q1 -29 15 -51t38 -34.5t56 -12.5q27 0 47.5 8.5t32.5 25t12 41.5q0 27 -14.5 46t-39 32t-56.5 24t-68 23q-81 27 -125 72.5t-44 122.5q0 64 31.5 109.5t86.5 69.5t125 24q72 0 127 -24.5t87 -71t34 -110.5h-161
q-1 22 -12.5 40t-31 29t-45.5 11q-23 1 -41.5 -6.5t-30 -23t-11.5 -38.5q0 -22 11.5 -38.5t32 -28t48 -21.5t60.5 -20q53 -18 97.5 -42.5t72 -64t27.5 -104.5q0 -57 -29.5 -105t-85 -77t-137.5 -29z" />
    <glyph glyph-name="T" unicode="T" horiz-adv-x="606" 
d="M228 0v579h-203v121h556v-121h-203v-579h-150z" />
    <glyph glyph-name="U" unicode="U" horiz-adv-x="693" 
d="M344 -12q-79 0 -143.5 31.5t-102 94.5t-37.5 159v427h150v-428q0 -47 16 -80t46.5 -49.5t72.5 -16.5q44 0 74.5 16.5t46.5 49.5t16 80v428h150v-427q0 -96 -39.5 -159t-105 -94.5t-144.5 -31.5z" />
    <glyph glyph-name="V" unicode="V" horiz-adv-x="715" 
d="M265 0l-253 700h160l186 -548v0l186 548h159l-252 -700h-186z" />
    <glyph glyph-name="W" unicode="W" horiz-adv-x="1031" 
d="M206 0l-182 700h161l113 -532v0l136 532h166l131 -531v0l114 531h161l-186 -700h-180l-125 489v0l-129 -489h-180z" />
    <glyph glyph-name="X" unicode="X" horiz-adv-x="688" 
d="M31 0l223 355l-227 345h174l149 -227v0l133 227h170l-221 -352l228 -348h-174l-150 231v0l-135 -231h-170z" />
    <glyph glyph-name="Y" unicode="Y" horiz-adv-x="649" 
d="M250 0v240l-239 460h170l163 -346h-37l163 346h168l-238 -460v-240h-150z" />
    <glyph glyph-name="Z" unicode="Z" horiz-adv-x="581" 
d="M49 0v115l310 461h-309v124h482v-115l-313 -461h314v-124h-484z" />
    <glyph glyph-name="bracketleft" unicode="[" horiz-adv-x="387" 
d="M65 -180v991h269v-121h-129v-747h129v-123h-269z" />
    <glyph glyph-name="backslash" unicode="\" horiz-adv-x="436" 
d="M415 -119h-145l-250 903h146z" />
    <glyph glyph-name="bracketright" unicode="]" horiz-adv-x="387" 
d="M322 -180h-270v123h129v747h-129v121h270v-991z" />
    <glyph glyph-name="asciicircum" unicode="^" horiz-adv-x="688" 
d="M32 165l240 535h145l239 -535h-151l-161 360v0l-161 -360h-151z" />
    <glyph glyph-name="underscore" unicode="_" horiz-adv-x="753" 
d="M78 -183v143h597v-143h-597z" />
    <glyph glyph-name="grave" unicode="`" horiz-adv-x="234" 
d="M234 539l-234 105v118v0l234 -118v-105z" />
    <glyph glyph-name="a" unicode="a" horiz-adv-x="594" 
d="M236 -12q-63 0 -104.5 20t-61.5 53.5t-20 74.5q0 45 23 79.5t70.5 54.5t122.5 20h122q0 33 -9 54.5t-28.5 32t-51.5 10.5q-35 0 -60.5 -15t-31.5 -46h-144q5 55 36 95.5t83 63.5t118 23q72 0 125.5 -23t83 -68.5t29.5 -111.5v-305h-125l-18 73v0q-11 -19 -26 -34.5
t-35 -27t-44 -17.5t-54 -6zM274 102q24 0 42.5 8t31.5 21.5t21 31.5t12 39v0h-97q-26 0 -42.5 -6.5t-24.5 -18t-8 -27.5t8 -26.5t23 -16t34 -5.5z" />
    <glyph glyph-name="b" unicode="b" horiz-adv-x="664" 
d="M371 -12q-36 0 -65 8.5t-52 25t-40 38.5v0l-17 -60h-133v720h150v-289q23 31 60.5 54t96.5 23q69 0 123.5 -34t87 -93t32.5 -134q0 -74 -32.5 -133t-87 -92.5t-123.5 -33.5zM335 119q37 0 65.5 16.5t45 45.5t16.5 67q0 36 -16.5 65.5t-45 46.5t-65.5 17t-66 -17t-45 -46
t-16 -66t16 -66.5t45 -46t66 -16.5z" />
    <glyph glyph-name="c" unicode="c" horiz-adv-x="615" 
d="M314 -12q-78 0 -137.5 33.5t-93 92t-33.5 134.5t33.5 134t93 92t137.5 34q98 0 165.5 -51.5t85.5 -142.5h-159q-9 31 -34 48.5t-59 17.5q-32 0 -57 -16t-39.5 -46t-14.5 -70q0 -30 8.5 -54t23 -41.5t35 -27t44.5 -9.5q23 0 41.5 7.5t32 22.5t19.5 36h159
q-18 -89 -85.5 -141.5t-165.5 -52.5z" />
    <glyph glyph-name="d" unicode="d" horiz-adv-x="664" 
d="M292 -12q-67 0 -122.5 34t-87.5 93.5t-32 133.5q0 75 32 133.5t87.5 92t123.5 33.5q53 0 92.5 -19t64.5 -53v284h150v-720h-133l-17 65v0q-15 -21 -36.5 -38.5t-51.5 -28t-70 -10.5zM329 119q37 0 65.5 17t45 46.5t16.5 65.5q0 38 -16.5 67t-45 45.5t-66.5 16.5
q-35 0 -64 -16.5t-45.5 -46t-16.5 -65.5q0 -37 16.5 -66.5t45.5 -46.5t65 -17z" />
    <glyph glyph-name="e" unicode="e" horiz-adv-x="612" 
d="M313 -12q-78 0 -137.5 32t-92.5 89.5t-33 132.5q0 77 32.5 137t92 94.5t138.5 34.5q74 0 132 -32t91 -88t33 -129q0 -10 -0.5 -22.5t-2.5 -25.5h-410v88h260q-3 39 -31.5 64t-70.5 25q-32 0 -59 -14.5t-42 -44t-15 -74.5v-29q0 -34 13.5 -60.5t39.5 -41t61 -14.5
q32 0 54 14t34 36h154q-15 -48 -49 -87t-83 -62t-109 -23z" />
    <glyph glyph-name="f" unicode="f" horiz-adv-x="372" 
d="M84 0v540q0 66 23 105.5t64 57t96 17.5h57v-127h-34q-30 0 -43 -12t-13 -40v-541h-150zM19 371v125h314v-125h-314z" />
    <glyph glyph-name="g" unicode="g" horiz-adv-x="609" 
d="M286 -232q-73 0 -126.5 17.5t-83 52.5t-29.5 88q0 38 20.5 70t58.5 57.5t91 43.5l48 -77q-43 -13 -64 -33.5t-21 -45.5q0 -21 14.5 -34.5t38.5 -20.5t53 -7q27 0 48 7t33 20.5t12 31.5q0 25 -16.5 39.5t-67.5 18.5q-48 4 -87 12t-69.5 18.5t-52.5 23.5t-34 26v23l110 122
l101 -32l-131 -135l46 74q10 -6 21 -11t26.5 -9t39 -7.5t59.5 -6.5q65 -6 107.5 -25t63 -51t20.5 -77t-24.5 -84.5t-75.5 -64t-129 -24.5zM287 144q-63 0 -109 24.5t-71 65.5t-25 92q0 50 25 91t71 66t109 25t109 -25t70.5 -66t24.5 -91q0 -51 -24.5 -92t-70.5 -65.5
t-109 -24.5zM287 257q33 0 55 17.5t22 50.5t-22 50.5t-55 17.5q-34 0 -56 -17.5t-22 -50.5t22 -50.5t56 -17.5zM369 394l-22 102h209v-85z" />
    <glyph glyph-name="h" unicode="h" horiz-adv-x="626" 
d="M64 0v720h150v-295v0q24 37 65 60t97 23q63 0 106 -27.5t65 -79.5t22 -126v-275h-149v261q0 58 -22.5 89.5t-74.5 31.5q-31 0 -56 -15t-39 -43.5t-14 -68.5v-255h-150z" />
    <glyph glyph-name="i" unicode="i" horiz-adv-x="281" 
d="M66 0v496h150v-496h-150zM141 557q-40 0 -65 23t-25 58q0 36 25 59t65 23q41 0 66.5 -23t25.5 -59q0 -35 -25.5 -58t-66.5 -23z" />
    <glyph glyph-name="j" unicode="j" horiz-adv-x="281" 
d="M-30 -220v127h41q30 0 43 12.5t13 39.5v537h150v-536q0 -66 -23 -105.5t-64 -57t-97 -17.5h-63zM142 557q-40 0 -65 23t-25 58q0 36 25 59t66 23q40 0 65 -23t25 -59q0 -35 -25 -58t-66 -23z" />
    <glyph glyph-name="k" unicode="k" horiz-adv-x="600" 
d="M401 0l-209 273l184 223h176l-247 -287l-1 121l283 -330h-186zM64 0v720h150v-720h-150z" />
    <glyph glyph-name="l" unicode="l" horiz-adv-x="277" 
d="M64 0v720h150v-720h-150z" />
    <glyph glyph-name="m" unicode="m" horiz-adv-x="957" 
d="M64 0v496h131l13 -65v0q24 35 63 56t92 21q38 0 68 -9.5t53.5 -28t39.5 -46.5v0q29 39 74 61.5t99 22.5q68 0 113 -27.5t68 -79.5t23 -126v-275h-149v261q0 58 -22 89.5t-69 31.5q-32 0 -55.5 -15.5t-36 -43.5t-12.5 -68v-255h-149v261q0 58 -22 89.5t-72 31.5
q-29 0 -52 -15t-35.5 -43.5t-12.5 -68.5v-255h-150z" />
    <glyph glyph-name="n" unicode="n" horiz-adv-x="626" 
d="M64 0v496h131l12 -81v0q23 41 65.5 67t102.5 26q63 0 106 -27.5t65.5 -79t22.5 -126.5v-275h-149v261q0 58 -22.5 89.5t-75.5 31.5q-31 0 -56 -15t-38.5 -43.5t-13.5 -68.5v-255h-150z" />
    <glyph glyph-name="o" unicode="o" horiz-adv-x="613" 
d="M306 -12q-72 0 -130 33.5t-92 92.5t-34 134q0 76 34 135t92 92t130 33q73 0 131.5 -33t92.5 -92t34 -135t-34.5 -134.5t-92.5 -92t-131 -33.5zM306 118q30 0 53 14.5t37.5 43.5t14.5 72t-14 72t-37.5 43.5t-52.5 14.5q-28 0 -52 -14.5t-38.5 -43.5t-14.5 -72t14.5 -72
t38 -43.5t51.5 -14.5z" />
    <glyph glyph-name="p" unicode="p" horiz-adv-x="664" 
d="M64 -220v716h133l17 -65v0q16 21 37 38.5t51 28t69 10.5q69 0 123.5 -34t87 -93t32.5 -134q0 -74 -32.5 -133t-87 -92.5t-123.5 -33.5q-53 0 -92 19t-65 53v-280h-150zM335 119q37 0 65.5 16.5t45 45.5t16.5 66t-16.5 66.5t-45 46.5t-65.5 17t-66 -17t-45 -46t-16 -66
t16 -66.5t45 -46t66 -16.5z" />
    <glyph glyph-name="q" unicode="q" horiz-adv-x="664" 
d="M450 -220v285q-23 -31 -60.5 -54t-97.5 -23q-67 0 -122.5 34t-87.5 93.5t-32 133.5q0 75 32 133.5t87.5 92t123.5 33.5q35 0 64.5 -8.5t52.5 -24.5t40 -39v0l17 60h133v-716h-150zM329 119q37 0 65.5 17t45 46.5t16.5 65.5q0 38 -16.5 67t-45 45.5t-66.5 16.5
q-35 0 -64 -16.5t-45.5 -46t-16.5 -65.5q0 -37 16.5 -66.5t45.5 -46.5t65 -17z" />
    <glyph glyph-name="r" unicode="r" horiz-adv-x="412" 
d="M64 0v496h133l14 -92v0q19 32 45.5 55t60.5 36t74 13v-159h-41q-31 0 -56 -6.5t-43 -21.5t-27.5 -41.5t-9.5 -65.5v-214h-150z" />
    <glyph glyph-name="s" unicode="s" horiz-adv-x="537" 
d="M275 -12q-68 0 -120 22.5t-83 61t-35 87.5h149q4 -16 15.5 -29.5t29.5 -21t41 -7.5q25 0 40 6.5t22.5 17t7.5 21.5q0 18 -11.5 27t-33.5 15.5t-52 13.5q-33 9 -67.5 19t-63 25.5t-46 40t-17.5 61.5q0 44 25 80.5t72 58t113 21.5q93 0 147 -41.5t64 -113.5h-140
q-6 20 -24.5 31t-46.5 11q-32 0 -48.5 -11.5t-16.5 -26.5q0 -13 12.5 -22t35 -15.5t51.5 -13.5q56 -13 100 -28t70 -43t26 -81q1 -47 -25.5 -84.5t-75 -59.5t-115.5 -22z" />
    <glyph glyph-name="t" unicode="t" horiz-adv-x="438" 
d="M297 0q-55 0 -96.5 17.5t-65 57.5t-23.5 109v187h-84v125h84l16 139h134v-139h128v-125h-128v-189q0 -30 14 -42.5t46 -12.5h67v-127h-92z" />
    <glyph glyph-name="u" unicode="u" horiz-adv-x="626" 
d="M251 -12q-63 0 -106.5 27t-66 79t-22.5 127v275h150v-261q0 -58 22.5 -89.5t74.5 -31.5q32 0 57 15t38.5 43.5t13.5 67.5v256h150v-496h-131l-12 81v0q-23 -41 -65.5 -67t-102.5 -26z" />
    <glyph glyph-name="v" unicode="v" horiz-adv-x="570" 
d="M193 0l-180 496h158l114 -355v0l115 355h156l-179 -496h-184z" />
    <glyph glyph-name="w" unicode="w" horiz-adv-x="827" 
d="M159 0l-146 496h148l95 -415l-37 1l112 414h165l111 -414l-37 -1l95 415h148l-145 -496h-156l-119 425h41l-119 -425h-156z" />
    <glyph glyph-name="x" unicode="x" horiz-adv-x="593" 
d="M17 0l185 248l-185 248h161l119 -162v0l118 162h161l-185 -248l185 -248h-161l-118 162v0l-119 -162h-161z" />
    <glyph glyph-name="y" unicode="y" horiz-adv-x="617" 
d="M129 -220l124 276h-30l-205 440h164l140 -300v0l116 300h161l-311 -716h-159z" />
    <glyph glyph-name="z" unicode="z" horiz-adv-x="492" 
d="M31 0v120l243 252h-240v124h411v-120l-246 -252h251v-124h-419z" />
    <glyph glyph-name="braceleft" unicode="{" horiz-adv-x="481" 
d="M347 -184q-81 0 -131 44.5t-50 129.5q0 33 5 61t10.5 56.5t5.5 61.5q0 22 -10 40.5t-30.5 30t-56.5 14.5v120q36 4 56.5 14.5t30.5 29t10 41.5q0 33 -5.5 61t-10.5 56.5t-5 61.5q0 85 50 129t131 44h68v-124h-39q-34 0 -50 -15t-16 -48q0 -24 4.5 -50t9 -55.5t4.5 -65.5
q0 -52 -25.5 -89t-82.5 -49v-2q57 -11 82.5 -48t25.5 -91q0 -36 -4.5 -65.5t-9 -55t-4.5 -49.5q0 -32 16 -48t50 -16h39v-124h-68z" />
    <glyph glyph-name="bar" unicode="|" horiz-adv-x="280" 
d="M65 -100v820h150v-820h-150z" />
    <glyph glyph-name="braceright" unicode="}" horiz-adv-x="481" 
d="M134 -184h-68v124h39q34 0 50 16t16 48q0 24 -4 49.5t-9 55t-5 65.5q0 54 26 91t82 48v2q-56 12 -82 49t-26 89q0 36 5 65.5t9 55.5t4 50q0 33 -16 48t-50 15h-39v124h68q81 0 131 -44t50 -129q0 -33 -5 -61.5t-10.5 -56.5t-5.5 -61q0 -23 10 -41.5t31 -29t56 -14.5v-120
q-35 -3 -56 -14.5t-31 -30t-10 -40.5q0 -33 5.5 -61.5t10.5 -56.5t5 -61q0 -85 -50 -129.5t-131 -44.5z" />
    <glyph glyph-name="asciitilde" unicode="~" horiz-adv-x="588" 
d="M382 218q-32 0 -57 10t-46 23t-41.5 23t-42.5 10q-25 0 -42 -16.5t-22 -49.5h-110q12 70 37.5 114t63 64.5t82.5 20.5q32 0 57 -10t46.5 -23t41.5 -23t42 -10q26 0 43 16.5t21 49.5h111q-10 -70 -36 -114t-63.5 -64.5t-84.5 -20.5z" />
    <glyph glyph-name="uni00A0" unicode="&#xa0;" horiz-adv-x="225" 
 />
    <glyph glyph-name="exclamdown" unicode="&#xa1;" horiz-adv-x="319" 
d="M96 268h127l17 -465h-161zM160 508q40 0 65.5 -24.5t25.5 -59.5q0 -36 -25.5 -60.5t-65.5 -24.5q-41 0 -66 24.5t-25 60.5q0 35 25 59.5t66 24.5z" />
    <glyph glyph-name="cent" unicode="&#xa2;" horiz-adv-x="615" 
d="M243 -104v180h136v-180h-136zM243 420v180h136v-180h-136zM314 -12q-78 0 -137.5 33.5t-93 92t-33.5 134.5t33.5 134t93 92t137.5 34q98 0 165.5 -51.5t85.5 -142.5h-159q-9 31 -34 48.5t-59 17.5q-32 0 -57 -16t-39.5 -46t-14.5 -70q0 -30 8.5 -54t23 -41.5t35 -27
t44.5 -9.5q23 0 41.5 7.5t32 22.5t19.5 36h159q-18 -89 -85.5 -141.5t-165.5 -52.5z" />
    <glyph glyph-name="sterling" unicode="&#xa3;" horiz-adv-x="632" 
d="M71 0v86q27 25 44.5 52t26.5 59.5t9 76.5q0 25 -7.5 50.5t-17.5 53t-17.5 57t-7.5 61.5q0 68 30 116t83 74t121 26q79 0 130.5 -30t78.5 -80t29 -112h-138q-1 43 -25 71t-72 28q-26 0 -47.5 -11t-34.5 -33t-13 -54q0 -22 7.5 -48t17.5 -53.5t17.5 -57t7.5 -58.5
q0 -38 -15 -79.5t-53 -75.5h352v-119h-506zM38 293v101h413v-101h-413z" />
    <glyph glyph-name="currency" unicode="&#xa4;" horiz-adv-x="566" 
d="M283 117q-58 0 -103 22.5t-70.5 63t-25.5 95.5t26 95.5t71.5 62t102.5 21.5q59 0 104 -21.5t70.5 -62t25.5 -95.5t-26 -95.5t-71 -63t-104 -22.5zM120 75l-59 60l95 95l72 -47zM446 75l-94 95l62 56l91 -91zM284 209q19 0 37.5 9t30 28.5t11.5 50.5q0 32 -11.5 51.5
t-29.5 28.5t-39 9q-20 0 -37.5 -9t-29 -28.5t-11.5 -51.5q0 -31 11 -50.5t29 -28.5t39 -9zM153 371l-92 91l59 60l101 -100zM403 361l-57 61l100 100l59 -60z" />
    <glyph glyph-name="yen" unicode="&#xa5;" horiz-adv-x="662" 
d="M56 142v101h550v-101h-550zM286 312h-230v102h227zM411 312l2 102h193v-102h-195zM256 0v240l-239 460h170l164 -346h-37l162 346h168l-238 -460v-240h-150z" />
    <glyph glyph-name="brokenbar" unicode="&#xa6;" horiz-adv-x="280" 
d="M65 397v323h150v-323h-150zM65 -100v323h150v-323h-150z" />
    <glyph glyph-name="section" unicode="&#xa7;" horiz-adv-x="622" 
d="M307 -232q-72 0 -127 24.5t-87 71t-35 110.5h161q2 -22 13 -40t30.5 -28.5t45.5 -11.5q35 -1 59 16.5t24 51.5q0 23 -11.5 37.5t-32 24.5t-48 19t-60.5 19q-52 18 -97 44t-72.5 66.5t-27.5 100.5q0 40 14 75.5t42 63.5q-13 20 -20 43.5t-7 53.5q0 64 31.5 109.5
t86.5 69.5t125 24q72 0 127 -24.5t87 -71t34 -110.5h-161q-1 22 -12.5 40t-31 29t-45.5 11q-35 1 -59 -16.5t-24 -51.5q0 -22 11.5 -37t32.5 -25t48.5 -19t59.5 -20q53 -17 98 -43t72 -66t27 -101q0 -39 -14 -75t-42 -64q14 -19 20.5 -43t6.5 -53q0 -64 -31.5 -110
t-86.5 -70t-124 -24zM401 149q8 9 12.5 21t4.5 27q0 21 -10 37.5t-29.5 29t-47 24.5t-62.5 24q-16 5 -28 10t-22 9q-8 -9 -12.5 -21t-4.5 -27q0 -16 6.5 -29t19 -24.5t30.5 -21.5t41 -19.5t51 -20.5q13 -4 26 -9t25 -10z" />
    <glyph glyph-name="dieresis" unicode="&#xa8;" horiz-adv-x="356" 
d="M273 561q-28 0 -47.5 19.5t-19.5 48.5t19.5 48.5t47.5 19.5q29 0 48.5 -19.5t19.5 -48.5t-19.5 -48.5t-48.5 -19.5zM83 561q-29 0 -48.5 19.5t-19.5 48.5t19.5 48.5t48.5 19.5t48.5 -19.5t19.5 -48.5t-19.5 -48.5t-48.5 -19.5z" />
    <glyph glyph-name="copyright" unicode="&#xa9;" horiz-adv-x="783" 
d="M392 -6q-104 0 -183 45.5t-123.5 127t-44.5 185.5q0 106 44.5 186.5t123.5 126t183 45.5t182.5 -45.5t123 -126t44.5 -186.5q0 -104 -44.5 -185.5t-123 -127t-182.5 -45.5zM392 126q-62 0 -112.5 27.5t-79 78.5t-28.5 121q0 69 28.5 120t79 78.5t112.5 27.5
q79 0 135.5 -42.5t72.5 -118.5h-130q-8 27 -29.5 43t-52.5 16q-27 0 -48 -13.5t-33.5 -41.5t-12.5 -70q0 -41 12.5 -68.5t33.5 -41.5t48 -14q34 0 53.5 16t28.5 43h130q-16 -73 -72.5 -117t-135.5 -44zM391 45q92 0 158 39t102 108t36 160q0 94 -36 162.5t-102 106.5
t-158 38q-90 0 -156.5 -38t-102.5 -106.5t-36 -162.5q0 -91 36 -160.5t102.5 -108t156.5 -38.5z" />
    <glyph glyph-name="ordfeminine" unicode="&#xaa;" horiz-adv-x="509" 
d="M219 349q-48 0 -86 22t-60.5 62.5t-22.5 96.5q0 55 22 95.5t60 63t84 22.5q45 0 75 -15.5t47 -40.5l10 50h104v-351h-105l-9 48v0q-16 -24 -46 -38.5t-73 -14.5zM252 438q24 0 43.5 10.5t31 31t11.5 50.5q0 44 -25 67t-60 23q-34 0 -59.5 -23.5t-25.5 -67.5t25.5 -67.5
t58.5 -23.5z" />
    <glyph glyph-name="guillemotleft" unicode="&#xab;" horiz-adv-x="532" 
d="M342 120l-87 175l87 175h140l-90 -175l90 -175h-140zM128 120l-87 175l87 175h140l-90 -175l90 -175h-140z" />
    <glyph glyph-name="logicalnot" unicode="&#xac;" horiz-adv-x="588" 
d="M446 190v135h-454v115h604v-250h-150z" />
    <glyph glyph-name="registered" unicode="&#xae;" horiz-adv-x="512" 
d="M256 287q-62 0 -110.5 27.5t-76 75t-27.5 109.5q0 63 27.5 110.5t76 75t110.5 27.5q63 0 110.5 -27.5t75 -75t27.5 -110.5q0 -62 -27.5 -109.5t-75 -75t-110.5 -27.5zM286 395l-53 96h69l60 -96h-76zM256 338q48 0 83.5 20t55.5 57t20 84q0 48 -20 84.5t-55.5 57
t-83.5 20.5t-84 -20.5t-55.5 -57t-19.5 -84.5q0 -47 19.5 -84t55.5 -57t84 -20zM168 395v213h107q35 0 55.5 -18t20.5 -50q0 -31 -20.5 -49.5t-55.5 -18.5h-41v-77h-66zM233 518h32q8 0 13.5 4t5.5 14q0 9 -5.5 12.5t-13.5 3.5h-32v-34z" />
    <glyph glyph-name="macron" unicode="&#xaf;" horiz-adv-x="413" 
d="M13 572v105h387v-105h-387z" />
    <glyph glyph-name="degree" unicode="&#xb0;" horiz-adv-x="369" 
d="M184 417q-39 0 -73 18t-54 51t-20 77q0 46 20.5 79.5t54.5 51.5t73 18q40 0 73 -18t53.5 -51.5t20.5 -79.5q0 -44 -20.5 -77t-54 -51t-73.5 -18zM184 508q19 0 35.5 14t16.5 43q0 28 -16 41.5t-35 13.5t-36 -13.5t-17 -41.5t16.5 -42.5t35.5 -14.5z" />
    <glyph glyph-name="plusminus" unicode="&#xb1;" horiz-adv-x="588" 
d="M43 0v115h502v-115h-502zM231 182v366h126v-366h-126zM43 302v125h502v-125h-502z" />
    <glyph glyph-name="uni00B2" unicode="&#xb2;" horiz-adv-x="370" 
d="M38 352v84l120 79q28 19 43.5 38.5t15.5 41.5q0 17 -9.5 26.5t-23.5 9.5q-16 0 -25 -11t-12 -31h-113q4 54 45 89t116 35q49 0 80 -16t46.5 -41t15.5 -53q0 -38 -27 -66t-86 -59l-66 -37h176v-89h-296z" />
    <glyph glyph-name="uni00B3" unicode="&#xb3;" horiz-adv-x="363" 
d="M182 348q-81 0 -120.5 32t-43.5 86h117q1 -13 6.5 -21.5t14.5 -12t20 -3.5q18 0 28.5 9.5t10.5 27.5q0 20 -12.5 30t-33.5 10h-37v52h32q22 0 34 9.5t12 28.5q0 17 -10 26t-29 9q-17 0 -27 -8.5t-13 -25.5h-108q2 31 19 57.5t52 42.5t89 16q66 0 107 -29.5t41 -74.5
q0 -31 -18 -50.5t-49 -26.5v-3q34 -9 53 -29t19 -52q0 -45 -42 -72.5t-112 -27.5z" />
    <glyph glyph-name="acute" unicode="&#xb4;" horiz-adv-x="234" 
d="M0 539v105l234 118v0v-118z" />
    <glyph glyph-name="uni00B5" unicode="&#xb5;" horiz-adv-x="634" 
d="M64 -220v716h150v-261q0 -58 22.5 -89.5t74.5 -31.5q33 0 57.5 15t38 43.5t13.5 68.5v255h150v-496h-131l-12 81v0q-23 -41 -65.5 -67t-102.5 -26q-13 0 -24 2t-21 6v-216h-150z" />
    <glyph glyph-name="paragraph" unicode="&#xb6;" horiz-adv-x="668" 
d="M287 -100v377h-20q-84 0 -136.5 29.5t-77 77.5t-24.5 104t25 104.5t77.5 78t135.5 29.5h336v-800h-125v685h-67v-685h-124z" />
    <glyph glyph-name="periodcentered" unicode="&#xb7;" horiz-adv-x="262" 
d="M131 237q-41 0 -66 24.5t-25 59.5q0 36 25 60.5t66 24.5t66 -24.5t25 -60.5q0 -35 -25 -59.5t-66 -24.5z" />
    <glyph glyph-name="cedilla" unicode="&#xb8;" horiz-adv-x="277" 
d="M0 -265v84h122q22 0 34 7t12 24q0 16 -12 23t-34 7h-66v127h92v-50q31 0 61 -11t49 -35t19 -64q0 -39 -19 -63.5t-49.5 -36.5t-65.5 -12h-143z" />
    <glyph glyph-name="uni00B9" unicode="&#xb9;" horiz-adv-x="247" 
d="M93 352v246l-71 -15v70l122 51h63v-352h-114z" />
    <glyph glyph-name="ordmasculine" unicode="&#xba;" horiz-adv-x="497" 
d="M247 350q-59 0 -103 23t-69 64t-25 95q0 53 25 93.5t70 63.5t103 23q60 0 104.5 -23t69.5 -63.5t25 -93.5q0 -54 -25.5 -95t-70 -64t-104.5 -23zM247 439q22 0 41 10t31 30.5t12 51.5t-11.5 51.5t-30.5 31t-42 10.5q-21 0 -39.5 -10.5t-30 -31t-11.5 -51.5t11 -51.5
t30 -30.5t40 -10z" />
    <glyph glyph-name="guillemotright" unicode="&#xbb;" horiz-adv-x="532" 
d="M190 120h-140l90 175l-90 175h140l87 -175zM404 120h-140l90 175l-90 175h140l87 -175z" />
    <glyph glyph-name="onequarter" unicode="&#xbc;" horiz-adv-x="877" 
d="M93 352v246l-71 -15v70l122 51h63v-352h-114zM149 0l389 700h145l-389 -700h-145zM710 0v59h-163v74l151 215h122v-214h34v-75h-34v-59h-110zM658 134h60v93v0z" />
    <glyph glyph-name="onehalf" unicode="&#xbd;" horiz-adv-x="911" 
d="M93 352v246l-71 -15v70l122 51h63v-352h-114zM149 0l389 700h145l-389 -700h-145zM579 0v84l120 79q28 19 43.5 38.5t15.5 41.5q0 17 -9.5 26.5t-23.5 9.5q-16 0 -25 -11t-12 -31h-113q4 54 45 89t116 35q49 0 80 -16t46.5 -41t15.5 -53q0 -38 -27 -66t-86 -59l-66 -37
h176v-89h-296z" />
    <glyph glyph-name="threequarters" unicode="&#xbe;" horiz-adv-x="958" 
d="M182 348q-81 0 -120.5 32t-43.5 86h117q1 -13 6.5 -21.5t14.5 -12t20 -3.5q18 0 28.5 9.5t10.5 27.5q0 20 -12.5 30t-33.5 10h-37v52h32q22 0 34 9.5t12 28.5q0 17 -10 26t-29 9q-17 0 -27 -8.5t-13 -25.5h-108q2 31 19 57.5t52 42.5t89 16q66 0 107 -29.5t41 -74.5
q0 -31 -18 -50.5t-49 -26.5v-3q34 -9 53 -29t19 -52q0 -45 -42 -72.5t-112 -27.5zM230 0l389 700h145l-389 -700h-145zM790 0v59h-163v74l151 215h122v-214h34v-75h-34v-59h-110zM738 134h60v93v0z" />
    <glyph glyph-name="questiondown" unicode="&#xbf;" horiz-adv-x="533" 
d="M403 274l4 -167h-53q-37 0 -68 -4.5t-54 -15.5t-36 -32t-13 -53q0 -26 11 -46t30.5 -31t46.5 -11q29 0 49 11t31 31.5t11 46.5h141q2 -60 -25 -108t-80 -76t-128 -28q-68 0 -121 24.5t-82.5 72t-29.5 115.5q0 67 29.5 111.5t81.5 67.5t118 23l4 69h133zM335 508
q41 0 66 -24.5t25 -59.5q0 -36 -25 -60.5t-66 -24.5q-40 0 -65 24.5t-25 60.5q0 35 25 59.5t65 24.5z" />
    <glyph glyph-name="Agrave" unicode="&#xc0;" horiz-adv-x="720" 
d="M19 0l255 700h172l255 -700h-159l-183 531v0l-183 -531h-157zM131 153l39 116h368l38 -116h-445zM477 743l-234 105v118v0l234 -118v-105z" />
    <glyph glyph-name="Aacute" unicode="&#xc1;" horiz-adv-x="720" 
d="M19 0l255 700h172l255 -700h-159l-183 531v0l-183 -531h-157zM131 153l39 116h368l38 -116h-445zM243 743v105l234 118v0v-118z" />
    <glyph glyph-name="Acircumflex" unicode="&#xc2;" horiz-adv-x="720" 
d="M19 0l255 700h172l255 -700h-159l-183 531v0l-183 -531h-157zM131 153l39 116h368l38 -116h-445zM210 742v106l151 79l150 -79v-106l-150 83z" />
    <glyph glyph-name="Atilde" unicode="&#xc3;" horiz-adv-x="720" 
d="M19 0l255 700h172l255 -700h-159l-183 531v0l-183 -531h-157zM131 153l39 116h368l38 -116h-445zM423 749q-29 0 -50 11.5t-38.5 23t-38.5 11.5q-16 0 -27.5 -11t-15.5 -34h-78q12 72 45 104t83 32q29 0 50 -11.5t39 -22.5t38 -11q17 0 28.5 11t14.5 34h78
q-11 -72 -44.5 -104.5t-83.5 -32.5z" />
    <glyph glyph-name="Adieresis" unicode="&#xc4;" horiz-adv-x="720" 
d="M19 0l255 700h172l255 -700h-159l-183 531v0l-183 -531h-157zM131 153l39 116h368l38 -116h-445zM264 765q-28 0 -47.5 19.5t-19.5 48.5t19.5 48.5t47.5 19.5q30 0 49.5 -19.5t19.5 -48.5t-19.5 -48.5t-49.5 -19.5zM455 765q-29 0 -48.5 19.5t-19.5 48.5t19.5 48.5
t48.5 19.5t48.5 -19.5t19.5 -48.5t-19.5 -48.5t-48.5 -19.5z" />
    <glyph glyph-name="Aring" unicode="&#xc5;" horiz-adv-x="720" 
d="M19 0l255 700h172l255 -700h-159l-183 531v0l-183 -531h-157zM131 153l39 116h368l38 -116h-445zM360 746q-48 0 -83 31t-35 85q0 55 35 86t83 31q49 0 84 -31t35 -86q0 -54 -35 -85t-84 -31zM360 811q21 0 35.5 14t14.5 38t-14.5 37.5t-35.5 13.5q-20 0 -35 -13.5
t-15 -37.5t15 -38t35 -14z" />
    <glyph glyph-name="AE" unicode="&#xc6;" horiz-adv-x="953" 
d="M19 0l369 700h513v-119h-262v-167h232v-114h-232v-181h262v-119h-412v587v0l-307 -587h-163zM164 128l64 115h333v-115h-397z" />
    <glyph glyph-name="Ccedilla" unicode="&#xc7;" horiz-adv-x="746" 
d="M386 -12q-106 0 -183 45.5t-118 127t-41 187.5q0 108 41 189.5t118 128t183 46.5q130 0 213 -65t103 -183h-165q-12 53 -50.5 82.5t-101.5 29.5q-60 0 -102 -28t-64 -78.5t-22 -121.5q0 -69 22 -119.5t64 -78t102 -27.5q63 0 101.5 26.5t50.5 76.5h165
q-20 -111 -103 -174.5t-213 -63.5zM278 -268v84h122q22 0 34 7t12 24q0 16 -12 23t-34 7h-66v127h92v-50q31 0 61 -11t49 -35t19 -64q0 -39 -19 -63.5t-49.5 -36.5t-65.5 -12h-143z" />
    <glyph glyph-name="Egrave" unicode="&#xc8;" horiz-adv-x="585" 
d="M65 0v700h469v-121h-319v-165h289v-116h-289v-177h319v-121h-469zM416 743l-234 105v118v0l234 -118v-105z" />
    <glyph glyph-name="Eacute" unicode="&#xc9;" horiz-adv-x="585" 
d="M65 0v700h469v-121h-319v-165h289v-116h-289v-177h319v-121h-469zM182 743v105l234 118v0v-118z" />
    <glyph glyph-name="Ecircumflex" unicode="&#xca;" horiz-adv-x="585" 
d="M65 0v700h469v-121h-319v-165h289v-116h-289v-177h319v-121h-469zM149 742v106l151 79l150 -79v-106l-150 83z" />
    <glyph glyph-name="Edieresis" unicode="&#xcb;" horiz-adv-x="585" 
d="M65 0v700h469v-121h-319v-165h289v-116h-289v-177h319v-121h-469zM203 765q-28 0 -47.5 19.5t-19.5 48.5t19.5 48.5t47.5 19.5q30 0 49.5 -19.5t19.5 -48.5t-19.5 -48.5t-49.5 -19.5zM394 765q-29 0 -48.5 19.5t-19.5 48.5t19.5 48.5t48.5 19.5t48.5 -19.5t19.5 -48.5
t-19.5 -48.5t-48.5 -19.5z" />
    <glyph glyph-name="Igrave" unicode="&#xcc;" horiz-adv-x="280" 
d="M65 0v700h150v-700h-150zM257 743l-234 105v118v0l234 -118v-105z" />
    <glyph glyph-name="Iacute" unicode="&#xcd;" horiz-adv-x="280" 
d="M65 0v700h150v-700h-150zM23 743v105l234 118v0v-118z" />
    <glyph glyph-name="Icircumflex" unicode="&#xce;" horiz-adv-x="280" 
d="M65 0v700h150v-700h-150zM-10 742v106l151 79l150 -79v-106l-150 83z" />
    <glyph glyph-name="Idieresis" unicode="&#xcf;" horiz-adv-x="280" 
d="M65 0v700h150v-700h-150zM44 765q-28 0 -47.5 19.5t-19.5 48.5t19.5 48.5t47.5 19.5q30 0 49.5 -19.5t19.5 -48.5t-19.5 -48.5t-49.5 -19.5zM235 765q-29 0 -48.5 19.5t-19.5 48.5t19.5 48.5t48.5 19.5t48.5 -19.5t19.5 -48.5t-19.5 -48.5t-48.5 -19.5z" />
    <glyph glyph-name="Eth" unicode="&#xd0;" horiz-adv-x="728" 
d="M5 287v127h384v-127h-384zM74 0v700h251q122 0 202 -43.5t118.5 -122t38.5 -184.5q0 -105 -38.5 -183.5t-118 -122.5t-202.5 -44h-251zM224 129h92q82 0 129 26.5t66.5 76t19.5 118.5q0 70 -19.5 119.5t-66.5 76t-129 26.5h-92v-443z" />
    <glyph glyph-name="Ntilde" unicode="&#xd1;" horiz-adv-x="737" 
d="M65 0v700h150l307 -459v0v459h150v-700h-150l-307 458v0v-458h-150zM431 749q-29 0 -50 11.5t-38.5 23t-38.5 11.5q-16 0 -27.5 -11t-15.5 -34h-78q12 72 45 104t83 32q29 0 50 -11.5t39 -22.5t38 -11q17 0 28.5 11t14.5 34h78q-11 -72 -44.5 -104.5t-83.5 -32.5z" />
    <glyph glyph-name="Ograve" unicode="&#xd2;" horiz-adv-x="795" 
d="M397 -12q-104 0 -183.5 46t-124.5 127.5t-45 188.5t45 188.5t124.5 127.5t183.5 46q105 0 185 -46t124.5 -127.5t44.5 -188.5t-44.5 -188.5t-124.5 -127.5t-185 -46zM397 123q62 0 107 28t69.5 78.5t24.5 120.5t-24.5 120.5t-69.5 78t-107 27.5q-61 0 -106 -27.5
t-69.5 -78t-24.5 -120.5t24.5 -120.5t69.5 -78.5t106 -28zM515 743l-234 105v118v0l234 -118v-105z" />
    <glyph glyph-name="Oacute" unicode="&#xd3;" horiz-adv-x="795" 
d="M397 -12q-104 0 -183.5 46t-124.5 127.5t-45 188.5t45 188.5t124.5 127.5t183.5 46q105 0 185 -46t124.5 -127.5t44.5 -188.5t-44.5 -188.5t-124.5 -127.5t-185 -46zM397 123q62 0 107 28t69.5 78.5t24.5 120.5t-24.5 120.5t-69.5 78t-107 27.5q-61 0 -106 -27.5
t-69.5 -78t-24.5 -120.5t24.5 -120.5t69.5 -78.5t106 -28zM281 743v105l234 118v0v-118z" />
    <glyph glyph-name="Ocircumflex" unicode="&#xd4;" horiz-adv-x="795" 
d="M397 -12q-104 0 -183.5 46t-124.5 127.5t-45 188.5t45 188.5t124.5 127.5t183.5 46q105 0 185 -46t124.5 -127.5t44.5 -188.5t-44.5 -188.5t-124.5 -127.5t-185 -46zM397 123q62 0 107 28t69.5 78.5t24.5 120.5t-24.5 120.5t-69.5 78t-107 27.5q-61 0 -106 -27.5
t-69.5 -78t-24.5 -120.5t24.5 -120.5t69.5 -78.5t106 -28zM247 742v106l151 79l150 -79v-106l-150 83z" />
    <glyph glyph-name="Otilde" unicode="&#xd5;" horiz-adv-x="795" 
d="M397 -12q-104 0 -183.5 46t-124.5 127.5t-45 188.5t45 188.5t124.5 127.5t183.5 46q105 0 185 -46t124.5 -127.5t44.5 -188.5t-44.5 -188.5t-124.5 -127.5t-185 -46zM397 123q62 0 107 28t69.5 78.5t24.5 120.5t-24.5 120.5t-69.5 78t-107 27.5q-61 0 -106 -27.5
t-69.5 -78t-24.5 -120.5t24.5 -120.5t69.5 -78.5t106 -28zM460 749q-29 0 -50 11.5t-38.5 23t-38.5 11.5q-16 0 -27.5 -11t-15.5 -34h-78q12 72 45 104t83 32q29 0 50 -11.5t39 -22.5t38 -11q17 0 28.5 11t14.5 34h78q-11 -72 -44.5 -104.5t-83.5 -32.5z" />
    <glyph glyph-name="Odieresis" unicode="&#xd6;" horiz-adv-x="795" 
d="M397 -12q-104 0 -183.5 46t-124.5 127.5t-45 188.5t45 188.5t124.5 127.5t183.5 46q105 0 185 -46t124.5 -127.5t44.5 -188.5t-44.5 -188.5t-124.5 -127.5t-185 -46zM397 123q62 0 107 28t69.5 78.5t24.5 120.5t-24.5 120.5t-69.5 78t-107 27.5q-61 0 -106 -27.5
t-69.5 -78t-24.5 -120.5t24.5 -120.5t69.5 -78.5t106 -28zM302 765q-28 0 -47.5 19.5t-19.5 48.5t19.5 48.5t47.5 19.5q30 0 49.5 -19.5t19.5 -48.5t-19.5 -48.5t-49.5 -19.5zM493 765q-29 0 -48.5 19.5t-19.5 48.5t19.5 48.5t48.5 19.5t48.5 -19.5t19.5 -48.5t-19.5 -48.5
t-48.5 -19.5z" />
    <glyph glyph-name="multiply" unicode="&#xd7;" horiz-adv-x="588" 
d="M173 81l-88 88l121 120l-119 120l88 88l119 -120l120 121l88 -88l-120 -121l119 -119l-88 -88l-119 120z" />
    <glyph glyph-name="Oslash" unicode="&#xd8;" horiz-adv-x="783" 
d="M26 0l593 700h138l-592 -700h-139zM396 -12q-104 0 -183.5 46t-124.5 127.5t-45 188.5t45 188.5t124.5 127.5t183.5 46q105 0 185 -46t124.5 -127.5t44.5 -188.5t-44.5 -188.5t-124.5 -127.5t-185 -46zM397 123q61 0 106 28t69.5 78.5t24.5 120.5t-24.5 120.5t-69.5 78
t-106 27.5t-106.5 -27.5t-70 -78t-24.5 -120.5t24.5 -120.5t70 -78.5t106.5 -28z" />
    <glyph glyph-name="Ugrave" unicode="&#xd9;" horiz-adv-x="693" 
d="M344 -12q-79 0 -143.5 31.5t-102 94.5t-37.5 159v427h150v-428q0 -47 16 -80t46.5 -49.5t72.5 -16.5q44 0 74.5 16.5t46.5 49.5t16 80v428h150v-427q0 -96 -39.5 -159t-105 -94.5t-144.5 -31.5zM464 743l-234 105v118v0l234 -118v-105z" />
    <glyph glyph-name="Uacute" unicode="&#xda;" horiz-adv-x="693" 
d="M344 -12q-79 0 -143.5 31.5t-102 94.5t-37.5 159v427h150v-428q0 -47 16 -80t46.5 -49.5t72.5 -16.5q44 0 74.5 16.5t46.5 49.5t16 80v428h150v-427q0 -96 -39.5 -159t-105 -94.5t-144.5 -31.5zM230 743v105l234 118v0v-118z" />
    <glyph glyph-name="Ucircumflex" unicode="&#xdb;" horiz-adv-x="693" 
d="M344 -12q-79 0 -143.5 31.5t-102 94.5t-37.5 159v427h150v-428q0 -47 16 -80t46.5 -49.5t72.5 -16.5q44 0 74.5 16.5t46.5 49.5t16 80v428h150v-427q0 -96 -39.5 -159t-105 -94.5t-144.5 -31.5zM196 742v106l151 79l150 -79v-106l-150 83z" />
    <glyph glyph-name="Udieresis" unicode="&#xdc;" horiz-adv-x="693" 
d="M344 -12q-79 0 -143.5 31.5t-102 94.5t-37.5 159v427h150v-428q0 -47 16 -80t46.5 -49.5t72.5 -16.5q44 0 74.5 16.5t46.5 49.5t16 80v428h150v-427q0 -96 -39.5 -159t-105 -94.5t-144.5 -31.5zM251 765q-28 0 -47.5 19.5t-19.5 48.5t19.5 48.5t47.5 19.5
q30 0 49.5 -19.5t19.5 -48.5t-19.5 -48.5t-49.5 -19.5zM442 765q-29 0 -48.5 19.5t-19.5 48.5t19.5 48.5t48.5 19.5t48.5 -19.5t19.5 -48.5t-19.5 -48.5t-48.5 -19.5z" />
    <glyph glyph-name="Yacute" unicode="&#xdd;" horiz-adv-x="649" 
d="M250 0v240l-239 460h170l163 -346h-37l163 346h168l-238 -460v-240h-150zM208 743v105l234 118v0v-118z" />
    <glyph glyph-name="Thorn" unicode="&#xde;" horiz-adv-x="621" 
d="M65 0v700h150v-130h123q85 0 141.5 -29t84.5 -78.5t28 -113.5q0 -58 -26.5 -107.5t-83 -80.5t-144.5 -31h-123v-130h-150zM215 250h113q59 0 85 27t26 72q0 47 -26 73t-85 26h-113v-198z" />
    <glyph glyph-name="germandbls" unicode="&#xdf;" horiz-adv-x="728" 
d="M491 -10q-96 0 -155 49t-71 139h139q5 -36 26.5 -57t58.5 -21q32 0 49 14t17 41q0 25 -17.5 42.5t-70.5 35.5q-82 29 -119 59.5t-37 75.5q0 27 12 45t30 31.5t35.5 26t29.5 27.5t12 36q0 35 -27.5 54t-74.5 19q-59 0 -87 -30.5t-28 -84.5v-492h-149v503q0 69 32.5 120
t93.5 80t145 29q75 0 130 -24.5t84.5 -65.5t29.5 -92q0 -28 -11.5 -48t-29.5 -35t-35.5 -26.5t-29.5 -23t-12 -25.5q0 -10 7.5 -19.5t28.5 -19.5t62 -25q76 -28 109 -66.5t33 -97.5q0 -52 -26 -91t-73 -61t-111 -22z" />
    <glyph glyph-name="agrave" unicode="&#xe0;" horiz-adv-x="594" 
d="M236 -12q-63 0 -104.5 20t-61.5 53.5t-20 74.5q0 45 23 79.5t70.5 54.5t122.5 20h122q0 33 -9 54.5t-28.5 32t-51.5 10.5q-35 0 -60.5 -15t-31.5 -46h-144q5 55 36 95.5t83 63.5t118 23q72 0 125.5 -23t83 -68.5t29.5 -111.5v-305h-125l-18 73v0q-11 -19 -26 -34.5
t-35 -27t-44 -17.5t-54 -6zM274 102q24 0 42.5 8t31.5 21.5t21 31.5t12 39v0h-97q-26 0 -42.5 -6.5t-24.5 -18t-8 -27.5t8 -26.5t23 -16t34 -5.5zM411 539l-234 105v118v0l234 -118v-105z" />
    <glyph glyph-name="aacute" unicode="&#xe1;" horiz-adv-x="594" 
d="M236 -12q-63 0 -104.5 20t-61.5 53.5t-20 74.5q0 45 23 79.5t70.5 54.5t122.5 20h122q0 33 -9 54.5t-28.5 32t-51.5 10.5q-35 0 -60.5 -15t-31.5 -46h-144q5 55 36 95.5t83 63.5t118 23q72 0 125.5 -23t83 -68.5t29.5 -111.5v-305h-125l-18 73v0q-11 -19 -26 -34.5
t-35 -27t-44 -17.5t-54 -6zM274 102q24 0 42.5 8t31.5 21.5t21 31.5t12 39v0h-97q-26 0 -42.5 -6.5t-24.5 -18t-8 -27.5t8 -26.5t23 -16t34 -5.5zM177 539v105l234 118v0v-118z" />
    <glyph glyph-name="acircumflex" unicode="&#xe2;" horiz-adv-x="594" 
d="M236 -12q-63 0 -104.5 20t-61.5 53.5t-20 74.5q0 45 23 79.5t70.5 54.5t122.5 20h122q0 33 -9 54.5t-28.5 32t-51.5 10.5q-35 0 -60.5 -15t-31.5 -46h-144q5 55 36 95.5t83 63.5t118 23q72 0 125.5 -23t83 -68.5t29.5 -111.5v-305h-125l-18 73v0q-11 -19 -26 -34.5
t-35 -27t-44 -17.5t-54 -6zM274 102q24 0 42.5 8t31.5 21.5t21 31.5t12 39v0h-97q-26 0 -42.5 -6.5t-24.5 -18t-8 -27.5t8 -26.5t23 -16t34 -5.5zM144 542v105l151 80l150 -80v-105l-150 82z" />
    <glyph glyph-name="atilde" unicode="&#xe3;" horiz-adv-x="594" 
d="M236 -12q-63 0 -104.5 20t-61.5 53.5t-20 74.5q0 45 23 79.5t70.5 54.5t122.5 20h122q0 33 -9 54.5t-28.5 32t-51.5 10.5q-35 0 -60.5 -15t-31.5 -46h-144q5 55 36 95.5t83 63.5t118 23q72 0 125.5 -23t83 -68.5t29.5 -111.5v-305h-125l-18 73v0q-11 -19 -26 -34.5
t-35 -27t-44 -17.5t-54 -6zM274 102q24 0 42.5 8t31.5 21.5t21 31.5t12 39v0h-97q-26 0 -42.5 -6.5t-24.5 -18t-8 -27.5t8 -26.5t23 -16t34 -5.5zM354 562q-29 0 -50 11t-38.5 22.5t-38.5 11.5q-16 0 -27.5 -11t-15.5 -34h-78q12 72 45 104.5t83 32.5q29 0 50 -11.5
t39 -22.5t38 -11q17 0 28.5 11t14.5 34h78q-11 -72 -44.5 -104.5t-83.5 -32.5z" />
    <glyph glyph-name="adieresis" unicode="&#xe4;" horiz-adv-x="594" 
d="M236 -12q-63 0 -104.5 20t-61.5 53.5t-20 74.5q0 45 23 79.5t70.5 54.5t122.5 20h122q0 33 -9 54.5t-28.5 32t-51.5 10.5q-35 0 -60.5 -15t-31.5 -46h-144q5 55 36 95.5t83 63.5t118 23q72 0 125.5 -23t83 -68.5t29.5 -111.5v-305h-125l-18 73v0q-11 -19 -26 -34.5
t-35 -27t-44 -17.5t-54 -6zM274 102q24 0 42.5 8t31.5 21.5t21 31.5t12 39v0h-97q-26 0 -42.5 -6.5t-24.5 -18t-8 -27.5t8 -26.5t23 -16t34 -5.5zM198 562q-28 0 -47.5 19.5t-19.5 47.5q0 30 19.5 49.5t47.5 19.5q30 0 49.5 -19.5t19.5 -49.5q0 -28 -19.5 -47.5t-49.5 -19.5
zM389 562q-29 0 -48.5 19.5t-19.5 47.5q0 30 19.5 49.5t48.5 19.5t48.5 -19.5t19.5 -49.5q0 -28 -19.5 -47.5t-48.5 -19.5z" />
    <glyph glyph-name="aring" unicode="&#xe5;" horiz-adv-x="594" 
d="M236 -12q-63 0 -104.5 20t-61.5 53.5t-20 74.5q0 45 23 79.5t70.5 54.5t122.5 20h122q0 33 -9 54.5t-28.5 32t-51.5 10.5q-35 0 -60.5 -15t-31.5 -46h-144q5 55 36 95.5t83 63.5t118 23q72 0 125.5 -23t83 -68.5t29.5 -111.5v-305h-125l-18 73v0q-11 -19 -26 -34.5
t-35 -27t-44 -17.5t-54 -6zM274 102q24 0 42.5 8t31.5 21.5t21 31.5t12 39v0h-97q-26 0 -42.5 -6.5t-24.5 -18t-8 -27.5t8 -26.5t23 -16t34 -5.5zM295 562q-48 0 -83 31t-35 86q0 54 35 85t83 31q49 0 84 -31t35 -85q0 -55 -35 -86t-84 -31zM295 627q21 0 35.5 14t14.5 38
t-14.5 37.5t-35.5 13.5q-20 0 -35 -13.5t-15 -37.5t15 -38t35 -14z" />
    <glyph glyph-name="ae" unicode="&#xe6;" horiz-adv-x="955" 
d="M250 -12q-64 0 -109 20t-68 54.5t-23 75.5q0 45 22 80.5t68.5 56t121.5 20.5h132q0 31 -9.5 51.5t-29 30.5t-48.5 10q-33 0 -58 -14.5t-30 -43.5h-145q5 53 36 93.5t81.5 63t115.5 22.5q58 0 103.5 -16t76.5 -46q33 29 77 45.5t93 16.5q74 0 131.5 -32t90.5 -88.5
t33 -130.5q0 -10 -0.5 -22.5t-2.5 -26.5h-361q3 -29 17.5 -51.5t38 -34.5t52.5 -12q36 0 60 18.5t36 44.5h150q-13 -52 -47.5 -94t-84.5 -66.5t-112 -24.5q-65 0 -118.5 25.5t-88.5 68.5q-20 -27 -47.5 -48.5t-65 -33.5t-88.5 -12zM273 102q30 0 53 13.5t38.5 36.5t21.5 52
v4h-103q-25 0 -41.5 -6.5t-24.5 -19t-8 -27.5q0 -16 8 -28t23 -18.5t33 -6.5zM550 296h209q-3 43 -31.5 67.5t-68.5 24.5q-25 0 -48 -10.5t-38.5 -30.5t-22.5 -51z" />
    <glyph glyph-name="ccedilla" unicode="&#xe7;" horiz-adv-x="615" 
d="M314 -12q-78 0 -137.5 33.5t-93 92t-33.5 134.5t33.5 134t93 92t137.5 34q98 0 165.5 -51.5t85.5 -142.5h-159q-9 31 -34 48.5t-59 17.5q-32 0 -57 -16t-39.5 -46t-14.5 -70q0 -30 8.5 -54t23 -41.5t35 -27t44.5 -9.5q23 0 41.5 7.5t32 22.5t19.5 36h159
q-18 -89 -85.5 -141.5t-165.5 -52.5zM213 -268v84h122q22 0 34 7t12 24q0 16 -12 23t-34 7h-66v127h92v-50q31 0 61 -11t49 -35t19 -64q0 -39 -19 -63.5t-49.5 -36.5t-65.5 -12h-143z" />
    <glyph glyph-name="egrave" unicode="&#xe8;" horiz-adv-x="612" 
d="M313 -12q-78 0 -137.5 32t-92.5 89.5t-33 132.5q0 77 32.5 137t92 94.5t138.5 34.5q74 0 132 -32t91 -88t33 -129q0 -10 -0.5 -22.5t-2.5 -25.5h-410v88h260q-3 39 -31.5 64t-70.5 25q-32 0 -59 -14.5t-42 -44t-15 -74.5v-29q0 -34 13.5 -60.5t39.5 -41t61 -14.5
q32 0 54 14t34 36h154q-15 -48 -49 -87t-83 -62t-109 -23zM428 539l-234 105v118v0l234 -118v-105z" />
    <glyph glyph-name="eacute" unicode="&#xe9;" horiz-adv-x="612" 
d="M313 -12q-78 0 -137.5 32t-92.5 89.5t-33 132.5q0 77 32.5 137t92 94.5t138.5 34.5q74 0 132 -32t91 -88t33 -129q0 -10 -0.5 -22.5t-2.5 -25.5h-410v88h260q-3 39 -31.5 64t-70.5 25q-32 0 -59 -14.5t-42 -44t-15 -74.5v-29q0 -34 13.5 -60.5t39.5 -41t61 -14.5
q32 0 54 14t34 36h154q-15 -48 -49 -87t-83 -62t-109 -23zM194 539v105l234 118v0v-118z" />
    <glyph glyph-name="ecircumflex" unicode="&#xea;" horiz-adv-x="612" 
d="M313 -12q-78 0 -137.5 32t-92.5 89.5t-33 132.5q0 77 32.5 137t92 94.5t138.5 34.5q74 0 132 -32t91 -88t33 -129q0 -10 -0.5 -22.5t-2.5 -25.5h-410v88h260q-3 39 -31.5 64t-70.5 25q-32 0 -59 -14.5t-42 -44t-15 -74.5v-29q0 -34 13.5 -60.5t39.5 -41t61 -14.5
q32 0 54 14t34 36h154q-15 -48 -49 -87t-83 -62t-109 -23zM161 542v105l151 80l150 -80v-105l-150 82z" />
    <glyph glyph-name="edieresis" unicode="&#xeb;" horiz-adv-x="612" 
d="M313 -12q-78 0 -137.5 32t-92.5 89.5t-33 132.5q0 77 32.5 137t92 94.5t138.5 34.5q74 0 132 -32t91 -88t33 -129q0 -10 -0.5 -22.5t-2.5 -25.5h-410v88h260q-3 39 -31.5 64t-70.5 25q-32 0 -59 -14.5t-42 -44t-15 -74.5v-29q0 -34 13.5 -60.5t39.5 -41t61 -14.5
q32 0 54 14t34 36h154q-15 -48 -49 -87t-83 -62t-109 -23zM215 562q-28 0 -47.5 19.5t-19.5 47.5q0 30 19.5 49.5t47.5 19.5q30 0 49.5 -19.5t19.5 -49.5q0 -28 -19.5 -47.5t-49.5 -19.5zM406 562q-29 0 -48.5 19.5t-19.5 47.5q0 30 19.5 49.5t48.5 19.5t48.5 -19.5
t19.5 -49.5q0 -28 -19.5 -47.5t-48.5 -19.5z" />
    <glyph glyph-name="igrave" unicode="&#xec;" horiz-adv-x="277" 
d="M64 0v496h150v-496h-150zM256 539l-234 105v118v0l234 -118v-105z" />
    <glyph glyph-name="iacute" unicode="&#xed;" horiz-adv-x="277" 
d="M64 0v496h150v-496h-150zM22 539v105l234 118v0v-118z" />
    <glyph glyph-name="icircumflex" unicode="&#xee;" horiz-adv-x="277" 
d="M64 0v496h150v-496h-150zM-12 542v105l151 80l150 -80v-105l-150 82z" />
    <glyph glyph-name="idieresis" unicode="&#xef;" horiz-adv-x="277" 
d="M64 0v496h150v-496h-150zM43 562q-28 0 -47.5 19.5t-19.5 47.5q0 30 19.5 49.5t47.5 19.5q30 0 49.5 -19.5t19.5 -49.5q0 -28 -19.5 -47.5t-49.5 -19.5zM234 562q-29 0 -48.5 19.5t-19.5 47.5q0 30 19.5 49.5t48.5 19.5t48.5 -19.5t19.5 -49.5q0 -28 -19.5 -47.5
t-48.5 -19.5z" />
    <glyph glyph-name="eth" unicode="&#xf0;" horiz-adv-x="655" 
d="M323 -12q-80 0 -141.5 34t-96.5 92.5t-35 130.5q0 74 34 132t93.5 91t134.5 33q38 0 70 -9.5t62 -30.5q-13 33 -30.5 65.5t-39 63.5t-46 58.5t-51.5 51.5h139q49 -42 84.5 -92.5t58.5 -104.5t34.5 -106t11.5 -99q0 -96 -37.5 -166t-101.5 -107t-143 -37zM327 116
q34 0 62.5 15.5t45.5 44.5t17 69t-17 68.5t-45.5 44.5t-62.5 16q-33 0 -61.5 -16t-45.5 -44.5t-17 -68.5t17 -69t45.5 -44.5t61.5 -15.5zM270 530v87l293 93v-88z" />
    <glyph glyph-name="ntilde" unicode="&#xf1;" horiz-adv-x="626" 
d="M64 0v496h131l12 -81v0q23 41 65.5 67t102.5 26q63 0 106 -27.5t65.5 -79t22.5 -126.5v-275h-149v261q0 58 -22.5 89.5t-75.5 31.5q-31 0 -56 -15t-38.5 -43.5t-13.5 -68.5v-255h-150zM399 562q-29 0 -50 11t-38.5 22.5t-38.5 11.5q-16 0 -27.5 -11t-15.5 -34h-78
q12 72 45 104.5t83 32.5q29 0 50 -11.5t39 -22.5t38 -11q17 0 28.5 11t14.5 34h78q-11 -72 -44.5 -104.5t-83.5 -32.5z" />
    <glyph glyph-name="ograve" unicode="&#xf2;" horiz-adv-x="613" 
d="M306 -12q-72 0 -130 33.5t-92 92.5t-34 134q0 76 34 135t92 92t130 33q73 0 131.5 -33t92.5 -92t34 -135t-34.5 -134.5t-92.5 -92t-131 -33.5zM306 118q30 0 53 14.5t37.5 43.5t14.5 72t-14 72t-37.5 43.5t-52.5 14.5q-28 0 -52 -14.5t-38.5 -43.5t-14.5 -72t14.5 -72
t38 -43.5t51.5 -14.5zM424 539l-234 105v118v0l234 -118v-105z" />
    <glyph glyph-name="oacute" unicode="&#xf3;" horiz-adv-x="613" 
d="M306 -12q-72 0 -130 33.5t-92 92.5t-34 134q0 76 34 135t92 92t130 33q73 0 131.5 -33t92.5 -92t34 -135t-34.5 -134.5t-92.5 -92t-131 -33.5zM306 118q30 0 53 14.5t37.5 43.5t14.5 72t-14 72t-37.5 43.5t-52.5 14.5q-28 0 -52 -14.5t-38.5 -43.5t-14.5 -72t14.5 -72
t38 -43.5t51.5 -14.5zM190 539v105l234 118v0v-118z" />
    <glyph glyph-name="ocircumflex" unicode="&#xf4;" horiz-adv-x="613" 
d="M306 -12q-72 0 -130 33.5t-92 92.5t-34 134q0 76 34 135t92 92t130 33q73 0 131.5 -33t92.5 -92t34 -135t-34.5 -134.5t-92.5 -92t-131 -33.5zM306 118q30 0 53 14.5t37.5 43.5t14.5 72t-14 72t-37.5 43.5t-52.5 14.5q-28 0 -52 -14.5t-38.5 -43.5t-14.5 -72t14.5 -72
t38 -43.5t51.5 -14.5zM156 542v105l151 80l150 -80v-105l-150 82z" />
    <glyph glyph-name="otilde" unicode="&#xf5;" horiz-adv-x="613" 
d="M306 -12q-72 0 -130 33.5t-92 92.5t-34 134q0 76 34 135t92 92t130 33q73 0 131.5 -33t92.5 -92t34 -135t-34.5 -134.5t-92.5 -92t-131 -33.5zM306 118q30 0 53 14.5t37.5 43.5t14.5 72t-14 72t-37.5 43.5t-52.5 14.5q-28 0 -52 -14.5t-38.5 -43.5t-14.5 -72t14.5 -72
t38 -43.5t51.5 -14.5zM367 562q-29 0 -50 11t-38.5 22.5t-38.5 11.5q-16 0 -27.5 -11t-15.5 -34h-78q12 72 45 104.5t83 32.5q29 0 50 -11.5t39 -22.5t38 -11q17 0 28.5 11t14.5 34h78q-11 -72 -44.5 -104.5t-83.5 -32.5z" />
    <glyph glyph-name="odieresis" unicode="&#xf6;" horiz-adv-x="613" 
d="M306 -12q-72 0 -130 33.5t-92 92.5t-34 134q0 76 34 135t92 92t130 33q73 0 131.5 -33t92.5 -92t34 -135t-34.5 -134.5t-92.5 -92t-131 -33.5zM306 118q30 0 53 14.5t37.5 43.5t14.5 72t-14 72t-37.5 43.5t-52.5 14.5q-28 0 -52 -14.5t-38.5 -43.5t-14.5 -72t14.5 -72
t38 -43.5t51.5 -14.5zM211 562q-28 0 -47.5 19.5t-19.5 47.5q0 30 19.5 49.5t47.5 19.5q30 0 49.5 -19.5t19.5 -49.5q0 -28 -19.5 -47.5t-49.5 -19.5zM402 562q-29 0 -48.5 19.5t-19.5 47.5q0 30 19.5 49.5t48.5 19.5t48.5 -19.5t19.5 -49.5q0 -28 -19.5 -47.5t-48.5 -19.5z
" />
    <glyph glyph-name="divide" unicode="&#xf7;" horiz-adv-x="588" 
d="M71 227v125h445v-125h-445zM295 14q-41 0 -66 24.5t-25 58.5q0 37 25 61.5t66 24.5q40 0 65 -24.5t25 -61.5q0 -34 -25 -58.5t-65 -24.5zM295 401q-41 0 -66 24.5t-25 59.5q0 36 25 60.5t66 24.5q40 0 65 -24.5t25 -60.5q0 -35 -25 -59.5t-65 -24.5z" />
    <glyph glyph-name="oslash" unicode="&#xf8;" horiz-adv-x="584" 
d="M23 0l426 496h112l-426 -496h-112zM291 -12q-72 0 -130 33.5t-92 92.5t-34 134q0 76 34 135t92.5 92t130.5 33t130.5 -33t92.5 -92t34 -135t-34 -134.5t-92.5 -92t-131.5 -33.5zM292 118q29 0 52.5 14.5t37.5 43.5t14 72t-14 72t-37.5 43.5t-52.5 14.5q-28 0 -52 -14.5
t-38 -43.5t-14 -72t14 -72t37.5 -43.5t52.5 -14.5z" />
    <glyph glyph-name="ugrave" unicode="&#xf9;" horiz-adv-x="626" 
d="M251 -12q-63 0 -106.5 27t-66 79t-22.5 127v275h150v-261q0 -58 22.5 -89.5t74.5 -31.5q32 0 57 15t38.5 43.5t13.5 67.5v256h150v-496h-131l-12 81v0q-23 -41 -65.5 -67t-102.5 -26zM425 539l-234 105v118v0l234 -118v-105z" />
    <glyph glyph-name="uacute" unicode="&#xfa;" horiz-adv-x="626" 
d="M251 -12q-63 0 -106.5 27t-66 79t-22.5 127v275h150v-261q0 -58 22.5 -89.5t74.5 -31.5q32 0 57 15t38.5 43.5t13.5 67.5v256h150v-496h-131l-12 81v0q-23 -41 -65.5 -67t-102.5 -26zM191 539v105l234 118v0v-118z" />
    <glyph glyph-name="ucircumflex" unicode="&#xfb;" horiz-adv-x="626" 
d="M251 -12q-63 0 -106.5 27t-66 79t-22.5 127v275h150v-261q0 -58 22.5 -89.5t74.5 -31.5q32 0 57 15t38.5 43.5t13.5 67.5v256h150v-496h-131l-12 81v0q-23 -41 -65.5 -67t-102.5 -26zM157 542v105l151 80l150 -80v-105l-150 82z" />
    <glyph glyph-name="udieresis" unicode="&#xfc;" horiz-adv-x="626" 
d="M251 -12q-63 0 -106.5 27t-66 79t-22.5 127v275h150v-261q0 -58 22.5 -89.5t74.5 -31.5q32 0 57 15t38.5 43.5t13.5 67.5v256h150v-496h-131l-12 81v0q-23 -41 -65.5 -67t-102.5 -26zM212 562q-28 0 -47.5 19.5t-19.5 47.5q0 30 19.5 49.5t47.5 19.5q30 0 49.5 -19.5
t19.5 -49.5q0 -28 -19.5 -47.5t-49.5 -19.5zM403 562q-29 0 -48.5 19.5t-19.5 47.5q0 30 19.5 49.5t48.5 19.5t48.5 -19.5t19.5 -49.5q0 -28 -19.5 -47.5t-48.5 -19.5z" />
    <glyph glyph-name="yacute" unicode="&#xfd;" horiz-adv-x="617" 
d="M129 -220l124 276h-30l-205 440h164l140 -300v0l116 300h161l-311 -716h-159zM192 539v105l234 118v0v-118z" />
    <glyph glyph-name="thorn" unicode="&#xfe;" horiz-adv-x="664" 
d="M64 -220v940h150v-289q16 21 37 38.5t50.5 28t69.5 10.5q69 0 123.5 -34t87 -93t32.5 -134q0 -74 -32.5 -133t-87 -92.5t-123.5 -33.5q-53 0 -92 19t-65 53v-280h-150zM335 119q37 0 65.5 16.5t45 45.5t16.5 66t-16.5 66.5t-45 46.5t-65.5 17t-66 -17t-45 -46t-16 -66
t16 -66.5t45 -46t66 -16.5z" />
    <glyph glyph-name="ydieresis" unicode="&#xff;" horiz-adv-x="617" 
d="M129 -220l124 276h-30l-205 440h164l140 -300v0l116 300h161l-311 -716h-159zM213 562q-28 0 -47.5 19.5t-19.5 47.5q0 30 19.5 49.5t47.5 19.5q30 0 49.5 -19.5t19.5 -49.5q0 -28 -19.5 -47.5t-49.5 -19.5zM404 562q-29 0 -48.5 19.5t-19.5 47.5q0 30 19.5 49.5
t48.5 19.5t48.5 -19.5t19.5 -49.5q0 -28 -19.5 -47.5t-48.5 -19.5z" />
    <glyph glyph-name="Amacron" unicode="&#x100;" horiz-adv-x="720" 
d="M19 0l255 700h172l255 -700h-159l-183 531v0l-183 -531h-157zM131 153l39 116h368l38 -116h-445zM167 776v105h387v-105h-387z" />
    <glyph glyph-name="amacron" unicode="&#x101;" horiz-adv-x="594" 
d="M236 -12q-63 0 -104.5 20t-61.5 53.5t-20 74.5q0 45 23 79.5t70.5 54.5t122.5 20h122q0 33 -9 54.5t-28.5 32t-51.5 10.5q-35 0 -60.5 -15t-31.5 -46h-144q5 55 36 95.5t83 63.5t118 23q72 0 125.5 -23t83 -68.5t29.5 -111.5v-305h-125l-18 73v0q-11 -19 -26 -34.5
t-35 -27t-44 -17.5t-54 -6zM274 102q24 0 42.5 8t31.5 21.5t21 31.5t12 39v0h-97q-26 0 -42.5 -6.5t-24.5 -18t-8 -27.5t8 -26.5t23 -16t34 -5.5zM101 586v105h387v-105h-387z" />
    <glyph glyph-name="Abreve" unicode="&#x102;" horiz-adv-x="720" 
d="M19 0l255 700h172l255 -700h-159l-183 531v0l-183 -531h-157zM131 153l39 116h368l38 -116h-445zM361 745q-49 0 -86 19.5t-57 55.5t-20 87v18h77q0 -32 18.5 -50.5t67.5 -18.5t67.5 18.5t18.5 50.5h78v-18q0 -51 -21 -87.5t-57.5 -55.5t-85.5 -19z" />
    <glyph glyph-name="abreve" unicode="&#x103;" horiz-adv-x="594" 
d="M236 -12q-63 0 -104.5 20t-61.5 53.5t-20 74.5q0 45 23 79.5t70.5 54.5t122.5 20h122q0 33 -9 54.5t-28.5 32t-51.5 10.5q-35 0 -60.5 -15t-31.5 -46h-144q5 55 36 95.5t83 63.5t118 23q72 0 125.5 -23t83 -68.5t29.5 -111.5v-305h-125l-18 73v0q-11 -19 -26 -34.5
t-35 -27t-44 -17.5t-54 -6zM274 102q24 0 42.5 8t31.5 21.5t21 31.5t12 39v0h-97q-26 0 -42.5 -6.5t-24.5 -18t-8 -27.5t8 -26.5t23 -16t34 -5.5zM295 555q-49 0 -86 19.5t-57 55.5t-20 88v17h77q0 -32 18.5 -50.5t67.5 -18.5t67.5 18.5t18.5 50.5h78v-18q0 -51 -21 -87.5
t-57.5 -55.5t-85.5 -19z" />
    <glyph glyph-name="Aogonek" unicode="&#x104;" horiz-adv-x="720" 
d="M19 0l255 700h172l255 -700h-159l-183 531v0l-183 -531h-157zM131 153l39 116h368l38 -116h-445zM615 -214q-39 0 -71 12t-51 36.5t-19 61.5q0 28 13.5 54t46.5 51t92 49l43 19l32 -69l-49 -24q-36 -19 -51 -34t-15 -33q0 -17 12.5 -27t35.5 -10q15 0 34 4t39 11v-86
q-20 -7 -43.5 -11t-48.5 -4z" />
    <glyph glyph-name="aogonek" unicode="&#x105;" horiz-adv-x="594" 
d="M236 -12q-63 0 -104.5 20t-61.5 53.5t-20 74.5q0 45 23 79.5t70.5 54.5t122.5 20h122q0 33 -9 54.5t-28.5 32t-51.5 10.5q-35 0 -60.5 -15t-31.5 -46h-144q5 55 36 95.5t83 63.5t118 23q72 0 125.5 -23t83 -68.5t29.5 -111.5v-305h-125l-18 73v0q-11 -19 -26 -34.5
t-35 -27t-44 -17.5t-54 -6zM274 102q24 0 42.5 8t31.5 21.5t21 31.5t12 39v0h-97q-26 0 -42.5 -6.5t-24.5 -18t-8 -27.5t8 -26.5t23 -16t34 -5.5zM452 -214q-39 0 -71 12t-51 36.5t-19 61.5q0 28 13.5 54t46.5 51t92 49l43 19l32 -69l-49 -24q-36 -19 -51 -34t-15 -33
q0 -17 12.5 -27t35.5 -10q15 0 34 4t39 11v-86q-20 -7 -43.5 -11t-48.5 -4z" />
    <glyph glyph-name="Cacute" unicode="&#x106;" horiz-adv-x="746" 
d="M386 -12q-106 0 -183 45.5t-118 127t-41 187.5q0 108 41 189.5t118 128t183 46.5q130 0 213 -65t103 -183h-165q-12 53 -50.5 82.5t-101.5 29.5q-60 0 -102 -28t-64 -78.5t-22 -121.5q0 -69 22 -119.5t64 -78t102 -27.5q63 0 101.5 26.5t50.5 76.5h165
q-20 -111 -103 -174.5t-213 -63.5zM256 743v105l234 118v0v-118z" />
    <glyph glyph-name="cacute" unicode="&#x107;" horiz-adv-x="615" 
d="M314 -12q-78 0 -137.5 33.5t-93 92t-33.5 134.5t33.5 134t93 92t137.5 34q98 0 165.5 -51.5t85.5 -142.5h-159q-9 31 -34 48.5t-59 17.5q-32 0 -57 -16t-39.5 -46t-14.5 -70q0 -30 8.5 -54t23 -41.5t35 -27t44.5 -9.5q23 0 41.5 7.5t32 22.5t19.5 36h159
q-18 -89 -85.5 -141.5t-165.5 -52.5zM191 539v105l234 118v0v-118z" />
    <glyph glyph-name="Cdotaccent" unicode="&#x10a;" horiz-adv-x="746" 
d="M386 -12q-106 0 -183 45.5t-118 127t-41 187.5q0 108 41 189.5t118 128t183 46.5q130 0 213 -65t103 -183h-165q-12 53 -50.5 82.5t-101.5 29.5q-60 0 -102 -28t-64 -78.5t-22 -121.5q0 -69 22 -119.5t64 -78t102 -27.5q63 0 101.5 26.5t50.5 76.5h165
q-20 -111 -103 -174.5t-213 -63.5zM372 763q-28 0 -47.5 19.5t-19.5 47.5q0 30 19.5 49.5t47.5 19.5q30 0 49.5 -19.5t19.5 -49.5q0 -28 -19.5 -47.5t-49.5 -19.5z" />
    <glyph glyph-name="cdotaccent" unicode="&#x10b;" horiz-adv-x="615" 
d="M314 -12q-78 0 -137.5 33.5t-93 92t-33.5 134.5t33.5 134t93 92t137.5 34q98 0 165.5 -51.5t85.5 -142.5h-159q-9 31 -34 48.5t-59 17.5q-32 0 -57 -16t-39.5 -46t-14.5 -70q0 -30 8.5 -54t23 -41.5t35 -27t44.5 -9.5q23 0 41.5 7.5t32 22.5t19.5 36h159
q-18 -89 -85.5 -141.5t-165.5 -52.5zM307 563q-28 0 -47.5 19.5t-19.5 47.5q0 30 19.5 49.5t47.5 19.5q30 0 49.5 -19.5t19.5 -49.5q0 -28 -19.5 -47.5t-49.5 -19.5z" />
    <glyph glyph-name="Ccaron" unicode="&#x10c;" horiz-adv-x="746" 
d="M386 -12q-106 0 -183 45.5t-118 127t-41 187.5q0 108 41 189.5t118 128t183 46.5q130 0 213 -65t103 -183h-165q-12 53 -50.5 82.5t-101.5 29.5q-60 0 -102 -28t-64 -78.5t-22 -121.5q0 -69 22 -119.5t64 -78t102 -27.5q63 0 101.5 26.5t50.5 76.5h165
q-20 -111 -103 -174.5t-213 -63.5zM373 742l-151 80v105l151 -86l150 86v-105z" />
    <glyph glyph-name="ccaron" unicode="&#x10d;" horiz-adv-x="615" 
d="M314 -12q-78 0 -137.5 33.5t-93 92t-33.5 134.5t33.5 134t93 92t137.5 34q98 0 165.5 -51.5t85.5 -142.5h-159q-9 31 -34 48.5t-59 17.5q-32 0 -57 -16t-39.5 -46t-14.5 -70q0 -30 8.5 -54t23 -41.5t35 -27t44.5 -9.5q23 0 41.5 7.5t32 22.5t19.5 36h159
q-18 -89 -85.5 -141.5t-165.5 -52.5zM308 555l-151 80v105l151 -86l150 86v-105z" />
    <glyph glyph-name="Dcaron" unicode="&#x10e;" horiz-adv-x="719" 
d="M65 0v700h252q121 0 201 -43.5t118.5 -122t38.5 -184.5q0 -105 -38.5 -183.5t-118 -122.5t-202.5 -44h-251zM215 129h92q82 0 129 26.5t66.5 76t19.5 118.5q0 70 -19.5 119.5t-66.5 76t-129 26.5h-92v-443zM295 742l-151 80v105l151 -86l150 86v-105z" />
    <glyph glyph-name="dcaron" unicode="&#x10f;" horiz-adv-x="776" 
d="M292 -12q-67 0 -122.5 34t-87.5 93.5t-32 133.5q0 75 32 133.5t87.5 92t123.5 33.5q53 0 92.5 -19t64.5 -53v284h150v-720h-133l-17 65v0q-15 -21 -36.5 -38.5t-51.5 -28t-70 -10.5zM329 119q37 0 65.5 17t45 46.5t16.5 65.5q0 38 -16.5 67t-45 45.5t-66.5 16.5
q-35 0 -64 -16.5t-45.5 -46t-16.5 -65.5q0 -37 16.5 -66.5t45.5 -46.5t65 -17zM643 511v59q24 0 35 8.5t11 27.5v18h-46v113h110q7 -30 10 -53.5t3 -48.5q0 -58 -31 -91t-92 -33z" />
    <glyph glyph-name="Dcroat" unicode="&#x110;" horiz-adv-x="728" 
d="M5 287v127h384v-127h-384zM74 0v700h251q122 0 202 -43.5t118.5 -122t38.5 -184.5q0 -105 -38.5 -183.5t-118 -122.5t-202.5 -44h-251zM224 129h92q82 0 129 26.5t66.5 76t19.5 118.5q0 70 -19.5 119.5t-66.5 76t-129 26.5h-92v-443z" />
    <glyph glyph-name="dcroat" unicode="&#x111;" horiz-adv-x="688" 
d="M312 563v86h356v-86h-356zM292 -12q-67 0 -122.5 34t-87.5 93.5t-32 133.5q0 75 32 133.5t87.5 92t123.5 33.5q53 0 92.5 -19t64.5 -53v284h150v-720h-133l-17 65v0q-15 -21 -36.5 -38.5t-51.5 -28t-70 -10.5zM329 119q37 0 65.5 17t45 46.5t16.5 65.5q0 38 -16.5 67
t-45 45.5t-66.5 16.5q-35 0 -64 -16.5t-45.5 -46t-16.5 -65.5q0 -37 16.5 -66.5t45.5 -46.5t65 -17z" />
    <glyph glyph-name="Emacron" unicode="&#x112;" horiz-adv-x="585" 
d="M65 0v700h469v-121h-319v-165h289v-116h-289v-177h319v-121h-469zM106 776v105h387v-105h-387z" />
    <glyph glyph-name="emacron" unicode="&#x113;" horiz-adv-x="612" 
d="M313 -12q-78 0 -137.5 32t-92.5 89.5t-33 132.5q0 77 32.5 137t92 94.5t138.5 34.5q74 0 132 -32t91 -88t33 -129q0 -10 -0.5 -22.5t-2.5 -25.5h-410v88h260q-3 39 -31.5 64t-70.5 25q-32 0 -59 -14.5t-42 -44t-15 -74.5v-29q0 -34 13.5 -60.5t39.5 -41t61 -14.5
q32 0 54 14t34 36h154q-15 -48 -49 -87t-83 -62t-109 -23zM118 586v105h387v-105h-387z" />
    <glyph glyph-name="Ebreve" unicode="&#x114;" horiz-adv-x="585" 
d="M65 0v700h469v-121h-319v-165h289v-116h-289v-177h319v-121h-469zM300 745q-49 0 -86 19.5t-57 55.5t-20 87v18h77q0 -32 18.5 -50.5t67.5 -18.5t67.5 18.5t18.5 50.5h78v-18q0 -51 -21 -87.5t-57.5 -55.5t-85.5 -19z" />
    <glyph glyph-name="ebreve" unicode="&#x115;" horiz-adv-x="612" 
d="M313 -12q-78 0 -137.5 32t-92.5 89.5t-33 132.5q0 77 32.5 137t92 94.5t138.5 34.5q74 0 132 -32t91 -88t33 -129q0 -10 -0.5 -22.5t-2.5 -25.5h-410v88h260q-3 39 -31.5 64t-70.5 25q-32 0 -59 -14.5t-42 -44t-15 -74.5v-29q0 -34 13.5 -60.5t39.5 -41t61 -14.5
q32 0 54 14t34 36h154q-15 -48 -49 -87t-83 -62t-109 -23zM312 555q-49 0 -86 19.5t-57 55.5t-20 88v17h77q0 -32 18.5 -50.5t67.5 -18.5t67.5 18.5t18.5 50.5h78v-18q0 -51 -21 -87.5t-57.5 -55.5t-85.5 -19z" />
    <glyph glyph-name="Edotaccent" unicode="&#x116;" horiz-adv-x="585" 
d="M65 0v700h469v-121h-319v-165h289v-116h-289v-177h319v-121h-469zM298 763q-28 0 -47.5 19.5t-19.5 47.5q0 30 19.5 49.5t47.5 19.5q30 0 49.5 -19.5t19.5 -49.5q0 -28 -19.5 -47.5t-49.5 -19.5z" />
    <glyph glyph-name="edotaccent" unicode="&#x117;" horiz-adv-x="612" 
d="M313 -12q-78 0 -137.5 32t-92.5 89.5t-33 132.5q0 77 32.5 137t92 94.5t138.5 34.5q74 0 132 -32t91 -88t33 -129q0 -10 -0.5 -22.5t-2.5 -25.5h-410v88h260q-3 39 -31.5 64t-70.5 25q-32 0 -59 -14.5t-42 -44t-15 -74.5v-29q0 -34 13.5 -60.5t39.5 -41t61 -14.5
q32 0 54 14t34 36h154q-15 -48 -49 -87t-83 -62t-109 -23zM310 563q-28 0 -47.5 19.5t-19.5 47.5q0 30 19.5 49.5t47.5 19.5q30 0 49.5 -19.5t19.5 -49.5q0 -28 -19.5 -47.5t-49.5 -19.5z" />
    <glyph glyph-name="Eogonek" unicode="&#x118;" horiz-adv-x="585" 
d="M65 0v700h469v-121h-319v-165h289v-116h-289v-177h319v-121h-469zM447 -214q-39 0 -71 12t-51 36.5t-19 61.5q0 28 13.5 54t46.5 51t92 49l43 19l32 -69l-49 -24q-36 -19 -51 -34t-15 -33q0 -17 12.5 -27t35.5 -10q15 0 34 4t39 11v-86q-20 -7 -43.5 -11t-48.5 -4z" />
    <glyph glyph-name="eogonek" unicode="&#x119;" horiz-adv-x="612" 
d="M313 -12q-78 0 -137.5 32t-92.5 89.5t-33 132.5q0 77 32.5 137t92 94.5t138.5 34.5q74 0 132 -32t91 -88t33 -129q0 -10 -0.5 -22.5t-2.5 -25.5h-410v88h260q-3 39 -31.5 64t-70.5 25q-32 0 -59 -14.5t-42 -44t-15 -74.5v-29q0 -34 13.5 -60.5t39.5 -41t61 -14.5
q32 0 54 14t34 36h154q-15 -48 -49 -87t-83 -62t-109 -23zM326 -203q-39 0 -71 12t-51 36.5t-19 61.5q0 28 13.5 54t46.5 51t92 49l43 19l32 -69l-49 -24q-36 -19 -51 -34t-15 -33q0 -17 12.5 -27t35.5 -10q15 0 34 4t39 11v-86q-20 -7 -43.5 -11t-48.5 -4z" />
    <glyph glyph-name="Ecaron" unicode="&#x11a;" horiz-adv-x="585" 
d="M65 0v700h469v-121h-319v-165h289v-116h-289v-177h319v-121h-469zM300 742l-151 80v105l151 -86l150 86v-105z" />
    <glyph glyph-name="ecaron" unicode="&#x11b;" horiz-adv-x="612" 
d="M313 -12q-78 0 -137.5 32t-92.5 89.5t-33 132.5q0 77 32.5 137t92 94.5t138.5 34.5q74 0 132 -32t91 -88t33 -129q0 -10 -0.5 -22.5t-2.5 -25.5h-410v88h260q-3 39 -31.5 64t-70.5 25q-32 0 -59 -14.5t-42 -44t-15 -74.5v-29q0 -34 13.5 -60.5t39.5 -41t61 -14.5
q32 0 54 14t34 36h154q-15 -48 -49 -87t-83 -62t-109 -23zM312 555l-151 80v105l151 -86l150 86v-105z" />
    <glyph glyph-name="Gbreve" unicode="&#x11e;" horiz-adv-x="781" 
d="M374 -12q-99 0 -173.5 44.5t-115.5 124.5t-41 187q0 108 42.5 191t122.5 130t190 47q126 0 208 -60t107 -166h-167q-15 42 -52.5 65t-96.5 23q-65 0 -110 -28.5t-68 -80t-23 -121.5q0 -72 23 -122t66.5 -75.5t104.5 -25.5q86 0 130.5 45t54.5 113h-164v112h314v-391h-138
l-12 81v0q-21 -30 -49.5 -51t-66 -31.5t-86.5 -10.5zM391 745q-49 0 -86 19.5t-57 55.5t-20 87v18h77q0 -32 18.5 -50.5t67.5 -18.5t67.5 18.5t18.5 50.5h78v-18q0 -51 -21 -87.5t-57.5 -55.5t-85.5 -19z" />
    <glyph glyph-name="gbreve" unicode="&#x11f;" horiz-adv-x="609" 
d="M286 -232q-73 0 -126.5 17.5t-83 52.5t-29.5 88q0 38 20.5 70t58.5 57.5t91 43.5l48 -77q-43 -13 -64 -33.5t-21 -45.5q0 -21 14.5 -34.5t38.5 -20.5t53 -7q27 0 48 7t33 20.5t12 31.5q0 25 -16.5 39.5t-67.5 18.5q-48 4 -87 12t-69.5 18.5t-52.5 23.5t-34 26v23l110 122
l101 -32l-131 -135l46 74q10 -6 21 -11t26.5 -9t39 -7.5t59.5 -6.5q65 -6 107.5 -25t63 -51t20.5 -77t-24.5 -84.5t-75.5 -64t-129 -24.5zM287 144q-63 0 -109 24.5t-71 65.5t-25 92q0 50 25 91t71 66t109 25t109 -25t70.5 -66t24.5 -91q0 -51 -24.5 -92t-70.5 -65.5
t-109 -24.5zM287 257q33 0 55 17.5t22 50.5t-22 50.5t-55 17.5q-34 0 -56 -17.5t-22 -50.5t22 -50.5t56 -17.5zM369 394l-22 102h209v-85zM287 555q-49 0 -86 19.5t-57 55.5t-20 88v17h77q0 -32 18.5 -50.5t67.5 -18.5t67.5 18.5t18.5 50.5h78v-18q0 -51 -21 -87.5
t-57.5 -55.5t-85.5 -19z" />
    <glyph glyph-name="Gdotaccent" unicode="&#x120;" horiz-adv-x="781" 
d="M374 -12q-99 0 -173.5 44.5t-115.5 124.5t-41 187q0 108 42.5 191t122.5 130t190 47q126 0 208 -60t107 -166h-167q-15 42 -52.5 65t-96.5 23q-65 0 -110 -28.5t-68 -80t-23 -121.5q0 -72 23 -122t66.5 -75.5t104.5 -25.5q86 0 130.5 45t54.5 113h-164v112h314v-391h-138
l-12 81v0q-21 -30 -49.5 -51t-66 -31.5t-86.5 -10.5zM389 763q-28 0 -47.5 19.5t-19.5 47.5q0 30 19.5 49.5t47.5 19.5q30 0 49.5 -19.5t19.5 -49.5q0 -28 -19.5 -47.5t-49.5 -19.5z" />
    <glyph glyph-name="gdotaccent" unicode="&#x121;" horiz-adv-x="609" 
d="M286 -232q-73 0 -126.5 17.5t-83 52.5t-29.5 88q0 38 20.5 70t58.5 57.5t91 43.5l48 -77q-43 -13 -64 -33.5t-21 -45.5q0 -21 14.5 -34.5t38.5 -20.5t53 -7q27 0 48 7t33 20.5t12 31.5q0 25 -16.5 39.5t-67.5 18.5q-48 4 -87 12t-69.5 18.5t-52.5 23.5t-34 26v23l110 122
l101 -32l-131 -135l46 74q10 -6 21 -11t26.5 -9t39 -7.5t59.5 -6.5q65 -6 107.5 -25t63 -51t20.5 -77t-24.5 -84.5t-75.5 -64t-129 -24.5zM287 144q-63 0 -109 24.5t-71 65.5t-25 92q0 50 25 91t71 66t109 25t109 -25t70.5 -66t24.5 -91q0 -51 -24.5 -92t-70.5 -65.5
t-109 -24.5zM287 257q33 0 55 17.5t22 50.5t-22 50.5t-55 17.5q-34 0 -56 -17.5t-22 -50.5t22 -50.5t56 -17.5zM369 394l-22 102h209v-85zM286 563q-28 0 -47.5 19.5t-19.5 47.5q0 30 19.5 49.5t47.5 19.5q30 0 49.5 -19.5t19.5 -49.5q0 -28 -19.5 -47.5t-49.5 -19.5z" />
    <glyph glyph-name="uni0122" unicode="&#x122;" horiz-adv-x="781" 
d="M374 -12q-99 0 -173.5 44.5t-115.5 124.5t-41 187q0 108 42.5 191t122.5 130t190 47q126 0 208 -60t107 -166h-167q-15 42 -52.5 65t-96.5 23q-65 0 -110 -28.5t-68 -80t-23 -121.5q0 -72 23 -122t66.5 -75.5t104.5 -25.5q86 0 130.5 45t54.5 113h-164v112h314v-391h-138
l-12 81v0q-21 -30 -49.5 -51t-66 -31.5t-86.5 -10.5zM329 -293v59q26 0 38.5 16t12.5 48v16h-59v112h120q10 -29 14 -56t4 -52q0 -65 -32.5 -104t-97.5 -39z" />
    <glyph glyph-name="uni0123" unicode="&#x123;" horiz-adv-x="609" 
d="M286 -232q-73 0 -126.5 17.5t-83 52.5t-29.5 88q0 38 20.5 70t58.5 57.5t91 43.5l48 -77q-43 -13 -64 -33.5t-21 -45.5q0 -21 14.5 -34.5t38.5 -20.5t53 -7q27 0 48 7t33 20.5t12 31.5q0 25 -16.5 39.5t-67.5 18.5q-48 4 -87 12t-69.5 18.5t-52.5 23.5t-34 26v23l110 122
l101 -32l-131 -135l46 74q10 -6 21 -11t26.5 -9t39 -7.5t59.5 -6.5q65 -6 107.5 -25t63 -51t20.5 -77t-24.5 -84.5t-75.5 -64t-129 -24.5zM287 144q-63 0 -109 24.5t-71 65.5t-25 92q0 50 25 91t71 66t109 25t109 -25t70.5 -66t24.5 -91q0 -51 -24.5 -92t-70.5 -65.5
t-109 -24.5zM287 257q33 0 55 17.5t22 50.5t-22 50.5t-55 17.5q-34 0 -56 -17.5t-22 -50.5t22 -50.5t56 -17.5zM369 394l-22 102h209v-85zM349 784v-59q-22 0 -34 -8.5t-12 -27.5v-18h46v-113h-110q-6 31 -9.5 54t-3.5 48q0 58 31 91t92 33z" />
    <glyph glyph-name="Hbar" unicode="&#x126;" horiz-adv-x="779" 
d="M25 493v117h730v-117h-730zM535 0v700h150v-700h-150zM95 0v700h150v-700h-150zM226 297v121h332v-121h-332z" />
    <glyph glyph-name="hbar" unicode="&#x127;" horiz-adv-x="650" 
d="M20 563v86h356v-86h-356zM87 0v720h150v-295v0q25 37 66 60t96 23q63 0 106 -27.5t65.5 -79.5t22.5 -126v-275h-149v261q0 58 -22.5 89.5t-74.5 31.5q-31 0 -56.5 -15t-39.5 -43.5t-14 -68.5v-255h-150z" />
    <glyph glyph-name="Itilde" unicode="&#x128;" horiz-adv-x="280" 
d="M65 0v700h150v-700h-150zM203 749q-29 0 -50 11.5t-38.5 23t-38.5 11.5q-16 0 -27.5 -11t-15.5 -34h-78q12 72 45 104t83 32q29 0 50 -11.5t39 -22.5t38 -11q17 0 28.5 11t14.5 34h78q-11 -72 -44.5 -104.5t-83.5 -32.5z" />
    <glyph glyph-name="itilde" unicode="&#x129;" horiz-adv-x="277" 
d="M64 0v496h150v-496h-150zM199 562q-29 0 -50 11t-38.5 22.5t-38.5 11.5q-16 0 -27.5 -11t-15.5 -34h-78q12 72 45 104.5t83 32.5q29 0 50 -11.5t39 -22.5t38 -11q17 0 28.5 11t14.5 34h78q-11 -72 -44.5 -104.5t-83.5 -32.5z" />
    <glyph glyph-name="Imacron" unicode="&#x12a;" horiz-adv-x="280" 
d="M65 0v700h150v-700h-150zM-53 776v105h387v-105h-387z" />
    <glyph glyph-name="imacron" unicode="&#x12b;" horiz-adv-x="277" 
d="M64 0v496h150v-496h-150zM-55 586v105h387v-105h-387z" />
    <glyph glyph-name="Ibreve" unicode="&#x12c;" horiz-adv-x="280" 
d="M65 0v700h150v-700h-150zM141 745q-49 0 -86 19.5t-57 55.5t-20 87v18h77q0 -32 18.5 -50.5t67.5 -18.5t67.5 18.5t18.5 50.5h78v-18q0 -51 -21 -87.5t-57.5 -55.5t-85.5 -19z" />
    <glyph glyph-name="ibreve" unicode="&#x12d;" horiz-adv-x="277" 
d="M64 0v496h150v-496h-150zM139 555q-49 0 -86 19.5t-57 55.5t-20 88v17h77q0 -32 18.5 -50.5t67.5 -18.5t67.5 18.5t18.5 50.5h78v-18q0 -51 -21 -87.5t-57.5 -55.5t-85.5 -19z" />
    <glyph glyph-name="Iogonek" unicode="&#x12e;" horiz-adv-x="280" 
d="M65 0v700h150v-700h-150zM129 -214q-39 0 -71 12t-51 36.5t-19 61.5q0 28 13.5 54t46.5 51t92 49l43 19l32 -69l-49 -24q-36 -19 -51 -34t-15 -33q0 -17 12.5 -27t35.5 -10q15 0 34 4t39 11v-86q-20 -7 -43.5 -11t-48.5 -4z" />
    <glyph glyph-name="iogonek" unicode="&#x12f;" horiz-adv-x="277" 
d="M64 0v496h150v-496h-150zM138 563q-28 0 -47.5 19.5t-19.5 47.5q0 30 19.5 49.5t47.5 19.5q30 0 49.5 -19.5t19.5 -49.5q0 -28 -19.5 -47.5t-49.5 -19.5zM128 -214q-39 0 -71 12t-51 36.5t-19 61.5q0 28 13.5 54t46.5 51t92 49l43 19l32 -69l-49 -24q-36 -19 -51 -34
t-15 -33q0 -17 12.5 -27t35.5 -10q15 0 34 4t39 11v-86q-20 -7 -43.5 -11t-48.5 -4z" />
    <glyph glyph-name="Idotaccent" unicode="&#x130;" horiz-adv-x="280" 
d="M65 0v700h150v-700h-150zM139 763q-28 0 -47.5 19.5t-19.5 47.5q0 30 19.5 49.5t47.5 19.5q30 0 49.5 -19.5t19.5 -49.5q0 -28 -19.5 -47.5t-49.5 -19.5z" />
    <glyph glyph-name="dotlessi" unicode="&#x131;" horiz-adv-x="277" 
d="M64 0v496h150v-496h-150z" />
    <glyph glyph-name="IJ" unicode="&#x132;" horiz-adv-x="796" 
d="M65 0v700h150v-700h-150zM508 -12q-70 0 -123 26.5t-82.5 78.5t-29.5 127h150q0 -31 9 -53t27 -33.5t45 -11.5q26 0 43 10.5t25 30.5t8 48v489h150v-489q0 -109 -60.5 -166t-161.5 -57z" />
    <glyph glyph-name="ij" unicode="&#x133;" horiz-adv-x="532" 
d="M66 0v496h150v-496h-150zM141 557q-40 0 -65 23t-25 58q0 36 25 59t65 23q41 0 66.5 -23t25.5 -59q0 -35 -25.5 -58t-66.5 -23zM220 -220v127h41q30 0 43 12.5t13 39.5v537h150v-536q0 -66 -23 -105.5t-64 -57t-97 -17.5h-63zM392 557q-40 0 -65 23t-25 58q0 36 25 59
t66 23q40 0 65 -23t25 -59q0 -35 -25 -58t-66 -23z" />
    <glyph glyph-name="uni0136" unicode="&#x136;" horiz-adv-x="669" 
d="M65 0v700h150v-265l242 265h184l-257 -277l266 -423h-184l-189 307l-62 -67v-240h-150zM273 -293v59q26 0 38.5 16t12.5 48v16h-59v112h120q10 -29 14 -56t4 -52q0 -65 -32.5 -104t-97.5 -39z" />
    <glyph glyph-name="uni0137" unicode="&#x137;" horiz-adv-x="600" 
d="M401 0l-209 273l184 223h176l-247 -287l-1 121l283 -330h-186zM64 0v720h150v-720h-150zM239 -293v59q26 0 38.5 16t12.5 48v16h-59v112h120q10 -29 14 -56t4 -52q0 -65 -32.5 -104t-97.5 -39z" />
    <glyph glyph-name="Lacute" unicode="&#x139;" horiz-adv-x="564" 
d="M65 0v700h150v-584h302v-116h-452zM28 743v105l234 118v0v-118z" />
    <glyph glyph-name="lacute" unicode="&#x13a;" horiz-adv-x="277" 
d="M64 0v720h150v-720h-150zM22 763v105l234 118v0v-118z" />
    <glyph glyph-name="uni013B" unicode="&#x13b;" horiz-adv-x="564" 
d="M65 0v700h150v-584h302v-116h-452zM258 -293v59q26 0 38.5 16t12.5 48v16h-59v112h120q10 -29 14 -56t4 -52q0 -65 -32.5 -104t-97.5 -39z" />
    <glyph glyph-name="uni013C" unicode="&#x13c;" horiz-adv-x="277" 
d="M64 0v720h150v-720h-150zM78 -293v59q26 0 38.5 16t12.5 48v16h-59v112h120q10 -29 14 -56t4 -52q0 -65 -32.5 -104t-97.5 -39z" />
    <glyph glyph-name="Lcaron" unicode="&#x13d;" horiz-adv-x="564" 
d="M65 0v700h150v-584h302v-116h-452zM327 491v59q24 0 35 8.5t11 27.5v18h-46v113h110q7 -30 10 -53.5t3 -48.5q0 -58 -31 -91t-92 -33z" />
    <glyph glyph-name="lcaron" unicode="&#x13e;" horiz-adv-x="390" 
d="M64 0v720h150v-720h-150zM257 511v59q24 0 35 8.5t11 27.5v18h-46v113h110q7 -30 10 -53.5t3 -48.5q0 -58 -31 -91t-92 -33z" />
    <glyph glyph-name="Ldot" unicode="&#x13f;" horiz-adv-x="564" 
d="M65 0v700h150v-584h302v-116h-452zM385 265q-41 0 -66 24.5t-25 59.5q0 36 25 60.5t66 24.5t66 -24.5t25 -60.5q0 -35 -25 -59.5t-66 -24.5z" />
    <glyph glyph-name="ldot" unicode="&#x140;" horiz-adv-x="485" 
d="M64 0v720h150v-720h-150zM365 237q-41 0 -66 24.5t-25 59.5q0 36 25 60.5t66 24.5t66 -24.5t25 -60.5q0 -35 -25 -59.5t-66 -24.5z" />
    <glyph glyph-name="Lslash" unicode="&#x141;" horiz-adv-x="588" 
d="M20 260v126l311 98v-125zM89 0v700h150v-584h301v-116h-451z" />
    <glyph glyph-name="lslash" unicode="&#x142;" horiz-adv-x="308" 
d="M11 274v126l286 92v-126zM78 0v720h150v-720h-150z" />
    <glyph glyph-name="Nacute" unicode="&#x143;" horiz-adv-x="737" 
d="M65 0v700h150l307 -459v0v459h150v-700h-150l-307 458v0v-458h-150zM251 743v105l234 118v0v-118z" />
    <glyph glyph-name="nacute" unicode="&#x144;" horiz-adv-x="626" 
d="M64 0v496h131l12 -81v0q23 41 65.5 67t102.5 26q63 0 106 -27.5t65.5 -79t22.5 -126.5v-275h-149v261q0 58 -22.5 89.5t-75.5 31.5q-31 0 -56 -15t-38.5 -43.5t-13.5 -68.5v-255h-150zM223 539v105l234 118v0v-118z" />
    <glyph glyph-name="uni0145" unicode="&#x145;" horiz-adv-x="737" 
d="M65 0v700h150l307 -459v0v459h150v-700h-150l-307 458v0v-458h-150zM307 -293v59q26 0 38.5 16t12.5 48v16h-59v112h120q10 -29 14 -56t4 -52q0 -65 -32.5 -104t-97.5 -39z" />
    <glyph glyph-name="uni0146" unicode="&#x146;" horiz-adv-x="626" 
d="M64 0v496h131l12 -81v0q23 41 65.5 67t102.5 26q63 0 106 -27.5t65.5 -79t22.5 -126.5v-275h-149v261q0 58 -22.5 89.5t-75.5 31.5q-31 0 -56 -15t-38.5 -43.5t-13.5 -68.5v-255h-150zM256 -293v59q26 0 38.5 16t12.5 48v16h-59v112h120q10 -29 14 -56t4 -52
q0 -65 -32.5 -104t-97.5 -39z" />
    <glyph glyph-name="Ncaron" unicode="&#x147;" horiz-adv-x="737" 
d="M65 0v700h150l307 -459v0v459h150v-700h-150l-307 458v0v-458h-150zM369 742l-151 80v105l151 -86l150 86v-105z" />
    <glyph glyph-name="ncaron" unicode="&#x148;" horiz-adv-x="626" 
d="M64 0v496h131l12 -81v0q23 41 65.5 67t102.5 26q63 0 106 -27.5t65.5 -79t22.5 -126.5v-275h-149v261q0 58 -22.5 89.5t-75.5 31.5q-31 0 -56 -15t-38.5 -43.5t-13.5 -68.5v-255h-150zM340 555l-151 80v105l151 -86l150 86v-105z" />
    <glyph glyph-name="Eng" unicode="&#x14a;" horiz-adv-x="737" 
d="M65 0v700h150l307 -459v0v459h150v-740q0 -66 -23 -105.5t-64 -57t-97 -17.5h-63v127h41q31 0 43.5 12t12.5 40v41l-307 458v0v-458h-150z" />
    <glyph glyph-name="eng" unicode="&#x14b;" horiz-adv-x="617" 
d="M64 0v496h131l12 -81v0q23 41 65.5 67t102.5 26q63 0 106 -27.5t65.5 -79t22.5 -126.5v-315q0 -66 -22.5 -105.5t-64 -57t-96.5 -17.5h-63v127h40q31 0 44 12.5t13 39.5v302q0 58 -22.5 89.5t-75.5 31.5q-31 0 -56 -15t-38.5 -43.5t-13.5 -68.5v-255h-150z" />
    <glyph glyph-name="Omacron" unicode="&#x14c;" horiz-adv-x="795" 
d="M397 -12q-104 0 -183.5 46t-124.5 127.5t-45 188.5t45 188.5t124.5 127.5t183.5 46q105 0 185 -46t124.5 -127.5t44.5 -188.5t-44.5 -188.5t-124.5 -127.5t-185 -46zM397 123q62 0 107 28t69.5 78.5t24.5 120.5t-24.5 120.5t-69.5 78t-107 27.5q-61 0 -106 -27.5
t-69.5 -78t-24.5 -120.5t24.5 -120.5t69.5 -78.5t106 -28zM204 776v105h387v-105h-387z" />
    <glyph glyph-name="omacron" unicode="&#x14d;" horiz-adv-x="613" 
d="M306 -12q-72 0 -130 33.5t-92 92.5t-34 134q0 76 34 135t92 92t130 33q73 0 131.5 -33t92.5 -92t34 -135t-34.5 -134.5t-92.5 -92t-131 -33.5zM306 118q30 0 53 14.5t37.5 43.5t14.5 72t-14 72t-37.5 43.5t-52.5 14.5q-28 0 -52 -14.5t-38.5 -43.5t-14.5 -72t14.5 -72
t38 -43.5t51.5 -14.5zM113 586v105h387v-105h-387z" />
    <glyph glyph-name="Obreve" unicode="&#x14e;" horiz-adv-x="795" 
d="M397 -12q-104 0 -183.5 46t-124.5 127.5t-45 188.5t45 188.5t124.5 127.5t183.5 46q105 0 185 -46t124.5 -127.5t44.5 -188.5t-44.5 -188.5t-124.5 -127.5t-185 -46zM397 123q62 0 107 28t69.5 78.5t24.5 120.5t-24.5 120.5t-69.5 78t-107 27.5q-61 0 -106 -27.5
t-69.5 -78t-24.5 -120.5t24.5 -120.5t69.5 -78.5t106 -28zM398 745q-49 0 -86 19.5t-57 55.5t-20 87v18h77q0 -32 18.5 -50.5t67.5 -18.5t67.5 18.5t18.5 50.5h78v-18q0 -51 -21 -87.5t-57.5 -55.5t-85.5 -19z" />
    <glyph glyph-name="obreve" unicode="&#x14f;" horiz-adv-x="613" 
d="M306 -12q-72 0 -130 33.5t-92 92.5t-34 134q0 76 34 135t92 92t130 33q73 0 131.5 -33t92.5 -92t34 -135t-34.5 -134.5t-92.5 -92t-131 -33.5zM306 118q30 0 53 14.5t37.5 43.5t14.5 72t-14 72t-37.5 43.5t-52.5 14.5q-28 0 -52 -14.5t-38.5 -43.5t-14.5 -72t14.5 -72
t38 -43.5t51.5 -14.5zM307 555q-49 0 -86 19.5t-57 55.5t-20 88v17h77q0 -32 18.5 -50.5t67.5 -18.5t67.5 18.5t18.5 50.5h78v-18q0 -51 -21 -87.5t-57.5 -55.5t-85.5 -19z" />
    <glyph glyph-name="Ohungarumlaut" unicode="&#x150;" horiz-adv-x="795" 
d="M397 -12q-104 0 -183.5 46t-124.5 127.5t-45 188.5t45 188.5t124.5 127.5t183.5 46q105 0 185 -46t124.5 -127.5t44.5 -188.5t-44.5 -188.5t-124.5 -127.5t-185 -46zM397 123q62 0 107 28t69.5 78.5t24.5 120.5t-24.5 120.5t-69.5 78t-107 27.5q-61 0 -106 -27.5
t-69.5 -78t-24.5 -120.5t24.5 -120.5t69.5 -78.5t106 -28zM431 745l85 195h121l-113 -195h-93zM249 745l73 195h120l-100 -195h-93z" />
    <glyph glyph-name="ohungarumlaut" unicode="&#x151;" horiz-adv-x="613" 
d="M306 -12q-72 0 -130 33.5t-92 92.5t-34 134q0 76 34 135t92 92t130 33q73 0 131.5 -33t92.5 -92t34 -135t-34.5 -134.5t-92.5 -92t-131 -33.5zM306 118q30 0 53 14.5t37.5 43.5t14.5 72t-14 72t-37.5 43.5t-52.5 14.5q-28 0 -52 -14.5t-38.5 -43.5t-14.5 -72t14.5 -72
t38 -43.5t51.5 -14.5zM339 541l85 195h121l-113 -195h-93zM157 541l73 195h120l-100 -195h-93z" />
    <glyph glyph-name="OE" unicode="&#x152;" horiz-adv-x="1096" 
d="M387 -12q-73 0 -135.5 26.5t-109.5 74.5t-72.5 114.5t-25.5 146.5t25.5 146.5t72.5 114.5t109.5 74.5t135.5 26.5q62 0 122 -25t97 -73v86h438v-121h-288v-165h258v-116h-258v-177h288v-121h-438v82q-24 -29 -59.5 -50t-77 -32.5t-82.5 -11.5zM401 123q57 0 103 28
t73.5 78.5t27.5 120.5t-27.5 120.5t-73.5 78t-103 27.5q-56 0 -102.5 -27.5t-74 -78t-27.5 -120.5t27.5 -120.5t74 -78.5t102.5 -28z" />
    <glyph glyph-name="oe" unicode="&#x153;" horiz-adv-x="974" 
d="M306 -12q-72 0 -130 33.5t-92 92t-34 134.5t34 135t92.5 92t130.5 33q56 0 101 -20.5t75 -57.5q34 37 82.5 57.5t108.5 20.5q75 0 132.5 -32t90.5 -88t33 -129q0 -10 -0.5 -22.5t-2.5 -25.5h-367q3 -30 17.5 -53t39.5 -35.5t56 -12.5q36 0 60.5 18.5t36.5 44.5h150
q-13 -52 -47.5 -94t-85 -66.5t-112.5 -24.5q-61 0 -110 20t-83 57q-31 -37 -76 -57t-100 -20zM306 118q30 0 53 14.5t37.5 43.5t14.5 72t-14 72t-37.5 43.5t-52.5 14.5q-28 0 -52 -14.5t-38.5 -43.5t-14.5 -72t14.5 -72t38 -43.5t51.5 -14.5zM564 299h213q-3 39 -31.5 64
t-70.5 25q-27 0 -49.5 -10t-38.5 -29.5t-23 -49.5z" />
    <glyph glyph-name="Racute" unicode="&#x154;" horiz-adv-x="638" 
d="M65 0v700h272q85 0 141.5 -29.5t84 -78.5t27.5 -109q0 -56 -26.5 -105t-82.5 -79t-145 -30h-121v-269h-150zM426 0l-141 306h161l150 -306h-170zM215 377h113q56 0 82.5 27t26.5 73q0 45 -26.5 71.5t-82.5 26.5h-113v-198zM202 743v105l234 118v0v-118z" />
    <glyph glyph-name="racute" unicode="&#x155;" horiz-adv-x="412" 
d="M64 0v496h133l14 -92v0q19 32 45.5 55t60.5 36t74 13v-159h-41q-31 0 -56 -6.5t-43 -21.5t-27.5 -41.5t-9.5 -65.5v-214h-150zM132 539v105l234 118v0v-118z" />
    <glyph glyph-name="uni0156" unicode="&#x156;" horiz-adv-x="638" 
d="M65 0v700h272q85 0 141.5 -29.5t84 -78.5t27.5 -109q0 -56 -26.5 -105t-82.5 -79t-145 -30h-121v-269h-150zM426 0l-141 306h161l150 -306h-170zM215 377h113q56 0 82.5 27t26.5 73q0 45 -26.5 71.5t-82.5 26.5h-113v-198zM258 -293v59q26 0 38.5 16t12.5 48v16h-59v112
h120q10 -29 14 -56t4 -52q0 -65 -32.5 -104t-97.5 -39z" />
    <glyph glyph-name="uni0157" unicode="&#x157;" horiz-adv-x="412" 
d="M64 0v496h133l14 -92v0q19 32 45.5 55t60.5 36t74 13v-159h-41q-31 0 -56 -6.5t-43 -21.5t-27.5 -41.5t-9.5 -65.5v-214h-150zM75 -293v59q26 0 38.5 16t12.5 48v16h-59v112h120q10 -29 14 -56t4 -52q0 -65 -32.5 -104t-97.5 -39z" />
    <glyph glyph-name="Rcaron" unicode="&#x158;" horiz-adv-x="638" 
d="M65 0v700h272q85 0 141.5 -29.5t84 -78.5t27.5 -109q0 -56 -26.5 -105t-82.5 -79t-145 -30h-121v-269h-150zM426 0l-141 306h161l150 -306h-170zM215 377h113q56 0 82.5 27t26.5 73q0 45 -26.5 71.5t-82.5 26.5h-113v-198zM319 742l-151 80v105l151 -86l150 86v-105z" />
    <glyph glyph-name="rcaron" unicode="&#x159;" horiz-adv-x="412" 
d="M64 0v496h133l14 -92v0q19 32 45.5 55t60.5 36t74 13v-159h-41q-31 0 -56 -6.5t-43 -21.5t-27.5 -41.5t-9.5 -65.5v-214h-150zM250 555l-151 80v105l151 -86l150 86v-105z" />
    <glyph glyph-name="Sacute" unicode="&#x15a;" horiz-adv-x="607" 
d="M311 -12q-75 0 -135.5 25.5t-95.5 75.5t-38 123h160q1 -29 15 -51t38 -34.5t56 -12.5q27 0 47.5 8.5t32.5 25t12 41.5q0 27 -14.5 46t-39 32t-56.5 24t-68 23q-81 27 -125 72.5t-44 122.5q0 64 31.5 109.5t86.5 69.5t125 24q72 0 127 -24.5t87 -71t34 -110.5h-161
q-1 22 -12.5 40t-31 29t-45.5 11q-23 1 -41.5 -6.5t-30 -23t-11.5 -38.5q0 -22 11.5 -38.5t32 -28t48 -21.5t60.5 -20q53 -18 97.5 -42.5t72 -64t27.5 -104.5q0 -57 -29.5 -105t-85 -77t-137.5 -29zM184 743v105l234 118v0v-118z" />
    <glyph glyph-name="sacute" unicode="&#x15b;" horiz-adv-x="537" 
d="M275 -12q-68 0 -120 22.5t-83 61t-35 87.5h149q4 -16 15.5 -29.5t29.5 -21t41 -7.5q25 0 40 6.5t22.5 17t7.5 21.5q0 18 -11.5 27t-33.5 15.5t-52 13.5q-33 9 -67.5 19t-63 25.5t-46 40t-17.5 61.5q0 44 25 80.5t72 58t113 21.5q93 0 147 -41.5t64 -113.5h-140
q-6 20 -24.5 31t-46.5 11q-32 0 -48.5 -11.5t-16.5 -26.5q0 -13 12.5 -22t35 -15.5t51.5 -13.5q56 -13 100 -28t70 -43t26 -81q1 -47 -25.5 -84.5t-75 -59.5t-115.5 -22zM152 539v105l234 118v0v-118z" />
    <glyph glyph-name="Scedilla" unicode="&#x15e;" horiz-adv-x="607" 
d="M311 -12q-75 0 -135.5 25.5t-95.5 75.5t-38 123h160q1 -29 15 -51t38 -34.5t56 -12.5q27 0 47.5 8.5t32.5 25t12 41.5q0 27 -14.5 46t-39 32t-56.5 24t-68 23q-81 27 -125 72.5t-44 122.5q0 64 31.5 109.5t86.5 69.5t125 24q72 0 127 -24.5t87 -71t34 -110.5h-161
q-1 22 -12.5 40t-31 29t-45.5 11q-23 1 -41.5 -6.5t-30 -23t-11.5 -38.5q0 -22 11.5 -38.5t32 -28t48 -21.5t60.5 -20q53 -18 97.5 -42.5t72 -64t27.5 -104.5q0 -57 -29.5 -105t-85 -77t-137.5 -29zM214 -268v84h122q22 0 34 7t12 24q0 16 -12 23t-34 7h-66v127h92v-50
q31 0 61 -11t49 -35t19 -64q0 -39 -19 -63.5t-49.5 -36.5t-65.5 -12h-143z" />
    <glyph glyph-name="scedilla" unicode="&#x15f;" horiz-adv-x="537" 
d="M275 -12q-68 0 -120 22.5t-83 61t-35 87.5h149q4 -16 15.5 -29.5t29.5 -21t41 -7.5q25 0 40 6.5t22.5 17t7.5 21.5q0 18 -11.5 27t-33.5 15.5t-52 13.5q-33 9 -67.5 19t-63 25.5t-46 40t-17.5 61.5q0 44 25 80.5t72 58t113 21.5q93 0 147 -41.5t64 -113.5h-140
q-6 20 -24.5 31t-46.5 11q-32 0 -48.5 -11.5t-16.5 -26.5q0 -13 12.5 -22t35 -15.5t51.5 -13.5q56 -13 100 -28t70 -43t26 -81q1 -47 -25.5 -84.5t-75 -59.5t-115.5 -22zM174 -268v84h122q22 0 34 7t12 24q0 16 -12 23t-34 7h-66v127h92v-50q31 0 61 -11t49 -35t19 -64
q0 -39 -19 -63.5t-49.5 -36.5t-65.5 -12h-143z" />
    <glyph glyph-name="Scaron" unicode="&#x160;" horiz-adv-x="607" 
d="M311 -12q-75 0 -135.5 25.5t-95.5 75.5t-38 123h160q1 -29 15 -51t38 -34.5t56 -12.5q27 0 47.5 8.5t32.5 25t12 41.5q0 27 -14.5 46t-39 32t-56.5 24t-68 23q-81 27 -125 72.5t-44 122.5q0 64 31.5 109.5t86.5 69.5t125 24q72 0 127 -24.5t87 -71t34 -110.5h-161
q-1 22 -12.5 40t-31 29t-45.5 11q-23 1 -41.5 -6.5t-30 -23t-11.5 -38.5q0 -22 11.5 -38.5t32 -28t48 -21.5t60.5 -20q53 -18 97.5 -42.5t72 -64t27.5 -104.5q0 -57 -29.5 -105t-85 -77t-137.5 -29zM302 742l-151 80v105l151 -86l150 86v-105z" />
    <glyph glyph-name="scaron" unicode="&#x161;" horiz-adv-x="537" 
d="M275 -12q-68 0 -120 22.5t-83 61t-35 87.5h149q4 -16 15.5 -29.5t29.5 -21t41 -7.5q25 0 40 6.5t22.5 17t7.5 21.5q0 18 -11.5 27t-33.5 15.5t-52 13.5q-33 9 -67.5 19t-63 25.5t-46 40t-17.5 61.5q0 44 25 80.5t72 58t113 21.5q93 0 147 -41.5t64 -113.5h-140
q-6 20 -24.5 31t-46.5 11q-32 0 -48.5 -11.5t-16.5 -26.5q0 -13 12.5 -22t35 -15.5t51.5 -13.5q56 -13 100 -28t70 -43t26 -81q1 -47 -25.5 -84.5t-75 -59.5t-115.5 -22zM269 555l-151 80v105l151 -86l150 86v-105z" />
    <glyph glyph-name="uni0162" unicode="&#x162;" horiz-adv-x="606" 
d="M228 0v579h-203v121h556v-121h-203v-579h-150zM208 -268v84h122q22 0 34 7t12 24q0 16 -12 23t-34 7h-66v127h92v-50q31 0 61 -11t49 -35t19 -64q0 -39 -19 -63.5t-49.5 -36.5t-65.5 -12h-143z" />
    <glyph glyph-name="uni0163" unicode="&#x163;" horiz-adv-x="438" 
d="M297 0q-55 0 -96.5 17.5t-65 57.5t-23.5 109v187h-84v125h84l16 139h134v-139h128v-125h-128v-189q0 -30 14 -42.5t46 -12.5h67v-127h-92zM194 -268v84h122q22 0 34 7t12 24q0 16 -12 23t-34 7h-66v127h92v-50q31 0 61 -11t49 -35t19 -64q0 -39 -19 -63.5t-49.5 -36.5
t-65.5 -12h-143z" />
    <glyph glyph-name="Tcaron" unicode="&#x164;" horiz-adv-x="606" 
d="M228 0v579h-203v121h556v-121h-203v-579h-150zM304 742l-151 80v105l151 -86l150 86v-105z" />
    <glyph glyph-name="tcaron" unicode="&#x165;" horiz-adv-x="438" 
d="M297 0q-55 0 -96.5 17.5t-65 57.5t-23.5 109v187h-84v125h84l16 139h134v-139h128v-125h-128v-189q0 -30 14 -42.5t46 -12.5h67v-127h-92zM322 537v59q24 0 35 8.5t11 27.5v18h-46v113h110q7 -30 10 -53.5t3 -48.5q0 -58 -31 -91t-92 -33z" />
    <glyph glyph-name="Utilde" unicode="&#x168;" horiz-adv-x="693" 
d="M344 -12q-79 0 -143.5 31.5t-102 94.5t-37.5 159v427h150v-428q0 -47 16 -80t46.5 -49.5t72.5 -16.5q44 0 74.5 16.5t46.5 49.5t16 80v428h150v-427q0 -96 -39.5 -159t-105 -94.5t-144.5 -31.5zM409 749q-29 0 -50 11.5t-38.5 23t-38.5 11.5q-16 0 -27.5 -11t-15.5 -34
h-78q12 72 45 104t83 32q29 0 50 -11.5t39 -22.5t38 -11q17 0 28.5 11t14.5 34h78q-11 -72 -44.5 -104.5t-83.5 -32.5z" />
    <glyph glyph-name="utilde" unicode="&#x169;" horiz-adv-x="626" 
d="M251 -12q-63 0 -106.5 27t-66 79t-22.5 127v275h150v-261q0 -58 22.5 -89.5t74.5 -31.5q32 0 57 15t38.5 43.5t13.5 67.5v256h150v-496h-131l-12 81v0q-23 -41 -65.5 -67t-102.5 -26zM368 562q-29 0 -50 11t-38.5 22.5t-38.5 11.5q-16 0 -27.5 -11t-15.5 -34h-78
q12 72 45 104.5t83 32.5q29 0 50 -11.5t39 -22.5t38 -11q17 0 28.5 11t14.5 34h78q-11 -72 -44.5 -104.5t-83.5 -32.5z" />
    <glyph glyph-name="Umacron" unicode="&#x16a;" horiz-adv-x="693" 
d="M344 -12q-79 0 -143.5 31.5t-102 94.5t-37.5 159v427h150v-428q0 -47 16 -80t46.5 -49.5t72.5 -16.5q44 0 74.5 16.5t46.5 49.5t16 80v428h150v-427q0 -96 -39.5 -159t-105 -94.5t-144.5 -31.5zM153 776v105h387v-105h-387z" />
    <glyph glyph-name="umacron" unicode="&#x16b;" horiz-adv-x="626" 
d="M251 -12q-63 0 -106.5 27t-66 79t-22.5 127v275h150v-261q0 -58 22.5 -89.5t74.5 -31.5q32 0 57 15t38.5 43.5t13.5 67.5v256h150v-496h-131l-12 81v0q-23 -41 -65.5 -67t-102.5 -26zM114 586v105h387v-105h-387z" />
    <glyph glyph-name="Ubreve" unicode="&#x16c;" horiz-adv-x="693" 
d="M344 -12q-79 0 -143.5 31.5t-102 94.5t-37.5 159v427h150v-428q0 -47 16 -80t46.5 -49.5t72.5 -16.5q44 0 74.5 16.5t46.5 49.5t16 80v428h150v-427q0 -96 -39.5 -159t-105 -94.5t-144.5 -31.5zM347 745q-49 0 -86 19.5t-57 55.5t-20 87v18h77q0 -32 18.5 -50.5
t67.5 -18.5t67.5 18.5t18.5 50.5h78v-18q0 -51 -21 -87.5t-57.5 -55.5t-85.5 -19z" />
    <glyph glyph-name="ubreve" unicode="&#x16d;" horiz-adv-x="626" 
d="M251 -12q-63 0 -106.5 27t-66 79t-22.5 127v275h150v-261q0 -58 22.5 -89.5t74.5 -31.5q32 0 57 15t38.5 43.5t13.5 67.5v256h150v-496h-131l-12 81v0q-23 -41 -65.5 -67t-102.5 -26zM308 555q-49 0 -86 19.5t-57 55.5t-20 88v17h77q0 -32 18.5 -50.5t67.5 -18.5
t67.5 18.5t18.5 50.5h78v-18q0 -51 -21 -87.5t-57.5 -55.5t-85.5 -19z" />
    <glyph glyph-name="Uring" unicode="&#x16e;" horiz-adv-x="693" 
d="M344 -12q-79 0 -143.5 31.5t-102 94.5t-37.5 159v427h150v-428q0 -47 16 -80t46.5 -49.5t72.5 -16.5q44 0 74.5 16.5t46.5 49.5t16 80v428h150v-427q0 -96 -39.5 -159t-105 -94.5t-144.5 -31.5zM347 746q-48 0 -83 31t-35 85q0 55 35 86t83 31q49 0 84 -31t35 -86
q0 -54 -35 -85t-84 -31zM347 811q21 0 35.5 14t14.5 38t-14.5 37.5t-35.5 13.5q-20 0 -35 -13.5t-15 -37.5t15 -38t35 -14z" />
    <glyph glyph-name="uring" unicode="&#x16f;" horiz-adv-x="626" 
d="M251 -12q-63 0 -106.5 27t-66 79t-22.5 127v275h150v-261q0 -58 22.5 -89.5t74.5 -31.5q32 0 57 15t38.5 43.5t13.5 67.5v256h150v-496h-131l-12 81v0q-23 -41 -65.5 -67t-102.5 -26zM308 562q-48 0 -83 31t-35 86q0 54 35 85t83 31q49 0 84 -31t35 -85q0 -55 -35 -86
t-84 -31zM308 627q21 0 35.5 14t14.5 38t-14.5 37.5t-35.5 13.5q-20 0 -35 -13.5t-15 -37.5t15 -38t35 -14z" />
    <glyph glyph-name="Uhungarumlaut" unicode="&#x170;" horiz-adv-x="693" 
d="M344 -12q-79 0 -143.5 31.5t-102 94.5t-37.5 159v427h150v-428q0 -47 16 -80t46.5 -49.5t72.5 -16.5q44 0 74.5 16.5t46.5 49.5t16 80v428h150v-427q0 -96 -39.5 -159t-105 -94.5t-144.5 -31.5zM379 745l85 195h121l-113 -195h-93zM197 745l73 195h120l-100 -195h-93z
" />
    <glyph glyph-name="uhungarumlaut" unicode="&#x171;" horiz-adv-x="626" 
d="M251 -12q-63 0 -106.5 27t-66 79t-22.5 127v275h150v-261q0 -58 22.5 -89.5t74.5 -31.5q32 0 57 15t38.5 43.5t13.5 67.5v256h150v-496h-131l-12 81v0q-23 -41 -65.5 -67t-102.5 -26zM341 541l85 195h121l-113 -195h-93zM159 541l73 195h120l-100 -195h-93z" />
    <glyph glyph-name="Uogonek" unicode="&#x172;" horiz-adv-x="693" 
d="M344 -12q-79 0 -143.5 31.5t-102 94.5t-37.5 159v427h150v-428q0 -47 16 -80t46.5 -49.5t72.5 -16.5q44 0 74.5 16.5t46.5 49.5t16 80v428h150v-427q0 -96 -39.5 -159t-105 -94.5t-144.5 -31.5zM339 -212q-39 0 -71 12t-51 36.5t-19 61.5q0 28 13.5 54t46.5 51t92 49
l43 19l32 -69l-49 -24q-36 -19 -51 -34t-15 -33q0 -17 12.5 -27t35.5 -10q15 0 34 4t39 11v-86q-20 -7 -43.5 -11t-48.5 -4z" />
    <glyph glyph-name="uogonek" unicode="&#x173;" horiz-adv-x="626" 
d="M251 -12q-63 0 -106.5 27t-66 79t-22.5 127v275h150v-261q0 -58 22.5 -89.5t74.5 -31.5q32 0 57 15t38.5 43.5t13.5 67.5v256h150v-496h-131l-12 81v0q-23 -41 -65.5 -67t-102.5 -26zM477 -214q-39 0 -71 12t-51 36.5t-19 61.5q0 28 13.5 54t46.5 51t92 49l43 19l32 -69
l-49 -24q-36 -19 -51 -34t-15 -33q0 -17 12.5 -27t35.5 -10q15 0 34 4t39 11v-86q-20 -7 -43.5 -11t-48.5 -4z" />
    <glyph glyph-name="Wcircumflex" unicode="&#x174;" horiz-adv-x="1031" 
d="M206 0l-182 700h161l113 -532v0l136 532h166l131 -531v0l114 531h161l-186 -700h-180l-125 489v0l-129 -489h-180zM365 742v106l151 79l150 -79v-106l-150 83z" />
    <glyph glyph-name="wcircumflex" unicode="&#x175;" horiz-adv-x="827" 
d="M159 0l-146 496h148l95 -415l-37 1l112 414h165l111 -414l-37 -1l95 415h148l-145 -496h-156l-119 425h41l-119 -425h-156zM263 542v105l151 80l150 -80v-105l-150 82z" />
    <glyph glyph-name="Ycircumflex" unicode="&#x176;" horiz-adv-x="649" 
d="M250 0v240l-239 460h170l163 -346h-37l163 346h168l-238 -460v-240h-150zM174 742v106l151 79l150 -79v-106l-150 83z" />
    <glyph glyph-name="ycircumflex" unicode="&#x177;" horiz-adv-x="617" 
d="M129 -220l124 276h-30l-205 440h164l140 -300v0l116 300h161l-311 -716h-159zM158 542v105l151 80l150 -80v-105l-150 82z" />
    <glyph glyph-name="Ydieresis" unicode="&#x178;" horiz-adv-x="649" 
d="M250 0v240l-239 460h170l163 -346h-37l163 346h168l-238 -460v-240h-150zM229 765q-28 0 -47.5 19.5t-19.5 48.5t19.5 48.5t47.5 19.5q30 0 49.5 -19.5t19.5 -48.5t-19.5 -48.5t-49.5 -19.5zM420 765q-29 0 -48.5 19.5t-19.5 48.5t19.5 48.5t48.5 19.5t48.5 -19.5
t19.5 -48.5t-19.5 -48.5t-48.5 -19.5z" />
    <glyph glyph-name="Zacute" unicode="&#x179;" horiz-adv-x="581" 
d="M49 0v115l310 461h-309v124h482v-115l-313 -461h314v-124h-484zM174 743v105l234 118v0v-118z" />
    <glyph glyph-name="zacute" unicode="&#x17a;" horiz-adv-x="492" 
d="M31 0v120l243 252h-240v124h411v-120l-246 -252h251v-124h-419zM127 539v105l234 118v0v-118z" />
    <glyph glyph-name="Zdotaccent" unicode="&#x17b;" horiz-adv-x="581" 
d="M49 0v115l310 461h-309v124h482v-115l-313 -461h314v-124h-484zM290 763q-28 0 -47.5 19.5t-19.5 47.5q0 30 19.5 49.5t47.5 19.5q30 0 49.5 -19.5t19.5 -49.5q0 -28 -19.5 -47.5t-49.5 -19.5z" />
    <glyph glyph-name="zdotaccent" unicode="&#x17c;" horiz-adv-x="492" 
d="M31 0v120l243 252h-240v124h411v-120l-246 -252h251v-124h-419zM243 563q-28 0 -47.5 19.5t-19.5 47.5q0 30 19.5 49.5t47.5 19.5q30 0 49.5 -19.5t19.5 -49.5q0 -28 -19.5 -47.5t-49.5 -19.5z" />
    <glyph glyph-name="Zcaron" unicode="&#x17d;" horiz-adv-x="581" 
d="M49 0v115l310 461h-309v124h482v-115l-313 -461h314v-124h-484zM291 742l-151 80v105l151 -86l150 86v-105z" />
    <glyph glyph-name="zcaron" unicode="&#x17e;" horiz-adv-x="492" 
d="M31 0v120l243 252h-240v124h411v-120l-246 -252h251v-124h-419zM245 555l-151 80v105l151 -86l150 86v-105z" />
    <glyph glyph-name="uni018F" unicode="&#x18f;" horiz-adv-x="771" 
d="M383 -12q-75 0 -137.5 23t-108 67.5t-69.5 108t-24 143.5q0 14 1.5 30t2.5 32h544v-105h-393q1 -48 24.5 -84.5t64.5 -57t93 -20.5q39 0 73.5 12.5t61 35.5t41 57.5t14.5 78.5v67q0 63 -24.5 108t-67 69t-94.5 24q-59 0 -104.5 -28.5t-62.5 -77.5h-164q19 71 65 125.5
t113.5 85t150.5 30.5q103 0 180.5 -45t120.5 -126.5t43 -191.5q0 -108 -43 -189.5t-120 -126.5t-181 -45z" />
    <glyph glyph-name="florin" unicode="&#x192;" horiz-adv-x="335" 
d="M-58 -248l12 127h25q21 0 31.5 11t12.5 35l70 658q10 103 72.5 149.5t180.5 46.5l-13 -127q-43 0 -65 -15t-25 -54l-70 -658q-6 -66 -33.5 -104t-71.5 -53.5t-100 -15.5h-26zM19 431l12 125h299l-12 -125h-299z" />
    <glyph glyph-name="AEacute" unicode="&#x1fc;" horiz-adv-x="953" 
d="M19 0l369 700h513v-119h-262v-167h232v-114h-232v-181h262v-119h-412v587v0l-307 -587h-163zM164 128l64 115h333v-115h-397zM466 743v105l234 118v0v-118z" />
    <glyph glyph-name="aeacute" unicode="&#x1fd;" horiz-adv-x="955" 
d="M250 -12q-64 0 -109 20t-68 54.5t-23 75.5q0 45 22 80.5t68.5 56t121.5 20.5h132q0 31 -9.5 51.5t-29 30.5t-48.5 10q-33 0 -58 -14.5t-30 -43.5h-145q5 53 36 93.5t81.5 63t115.5 22.5q58 0 103.5 -16t76.5 -46q33 29 77 45.5t93 16.5q74 0 131.5 -32t90.5 -88.5
t33 -130.5q0 -10 -0.5 -22.5t-2.5 -26.5h-361q3 -29 17.5 -51.5t38 -34.5t52.5 -12q36 0 60 18.5t36 44.5h150q-13 -52 -47.5 -94t-84.5 -66.5t-112 -24.5q-65 0 -118.5 25.5t-88.5 68.5q-20 -27 -47.5 -48.5t-65 -33.5t-88.5 -12zM273 102q30 0 53 13.5t38.5 36.5t21.5 52
v4h-103q-25 0 -41.5 -6.5t-24.5 -19t-8 -27.5q0 -16 8 -28t23 -18.5t33 -6.5zM550 296h209q-3 43 -31.5 67.5t-68.5 24.5q-25 0 -48 -10.5t-38.5 -30.5t-22.5 -51zM361 539v105l234 118v0v-118z" />
    <glyph glyph-name="uni0218" unicode="&#x218;" horiz-adv-x="607" 
d="M311 -12q-75 0 -135.5 25.5t-95.5 75.5t-38 123h160q1 -29 15 -51t38 -34.5t56 -12.5q27 0 47.5 8.5t32.5 25t12 41.5q0 27 -14.5 46t-39 32t-56.5 24t-68 23q-81 27 -125 72.5t-44 122.5q0 64 31.5 109.5t86.5 69.5t125 24q72 0 127 -24.5t87 -71t34 -110.5h-161
q-1 22 -12.5 40t-31 29t-45.5 11q-23 1 -41.5 -6.5t-30 -23t-11.5 -38.5q0 -22 11.5 -38.5t32 -28t48 -21.5t60.5 -20q53 -18 97.5 -42.5t72 -64t27.5 -104.5q0 -57 -29.5 -105t-85 -77t-137.5 -29zM248 -293v59q26 0 38.5 16t12.5 48v16h-59v112h120q10 -29 14 -56t4 -52
q0 -65 -32.5 -104t-97.5 -39z" />
    <glyph glyph-name="uni0219" unicode="&#x219;" horiz-adv-x="537" 
d="M275 -12q-68 0 -120 22.5t-83 61t-35 87.5h149q4 -16 15.5 -29.5t29.5 -21t41 -7.5q25 0 40 6.5t22.5 17t7.5 21.5q0 18 -11.5 27t-33.5 15.5t-52 13.5q-33 9 -67.5 19t-63 25.5t-46 40t-17.5 61.5q0 44 25 80.5t72 58t113 21.5q93 0 147 -41.5t64 -113.5h-140
q-6 20 -24.5 31t-46.5 11q-32 0 -48.5 -11.5t-16.5 -26.5q0 -13 12.5 -22t35 -15.5t51.5 -13.5q56 -13 100 -28t70 -43t26 -81q1 -47 -25.5 -84.5t-75 -59.5t-115.5 -22zM208 -293v59q26 0 38.5 16t12.5 48v16h-59v112h120q10 -29 14 -56t4 -52q0 -65 -32.5 -104t-97.5 -39z
" />
    <glyph glyph-name="uni021A" unicode="&#x21a;" horiz-adv-x="606" 
d="M228 0v579h-203v121h556v-121h-203v-579h-150zM242 -293v59q26 0 38.5 16t12.5 48v16h-59v112h120q10 -29 14 -56t4 -52q0 -65 -32.5 -104t-97.5 -39z" />
    <glyph glyph-name="uni021B" unicode="&#x21b;" horiz-adv-x="438" 
d="M297 0q-55 0 -96.5 17.5t-65 57.5t-23.5 109v187h-84v125h84l16 139h134v-139h128v-125h-128v-189q0 -30 14 -42.5t46 -12.5h67v-127h-92zM228 -293v59q26 0 38.5 16t12.5 48v16h-59v112h120q10 -29 14 -56t4 -52q0 -65 -32.5 -104t-97.5 -39z" />
    <glyph glyph-name="uni0237" unicode="&#x237;" horiz-adv-x="265" 
d="M-30 -220v127h41q30 0 43 12.5t13 39.5v537h150v-536q0 -66 -23 -105.5t-64 -57t-97 -17.5h-63z" />
    <glyph glyph-name="uni0259" unicode="&#x259;" horiz-adv-x="612" 
d="M299 508q78 0 137.5 -32t93 -89.5t33.5 -132.5q0 -76 -33 -136.5t-92 -95t-139 -34.5q-73 0 -131.5 32t-91 88.5t-32.5 128.5q0 11 0.5 23t1.5 25h410v-88h-260q3 -39 31.5 -64t70.5 -25q34 0 60 14.5t41.5 44.5t15.5 74v29q0 34 -14 60.5t-39.5 41t-60.5 14.5
q-32 0 -54.5 -14t-34.5 -36h-154q16 49 49.5 87.5t82.5 61.5t109 23z" />
    <glyph glyph-name="circumflex" unicode="&#x2c6;" horiz-adv-x="327" 
d="M13 538v106l151 79l150 -79v-106l-150 83z" />
    <glyph glyph-name="caron" unicode="&#x2c7;" horiz-adv-x="327" 
d="M164 538l-151 80v105l151 -86l150 86v-105z" />
    <glyph glyph-name="breve" unicode="&#x2d8;" horiz-adv-x="352" 
d="M176 541q-49 0 -86 19.5t-57 55.5t-20 87v18h76q0 -32 19 -50.5t68 -18.5q48 0 67 18.5t19 50.5h77v-18q0 -51 -20.5 -87.5t-57 -55.5t-85.5 -19z" />
    <glyph glyph-name="dotaccent" unicode="&#x2d9;" horiz-adv-x="163" 
d="M81 559q-28 0 -47.5 19.5t-19.5 47.5q0 30 19.5 49.5t47.5 19.5q29 0 48.5 -19.5t19.5 -49.5q0 -28 -19.5 -47.5t-48.5 -19.5z" />
    <glyph glyph-name="ring" unicode="&#x2da;" horiz-adv-x="259" 
d="M129 542q-48 0 -82.5 31t-34.5 85q0 55 34.5 86t82.5 31q50 0 84.5 -31t34.5 -86q0 -54 -34.5 -85t-84.5 -31zM130 607q21 0 35.5 14t14.5 38t-14.5 37.5t-35.5 13.5q-20 0 -35 -13.5t-15 -37.5t15 -38t35 -14z" />
    <glyph glyph-name="ogonek" unicode="&#x2db;" horiz-adv-x="233" 
d="M141 -214q-39 0 -71 12t-51 36.5t-19 61.5q0 28 13.5 54t46.5 51t92 49l43 19l32 -69l-49 -24q-36 -19 -51 -34t-15 -33q0 -17 12.5 -27t35.5 -10q15 0 34 4t39 11v-86q-20 -7 -43.5 -11t-48.5 -4z" />
    <glyph glyph-name="tilde" unicode="&#x2dc;" horiz-adv-x="394" 
d="M257 545q-29 0 -50 11.5t-38.5 23t-38.5 11.5q-16 0 -27.5 -11t-15.5 -34h-78q12 72 45 104t82 32q30 0 51 -11.5t38.5 -22.5t38.5 -11q17 0 28.5 11t14.5 34h78q-11 -72 -44.5 -104.5t-83.5 -32.5z" />
    <glyph glyph-name="hungarumlaut" unicode="&#x2dd;" horiz-adv-x="418" 
d="M195 541l85 195h121l-113 -195h-93zM13 541l73 195h120l-100 -195h-93z" />
    <glyph glyph-name="gravecomb" unicode="&#x300;" 
d="M234 539l-234 105v118v0l234 -118v-105z" />
    <glyph glyph-name="acutecomb" unicode="&#x301;" 
d="M0 539v105l234 118v0v-118z" />
    <glyph glyph-name="uni0302" unicode="&#x302;" 
d="M0 542v105l151 80l150 -80v-105l-150 82z" />
    <glyph glyph-name="tildecomb" unicode="&#x303;" 
d="M248 562q-29 0 -50 11t-38.5 22.5t-38.5 11.5q-16 0 -27.5 -11t-15.5 -34h-78q12 72 45 104.5t83 32.5q29 0 50 -11.5t39 -22.5t38 -11q17 0 28.5 11t14.5 34h78q-11 -72 -44.5 -104.5t-83.5 -32.5z" />
    <glyph glyph-name="uni0304" unicode="&#x304;" 
d="M0 586v105h387v-105h-387z" />
    <glyph glyph-name="uni0306" unicode="&#x306;" 
d="M163 555q-49 0 -86 19.5t-57 55.5t-20 88v17h77q0 -32 18.5 -50.5t67.5 -18.5t67.5 18.5t18.5 50.5h78v-18q0 -51 -21 -87.5t-57.5 -55.5t-85.5 -19z" />
    <glyph glyph-name="uni0307" unicode="&#x307;" 
d="M67 563q-28 0 -47.5 19.5t-19.5 47.5q0 30 19.5 49.5t47.5 19.5q30 0 49.5 -19.5t19.5 -49.5q0 -28 -19.5 -47.5t-49.5 -19.5z" />
    <glyph glyph-name="uni0308" unicode="&#x308;" 
d="M67 562q-28 0 -47.5 19.5t-19.5 47.5q0 30 19.5 49.5t47.5 19.5q30 0 49.5 -19.5t19.5 -49.5q0 -28 -19.5 -47.5t-49.5 -19.5zM258 562q-29 0 -48.5 19.5t-19.5 47.5q0 30 19.5 49.5t48.5 19.5t48.5 -19.5t19.5 -49.5q0 -28 -19.5 -47.5t-48.5 -19.5z" />
    <glyph glyph-name="uni030A" unicode="&#x30a;" 
d="M118 562q-48 0 -83 31t-35 86q0 54 35 85t83 31q49 0 84 -31t35 -85q0 -55 -35 -86t-84 -31zM118 627q21 0 35.5 14t14.5 38t-14.5 37.5t-35.5 13.5q-20 0 -35 -13.5t-15 -37.5t15 -38t35 -14z" />
    <glyph glyph-name="uni030B" unicode="&#x30b;" 
d="M182 541l85 195h121l-113 -195h-93zM0 541l73 195h120l-100 -195h-93z" />
    <glyph glyph-name="uni030C" unicode="&#x30c;" 
d="M151 555l-151 80v105l151 -86l150 86v-105z" />
    <glyph glyph-name="uni0312" unicode="&#x312;" 
d="M123 784v-59q-22 0 -34 -8.5t-12 -27.5v-18h46v-113h-110q-6 31 -9.5 54t-3.5 48q0 58 31 91t92 33z" />
    <glyph glyph-name="uni0326" unicode="&#x326;" 
d="M8 -293v59q26 0 38.5 16t12.5 48v16h-59v112h120q10 -29 14 -56t4 -52q0 -65 -32.5 -104t-97.5 -39z" />
    <glyph glyph-name="uni0327" unicode="&#x327;" 
d="M0 -265v84h122q22 0 34 7t12 24q0 16 -12 23t-34 7h-66v127h92v-50q31 0 61 -11t49 -35t19 -64q0 -39 -19 -63.5t-49.5 -36.5t-65.5 -12h-143z" />
    <glyph glyph-name="uni0328" unicode="&#x328;" 
d="M141 -214q-39 0 -71 12t-51 36.5t-19 61.5q0 28 13.5 54t46.5 51t92 49l43 19l32 -69l-49 -24q-36 -19 -51 -34t-15 -33q0 -17 12.5 -27t35.5 -10q15 0 34 4t39 11v-86q-20 -7 -43.5 -11t-48.5 -4z" />
    <glyph glyph-name="pi" unicode="&#x3c0;" horiz-adv-x="647" 
d="M98 0v381h-72v115h594v-115h-72v-381h-150v381h-150v-381h-150z" />
    <glyph glyph-name="Wgrave" unicode="&#x1e80;" horiz-adv-x="1031" 
d="M206 0l-182 700h161l113 -532v0l136 532h166l131 -531v0l114 531h161l-186 -700h-180l-125 489v0l-129 -489h-180zM632 743l-234 105v118v0l234 -118v-105z" />
    <glyph glyph-name="wgrave" unicode="&#x1e81;" horiz-adv-x="827" 
d="M159 0l-146 496h148l95 -415l-37 1l112 414h165l111 -414l-37 -1l95 415h148l-145 -496h-156l-119 425h41l-119 -425h-156zM530 539l-234 105v118v0l234 -118v-105z" />
    <glyph glyph-name="Wacute" unicode="&#x1e82;" horiz-adv-x="1031" 
d="M206 0l-182 700h161l113 -532v0l136 532h166l131 -531v0l114 531h161l-186 -700h-180l-125 489v0l-129 -489h-180zM398 743v105l234 118v0v-118z" />
    <glyph glyph-name="wacute" unicode="&#x1e83;" horiz-adv-x="827" 
d="M159 0l-146 496h148l95 -415l-37 1l112 414h165l111 -414l-37 -1l95 415h148l-145 -496h-156l-119 425h41l-119 -425h-156zM296 539v105l234 118v0v-118z" />
    <glyph glyph-name="Wdieresis" unicode="&#x1e84;" horiz-adv-x="1031" 
d="M206 0l-182 700h161l113 -532v0l136 532h166l131 -531v0l114 531h161l-186 -700h-180l-125 489v0l-129 -489h-180zM419 765q-28 0 -47.5 19.5t-19.5 48.5t19.5 48.5t47.5 19.5q30 0 49.5 -19.5t19.5 -48.5t-19.5 -48.5t-49.5 -19.5zM610 765q-29 0 -48.5 19.5t-19.5 48.5
t19.5 48.5t48.5 19.5t48.5 -19.5t19.5 -48.5t-19.5 -48.5t-48.5 -19.5z" />
    <glyph glyph-name="wdieresis" unicode="&#x1e85;" horiz-adv-x="827" 
d="M159 0l-146 496h148l95 -415l-37 1l112 414h165l111 -414l-37 -1l95 415h148l-145 -496h-156l-119 425h41l-119 -425h-156zM317 562q-28 0 -47.5 19.5t-19.5 47.5q0 30 19.5 49.5t47.5 19.5q30 0 49.5 -19.5t19.5 -49.5q0 -28 -19.5 -47.5t-49.5 -19.5zM508 562
q-29 0 -48.5 19.5t-19.5 47.5q0 30 19.5 49.5t48.5 19.5t48.5 -19.5t19.5 -49.5q0 -28 -19.5 -47.5t-48.5 -19.5z" />
    <glyph glyph-name="uni1E9E" unicode="&#x1e9e;" horiz-adv-x="746" 
d="M478 -6q-107 0 -165 58.5t-58 169.5h147q0 -46 18 -74.5t61 -28.5q29 0 46.5 13t25 36.5t7.5 53.5q-1 60 -30.5 87t-87.5 27h-103v98l133 138h-201q-30 0 -43 -12t-13 -40v-520h-150v520q0 66 23 105.5t64 57t96 17.5h398v-113l-154 -156h13q64 0 107.5 -27.5t66.5 -74.5
t23 -106q0 -73 -26.5 -124.5t-76.5 -78t-121 -26.5z" />
    <glyph glyph-name="uni1EBC" unicode="&#x1ebc;" horiz-adv-x="585" 
d="M65 0v700h469v-121h-319v-165h289v-116h-289v-177h319v-121h-469zM362 749q-29 0 -50 11.5t-38.5 23t-38.5 11.5q-16 0 -27.5 -11t-15.5 -34h-78q12 72 45 104t83 32q29 0 50 -11.5t39 -22.5t38 -11q17 0 28.5 11t14.5 34h78q-11 -72 -44.5 -104.5t-83.5 -32.5z" />
    <glyph glyph-name="uni1EBD" unicode="&#x1ebd;" horiz-adv-x="612" 
d="M313 -12q-78 0 -137.5 32t-92.5 89.5t-33 132.5q0 77 32.5 137t92 94.5t138.5 34.5q74 0 132 -32t91 -88t33 -129q0 -10 -0.5 -22.5t-2.5 -25.5h-410v88h260q-3 39 -31.5 64t-70.5 25q-32 0 -59 -14.5t-42 -44t-15 -74.5v-29q0 -34 13.5 -60.5t39.5 -41t61 -14.5
q32 0 54 14t34 36h154q-15 -48 -49 -87t-83 -62t-109 -23zM371 562q-29 0 -50 11t-38.5 22.5t-38.5 11.5q-16 0 -27.5 -11t-15.5 -34h-78q12 72 45 104.5t83 32.5q29 0 50 -11.5t39 -22.5t38 -11q17 0 28.5 11t14.5 34h78q-11 -72 -44.5 -104.5t-83.5 -32.5z" />
    <glyph glyph-name="Ygrave" unicode="&#x1ef2;" horiz-adv-x="649" 
d="M250 0v240l-239 460h170l163 -346h-37l163 346h168l-238 -460v-240h-150zM442 743l-234 105v118v0l234 -118v-105z" />
    <glyph glyph-name="ygrave" unicode="&#x1ef3;" horiz-adv-x="617" 
d="M129 -220l124 276h-30l-205 440h164l140 -300v0l116 300h161l-311 -716h-159zM426 539l-234 105v118v0l234 -118v-105z" />
    <glyph glyph-name="uni1EF8" unicode="&#x1ef8;" horiz-adv-x="649" 
d="M250 0v240l-239 460h170l163 -346h-37l163 346h168l-238 -460v-240h-150zM387 749q-29 0 -50 11.5t-38.5 23t-38.5 11.5q-16 0 -27.5 -11t-15.5 -34h-78q12 72 45 104t83 32q29 0 50 -11.5t39 -22.5t38 -11q17 0 28.5 11t14.5 34h78q-11 -72 -44.5 -104.5t-83.5 -32.5z
" />
    <glyph glyph-name="uni1EF9" unicode="&#x1ef9;" horiz-adv-x="617" 
d="M129 -220l124 276h-30l-205 440h164l140 -300v0l116 300h161l-311 -716h-159zM369 562q-29 0 -50 11t-38.5 22.5t-38.5 11.5q-16 0 -27.5 -11t-15.5 -34h-78q12 72 45 104.5t83 32.5q29 0 50 -11.5t39 -22.5t38 -11q17 0 28.5 11t14.5 34h78q-11 -72 -44.5 -104.5
t-83.5 -32.5z" />
    <glyph glyph-name="endash" unicode="&#x2013;" horiz-adv-x="704" 
d="M78 227v125h548v-125h-548z" />
    <glyph glyph-name="emdash" unicode="&#x2014;" horiz-adv-x="932" 
d="M78 227v125h775v-125h-775z" />
    <glyph glyph-name="quoteleft" unicode="&#x2018;" horiz-adv-x="268" 
d="M30 443l107 257h101l-53 -257h-155z" />
    <glyph glyph-name="quoteright" unicode="&#x2019;" horiz-adv-x="268" 
d="M238 700l-106 -257h-102l53 257h155z" />
    <glyph glyph-name="quotesinglbase" unicode="&#x201a;" horiz-adv-x="267" 
d="M24 -108l53 257h156l-107 -257h-102z" />
    <glyph glyph-name="quotedblleft" unicode="&#x201c;" horiz-adv-x="479" 
d="M241 443l107 257h101l-54 -257h-154zM30 443l107 257h101l-53 -257h-155z" />
    <glyph glyph-name="quotedblright" unicode="&#x201d;" horiz-adv-x="479" 
d="M238 700l-107 -257h-101l53 257h155zM449 700l-107 -257h-102l53 257h156z" />
    <glyph glyph-name="quotedblbase" unicode="&#x201e;" horiz-adv-x="477" 
d="M24 -108l53 257h156l-107 -257h-102zM235 -108l53 257h154l-106 -257h-101z" />
    <glyph glyph-name="dagger" unicode="&#x2020;" horiz-adv-x="624" 
d="M237 -264l15 716l-204 -11v115l204 -12l-15 243h150l-15 -243l204 12v-115l-204 11l15 -716h-150z" />
    <glyph glyph-name="daggerdbl" unicode="&#x2021;" horiz-adv-x="625" 
d="M237 -264l15 243l-204 -12v115l204 -12v382l-204 -11v115l204 -12l-15 243h150l-15 -243l204 12v-115l-204 11v-382l204 12v-115l-204 12l15 -243h-150z" />
    <glyph glyph-name="bullet" unicode="&#x2022;" horiz-adv-x="391" 
d="M195 190q-40 0 -72 19t-51.5 51.5t-19.5 72.5q0 41 19 73.5t51.5 51.5t72.5 19t73 -19t51.5 -51.5t18.5 -73.5q0 -40 -19 -72.5t-51.5 -51.5t-72.5 -19z" />
    <glyph glyph-name="ellipsis" unicode="&#x2026;" horiz-adv-x="716" 
d="M358 -5q-41 0 -66 24.5t-25 59.5q0 36 25 60.5t66 24.5t66 -24.5t25 -60.5q0 -35 -25 -59.5t-66 -24.5zM585 -5q-41 0 -66 24.5t-25 59.5q0 36 25 60.5t66 24.5t66 -24.5t25 -60.5q0 -35 -25 -59.5t-66 -24.5zM131 -5q-41 0 -66 24.5t-25 59.5q0 36 25 60.5t66 24.5
t66 -24.5t25 -60.5q0 -35 -25 -59.5t-66 -24.5z" />
    <glyph glyph-name="perthousand" unicode="&#x2030;" horiz-adv-x="1307" 
d="M1090 -12q-50 0 -90.5 22t-64 63t-23.5 97q0 58 23.5 98.5t64.5 62.5t90 22q50 0 90 -22t63.5 -62.5t23.5 -98.5q0 -56 -23.5 -97t-63.5 -63t-90 -22zM1089 88q19 0 33 10t22 28t8 44q0 28 -8 46t-22 28t-32 10q-19 0 -33 -10t-22 -28t-8 -46q0 -26 8 -44t22 -28t32 -10z
M192 0l389 700h145l-389 -700h-145zM704 -12q-50 0 -90.5 22t-64 63t-23.5 97q0 58 23.5 98.5t64 62.5t90.5 22t90 -22t63.5 -62.5t23.5 -98.5q0 -56 -23.5 -97t-63.5 -63t-90 -22zM703 89q18 0 32 9.5t22 27.5t8 44q0 28 -7.5 46t-21.5 27.5t-33 9.5q-18 0 -32 -9.5
t-22 -27.5t-8 -45t8 -45t22 -27.5t32 -9.5zM219 347q-50 0 -90.5 22t-64.5 63t-24 97q0 58 24 98.5t64.5 62.5t90.5 22t89.5 -22t63.5 -62.5t24 -98.5q0 -56 -24 -97t-63.5 -63t-89.5 -22zM218 448q18 0 32 9.5t22 27.5t8 44q0 28 -8 46t-22 27.5t-32 9.5t-32 -9.5
t-22 -27.5t-8 -46q0 -26 8 -44t22 -27.5t32 -9.5z" />
    <glyph glyph-name="guilsinglleft" unicode="&#x2039;" horiz-adv-x="318" 
d="M128 120l-87 175l87 175h140l-90 -175l90 -175h-140z" />
    <glyph glyph-name="guilsinglright" unicode="&#x203a;" horiz-adv-x="318" 
d="M190 120h-140l90 175l-90 175h140l87 -175z" />
    <glyph glyph-name="fraction" unicode="&#x2044;" horiz-adv-x="536" 
d="M2 0l389 700h145l-389 -700h-145z" />
    <glyph glyph-name="uni2074" unicode="&#x2074;" horiz-adv-x="358" 
d="M191 352v59h-163v74l151 215h122v-214h34v-75h-34v-59h-110zM139 486h60v93v0z" />
    <glyph glyph-name="uni20A8" unicode="&#x20a8;" horiz-adv-x="1141" 
d="M65 0v700h272q85 0 141.5 -29.5t84 -78.5t27.5 -109q0 -56 -26.5 -105t-82.5 -79t-145 -30h-121v-269h-150zM426 0l-141 306h161l150 -306h-170zM215 377h113q56 0 82.5 27t26.5 73q0 45 -26.5 71.5t-82.5 26.5h-113v-198zM879 -12q-68 0 -120 22.5t-83 61t-35 87.5h149
q4 -16 15.5 -29.5t29.5 -21t41 -7.5q25 0 40 6.5t22.5 17t7.5 21.5q0 18 -11.5 27t-33.5 15.5t-52 13.5q-33 9 -67.5 19t-63 25.5t-46 40t-17.5 61.5q0 44 25 80.5t72 58t113 21.5q93 0 147 -41.5t64 -113.5h-140q-6 20 -24.5 31t-46.5 11q-32 0 -48.5 -11.5t-16.5 -26.5
q0 -13 12.5 -22t35 -15.5t51.5 -13.5q56 -13 100 -28t70 -43t26 -81q1 -47 -25.5 -84.5t-75 -59.5t-115.5 -22z" />
    <glyph glyph-name="Euro" unicode="&#x20ac;" horiz-adv-x="797" 
d="M21 234v83h432v-83h-432zM21 382v83h432v-83h-432zM437 -12q-106 0 -183 45.5t-118 127t-41 187.5q0 108 41 189.5t118 128t183 46.5q130 0 213 -65t103 -183h-165q-12 53 -50.5 82.5t-101.5 29.5q-60 0 -102 -28t-64 -78.5t-22 -121.5q0 -69 22 -119.5t64 -78t102 -27.5
q63 0 101.5 26.5t50.5 76.5h165q-20 -111 -103 -174.5t-213 -63.5z" />
    <glyph glyph-name="uni20B9" unicode="&#x20b9;" horiz-adv-x="608" 
d="M290 -12q-107 0 -165 57t-58 171v134q92 0 146.5 5t80.5 19.5t34.5 45.5t8.5 84v144h140v-141q0 -63 -14 -111t-45 -80t-83 -48.5t-128 -16.5v-53q0 -42 17.5 -69t63.5 -27q43 0 60.5 25.5t17.5 70.5h138q-3 -99 -56.5 -154.5t-157.5 -55.5zM42 433v93h532v-93h-532z
M42 598v102h532v-102h-532z" />
    <glyph glyph-name="uni20BA" unicode="&#x20ba;" horiz-adv-x="829" 
d="M384 -12q-52 0 -110 7.5t-122 19.5v685h153v-565q21 -4 40 -5.5t38 -1.5q69 0 112.5 23.5t68 66t34 100.5t9.5 126h153q0 -156 -37.5 -257t-120 -150t-218.5 -49zM17 218v95l434 85v-95zM15 382v92l436 89v-95z" />
    <glyph glyph-name="uni20BD" unicode="&#x20bd;" horiz-adv-x="661" 
d="M23 93v114h93v70h-93v116h93v307h263q85 0 141.5 -28t84 -75.5t27.5 -107.5q0 -57 -26.5 -105t-82.5 -77.5t-144 -29.5h-113v-70h171v-114h-171v-93h-150v93h-93zM266 393h107q56 0 81.5 26.5t25.5 69.5q0 42 -25.5 69t-81.5 27h-107v-192z" />
    <glyph glyph-name="uni2113" unicode="&#x2113;" horiz-adv-x="280" 
d="M65 -100v820h150v-820h-150z" />
    <glyph glyph-name="trademark" unicode="&#x2122;" horiz-adv-x="856" 
d="M27 612v88h278v-88h-84v-263h-110v263h-84zM356 349v351h147l81 -218l91 218h135v-351h-101v220l-92 -220h-74l-89 224v-224h-98z" />
    <glyph glyph-name="uni2126" unicode="&#x2126;" horiz-adv-x="788" 
d="M44 0v115h194l-23 -38q-64 29 -103 72.5t-57 99t-18 117.5q0 80 27.5 143.5t76.5 109t113.5 69.5t139.5 24t139.5 -24t114 -69.5t77 -109t27.5 -143.5q0 -62 -18 -117.5t-57 -99t-104 -72.5l-23 38h194v-115h-271v118q37 23 65.5 56t44.5 77t16 99q0 53 -15 94.5
t-42 70.5t-64.5 44.5t-83.5 15.5t-83.5 -15.5t-64.5 -44.5t-42 -71t-15 -94q0 -55 16.5 -99t45 -77t64.5 -56v-118h-271z" />
    <glyph glyph-name="estimated" unicode="&#x212e;" horiz-adv-x="751" 
d="M385 -7q-99 0 -177.5 40t-124 116.5t-45.5 185.5q0 105 39.5 190t114.5 135t184 50q81 0 144 -27.5t106 -74t65 -105t22 -122.5v-62h-499v-175q35 -31 76.5 -46.5t94.5 -15.5q48 0 90.5 13.5t80.5 39t74 61.5l54 -61q-62 -67 -136.5 -104.5t-162.5 -37.5zM214 400h320
v169q-29 27 -69.5 40.5t-88.5 13.5q-51 0 -91.5 -15.5t-70.5 -46.5v-161z" />
    <glyph glyph-name="arrowleft" unicode="&#x2190;" horiz-adv-x="780" 
d="M739 282h-491l238 -210l-95 -94l-352 326v90l352 325l94 -94l-237 -210h491v-133z" />
    <glyph glyph-name="arrowup" unicode="&#x2191;" horiz-adv-x="884" 
d="M32 348l365 352h90l365 -352l-94 -95l-246 240v-493h-141v493l-244 -239z" />
    <glyph glyph-name="arrowright" unicode="&#x2192;" horiz-adv-x="780" 
d="M41 282v133h491l-237 210l94 94l352 -325v-90l-352 -326l-95 94l238 210h-491z" />
    <glyph glyph-name="arrowdown" unicode="&#x2193;" horiz-adv-x="899" 
d="M40 352l94 94l245 -239v493h141v-493l245 240l94 -95l-364 -352h-91z" />
    <glyph glyph-name="arrowboth" unicode="&#x2194;" horiz-adv-x="938" 
d="M40 301v91l282 310l93 -78l-193 -208h494l-193 208l94 78l281 -310v-91l-281 -310l-94 79l198 214h-504l198 -214l-93 -79z" />
    <glyph glyph-name="arrowupdn" unicode="&#x2195;" horiz-adv-x="807" 
d="M41 209l77 93l219 -142v382l-219 -142l-77 93l317 209h91l317 -209l-77 -93l-218 141v-379l218 140l77 -93l-317 -209h-91z" />
    <glyph glyph-name="uni2196" unicode="&#x2196;" horiz-adv-x="667" 
d="M526 41l-348 348v-343h-130v509l63 64h508v-130h-343l349 -349z" />
    <glyph glyph-name="uni2197" unicode="&#x2197;" horiz-adv-x="659" 
d="M141 53l-99 99l349 349h-343v130h507l64 -64v-509h-130v343z" />
    <glyph glyph-name="uni2198" unicode="&#x2198;" horiz-adv-x="667" 
d="M141 631l348 -348v343h130v-509l-64 -64h-507v130h343l-349 349z" />
    <glyph glyph-name="uni2199" unicode="&#x2199;" horiz-adv-x="667" 
d="M526 631l99 -99l-349 -349h343v-130h-508l-63 64v509h130v-343z" />
    <glyph glyph-name="partialdiff" unicode="&#x2202;" horiz-adv-x="603" 
d="M260 -8q-61 0 -112 27t-82 82.5t-31 140.5q0 69 21 127t58 101t86.5 66.5t106.5 23.5q24 0 45.5 -6t39.5 -19t32 -35q-6 46 -23 80.5t-48.5 54t-80.5 19.5q-16 0 -33.5 -2t-35.5 -6v78q30 8 57.5 12t52.5 4q84 0 140.5 -40.5t85.5 -115t29 -177.5q0 -129 -39 -222
t-108.5 -143t-160.5 -50zM275 120q29 0 53.5 15.5t41.5 42.5t26.5 63.5t9.5 76.5q0 60 -24.5 88t-63.5 28q-30 0 -54 -14t-41 -40.5t-26.5 -61t-9.5 -75.5q0 -64 25.5 -93.5t62.5 -29.5z" />
    <glyph glyph-name="uni2206" unicode="&#x2206;" horiz-adv-x="719" 
d="M19 0v114l279 586h123l279 -586v-114h-681zM173 114h373l-186 416z" />
    <glyph glyph-name="product" unicode="&#x220f;" horiz-adv-x="742" 
d="M97 0v585h-73v115h694v-115h-73v-585h-150v585h-248v-585h-150z" />
    <glyph glyph-name="summation" unicode="&#x2211;" horiz-adv-x="515" 
d="M45 -50v174l241 208l-240 194v174h440v-114h-313l256 -200v-108l-251 -213h308v-115h-441z" />
    <glyph glyph-name="minus" unicode="&#x2212;" horiz-adv-x="588" 
d="M79 227v125h430v-125h-430z" />
    <glyph glyph-name="uni2215" unicode="&#x2215;" horiz-adv-x="436" 
d="M20 -119l250 903h145l-249 -903h-146z" />
    <glyph glyph-name="radical" unicode="&#x221a;" horiz-adv-x="817" 
d="M20 237l208 123l129 -230l423 765h93l-518 -937h-73l-142 253l-78 -45z" />
    <glyph glyph-name="infinity" unicode="&#x221e;" horiz-adv-x="759" 
d="M202 121q-74 0 -122 43.5t-48 120.5q0 54 23 91.5t62.5 57.5t87.5 20t83.5 -17t62.5 -43.5t49 -56t43 -56t45 -43t53 -16.5q31 0 49 17.5t18 48.5q0 32 -17.5 48.5t-45.5 16.5q-37 0 -70 -26t-51 -71l-74 31q11 45 39 82.5t70.5 61t97.5 23.5q74 0 122 -43.5t48 -120.5
q0 -53 -23 -91t-62.5 -58t-88.5 -20q-48 0 -84.5 17t-65.5 43.5t-53 56t-46 56t-43.5 43t-48.5 16.5q-25 0 -43 -17t-18 -49q0 -31 17.5 -48t46.5 -17q36 0 69.5 26t50.5 71l74 -31q-11 -43 -38.5 -81t-70 -62t-98.5 -24z" />
    <glyph glyph-name="integral" unicode="&#x222b;" horiz-adv-x="284" 
d="M-47 -248l12 127h18q20 0 29 11t12 35l88 839q7 66 34.5 103.5t71 52.5t97.5 15h18l-12 -127h-18q-18 0 -28 -10t-13 -34l-88 -839q-7 -66 -34 -104t-70.5 -53.5t-97.5 -15.5h-19z" />
    <glyph glyph-name="approxequal" unicode="&#x2248;" horiz-adv-x="588" 
d="M382 74q-32 0 -57 10t-46 23t-41.5 23t-42.5 10q-25 0 -42 -16.5t-22 -49.5h-110q12 70 37.5 114t63 64.5t82.5 20.5q32 0 57 -10t46.5 -23t41.5 -23t42 -10q26 0 43 16.5t21 49.5h111q-10 -70 -36 -114t-63.5 -64.5t-84.5 -20.5zM382 314q-32 0 -57 10t-46 23t-41.5 23
t-42.5 10q-25 0 -42 -16.5t-22 -49.5h-110q12 70 37.5 114t63 64.5t82.5 20.5q32 0 57 -10t46.5 -23t41.5 -23t42 -10q26 0 43 16.5t21 49.5h111q-10 -70 -36 -114t-63.5 -64.5t-84.5 -20.5z" />
    <glyph glyph-name="notequal" unicode="&#x2260;" horiz-adv-x="588" 
d="M88 42l260 494h114l-260 -494h-114zM75 337v132h438v-132h-438zM75 109v131h438v-131h-438z" />
    <glyph glyph-name="lessequal" unicode="&#x2264;" horiz-adv-x="588" 
d="M495 182h-188l-215 187v0l215 187h188l-212 -187zM494 0h-386v115h386v-115z" />
    <glyph glyph-name="greaterequal" unicode="&#x2265;" horiz-adv-x="588" 
d="M93 182l212 187l-212 187h188l214 -187v0l-214 -187h-188zM94 0v115h386v-115h-386z" />
    <glyph glyph-name="lozenge" unicode="&#x25ca;" horiz-adv-x="562" 
d="M281 95l-257 257l258 257l256 -257zM281 243l109 109l-108 109l-109 -109z" />
    <glyph glyph-name="Q.ss06" horiz-adv-x="795" 
d="M568 -137l-208 203l146 31l239 -234h-177zM397 -12q-104 0 -183.5 46t-124.5 127.5t-45 188.5t45 188.5t124.5 127.5t183.5 46q105 0 185 -46t124.5 -127.5t44.5 -188.5t-44.5 -188.5t-124.5 -127.5t-185 -46zM397 123q62 0 107 28t69.5 78.5t24.5 120.5t-24.5 120.5
t-69.5 78t-107 27.5q-61 0 -106 -27.5t-69.5 -78t-24.5 -120.5t24.5 -120.5t69.5 -78.5t106 -28z" />
    <glyph glyph-name="i.loclTRK" horiz-adv-x="277" 
d="M64 0v496h150v-496h-150zM138 563q-28 0 -47.5 19.5t-19.5 47.5q0 30 19.5 49.5t47.5 19.5q30 0 49.5 -19.5t19.5 -49.5q0 -28 -19.5 -47.5t-49.5 -19.5z" />
    <glyph glyph-name="a.ss02" horiz-adv-x="664" 
d="M292 -12q-67 0 -122.5 34t-87.5 93.5t-32 133.5q0 75 32 133.5t87.5 92t123.5 33.5q53 0 92.5 -19t64.5 -53l9 60h141v-496h-140l-10 65v0q-23 -31 -60.5 -54t-97.5 -23zM329 119q37 0 65.5 17t45 46.5t16.5 65.5q0 38 -16.5 67t-45 45.5t-66.5 16.5q-35 0 -64 -16.5
t-45.5 -46t-16.5 -65.5q0 -37 16.5 -66.5t45.5 -46.5t65 -17z" />
    <glyph glyph-name="aacute.ss02" horiz-adv-x="664" 
d="M292 -12q-67 0 -122.5 34t-87.5 93.5t-32 133.5q0 75 32 133.5t87.5 92t123.5 33.5q53 0 92.5 -19t64.5 -53l9 60h141v-496h-140l-10 65v0q-23 -31 -60.5 -54t-97.5 -23zM329 119q37 0 65.5 17t45 46.5t16.5 65.5q0 38 -16.5 67t-45 45.5t-66.5 16.5q-35 0 -64 -16.5
t-45.5 -46t-16.5 -65.5q0 -37 16.5 -66.5t45.5 -46.5t65 -17zM209 538v105l234 118v0v-118z" />
    <glyph glyph-name="abreve.ss02" horiz-adv-x="664" 
d="M292 -12q-67 0 -122.5 34t-87.5 93.5t-32 133.5q0 75 32 133.5t87.5 92t123.5 33.5q53 0 92.5 -19t64.5 -53l9 60h141v-496h-140l-10 65v0q-23 -31 -60.5 -54t-97.5 -23zM329 119q37 0 65.5 17t45 46.5t16.5 65.5q0 38 -16.5 67t-45 45.5t-66.5 16.5q-35 0 -64 -16.5
t-45.5 -46t-16.5 -65.5q0 -37 16.5 -66.5t45.5 -46.5t65 -17zM327 554q-49 0 -86 19.5t-57 55.5t-20 88v17h77q0 -32 18.5 -50.5t67.5 -18.5t67.5 18.5t18.5 50.5h78v-18q0 -51 -21 -87.5t-57.5 -55.5t-85.5 -19z" />
    <glyph glyph-name="acircumflex.ss02" horiz-adv-x="664" 
d="M292 -12q-67 0 -122.5 34t-87.5 93.5t-32 133.5q0 75 32 133.5t87.5 92t123.5 33.5q53 0 92.5 -19t64.5 -53l9 60h141v-496h-140l-10 65v0q-23 -31 -60.5 -54t-97.5 -23zM329 119q37 0 65.5 17t45 46.5t16.5 65.5q0 38 -16.5 67t-45 45.5t-66.5 16.5q-35 0 -64 -16.5
t-45.5 -46t-16.5 -65.5q0 -37 16.5 -66.5t45.5 -46.5t65 -17zM176 541v105l151 80l150 -80v-105l-150 82z" />
    <glyph glyph-name="adieresis.ss02" horiz-adv-x="664" 
d="M292 -12q-67 0 -122.5 34t-87.5 93.5t-32 133.5q0 75 32 133.5t87.5 92t123.5 33.5q53 0 92.5 -19t64.5 -53l9 60h141v-496h-140l-10 65v0q-23 -31 -60.5 -54t-97.5 -23zM329 119q37 0 65.5 17t45 46.5t16.5 65.5q0 38 -16.5 67t-45 45.5t-66.5 16.5q-35 0 -64 -16.5
t-45.5 -46t-16.5 -65.5q0 -37 16.5 -66.5t45.5 -46.5t65 -17zM230 561q-28 0 -47.5 19.5t-19.5 47.5q0 30 19.5 49.5t47.5 19.5q30 0 49.5 -19.5t19.5 -49.5q0 -28 -19.5 -47.5t-49.5 -19.5zM421 561q-29 0 -48.5 19.5t-19.5 47.5q0 30 19.5 49.5t48.5 19.5t48.5 -19.5
t19.5 -49.5q0 -28 -19.5 -47.5t-48.5 -19.5z" />
    <glyph glyph-name="agrave.ss02" horiz-adv-x="664" 
d="M292 -12q-67 0 -122.5 34t-87.5 93.5t-32 133.5q0 75 32 133.5t87.5 92t123.5 33.5q53 0 92.5 -19t64.5 -53l9 60h141v-496h-140l-10 65v0q-23 -31 -60.5 -54t-97.5 -23zM329 119q37 0 65.5 17t45 46.5t16.5 65.5q0 38 -16.5 67t-45 45.5t-66.5 16.5q-35 0 -64 -16.5
t-45.5 -46t-16.5 -65.5q0 -37 16.5 -66.5t45.5 -46.5t65 -17zM443 538l-234 105v118v0l234 -118v-105z" />
    <glyph glyph-name="amacron.ss02" horiz-adv-x="664" 
d="M292 -12q-67 0 -122.5 34t-87.5 93.5t-32 133.5q0 75 32 133.5t87.5 92t123.5 33.5q53 0 92.5 -19t64.5 -53l9 60h141v-496h-140l-10 65v0q-23 -31 -60.5 -54t-97.5 -23zM329 119q37 0 65.5 17t45 46.5t16.5 65.5q0 38 -16.5 67t-45 45.5t-66.5 16.5q-35 0 -64 -16.5
t-45.5 -46t-16.5 -65.5q0 -37 16.5 -66.5t45.5 -46.5t65 -17zM133 585v105h387v-105h-387z" />
    <glyph glyph-name="aogonek.ss02" horiz-adv-x="664" 
d="M292 -12q-67 0 -122.5 34t-87.5 93.5t-32 133.5q0 75 32 133.5t87.5 92t123.5 33.5q53 0 92.5 -19t64.5 -53l9 60h141v-496h-140l-10 65v0q-23 -31 -60.5 -54t-97.5 -23zM329 119q37 0 65.5 17t45 46.5t16.5 65.5q0 38 -16.5 67t-45 45.5t-66.5 16.5q-35 0 -64 -16.5
t-45.5 -46t-16.5 -65.5q0 -37 16.5 -66.5t45.5 -46.5t65 -17zM514 -214q-39 0 -71 12t-51 36.5t-19 61.5q0 28 13.5 54t46.5 51t92 49l43 19l32 -69l-49 -24q-36 -19 -51 -34t-15 -33q0 -17 12.5 -27t35.5 -10q15 0 34 4t39 11v-86q-20 -7 -43.5 -11t-48.5 -4z" />
    <glyph glyph-name="aring.ss02" horiz-adv-x="664" 
d="M292 -12q-67 0 -122.5 34t-87.5 93.5t-32 133.5q0 75 32 133.5t87.5 92t123.5 33.5q53 0 92.5 -19t64.5 -53l9 60h141v-496h-140l-10 65v0q-23 -31 -60.5 -54t-97.5 -23zM329 119q37 0 65.5 17t45 46.5t16.5 65.5q0 38 -16.5 67t-45 45.5t-66.5 16.5q-35 0 -64 -16.5
t-45.5 -46t-16.5 -65.5q0 -37 16.5 -66.5t45.5 -46.5t65 -17zM327 561q-48 0 -83 31t-35 86q0 54 35 85t83 31q49 0 84 -31t35 -85q0 -55 -35 -86t-84 -31zM327 626q21 0 35.5 14t14.5 38t-14.5 37.5t-35.5 13.5q-20 0 -35 -13.5t-15 -37.5t15 -38t35 -14z" />
    <glyph glyph-name="atilde.ss02" horiz-adv-x="664" 
d="M292 -12q-67 0 -122.5 34t-87.5 93.5t-32 133.5q0 75 32 133.5t87.5 92t123.5 33.5q53 0 92.5 -19t64.5 -53l9 60h141v-496h-140l-10 65v0q-23 -31 -60.5 -54t-97.5 -23zM329 119q37 0 65.5 17t45 46.5t16.5 65.5q0 38 -16.5 67t-45 45.5t-66.5 16.5q-35 0 -64 -16.5
t-45.5 -46t-16.5 -65.5q0 -37 16.5 -66.5t45.5 -46.5t65 -17zM386 561q-29 0 -50 11t-38.5 22.5t-38.5 11.5q-16 0 -27.5 -11t-15.5 -34h-78q12 72 45 104.5t83 32.5q29 0 50 -11.5t39 -22.5t38 -11q17 0 28.5 11t14.5 34h78q-11 -72 -44.5 -104.5t-83.5 -32.5z" />
    <glyph glyph-name="ae.ss02" horiz-adv-x="1019" 
d="M302 -12q-73 0 -130 34t-89.5 93.5t-32.5 133.5q0 75 32 133.5t87.5 92t123.5 33.5q51 0 91 -17.5t63 -49.5l9 55h117v-52q31 34 71.5 49t86.5 15q72 0 127 -32t86.5 -88t31.5 -129q0 -10 -0.5 -22.5t-2.5 -25.5h-367q3 -30 17.5 -53t39.5 -35.5t56 -12.5q36 0 60.5 18.5
t36.5 44.5h150q-13 -52 -46.5 -94t-82.5 -66.5t-112 -24.5q-46 0 -84 13t-68 37l-1 -38h-116l-9 38v0q-22 -20 -46 -31t-48.5 -15t-50.5 -4zM329 119q37 0 65.5 17t45 46.5t16.5 65.5q0 38 -16.5 67t-45 45.5t-65.5 16.5q-36 0 -65 -16.5t-45.5 -45.5t-16.5 -66t16.5 -66.5
t45.5 -46.5t65 -17zM610 299h213q-3 39 -31.5 64t-70.5 25q-27 0 -50 -10t-39 -29.5t-22 -49.5z" />
    <glyph glyph-name="aeacute.ss02" horiz-adv-x="1019" 
d="M302 -12q-73 0 -130 34t-89.5 93.5t-32.5 133.5q0 75 32 133.5t87.5 92t123.5 33.5q51 0 91 -17.5t63 -49.5l9 55h117v-52q31 34 71.5 49t86.5 15q72 0 127 -32t86.5 -88t31.5 -129q0 -10 -0.5 -22.5t-2.5 -25.5h-367q3 -30 17.5 -53t39.5 -35.5t56 -12.5q36 0 60.5 18.5
t36.5 44.5h150q-13 -52 -46.5 -94t-82.5 -66.5t-112 -24.5q-46 0 -84 13t-68 37l-1 -38h-116l-9 38v0q-22 -20 -46 -31t-48.5 -15t-50.5 -4zM329 119q37 0 65.5 17t45 46.5t16.5 65.5q0 38 -16.5 67t-45 45.5t-65.5 16.5q-36 0 -65 -16.5t-45.5 -45.5t-16.5 -66t16.5 -66.5
t45.5 -46.5t65 -17zM610 299h213q-3 39 -31.5 64t-70.5 25q-27 0 -50 -10t-39 -29.5t-22 -49.5zM399 539v105l234 118v0v-118z" />
    <glyph glyph-name="g.ss03" horiz-adv-x="672" 
d="M338 -232q-47 0 -93 11t-84.5 35.5t-64.5 63.5t-31 95h149q5 -23 21.5 -40t42 -26t56.5 -9q33 0 61 13t45.5 40.5t17.5 71.5v57q-14 -22 -37 -40t-53.5 -28.5t-69.5 -10.5q-71 0 -127.5 33.5t-88.5 91t-32 129.5t32 129t88.5 90.5t127.5 33.5q35 0 65 -9.5t54 -26
t41 -37.5v0l15 61h135v-465q0 -66 -22 -115t-59.5 -82t-86 -49.5t-102.5 -16.5zM330 130q39 0 67.5 17t44.5 45t16 62q0 35 -16 62.5t-44.5 44t-67.5 16.5q-38 0 -67 -16.5t-45 -44t-16 -61.5t16 -62.5t45 -45.5t67 -17z" />
    <glyph glyph-name="gbreve.ss03" horiz-adv-x="672" 
d="M338 -232q-47 0 -93 11t-84.5 35.5t-64.5 63.5t-31 95h149q5 -23 21.5 -40t42 -26t56.5 -9q33 0 61 13t45.5 40.5t17.5 71.5v57q-14 -22 -37 -40t-53.5 -28.5t-69.5 -10.5q-71 0 -127.5 33.5t-88.5 91t-32 129.5t32 129t88.5 90.5t127.5 33.5q35 0 65 -9.5t54 -26
t41 -37.5v0l15 61h135v-465q0 -66 -22 -115t-59.5 -82t-86 -49.5t-102.5 -16.5zM330 130q39 0 67.5 17t44.5 45t16 62q0 35 -16 62.5t-44.5 44t-67.5 16.5q-38 0 -67 -16.5t-45 -44t-16 -61.5t16 -62.5t45 -45.5t67 -17zM337 555q-49 0 -86 19.5t-57 55.5t-20 88v17h77
q0 -32 18.5 -50.5t67.5 -18.5t67.5 18.5t18.5 50.5h78v-18q0 -51 -21 -87.5t-57.5 -55.5t-85.5 -19z" />
    <glyph glyph-name="uni0123.ss03" horiz-adv-x="672" 
d="M338 -232q-47 0 -93 11t-84.5 35.5t-64.5 63.5t-31 95h149q5 -23 21.5 -40t42 -26t56.5 -9q33 0 61 13t45.5 40.5t17.5 71.5v57q-14 -22 -37 -40t-53.5 -28.5t-69.5 -10.5q-71 0 -127.5 33.5t-88.5 91t-32 129.5t32 129t88.5 90.5t127.5 33.5q35 0 65 -9.5t54 -26
t41 -37.5v0l15 61h135v-465q0 -66 -22 -115t-59.5 -82t-86 -49.5t-102.5 -16.5zM330 130q39 0 67.5 17t44.5 45t16 62q0 35 -16 62.5t-44.5 44t-67.5 16.5q-38 0 -67 -16.5t-45 -44t-16 -61.5t16 -62.5t45 -45.5t67 -17zM398 784v-59q-22 0 -34 -8.5t-12 -27.5v-18h46v-113
h-110q-6 31 -9.5 54t-3.5 48q0 58 31 91t92 33z" />
    <glyph glyph-name="gdotaccent.ss03" horiz-adv-x="672" 
d="M338 -232q-47 0 -93 11t-84.5 35.5t-64.5 63.5t-31 95h149q5 -23 21.5 -40t42 -26t56.5 -9q33 0 61 13t45.5 40.5t17.5 71.5v57q-14 -22 -37 -40t-53.5 -28.5t-69.5 -10.5q-71 0 -127.5 33.5t-88.5 91t-32 129.5t32 129t88.5 90.5t127.5 33.5q35 0 65 -9.5t54 -26
t41 -37.5v0l15 61h135v-465q0 -66 -22 -115t-59.5 -82t-86 -49.5t-102.5 -16.5zM330 130q39 0 67.5 17t44.5 45t16 62q0 35 -16 62.5t-44.5 44t-67.5 16.5q-38 0 -67 -16.5t-45 -44t-16 -61.5t16 -62.5t45 -45.5t67 -17zM335 563q-28 0 -47.5 19.5t-19.5 47.5
q0 30 19.5 49.5t47.5 19.5q30 0 49.5 -19.5t19.5 -49.5q0 -28 -19.5 -47.5t-49.5 -19.5z" />
    <glyph glyph-name="u.ss04" horiz-adv-x="622" 
d="M312 -12q-130 0 -193 64.5t-63 178.5v265h150v-253q0 -47 10.5 -79t34 -48t61.5 -16q37 0 60.5 16t34 48t10.5 79v253h149v-265q0 -114 -62.5 -178.5t-191.5 -64.5z" />
    <glyph glyph-name="uacute.ss04" horiz-adv-x="622" 
d="M312 -12q-130 0 -193 64.5t-63 178.5v265h150v-253q0 -47 10.5 -79t34 -48t61.5 -16q37 0 60.5 16t34 48t10.5 79v253h149v-265q0 -114 -62.5 -178.5t-191.5 -64.5zM194 539v105l234 118v0v-118z" />
    <glyph glyph-name="ubreve.ss04" horiz-adv-x="622" 
d="M312 -12q-130 0 -193 64.5t-63 178.5v265h150v-253q0 -47 10.5 -79t34 -48t61.5 -16q37 0 60.5 16t34 48t10.5 79v253h149v-265q0 -114 -62.5 -178.5t-191.5 -64.5zM312 555q-49 0 -86 19.5t-57 55.5t-20 88v17h77q0 -32 18.5 -50.5t67.5 -18.5t67.5 18.5t18.5 50.5h78
v-18q0 -51 -21 -87.5t-57.5 -55.5t-85.5 -19z" />
    <glyph glyph-name="ucircumflex.ss04" horiz-adv-x="622" 
d="M312 -12q-130 0 -193 64.5t-63 178.5v265h150v-253q0 -47 10.5 -79t34 -48t61.5 -16q37 0 60.5 16t34 48t10.5 79v253h149v-265q0 -114 -62.5 -178.5t-191.5 -64.5zM161 542v105l151 80l150 -80v-105l-150 82z" />
    <glyph glyph-name="udieresis.ss04" horiz-adv-x="622" 
d="M312 -12q-130 0 -193 64.5t-63 178.5v265h150v-253q0 -47 10.5 -79t34 -48t61.5 -16q37 0 60.5 16t34 48t10.5 79v253h149v-265q0 -114 -62.5 -178.5t-191.5 -64.5zM215 562q-28 0 -47.5 19.5t-19.5 47.5q0 30 19.5 49.5t47.5 19.5q30 0 49.5 -19.5t19.5 -49.5
q0 -28 -19.5 -47.5t-49.5 -19.5zM406 562q-29 0 -48.5 19.5t-19.5 47.5q0 30 19.5 49.5t48.5 19.5t48.5 -19.5t19.5 -49.5q0 -28 -19.5 -47.5t-48.5 -19.5z" />
    <glyph glyph-name="ugrave.ss04" horiz-adv-x="622" 
d="M312 -12q-130 0 -193 64.5t-63 178.5v265h150v-253q0 -47 10.5 -79t34 -48t61.5 -16q37 0 60.5 16t34 48t10.5 79v253h149v-265q0 -114 -62.5 -178.5t-191.5 -64.5zM428 539l-234 105v118v0l234 -118v-105z" />
    <glyph glyph-name="uhungarumlaut.ss04" horiz-adv-x="622" 
d="M312 -12q-130 0 -193 64.5t-63 178.5v265h150v-253q0 -47 10.5 -79t34 -48t61.5 -16q37 0 60.5 16t34 48t10.5 79v253h149v-265q0 -114 -62.5 -178.5t-191.5 -64.5zM344 541l85 195h121l-113 -195h-93zM162 541l73 195h120l-100 -195h-93z" />
    <glyph glyph-name="umacron.ss04" horiz-adv-x="622" 
d="M312 -12q-130 0 -193 64.5t-63 178.5v265h150v-253q0 -47 10.5 -79t34 -48t61.5 -16q37 0 60.5 16t34 48t10.5 79v253h149v-265q0 -114 -62.5 -178.5t-191.5 -64.5zM118 586v105h387v-105h-387z" />
    <glyph glyph-name="uogonek.ss04" horiz-adv-x="622" 
d="M312 -12q-130 0 -193 64.5t-63 178.5v265h150v-253q0 -47 10.5 -79t34 -48t61.5 -16q37 0 60.5 16t34 48t10.5 79v253h149v-265q0 -114 -62.5 -178.5t-191.5 -64.5zM351 -204q-39 0 -71 12t-51 36.5t-19 61.5q0 28 13.5 54t46.5 51t92 49l43 19l32 -69l-49 -24
q-36 -19 -51 -34t-15 -33q0 -17 12.5 -27t35.5 -10q15 0 34 4t39 11v-86q-20 -7 -43.5 -11t-48.5 -4z" />
    <glyph glyph-name="uring.ss04" horiz-adv-x="622" 
d="M312 -12q-130 0 -193 64.5t-63 178.5v265h150v-253q0 -47 10.5 -79t34 -48t61.5 -16q37 0 60.5 16t34 48t10.5 79v253h149v-265q0 -114 -62.5 -178.5t-191.5 -64.5zM312 562q-48 0 -83 31t-35 86q0 54 35 85t83 31q49 0 84 -31t35 -85q0 -55 -35 -86t-84 -31zM312 627
q21 0 35.5 14t14.5 38t-14.5 37.5t-35.5 13.5q-20 0 -35 -13.5t-15 -37.5t15 -38t35 -14z" />
    <glyph glyph-name="utilde.ss04" horiz-adv-x="622" 
d="M312 -12q-130 0 -193 64.5t-63 178.5v265h150v-253q0 -47 10.5 -79t34 -48t61.5 -16q37 0 60.5 16t34 48t10.5 79v253h149v-265q0 -114 -62.5 -178.5t-191.5 -64.5zM371 562q-29 0 -50 11t-38.5 22.5t-38.5 11.5q-16 0 -27.5 -11t-15.5 -34h-78q12 72 45 104.5t83 32.5
q29 0 50 -11.5t39 -22.5t38 -11q17 0 28.5 11t14.5 34h78q-11 -72 -44.5 -104.5t-83.5 -32.5z" />
    <glyph glyph-name="y.ss05" horiz-adv-x="633" 
d="M317 -232q-42 0 -84.5 11t-79 33.5t-61 60t-29.5 89.5h149q5 -21 18.5 -37t34.5 -25t48 -9q36 0 59 15t35 44t12 74v47v0q-22 -31 -61.5 -51t-99.5 -20q-64 0 -109.5 26t-69 78t-23.5 129v263h150v-254q0 -58 25 -89.5t79 -31.5q37 0 61 15t36 43.5t12 67.5v249h150v-472
q0 -86 -34 -143t-91.5 -85t-126.5 -28z" />
    <glyph glyph-name="yacute.ss05" horiz-adv-x="633" 
d="M317 -232q-42 0 -84.5 11t-79 33.5t-61 60t-29.5 89.5h149q5 -21 18.5 -37t34.5 -25t48 -9q36 0 59 15t35 44t12 74v47v0q-22 -31 -61.5 -51t-99.5 -20q-64 0 -109.5 26t-69 78t-23.5 129v263h150v-254q0 -58 25 -89.5t79 -31.5q37 0 61 15t36 43.5t12 67.5v249h150v-472
q0 -86 -34 -143t-91.5 -85t-126.5 -28zM199 539v105l234 118v0v-118z" />
    <glyph glyph-name="ycircumflex.ss05" horiz-adv-x="633" 
d="M317 -232q-42 0 -84.5 11t-79 33.5t-61 60t-29.5 89.5h149q5 -21 18.5 -37t34.5 -25t48 -9q36 0 59 15t35 44t12 74v47v0q-22 -31 -61.5 -51t-99.5 -20q-64 0 -109.5 26t-69 78t-23.5 129v263h150v-254q0 -58 25 -89.5t79 -31.5q37 0 61 15t36 43.5t12 67.5v249h150v-472
q0 -86 -34 -143t-91.5 -85t-126.5 -28zM166 542v105l151 80l150 -80v-105l-150 82z" />
    <glyph glyph-name="ydieresis.ss05" horiz-adv-x="633" 
d="M317 -232q-42 0 -84.5 11t-79 33.5t-61 60t-29.5 89.5h149q5 -21 18.5 -37t34.5 -25t48 -9q36 0 59 15t35 44t12 74v47v0q-22 -31 -61.5 -51t-99.5 -20q-64 0 -109.5 26t-69 78t-23.5 129v263h150v-254q0 -58 25 -89.5t79 -31.5q37 0 61 15t36 43.5t12 67.5v249h150v-472
q0 -86 -34 -143t-91.5 -85t-126.5 -28zM220 562q-28 0 -47.5 19.5t-19.5 47.5q0 30 19.5 49.5t47.5 19.5q30 0 49.5 -19.5t19.5 -49.5q0 -28 -19.5 -47.5t-49.5 -19.5zM411 562q-29 0 -48.5 19.5t-19.5 47.5q0 30 19.5 49.5t48.5 19.5t48.5 -19.5t19.5 -49.5
q0 -28 -19.5 -47.5t-48.5 -19.5z" />
    <glyph glyph-name="ygrave.ss05" horiz-adv-x="633" 
d="M317 -232q-42 0 -84.5 11t-79 33.5t-61 60t-29.5 89.5h149q5 -21 18.5 -37t34.5 -25t48 -9q36 0 59 15t35 44t12 74v47v0q-22 -31 -61.5 -51t-99.5 -20q-64 0 -109.5 26t-69 78t-23.5 129v263h150v-254q0 -58 25 -89.5t79 -31.5q37 0 61 15t36 43.5t12 67.5v249h150v-472
q0 -86 -34 -143t-91.5 -85t-126.5 -28zM433 539l-234 105v118v0l234 -118v-105z" />
    <glyph glyph-name="uni1EF9.ss05" horiz-adv-x="633" 
d="M317 -232q-42 0 -84.5 11t-79 33.5t-61 60t-29.5 89.5h149q5 -21 18.5 -37t34.5 -25t48 -9q36 0 59 15t35 44t12 74v47v0q-22 -31 -61.5 -51t-99.5 -20q-64 0 -109.5 26t-69 78t-23.5 129v263h150v-254q0 -58 25 -89.5t79 -31.5q37 0 61 15t36 43.5t12 67.5v249h150v-472
q0 -86 -34 -143t-91.5 -85t-126.5 -28zM376 562q-29 0 -50 11t-38.5 22.5t-38.5 11.5q-16 0 -27.5 -11t-15.5 -34h-78q12 72 45 104.5t83 32.5q29 0 50 -11.5t39 -22.5t38 -11q17 0 28.5 11t14.5 34h78q-11 -72 -44.5 -104.5t-83.5 -32.5z" />
    <glyph glyph-name="one.ss07" horiz-adv-x="446" 
d="M148 0v527l-118 -27v119l183 81h90v-700h-155zM34 117h382v-117h-382v117z" />
    <glyph glyph-name="three.ss07" horiz-adv-x="610" 
d="M303 -6q-71 0 -127.5 25t-90.5 76t-38 130h147q3 -47 30 -76.5t80 -29.5q49 0 77.5 28.5t28.5 78.5t-32.5 80t-88.5 30h-99v98l188 172l47 -34h-339v128h438v-113l-216 -197l-66 43h68q112 0 177.5 -55.5t65.5 -157.5q0 -67 -30.5 -118t-87 -79.5t-132.5 -28.5z" />
    <glyph glyph-name="four.ss07" horiz-adv-x="665" 
d="M382 0v123h-336v121l287 456h159l-287 -447h187v153l140 32v-185h87v-130h-87v-123h-150z" />
    <glyph glyph-name="six.ss07" horiz-adv-x="614" 
d="M308 -12q-77 0 -135.5 32t-90.5 88.5t-32 128.5q0 55 18.5 109t60.5 115l161 239h166l-215 -307l-7 52q28 8 53.5 14.5t53.5 6.5q65 0 115.5 -27.5t79 -79t28.5 -124.5q0 -74 -33.5 -130t-91.5 -86.5t-131 -30.5zM308 115q53 0 84 32.5t31 85.5q0 37 -14 63.5t-39.5 41
t-61.5 14.5q-35 0 -61 -14.5t-40 -41t-14 -62.5q0 -54 31 -86.5t84 -32.5z" />
    <glyph glyph-name="nine.ss07" horiz-adv-x="614" 
d="M158 0l215 307l7 -52q-28 -7 -53.5 -14t-53.5 -7q-65 0 -115.5 27.5t-79 79.5t-28.5 124q0 75 33.5 130.5t91.5 86t130 30.5q78 0 136 -32t90.5 -88t32.5 -129q0 -54 -18 -108t-61 -116l-161 -239h-166zM305 348q36 0 62 14.5t40 41.5t14 62q0 54 -31 86.5t-85 32.5
q-52 0 -83 -32.5t-31 -85.5q0 -36 14 -63t40 -41.5t60 -14.5z" />
    <glyph glyph-name="one.dnom" horiz-adv-x="247" 
d="M93 0v246l-71 -15v70l122 51h63v-352h-114z" />
    <glyph glyph-name="two.dnom" horiz-adv-x="370" 
d="M38 0v84l120 79q28 19 43.5 38.5t15.5 41.5q0 17 -9.5 26.5t-23.5 9.5q-16 0 -25 -11t-12 -31h-113q4 54 45 89t116 35q49 0 80 -16t46.5 -41t15.5 -53q0 -38 -27 -66t-86 -59l-66 -37h176v-89h-296z" />
    <glyph glyph-name="three.dnom" horiz-adv-x="363" 
d="M182 -4q-81 0 -120.5 32t-43.5 86h117q1 -13 6.5 -21.5t14.5 -12t20 -3.5q18 0 28.5 9.5t10.5 27.5q0 20 -12.5 30t-33.5 10h-37v52h32q22 0 34 9.5t12 28.5q0 17 -10 26t-29 9q-17 0 -27 -8.5t-13 -25.5h-108q2 31 19 57.5t52 42.5t89 16q66 0 107 -29.5t41 -74.5
q0 -31 -18 -50.5t-49 -26.5v-3q34 -9 53 -29t19 -52q0 -45 -42 -72.5t-112 -27.5z" />
    <glyph glyph-name="four.dnom" horiz-adv-x="358" 
d="M191 0v59h-163v74l151 215h122v-214h34v-75h-34v-59h-110zM139 134h60v93v0z" />
    <glyph glyph-name="one.numr" horiz-adv-x="247" 
d="M93 352v246l-71 -15v70l122 51h63v-352h-114z" />
    <glyph glyph-name="two.numr" horiz-adv-x="370" 
d="M38 352v84l120 79q28 19 43.5 38.5t15.5 41.5q0 17 -9.5 26.5t-23.5 9.5q-16 0 -25 -11t-12 -31h-113q4 54 45 89t116 35q49 0 80 -16t46.5 -41t15.5 -53q0 -38 -27 -66t-86 -59l-66 -37h176v-89h-296z" />
    <glyph glyph-name="three.numr" horiz-adv-x="363" 
d="M182 348q-81 0 -120.5 32t-43.5 86h117q1 -13 6.5 -21.5t14.5 -12t20 -3.5q18 0 28.5 9.5t10.5 27.5q0 20 -12.5 30t-33.5 10h-37v52h32q22 0 34 9.5t12 28.5q0 17 -10 26t-29 9q-17 0 -27 -8.5t-13 -25.5h-108q2 31 19 57.5t52 42.5t89 16q66 0 107 -29.5t41 -74.5
q0 -31 -18 -50.5t-49 -26.5v-3q34 -9 53 -29t19 -52q0 -45 -42 -72.5t-112 -27.5z" />
    <glyph glyph-name="four.numr" horiz-adv-x="358" 
d="M191 352v59h-163v74l151 215h122v-214h34v-75h-34v-59h-110zM139 486h60v93v0z" />
    <glyph glyph-name="comma.ss01" horiz-adv-x="226" 
d="M54 -104v59q26 0 38.5 15t12.5 48v18h-59v113h121q9 -30 13 -58t4 -53q0 -65 -32 -103.5t-98 -38.5z" />
    <glyph glyph-name="semicolon.ss01" horiz-adv-x="263" 
d="M130 342q-41 0 -66 24.5t-25 59.5q0 36 25 60.5t66 24.5t66 -24.5t25 -60.5q0 -35 -25 -59.5t-66 -24.5zM69 -104v59q26 0 38.5 15t12.5 48v18h-59v113h121q9 -30 13 -58t4 -53q0 -65 -32 -103.5t-98 -38.5z" />
    <glyph glyph-name="quotesinglbase.ss01" horiz-adv-x="226" 
d="M54 -104v59q26 0 38.5 15t12.5 48v18h-59v113h121q9 -30 13 -58.5t4 -52.5q0 -65 -32 -103.5t-98 -38.5z" />
    <glyph glyph-name="quotedblbase.ss01" horiz-adv-x="401" 
d="M229 -104v59q26 0 38.5 15t12.5 48v18h-59v113h121q9 -30 13 -58.5t4 -52.5q0 -65 -32 -103.5t-98 -38.5zM54 -104v59q26 0 38.5 15t12.5 48v18h-59v113h121q9 -30 13 -58.5t4 -52.5q0 -65 -32 -103.5t-98 -38.5z" />
    <glyph glyph-name="quotedblleft.ss01" horiz-adv-x="389" 
d="M168 736v-59q-25 0 -38 -15t-13 -48v-18h59v-113h-120q-9 31 -13.5 58.5t-4.5 52.5q0 66 32 104t98 38zM343 736v-59q-25 0 -38 -15t-13 -48v-18h59v-113h-120q-9 31 -13.5 58.5t-4.5 52.5q0 66 32 104t98 38z" />
    <glyph glyph-name="quotedblright.ss01" horiz-adv-x="389" 
d="M221 483v59q26 0 38.5 15t12.5 48v18h-59v113h121q9 -30 13 -58.5t4 -52.5q0 -65 -32 -103.5t-98 -38.5zM46 483v59q26 0 38.5 15t12.5 48v18h-59v113h121q9 -30 13 -58.5t4 -52.5q0 -65 -32 -103.5t-98 -38.5z" />
    <glyph glyph-name="quoteleft.ss01" horiz-adv-x="214" 
d="M168 736v-59q-25 0 -38 -15t-13 -48v-18h59v-113h-120q-9 31 -13.5 58.5t-4.5 52.5q0 66 32 104t98 38z" />
    <glyph glyph-name="quoteright.ss01" horiz-adv-x="214" 
d="M46 482v59q26 0 38.5 15t12.5 48v18h-59v113h121q9 -30 13 -58.5t4 -52.5q0 -65 -32 -103.5t-98 -38.5z" />
    <glyph glyph-name="quotedblleft.ss08" horiz-adv-x="764" 
d="M382 -12q75 0 140.5 28t115.5 78t78 115.5t28 140.5t-28 140.5t-78 115.5t-115.5 78t-140.5 28t-140.5 -28t-115.5 -78t-78 -115.5t-28 -140.5t28 -140.5t78 -115.5t115.5 -78t140.5 -28zM362 485v-62q-27 0 -40.5 -16.5t-13.5 -50.5v-20h63v-119h-128q-9 33 -13.5 62.5
t-4.5 55.5q0 46 15 79.5t45.5 52t76.5 18.5zM546 485v-62q-27 0 -40.5 -16.5t-13.5 -50.5v-20h63v-119h-127q-9 33 -14 62.5t-5 55.5q0 46 15 79.5t46 52t76 18.5z" />
    <glyph glyph-name="quotedblright.ss08" horiz-adv-x="764" 
d="M382 712q-75 0 -140.5 -28t-115.5 -78t-78 -115.5t-28 -140.5t28 -140.5t78 -115.5t115.5 -78t140.5 -28t140.5 28t115.5 78t78 115.5t28 140.5t-28 140.5t-78 115.5t-115.5 78t-140.5 28zM402 215v62q28 0 41 16.5t13 50.5v20h-63v119h128q10 -32 14 -62t4 -56
q0 -46 -15 -79.5t-45 -52t-77 -18.5zM218 215v62q27 0 40.5 16.5t13.5 50.5v20h-63v119h127q10 -32 14.5 -62t4.5 -56q0 -46 -15 -79.5t-45.5 -52t-76.5 -18.5z" />
    <glyph glyph-name="arrowup.ss08" horiz-adv-x="764" 
d="M382 -12q-75 0 -140.5 28t-115.5 78t-78 115.5t-28 140.5t28 140.5t78 115.5t115.5 78t140.5 28t140.5 -28t115.5 -77.5t78 -115t28 -141.5q0 -75 -28 -140.5t-78 -115.5t-115.5 -78t-140.5 -28zM335 163h95v235l102 -101l61 61l-184 179h-54l-183 -180l60 -61l103 102
v-235z" />
    <glyph glyph-name="uni2197.ss08" horiz-adv-x="764" 
d="M382 -12q-75 0 -140.5 28t-115.5 78t-78 115.5t-28 140.5t28 140.5t78 115.5t115.5 78t140.5 28t140.5 -28t115.5 -77.5t78 -115.5t28 -141t-28 -140.5t-78 -115.5t-115.5 -78t-140.5 -28zM288 195l167 165v-161h83v269l-38 38h-268v-83h159l-165 -165z" />
    <glyph glyph-name="arrowright.ss08" horiz-adv-x="764" 
d="M382 -12q-75 0 -140.5 28t-115.5 78t-78 115.5t-28 140.5t28 140.5t78 115.5t115.5 78t140.5 28t140.5 -28t115.5 -78t78 -115.5t28 -140.5t-28 -140.5t-77.5 -115.5t-115.5 -78t-141 -28zM389 141l180 182v55l-180 181l-61 -59l107 -105h-240v-90h240l-107 -105z" />
    <glyph glyph-name="uni2198.ss08" horiz-adv-x="764" 
d="M382 712q75 0 140.5 -28t115.5 -78t78 -115.5t28 -140.5t-28 -141t-78 -115.5t-115.5 -77.5t-140.5 -28t-140.5 28t-115.5 78t-78 115.5t-28 140.5t28 140.5t78 115.5t115.5 78t140.5 28zM288 505l-62 -63l165 -165h-159v-83h268l38 38v269h-83v-161z" />
    <glyph glyph-name="arrowdown.ss08" horiz-adv-x="764" 
d="M382 712q75 0 140.5 -28t115.5 -78t78 -115.5t28 -140.5q0 -76 -28 -141.5t-78 -115t-115.5 -77.5t-140.5 -28t-140.5 28t-115.5 78t-78 115.5t-28 140.5t28 140.5t78 115.5t115.5 78t140.5 28zM335 537v-235l-103 102l-60 -61l183 -180h54l184 179l-61 61l-102 -101v235
h-95z" />
    <glyph glyph-name="uni2199.ss08" horiz-adv-x="764" 
d="M382 712q75 0 140.5 -28t115.5 -78t78 -115.5t28 -140.5t-28 -140.5t-78 -115.5t-115.5 -78t-140.5 -28t-140.5 28t-115.5 77.5t-78 115.5t-28 141t28 140.5t78 115.5t115.5 78t140.5 28zM476 505l-167 -165v161h-83v-269l38 -38h268v83h-159l165 165z" />
    <glyph glyph-name="arrowleft.ss08" horiz-adv-x="764" 
d="M382 -12q-75 0 -141 28t-115.5 78t-77.5 115.5t-28 140.5t28 140.5t78 115.5t115.5 78t140.5 28t140.5 -28t115.5 -78t78 -115.5t28 -140.5t-28 -140.5t-78 -115.5t-115.5 -78t-140.5 -28zM375 141l61 59l-107 105h240v90h-240l107 105l-61 59l-180 -181v-55z" />
    <glyph glyph-name="uni2196.ss08" horiz-adv-x="764" 
d="M382 -12q-75 0 -140.5 28t-115.5 78t-78 115.5t-28 140.5t28 141t78 115.5t115.5 77.5t140.5 28t140.5 -28t115.5 -78t78 -115.5t28 -140.5t-28 -140.5t-78 -115.5t-115.5 -78t-140.5 -28zM476 195l62 63l-165 165h159v83h-268l-38 -38v-269h83v161z" />
    <glyph glyph-name="arrowboth.ss08" horiz-adv-x="764" 
d="M382 -12q-75 0 -140.5 28t-115.5 78t-78 115.5t-28 140.5t28 140.5t78 115.5t115.5 78t140.5 28t140.5 -28t115.5 -77.5t78 -115.5t28 -141t-28 -140.5t-78 -115.5t-115.5 -78t-140.5 -28zM285 144l68 52l-89 107h242l-89 -107l69 -52l146 179v55l-147 178l-68 -51
l89 -108h-242l89 108l-68 51l-147 -178v-55z" />
    <glyph glyph-name="arrowupdn.ss08" horiz-adv-x="764" 
d="M382 -12q-75 0 -140.5 28t-115.5 78t-78 115.5t-28 140.5t28 140.5t78 115.5t115.5 78t140.5 28t140.5 -28t115.5 -78t78 -115.5t28 -140.5t-28 -140.5t-77.5 -115.5t-115.5 -78t-141 -28zM356 105h55l176 146l-49 67l-108 -88v240l108 -88l49 67l-176 146h-55l-178 -145
l51 -68l107 88v-240l-107 88l-51 -68z" />
    <glyph glyph-name="uni030C.alt" 
d="M0 499v59q24 0 35 8.5t11 27.5v18h-46v113h110q7 -30 10 -53.5t3 -48.5q0 -58 -31 -91t-92 -33z" />
    <glyph glyph-name="uni0308.case" 
d="M67 765q-28 0 -47.5 19.5t-19.5 48.5t19.5 48.5t47.5 19.5q30 0 49.5 -19.5t19.5 -48.5t-19.5 -48.5t-49.5 -19.5zM258 765q-29 0 -48.5 19.5t-19.5 48.5t19.5 48.5t48.5 19.5t48.5 -19.5t19.5 -48.5t-19.5 -48.5t-48.5 -19.5z" />
    <glyph glyph-name="uni0307.case" 
d="M67 763q-28 0 -47.5 19.5t-19.5 47.5q0 30 19.5 49.5t47.5 19.5q30 0 49.5 -19.5t19.5 -49.5q0 -28 -19.5 -47.5t-49.5 -19.5z" />
    <glyph glyph-name="gravecomb.case" 
d="M234 743l-234 105v118v0l234 -118v-105z" />
    <glyph glyph-name="acutecomb.case" 
d="M0 743v105l234 118v0v-118z" />
    <glyph glyph-name="uni030B.case" 
d="M182 745l85 195h121l-113 -195h-93zM0 745l73 195h120l-100 -195h-93z" />
    <glyph glyph-name="uni0302.case" 
d="M0 742v106l151 79l150 -79v-106l-150 83z" />
    <glyph glyph-name="uni030C.case" 
d="M151 742l-151 80v105l151 -86l150 86v-105z" />
    <glyph glyph-name="uni0306.case" 
d="M163 745q-49 0 -86 19.5t-57 55.5t-20 87v18h77q0 -32 18.5 -50.5t67.5 -18.5t67.5 18.5t18.5 50.5h78v-18q0 -51 -21 -87.5t-57.5 -55.5t-85.5 -19z" />
    <glyph glyph-name="uni030A.case" 
d="M118 746q-48 0 -83 31t-35 85q0 55 35 86t83 31q49 0 84 -31t35 -86q0 -54 -35 -85t-84 -31zM118 811q21 0 35.5 14t14.5 38t-14.5 37.5t-35.5 13.5q-20 0 -35 -13.5t-15 -37.5t15 -38t35 -14z" />
    <glyph glyph-name="tildecomb.case" 
d="M248 749q-29 0 -50 11.5t-38.5 23t-38.5 11.5q-16 0 -27.5 -11t-15.5 -34h-78q12 72 45 104t83 32q29 0 50 -11.5t39 -22.5t38 -11q17 0 28.5 11t14.5 34h78q-11 -72 -44.5 -104.5t-83.5 -32.5z" />
    <glyph glyph-name="uni0304.case" 
d="M0 776v105h387v-105h-387z" />
    <glyph glyph-name="uni0327.case" 
d="M0 -265v84h122q22 0 34 7t12 24q0 16 -12 23t-34 7h-66v127h92v-50q31 0 61 -11t49 -35t19 -64q0 -39 -19 -63.5t-49.5 -36.5t-65.5 -12h-143z" />
    <glyph glyph-name="uni0328.case" 
d="M141 -214q-39 0 -71 12t-51 36.5t-19 61.5q0 28 13.5 54t46.5 51t92 49l43 19l32 -69l-49 -24q-36 -19 -51 -34t-15 -33q0 -17 12.5 -27t35.5 -10q15 0 34 4t39 11v-86q-20 -7 -43.5 -11t-48.5 -4z" />
    </font>
</defs>
</svg>
