<?xml version="1.0" standalone="no"?>
<!DOCTYPE svg PUBLIC "-//W3C//DTD SVG 1.1//EN" "http://www.w3.org/Graphics/SVG/1.1/DTD/svg11.dtd" >
<svg xmlns="http://www.w3.org/2000/svg" xmlns:xlink="http://www.w3.org/1999/xlink" version="1.1">
<metadata>
Created by FontForge 20201107 at Wed Jun 14 12:00:55 2023
 By 
Copyright 2014 The DM Sans Project Authors (https://github.com/googlefonts/dm-fonts)
</metadata>
<defs>
<font id="DMSans24pt-Italic" horiz-adv-x="0" >
  <font-face 
    font-family="DM Sans 24pt"
    font-weight="400"
    font-style="italic"
    font-stretch="normal"
    units-per-em="1000"
    panose-1="0 0 0 0 0 0 0 0 0 0"
    ascent="800"
    descent="-200"
    x-height="496"
    cap-height="700"
    bbox="-121 -259 1132 976"
    underline-thickness="50"
    underline-position="-125"
    slope="-10"
    unicode-range="U+000D-FB02"
  />
<missing-glyph horiz-adv-x="549" 
d="M30 0l124 700h401l-124 -700h-401zM110 57h261l104 586h-261z" />
    <glyph glyph-name="fi" unicode="fi" horiz-adv-x="567" 
d="M52 0l75 425h-74l12 71h74l15 86q9 48 30.5 78.5t56 45t80.5 14.5h49l-13 -72h-36q-37 0 -56.5 -15t-26.5 -53l-14 -84h308l-88 -496h-84l75 425h-224l-75 -425h-84zM520 606q-24 0 -41 16.5t-17 40.5q0 26 17 41.5t41 15.5q25 0 41.5 -15.5t16.5 -41.5
q0 -24 -16.5 -40.5t-41.5 -16.5z" />
    <glyph glyph-name="fl" unicode="fl" horiz-adv-x="556" 
d="M52 0l102 582q9 48 30.5 78.5t56 45t80.5 14.5h49l-13 -72h-36q-37 0 -56.5 -15t-26.5 -53l-102 -580h-84zM53 425l12 71h281l-13 -71h-280zM358 0l128 720h84l-128 -720h-84z" />
    <glyph glyph-name=".notdef" horiz-adv-x="549" 
d="M30 0l124 700h401l-124 -700h-401zM110 57h261l104 586h-261z" />
    <glyph glyph-name=".null" 
 />
    <glyph glyph-name="nonmarkingreturn" horiz-adv-x="333" 
 />
    <glyph glyph-name="CR" unicode="&#xd;" horiz-adv-x="600" 
 />
    <glyph glyph-name="space" unicode=" " horiz-adv-x="286" 
 />
    <glyph glyph-name="exclam" unicode="!" horiz-adv-x="247" 
d="M69 194l80 506h91l-100 -506h-71zM89 -5q-25 0 -41.5 16.5t-16.5 40.5t16.5 40.5t41.5 16.5t41 -16.5t16 -40.5t-16 -40.5t-41 -16.5z" />
    <glyph glyph-name="quotedbl" unicode="&#x22;" horiz-adv-x="307" 
d="M222 558l57 197h80l-79 -197h-58zM92 558l57 197h80l-79 -197h-58z" />
    <glyph glyph-name="numbersign" unicode="#" horiz-adv-x="814" 
d="M395 0l276 706h80l-276 -706h-80zM101 0l276 706h79l-275 -706h-80zM37 197l13 75h678l-14 -75h-677zM121 435l13 74h678l-12 -74h-679z" />
    <glyph glyph-name="dollar" unicode="$" horiz-adv-x="581" 
d="M186 -87l155 878h69l-155 -878h-69zM263 -12q-74 0 -128.5 25.5t-81 75t-16.5 121.5h88q-10 -44 7 -78t54 -53.5t86 -19.5q54 0 90.5 17.5t55 49.5t18.5 75q0 27 -11 46t-30 32.5t-43.5 23.5t-52.5 19.5t-56 19.5q-66 24 -98.5 65.5t-32.5 94.5q0 63 31 110t87 73.5
t130 26.5q65 0 113 -24.5t71.5 -68.5t12.5 -101h-87q6 35 -8.5 62.5t-44 43.5t-69.5 16q-44 0 -77.5 -16t-51.5 -44t-18 -65q0 -23 9 -39.5t25.5 -29t39 -23t49.5 -19.5t57 -20q31 -11 57.5 -27t46 -37t30.5 -48t11 -61q0 -67 -33 -117t-92 -78t-138 -28z" />
    <glyph glyph-name="percent" unicode="%" horiz-adv-x="775" 
d="M96 0l530 700h83l-529 -700h-84zM532 -12q-40 0 -71 16.5t-48.5 48t-17.5 74.5q0 54 25.5 99t69 71.5t95.5 26.5q40 0 70.5 -16.5t48 -47.5t17.5 -74q0 -54 -25 -99t-68 -72t-96 -27zM227 375q-40 0 -71 17t-48.5 48t-17.5 74q0 54 25.5 98.5t68.5 71.5t96 27
q40 0 70.5 -16.5t48 -47.5t17.5 -75q0 -54 -25.5 -98.5t-68 -71.5t-95.5 -27zM541 51q30 0 55 17.5t40 47t15 63.5q0 42 -21 62.5t-53 20.5q-30 0 -55.5 -17.5t-40.5 -46.5t-15 -64q0 -42 22 -62.5t53 -20.5zM235 438q31 0 56 17.5t40 46.5t15 64q0 42 -21.5 62.5
t-53.5 20.5q-30 0 -55.5 -17.5t-40.5 -46.5t-15 -64q0 -42 22 -62.5t53 -20.5z" />
    <glyph glyph-name="ampersand" unicode="&#x26;" horiz-adv-x="734" 
d="M570 0l-319 392q-31 38 -46 69.5t-15 65.5q0 55 27 96.5t74.5 65t107.5 23.5q52 0 88.5 -19.5t53.5 -54t8 -79.5h-83q7 38 -15 62t-63 24q-49 0 -81.5 -30t-32.5 -74q0 -27 13 -53t37 -58l351 -430h-105zM240 -12q-64 0 -112 22t-74 62t-26 94q0 61 29 111t81 87.5
t119 58.5l36 11l34 -54l-41 -13q-76 -25 -123.5 -72.5t-47.5 -115.5q0 -34 17 -61t47.5 -42.5t72.5 -15.5q50 0 93.5 17t86.5 53q30 26 60.5 60.5t62.5 78.5l70 93h88l-85 -118q-40 -56 -78.5 -99.5t-78.5 -74.5q-54 -42 -110.5 -62t-120.5 -20z" />
    <glyph glyph-name="quotesingle" unicode="'" horiz-adv-x="154" 
d="M103 558l23 197h80l-45 -197h-58z" />
    <glyph glyph-name="parenleft" unicode="(" horiz-adv-x="373" 
d="M178 -145q-36 42 -64.5 96.5t-45.5 121t-17 142.5q0 112 36.5 221t103.5 205.5t156 169.5h86l-1 -8q-93 -78 -159.5 -173t-101.5 -198t-35 -206q0 -70 16 -135t45.5 -122.5t69.5 -105.5l-2 -8h-87z" />
    <glyph glyph-name="parenright" unicode=")" horiz-adv-x="373" 
d="M225 811q36 -41 65 -96t45.5 -121t16.5 -143q0 -111 -36.5 -220.5t-103 -206t-156.5 -169.5h-86l1 8q93 78 159.5 173t101.5 198t35 206q0 71 -16 135.5t-45.5 122t-69.5 105.5l2 8h87z" />
    <glyph glyph-name="asterisk" unicode="*" horiz-adv-x="477" 
d="M227 360l40 153l-140 -87l-24 61l149 61l-126 60l42 59l111 -87l14 153h67l-41 -153l139 86l23 -57l-150 -62l128 -61l-42 -59l-111 86l-12 -153h-67z" />
    <glyph glyph-name="plus" unicode="+" horiz-adv-x="550" 
d="M206 72l77 436h76l-76 -436h-77zM48 255l12 71h457l-12 -71h-457z" />
    <glyph glyph-name="comma" unicode="," horiz-adv-x="178" 
d="M-63 -119l97 221h87l-126 -221h-58z" />
    <glyph glyph-name="hyphen" unicode="-" horiz-adv-x="515" 
d="M74 255l12 71h396l-12 -71h-396z" />
    <glyph glyph-name="period" unicode="." horiz-adv-x="197" 
d="M64 -5q-25 0 -41.5 16.5t-16.5 40.5t16.5 40.5t41.5 16.5t41 -16.5t16 -40.5t-16 -40.5t-41 -16.5z" />
    <glyph glyph-name="slash" unicode="/" horiz-adv-x="391" 
d="M-32 -95l402 859h83l-403 -859h-82z" />
    <glyph glyph-name="zero" unicode="0" horiz-adv-x="697" 
d="M305 -12q-78 0 -133.5 34t-84.5 95t-29 142q0 96 28 178t78.5 144t118 96.5t145.5 34.5q79 0 134 -34t84 -95t29 -142q0 -96 -28 -178.5t-78.5 -144t-118 -96t-145.5 -34.5zM316 62q56 0 105 29t86 80t58.5 117.5t21.5 142.5q0 65 -21 111t-59 70.5t-90 24.5
q-56 0 -105 -29t-86.5 -79.5t-58.5 -117t-21 -142.5q0 -65 21 -111.5t59.5 -71t89.5 -24.5z" />
    <glyph glyph-name="one" unicode="1" horiz-adv-x="303" 
d="M99 0l107 606l-118 -30l12 63l152 61h57l-124 -700h-86z" />
    <glyph glyph-name="two" unicode="2" horiz-adv-x="586" 
d="M33 0l10 59q111 77 190 142t129 121.5t74 107.5t24 99q0 28 -11 53.5t-35.5 41.5t-65.5 16q-45 0 -79 -20.5t-54 -54t-27 -73.5h-82q13 69 49 118t88 75.5t114 26.5q56 0 98 -21t66 -60t24 -93q0 -44 -13.5 -86.5t-42 -86t-73 -90t-105.5 -97t-141 -108.5h337l-12 -70
h-462z" />
    <glyph glyph-name="three" unicode="3" horiz-adv-x="587" 
d="M251 -12q-78 0 -127 28.5t-69 78t-12 113.5h85q-1 -51 11.5 -83.5t42 -48t78.5 -15.5q50 0 89 20t61.5 55.5t22.5 82.5q0 40 -19.5 67.5t-53 41.5t-75.5 14h-52l12 71h53q74 0 120 36.5t46 99.5q0 38 -26.5 64t-79.5 26q-58 0 -98.5 -34t-54.5 -87h-85q13 57 47 101
t85 68.5t114 24.5q60 0 101 -19.5t62.5 -53.5t21.5 -78q0 -40 -18 -77t-50 -64.5t-76 -38.5q33 -7 58 -27.5t39 -52t14 -72.5q0 -70 -35 -124.5t-95 -85.5t-137 -31z" />
    <glyph glyph-name="four" unicode="4" horiz-adv-x="605" 
d="M347 0l27 150h-355l11 65l426 485h98l-84 -476h104l-13 -74h-104l-27 -150h-83zM125 224h266l68 383v0z" />
    <glyph glyph-name="five" unicode="5" horiz-adv-x="615" 
d="M271 -12q-64 0 -113 23.5t-76.5 68.5t-27.5 109h83q1 -58 41 -93.5t103 -35.5q54 0 98.5 26.5t71 73.5t26.5 106q0 41 -16.5 73.5t-46.5 51.5t-71 19q-58 0 -102.5 -26t-70.5 -68h-80l128 384h367l-13 -73h-303l-78 -213q30 29 72.5 48t97.5 19q45 0 81.5 -15.5t62.5 -43
t40 -64t14 -78.5q0 -84 -38.5 -150t-103.5 -104t-146 -38z" />
    <glyph glyph-name="six" unicode="6" horiz-adv-x="620" 
d="M282 -12q-61 0 -103 19t-68 52.5t-37.5 77.5t-11.5 93q0 97 24.5 184t70 154t108 105.5t138.5 38.5q62 0 103 -26t60.5 -69.5t15.5 -96.5h-78q0 56 -30 87.5t-83 31.5q-50 0 -96 -30t-82 -92t-59 -158q-1 -5 -2 -11t-3 -12q24 33 55 58t70 39.5t84 14.5q59 0 103 -25.5
t69 -69.5t25 -100q0 -55 -21 -103t-58.5 -84.5t-87 -57t-106.5 -20.5zM288 62q53 0 94 23.5t64 63.5t23 91q0 39 -16 69.5t-46 48t-72 17.5q-52 0 -93 -24t-65 -64t-24 -89q0 -38 16.5 -69t46.5 -49t72 -18z" />
    <glyph glyph-name="seven" unicode="7" horiz-adv-x="533" 
d="M85 0l389 628h-381l13 72h470l-11 -63l-388 -637h-92z" />
    <glyph glyph-name="eight" unicode="8" horiz-adv-x="606" 
d="M264 -12q-62 0 -110 21.5t-75 61.5t-27 95q0 50 23 92.5t62.5 72.5t90.5 42q-46 17 -72 52.5t-26 78.5q0 61 34 108t91.5 73.5t127.5 26.5q61 0 103.5 -20.5t65 -56.5t22.5 -85q0 -46 -20.5 -80.5t-54 -58.5t-73.5 -38q56 -16 82.5 -57.5t26.5 -94.5q0 -70 -37 -122.5
t-98.5 -81.5t-135.5 -29zM275 62q51 0 90.5 19.5t62.5 54.5t23 82q0 58 -37 86.5t-96 28.5q-49 0 -90.5 -19.5t-66 -54.5t-24.5 -83q0 -53 37 -83.5t101 -30.5zM338 403q36 0 70.5 14.5t57 45t22.5 77.5q0 39 -16.5 60.5t-43 30.5t-57.5 9q-44 0 -79 -17t-55.5 -47
t-20.5 -71q0 -52 35 -77t87 -25z" />
    <glyph glyph-name="nine" unicode="9" horiz-adv-x="621" 
d="M254 -12q-62 0 -103 26t-60.5 70t-16.5 96h78q0 -56 30.5 -87.5t82.5 -31.5q40 0 73.5 16.5t60.5 45.5t48 67.5t35.5 83t24.5 90.5q-23 -32 -54.5 -57.5t-69.5 -40t-84 -14.5q-59 0 -103.5 25.5t-69.5 69.5t-25 100q0 55 21 103t58.5 84.5t87.5 57t107 20.5q61 0 103 -19
t68 -52.5t37.5 -77.5t11.5 -93q0 -97 -24.5 -184t-70 -154t-108 -105.5t-138.5 -38.5zM321 325q52 0 93.5 24t65.5 64.5t24 88.5q0 38 -16.5 69t-47 49t-72.5 18q-53 0 -93.5 -23.5t-63.5 -63.5t-23 -91q0 -38 16 -69t46 -48.5t71 -17.5z" />
    <glyph glyph-name="colon" unicode=":" horiz-adv-x="202" 
d="M65 -5q-25 0 -41.5 16.5t-16.5 40.5t16.5 40.5t41.5 16.5t41 -16.5t16 -40.5t-16 -40.5t-41 -16.5zM135 394q-25 0 -41.5 16.5t-16.5 40.5t16.5 40.5t41.5 16.5t41 -16.5t16 -40.5t-16 -40.5t-41 -16.5z" />
    <glyph glyph-name="semicolon" unicode=";" horiz-adv-x="212" 
d="M132 394q-25 0 -41.5 16.5t-16.5 40.5t16.5 40.5t41.5 16.5t41 -16.5t16 -40.5t-16 -40.5t-41 -16.5zM-42 -119l97 221h87l-126 -221h-58z" />
    <glyph glyph-name="less" unicode="&#x3c;" horiz-adv-x="550" 
d="M515 581l-296 -234l204 -227h-108l-203 231v0l285 230h118z" />
    <glyph glyph-name="equal" unicode="=" horiz-adv-x="550" 
d="M96 359l12 72h398l-12 -72h-398zM59 151l12 72h399l-13 -72h-398z" />
    <glyph glyph-name="greater" unicode="&#x3e;" horiz-adv-x="550" 
d="M71 120l296 234l-204 227h108l203 -231v0l-285 -230h-118z" />
    <glyph glyph-name="question" unicode="?" horiz-adv-x="519" 
d="M143 196l25 161h29q53 0 97.5 8.5t77 28.5t50.5 53.5t18 82.5q0 34 -14.5 58.5t-41 38.5t-63.5 14q-42 0 -76 -16t-56 -44.5t-30 -68.5h-79q11 60 46 105t88.5 70t118.5 25q58 0 100 -21.5t65.5 -60.5t23.5 -92q0 -77 -36.5 -130.5t-100.5 -81t-148 -27.5l-22 -103h-72z
M159 -5q-25 0 -41.5 16.5t-16.5 40.5t16.5 40.5t41.5 16.5t41 -16.5t16 -40.5t-16 -40.5t-41 -16.5z" />
    <glyph glyph-name="at" unicode="@" horiz-adv-x="999" 
d="M421 -199q-107 0 -187.5 41t-125 116.5t-44.5 177.5q0 106 37 197.5t104 160.5t158.5 107.5t199.5 38.5q112 0 193.5 -42.5t126 -118t44.5 -175.5q0 -58 -14 -113t-41.5 -99.5t-67 -71t-91.5 -26.5q-60 0 -86 37t-19 95l3 34l18 -30q-26 -63 -81 -99.5t-120 -36.5
q-76 0 -118.5 46t-42.5 124q0 55 17.5 105.5t49.5 90t76.5 62.5t98.5 23q62 0 98.5 -33t42.5 -95l-21 -13l23 130h72l-50 -286q-7 -43 4 -69.5t48 -26.5q33 0 57.5 23t41.5 60t25.5 80.5t8.5 84.5q0 88 -36.5 150.5t-105 96.5t-163.5 34q-91 0 -168 -33.5t-134 -93.5
t-88.5 -139.5t-31.5 -171.5q0 -90 36.5 -153t105 -96t162.5 -33q44 0 86.5 8.5t80.5 25.5l12 -57q-44 -19 -93.5 -28t-100.5 -9zM454 58q42 0 78 23t59.5 63.5t27.5 93.5q5 40 -6 72t-36.5 51.5t-66.5 19.5q-38 0 -69 -17.5t-52.5 -46.5t-33 -65.5t-11.5 -74.5q0 -53 28 -86
t82 -33z" />
    <glyph glyph-name="A" unicode="A" horiz-adv-x="664" 
d="M-14 0l382 700h89l133 -700h-87l-108 601v0l-319 -601h-90zM114 180l34 66h359l11 -66h-404z" />
    <glyph glyph-name="B" unicode="B" horiz-adv-x="603" 
d="M31 0l123 700h247q65 0 107 -19.5t62.5 -53t20.5 -76.5q0 -55 -25.5 -97.5t-69.5 -68t-101 -31.5l15 10q40 -1 71 -19.5t49 -50t18 -72.5q0 -66 -35.5 -116t-95 -78t-132.5 -28h-254zM127 68h161q53 0 92.5 19.5t62 54.5t22.5 81q0 48 -36 76t-98 28h-159zM185 393h155
q73 0 118 39.5t45 104.5q0 30 -13.5 51.5t-41 33t-69.5 11.5h-153z" />
    <glyph glyph-name="C" unicode="C" horiz-adv-x="722" 
d="M339 -12q-89 0 -151.5 35t-95.5 98t-33 147q0 94 30.5 175t85.5 141.5t128.5 94t159.5 33.5q120 0 186 -57t69 -161h-95q-2 67 -45 105.5t-127 38.5q-65 0 -120.5 -27.5t-96.5 -77t-64 -115.5t-23 -143q0 -67 24.5 -114.5t70 -73t109.5 -25.5q84 0 139.5 38t81.5 103h95
q-26 -67 -72.5 -115.5t-111 -74t-144.5 -25.5z" />
    <glyph glyph-name="D" unicode="D" horiz-adv-x="701" 
d="M31 0l123 700h215q106 0 173.5 -33t100.5 -96t33 -154q0 -93 -30 -169.5t-86.5 -132t-135.5 -85.5t-178 -30h-215zM127 70h130q105 0 179 42t113.5 119t39.5 180q0 72 -24 120.5t-75.5 73.5t-134.5 25h-129z" />
    <glyph glyph-name="E" unicode="E" horiz-adv-x="536" 
d="M31 0l123 700h405l-13 -67h-320l-43 -247h290l-11 -66h-291l-44 -253h320l-12 -67h-404z" />
    <glyph glyph-name="F" unicode="F" horiz-adv-x="524" 
d="M31 0l123 700h416l-12 -67h-332l-43 -249h279l-12 -65h-279l-56 -319h-84z" />
    <glyph glyph-name="G" unicode="G" horiz-adv-x="761" 
d="M333 -12q-85 0 -146 38t-93.5 103.5t-32.5 149.5q0 94 29.5 173t84 137.5t128.5 90.5t163 32q119 0 191 -56.5t76 -157.5h-97q-4 63 -49.5 100t-129.5 37q-92 0 -161.5 -45t-108 -124t-38.5 -182q0 -67 24.5 -116.5t69.5 -77t106 -27.5q75 0 130 30t91.5 85t55.5 130
h-202l11 66h289l-66 -374h-77l13 115v0q-32 -41 -69.5 -69.5t-84 -43t-107.5 -14.5z" />
    <glyph glyph-name="H" unicode="H" horiz-adv-x="680" 
d="M478 0l124 700h84l-124 -700h-84zM31 0l123 700h84l-123 -700h-84zM155 324l12 66h401l-12 -66h-401z" />
    <glyph glyph-name="I" unicode="I" horiz-adv-x="233" 
d="M31 0l123 700h84l-123 -700h-84z" />
    <glyph glyph-name="J" unicode="J" horiz-adv-x="483" 
d="M175 -12q-58 0 -97.5 24t-56 68.5t-5.5 105.5h85q-6 -34 0 -62t27 -44.5t60 -16.5q38 0 63.5 15.5t40.5 40.5t20 53l92 528h84l-92 -528q-15 -84 -75 -134t-146 -50z" />
    <glyph glyph-name="K" unicode="K" horiz-adv-x="583" 
d="M31 0l123 700h84l-55 -317l347 317h106l-309 -279l190 -421h-97l-161 360l-96 -87l-48 -273h-84z" />
    <glyph glyph-name="L" unicode="L" horiz-adv-x="526" 
d="M31 0l123 700h84l-111 -633h326l-12 -67h-410z" />
    <glyph glyph-name="M" unicode="M" horiz-adv-x="848" 
d="M31 0l123 700h98l166 -488v0l336 488h99l-123 -700h-84l97 550v0l-313 -450h-63l-155 449v0l-97 -549h-84z" />
    <glyph glyph-name="N" unicode="N" horiz-adv-x="690" 
d="M31 0l123 700h83l275 -567v0l99 567h84l-123 -700h-84l-273 567v0l-100 -567h-84z" />
    <glyph glyph-name="O" unicode="O" horiz-adv-x="793" 
d="M352 -12q-87 0 -152.5 38.5t-102.5 106t-37 153.5q0 89 32.5 166t90.5 135.5t133.5 91.5t160.5 33q87 0 152.5 -38t102.5 -105t37 -154q0 -89 -32.5 -166.5t-90.5 -136t-133 -91.5t-161 -33zM364 62q66 0 123.5 27t101 74.5t68.5 111t25 136.5q0 70 -27.5 120.5t-76.5 78
t-113 27.5q-66 0 -123.5 -26.5t-101.5 -74t-68.5 -110.5t-24.5 -135q0 -70 27.5 -121.5t76.5 -79.5t113 -28z" />
    <glyph glyph-name="P" unicode="P" horiz-adv-x="583" 
d="M31 0l123 700h230q72 0 118 -24t68 -64t22 -87q0 -73 -35.5 -125.5t-98 -80t-145.5 -27.5h-146l-52 -292h-84zM179 363h144q86 0 133.5 38.5t47.5 117.5q0 48 -31.5 79.5t-102.5 31.5h-144z" />
    <glyph glyph-name="Q" unicode="Q" horiz-adv-x="793" 
d="M529 -95l-156 368h96l155 -368h-95zM352 -12q-87 0 -152.5 38.5t-102.5 106t-37 153.5q0 89 32.5 166t90.5 135.5t133.5 91.5t160.5 33q87 0 152.5 -38t102.5 -105t37 -154q0 -89 -32.5 -166.5t-90.5 -136t-133 -91.5t-161 -33zM364 62q66 0 123.5 27t101 74.5t68.5 111
t25 136.5q0 70 -27.5 120.5t-76.5 78t-113 27.5q-66 0 -123.5 -26.5t-101.5 -74t-68.5 -110.5t-24.5 -135q0 -70 27.5 -121.5t76.5 -79.5t113 -28z" />
    <glyph glyph-name="R" unicode="R" horiz-adv-x="594" 
d="M31 0l123 700h225q72 0 117 -24t66 -64t21 -88q0 -72 -35.5 -125t-98.5 -81.5t-145 -28.5h-138l-51 -289h-84zM409 0l-99 313h87l103 -313h-91zM178 355h136q83 0 133 41.5t50 119.5q0 47 -32 80t-104 33h-135z" />
    <glyph glyph-name="S" unicode="S" horiz-adv-x="581" 
d="M263 -12q-74 0 -128.5 25.5t-81 75t-16.5 121.5h88q-10 -44 7 -78t54 -53.5t86 -19.5q54 0 90.5 17.5t55 49.5t18.5 75q0 27 -11 46t-30 32.5t-43.5 23.5t-52.5 19.5t-56 19.5q-66 24 -98.5 65.5t-32.5 94.5q0 63 31 110t87 73.5t130 26.5q65 0 113 -24.5t71.5 -68.5
t12.5 -101h-87q6 35 -8.5 62.5t-44 43.5t-69.5 16q-44 0 -77.5 -16t-51.5 -44t-18 -65q0 -23 9 -39.5t25.5 -29t39 -23t49.5 -19.5t57 -20q31 -11 57.5 -27t46 -37t30.5 -48t11 -61q0 -67 -33 -117t-92 -78t-138 -28z" />
    <glyph glyph-name="T" unicode="T" horiz-adv-x="559" 
d="M194 0l111 633h-208l12 67h501l-12 -67h-209l-111 -633h-84z" />
    <glyph glyph-name="U" unicode="U" horiz-adv-x="656" 
d="M282 -12q-82 0 -134.5 32.5t-72.5 93.5t-5 144l79 442h84l-79 -442q-10 -60 1.5 -103.5t46 -67t94.5 -23.5q53 0 95.5 20t72 63t41.5 111l79 442h84l-78 -442q-16 -93 -61.5 -152.5t-109.5 -88.5t-137 -29z" />
    <glyph glyph-name="V" unicode="V" horiz-adv-x="669" 
d="M241 0l-139 700h91l113 -608v0l330 608h91l-388 -700h-98z" />
    <glyph glyph-name="W" unicode="W" horiz-adv-x="967" 
d="M174 -1l-68 701h91l45 -596v0l277 596h94l60 -597v0l258 597h91l-320 -700h-96l-65 576v0l-272 -576z" />
    <glyph glyph-name="X" unicode="X" horiz-adv-x="604" 
d="M-3 0l274 352l-153 348h96l123 -280v0l213 280h96l-278 -351l154 -349h-96l-123 280v0l-212 -280h-94z" />
    <glyph glyph-name="Y" unicode="Y" horiz-adv-x="580" 
d="M205 0l47 266l-152 434h96l112 -354v0l238 354h94l-304 -434l-47 -266h-84z" />
    <glyph glyph-name="Z" unicode="Z" horiz-adv-x="535" 
d="M0 0l12 66l443 561h-340l14 73h437l-11 -66l-445 -561h350l-13 -73h-447z" />
    <glyph glyph-name="bracketleft" unicode="[" horiz-adv-x="308" 
d="M4 -151l170 962h174l-13 -69h-95l-145 -823h95l-12 -70h-174z" />
    <glyph glyph-name="backslash" unicode="\" horiz-adv-x="693" 
d="M605 -95h-82l-403 859h83z" />
    <glyph glyph-name="bracketright" unicode="]" horiz-adv-x="308" 
d="M333 811l-170 -962h-174l13 69h95l145 823h-95l12 70h174z" />
    <glyph glyph-name="asciicircum" unicode="^" horiz-adv-x="620" 
d="M25 178l327 522h78l142 -522h-86l-112 419v0l-263 -419h-86z" />
    <glyph glyph-name="underscore" unicode="_" horiz-adv-x="643" 
d="M9 -115l13 79h524l-13 -79h-524z" />
    <glyph glyph-name="grave" unicode="`" horiz-adv-x="210" 
d="M261 537l-189 117l12 73v0l188 -127z" />
    <glyph glyph-name="a" unicode="a" horiz-adv-x="553" 
d="M188 -12q-55 0 -90.5 18.5t-52.5 49t-17 65.5q0 55 30.5 95t86.5 61.5t130 21.5h133q8 47 -1.5 77.5t-34.5 45.5t-64 15q-49 0 -89 -24.5t-57 -71.5h-87q16 54 52.5 91t86.5 56.5t105 19.5q67 0 109.5 -25t59 -70.5t5.5 -107.5l-53 -305h-76l11 89v0q-14 -21 -32.5 -39.5
t-41.5 -32.5t-51 -21.5t-62 -7.5zM213 59q36 0 69 14.5t58.5 39t40.5 55.5t15 64v2h-126q-47 0 -81.5 -12.5t-52.5 -35.5t-18 -55q0 -34 24.5 -53t70.5 -19z" />
    <glyph glyph-name="b" unicode="b" horiz-adv-x="621" 
d="M290 -12q-40 0 -74 14t-57.5 36t-34.5 46v0l-23 -84h-76l127 720h84l-53 -301q30 35 76 62t113 27q64 0 109.5 -28t70 -76t24.5 -109q0 -65 -21.5 -121t-60.5 -97.5t-91 -65t-113 -23.5zM294 61q57 0 101 29t69 79.5t25 113.5q0 44 -17 78.5t-48 54t-74 19.5
q-57 0 -101.5 -30t-70.5 -81t-26 -115q0 -44 17.5 -77.5t49.5 -52t75 -18.5z" />
    <glyph glyph-name="c" unicode="c" horiz-adv-x="573" 
d="M252 -12q-61 0 -108 26.5t-73 74t-26 110.5q0 67 23 123.5t64 98t95 64.5t116 23q90 0 143 -47t54 -127h-86q-1 51 -36.5 76.5t-86.5 25.5q-55 0 -100 -29.5t-72 -80.5t-27 -118q0 -35 10.5 -63t28.5 -47t42 -29t52 -10q34 0 65.5 11.5t56 34.5t37.5 57h86
q-18 -51 -56 -90t-90 -61.5t-112 -22.5z" />
    <glyph glyph-name="d" unicode="d" horiz-adv-x="622" 
d="M249 -12q-64 0 -109.5 29.5t-69.5 79.5t-24 110q0 66 21.5 121t60 95.5t90 62.5t110.5 22q66 0 108 -26t62 -69l54 307h84l-127 -720h-77l7 82v0q-19 -24 -46 -45.5t-62.5 -35t-81.5 -13.5zM273 61q57 0 101.5 31t70 83.5t25.5 115.5q0 44 -17 76t-48 50t-74 18
q-57 0 -101.5 -28.5t-70.5 -78.5t-26 -113q0 -44 17 -79t48.5 -55t74.5 -20z" />
    <glyph glyph-name="e" unicode="e" horiz-adv-x="571" 
d="M248 -12q-61 0 -107 26t-71 73t-25 111q0 65 22 121t61.5 98.5t93 66.5t117.5 24q65 0 109.5 -25.5t67 -68.5t22.5 -95q0 -20 -4 -45.5t-9 -44.5h-414l11 65h332q6 46 -9 77.5t-45 48.5t-72 17q-43 0 -83 -19t-69 -55.5t-39 -91.5l-5 -28q-10 -53 2.5 -95t45 -65.5
t81.5 -23.5q52 0 91.5 24.5t61.5 64.5h83q-21 -46 -57 -82t-84.5 -57t-107.5 -21z" />
    <glyph glyph-name="f" unicode="f" horiz-adv-x="333" 
d="M52 0l102 582q9 48 30.5 78.5t56 45t80.5 14.5h49l-13 -72h-36q-37 0 -56.5 -15t-26.5 -53l-102 -580h-84zM53 425l12 71h281l-13 -71h-280z" />
    <glyph glyph-name="g" unicode="g" horiz-adv-x="549" 
d="M176 -232q-61 0 -107 16.5t-72 48t-26 76.5q0 36 14.5 66.5t43 56.5t70.5 47l50 -33q-45 -22 -69 -53t-24 -68q0 -27 15.5 -47t45.5 -30.5t71 -10.5q68 0 112 31.5t44 83.5q0 28 -22 50t-87 26q-45 3 -80 9.5t-61.5 16t-46 22t-33.5 27.5l4 24l107 86l63 -26l-110 -87
l18 42q14 -10 27.5 -17.5t30 -13t39 -9.5t54.5 -6q70 -5 109.5 -25t55.5 -49.5t16 -61.5q0 -55 -32 -98.5t-89 -68.5t-131 -25zM242 156q-55 0 -93 18.5t-57.5 51t-19.5 73.5q0 59 31 106.5t83.5 75t117.5 27.5q55 0 92.5 -19t56.5 -51t19 -73q0 -59 -30.5 -106.5t-82.5 -75
t-117 -27.5zM254 225q61 0 99.5 36.5t38.5 94.5q0 40 -26.5 61.5t-73.5 21.5q-61 0 -99.5 -36.5t-38.5 -94.5q0 -40 26.5 -61.5t73.5 -21.5zM370 426l-13 70h206l-12 -62z" />
    <glyph glyph-name="h" unicode="h" horiz-adv-x="573" 
d="M26 0l126 720h84l-54 -309v0q32 46 81.5 71.5t104.5 25.5q58 0 97 -23.5t54.5 -72t2.5 -122.5l-51 -290h-84l49 281q14 77 -12 116t-88 39q-43 0 -80.5 -21t-63.5 -60.5t-37 -97.5l-45 -257h-84z" />
    <glyph glyph-name="i" unicode="i" horiz-adv-x="241" 
d="M35 0l87 496h84l-87 -496h-84zM194 606q-25 0 -41.5 16t-16.5 41t16.5 41t41.5 16q24 0 41 -16t17 -41t-17 -41t-41 -16z" />
    <glyph glyph-name="j" unicode="j" horiz-adv-x="251" 
d="M-111 -220l13 72h38q38 0 56.5 15.5t25.5 52.5l102 576h84l-102 -578q-8 -48 -29.5 -78.5t-55.5 -45t-81 -14.5h-51zM197 606q-25 0 -41.5 16t-16.5 41t16.5 41t41.5 16q24 0 40.5 -16t16.5 -41t-16.5 -41t-40.5 -16z" />
    <glyph glyph-name="k" unicode="k" horiz-adv-x="514" 
d="M351 0l-205 274l254 222h111l-302 -251l8 64l236 -309h-102zM25 0l128 720h84l-128 -720h-84z" />
    <glyph glyph-name="l" unicode="l" horiz-adv-x="223" 
d="M25 0l128 720h84l-128 -720h-84z" />
    <glyph glyph-name="m" unicode="m" horiz-adv-x="885" 
d="M26 0l87 496h75l-7 -82v0q29 44 72 69t93 25q37 0 67 -11t51 -33t31 -56v0q33 47 82.5 73.5t101.5 26.5q55 0 94.5 -23.5t57 -72t3.5 -122.5l-51 -290h-84l49 281q14 77 -10.5 116t-78.5 39q-34 0 -66 -18t-57.5 -52t-38.5 -84l-51 -282h-83l49 281q14 77 -11 116t-79 39
q-36 0 -70.5 -21t-60 -60.5t-36.5 -97.5l-45 -257h-84z" />
    <glyph glyph-name="n" unicode="n" horiz-adv-x="573" 
d="M26 0l87 496h76l-10 -89v0q32 47 82 74t107 27q63 0 101 -28t51.5 -77t1.5 -113l-51 -290h-84l49 281q13 74 -11 114.5t-89 40.5q-42 0 -78.5 -20t-62.5 -57.5t-38 -92.5l-47 -266h-84z" />
    <glyph glyph-name="o" unicode="o" horiz-adv-x="596" 
d="M257 -12q-62 0 -110 28t-75 77t-27 111q0 65 22.5 120.5t63 96.5t94 64t114.5 23q62 0 110 -27t75 -74.5t27 -111.5q0 -65 -22.5 -121t-63 -97.5t-93.5 -65t-115 -23.5zM268 60q56 0 100.5 30t70.5 82t26 117q0 47 -19 79.5t-50 50t-68 17.5q-55 0 -99 -30t-70 -82
t-26 -117q0 -46 18.5 -79t49.5 -50.5t67 -17.5z" />
    <glyph glyph-name="p" unicode="p" horiz-adv-x="622" 
d="M-14 -220l127 716h78l-8 -82v0q21 26 48 47.5t62 34t79 12.5q65 0 110.5 -28t70 -76t24.5 -109q0 -65 -21.5 -121t-60.5 -97.5t-91 -65t-114 -23.5q-40 0 -73.5 14t-57 36t-34.5 46l-55 -304h-84zM295 61q57 0 101 29t69 79.5t25 113.5q0 44 -17 78.5t-48 54t-74 19.5
q-57 0 -102 -30t-71 -81t-26 -115q0 -44 18 -77.5t50 -52t75 -18.5z" />
    <glyph glyph-name="q" unicode="q" horiz-adv-x="623" 
d="M387 -220l52 302q-29 -36 -75 -65t-115 -29q-64 0 -109.5 29.5t-69.5 79.5t-24 110q0 66 21.5 121t60 95.5t90 62.5t110.5 22q44 0 77 -12t56.5 -33t36.5 -50v0l23 83h76l-126 -716h-84zM273 61q57 0 101.5 31t70 83.5t25.5 115.5q0 44 -17 76t-48 50t-74 18
q-57 0 -101.5 -28.5t-70.5 -78.5t-26 -113q0 -44 17 -79t48.5 -55t74.5 -20z" />
    <glyph glyph-name="r" unicode="r" horiz-adv-x="365" 
d="M26 0l87 496h77l-9 -88v0q22 31 52.5 53t69 34.5t82.5 12.5l-15 -88h-23q-34 0 -64.5 -7.5t-56 -25.5t-43.5 -47t-26 -73l-47 -267h-84z" />
    <glyph glyph-name="s" unicode="s" horiz-adv-x="503" 
d="M217 -12q-62 0 -106 21.5t-66 61t-18 93.5h85q-1 -28 10 -52t37.5 -38.5t69.5 -14.5q36 0 62 11t40.5 30.5t14.5 47.5q0 22 -13 35.5t-37.5 22.5t-57.5 15q-27 6 -54.5 15.5t-50 24.5t-36 37t-13.5 52q0 45 26 80.5t71.5 56.5t103.5 21q79 0 126.5 -39.5t43.5 -112.5h-84
q2 38 -23 59.5t-72 21.5q-46 0 -75.5 -21.5t-29.5 -52.5q0 -20 13 -33.5t36.5 -22t55.5 -15.5q31 -7 59 -17t50.5 -25t35.5 -37t13 -54q0 -52 -28 -90.5t-77 -59.5t-112 -21z" />
    <glyph glyph-name="t" unicode="t" horiz-adv-x="379" 
d="M219 0q-52 0 -83.5 16.5t-41.5 51t-1 86.5l48 271h-77l13 71h77l32 119h74l-22 -119h147l-13 -71h-146l-49 -271q-8 -47 9 -64.5t59 -17.5h65l-13 -72h-78z" />
    <glyph glyph-name="u" unicode="u" horiz-adv-x="574" 
d="M206 -12q-64 0 -102 29t-51 78.5t-2 110.5l52 290h84l-50 -281q-13 -73 11 -114t89 -41q42 0 78.5 20t63.5 58t38 92l47 266h84l-87 -496h-76l10 90v0q-31 -48 -81.5 -75t-107.5 -27z" />
    <glyph glyph-name="v" unicode="v" horiz-adv-x="539" 
d="M176 0l-108 496h87l85 -416v0l230 416h89l-284 -496h-99z" />
    <glyph glyph-name="w" unicode="w" horiz-adv-x="754" 
d="M127 0l-59 496h85l39 -427l-21 1l203 426h95l52 -426l-21 -1l190 427h84l-232 -496h-86l-54 446h22l-212 -446h-85z" />
    <glyph glyph-name="x" unicode="x" horiz-adv-x="497" 
d="M-25 0l218 251l-127 245h87l104 -205v0l175 205h90l-217 -251l126 -245h-86l-104 205v0l-175 -205h-91z" />
    <glyph glyph-name="y" unicode="y" horiz-adv-x="557" 
d="M42 -220l169 268h-28l-119 448h89l99 -386v0l241 386h88l-451 -716h-88z" />
    <glyph glyph-name="z" unicode="z" horiz-adv-x="459" 
d="M-9 0l13 69l348 357h-270l13 70h366l-13 -69l-349 -357h280l-13 -70h-375z" />
    <glyph glyph-name="braceleft" unicode="{" horiz-adv-x="426" 
d="M250 -152q-60 0 -94.5 28.5t-34.5 85.5q0 44 15.5 86t30.5 82.5t15 77.5q0 20 -8.5 37.5t-27.5 30.5t-51 20l12 68q44 9 73 29t43 58.5t14 100.5v16.5t-0.5 14.5t-0.5 14q0 70 22 117.5t63.5 72t97.5 24.5h53l-13 -72h-38q-25 0 -48.5 -9.5t-39 -37.5t-16.5 -86v-20v-21
t-1 -24q0 -68 -18.5 -111.5t-50.5 -66.5t-73 -32v-2q47 -11 68.5 -40t21.5 -68q0 -46 -14.5 -89t-29.5 -81.5t-15 -69.5q0 -36 21 -48.5t51 -12.5h38l-12 -72h-53z" />
    <glyph glyph-name="bar" unicode="|" horiz-adv-x="233" 
d="M13 -100l145 820h84l-145 -820h-84z" />
    <glyph glyph-name="braceright" unicode="}" horiz-adv-x="426" 
d="M204 811q60 0 94.5 -28.5t34.5 -85.5q0 -43 -15 -85.5t-30.5 -82.5t-15.5 -78q0 -20 8.5 -37.5t27.5 -30.5t51 -20l-12 -68q-44 -8 -73 -28.5t-43 -58.5t-14 -101q0 -8 0.5 -16t0.5 -15v-14q0 -70 -22 -117.5t-63 -72t-98 -24.5h-53l13 72h38q25 0 48.5 9.5t39.5 38
t16 85.5q1 10 0.5 20t-0.5 21.5t1 23.5q1 69 19 112t50 66.5t73 31.5v2q-47 11 -68.5 40t-21.5 68q0 46 15 89.5t29.5 81.5t14.5 69q0 36 -21 48.5t-51 12.5h-38l12 72h53z" />
    <glyph glyph-name="asciitilde" unicode="~" horiz-adv-x="550" 
d="M356 249q-28 0 -48.5 10t-36.5 23t-33 23t-39 10q-25 0 -46.5 -18t-32.5 -47h-63q17 48 41.5 79.5t54.5 46.5t65 15q29 0 49 -10t36.5 -23t33 -23t38.5 -10q26 0 47.5 18t31.5 48h63q-16 -48 -40.5 -79.5t-55 -47t-65.5 -15.5z" />
    <glyph glyph-name="uni00A0" unicode="&#xa0;" horiz-adv-x="286" 
 />
    <glyph glyph-name="exclamdown" unicode="&#xa1;" horiz-adv-x="247" 
d="M179 310l-80 -506h-91l100 506h71zM159 509q25 0 41.5 -16.5t16.5 -40.5t-16.5 -40.5t-41.5 -16.5t-41 16.5t-16 40.5t16 40.5t41 16.5z" />
    <glyph glyph-name="cent" unicode="&#xa2;" horiz-adv-x="573" 
d="M193 -101l25 144h82l-26 -144h-81zM291 455l25 145h82l-26 -145h-81zM252 -12q-61 0 -108 26.5t-73 74t-26 110.5q0 67 23 123.5t64 98t95 64.5t116 23q90 0 143 -47t54 -127h-86q-1 51 -36.5 76.5t-86.5 25.5q-55 0 -100 -29.5t-72 -80.5t-27 -118q0 -35 10.5 -63
t28.5 -47t42 -29t52 -10q34 0 65.5 11.5t56 34.5t37.5 57h86q-18 -51 -56 -90t-90 -61.5t-112 -22.5z" />
    <glyph glyph-name="sterling" unicode="&#xa3;" horiz-adv-x="600" 
d="M48 0l9 49q36 34 62 68.5t40 73.5t14 86q0 22 -3.5 43.5t-7.5 43t-7.5 44.5t-3.5 48q0 76 31.5 133.5t88 90t129.5 32.5q48 0 84.5 -13.5t61 -40t35.5 -64.5t6 -87h-77q5 41 -7 71t-39.5 47t-69.5 17q-52 0 -89 -23.5t-56.5 -64t-19.5 -92.5q0 -24 3.5 -47t8 -45.5
t8 -44.5t3.5 -45q0 -64 -29.5 -117t-78.5 -94h365l-12 -69h-449zM56 310l11 59h367l-10 -59h-368z" />
    <glyph glyph-name="currency" unicode="&#xa4;" horiz-adv-x="533" 
d="M244 121q-44 0 -77.5 20t-51.5 54.5t-18 76.5q0 59 28 104.5t75.5 71t105.5 25.5q43 0 76 -18.5t52 -51.5t19 -76q0 -58 -28.5 -104.5t-76 -74t-104.5 -27.5zM75 92l-31 38l97 83l34 -36zM402 92l-65 80l44 38l65 -80zM255 186q33 0 60 17.5t42.5 48.5t15.5 69
q0 30 -11 49.5t-29 29t-39 9.5q-33 0 -59.5 -17.5t-42 -48t-15.5 -70.5q0 -29 11 -48.5t28.5 -29t38.5 -9.5zM172 385l-68 81l44 38l68 -82zM405 381l-27 40l96 83l32 -38z" />
    <glyph glyph-name="yen" unicode="&#xa5;" horiz-adv-x="602" 
d="M38 167l11 61h484l-11 -61h-484zM277 318l-212 1l10 60h203zM350 318l20 61h189l-10 -60zM216 0l47 266l-152 434h96l112 -354v0l238 354h94l-304 -434l-47 -266h-84z" />
    <glyph glyph-name="brokenbar" unicode="&#xa6;" horiz-adv-x="233" 
d="M99 387l59 333h84l-59 -333h-84zM13 -100l59 333h84l-59 -333h-84z" />
    <glyph glyph-name="section" unicode="&#xa7;" horiz-adv-x="587" 
d="M216 -232q-66 0 -114 25t-70 69t-13 100h87q-5 -29 5 -57t37.5 -46.5t73.5 -18.5q44 0 78 17t54 47.5t20 68.5q0 27 -13.5 44t-38 29.5t-57 23.5t-71.5 25q-41 15 -74 37t-51.5 54t-18.5 76q0 49 22 90.5t62 75.5q-7 13 -10.5 27.5t-3.5 31.5q0 64 31.5 115t87.5 80.5
t129 29.5q66 0 113.5 -25t70.5 -68.5t13 -100.5h-87q5 29 -5.5 57t-37.5 46.5t-73 18.5q-43 1 -78 -16.5t-55 -48t-20 -68.5q0 -27 14 -45t39 -30t58 -22.5t70 -24.5q40 -14 72.5 -36t52 -53.5t19.5 -77.5q0 -49 -22 -91.5t-62 -74.5q9 -18 12 -39.5t-1 -46.5
q-8 -57 -39.5 -102t-83.5 -70.5t-122 -25.5zM398 104q21 18 33.5 44t12.5 57q0 33 -16 53.5t-43 34.5t-60.5 25t-68.5 24q-21 8 -38.5 16.5t-31.5 17.5q-18 -15 -32 -41t-14 -60q0 -25 9.5 -42.5t26.5 -30.5t40.5 -23t51.5 -20t59 -21q24 -9 39 -16t32 -18z" />
    <glyph glyph-name="dieresis" unicode="&#xa8;" horiz-adv-x="262" 
d="M117 571q-21 0 -35.5 14.5t-14.5 35.5q0 20 14.5 35t35.5 15t35.5 -15t14.5 -35q0 -21 -14.5 -35.5t-35.5 -14.5zM278 571q-22 0 -36 14.5t-14 35.5q0 20 14 35t36 15q20 0 34.5 -15t14.5 -35q0 -21 -14.5 -35.5t-34.5 -14.5z" />
    <glyph glyph-name="copyright" unicode="&#xa9;" horiz-adv-x="800" 
d="M357 -4q-90 0 -155.5 38t-101 103.5t-35.5 149.5q0 87 31.5 163t88.5 133t132.5 89t163.5 32q90 0 155.5 -37.5t100.5 -102.5t35 -149q0 -87 -31.5 -163t-88 -133.5t-132 -90t-163.5 -32.5zM377 119q-51 0 -92 21.5t-64.5 62t-23.5 97.5t19.5 108t55 90.5t83.5 62
t105 22.5q74 0 123 -39.5t54 -113.5h-76q-6 45 -36.5 68.5t-75.5 23.5q-54 0 -94 -31t-61.5 -80t-21.5 -105q0 -63 33 -95t83 -32q47 0 85 23.5t60 67.5h76q-20 -46 -56 -80t-81 -52.5t-95 -18.5zM363 32q81 0 149 29t117 81t76 121t27 149q0 75 -30 133t-87.5 91t-139.5 33
t-149.5 -29t-117 -80.5t-76.5 -120.5t-27 -149q0 -74 30.5 -132.5t88 -92t139.5 -33.5z" />
    <glyph glyph-name="ordfeminine" unicode="&#xaa;" horiz-adv-x="475" 
d="M234 350q-41 0 -72 18t-48 50t-17 75q0 59 26.5 108.5t71.5 80t102 30.5q51 0 81.5 -23t38.5 -61l20 78h60l-61 -350h-60l7 77v0q-22 -37 -60 -60t-89 -23zM260 403q42 0 74 22t50 58t18 77q0 47 -27 73t-70 26q-39 0 -70.5 -22t-50 -57.5t-18.5 -77.5q0 -47 27 -73
t67 -26z" />
    <glyph glyph-name="guillemotleft" unicode="&#xab;" horiz-adv-x="452" 
d="M296 120l-66 175l128 175h83l-131 -175l69 -175h-83zM118 120l-66 175l128 175h83l-131 -175l70 -175h-84z" />
    <glyph glyph-name="logicalnot" unicode="&#xac;" horiz-adv-x="550" 
d="M472 223l25 142h-486l12 67h569l-37 -209h-83z" />
    <glyph glyph-name="registered" unicode="&#xae;" horiz-adv-x="504" 
d="M262 307q-58 0 -98.5 26t-58 72t-7.5 104q10 59 44 104.5t84 72t108 26.5q59 0 99 -26.5t58 -72t7 -104.5q-10 -58 -44 -104t-83.5 -72t-108.5 -26zM321 403l-45 99h52l47 -98zM269 343q49 0 89 21.5t67 59t35 85.5q13 73 -23 119.5t-110 46.5q-48 0 -88 -21.5
t-66.5 -58.5t-35.5 -86q-13 -73 23 -119.5t109 -46.5zM200 403l38 215h95q33 0 50 -17.5t12 -48.5q-5 -30 -28.5 -47.5t-55.5 -17.5h-49l-14 -84h-48zM269 526h43q13 0 22.5 6t11.5 19q2 12 -5 18t-20 6h-43z" />
    <glyph glyph-name="macron" unicode="&#xaf;" horiz-adv-x="349" 
d="M61 592l12 63h347l-10 -63h-349z" />
    <glyph glyph-name="degree" unicode="&#xb0;" horiz-adv-x="347" 
d="M230 444q-35 0 -65 16.5t-48 46.5t-18 70q0 42 18 72t48.5 46.5t65.5 16.5q36 0 66 -16.5t48 -46.5t18 -72q0 -40 -18 -70t-48.5 -46.5t-66.5 -16.5zM230 506q25 0 46 18t21 54t-20.5 54t-45.5 18q-24 0 -45.5 -18t-21.5 -54t21 -54t45 -18z" />
    <glyph glyph-name="plusminus" unicode="&#xb1;" horiz-adv-x="550" 
d="M9 89l11 64h474l-10 -64h-475zM231 214l62 353h76l-63 -353h-75zM56 355l13 71h475l-13 -71h-475z" />
    <glyph glyph-name="uni00B2" unicode="&#xb2;" horiz-adv-x="330" 
d="M53 352l8 48l129 92q32 23 56.5 48.5t30.5 59.5q5 29 -8 44t-36 15q-26 0 -44.5 -15.5t-26.5 -43.5h-67q11 46 49.5 78t100.5 32q38 0 63 -14.5t35.5 -38.5t4.5 -54q-7 -41 -37 -71.5t-83 -65.5l-91 -60h181l-10 -54h-255z" />
    <glyph glyph-name="uni00B3" unicode="&#xb3;" horiz-adv-x="328" 
d="M178 347q-61 0 -91 27.5t-25 79.5h66q0 -21 7 -33.5t20 -17.5t30 -5q30 0 50 14.5t24 39.5q5 27 -11.5 41.5t-46.5 14.5h-46l8 41h45q29 0 50 14t25 41q5 25 -9 39.5t-43 14.5t-47 -12.5t-28 -34.5h-63q12 42 51.5 70.5t100.5 28.5q55 0 86.5 -29t23.5 -73
q-5 -31 -26 -51t-52 -28l-1 -2q28 -9 43.5 -29.5t9.5 -53.5q-7 -40 -48 -68.5t-103 -28.5z" />
    <glyph glyph-name="acute" unicode="&#xb4;" horiz-adv-x="211" 
d="M52 537l10 63l233 127v0l-13 -73z" />
    <glyph glyph-name="uni00B5" unicode="&#xb5;" horiz-adv-x="584" 
d="M-14 -220l127 716h84l-49 -281q-13 -73 11 -114t89 -41q42 0 78.5 19.5t63 57.5t37.5 93l47 266h84l-87 -496h-76l10 89v0q-32 -47 -82 -74t-107 -27q-32 0 -58 9t-45 26l-43 -243h-84z" />
    <glyph glyph-name="paragraph" unicode="&#xb6;" horiz-adv-x="590" 
d="M225 -100l70 395h-10q-71 0 -116.5 26t-67 67.5t-21.5 87.5q0 73 35 122.5t97.5 75.5t143.5 26h240l-141 -800h-74l130 734h-83l-129 -734h-74z" />
    <glyph glyph-name="periodcentered" unicode="&#xb7;" horiz-adv-x="197" 
d="M116 285q-25 0 -41.5 16.5t-16.5 40.5q0 25 16.5 41t41.5 16t41 -16t16 -41q0 -24 -16 -40.5t-41 -16.5z" />
    <glyph glyph-name="cedilla" unicode="&#xb8;" horiz-adv-x="229" 
d="M-89 -259l9 53h92q38 0 57 13.5t19 38.5q0 22 -14 31.5t-45 9.5h-50l21 120h57l-13 -70q35 1 60.5 -8t39.5 -27.5t14 -48.5q0 -32 -18 -57.5t-48.5 -40t-69.5 -14.5h-111z" />
    <glyph glyph-name="uni00B9" unicode="&#xb9;" horiz-adv-x="204" 
d="M113 352l51 286l-70 -18l7 42l98 42h43l-62 -352h-67z" />
    <glyph glyph-name="ordmasculine" unicode="&#xba;" horiz-adv-x="462" 
d="M250 348q-47 0 -82 18t-54 51t-19 77q0 60 29 109.5t78 79t109 29.5q47 0 82 -17.5t54.5 -50t19.5 -77.5q0 -61 -29.5 -110.5t-78.5 -79t-109 -29.5zM258 401q42 0 73.5 22.5t49 59t17.5 79.5q0 33 -12.5 55t-34 33t-48.5 11q-42 0 -73.5 -23.5t-49 -60.5t-17.5 -77
q0 -32 12.5 -54.5t34 -33.5t48.5 -11z" />
    <glyph glyph-name="guillemotright" unicode="&#xbb;" horiz-adv-x="452" 
d="M172 470l66 -175l-128 -175h-83l131 175l-69 175h83zM350 470l66 -175l-128 -175h-83l131 175l-70 175h84z" />
    <glyph glyph-name="onequarter" unicode="&#xbc;" horiz-adv-x="775" 
d="M113 352l51 286l-70 -18l7 42l98 42h43l-62 -352h-67zM86 0l531 700h84l-531 -700h-84zM603 0l12 66h-172l9 50l205 232h73l-40 -228h46l-10 -54h-45l-12 -66h-66zM521 120h108l27 156v0z" />
    <glyph glyph-name="onehalf" unicode="&#xbd;" horiz-adv-x="854" 
d="M113 352l51 286l-70 -18l7 42l98 42h43l-62 -352h-67zM86 0l531 700h84l-531 -700h-84zM515 0l8 48l129 92q32 23 56.5 48.5t30.5 59.5q5 29 -8 44t-36 15q-26 0 -44.5 -15.5t-26.5 -43.5h-67q11 46 49.5 78t100.5 32q38 0 63 -14.5t35.5 -38.5t4.5 -54q-7 -41 -37 -71.5
t-83 -65.5l-91 -60h181l-10 -54h-255z" />
    <glyph glyph-name="threequarters" unicode="&#xbe;" horiz-adv-x="839" 
d="M178 347q-61 0 -91 27.5t-25 79.5h66q0 -21 7 -33.5t20 -17.5t30 -5q30 0 50 14.5t24 39.5q5 27 -11.5 41.5t-46.5 14.5h-46l8 41h45q29 0 50 14t25 41q5 25 -9 39.5t-43 14.5t-47 -12.5t-28 -34.5h-63q12 42 51.5 70.5t100.5 28.5q55 0 86.5 -29t23.5 -73
q-5 -31 -26 -51t-52 -28l-1 -2q28 -9 43.5 -29.5t9.5 -53.5q-7 -40 -48 -68.5t-103 -28.5zM150 0l531 700h84l-531 -700h-84zM667 0l12 66h-172l9 50l205 232h73l-40 -228h46l-10 -54h-45l-12 -66h-66zM585 120h108l27 156v0z" />
    <glyph glyph-name="questiondown" unicode="&#xbf;" horiz-adv-x="518" 
d="M377 307l-25 -161h-29q-53 0 -97.5 -8.5t-77 -28.5t-50.5 -53.5t-18 -82.5q0 -33 14.5 -58t41.5 -39t63 -14q43 0 76.5 16t56 45t29.5 68h79q-10 -60 -45.5 -105t-89 -70t-118.5 -25q-57 0 -99.5 21.5t-66 60.5t-23.5 92q0 77 36.5 130.5t101 81t147.5 27.5l22 103h72z
M361 508q25 0 41.5 -16.5t16.5 -40.5t-16.5 -40.5t-41.5 -16.5t-41 16.5t-16 40.5t16 40.5t41 16.5z" />
    <glyph glyph-name="Agrave" unicode="&#xc0;" horiz-adv-x="664" 
d="M-14 0l382 700h89l133 -700h-87l-108 601v0l-319 -601h-90zM114 180l34 66h359l11 -66h-404zM522 753l-189 117l12 73v0l188 -127z" />
    <glyph glyph-name="Aacute" unicode="&#xc1;" horiz-adv-x="664" 
d="M-14 0l382 700h89l133 -700h-87l-108 601v0l-319 -601h-90zM114 180l34 66h359l11 -66h-404zM316 753l10 63l233 127v0l-13 -73z" />
    <glyph glyph-name="Acircumflex" unicode="&#xc2;" horiz-adv-x="664" 
d="M-14 0l382 700h89l133 -700h-87l-108 601v0l-319 -601h-90zM114 180l34 66h359l11 -66h-404zM286 760l12 65l152 82l122 -82l-12 -65l-122 84z" />
    <glyph glyph-name="Atilde" unicode="&#xc3;" horiz-adv-x="664" 
d="M-14 0l382 700h89l133 -700h-87l-108 601v0l-319 -601h-90zM114 180l34 66h359l11 -66h-404zM272 769q16 50 46 75.5t67 25.5q27 0 42 -11.5t29 -23.5t36 -12q16 0 30 11.5t21 33.5h49q-15 -49 -45.5 -75t-68.5 -26q-27 0 -43 12t-29.5 23.5t-34.5 11.5q-17 0 -30 -11
t-20 -34h-49z" />
    <glyph glyph-name="Adieresis" unicode="&#xc4;" horiz-adv-x="664" 
d="M-14 0l382 700h89l133 -700h-87l-108 601v0l-319 -601h-90zM114 180l34 66h359l11 -66h-404zM354 775q-21 0 -35.5 14.5t-14.5 35.5q0 20 14.5 35t35.5 15t35.5 -15t14.5 -35q0 -21 -14.5 -35.5t-35.5 -14.5zM515 775q-22 0 -36 14.5t-14 35.5q0 20 14 35t36 15
q20 0 34.5 -15t14.5 -35q0 -21 -14.5 -35.5t-34.5 -14.5z" />
    <glyph glyph-name="Aring" unicode="&#xc5;" horiz-adv-x="664" 
d="M-14 0l382 700h89l133 -700h-87l-108 601v0l-319 -601h-90zM114 180l34 66h359l11 -66h-404zM442 770q-43 0 -74 27.5t-31 75.5t31 75.5t74 27.5q44 0 74.5 -27.5t30.5 -75.5t-30.5 -75.5t-74.5 -27.5zM442 813q24 0 40.5 16.5t16.5 43.5q0 28 -16.5 43.5t-40.5 15.5
q-23 0 -40 -15.5t-17 -43.5q0 -27 17 -43.5t40 -16.5z" />
    <glyph glyph-name="AE" unicode="&#xc6;" horiz-adv-x="911" 
d="M-14 0l523 700h425l-12 -67h-289l-44 -247h259l-11 -66h-259l-44 -253h288l-12 -67h-373l112 631v0l-471 -631h-92zM150 159l47 67h318l-12 -67h-353z" />
    <glyph glyph-name="Ccedilla" unicode="&#xc7;" horiz-adv-x="722" 
d="M339 -12q-89 0 -151.5 35t-95.5 98t-33 147q0 94 30.5 175t85.5 141.5t128.5 94t159.5 33.5q120 0 186 -57t69 -161h-95q-2 67 -45 105.5t-127 38.5q-65 0 -120.5 -27.5t-96.5 -77t-64 -115.5t-23 -143q0 -67 24.5 -114.5t70 -73t109.5 -25.5q84 0 139.5 38t81.5 103h95
q-26 -67 -72.5 -115.5t-111 -74t-144.5 -25.5zM219 -259l9 53h92q38 0 57 13.5t19 38.5q0 22 -14 31.5t-45 9.5h-50l21 120h57l-13 -70q35 1 60.5 -8t39.5 -27.5t14 -48.5q0 -32 -18 -57.5t-48.5 -40t-69.5 -14.5h-111z" />
    <glyph glyph-name="Egrave" unicode="&#xc8;" horiz-adv-x="536" 
d="M31 0l123 700h405l-13 -67h-320l-43 -247h290l-11 -66h-291l-44 -253h320l-12 -67h-404zM461 753l-189 117l12 73v0l188 -127z" />
    <glyph glyph-name="Eacute" unicode="&#xc9;" horiz-adv-x="536" 
d="M31 0l123 700h405l-13 -67h-320l-43 -247h290l-11 -66h-291l-44 -253h320l-12 -67h-404zM255 753l10 63l233 127v0l-13 -73z" />
    <glyph glyph-name="Ecircumflex" unicode="&#xca;" horiz-adv-x="536" 
d="M31 0l123 700h405l-13 -67h-320l-43 -247h290l-11 -66h-291l-44 -253h320l-12 -67h-404zM225 760l12 65l152 82l122 -82l-12 -65l-122 84z" />
    <glyph glyph-name="Edieresis" unicode="&#xcb;" horiz-adv-x="536" 
d="M31 0l123 700h405l-13 -67h-320l-43 -247h290l-11 -66h-291l-44 -253h320l-12 -67h-404zM293 775q-21 0 -35.5 14.5t-14.5 35.5q0 20 14.5 35t35.5 15t35.5 -15t14.5 -35q0 -21 -14.5 -35.5t-35.5 -14.5zM454 775q-22 0 -36 14.5t-14 35.5q0 20 14 35t36 15
q20 0 34.5 -15t14.5 -35q0 -21 -14.5 -35.5t-34.5 -14.5z" />
    <glyph glyph-name="Igrave" unicode="&#xcc;" horiz-adv-x="233" 
d="M31 0l123 700h84l-123 -700h-84zM307 753l-189 117l12 73v0l188 -127z" />
    <glyph glyph-name="Iacute" unicode="&#xcd;" horiz-adv-x="233" 
d="M31 0l123 700h84l-123 -700h-84zM101 753l10 63l233 127v0l-13 -73z" />
    <glyph glyph-name="Icircumflex" unicode="&#xce;" horiz-adv-x="233" 
d="M31 0l123 700h84l-123 -700h-84zM71 760l12 65l152 82l122 -82l-12 -65l-122 84z" />
    <glyph glyph-name="Idieresis" unicode="&#xcf;" horiz-adv-x="233" 
d="M31 0l123 700h84l-123 -700h-84zM139 775q-21 0 -35.5 14.5t-14.5 35.5q0 20 14.5 35t35.5 15t35.5 -15t14.5 -35q0 -21 -14.5 -35.5t-35.5 -14.5zM300 775q-22 0 -36 14.5t-14 35.5q0 20 14 35t36 15q20 0 34.5 -15t14.5 -35q0 -21 -14.5 -35.5t-34.5 -14.5z" />
    <glyph glyph-name="Eth" unicode="&#xd0;" horiz-adv-x="722" 
d="M20 311l13 76h372l-13 -76h-372zM52 0l123 700h215q106 0 173.5 -33t100.5 -96t33 -154q0 -93 -30 -169.5t-86.5 -132t-135.5 -85.5t-178 -30h-215zM148 70h130q105 0 179 42t113.5 119t39.5 180q0 72 -24 120.5t-75.5 73.5t-134.5 25h-129z" />
    <glyph glyph-name="Ntilde" unicode="&#xd1;" horiz-adv-x="690" 
d="M31 0l123 700h83l275 -567v0l99 567h84l-123 -700h-84l-273 567v0l-100 -567h-84zM284 769q16 50 46 75.5t67 25.5q27 0 42 -11.5t29 -23.5t36 -12q16 0 30 11.5t21 33.5h49q-15 -49 -45.5 -75t-68.5 -26q-27 0 -43 12t-29.5 23.5t-34.5 11.5q-17 0 -30 -11t-20 -34h-49z
" />
    <glyph glyph-name="Ograve" unicode="&#xd2;" horiz-adv-x="793" 
d="M352 -12q-87 0 -152.5 38.5t-102.5 106t-37 153.5q0 89 32.5 166t90.5 135.5t133.5 91.5t160.5 33q87 0 152.5 -38t102.5 -105t37 -154q0 -89 -32.5 -166.5t-90.5 -136t-133 -91.5t-161 -33zM364 62q66 0 123.5 27t101 74.5t68.5 111t25 136.5q0 70 -27.5 120.5t-76.5 78
t-113 27.5q-66 0 -123.5 -26.5t-101.5 -74t-68.5 -110.5t-24.5 -135q0 -70 27.5 -121.5t76.5 -79.5t113 -28zM587 753l-189 117l12 73v0l188 -127z" />
    <glyph glyph-name="Oacute" unicode="&#xd3;" horiz-adv-x="793" 
d="M352 -12q-87 0 -152.5 38.5t-102.5 106t-37 153.5q0 89 32.5 166t90.5 135.5t133.5 91.5t160.5 33q87 0 152.5 -38t102.5 -105t37 -154q0 -89 -32.5 -166.5t-90.5 -136t-133 -91.5t-161 -33zM364 62q66 0 123.5 27t101 74.5t68.5 111t25 136.5q0 70 -27.5 120.5t-76.5 78
t-113 27.5q-66 0 -123.5 -26.5t-101.5 -74t-68.5 -110.5t-24.5 -135q0 -70 27.5 -121.5t76.5 -79.5t113 -28zM381 753l10 63l233 127v0l-13 -73z" />
    <glyph glyph-name="Ocircumflex" unicode="&#xd4;" horiz-adv-x="793" 
d="M352 -12q-87 0 -152.5 38.5t-102.5 106t-37 153.5q0 89 32.5 166t90.5 135.5t133.5 91.5t160.5 33q87 0 152.5 -38t102.5 -105t37 -154q0 -89 -32.5 -166.5t-90.5 -136t-133 -91.5t-161 -33zM364 62q66 0 123.5 27t101 74.5t68.5 111t25 136.5q0 70 -27.5 120.5t-76.5 78
t-113 27.5q-66 0 -123.5 -26.5t-101.5 -74t-68.5 -110.5t-24.5 -135q0 -70 27.5 -121.5t76.5 -79.5t113 -28zM351 760l12 65l152 82l122 -82l-12 -65l-122 84z" />
    <glyph glyph-name="Otilde" unicode="&#xd5;" horiz-adv-x="793" 
d="M352 -12q-87 0 -152.5 38.5t-102.5 106t-37 153.5q0 89 32.5 166t90.5 135.5t133.5 91.5t160.5 33q87 0 152.5 -38t102.5 -105t37 -154q0 -89 -32.5 -166.5t-90.5 -136t-133 -91.5t-161 -33zM364 62q66 0 123.5 27t101 74.5t68.5 111t25 136.5q0 70 -27.5 120.5t-76.5 78
t-113 27.5q-66 0 -123.5 -26.5t-101.5 -74t-68.5 -110.5t-24.5 -135q0 -70 27.5 -121.5t76.5 -79.5t113 -28zM337 769q16 50 46 75.5t67 25.5q27 0 42 -11.5t29 -23.5t36 -12q16 0 30 11.5t21 33.5h49q-15 -49 -45.5 -75t-68.5 -26q-27 0 -43 12t-29.5 23.5t-34.5 11.5
q-17 0 -30 -11t-20 -34h-49z" />
    <glyph glyph-name="Odieresis" unicode="&#xd6;" horiz-adv-x="793" 
d="M352 -12q-87 0 -152.5 38.5t-102.5 106t-37 153.5q0 89 32.5 166t90.5 135.5t133.5 91.5t160.5 33q87 0 152.5 -38t102.5 -105t37 -154q0 -89 -32.5 -166.5t-90.5 -136t-133 -91.5t-161 -33zM364 62q66 0 123.5 27t101 74.5t68.5 111t25 136.5q0 70 -27.5 120.5t-76.5 78
t-113 27.5q-66 0 -123.5 -26.5t-101.5 -74t-68.5 -110.5t-24.5 -135q0 -70 27.5 -121.5t76.5 -79.5t113 -28zM419 775q-21 0 -35.5 14.5t-14.5 35.5q0 20 14.5 35t35.5 15t35.5 -15t14.5 -35q0 -21 -14.5 -35.5t-35.5 -14.5zM580 775q-22 0 -36 14.5t-14 35.5q0 20 14 35
t36 15q20 0 34.5 -15t14.5 -35q0 -21 -14.5 -35.5t-34.5 -14.5z" />
    <glyph glyph-name="multiply" unicode="&#xd7;" horiz-adv-x="550" 
d="M116 106l-42 50l158 135l-106 129l58 48l107 -129l159 137l41 -50l-160 -137l107 -129l-58 -48l-106 129z" />
    <glyph glyph-name="Oslash" unicode="&#xd8;" horiz-adv-x="786" 
d="M-5 0l743 700h89l-742 -700h-90zM349 -12q-87 0 -152.5 38.5t-102.5 106t-37 153.5q0 89 32.5 166t90.5 135.5t133.5 91.5t160.5 33q87 0 152.5 -38t102.5 -105t37 -154q0 -89 -32.5 -166.5t-90.5 -136t-133 -91.5t-161 -33zM361 62q66 0 123.5 27t101 74.5t68.5 111
t25 136.5q0 70 -27.5 120.5t-76.5 78t-113 27.5q-66 0 -123.5 -26.5t-101.5 -74t-68.5 -110.5t-24.5 -135q0 -70 27.5 -121.5t76.5 -79.5t113 -28z" />
    <glyph glyph-name="Ugrave" unicode="&#xd9;" horiz-adv-x="656" 
d="M282 -12q-82 0 -134.5 32.5t-72.5 93.5t-5 144l79 442h84l-79 -442q-10 -60 1.5 -103.5t46 -67t94.5 -23.5q53 0 95.5 20t72 63t41.5 111l79 442h84l-78 -442q-16 -93 -61.5 -152.5t-109.5 -88.5t-137 -29zM525 753l-189 117l12 73v0l188 -127z" />
    <glyph glyph-name="Uacute" unicode="&#xda;" horiz-adv-x="656" 
d="M282 -12q-82 0 -134.5 32.5t-72.5 93.5t-5 144l79 442h84l-79 -442q-10 -60 1.5 -103.5t46 -67t94.5 -23.5q53 0 95.5 20t72 63t41.5 111l79 442h84l-78 -442q-16 -93 -61.5 -152.5t-109.5 -88.5t-137 -29zM319 753l10 63l233 127v0l-13 -73z" />
    <glyph glyph-name="Ucircumflex" unicode="&#xdb;" horiz-adv-x="656" 
d="M282 -12q-82 0 -134.5 32.5t-72.5 93.5t-5 144l79 442h84l-79 -442q-10 -60 1.5 -103.5t46 -67t94.5 -23.5q53 0 95.5 20t72 63t41.5 111l79 442h84l-78 -442q-16 -93 -61.5 -152.5t-109.5 -88.5t-137 -29zM289 760l12 65l152 82l122 -82l-12 -65l-122 84z" />
    <glyph glyph-name="Udieresis" unicode="&#xdc;" horiz-adv-x="656" 
d="M282 -12q-82 0 -134.5 32.5t-72.5 93.5t-5 144l79 442h84l-79 -442q-10 -60 1.5 -103.5t46 -67t94.5 -23.5q53 0 95.5 20t72 63t41.5 111l79 442h84l-78 -442q-16 -93 -61.5 -152.5t-109.5 -88.5t-137 -29zM357 775q-21 0 -35.5 14.5t-14.5 35.5q0 20 14.5 35t35.5 15
t35.5 -15t14.5 -35q0 -21 -14.5 -35.5t-35.5 -14.5zM518 775q-22 0 -36 14.5t-14 35.5q0 20 14 35t36 15q20 0 34.5 -15t14.5 -35q0 -21 -14.5 -35.5t-34.5 -14.5z" />
    <glyph glyph-name="Yacute" unicode="&#xdd;" horiz-adv-x="580" 
d="M205 0l47 266l-152 434h96l112 -354v0l238 354h94l-304 -434l-47 -266h-84zM281 753l10 63l233 127v0l-13 -73z" />
    <glyph glyph-name="Thorn" unicode="&#xde;" horiz-adv-x="582" 
d="M31 0l123 700h84l-25 -146h146q72 0 117.5 -22.5t67.5 -61t22 -87.5q0 -72 -35 -125t-98 -82t-146 -29h-146l-26 -147h-84zM153 217h145q86 0 133.5 44t47.5 121q0 50 -31.5 76t-102.5 26h-144z" />
    <glyph glyph-name="germandbls" unicode="&#xdf;" horiz-adv-x="664" 
d="M397 -10q-87 0 -134 49t-40 130h84q-5 -52 21.5 -82.5t78.5 -30.5t84.5 29t32.5 78q0 19 -8.5 33.5t-27.5 26.5t-50 23q-66 24 -96.5 49t-30.5 65q0 33 18 55.5t45 39.5l54 34t45 38.5t18 53.5q0 37 -30.5 58.5t-86.5 21.5q-76 0 -117.5 -40t-54.5 -109l-91 -512h-84
l93 520q11 61 44.5 109t89.5 75.5t133 27.5q63 0 105 -18.5t63.5 -50t21.5 -70.5q0 -41 -18 -68.5t-44.5 -47t-53.5 -34.5t-45 -30t-18 -36q0 -13 8.5 -23.5t30.5 -21t62 -25.5q59 -21 85 -52.5t26 -82.5q0 -53 -27.5 -94t-75.5 -64.5t-110 -23.5z" />
    <glyph glyph-name="agrave" unicode="&#xe0;" horiz-adv-x="553" 
d="M188 -12q-55 0 -90.5 18.5t-52.5 49t-17 65.5q0 55 30.5 95t86.5 61.5t130 21.5h133q8 47 -1.5 77.5t-34.5 45.5t-64 15q-49 0 -89 -24.5t-57 -71.5h-87q16 54 52.5 91t86.5 56.5t105 19.5q67 0 109.5 -25t59 -70.5t5.5 -107.5l-53 -305h-76l11 89v0q-14 -21 -32.5 -39.5
t-41.5 -32.5t-51 -21.5t-62 -7.5zM213 59q36 0 69 14.5t58.5 39t40.5 55.5t15 64v2h-126q-47 0 -81.5 -12.5t-52.5 -35.5t-18 -55q0 -34 24.5 -53t70.5 -19zM425 537l-189 117l12 73v0l188 -127z" />
    <glyph glyph-name="aacute" unicode="&#xe1;" horiz-adv-x="553" 
d="M188 -12q-55 0 -90.5 18.5t-52.5 49t-17 65.5q0 55 30.5 95t86.5 61.5t130 21.5h133q8 47 -1.5 77.5t-34.5 45.5t-64 15q-49 0 -89 -24.5t-57 -71.5h-87q16 54 52.5 91t86.5 56.5t105 19.5q67 0 109.5 -25t59 -70.5t5.5 -107.5l-53 -305h-76l11 89v0q-14 -21 -32.5 -39.5
t-41.5 -32.5t-51 -21.5t-62 -7.5zM213 59q36 0 69 14.5t58.5 39t40.5 55.5t15 64v2h-126q-47 0 -81.5 -12.5t-52.5 -35.5t-18 -55q0 -34 24.5 -53t70.5 -19zM216 537l10 63l233 127v0l-13 -73z" />
    <glyph glyph-name="acircumflex" unicode="&#xe2;" horiz-adv-x="553" 
d="M188 -12q-55 0 -90.5 18.5t-52.5 49t-17 65.5q0 55 30.5 95t86.5 61.5t130 21.5h133q8 47 -1.5 77.5t-34.5 45.5t-64 15q-49 0 -89 -24.5t-57 -71.5h-87q16 54 52.5 91t86.5 56.5t105 19.5q67 0 109.5 -25t59 -70.5t5.5 -107.5l-53 -305h-76l11 89v0q-14 -21 -32.5 -39.5
t-41.5 -32.5t-51 -21.5t-62 -7.5zM213 59q36 0 69 14.5t58.5 39t40.5 55.5t15 64v2h-126q-47 0 -81.5 -12.5t-52.5 -35.5t-18 -55q0 -34 24.5 -53t70.5 -19zM186 554l12 65l152 82l122 -82l-12 -65l-122 84z" />
    <glyph glyph-name="atilde" unicode="&#xe3;" horiz-adv-x="553" 
d="M188 -12q-55 0 -90.5 18.5t-52.5 49t-17 65.5q0 55 30.5 95t86.5 61.5t130 21.5h133q8 47 -1.5 77.5t-34.5 45.5t-64 15q-49 0 -89 -24.5t-57 -71.5h-87q16 54 52.5 91t86.5 56.5t105 19.5q67 0 109.5 -25t59 -70.5t5.5 -107.5l-53 -305h-76l11 89v0q-14 -21 -32.5 -39.5
t-41.5 -32.5t-51 -21.5t-62 -7.5zM213 59q36 0 69 14.5t58.5 39t40.5 55.5t15 64v2h-126q-47 0 -81.5 -12.5t-52.5 -35.5t-18 -55q0 -34 24.5 -53t70.5 -19zM172 555q16 50 46 75.5t67 25.5q27 0 42 -11.5t29 -23.5t36 -12q16 0 30 11.5t21 33.5h49q-15 -49 -45.5 -75
t-68.5 -26q-27 0 -43 12t-29.5 23.5t-34.5 11.5q-17 0 -30 -11t-20 -34h-49z" />
    <glyph glyph-name="adieresis" unicode="&#xe4;" horiz-adv-x="553" 
d="M188 -12q-55 0 -90.5 18.5t-52.5 49t-17 65.5q0 55 30.5 95t86.5 61.5t130 21.5h133q8 47 -1.5 77.5t-34.5 45.5t-64 15q-49 0 -89 -24.5t-57 -71.5h-87q16 54 52.5 91t86.5 56.5t105 19.5q67 0 109.5 -25t59 -70.5t5.5 -107.5l-53 -305h-76l11 89v0q-14 -21 -32.5 -39.5
t-41.5 -32.5t-51 -21.5t-62 -7.5zM213 59q36 0 69 14.5t58.5 39t40.5 55.5t15 64v2h-126q-47 0 -81.5 -12.5t-52.5 -35.5t-18 -55q0 -34 24.5 -53t70.5 -19zM255 571q-21 0 -35.5 14.5t-14.5 35.5q0 20 14.5 35t35.5 15t35.5 -15t14.5 -35q0 -21 -14.5 -35.5t-35.5 -14.5z
M416 571q-22 0 -36 14.5t-14 35.5q0 20 14 35t36 15q20 0 34.5 -15t14.5 -35q0 -21 -14.5 -35.5t-34.5 -14.5z" />
    <glyph glyph-name="aring" unicode="&#xe5;" horiz-adv-x="553" 
d="M188 -12q-55 0 -90.5 18.5t-52.5 49t-17 65.5q0 55 30.5 95t86.5 61.5t130 21.5h133q8 47 -1.5 77.5t-34.5 45.5t-64 15q-49 0 -89 -24.5t-57 -71.5h-87q16 54 52.5 91t86.5 56.5t105 19.5q67 0 109.5 -25t59 -70.5t5.5 -107.5l-53 -305h-76l11 89v0q-14 -21 -32.5 -39.5
t-41.5 -32.5t-51 -21.5t-62 -7.5zM213 59q36 0 69 14.5t58.5 39t40.5 55.5t15 64v2h-126q-47 0 -81.5 -12.5t-52.5 -35.5t-18 -55q0 -34 24.5 -53t70.5 -19zM342 557q-43 0 -74 27.5t-31 75.5t31 75.5t74 27.5q44 0 74.5 -27.5t30.5 -75.5t-30.5 -75.5t-74.5 -27.5zM342 600
q24 0 40.5 16.5t16.5 43.5q0 28 -16.5 43.5t-40.5 15.5q-23 0 -40 -15.5t-17 -43.5q0 -27 17 -43.5t40 -16.5z" />
    <glyph glyph-name="ae" unicode="&#xe6;" horiz-adv-x="930" 
d="M191 -12q-55 0 -91.5 17.5t-54 47t-17.5 65.5q0 55 30.5 95.5t84 63t123.5 22.5h150q8 44 -0.5 75t-33 47t-65.5 16q-49 0 -89.5 -24.5t-57.5 -71.5h-86q15 54 53 91t89 56.5t103 19.5q44 0 76.5 -10.5t54 -30.5t32.5 -49q40 42 93.5 66t115.5 24q64 0 107.5 -25.5
t66 -68.5t22.5 -95q0 -13 -3 -32.5t-6 -36t-4 -21.5h-395q-9 -45 4.5 -83.5t46.5 -62.5t80 -24q56 0 98 28t66 76h82q-21 -50 -58.5 -89.5t-88 -62.5t-112.5 -23q-68 0 -117 32.5t-70 88.5q-23 -33 -57.5 -60.5t-78 -44t-93.5 -16.5zM212 59q45 0 83 21t65.5 55.5t38.5 73.5
l4 25h-142q-43 0 -75.5 -12t-50.5 -35t-18 -56q0 -21 11 -37.5t32.5 -25.5t51.5 -9zM501 294h312q6 46 -9 77.5t-45 48.5t-72 17q-40 0 -78 -16t-66.5 -48t-41.5 -79z" />
    <glyph glyph-name="ccedilla" unicode="&#xe7;" horiz-adv-x="573" 
d="M252 -12q-61 0 -108 26.5t-73 74t-26 110.5q0 67 23 123.5t64 98t95 64.5t116 23q90 0 143 -47t54 -127h-86q-1 51 -36.5 76.5t-86.5 25.5q-55 0 -100 -29.5t-72 -80.5t-27 -118q0 -35 10.5 -63t28.5 -47t42 -29t52 -10q34 0 65.5 11.5t56 34.5t37.5 57h86
q-18 -51 -56 -90t-90 -61.5t-112 -22.5zM127 -259l9 53h92q38 0 57 13.5t19 38.5q0 22 -14 31.5t-45 9.5h-50l21 120h57l-13 -70q35 1 60.5 -8t39.5 -27.5t14 -48.5q0 -32 -18 -57.5t-48.5 -40t-69.5 -14.5h-111z" />
    <glyph glyph-name="egrave" unicode="&#xe8;" horiz-adv-x="571" 
d="M248 -12q-61 0 -107 26t-71 73t-25 111q0 65 22 121t61.5 98.5t93 66.5t117.5 24q65 0 109.5 -25.5t67 -68.5t22.5 -95q0 -20 -4 -45.5t-9 -44.5h-414l11 65h332q6 46 -9 77.5t-45 48.5t-72 17q-43 0 -83 -19t-69 -55.5t-39 -91.5l-5 -28q-10 -53 2.5 -95t45 -65.5
t81.5 -23.5q52 0 91.5 24.5t61.5 64.5h83q-21 -46 -57 -82t-84.5 -57t-107.5 -21zM449 537l-189 117l12 73v0l188 -127z" />
    <glyph glyph-name="eacute" unicode="&#xe9;" horiz-adv-x="571" 
d="M248 -12q-61 0 -107 26t-71 73t-25 111q0 65 22 121t61.5 98.5t93 66.5t117.5 24q65 0 109.5 -25.5t67 -68.5t22.5 -95q0 -20 -4 -45.5t-9 -44.5h-414l11 65h332q6 46 -9 77.5t-45 48.5t-72 17q-43 0 -83 -19t-69 -55.5t-39 -91.5l-5 -28q-10 -53 2.5 -95t45 -65.5
t81.5 -23.5q52 0 91.5 24.5t61.5 64.5h83q-21 -46 -57 -82t-84.5 -57t-107.5 -21zM240 537l10 63l233 127v0l-13 -73z" />
    <glyph glyph-name="ecircumflex" unicode="&#xea;" horiz-adv-x="571" 
d="M248 -12q-61 0 -107 26t-71 73t-25 111q0 65 22 121t61.5 98.5t93 66.5t117.5 24q65 0 109.5 -25.5t67 -68.5t22.5 -95q0 -20 -4 -45.5t-9 -44.5h-414l11 65h332q6 46 -9 77.5t-45 48.5t-72 17q-43 0 -83 -19t-69 -55.5t-39 -91.5l-5 -28q-10 -53 2.5 -95t45 -65.5
t81.5 -23.5q52 0 91.5 24.5t61.5 64.5h83q-21 -46 -57 -82t-84.5 -57t-107.5 -21zM210 554l12 65l152 82l122 -82l-12 -65l-122 84z" />
    <glyph glyph-name="edieresis" unicode="&#xeb;" horiz-adv-x="571" 
d="M248 -12q-61 0 -107 26t-71 73t-25 111q0 65 22 121t61.5 98.5t93 66.5t117.5 24q65 0 109.5 -25.5t67 -68.5t22.5 -95q0 -20 -4 -45.5t-9 -44.5h-414l11 65h332q6 46 -9 77.5t-45 48.5t-72 17q-43 0 -83 -19t-69 -55.5t-39 -91.5l-5 -28q-10 -53 2.5 -95t45 -65.5
t81.5 -23.5q52 0 91.5 24.5t61.5 64.5h83q-21 -46 -57 -82t-84.5 -57t-107.5 -21zM279 571q-21 0 -35.5 14.5t-14.5 35.5q0 20 14.5 35t35.5 15t35.5 -15t14.5 -35q0 -21 -14.5 -35.5t-35.5 -14.5zM440 571q-22 0 -36 14.5t-14 35.5q0 20 14 35t36 15q20 0 34.5 -15
t14.5 -35q0 -21 -14.5 -35.5t-34.5 -14.5z" />
    <glyph glyph-name="igrave" unicode="&#xec;" horiz-adv-x="223" 
d="M26 0l87 496h84l-87 -496h-84zM266 537l-189 117l12 73v0l188 -127z" />
    <glyph glyph-name="iacute" unicode="&#xed;" horiz-adv-x="223" 
d="M26 0l87 496h84l-87 -496h-84zM57 537l10 63l233 127v0l-13 -73z" />
    <glyph glyph-name="icircumflex" unicode="&#xee;" horiz-adv-x="223" 
d="M26 0l87 496h84l-87 -496h-84zM27 554l12 65l152 82l122 -82l-12 -65l-122 84z" />
    <glyph glyph-name="idieresis" unicode="&#xef;" horiz-adv-x="223" 
d="M26 0l87 496h84l-87 -496h-84zM96 571q-21 0 -35.5 14.5t-14.5 35.5q0 20 14.5 35t35.5 15t35.5 -15t14.5 -35q0 -21 -14.5 -35.5t-35.5 -14.5zM257 571q-22 0 -36 14.5t-14 35.5q0 20 14 35t36 15q20 0 34.5 -15t14.5 -35q0 -21 -14.5 -35.5t-34.5 -14.5z" />
    <glyph glyph-name="eth" unicode="&#xf0;" horiz-adv-x="621" 
d="M273 -12q-71 0 -122 31.5t-78 82.5t-27 111q0 62 23.5 115.5t64.5 93.5t94.5 62.5t114.5 22.5q50 0 95.5 -18t69.5 -65q-6 38 -18 73.5t-30.5 70t-44.5 67.5t-60 65h84q36 -35 63 -74.5t45.5 -83t27.5 -89.5t9 -94q0 -95 -27 -165t-71.5 -115.5t-100 -68t-112.5 -22.5z
M282 59q42 0 79.5 18t66 49.5t45 72t16.5 84.5q0 50 -20 84t-54.5 51.5t-76.5 17.5q-56 0 -103 -29.5t-74.5 -78.5t-27.5 -108q0 -48 18.5 -84t52.5 -56.5t78 -20.5zM298 551l11 57l305 100l-11 -57z" />
    <glyph glyph-name="ntilde" unicode="&#xf1;" horiz-adv-x="573" 
d="M26 0l87 496h76l-10 -89v0q32 47 82 74t107 27q63 0 101 -28t51.5 -77t1.5 -113l-51 -290h-84l49 281q13 74 -11 114.5t-89 40.5q-42 0 -78.5 -20t-62.5 -57.5t-38 -92.5l-47 -266h-84zM190 555q16 50 46 75.5t67 25.5q27 0 42 -11.5t29 -23.5t36 -12q16 0 30 11.5
t21 33.5h49q-15 -49 -45.5 -75t-68.5 -26q-27 0 -43 12t-29.5 23.5t-34.5 11.5q-17 0 -30 -11t-20 -34h-49z" />
    <glyph glyph-name="ograve" unicode="&#xf2;" horiz-adv-x="596" 
d="M257 -12q-62 0 -110 28t-75 77t-27 111q0 65 22.5 120.5t63 96.5t94 64t114.5 23q62 0 110 -27t75 -74.5t27 -111.5q0 -65 -22.5 -121t-63 -97.5t-93.5 -65t-115 -23.5zM268 60q56 0 100.5 30t70.5 82t26 117q0 47 -19 79.5t-50 50t-68 17.5q-55 0 -99 -30t-70 -82
t-26 -117q0 -46 18.5 -79t49.5 -50.5t67 -17.5zM451 537l-189 117l12 73v0l188 -127z" />
    <glyph glyph-name="oacute" unicode="&#xf3;" horiz-adv-x="596" 
d="M257 -12q-62 0 -110 28t-75 77t-27 111q0 65 22.5 120.5t63 96.5t94 64t114.5 23q62 0 110 -27t75 -74.5t27 -111.5q0 -65 -22.5 -121t-63 -97.5t-93.5 -65t-115 -23.5zM268 60q56 0 100.5 30t70.5 82t26 117q0 47 -19 79.5t-50 50t-68 17.5q-55 0 -99 -30t-70 -82
t-26 -117q0 -46 18.5 -79t49.5 -50.5t67 -17.5zM242 537l10 63l233 127v0l-13 -73z" />
    <glyph glyph-name="ocircumflex" unicode="&#xf4;" horiz-adv-x="596" 
d="M257 -12q-62 0 -110 28t-75 77t-27 111q0 65 22.5 120.5t63 96.5t94 64t114.5 23q62 0 110 -27t75 -74.5t27 -111.5q0 -65 -22.5 -121t-63 -97.5t-93.5 -65t-115 -23.5zM268 60q56 0 100.5 30t70.5 82t26 117q0 47 -19 79.5t-50 50t-68 17.5q-55 0 -99 -30t-70 -82
t-26 -117q0 -46 18.5 -79t49.5 -50.5t67 -17.5zM212 554l12 65l152 82l122 -82l-12 -65l-122 84z" />
    <glyph glyph-name="otilde" unicode="&#xf5;" horiz-adv-x="596" 
d="M257 -12q-62 0 -110 28t-75 77t-27 111q0 65 22.5 120.5t63 96.5t94 64t114.5 23q62 0 110 -27t75 -74.5t27 -111.5q0 -65 -22.5 -121t-63 -97.5t-93.5 -65t-115 -23.5zM268 60q56 0 100.5 30t70.5 82t26 117q0 47 -19 79.5t-50 50t-68 17.5q-55 0 -99 -30t-70 -82
t-26 -117q0 -46 18.5 -79t49.5 -50.5t67 -17.5zM198 555q16 50 46 75.5t67 25.5q27 0 42 -11.5t29 -23.5t36 -12q16 0 30 11.5t21 33.5h49q-15 -49 -45.5 -75t-68.5 -26q-27 0 -43 12t-29.5 23.5t-34.5 11.5q-17 0 -30 -11t-20 -34h-49z" />
    <glyph glyph-name="odieresis" unicode="&#xf6;" horiz-adv-x="596" 
d="M257 -12q-62 0 -110 28t-75 77t-27 111q0 65 22.5 120.5t63 96.5t94 64t114.5 23q62 0 110 -27t75 -74.5t27 -111.5q0 -65 -22.5 -121t-63 -97.5t-93.5 -65t-115 -23.5zM268 60q56 0 100.5 30t70.5 82t26 117q0 47 -19 79.5t-50 50t-68 17.5q-55 0 -99 -30t-70 -82
t-26 -117q0 -46 18.5 -79t49.5 -50.5t67 -17.5zM281 571q-21 0 -35.5 14.5t-14.5 35.5q0 20 14.5 35t35.5 15t35.5 -15t14.5 -35q0 -21 -14.5 -35.5t-35.5 -14.5zM442 571q-22 0 -36 14.5t-14 35.5q0 20 14 35t36 15q20 0 34.5 -15t14.5 -35q0 -21 -14.5 -35.5t-34.5 -14.5z
" />
    <glyph glyph-name="divide" unicode="&#xf7;" horiz-adv-x="550" 
d="M77 255l12 71h398l-12 -71h-398zM259 91q-25 0 -41.5 16.5t-16.5 40.5t16.5 40.5t41.5 16.5t41 -16.5t16 -40.5t-16 -40.5t-41 -16.5zM309 377q-25 0 -41.5 16.5t-16.5 40.5t16.5 40.5t41.5 16.5t41 -16.5t16 -40.5t-16 -40.5t-41 -16.5z" />
    <glyph glyph-name="oslash" unicode="&#xf8;" horiz-adv-x="596" 
d="M-1 0l519 496h79l-518 -496h-80zM262 -12q-62 0 -110 28t-75 77t-27 111q0 65 22.5 120.5t63 96.5t94 64t114.5 23q62 0 110 -27t75 -74.5t27 -111.5q0 -65 -22.5 -121t-63 -97.5t-93.5 -65t-115 -23.5zM273 60q56 0 100.5 30t70.5 82t26 117q0 47 -19 79.5t-50 50
t-68 17.5q-55 0 -99 -30t-70 -82t-26 -117q0 -46 18.5 -79t49.5 -50.5t67 -17.5z" />
    <glyph glyph-name="ugrave" unicode="&#xf9;" horiz-adv-x="574" 
d="M206 -12q-64 0 -102 29t-51 78.5t-2 110.5l52 290h84l-50 -281q-13 -73 11 -114t89 -41q42 0 78.5 20t63.5 58t38 92l47 266h84l-87 -496h-76l10 90v0q-31 -48 -81.5 -75t-107.5 -27zM444 537l-189 117l12 73v0l188 -127z" />
    <glyph glyph-name="uacute" unicode="&#xfa;" horiz-adv-x="574" 
d="M206 -12q-64 0 -102 29t-51 78.5t-2 110.5l52 290h84l-50 -281q-13 -73 11 -114t89 -41q42 0 78.5 20t63.5 58t38 92l47 266h84l-87 -496h-76l10 90v0q-31 -48 -81.5 -75t-107.5 -27zM235 537l10 63l233 127v0l-13 -73z" />
    <glyph glyph-name="ucircumflex" unicode="&#xfb;" horiz-adv-x="574" 
d="M206 -12q-64 0 -102 29t-51 78.5t-2 110.5l52 290h84l-50 -281q-13 -73 11 -114t89 -41q42 0 78.5 20t63.5 58t38 92l47 266h84l-87 -496h-76l10 90v0q-31 -48 -81.5 -75t-107.5 -27zM205 554l12 65l152 82l122 -82l-12 -65l-122 84z" />
    <glyph glyph-name="udieresis" unicode="&#xfc;" horiz-adv-x="574" 
d="M206 -12q-64 0 -102 29t-51 78.5t-2 110.5l52 290h84l-50 -281q-13 -73 11 -114t89 -41q42 0 78.5 20t63.5 58t38 92l47 266h84l-87 -496h-76l10 90v0q-31 -48 -81.5 -75t-107.5 -27zM274 571q-21 0 -35.5 14.5t-14.5 35.5q0 20 14.5 35t35.5 15t35.5 -15t14.5 -35
q0 -21 -14.5 -35.5t-35.5 -14.5zM435 571q-22 0 -36 14.5t-14 35.5q0 20 14 35t36 15q20 0 34.5 -15t14.5 -35q0 -21 -14.5 -35.5t-34.5 -14.5z" />
    <glyph glyph-name="yacute" unicode="&#xfd;" horiz-adv-x="557" 
d="M42 -220l169 268h-28l-119 448h89l99 -386v0l241 386h88l-451 -716h-88zM226 537l10 63l233 127v0l-13 -73z" />
    <glyph glyph-name="thorn" unicode="&#xfe;" horiz-adv-x="622" 
d="M-14 -220l166 940h84l-52 -301q20 24 47 44t62 32.5t79 12.5q65 0 110.5 -28t70 -76t24.5 -109q0 -65 -21.5 -121t-60.5 -97.5t-91 -65t-114 -23.5q-40 0 -73.5 14t-57 36t-34.5 46l-55 -304h-84zM295 61q57 0 101 29t69 79.5t25 113.5q0 44 -17 78.5t-48 54t-74 19.5
q-57 0 -102 -30t-71 -81t-26 -115q0 -44 18 -77.5t50 -52t75 -18.5z" />
    <glyph glyph-name="ydieresis" unicode="&#xff;" horiz-adv-x="557" 
d="M42 -220l169 268h-28l-119 448h89l99 -386v0l241 386h88l-451 -716h-88zM265 571q-21 0 -35.5 14.5t-14.5 35.5q0 20 14.5 35t35.5 15t35.5 -15t14.5 -35q0 -21 -14.5 -35.5t-35.5 -14.5zM426 571q-22 0 -36 14.5t-14 35.5q0 20 14 35t36 15q20 0 34.5 -15t14.5 -35
q0 -21 -14.5 -35.5t-34.5 -14.5z" />
    <glyph glyph-name="Amacron" unicode="&#x100;" horiz-adv-x="664" 
d="M-14 0l382 700h89l133 -700h-87l-108 601v0l-319 -601h-90zM114 180l34 66h359l11 -66h-404zM258 816l12 63h347l-10 -63h-349z" />
    <glyph glyph-name="amacron" unicode="&#x101;" horiz-adv-x="553" 
d="M188 -12q-55 0 -90.5 18.5t-52.5 49t-17 65.5q0 55 30.5 95t86.5 61.5t130 21.5h133q8 47 -1.5 77.5t-34.5 45.5t-64 15q-49 0 -89 -24.5t-57 -71.5h-87q16 54 52.5 91t86.5 56.5t105 19.5q67 0 109.5 -25t59 -70.5t5.5 -107.5l-53 -305h-76l11 89v0q-14 -21 -32.5 -39.5
t-41.5 -32.5t-51 -21.5t-62 -7.5zM213 59q36 0 69 14.5t58.5 39t40.5 55.5t15 64v2h-126q-47 0 -81.5 -12.5t-52.5 -35.5t-18 -55q0 -34 24.5 -53t70.5 -19zM155 592l12 63h347l-10 -63h-349z" />
    <glyph glyph-name="Abreve" unicode="&#x102;" horiz-adv-x="664" 
d="M-14 0l382 700h89l133 -700h-87l-108 601v0l-319 -601h-90zM114 180l34 66h359l11 -66h-404zM423 770q-45 0 -72.5 17.5t-38.5 47t-5 65.5l2 14h50q-7 -37 10.5 -57.5t65.5 -20.5q47 0 72 20.5t32 57.5h51l-3 -15q-7 -36 -28.5 -65t-55 -46.5t-80.5 -17.5z" />
    <glyph glyph-name="abreve" unicode="&#x103;" horiz-adv-x="553" 
d="M188 -12q-55 0 -90.5 18.5t-52.5 49t-17 65.5q0 55 30.5 95t86.5 61.5t130 21.5h133q8 47 -1.5 77.5t-34.5 45.5t-64 15q-49 0 -89 -24.5t-57 -71.5h-87q16 54 52.5 91t86.5 56.5t105 19.5q67 0 109.5 -25t59 -70.5t5.5 -107.5l-53 -305h-76l11 89v0q-14 -21 -32.5 -39.5
t-41.5 -32.5t-51 -21.5t-62 -7.5zM213 59q36 0 69 14.5t58.5 39t40.5 55.5t15 64v2h-126q-47 0 -81.5 -12.5t-52.5 -35.5t-18 -55q0 -34 24.5 -53t70.5 -19zM323 559q-45 0 -72.5 17.5t-38.5 47t-5 65.5l2 14h50q-7 -37 10.5 -57.5t65.5 -20.5q47 0 72 20.5t32 57.5h51
l-3 -15q-7 -36 -28.5 -65t-55 -46.5t-80.5 -17.5z" />
    <glyph glyph-name="Aogonek" unicode="&#x104;" horiz-adv-x="664" 
d="M-14 0l382 700h89l133 -700h-87l-108 601v0l-319 -601h-90zM114 180l34 66h359l11 -66h-404zM482 -203q-30 0 -55.5 9.5t-38.5 30.5t-7 55q5 24 19.5 46t43.5 43t75 39l57 23l14 -43l-62 -28q-39 -17 -56 -35t-21 -37q-4 -23 10 -36t41 -13q14 0 31.5 4t36.5 11l-10 -56
q-18 -6 -38 -9.5t-40 -3.5z" />
    <glyph glyph-name="aogonek" unicode="&#x105;" horiz-adv-x="553" 
d="M188 -12q-55 0 -90.5 18.5t-52.5 49t-17 65.5q0 55 30.5 95t86.5 61.5t130 21.5h133q8 47 -1.5 77.5t-34.5 45.5t-64 15q-49 0 -89 -24.5t-57 -71.5h-87q16 54 52.5 91t86.5 56.5t105 19.5q67 0 109.5 -25t59 -70.5t5.5 -107.5l-53 -305h-76l11 89v0q-14 -21 -32.5 -39.5
t-41.5 -32.5t-51 -21.5t-62 -7.5zM213 59q36 0 69 14.5t58.5 39t40.5 55.5t15 64v2h-126q-47 0 -81.5 -12.5t-52.5 -35.5t-18 -55q0 -34 24.5 -53t70.5 -19zM332 -203q-30 0 -55.5 9.5t-38.5 30.5t-7 55q5 24 19.5 46t43.5 43t75 39l57 23l14 -43l-62 -28q-39 -17 -56 -35
t-21 -37q-4 -23 10 -36t41 -13q14 0 31.5 4t36.5 11l-10 -56q-18 -6 -38 -9.5t-40 -3.5z" />
    <glyph glyph-name="Cacute" unicode="&#x106;" horiz-adv-x="722" 
d="M339 -12q-89 0 -151.5 35t-95.5 98t-33 147q0 94 30.5 175t85.5 141.5t128.5 94t159.5 33.5q120 0 186 -57t69 -161h-95q-2 67 -45 105.5t-127 38.5q-65 0 -120.5 -27.5t-96.5 -77t-64 -115.5t-23 -143q0 -67 24.5 -114.5t70 -73t109.5 -25.5q84 0 139.5 38t81.5 103h95
q-26 -67 -72.5 -115.5t-111 -74t-144.5 -25.5zM368 753l10 63l233 127v0l-13 -73z" />
    <glyph glyph-name="cacute" unicode="&#x107;" horiz-adv-x="573" 
d="M252 -12q-61 0 -108 26.5t-73 74t-26 110.5q0 67 23 123.5t64 98t95 64.5t116 23q90 0 143 -47t54 -127h-86q-1 51 -36.5 76.5t-86.5 25.5q-55 0 -100 -29.5t-72 -80.5t-27 -118q0 -35 10.5 -63t28.5 -47t42 -29t52 -10q34 0 65.5 11.5t56 34.5t37.5 57h86
q-18 -51 -56 -90t-90 -61.5t-112 -22.5zM234 537l10 63l233 127v0l-13 -73z" />
    <glyph glyph-name="Cdotaccent" unicode="&#x10a;" horiz-adv-x="722" 
d="M339 -12q-89 0 -151.5 35t-95.5 98t-33 147q0 94 30.5 175t85.5 141.5t128.5 94t159.5 33.5q120 0 186 -57t69 -161h-95q-2 67 -45 105.5t-127 38.5q-65 0 -120.5 -27.5t-96.5 -77t-64 -115.5t-23 -143q0 -67 24.5 -114.5t70 -73t109.5 -25.5q84 0 139.5 38t81.5 103h95
q-26 -67 -72.5 -115.5t-111 -74t-144.5 -25.5zM486 775q-21 0 -35.5 15t-14.5 35t14.5 35t34.5 15q21 0 35.5 -15t14.5 -35t-14.5 -35t-34.5 -15z" />
    <glyph glyph-name="cdotaccent" unicode="&#x10b;" horiz-adv-x="573" 
d="M252 -12q-61 0 -108 26.5t-73 74t-26 110.5q0 67 23 123.5t64 98t95 64.5t116 23q90 0 143 -47t54 -127h-86q-1 51 -36.5 76.5t-86.5 25.5q-55 0 -100 -29.5t-72 -80.5t-27 -118q0 -35 10.5 -63t28.5 -47t42 -29t52 -10q34 0 65.5 11.5t56 34.5t37.5 57h86
q-18 -51 -56 -90t-90 -61.5t-112 -22.5zM352 562q-21 0 -35.5 15t-14.5 35t14.5 35t34.5 15q21 0 35.5 -15t14.5 -35t-14.5 -35t-34.5 -15z" />
    <glyph glyph-name="Ccaron" unicode="&#x10c;" horiz-adv-x="722" 
d="M339 -12q-89 0 -151.5 35t-95.5 98t-33 147q0 94 30.5 175t85.5 141.5t128.5 94t159.5 33.5q120 0 186 -57t69 -161h-95q-2 67 -45 105.5t-127 38.5q-65 0 -120.5 -27.5t-96.5 -77t-64 -115.5t-23 -143q0 -67 24.5 -114.5t70 -73t109.5 -25.5q84 0 139.5 38t81.5 103h95
q-26 -67 -72.5 -115.5t-111 -74t-144.5 -25.5zM637 907l-12 -65l-152 -82l-122 82l12 65l122 -84z" />
    <glyph glyph-name="ccaron" unicode="&#x10d;" horiz-adv-x="573" 
d="M252 -12q-61 0 -108 26.5t-73 74t-26 110.5q0 67 23 123.5t64 98t95 64.5t116 23q90 0 143 -47t54 -127h-86q-1 51 -36.5 76.5t-86.5 25.5q-55 0 -100 -29.5t-72 -80.5t-27 -118q0 -35 10.5 -63t28.5 -47t42 -29t52 -10q34 0 65.5 11.5t56 34.5t37.5 57h86
q-18 -51 -56 -90t-90 -61.5t-112 -22.5zM504 699l-12 -65l-152 -82l-122 82l12 65l122 -84z" />
    <glyph glyph-name="Dcaron" unicode="&#x10e;" horiz-adv-x="701" 
d="M31 0l123 700h215q106 0 173.5 -33t100.5 -96t33 -154q0 -93 -30 -169.5t-86.5 -132t-135.5 -85.5t-178 -30h-215zM127 70h130q105 0 179 42t113.5 119t39.5 180q0 72 -24 120.5t-75.5 73.5t-134.5 25h-129zM564 907l-12 -65l-152 -82l-122 82l12 65l122 -84z" />
    <glyph glyph-name="dcaron" unicode="&#x10f;" horiz-adv-x="706" 
d="M249 -12q-64 0 -109.5 29.5t-69.5 79.5t-24 110q0 66 21.5 121t60 95.5t90 62.5t110.5 22q66 0 108 -26t62 -69l54 307h84l-127 -720h-77l7 82v0q-19 -24 -46 -45.5t-62.5 -35t-81.5 -13.5zM273 61q57 0 101.5 31t70 83.5t25.5 115.5q0 44 -17 76t-48 50t-74 18
q-57 0 -101.5 -28.5t-70.5 -78.5t-26 -113q0 -44 17 -79t48.5 -55t74.5 -20zM651 555l7 40q26 0 38.5 9.5t16.5 28.5l3 21h-48l15 83h88q1 -26 0.5 -45t-4.5 -39q-9 -52 -39 -75t-77 -23z" />
    <glyph glyph-name="Dcroat" unicode="&#x110;" horiz-adv-x="722" 
d="M20 311l13 76h372l-13 -76h-372zM52 0l123 700h215q106 0 173.5 -33t100.5 -96t33 -154q0 -93 -30 -169.5t-86.5 -132t-135.5 -85.5t-178 -30h-215zM148 70h130q105 0 179 42t113.5 119t39.5 180q0 72 -24 120.5t-75.5 73.5t-134.5 25h-129z" />
    <glyph glyph-name="dcroat" unicode="&#x111;" horiz-adv-x="668" 
d="M381 570l11 65h304l-11 -65h-304zM249 -12q-64 0 -109.5 29.5t-69.5 79.5t-24 110q0 66 21.5 121t60 95.5t90 62.5t110.5 22q66 0 108 -26t62 -69l54 307h84l-127 -720h-77l7 82v0q-19 -24 -46 -45.5t-62.5 -35t-81.5 -13.5zM273 61q57 0 101.5 31t70 83.5t25.5 115.5
q0 44 -17 76t-48 50t-74 18q-57 0 -101.5 -28.5t-70.5 -78.5t-26 -113q0 -44 17 -79t48.5 -55t74.5 -20z" />
    <glyph glyph-name="Emacron" unicode="&#x112;" horiz-adv-x="536" 
d="M31 0l123 700h405l-13 -67h-320l-43 -247h290l-11 -66h-291l-44 -253h320l-12 -67h-404zM197 816l12 63h347l-10 -63h-349z" />
    <glyph glyph-name="emacron" unicode="&#x113;" horiz-adv-x="571" 
d="M248 -12q-61 0 -107 26t-71 73t-25 111q0 65 22 121t61.5 98.5t93 66.5t117.5 24q65 0 109.5 -25.5t67 -68.5t22.5 -95q0 -20 -4 -45.5t-9 -44.5h-414l11 65h332q6 46 -9 77.5t-45 48.5t-72 17q-43 0 -83 -19t-69 -55.5t-39 -91.5l-5 -28q-10 -53 2.5 -95t45 -65.5
t81.5 -23.5q52 0 91.5 24.5t61.5 64.5h83q-21 -46 -57 -82t-84.5 -57t-107.5 -21zM179 592l12 63h347l-10 -63h-349z" />
    <glyph glyph-name="Ebreve" unicode="&#x114;" horiz-adv-x="536" 
d="M31 0l123 700h405l-13 -67h-320l-43 -247h290l-11 -66h-291l-44 -253h320l-12 -67h-404zM362 770q-45 0 -72.5 17.5t-38.5 47t-5 65.5l2 14h50q-7 -37 10.5 -57.5t65.5 -20.5q47 0 72 20.5t32 57.5h51l-3 -15q-7 -36 -28.5 -65t-55 -46.5t-80.5 -17.5z" />
    <glyph glyph-name="ebreve" unicode="&#x115;" horiz-adv-x="571" 
d="M248 -12q-61 0 -107 26t-71 73t-25 111q0 65 22 121t61.5 98.5t93 66.5t117.5 24q65 0 109.5 -25.5t67 -68.5t22.5 -95q0 -20 -4 -45.5t-9 -44.5h-414l11 65h332q6 46 -9 77.5t-45 48.5t-72 17q-43 0 -83 -19t-69 -55.5t-39 -91.5l-5 -28q-10 -53 2.5 -95t45 -65.5
t81.5 -23.5q52 0 91.5 24.5t61.5 64.5h83q-21 -46 -57 -82t-84.5 -57t-107.5 -21zM347 559q-45 0 -72.5 17.5t-38.5 47t-5 65.5l2 14h50q-7 -37 10.5 -57.5t65.5 -20.5q47 0 72 20.5t32 57.5h51l-3 -15q-7 -36 -28.5 -65t-55 -46.5t-80.5 -17.5z" />
    <glyph glyph-name="Edotaccent" unicode="&#x116;" horiz-adv-x="536" 
d="M31 0l123 700h405l-13 -67h-320l-43 -247h290l-11 -66h-291l-44 -253h320l-12 -67h-404zM373 775q-21 0 -35.5 15t-14.5 35t14.5 35t34.5 15q21 0 35.5 -15t14.5 -35t-14.5 -35t-34.5 -15z" />
    <glyph glyph-name="edotaccent" unicode="&#x117;" horiz-adv-x="571" 
d="M248 -12q-61 0 -107 26t-71 73t-25 111q0 65 22 121t61.5 98.5t93 66.5t117.5 24q65 0 109.5 -25.5t67 -68.5t22.5 -95q0 -20 -4 -45.5t-9 -44.5h-414l11 65h332q6 46 -9 77.5t-45 48.5t-72 17q-43 0 -83 -19t-69 -55.5t-39 -91.5l-5 -28q-10 -53 2.5 -95t45 -65.5
t81.5 -23.5q52 0 91.5 24.5t61.5 64.5h83q-21 -46 -57 -82t-84.5 -57t-107.5 -21zM358 562q-21 0 -35.5 15t-14.5 35t14.5 35t34.5 15q21 0 35.5 -15t14.5 -35t-14.5 -35t-34.5 -15z" />
    <glyph glyph-name="Eogonek" unicode="&#x118;" horiz-adv-x="536" 
d="M31 0l123 700h405l-13 -67h-320l-43 -247h290l-11 -66h-291l-44 -253h320l-12 -67h-404zM327 -203q-30 0 -55.5 9.5t-38.5 30.5t-7 55q5 24 19.5 46t43.5 43t75 39l57 23l14 -43l-62 -28q-39 -17 -56 -35t-21 -37q-4 -23 10 -36t41 -13q14 0 31.5 4t36.5 11l-10 -56
q-18 -6 -38 -9.5t-40 -3.5z" />
    <glyph glyph-name="eogonek" unicode="&#x119;" horiz-adv-x="571" 
d="M248 -12q-61 0 -107 26t-71 73t-25 111q0 65 22 121t61.5 98.5t93 66.5t117.5 24q65 0 109.5 -25.5t67 -68.5t22.5 -95q0 -20 -4 -45.5t-9 -44.5h-414l11 65h332q6 46 -9 77.5t-45 48.5t-72 17q-43 0 -83 -19t-69 -55.5t-39 -91.5l-5 -28q-10 -53 2.5 -95t45 -65.5
t81.5 -23.5q52 0 91.5 24.5t61.5 64.5h83q-21 -46 -57 -82t-84.5 -57t-107.5 -21zM248 -191q-30 0 -55.5 9.5t-38.5 30.5t-7 55q5 24 19.5 46t43.5 43t75 39l57 23l14 -43l-62 -28q-39 -17 -56 -35t-21 -37q-4 -23 10 -36t41 -13q14 0 31.5 4t36.5 11l-10 -56
q-18 -6 -38 -9.5t-40 -3.5z" />
    <glyph glyph-name="Ecaron" unicode="&#x11a;" horiz-adv-x="536" 
d="M31 0l123 700h405l-13 -67h-320l-43 -247h290l-11 -66h-291l-44 -253h320l-12 -67h-404zM524 907l-12 -65l-152 -82l-122 82l12 65l122 -84z" />
    <glyph glyph-name="ecaron" unicode="&#x11b;" horiz-adv-x="571" 
d="M248 -12q-61 0 -107 26t-71 73t-25 111q0 65 22 121t61.5 98.5t93 66.5t117.5 24q65 0 109.5 -25.5t67 -68.5t22.5 -95q0 -20 -4 -45.5t-9 -44.5h-414l11 65h332q6 46 -9 77.5t-45 48.5t-72 17q-43 0 -83 -19t-69 -55.5t-39 -91.5l-5 -28q-10 -53 2.5 -95t45 -65.5
t81.5 -23.5q52 0 91.5 24.5t61.5 64.5h83q-21 -46 -57 -82t-84.5 -57t-107.5 -21zM510 699l-12 -65l-152 -82l-122 82l12 65l122 -84z" />
    <glyph glyph-name="Gbreve" unicode="&#x11e;" horiz-adv-x="761" 
d="M333 -12q-85 0 -146 38t-93.5 103.5t-32.5 149.5q0 94 29.5 173t84 137.5t128.5 90.5t163 32q119 0 191 -56.5t76 -157.5h-97q-4 63 -49.5 100t-129.5 37q-92 0 -161.5 -45t-108 -124t-38.5 -182q0 -67 24.5 -116.5t69.5 -77t106 -27.5q75 0 130 30t91.5 85t55.5 130
h-202l11 66h289l-66 -374h-77l13 115v0q-32 -41 -69.5 -69.5t-84 -43t-107.5 -14.5zM481 770q-45 0 -72.5 17.5t-38.5 47t-5 65.5l2 14h50q-7 -37 10.5 -57.5t65.5 -20.5q47 0 72 20.5t32 57.5h51l-3 -15q-7 -36 -28.5 -65t-55 -46.5t-80.5 -17.5z" />
    <glyph glyph-name="gbreve" unicode="&#x11f;" horiz-adv-x="549" 
d="M176 -232q-61 0 -107 16.5t-72 48t-26 76.5q0 36 14.5 66.5t43 56.5t70.5 47l50 -33q-45 -22 -69 -53t-24 -68q0 -27 15.5 -47t45.5 -30.5t71 -10.5q68 0 112 31.5t44 83.5q0 28 -22 50t-87 26q-45 3 -80 9.5t-61.5 16t-46 22t-33.5 27.5l4 24l107 86l63 -26l-110 -87
l18 42q14 -10 27.5 -17.5t30 -13t39 -9.5t54.5 -6q70 -5 109.5 -25t55.5 -49.5t16 -61.5q0 -55 -32 -98.5t-89 -68.5t-131 -25zM242 156q-55 0 -93 18.5t-57.5 51t-19.5 73.5q0 59 31 106.5t83.5 75t117.5 27.5q55 0 92.5 -19t56.5 -51t19 -73q0 -59 -30.5 -106.5t-82.5 -75
t-117 -27.5zM254 225q61 0 99.5 36.5t38.5 94.5q0 40 -26.5 61.5t-73.5 21.5q-61 0 -99.5 -36.5t-38.5 -94.5q0 -40 26.5 -61.5t73.5 -21.5zM370 426l-13 70h206l-12 -62zM338 559q-45 0 -72.5 17.5t-38.5 47t-5 65.5l2 14h50q-7 -37 10.5 -57.5t65.5 -20.5q47 0 72 20.5
t32 57.5h51l-3 -15q-7 -36 -28.5 -65t-55 -46.5t-80.5 -17.5z" />
    <glyph glyph-name="Gdotaccent" unicode="&#x120;" horiz-adv-x="761" 
d="M333 -12q-85 0 -146 38t-93.5 103.5t-32.5 149.5q0 94 29.5 173t84 137.5t128.5 90.5t163 32q119 0 191 -56.5t76 -157.5h-97q-4 63 -49.5 100t-129.5 37q-92 0 -161.5 -45t-108 -124t-38.5 -182q0 -67 24.5 -116.5t69.5 -77t106 -27.5q75 0 130 30t91.5 85t55.5 130
h-202l11 66h289l-66 -374h-77l13 115v0q-32 -41 -69.5 -69.5t-84 -43t-107.5 -14.5zM492 775q-21 0 -35.5 15t-14.5 35t14.5 35t34.5 15q21 0 35.5 -15t14.5 -35t-14.5 -35t-34.5 -15z" />
    <glyph glyph-name="gdotaccent" unicode="&#x121;" horiz-adv-x="549" 
d="M176 -232q-61 0 -107 16.5t-72 48t-26 76.5q0 36 14.5 66.5t43 56.5t70.5 47l50 -33q-45 -22 -69 -53t-24 -68q0 -27 15.5 -47t45.5 -30.5t71 -10.5q68 0 112 31.5t44 83.5q0 28 -22 50t-87 26q-45 3 -80 9.5t-61.5 16t-46 22t-33.5 27.5l4 24l107 86l63 -26l-110 -87
l18 42q14 -10 27.5 -17.5t30 -13t39 -9.5t54.5 -6q70 -5 109.5 -25t55.5 -49.5t16 -61.5q0 -55 -32 -98.5t-89 -68.5t-131 -25zM242 156q-55 0 -93 18.5t-57.5 51t-19.5 73.5q0 59 31 106.5t83.5 75t117.5 27.5q55 0 92.5 -19t56.5 -51t19 -73q0 -59 -30.5 -106.5t-82.5 -75
t-117 -27.5zM254 225q61 0 99.5 36.5t38.5 94.5q0 40 -26.5 61.5t-73.5 21.5q-61 0 -99.5 -36.5t-38.5 -94.5q0 -40 26.5 -61.5t73.5 -21.5zM370 426l-13 70h206l-12 -62zM349 562q-21 0 -35.5 15t-14.5 35t14.5 35t34.5 15q21 0 35.5 -15t14.5 -35t-14.5 -35t-34.5 -15z
" />
    <glyph glyph-name="uni0122" unicode="&#x122;" horiz-adv-x="761" 
d="M333 -12q-85 0 -146 38t-93.5 103.5t-32.5 149.5q0 94 29.5 173t84 137.5t128.5 90.5t163 32q119 0 191 -56.5t76 -157.5h-97q-4 63 -49.5 100t-129.5 37q-92 0 -161.5 -45t-108 -124t-38.5 -182q0 -67 24.5 -116.5t69.5 -77t106 -27.5q75 0 130 30t91.5 85t55.5 130
h-202l11 66h289l-66 -374h-77l13 115v0q-32 -41 -69.5 -69.5t-84 -43t-107.5 -14.5zM256 -238l7 40q25 0 38.5 14.5t18.5 42.5l2 14h-45l14 77h86q1 -20 -0.5 -39t-3.5 -35q-11 -60 -41 -87t-76 -27z" />
    <glyph glyph-name="uni0123" unicode="&#x123;" horiz-adv-x="549" 
d="M176 -232q-61 0 -107 16.5t-72 48t-26 76.5q0 36 14.5 66.5t43 56.5t70.5 47l50 -33q-45 -22 -69 -53t-24 -68q0 -27 15.5 -47t45.5 -30.5t71 -10.5q68 0 112 31.5t44 83.5q0 28 -22 50t-87 26q-45 3 -80 9.5t-61.5 16t-46 22t-33.5 27.5l4 24l107 86l63 -26l-110 -87
l18 42q14 -10 27.5 -17.5t30 -13t39 -9.5t54.5 -6q70 -5 109.5 -25t55.5 -49.5t16 -61.5q0 -55 -32 -98.5t-89 -68.5t-131 -25zM242 156q-55 0 -93 18.5t-57.5 51t-19.5 73.5q0 59 31 106.5t83.5 75t117.5 27.5q55 0 92.5 -19t56.5 -51t19 -73q0 -59 -30.5 -106.5t-82.5 -75
t-117 -27.5zM254 225q61 0 99.5 36.5t38.5 94.5q0 40 -26.5 61.5t-73.5 21.5q-61 0 -99.5 -36.5t-38.5 -94.5q0 -40 26.5 -61.5t73.5 -21.5zM370 426l-13 70h206l-12 -62zM420 740l-7 -40q-25 0 -38 -9.5t-17 -28.5l-3 -21h48l-15 -83h-88q-1 26 -0.5 45.5t4.5 38.5
q9 52 39 75t77 23z" />
    <glyph glyph-name="Hbar" unicode="&#x126;" horiz-adv-x="750" 
d="M84 495l14 76h669l-14 -76h-669zM513 0l124 700h84l-124 -700h-84zM66 0l123 700h84l-123 -700h-84zM190 324l12 66h401l-12 -66h-401z" />
    <glyph glyph-name="hbar" unicode="&#x127;" horiz-adv-x="619" 
d="M97 570l11 65h304l-11 -65h-304zM72 0l126 720h84l-54 -309v0q32 46 81.5 71.5t104.5 25.5q58 0 97 -23.5t54.5 -72t2.5 -122.5l-51 -290h-84l49 281q14 77 -12 116t-88 39q-43 0 -80.5 -21t-63.5 -60.5t-37 -97.5l-45 -257h-84z" />
    <glyph glyph-name="Itilde" unicode="&#x128;" horiz-adv-x="233" 
d="M31 0l123 700h84l-123 -700h-84zM57 769q16 50 46 75.5t67 25.5q27 0 42 -11.5t29 -23.5t36 -12q16 0 30 11.5t21 33.5h49q-15 -49 -45.5 -75t-68.5 -26q-27 0 -43 12t-29.5 23.5t-34.5 11.5q-17 0 -30 -11t-20 -34h-49z" />
    <glyph glyph-name="itilde" unicode="&#x129;" horiz-adv-x="223" 
d="M26 0l87 496h84l-87 -496h-84zM13 555q16 50 46 75.5t67 25.5q27 0 42 -11.5t29 -23.5t36 -12q16 0 30 11.5t21 33.5h49q-15 -49 -45.5 -75t-68.5 -26q-27 0 -43 12t-29.5 23.5t-34.5 11.5q-17 0 -30 -11t-20 -34h-49z" />
    <glyph glyph-name="Imacron" unicode="&#x12a;" horiz-adv-x="233" 
d="M31 0l123 700h84l-123 -700h-84zM43 816l12 63h347l-10 -63h-349z" />
    <glyph glyph-name="imacron" unicode="&#x12b;" horiz-adv-x="223" 
d="M26 0l87 496h84l-87 -496h-84zM-4 592l12 63h347l-10 -63h-349z" />
    <glyph glyph-name="Ibreve" unicode="&#x12c;" horiz-adv-x="233" 
d="M31 0l123 700h84l-123 -700h-84zM208 770q-45 0 -72.5 17.5t-38.5 47t-5 65.5l2 14h50q-7 -37 10.5 -57.5t65.5 -20.5q47 0 72 20.5t32 57.5h51l-3 -15q-7 -36 -28.5 -65t-55 -46.5t-80.5 -17.5z" />
    <glyph glyph-name="ibreve" unicode="&#x12d;" horiz-adv-x="223" 
d="M26 0l87 496h84l-87 -496h-84zM164 559q-45 0 -72.5 17.5t-38.5 47t-5 65.5l2 14h50q-7 -37 10.5 -57.5t65.5 -20.5q47 0 72 20.5t32 57.5h51l-3 -15q-7 -36 -28.5 -65t-55 -46.5t-80.5 -17.5z" />
    <glyph glyph-name="Iogonek" unicode="&#x12e;" horiz-adv-x="233" 
d="M31 0l123 700h84l-123 -700h-84zM7 -203q-30 0 -55.5 9.5t-38.5 30.5t-7 55q5 24 19.5 46t43.5 43t75 39l57 23l14 -43l-62 -28q-39 -17 -56 -35t-21 -37q-4 -23 10 -36t41 -13q14 0 31.5 4t36.5 11l-10 -56q-18 -6 -38 -9.5t-40 -3.5z" />
    <glyph glyph-name="iogonek" unicode="&#x12f;" horiz-adv-x="223" 
d="M26 0l87 496h84l-87 -496h-84zM175 562q-21 0 -35.5 15t-14.5 35t14.5 35t34.5 15q21 0 35.5 -15t14.5 -35t-14.5 -35t-34.5 -15zM2 -203q-30 0 -55.5 9.5t-38.5 30.5t-7 55q5 24 19.5 46t43.5 43t75 39l57 23l14 -43l-62 -28q-39 -17 -56 -35t-21 -37q-4 -23 10 -36
t41 -13q14 0 31.5 4t36.5 11l-10 -56q-18 -6 -38 -9.5t-40 -3.5z" />
    <glyph glyph-name="Idotaccent" unicode="&#x130;" horiz-adv-x="233" 
d="M31 0l123 700h84l-123 -700h-84zM219 775q-21 0 -35.5 15t-14.5 35t14.5 35t34.5 15q21 0 35.5 -15t14.5 -35t-14.5 -35t-34.5 -15z" />
    <glyph glyph-name="dotlessi" unicode="&#x131;" horiz-adv-x="223" 
d="M26 0l87 496h84l-87 -496h-84z" />
    <glyph glyph-name="IJ" unicode="&#x132;" horiz-adv-x="677" 
d="M31 0l123 700h84l-123 -700h-84zM369 -12q-58 0 -97.5 24t-56 68.5t-5.5 105.5h85q-6 -34 0 -62t27 -44.5t60 -16.5q38 0 63.5 15.5t40.5 40.5t20 53l92 528h84l-92 -528q-15 -84 -75 -134t-146 -50z" />
    <glyph glyph-name="ij" unicode="&#x133;" horiz-adv-x="457" 
d="M35 0l87 496h84l-87 -496h-84zM194 606q-25 0 -41.5 16t-16.5 41t16.5 41t41.5 16q24 0 41 -16t17 -41t-17 -41t-41 -16zM95 -220l13 72h38q38 0 56.5 15.5t25.5 52.5l102 576h84l-102 -578q-8 -48 -29.5 -78.5t-55.5 -45t-81 -14.5h-51zM403 606q-25 0 -41.5 16
t-16.5 41t16.5 41t41.5 16q24 0 40.5 -16t16.5 -41t-16.5 -41t-40.5 -16z" />
    <glyph glyph-name="uni0136" unicode="&#x136;" horiz-adv-x="583" 
d="M31 0l123 700h84l-55 -317l347 317h106l-309 -279l190 -421h-97l-161 360l-96 -87l-48 -273h-84zM160 -238l7 40q25 0 38.5 14.5t18.5 42.5l2 14h-45l14 77h86q1 -20 -0.5 -39t-3.5 -35q-11 -60 -41 -87t-76 -27z" />
    <glyph glyph-name="uni0137" unicode="&#x137;" horiz-adv-x="514" 
d="M351 0l-205 274l254 222h111l-302 -251l8 64l236 -309h-102zM25 0l128 720h84l-128 -720h-84zM122 -238l7 40q25 0 38.5 14.5t18.5 42.5l2 14h-45l14 77h86q1 -20 -0.5 -39t-3.5 -35q-11 -60 -41 -87t-76 -27z" />
    <glyph glyph-name="Lacute" unicode="&#x139;" horiz-adv-x="526" 
d="M31 0l123 700h84l-111 -633h326l-12 -67h-410zM99 753l10 63l233 127v0l-13 -73z" />
    <glyph glyph-name="lacute" unicode="&#x13a;" horiz-adv-x="223" 
d="M25 0l128 720h84l-128 -720h-84zM98 761l10 63l233 127v0l-13 -73z" />
    <glyph glyph-name="uni013B" unicode="&#x13b;" horiz-adv-x="526" 
d="M31 0l123 700h84l-111 -633h326l-12 -67h-410zM129 -238l7 40q25 0 38.5 14.5t18.5 42.5l2 14h-45l14 77h86q1 -20 -0.5 -39t-3.5 -35q-11 -60 -41 -87t-76 -27z" />
    <glyph glyph-name="uni013C" unicode="&#x13c;" horiz-adv-x="223" 
d="M25 0l128 720h84l-128 -720h-84zM-23 -238l7 40q25 0 38.5 14.5t18.5 42.5l2 14h-45l14 77h86q1 -20 -0.5 -39t-3.5 -35q-11 -60 -41 -87t-76 -27z" />
    <glyph glyph-name="Lcaron" unicode="&#x13d;" horiz-adv-x="526" 
d="M31 0l123 700h84l-111 -633h326l-12 -67h-410zM276 543l7 40q26 0 38.5 9.5t16.5 28.5l3 21h-48l15 83h88q1 -26 0.5 -45t-4.5 -39q-9 -52 -39 -75t-77 -23z" />
    <glyph glyph-name="lcaron" unicode="&#x13e;" horiz-adv-x="307" 
d="M25 0l128 720h84l-128 -720h-84zM252 555l7 40q26 0 38.5 9.5t16.5 28.5l3 21h-48l15 83h88q1 -26 0.5 -45t-4.5 -39q-9 -52 -39 -75t-77 -23z" />
    <glyph glyph-name="Ldot" unicode="&#x13f;" horiz-adv-x="526" 
d="M31 0l123 700h84l-111 -633h326l-12 -67h-410zM377 292q-25 0 -41.5 16.5t-16.5 40.5q0 25 16.5 41t41.5 16t41 -16t16 -41q0 -24 -16 -40.5t-41 -16.5z" />
    <glyph glyph-name="ldot" unicode="&#x140;" horiz-adv-x="259" 
d="M25 0l128 720h84l-128 -720h-84zM262 303q-25 0 -41.5 16.5t-16.5 40.5q0 25 16.5 41t41.5 16t41 -16t16 -41q0 -24 -16 -40.5t-41 -16.5z" />
    <glyph glyph-name="Lslash" unicode="&#x141;" horiz-adv-x="552" 
d="M26 280l14 79l305 108l-14 -79zM57 0l123 700h84l-111 -633h326l-12 -67h-410z" />
    <glyph glyph-name="lslash" unicode="&#x142;" horiz-adv-x="250" 
d="M23 322l13 79l249 95l-14 -78zM39 0l128 720h84l-128 -720h-84z" />
    <glyph glyph-name="Nacute" unicode="&#x143;" horiz-adv-x="690" 
d="M31 0l123 700h83l275 -567v0l99 567h84l-123 -700h-84l-273 567v0l-100 -567h-84zM328 753l10 63l233 127v0l-13 -73z" />
    <glyph glyph-name="nacute" unicode="&#x144;" horiz-adv-x="573" 
d="M26 0l87 496h76l-10 -89v0q32 47 82 74t107 27q63 0 101 -28t51.5 -77t1.5 -113l-51 -290h-84l49 281q13 74 -11 114.5t-89 40.5q-42 0 -78.5 -20t-62.5 -57.5t-38 -92.5l-47 -266h-84zM234 537l10 63l233 127v0l-13 -73z" />
    <glyph glyph-name="uni0145" unicode="&#x145;" horiz-adv-x="690" 
d="M31 0l123 700h83l275 -567v0l99 567h84l-123 -700h-84l-273 567v0l-100 -567h-84zM212 -238l7 40q25 0 38.5 14.5t18.5 42.5l2 14h-45l14 77h86q1 -20 -0.5 -39t-3.5 -35q-11 -60 -41 -87t-76 -27z" />
    <glyph glyph-name="uni0146" unicode="&#x146;" horiz-adv-x="573" 
d="M26 0l87 496h76l-10 -89v0q32 47 82 74t107 27q63 0 101 -28t51.5 -77t1.5 -113l-51 -290h-84l49 281q13 74 -11 114.5t-89 40.5q-42 0 -78.5 -20t-62.5 -57.5t-38 -92.5l-47 -266h-84zM153 -238l7 40q25 0 38.5 14.5t18.5 42.5l2 14h-45l14 77h86q1 -20 -0.5 -39
t-3.5 -35q-11 -60 -41 -87t-76 -27z" />
    <glyph glyph-name="Ncaron" unicode="&#x147;" horiz-adv-x="690" 
d="M31 0l123 700h83l275 -567v0l99 567h84l-123 -700h-84l-273 567v0l-100 -567h-84zM597 907l-12 -65l-152 -82l-122 82l12 65l122 -84z" />
    <glyph glyph-name="ncaron" unicode="&#x148;" horiz-adv-x="573" 
d="M26 0l87 496h76l-10 -89v0q32 47 82 74t107 27q63 0 101 -28t51.5 -77t1.5 -113l-51 -290h-84l49 281q13 74 -11 114.5t-89 40.5q-42 0 -78.5 -20t-62.5 -57.5t-38 -92.5l-47 -266h-84zM504 699l-12 -65l-152 -82l-122 82l12 65l122 -84z" />
    <glyph glyph-name="Eng" unicode="&#x14a;" horiz-adv-x="689" 
d="M31 0l123 700h84l274 -561v0l99 561h84l-138 -782q-8 -48 -29.5 -78.5t-55.5 -45t-80 -14.5h-52l13 72h39q38 0 56.5 15.5t25.5 52.5l14 80l-274 561v0l-99 -561h-84z" />
    <glyph glyph-name="eng" unicode="&#x14b;" horiz-adv-x="584" 
d="M26 0l87 496h76l-11 -89v0q32 47 82 74t107 27q59 0 98 -23.5t54.5 -72t2.5 -122.5l-66 -372q-8 -48 -29.5 -78.5t-55.5 -45t-80 -14.5h-52l13 72h39q38 0 56.5 15.5t25.5 52.5l63 361q14 77 -12.5 116t-88.5 39q-43 0 -80.5 -21t-63.5 -60.5t-36 -97.5l-45 -257h-84z
" />
    <glyph glyph-name="Omacron" unicode="&#x14c;" horiz-adv-x="793" 
d="M352 -12q-87 0 -152.5 38.5t-102.5 106t-37 153.5q0 89 32.5 166t90.5 135.5t133.5 91.5t160.5 33q87 0 152.5 -38t102.5 -105t37 -154q0 -89 -32.5 -166.5t-90.5 -136t-133 -91.5t-161 -33zM364 62q66 0 123.5 27t101 74.5t68.5 111t25 136.5q0 70 -27.5 120.5t-76.5 78
t-113 27.5q-66 0 -123.5 -26.5t-101.5 -74t-68.5 -110.5t-24.5 -135q0 -70 27.5 -121.5t76.5 -79.5t113 -28zM323 816l12 63h347l-10 -63h-349z" />
    <glyph glyph-name="omacron" unicode="&#x14d;" horiz-adv-x="596" 
d="M257 -12q-62 0 -110 28t-75 77t-27 111q0 65 22.5 120.5t63 96.5t94 64t114.5 23q62 0 110 -27t75 -74.5t27 -111.5q0 -65 -22.5 -121t-63 -97.5t-93.5 -65t-115 -23.5zM268 60q56 0 100.5 30t70.5 82t26 117q0 47 -19 79.5t-50 50t-68 17.5q-55 0 -99 -30t-70 -82
t-26 -117q0 -46 18.5 -79t49.5 -50.5t67 -17.5zM181 592l12 63h347l-10 -63h-349z" />
    <glyph glyph-name="Obreve" unicode="&#x14e;" horiz-adv-x="793" 
d="M352 -12q-87 0 -152.5 38.5t-102.5 106t-37 153.5q0 89 32.5 166t90.5 135.5t133.5 91.5t160.5 33q87 0 152.5 -38t102.5 -105t37 -154q0 -89 -32.5 -166.5t-90.5 -136t-133 -91.5t-161 -33zM364 62q66 0 123.5 27t101 74.5t68.5 111t25 136.5q0 70 -27.5 120.5t-76.5 78
t-113 27.5q-66 0 -123.5 -26.5t-101.5 -74t-68.5 -110.5t-24.5 -135q0 -70 27.5 -121.5t76.5 -79.5t113 -28zM488 770q-45 0 -72.5 17.5t-38.5 47t-5 65.5l2 14h50q-7 -37 10.5 -57.5t65.5 -20.5q47 0 72 20.5t32 57.5h51l-3 -15q-7 -36 -28.5 -65t-55 -46.5t-80.5 -17.5z
" />
    <glyph glyph-name="obreve" unicode="&#x14f;" horiz-adv-x="596" 
d="M257 -12q-62 0 -110 28t-75 77t-27 111q0 65 22.5 120.5t63 96.5t94 64t114.5 23q62 0 110 -27t75 -74.5t27 -111.5q0 -65 -22.5 -121t-63 -97.5t-93.5 -65t-115 -23.5zM268 60q56 0 100.5 30t70.5 82t26 117q0 47 -19 79.5t-50 50t-68 17.5q-55 0 -99 -30t-70 -82
t-26 -117q0 -46 18.5 -79t49.5 -50.5t67 -17.5zM349 559q-45 0 -72.5 17.5t-38.5 47t-5 65.5l2 14h50q-7 -37 10.5 -57.5t65.5 -20.5q47 0 72 20.5t32 57.5h51l-3 -15q-7 -36 -28.5 -65t-55 -46.5t-80.5 -17.5z" />
    <glyph glyph-name="Ohungarumlaut" unicode="&#x150;" horiz-adv-x="793" 
d="M352 -12q-87 0 -152.5 38.5t-102.5 106t-37 153.5q0 89 32.5 166t90.5 135.5t133.5 91.5t160.5 33q87 0 152.5 -38t102.5 -105t37 -154q0 -89 -32.5 -166.5t-90.5 -136t-133 -91.5t-161 -33zM364 62q66 0 123.5 27t101 74.5t68.5 111t25 136.5q0 70 -27.5 120.5t-76.5 78
t-113 27.5q-66 0 -123.5 -26.5t-101.5 -74t-68.5 -110.5t-24.5 -135q0 -70 27.5 -121.5t76.5 -79.5t113 -28zM484 760l105 149h73l-121 -149h-57zM338 760l93 149h73l-110 -149h-56z" />
    <glyph glyph-name="ohungarumlaut" unicode="&#x151;" horiz-adv-x="596" 
d="M257 -12q-62 0 -110 28t-75 77t-27 111q0 65 22.5 120.5t63 96.5t94 64t114.5 23q62 0 110 -27t75 -74.5t27 -111.5q0 -65 -22.5 -121t-63 -97.5t-93.5 -65t-115 -23.5zM268 60q56 0 100.5 30t70.5 82t26 117q0 47 -19 79.5t-50 50t-68 17.5q-55 0 -99 -30t-70 -82
t-26 -117q0 -46 18.5 -79t49.5 -50.5t67 -17.5zM345 549l105 149h73l-121 -149h-57zM199 549l93 149h73l-110 -149h-56z" />
    <glyph glyph-name="OE" unicode="&#x152;" horiz-adv-x="1109" 
d="M342 -12q-81 0 -144.5 40t-99.5 110t-36 160q0 86 32.5 161t88.5 132t128.5 89t151.5 32q55 0 102 -16t83.5 -46.5t58.5 -74.5l22 125h403l-13 -69h-319l-43 -244h289l-12 -68h-289l-44 -250h319l-12 -69h-403l22 124q-37 -44 -83 -74.5t-97 -46t-105 -15.5zM358 62
q66 0 122.5 27.5t99.5 76t67 112.5t24 137q0 70 -28 119.5t-77 76t-112 26.5q-61 0 -115.5 -26t-97 -72t-67 -106.5t-24.5 -129.5q0 -74 27.5 -128t74.5 -83.5t106 -29.5z" />
    <glyph glyph-name="oe" unicode="&#x153;" horiz-adv-x="987" 
d="M257 -12q-62 0 -110 28t-75 77t-27 111q0 65 22.5 120.5t63 96.5t94 64t114.5 23q66 0 115.5 -30.5t73.5 -83.5q41 53 100.5 83.5t129.5 30.5q64 0 107.5 -25.5t66 -68.5t22.5 -95q0 -13 -3 -32.5t-6 -36t-4 -21.5h-395q-9 -45 4.5 -84t46.5 -62.5t80 -23.5q56 0 98.5 28
t65.5 76h82q-21 -50 -58.5 -89.5t-87.5 -62.5t-112 -23q-65 0 -112 29.5t-70 80.5q-40 -50 -98.5 -80t-127.5 -30zM268 60q56 0 100.5 30t70.5 82t26 117q0 47 -19 79.5t-50 50t-68 17.5q-55 0 -99 -30t-70 -82t-26 -117q0 -46 18.5 -79t49.5 -50.5t67 -17.5zM558 294h312
q6 46 -8.5 77.5t-45 48.5t-72.5 17q-40 0 -78 -16t-66 -48t-42 -79z" />
    <glyph glyph-name="Racute" unicode="&#x154;" horiz-adv-x="594" 
d="M31 0l123 700h225q72 0 117 -24t66 -64t21 -88q0 -72 -35.5 -125t-98.5 -81.5t-145 -28.5h-138l-51 -289h-84zM409 0l-99 313h87l103 -313h-91zM178 355h136q83 0 133 41.5t50 119.5q0 47 -32 80t-104 33h-135zM251 753l10 63l233 127v0l-13 -73z" />
    <glyph glyph-name="racute" unicode="&#x155;" horiz-adv-x="365" 
d="M26 0l87 496h77l-9 -88v0q22 31 52.5 53t69 34.5t82.5 12.5l-15 -88h-23q-34 0 -64.5 -7.5t-56 -25.5t-43.5 -47t-26 -73l-47 -267h-84zM166 537l10 63l233 127v0l-13 -73z" />
    <glyph glyph-name="uni0156" unicode="&#x156;" horiz-adv-x="594" 
d="M31 0l123 700h225q72 0 117 -24t66 -64t21 -88q0 -72 -35.5 -125t-98.5 -81.5t-145 -28.5h-138l-51 -289h-84zM409 0l-99 313h87l103 -313h-91zM178 355h136q83 0 133 41.5t50 119.5q0 47 -32 80t-104 33h-135zM172 -238l7 40q25 0 38.5 14.5t18.5 42.5l2 14h-45l14 77
h86q1 -20 -0.5 -39t-3.5 -35q-11 -60 -41 -87t-76 -27z" />
    <glyph glyph-name="uni0157" unicode="&#x157;" horiz-adv-x="365" 
d="M26 0l87 496h77l-9 -88v0q22 31 52.5 53t69 34.5t82.5 12.5l-15 -88h-23q-34 0 -64.5 -7.5t-56 -25.5t-43.5 -47t-26 -73l-47 -267h-84zM-21 -238l7 40q25 0 38.5 14.5t18.5 42.5l2 14h-45l14 77h86q1 -20 -0.5 -39t-3.5 -35q-11 -60 -41 -87t-76 -27z" />
    <glyph glyph-name="Rcaron" unicode="&#x158;" horiz-adv-x="594" 
d="M31 0l123 700h225q72 0 117 -24t66 -64t21 -88q0 -72 -35.5 -125t-98.5 -81.5t-145 -28.5h-138l-51 -289h-84zM409 0l-99 313h87l103 -313h-91zM178 355h136q83 0 133 41.5t50 119.5q0 47 -32 80t-104 33h-135zM520 907l-12 -65l-152 -82l-122 82l12 65l122 -84z" />
    <glyph glyph-name="rcaron" unicode="&#x159;" horiz-adv-x="365" 
d="M26 0l87 496h77l-9 -88v0q22 31 52.5 53t69 34.5t82.5 12.5l-15 -88h-23q-34 0 -64.5 -7.5t-56 -25.5t-43.5 -47t-26 -73l-47 -267h-84zM436 699l-12 -65l-152 -82l-122 82l12 65l122 -84z" />
    <glyph glyph-name="Sacute" unicode="&#x15a;" horiz-adv-x="581" 
d="M263 -12q-74 0 -128.5 25.5t-81 75t-16.5 121.5h88q-10 -44 7 -78t54 -53.5t86 -19.5q54 0 90.5 17.5t55 49.5t18.5 75q0 27 -11 46t-30 32.5t-43.5 23.5t-52.5 19.5t-56 19.5q-66 24 -98.5 65.5t-32.5 94.5q0 63 31 110t87 73.5t130 26.5q65 0 113 -24.5t71.5 -68.5
t12.5 -101h-87q6 35 -8.5 62.5t-44 43.5t-69.5 16q-44 0 -77.5 -16t-51.5 -44t-18 -65q0 -23 9 -39.5t25.5 -29t39 -23t49.5 -19.5t57 -20q31 -11 57.5 -27t46 -37t30.5 -48t11 -61q0 -67 -33 -117t-92 -78t-138 -28zM274 753l10 63l233 127v0l-13 -73z" />
    <glyph glyph-name="sacute" unicode="&#x15b;" horiz-adv-x="503" 
d="M217 -12q-62 0 -106 21.5t-66 61t-18 93.5h85q-1 -28 10 -52t37.5 -38.5t69.5 -14.5q36 0 62 11t40.5 30.5t14.5 47.5q0 22 -13 35.5t-37.5 22.5t-57.5 15q-27 6 -54.5 15.5t-50 24.5t-36 37t-13.5 52q0 45 26 80.5t71.5 56.5t103.5 21q79 0 126.5 -39.5t43.5 -112.5h-84
q2 38 -23 59.5t-72 21.5q-46 0 -75.5 -21.5t-29.5 -52.5q0 -20 13 -33.5t36.5 -22t55.5 -15.5q31 -7 59 -17t50.5 -25t35.5 -37t13 -54q0 -52 -28 -90.5t-77 -59.5t-112 -21zM194 537l10 63l233 127v0l-13 -73z" />
    <glyph glyph-name="Scedilla" unicode="&#x15e;" horiz-adv-x="581" 
d="M263 -12q-74 0 -128.5 25.5t-81 75t-16.5 121.5h88q-10 -44 7 -78t54 -53.5t86 -19.5q54 0 90.5 17.5t55 49.5t18.5 75q0 27 -11 46t-30 32.5t-43.5 23.5t-52.5 19.5t-56 19.5q-66 24 -98.5 65.5t-32.5 94.5q0 63 31 110t87 73.5t130 26.5q65 0 113 -24.5t71.5 -68.5
t12.5 -101h-87q6 35 -8.5 62.5t-44 43.5t-69.5 16q-44 0 -77.5 -16t-51.5 -44t-18 -65q0 -23 9 -39.5t25.5 -29t39 -23t49.5 -19.5t57 -20q31 -11 57.5 -27t46 -37t30.5 -48t11 -61q0 -67 -33 -117t-92 -78t-138 -28zM130 -259l9 53h92q38 0 57 13.5t19 38.5q0 22 -14 31.5
t-45 9.5h-50l21 120h57l-13 -70q35 1 60.5 -8t39.5 -27.5t14 -48.5q0 -32 -18 -57.5t-48.5 -40t-69.5 -14.5h-111z" />
    <glyph glyph-name="scedilla" unicode="&#x15f;" horiz-adv-x="503" 
d="M217 -12q-62 0 -106 21.5t-66 61t-18 93.5h85q-1 -28 10 -52t37.5 -38.5t69.5 -14.5q36 0 62 11t40.5 30.5t14.5 47.5q0 22 -13 35.5t-37.5 22.5t-57.5 15q-27 6 -54.5 15.5t-50 24.5t-36 37t-13.5 52q0 45 26 80.5t71.5 56.5t103.5 21q79 0 126.5 -39.5t43.5 -112.5h-84
q2 38 -23 59.5t-72 21.5q-46 0 -75.5 -21.5t-29.5 -52.5q0 -20 13 -33.5t36.5 -22t55.5 -15.5q31 -7 59 -17t50.5 -25t35.5 -37t13 -54q0 -52 -28 -90.5t-77 -59.5t-112 -21zM99 -259l9 53h92q38 0 57 13.5t19 38.5q0 22 -14 31.5t-45 9.5h-50l21 120h57l-13 -70
q35 1 60.5 -8t39.5 -27.5t14 -48.5q0 -32 -18 -57.5t-48.5 -40t-69.5 -14.5h-111z" />
    <glyph glyph-name="Scaron" unicode="&#x160;" horiz-adv-x="581" 
d="M263 -12q-74 0 -128.5 25.5t-81 75t-16.5 121.5h88q-10 -44 7 -78t54 -53.5t86 -19.5q54 0 90.5 17.5t55 49.5t18.5 75q0 27 -11 46t-30 32.5t-43.5 23.5t-52.5 19.5t-56 19.5q-66 24 -98.5 65.5t-32.5 94.5q0 63 31 110t87 73.5t130 26.5q65 0 113 -24.5t71.5 -68.5
t12.5 -101h-87q6 35 -8.5 62.5t-44 43.5t-69.5 16q-44 0 -77.5 -16t-51.5 -44t-18 -65q0 -23 9 -39.5t25.5 -29t39 -23t49.5 -19.5t57 -20q31 -11 57.5 -27t46 -37t30.5 -48t11 -61q0 -67 -33 -117t-92 -78t-138 -28zM543 907l-12 -65l-152 -82l-122 82l12 65l122 -84z" />
    <glyph glyph-name="scaron" unicode="&#x161;" horiz-adv-x="503" 
d="M217 -12q-62 0 -106 21.5t-66 61t-18 93.5h85q-1 -28 10 -52t37.5 -38.5t69.5 -14.5q36 0 62 11t40.5 30.5t14.5 47.5q0 22 -13 35.5t-37.5 22.5t-57.5 15q-27 6 -54.5 15.5t-50 24.5t-36 37t-13.5 52q0 45 26 80.5t71.5 56.5t103.5 21q79 0 126.5 -39.5t43.5 -112.5h-84
q2 38 -23 59.5t-72 21.5q-46 0 -75.5 -21.5t-29.5 -52.5q0 -20 13 -33.5t36.5 -22t55.5 -15.5q31 -7 59 -17t50.5 -25t35.5 -37t13 -54q0 -52 -28 -90.5t-77 -59.5t-112 -21zM464 699l-12 -65l-152 -82l-122 82l12 65l122 -84z" />
    <glyph glyph-name="uni0162" unicode="&#x162;" horiz-adv-x="559" 
d="M194 0l111 633h-208l12 67h501l-12 -67h-209l-111 -633h-84zM120 -259l9 53h92q38 0 57 13.5t19 38.5q0 22 -14 31.5t-45 9.5h-50l21 120h57l-13 -70q35 1 60.5 -8t39.5 -27.5t14 -48.5q0 -32 -18 -57.5t-48.5 -40t-69.5 -14.5h-111z" />
    <glyph glyph-name="uni0163" unicode="&#x163;" horiz-adv-x="379" 
d="M219 0q-52 0 -83.5 16.5t-41.5 51t-1 86.5l48 271h-77l13 71h77l32 119h74l-22 -119h147l-13 -71h-146l-49 -271q-8 -47 9 -64.5t59 -17.5h65l-13 -72h-78zM67 -259l9 53h92q38 0 57 13.5t19 38.5q0 22 -14 31.5t-45 9.5h-50l21 120h57l-13 -70q35 1 60.5 -8t39.5 -27.5
t14 -48.5q0 -32 -18 -57.5t-48.5 -40t-69.5 -14.5h-111z" />
    <glyph glyph-name="Tcaron" unicode="&#x164;" horiz-adv-x="559" 
d="M194 0l111 633h-208l12 67h501l-12 -67h-209l-111 -633h-84zM533 903l-12 -65l-152 -82l-122 82l12 65l122 -84z" />
    <glyph glyph-name="tcaron" unicode="&#x165;" horiz-adv-x="379" 
d="M219 0q-52 0 -83.5 16.5t-41.5 51t-1 86.5l48 271h-77l13 71h77l32 119h74l-22 -119h147l-13 -71h-146l-49 -271q-8 -47 9 -64.5t59 -17.5h65l-13 -72h-78zM301 553l7 40q26 0 38.5 9.5t16.5 28.5l3 21h-48l15 83h88q1 -26 0.5 -45t-4.5 -39q-9 -52 -39 -75t-77 -23z" />
    <glyph glyph-name="Utilde" unicode="&#x168;" horiz-adv-x="656" 
d="M282 -12q-82 0 -134.5 32.5t-72.5 93.5t-5 144l79 442h84l-79 -442q-10 -60 1.5 -103.5t46 -67t94.5 -23.5q53 0 95.5 20t72 63t41.5 111l79 442h84l-78 -442q-16 -93 -61.5 -152.5t-109.5 -88.5t-137 -29zM275 769q16 50 46 75.5t67 25.5q27 0 42 -11.5t29 -23.5t36 -12
q16 0 30 11.5t21 33.5h49q-15 -49 -45.5 -75t-68.5 -26q-27 0 -43 12t-29.5 23.5t-34.5 11.5q-17 0 -30 -11t-20 -34h-49z" />
    <glyph glyph-name="utilde" unicode="&#x169;" horiz-adv-x="574" 
d="M206 -12q-64 0 -102 29t-51 78.5t-2 110.5l52 290h84l-50 -281q-13 -73 11 -114t89 -41q42 0 78.5 20t63.5 58t38 92l47 266h84l-87 -496h-76l10 90v0q-31 -48 -81.5 -75t-107.5 -27zM191 555q16 50 46 75.5t67 25.5q27 0 42 -11.5t29 -23.5t36 -12q16 0 30 11.5t21 33.5
h49q-15 -49 -45.5 -75t-68.5 -26q-27 0 -43 12t-29.5 23.5t-34.5 11.5q-17 0 -30 -11t-20 -34h-49z" />
    <glyph glyph-name="Umacron" unicode="&#x16a;" horiz-adv-x="656" 
d="M282 -12q-82 0 -134.5 32.5t-72.5 93.5t-5 144l79 442h84l-79 -442q-10 -60 1.5 -103.5t46 -67t94.5 -23.5q53 0 95.5 20t72 63t41.5 111l79 442h84l-78 -442q-16 -93 -61.5 -152.5t-109.5 -88.5t-137 -29zM261 816l12 63h347l-10 -63h-349z" />
    <glyph glyph-name="umacron" unicode="&#x16b;" horiz-adv-x="574" 
d="M206 -12q-64 0 -102 29t-51 78.5t-2 110.5l52 290h84l-50 -281q-13 -73 11 -114t89 -41q42 0 78.5 20t63.5 58t38 92l47 266h84l-87 -496h-76l10 90v0q-31 -48 -81.5 -75t-107.5 -27zM174 592l12 63h347l-10 -63h-349z" />
    <glyph glyph-name="Ubreve" unicode="&#x16c;" horiz-adv-x="656" 
d="M282 -12q-82 0 -134.5 32.5t-72.5 93.5t-5 144l79 442h84l-79 -442q-10 -60 1.5 -103.5t46 -67t94.5 -23.5q53 0 95.5 20t72 63t41.5 111l79 442h84l-78 -442q-16 -93 -61.5 -152.5t-109.5 -88.5t-137 -29zM426 770q-45 0 -72.5 17.5t-38.5 47t-5 65.5l2 14h50
q-7 -37 10.5 -57.5t65.5 -20.5q47 0 72 20.5t32 57.5h51l-3 -15q-7 -36 -28.5 -65t-55 -46.5t-80.5 -17.5z" />
    <glyph glyph-name="ubreve" unicode="&#x16d;" horiz-adv-x="574" 
d="M206 -12q-64 0 -102 29t-51 78.5t-2 110.5l52 290h84l-50 -281q-13 -73 11 -114t89 -41q42 0 78.5 20t63.5 58t38 92l47 266h84l-87 -496h-76l10 90v0q-31 -48 -81.5 -75t-107.5 -27zM342 559q-45 0 -72.5 17.5t-38.5 47t-5 65.5l2 14h50q-7 -37 10.5 -57.5t65.5 -20.5
q47 0 72 20.5t32 57.5h51l-3 -15q-7 -36 -28.5 -65t-55 -46.5t-80.5 -17.5z" />
    <glyph glyph-name="Uring" unicode="&#x16e;" horiz-adv-x="656" 
d="M282 -12q-82 0 -134.5 32.5t-72.5 93.5t-5 144l79 442h84l-79 -442q-10 -60 1.5 -103.5t46 -67t94.5 -23.5q53 0 95.5 20t72 63t41.5 111l79 442h84l-78 -442q-16 -93 -61.5 -152.5t-109.5 -88.5t-137 -29zM445 770q-43 0 -74 27.5t-31 75.5t31 75.5t74 27.5
q44 0 74.5 -27.5t30.5 -75.5t-30.5 -75.5t-74.5 -27.5zM445 813q24 0 40.5 16.5t16.5 43.5q0 28 -16.5 43.5t-40.5 15.5q-23 0 -40 -15.5t-17 -43.5q0 -27 17 -43.5t40 -16.5z" />
    <glyph glyph-name="uring" unicode="&#x16f;" horiz-adv-x="574" 
d="M206 -12q-64 0 -102 29t-51 78.5t-2 110.5l52 290h84l-50 -281q-13 -73 11 -114t89 -41q42 0 78.5 20t63.5 58t38 92l47 266h84l-87 -496h-76l10 90v0q-31 -48 -81.5 -75t-107.5 -27zM361 557q-43 0 -74 27.5t-31 75.5t31 75.5t74 27.5q44 0 74.5 -27.5t30.5 -75.5
t-30.5 -75.5t-74.5 -27.5zM361 600q24 0 40.5 16.5t16.5 43.5q0 28 -16.5 43.5t-40.5 15.5q-23 0 -40 -15.5t-17 -43.5q0 -27 17 -43.5t40 -16.5z" />
    <glyph glyph-name="Uhungarumlaut" unicode="&#x170;" horiz-adv-x="656" 
d="M282 -12q-82 0 -134.5 32.5t-72.5 93.5t-5 144l79 442h84l-79 -442q-10 -60 1.5 -103.5t46 -67t94.5 -23.5q53 0 95.5 20t72 63t41.5 111l79 442h84l-78 -442q-16 -93 -61.5 -152.5t-109.5 -88.5t-137 -29zM422 760l105 149h73l-121 -149h-57zM276 760l93 149h73
l-110 -149h-56z" />
    <glyph glyph-name="uhungarumlaut" unicode="&#x171;" horiz-adv-x="574" 
d="M206 -12q-64 0 -102 29t-51 78.5t-2 110.5l52 290h84l-50 -281q-13 -73 11 -114t89 -41q42 0 78.5 20t63.5 58t38 92l47 266h84l-87 -496h-76l10 90v0q-31 -48 -81.5 -75t-107.5 -27zM338 549l105 149h73l-121 -149h-57zM192 549l93 149h73l-110 -149h-56z" />
    <glyph glyph-name="Uogonek" unicode="&#x172;" horiz-adv-x="656" 
d="M282 -12q-82 0 -134.5 32.5t-72.5 93.5t-5 144l79 442h84l-79 -442q-10 -60 1.5 -103.5t46 -67t94.5 -23.5q53 0 95.5 20t72 63t41.5 111l79 442h84l-78 -442q-16 -93 -61.5 -152.5t-109.5 -88.5t-137 -29zM293 -193q-30 0 -55.5 9.5t-38.5 30.5t-7 55q5 24 19.5 46
t43.5 43t75 39l57 23l14 -43l-62 -28q-39 -17 -56 -35t-21 -37q-4 -23 10 -36t41 -13q14 0 31.5 4t36.5 11l-10 -56q-18 -6 -38 -9.5t-40 -3.5z" />
    <glyph glyph-name="uogonek" unicode="&#x173;" horiz-adv-x="574" 
d="M206 -12q-64 0 -102 29t-51 78.5t-2 110.5l52 290h84l-50 -281q-13 -73 11 -114t89 -41q42 0 78.5 20t63.5 58t38 92l47 266h84l-87 -496h-76l10 90v0q-31 -48 -81.5 -75t-107.5 -27zM353 -203q-30 0 -55.5 9.5t-38.5 30.5t-7 55q5 24 19.5 46t43.5 43t75 39l57 23
l14 -43l-62 -28q-39 -17 -56 -35t-21 -37q-4 -23 10 -36t41 -13q14 0 31.5 4t36.5 11l-10 -56q-18 -6 -38 -9.5t-40 -3.5z" />
    <glyph glyph-name="Wcircumflex" unicode="&#x174;" horiz-adv-x="967" 
d="M174 -1l-68 701h91l45 -596v0l277 596h94l60 -597v0l258 597h91l-320 -700h-96l-65 576v0l-272 -576zM445 760l12 65l152 82l122 -82l-12 -65l-122 84z" />
    <glyph glyph-name="wcircumflex" unicode="&#x175;" horiz-adv-x="754" 
d="M127 0l-59 496h85l39 -427l-21 1l203 426h95l52 -426l-21 -1l190 427h84l-232 -496h-86l-54 446h22l-212 -446h-85zM294 554l12 65l152 82l122 -82l-12 -65l-122 84z" />
    <glyph glyph-name="Ycircumflex" unicode="&#x176;" horiz-adv-x="580" 
d="M205 0l47 266l-152 434h96l112 -354v0l238 354h94l-304 -434l-47 -266h-84zM251 760l12 65l152 82l122 -82l-12 -65l-122 84z" />
    <glyph glyph-name="ycircumflex" unicode="&#x177;" horiz-adv-x="557" 
d="M42 -220l169 268h-28l-119 448h89l99 -386v0l241 386h88l-451 -716h-88zM196 554l12 65l152 82l122 -82l-12 -65l-122 84z" />
    <glyph glyph-name="Ydieresis" unicode="&#x178;" horiz-adv-x="580" 
d="M205 0l47 266l-152 434h96l112 -354v0l238 354h94l-304 -434l-47 -266h-84zM319 775q-21 0 -35.5 14.5t-14.5 35.5q0 20 14.5 35t35.5 15t35.5 -15t14.5 -35q0 -21 -14.5 -35.5t-35.5 -14.5zM480 775q-22 0 -36 14.5t-14 35.5q0 20 14 35t36 15q20 0 34.5 -15t14.5 -35
q0 -21 -14.5 -35.5t-34.5 -14.5z" />
    <glyph glyph-name="Zacute" unicode="&#x179;" horiz-adv-x="535" 
d="M0 0l12 66l443 561h-340l14 73h437l-11 -66l-445 -561h350l-13 -73h-447zM258 753l10 63l233 127v0l-13 -73z" />
    <glyph glyph-name="zacute" unicode="&#x17a;" horiz-adv-x="459" 
d="M-9 0l13 69l348 357h-270l13 70h366l-13 -69l-349 -357h280l-13 -70h-375zM181 537l10 63l233 127v0l-13 -73z" />
    <glyph glyph-name="Zdotaccent" unicode="&#x17b;" horiz-adv-x="535" 
d="M0 0l12 66l443 561h-340l14 73h437l-11 -66l-445 -561h350l-13 -73h-447zM376 775q-21 0 -35.5 15t-14.5 35t14.5 35t34.5 15q21 0 35.5 -15t14.5 -35t-14.5 -35t-34.5 -15z" />
    <glyph glyph-name="zdotaccent" unicode="&#x17c;" horiz-adv-x="459" 
d="M-9 0l13 69l348 357h-270l13 70h366l-13 -69l-349 -357h280l-13 -70h-375zM299 562q-21 0 -35.5 15t-14.5 35t14.5 35t34.5 15q21 0 35.5 -15t14.5 -35t-14.5 -35t-34.5 -15z" />
    <glyph glyph-name="Zcaron" unicode="&#x17d;" horiz-adv-x="535" 
d="M0 0l12 66l443 561h-340l14 73h437l-11 -66l-445 -561h350l-13 -73h-447zM527 907l-12 -65l-152 -82l-122 82l12 65l122 -84z" />
    <glyph glyph-name="zcaron" unicode="&#x17e;" horiz-adv-x="459" 
d="M-9 0l13 69l348 357h-270l13 70h366l-13 -69l-349 -357h280l-13 -70h-375zM451 699l-12 -65l-152 -82l-122 82l12 65l122 -84z" />
    <glyph glyph-name="uni018F" unicode="&#x18f;" horiz-adv-x="754" 
d="M325 -12q-69 0 -122 21.5t-87.5 61.5t-50 94t-10.5 118q2 22 6 45t11 47h584l-12 -71h-500q-11 -75 8 -129t66 -82.5t118 -28.5q59 0 111 21t92 59t65 89.5t31 111.5l5 49q7 73 -16 127.5t-70 84.5t-114 30q-81 0 -150 -41.5t-103 -115.5h-96q32 71 86 123t124.5 81
t150.5 29q85 0 147.5 -35.5t97.5 -98.5t35 -144q0 -92 -29.5 -173t-83.5 -142.5t-128.5 -96t-165.5 -34.5z" />
    <glyph glyph-name="florin" unicode="&#x192;" horiz-adv-x="334" 
d="M-121 -191l20 70h22q29 0 47 14.5t28 52.5l184 650q26 89 86 129.5t158 40.5l-19 -71q-59 0 -93 -23t-48 -76l-183 -650q-13 -48 -36.5 -78.5t-58 -44.5t-81.5 -14h-26zM74 478l19 70h278l-19 -70h-278z" />
    <glyph glyph-name="AEacute" unicode="&#x1fc;" horiz-adv-x="911" 
d="M-14 0l523 700h425l-12 -67h-289l-44 -247h259l-11 -66h-259l-44 -253h288l-12 -67h-373l112 631v0l-471 -631h-92zM150 159l47 67h318l-12 -67h-353zM507 753l10 63l233 127v0l-13 -73z" />
    <glyph glyph-name="aeacute" unicode="&#x1fd;" horiz-adv-x="930" 
d="M191 -12q-55 0 -91.5 17.5t-54 47t-17.5 65.5q0 55 30.5 95.5t84 63t123.5 22.5h150q8 44 -0.5 75t-33 47t-65.5 16q-49 0 -89.5 -24.5t-57.5 -71.5h-86q15 54 53 91t89 56.5t103 19.5q44 0 76.5 -10.5t54 -30.5t32.5 -49q40 42 93.5 66t115.5 24q64 0 107.5 -25.5
t66 -68.5t22.5 -95q0 -13 -3 -32.5t-6 -36t-4 -21.5h-395q-9 -45 4.5 -83.5t46.5 -62.5t80 -24q56 0 98 28t66 76h82q-21 -50 -58.5 -89.5t-88 -62.5t-112.5 -23q-68 0 -117 32.5t-70 88.5q-23 -33 -57.5 -60.5t-78 -44t-93.5 -16.5zM212 59q45 0 83 21t65.5 55.5t38.5 73.5
l4 25h-142q-43 0 -75.5 -12t-50.5 -35t-18 -56q0 -21 11 -37.5t32.5 -25.5t51.5 -9zM501 294h312q6 46 -9 77.5t-45 48.5t-72 17q-40 0 -78 -16t-66.5 -48t-41.5 -79zM412 537l10 63l233 127v0l-13 -73z" />
    <glyph glyph-name="uni0218" unicode="&#x218;" horiz-adv-x="581" 
d="M263 -12q-74 0 -128.5 25.5t-81 75t-16.5 121.5h88q-10 -44 7 -78t54 -53.5t86 -19.5q54 0 90.5 17.5t55 49.5t18.5 75q0 27 -11 46t-30 32.5t-43.5 23.5t-52.5 19.5t-56 19.5q-66 24 -98.5 65.5t-32.5 94.5q0 63 31 110t87 73.5t130 26.5q65 0 113 -24.5t71.5 -68.5
t12.5 -101h-87q6 35 -8.5 62.5t-44 43.5t-69.5 16q-44 0 -77.5 -16t-51.5 -44t-18 -65q0 -23 9 -39.5t25.5 -29t39 -23t49.5 -19.5t57 -20q31 -11 57.5 -27t46 -37t30.5 -48t11 -61q0 -67 -33 -117t-92 -78t-138 -28zM156 -238l7 40q25 0 38.5 14.5t18.5 42.5l2 14h-45
l14 77h86q1 -20 -0.5 -39t-3.5 -35q-11 -60 -41 -87t-76 -27z" />
    <glyph glyph-name="uni0219" unicode="&#x219;" horiz-adv-x="503" 
d="M217 -12q-62 0 -106 21.5t-66 61t-18 93.5h85q-1 -28 10 -52t37.5 -38.5t69.5 -14.5q36 0 62 11t40.5 30.5t14.5 47.5q0 22 -13 35.5t-37.5 22.5t-57.5 15q-27 6 -54.5 15.5t-50 24.5t-36 37t-13.5 52q0 45 26 80.5t71.5 56.5t103.5 21q79 0 126.5 -39.5t43.5 -112.5h-84
q2 38 -23 59.5t-72 21.5q-46 0 -75.5 -21.5t-29.5 -52.5q0 -20 13 -33.5t36.5 -22t55.5 -15.5q31 -7 59 -17t50.5 -25t35.5 -37t13 -54q0 -52 -28 -90.5t-77 -59.5t-112 -21zM125 -238l7 40q25 0 38.5 14.5t18.5 42.5l2 14h-45l14 77h86q1 -20 -0.5 -39t-3.5 -35
q-11 -60 -41 -87t-76 -27z" />
    <glyph glyph-name="uni021A" unicode="&#x21a;" horiz-adv-x="559" 
d="M194 0l111 633h-208l12 67h501l-12 -67h-209l-111 -633h-84zM146 -238l7 40q25 0 38.5 14.5t18.5 42.5l2 14h-45l14 77h86q1 -20 -0.5 -39t-3.5 -35q-11 -60 -41 -87t-76 -27z" />
    <glyph glyph-name="uni021B" unicode="&#x21b;" horiz-adv-x="379" 
d="M219 0q-52 0 -83.5 16.5t-41.5 51t-1 86.5l48 271h-77l13 71h77l32 119h74l-22 -119h147l-13 -71h-146l-49 -271q-8 -47 9 -64.5t59 -17.5h65l-13 -72h-78zM93 -238l7 40q25 0 38.5 14.5t18.5 42.5l2 14h-45l14 77h86q1 -20 -0.5 -39t-3.5 -35q-11 -60 -41 -87t-76 -27z
" />
    <glyph glyph-name="uni0237" unicode="&#x237;" horiz-adv-x="233" 
d="M-111 -220l13 72h38q38 0 57 15.5t25 52.5l102 576h84l-102 -578q-8 -48 -29.5 -78.5t-55.5 -45t-81 -14.5h-51z" />
    <glyph glyph-name="uni0259" unicode="&#x259;" horiz-adv-x="571" 
d="M323 508q62 0 107.5 -26t70.5 -73t25 -111q0 -65 -22 -121t-61.5 -98.5t-93 -66.5t-117.5 -24q-65 0 -109.5 25.5t-67 68.5t-22.5 95q0 20 4.5 45.5t8.5 44.5h414l-11 -65h-332q-5 -45 9.5 -77t45 -49t71.5 -17q44 0 83.5 19t68.5 56t39 91l5 28q10 54 -2.5 95.5t-45 65
t-81.5 23.5q-52 0 -91 -24t-62 -65h-83q21 46 57 82t85 57t107 21z" />
    <glyph glyph-name="circumflex" unicode="&#x2c6;" horiz-adv-x="275" 
d="M54 554l12 65l152 82l122 -82l-12 -65l-122 84z" />
    <glyph glyph-name="caron" unicode="&#x2c7;" horiz-adv-x="274" 
d="M354 699l-12 -65l-152 -82l-122 82l12 65l122 -84z" />
    <glyph glyph-name="breve" unicode="&#x2d8;" horiz-adv-x="281" 
d="M194 559q-45 0 -72.5 17.5t-38.5 47t-5 65.5l2 14h50q-7 -37 10.5 -57.5t65.5 -20.5q47 0 72 20.5t32 57.5h51l-3 -15q-7 -36 -28.5 -65t-55 -46.5t-80.5 -17.5z" />
    <glyph glyph-name="dotaccent" unicode="&#x2d9;" horiz-adv-x="101" 
d="M115 562q-21 0 -35.5 15t-14.5 35t14.5 35t34.5 15q21 0 35.5 -15t14.5 -35t-14.5 -35t-34.5 -15z" />
    <glyph glyph-name="ring" unicode="&#x2da;" horiz-adv-x="214" 
d="M180 557q-43 0 -74 27.5t-31 75.5t31 75.5t74 27.5q44 0 74.5 -27.5t30.5 -75.5t-30.5 -75.5t-74.5 -27.5zM180 600q24 0 40.5 16.5t16.5 43.5q0 28 -16.5 43.5t-40.5 15.5q-23 0 -40 -15.5t-17 -43.5q0 -27 17 -43.5t40 -16.5z" />
    <glyph glyph-name="ogonek" unicode="&#x2db;" horiz-adv-x="193" 
d="M38 -203q-30 0 -55.5 9.5t-38.5 30.5t-7 55q5 24 19.5 46t43.5 43t75 39l57 23l14 -43l-62 -28q-39 -17 -56 -35t-21 -37q-4 -23 10 -36t41 -13q14 0 31.5 4t36.5 11l-10 -56q-18 -6 -38 -9.5t-40 -3.5z" />
    <glyph glyph-name="tilde" unicode="&#x2dc;" horiz-adv-x="302" 
d="M54 555q16 50 46 75.5t67 25.5q27 0 42 -11.5t29 -23.5t36 -12q16 0 30 11.5t21 33.5h49q-15 -49 -45.5 -75t-68.5 -26q-27 0 -43 12t-29.5 23.5t-34.5 11.5q-17 0 -30 -11t-20 -34h-49z" />
    <glyph glyph-name="hungarumlaut" unicode="&#x2dd;" horiz-adv-x="298" 
d="M199 549l105 149h73l-121 -149h-57zM53 549l93 149h73l-110 -149h-56z" />
    <glyph glyph-name="gravecomb" unicode="&#x300;" 
d="M261 537l-189 117l12 73v0l188 -127z" />
    <glyph glyph-name="acutecomb" unicode="&#x301;" 
d="M52 537l10 63l233 127v0l-13 -73z" />
    <glyph glyph-name="uni0302" unicode="&#x302;" 
d="M54 554l12 65l152 82l122 -82l-12 -65l-122 84z" />
    <glyph glyph-name="tildecomb" unicode="&#x303;" 
d="M54 555q16 50 46 75.5t67 25.5q27 0 42 -11.5t29 -23.5t36 -12q16 0 30 11.5t21 33.5h49q-15 -49 -45.5 -75t-68.5 -26q-27 0 -43 12t-29.5 23.5t-34.5 11.5q-17 0 -30 -11t-20 -34h-49z" />
    <glyph glyph-name="uni0304" unicode="&#x304;" 
d="M61 592l12 63h347l-10 -63h-349z" />
    <glyph glyph-name="uni0306" unicode="&#x306;" 
d="M194 559q-45 0 -72.5 17.5t-38.5 47t-5 65.5l2 14h50q-7 -37 10.5 -57.5t65.5 -20.5q47 0 72 20.5t32 57.5h51l-3 -15q-7 -36 -28.5 -65t-55 -46.5t-80.5 -17.5z" />
    <glyph glyph-name="uni0307" unicode="&#x307;" 
d="M115 562q-21 0 -35.5 15t-14.5 35t14.5 35t34.5 15q21 0 35.5 -15t14.5 -35t-14.5 -35t-34.5 -15z" />
    <glyph glyph-name="uni0308" unicode="&#x308;" 
d="M117 571q-21 0 -35.5 14.5t-14.5 35.5q0 20 14.5 35t35.5 15t35.5 -15t14.5 -35q0 -21 -14.5 -35.5t-35.5 -14.5zM278 571q-22 0 -36 14.5t-14 35.5q0 20 14 35t36 15q20 0 34.5 -15t14.5 -35q0 -21 -14.5 -35.5t-34.5 -14.5z" />
    <glyph glyph-name="uni030A" unicode="&#x30a;" 
d="M180 557q-43 0 -74 27.5t-31 75.5t31 75.5t74 27.5q44 0 74.5 -27.5t30.5 -75.5t-30.5 -75.5t-74.5 -27.5zM180 600q24 0 40.5 16.5t16.5 43.5q0 28 -16.5 43.5t-40.5 15.5q-23 0 -40 -15.5t-17 -43.5q0 -27 17 -43.5t40 -16.5z" />
    <glyph glyph-name="uni030B" unicode="&#x30b;" 
d="M199 549l105 149h73l-121 -149h-57zM53 549l93 149h73l-110 -149h-56z" />
    <glyph glyph-name="uni030C" unicode="&#x30c;" 
d="M354 699l-12 -65l-152 -82l-122 82l12 65l122 -84z" />
    <glyph glyph-name="uni0312" unicode="&#x312;" 
d="M186 740l-7 -40q-25 0 -38 -9.5t-17 -28.5l-3 -21h48l-15 -83h-88q-1 26 -0.5 45.5t4.5 38.5q9 52 39 75t77 23z" />
    <glyph glyph-name="uni0326" unicode="&#x326;" 
d="M-86 -238l7 40q25 0 38.5 14.5t18.5 42.5l2 14h-45l14 77h86q1 -20 -0.5 -39t-3.5 -35q-11 -60 -41 -87t-76 -27z" />
    <glyph glyph-name="uni0327" unicode="&#x327;" 
d="M-89 -259l9 53h92q38 0 57 13.5t19 38.5q0 22 -14 31.5t-45 9.5h-50l21 120h57l-13 -70q35 1 60.5 -8t39.5 -27.5t14 -48.5q0 -32 -18 -57.5t-48.5 -40t-69.5 -14.5h-111z" />
    <glyph glyph-name="uni0328" unicode="&#x328;" 
d="M38 -203q-30 0 -55.5 9.5t-38.5 30.5t-7 55q5 24 19.5 46t43.5 43t75 39l57 23l14 -43l-62 -28q-39 -17 -56 -35t-21 -37q-4 -23 10 -36t41 -13q14 0 31.5 4t36.5 11l-10 -56q-18 -6 -38 -9.5t-40 -3.5z" />
    <glyph glyph-name="pi" unicode="&#x3c0;" horiz-adv-x="646" 
d="M81 0l77 430h-80l12 66h554l-12 -66h-79l-76 -430h-84l76 430h-227l-77 -430h-84z" />
    <glyph glyph-name="Wgrave" unicode="&#x1e80;" horiz-adv-x="967" 
d="M174 -1l-68 701h91l45 -596v0l277 596h94l60 -597v0l258 597h91l-320 -700h-96l-65 576v0l-272 -576zM681 753l-189 117l12 73v0l188 -127z" />
    <glyph glyph-name="wgrave" unicode="&#x1e81;" horiz-adv-x="754" 
d="M127 0l-59 496h85l39 -427l-21 1l203 426h95l52 -426l-21 -1l190 427h84l-232 -496h-86l-54 446h22l-212 -446h-85zM533 537l-189 117l12 73v0l188 -127z" />
    <glyph glyph-name="Wacute" unicode="&#x1e82;" horiz-adv-x="967" 
d="M174 -1l-68 701h91l45 -596v0l277 596h94l60 -597v0l258 597h91l-320 -700h-96l-65 576v0l-272 -576zM475 753l10 63l233 127v0l-13 -73z" />
    <glyph glyph-name="wacute" unicode="&#x1e83;" horiz-adv-x="754" 
d="M127 0l-59 496h85l39 -427l-21 1l203 426h95l52 -426l-21 -1l190 427h84l-232 -496h-86l-54 446h22l-212 -446h-85zM324 537l10 63l233 127v0l-13 -73z" />
    <glyph glyph-name="Wdieresis" unicode="&#x1e84;" horiz-adv-x="967" 
d="M174 -1l-68 701h91l45 -596v0l277 596h94l60 -597v0l258 597h91l-320 -700h-96l-65 576v0l-272 -576zM513 775q-21 0 -35.5 14.5t-14.5 35.5q0 20 14.5 35t35.5 15t35.5 -15t14.5 -35q0 -21 -14.5 -35.5t-35.5 -14.5zM674 775q-22 0 -36 14.5t-14 35.5q0 20 14 35t36 15
q20 0 34.5 -15t14.5 -35q0 -21 -14.5 -35.5t-34.5 -14.5z" />
    <glyph glyph-name="wdieresis" unicode="&#x1e85;" horiz-adv-x="754" 
d="M127 0l-59 496h85l39 -427l-21 1l203 426h95l52 -426l-21 -1l190 427h84l-232 -496h-86l-54 446h22l-212 -446h-85zM363 571q-21 0 -35.5 14.5t-14.5 35.5q0 20 14.5 35t35.5 15t35.5 -15t14.5 -35q0 -21 -14.5 -35.5t-35.5 -14.5zM524 571q-22 0 -36 14.5t-14 35.5
q0 20 14 35t36 15q20 0 34.5 -15t14.5 -35q0 -21 -14.5 -35.5t-34.5 -14.5z" />
    <glyph glyph-name="uni1E9E" unicode="&#x1e9e;" horiz-adv-x="676" 
d="M388 -5q-103 0 -150.5 54t-29.5 159h83q-7 -40 -1.5 -72.5t30.5 -51.5t76 -19q44 0 73.5 20t47.5 53t25 71q14 77 -15.5 118.5t-102.5 41.5h-125l10 59l238 201h-251q-38 0 -57.5 -16t-26.5 -54l-98 -559h-84l99 562q9 48 30 78.5t55 45t80 14.5h369l-11 -64l-242 -203
h19q73 0 121 -25.5t67.5 -74.5t7.5 -118q-12 -67 -43 -116.5t-80 -76.5t-114 -27z" />
    <glyph glyph-name="uni1EBC" unicode="&#x1ebc;" horiz-adv-x="536" 
d="M31 0l123 700h405l-13 -67h-320l-43 -247h290l-11 -66h-291l-44 -253h320l-12 -67h-404zM211 769q16 50 46 75.5t67 25.5q27 0 42 -11.5t29 -23.5t36 -12q16 0 30 11.5t21 33.5h49q-15 -49 -45.5 -75t-68.5 -26q-27 0 -43 12t-29.5 23.5t-34.5 11.5q-17 0 -30 -11
t-20 -34h-49z" />
    <glyph glyph-name="uni1EBD" unicode="&#x1ebd;" horiz-adv-x="571" 
d="M248 -12q-61 0 -107 26t-71 73t-25 111q0 65 22 121t61.5 98.5t93 66.5t117.5 24q65 0 109.5 -25.5t67 -68.5t22.5 -95q0 -20 -4 -45.5t-9 -44.5h-414l11 65h332q6 46 -9 77.5t-45 48.5t-72 17q-43 0 -83 -19t-69 -55.5t-39 -91.5l-5 -28q-10 -53 2.5 -95t45 -65.5
t81.5 -23.5q52 0 91.5 24.5t61.5 64.5h83q-21 -46 -57 -82t-84.5 -57t-107.5 -21zM196 555q16 50 46 75.5t67 25.5q27 0 42 -11.5t29 -23.5t36 -12q16 0 30 11.5t21 33.5h49q-15 -49 -45.5 -75t-68.5 -26q-27 0 -43 12t-29.5 23.5t-34.5 11.5q-17 0 -30 -11t-20 -34h-49z
" />
    <glyph glyph-name="Ygrave" unicode="&#x1ef2;" horiz-adv-x="580" 
d="M205 0l47 266l-152 434h96l112 -354v0l238 354h94l-304 -434l-47 -266h-84zM487 753l-189 117l12 73v0l188 -127z" />
    <glyph glyph-name="ygrave" unicode="&#x1ef3;" horiz-adv-x="557" 
d="M42 -220l169 268h-28l-119 448h89l99 -386v0l241 386h88l-451 -716h-88zM435 537l-189 117l12 73v0l188 -127z" />
    <glyph glyph-name="uni1EF8" unicode="&#x1ef8;" horiz-adv-x="580" 
d="M205 0l47 266l-152 434h96l112 -354v0l238 354h94l-304 -434l-47 -266h-84zM237 769q16 50 46 75.5t67 25.5q27 0 42 -11.5t29 -23.5t36 -12q16 0 30 11.5t21 33.5h49q-15 -49 -45.5 -75t-68.5 -26q-27 0 -43 12t-29.5 23.5t-34.5 11.5q-17 0 -30 -11t-20 -34h-49z" />
    <glyph glyph-name="uni1EF9" unicode="&#x1ef9;" horiz-adv-x="557" 
d="M42 -220l169 268h-28l-119 448h89l99 -386v0l241 386h88l-451 -716h-88zM182 555q16 50 46 75.5t67 25.5q27 0 42 -11.5t29 -23.5t36 -12q16 0 30 11.5t21 33.5h49q-15 -49 -45.5 -75t-68.5 -26q-27 0 -43 12t-29.5 23.5t-34.5 11.5q-17 0 -30 -11t-20 -34h-49z" />
    <glyph glyph-name="endash" unicode="&#x2013;" horiz-adv-x="642" 
d="M74 255l12 71h524l-13 -71h-523z" />
    <glyph glyph-name="emdash" unicode="&#x2014;" horiz-adv-x="847" 
d="M74 255l12 71h728l-12 -71h-728z" />
    <glyph glyph-name="quoteleft" unicode="&#x2018;" horiz-adv-x="214" 
d="M84 477l131 223h60l-97 -223h-94z" />
    <glyph glyph-name="quoteright" unicode="&#x2019;" horiz-adv-x="214" 
d="M248 699l-131 -223h-60l97 223h94z" />
    <glyph glyph-name="quotesinglbase" unicode="&#x201a;" horiz-adv-x="185" 
d="M-63 -122l97 224h94l-131 -224h-60z" />
    <glyph glyph-name="quotedblleft" unicode="&#x201c;" horiz-adv-x="373" 
d="M243 477l131 223h60l-96 -223h-95zM84 477l131 223h60l-97 -223h-94z" />
    <glyph glyph-name="quotedblright" unicode="&#x201d;" horiz-adv-x="373" 
d="M248 699l-131 -223h-60l96 223h95zM407 699l-131 -223h-60l97 223h94z" />
    <glyph glyph-name="quotedblbase" unicode="&#x201e;" horiz-adv-x="354" 
d="M-63 -122l97 224h94l-131 -224h-60zM107 -122l96 224h94l-130 -224h-60z" />
    <glyph glyph-name="dagger" unicode="&#x2020;" horiz-adv-x="531" 
d="M133 -259l141 747l-192 -7l12 67l189 -8l34 240h83l-50 -240l192 8l-12 -67l-190 7l-123 -747h-84z" />
    <glyph glyph-name="daggerdbl" unicode="&#x2021;" horiz-adv-x="533" 
d="M135 -259l52 240l-193 -7l13 67l188 -8l81 455l-192 -7l12 67l189 -8l34 240h83l-50 -240l192 8l-12 -67l-189 7l-81 -455l193 8l-12 -67l-190 7l-35 -240h-83z" />
    <glyph glyph-name="bullet" unicode="&#x2022;" horiz-adv-x="363" 
d="M196 213q-33 0 -60 16t-43.5 43.5t-16.5 60.5q0 34 16.5 61.5t43.5 43.5t60 16q34 0 61.5 -16t43.5 -43.5t16 -61.5q0 -33 -16 -60.5t-43.5 -43.5t-61.5 -16z" />
    <glyph glyph-name="ellipsis" unicode="&#x2026;" horiz-adv-x="565" 
d="M248 -5q-25 0 -41.5 16.5t-16.5 40.5t16.5 40.5t41.5 16.5t41 -16.5t16 -40.5t-16 -40.5t-41 -16.5zM432 -5q-25 0 -41.5 16.5t-16.5 40.5t16.5 40.5t41.5 16.5t41 -16.5t16 -40.5t-16 -40.5t-41 -16.5zM64 -5q-25 0 -41.5 16.5t-16.5 40.5t16.5 40.5t41.5 16.5t41 -16.5
t16 -40.5t-16 -40.5t-41 -16.5z" />
    <glyph glyph-name="perthousand" unicode="&#x2030;" horiz-adv-x="1134" 
d="M891 -12q-40 0 -71 16.5t-48.5 48t-17.5 74.5q0 54 25.5 99t68.5 71.5t96 26.5q40 0 70.5 -16.5t48 -47.5t17.5 -74q0 -54 -25 -99t-68 -72t-96 -27zM899 51q31 0 56 17.5t40 47t15 63.5q0 42 -21.5 62.5t-52.5 20.5q-30 0 -55.5 -17.5t-40.5 -46.5t-15 -64
q0 -42 21.5 -62.5t52.5 -20.5zM96 0l530 700h83l-529 -700h-84zM532 -12q-40 0 -71 16.5t-48.5 48t-17.5 74.5q0 54 25.5 99t69 71.5t95.5 26.5q40 0 70.5 -16.5t48 -47.5t17.5 -74q0 -54 -25 -99t-68 -72t-96 -27zM227 375q-40 0 -71 17t-48.5 48t-17.5 74q0 54 25.5 98.5
t68.5 71.5t96 27q40 0 70.5 -16.5t48 -47.5t17.5 -75q0 -54 -25.5 -98.5t-68 -71.5t-95.5 -27zM541 51q30 0 55 17.5t40 47t15 63.5q0 42 -21 62.5t-53 20.5q-30 0 -55.5 -17.5t-40.5 -46.5t-15 -64q0 -42 22 -62.5t53 -20.5zM235 438q31 0 56 17.5t40 46.5t15 64
q0 42 -21.5 62.5t-53.5 20.5q-30 0 -55.5 -17.5t-40.5 -46.5t-15 -64q0 -42 22 -62.5t53 -20.5z" />
    <glyph glyph-name="guilsinglleft" unicode="&#x2039;" horiz-adv-x="275" 
d="M118 120l-66 175l128 175h83l-131 -175l70 -175h-84z" />
    <glyph glyph-name="guilsinglright" unicode="&#x203a;" horiz-adv-x="275" 
d="M173 470l66 -175l-128 -175h-83l131 175l-70 175h84z" />
    <glyph glyph-name="fraction" unicode="&#x2044;" horiz-adv-x="430" 
d="M-68 0l531 700h84l-531 -700h-84z" />
    <glyph glyph-name="uni2074" unicode="&#x2074;" horiz-adv-x="321" 
d="M211 352l12 66h-172l9 50l205 232h73l-40 -228h46l-10 -54h-45l-12 -66h-66zM129 472h108l27 156v0z" />
    <glyph glyph-name="uni20A8" unicode="&#x20a8;" horiz-adv-x="1047" 
d="M31 0l123 700h225q72 0 117 -24t66 -64t21 -88q0 -72 -35.5 -125t-98.5 -81.5t-145 -28.5h-138l-51 -289h-84zM409 0l-99 313h87l103 -313h-91zM178 355h136q83 0 133 41.5t50 119.5q0 47 -32 80t-104 33h-135zM761 -12q-62 0 -106 21.5t-66 61t-18 93.5h85
q-1 -28 10 -52t37.5 -38.5t69.5 -14.5q36 0 62 11t40.5 30.5t14.5 47.5q0 22 -13 35.5t-37.5 22.5t-57.5 15q-27 6 -54.5 15.5t-50 24.5t-36 37t-13.5 52q0 45 26 80.5t71.5 56.5t103.5 21q79 0 126.5 -39.5t43.5 -112.5h-84q2 38 -23 59.5t-72 21.5q-46 0 -75.5 -21.5
t-29.5 -52.5q0 -20 13 -33.5t36.5 -22t55.5 -15.5q31 -7 59 -17t50.5 -25t35.5 -37t13 -54q0 -52 -28 -90.5t-77 -59.5t-112 -21z" />
    <glyph glyph-name="Euro" unicode="&#x20ac;" horiz-adv-x="778" 
d="M21 239l11 62h432l-11 -62h-432zM49 392l11 63h432l-11 -63h-432zM395 -12q-89 0 -151.5 35t-95.5 98t-33 147q0 94 30.5 175t85.5 141.5t128.5 94t159.5 33.5q120 0 186 -57t69 -161h-95q-2 67 -45 105.5t-127 38.5q-65 0 -120.5 -27.5t-96.5 -77t-64 -115.5t-23 -143
q0 -67 24.5 -114.5t70 -73t109.5 -25.5q84 0 139.5 38t81.5 103h95q-26 -67 -72.5 -115.5t-111 -74t-144.5 -25.5z" />
    <glyph glyph-name="uni20B9" unicode="&#x20b9;" horiz-adv-x="639" 
d="M254 -10q-100 0 -141 55.5t-24 154.5l25 142q96 0 154.5 6.5t90.5 26t48 58.5t28 104l22 127h79l-23 -127q-12 -72 -34.5 -121t-60 -78.5t-95 -42t-141.5 -12.5l-14 -86q-12 -64 9.5 -102.5t87.5 -38.5q63 0 97.5 36t45.5 99h79q-19 -99 -79.5 -150t-153.5 -51zM91 464
l11 60h542l-11 -60h-542zM122 639l12 61h541l-11 -61h-542z" />
    <glyph glyph-name="uni20BA" unicode="&#x20ba;" horiz-adv-x="815" 
d="M314 -18q-37 0 -77.5 5t-82.5 15l124 701h85l-111 -635q20 -4 38.5 -6t37.5 -2q74 0 131 23.5t98 68.5t67.5 111t41.5 150h87q-25 -142 -80 -238t-143 -144.5t-216 -48.5zM27 206l10 60l448 106l-10 -60zM54 371l10 58l453 110l-11 -59z" />
    <glyph glyph-name="uni20BD" unicode="&#x20bd;" horiz-adv-x="625" 
d="M19 126l12 68h86l18 100h-86l11 69h87l60 337h220q72 0 117.5 -22t67.5 -61.5t22 -92.5q0 -69 -36 -120.5t-99 -80.5t-144 -29h-137l-17 -100h223l-12 -68h-223l-22 -126h-84l22 126h-86zM231 363h135q87 0 134 42.5t47 114.5q0 55 -31.5 84.5t-102.5 29.5h-135z" />
    <glyph glyph-name="uni2113" unicode="&#x2113;" horiz-adv-x="234" 
d="M13 -100l146 820h84l-146 -820h-84z" />
    <glyph glyph-name="trademark" unicode="&#x2122;" horiz-adv-x="772" 
d="M98 647l9 53h245l-9 -53h-90l-53 -299h-66l54 299h-90zM344 348l62 352h85l65 -274l166 274h80l-62 -352h-62l45 261l-159 -261h-48l-65 264l-47 -264h-60z" />
    <glyph glyph-name="uni2126" unicode="&#x2126;" horiz-adv-x="793" 
d="M16 0l12 66h196l-19 -17q-45 18 -78 58.5t-50.5 92.5t-17.5 106q0 86 33 160t91.5 129t134.5 86t162 31q65 0 119 -20.5t94 -58.5t61.5 -90.5t21.5 -117.5q0 -82 -31.5 -158t-88.5 -133.5t-135 -84.5l-11 17h196l-13 -66h-275l13 69q58 14 105.5 47t82 79.5t53 102.5
t18.5 114q0 51 -16 92.5t-46 71t-70.5 45t-90.5 15.5q-70 0 -129 -25.5t-102.5 -70.5t-67.5 -105t-24 -128q0 -57 20 -107t56 -84t84 -47l-12 -69h-276z" />
    <glyph glyph-name="estimated" unicode="&#x212e;" horiz-adv-x="764" 
d="M346 -7q-105 0 -175 43t-98.5 119t-9.5 175q14 77 47.5 144t85 117.5t118.5 79t147 28.5q73 0 130 -23.5t94.5 -66.5t51.5 -102.5t1 -131.5l-11 -61h-536l-31 -177q32 -43 78 -65t118 -22q51 0 96.5 15.5t90.5 44.5t92 69l32 -42q-73 -67 -154 -105.5t-167 -38.5z
M201 376h401l31 177q-24 43 -70 66t-112 23q-63 0 -119.5 -24t-101.5 -76z" />
    <glyph glyph-name="arrowleft" unicode="&#x2190;" horiz-adv-x="751" 
d="M741 302h-576l290 -273l-54 -55l-360 347v44l360 346l53 -54l-292 -276h579v-79z" />
    <glyph glyph-name="arrowup" unicode="&#x2191;" horiz-adv-x="817" 
d="M36 340l366 360h45l366 -360l-54 -54l-293 291v-577h-82v579l-294 -292z" />
    <glyph glyph-name="arrowright" unicode="&#x2192;" horiz-adv-x="750" 
d="M43 302v79h579l-292 276l53 54l360 -346v-44l-360 -347l-54 55l290 273h-576z" />
    <glyph glyph-name="arrowdown" unicode="&#x2193;" horiz-adv-x="817" 
d="M40 360l54 53l294 -292v579h82v-577l293 291l54 -54l-366 -360h-45z" />
    <glyph glyph-name="arrowboth" unicode="&#x2194;" horiz-adv-x="967" 
d="M41 321v44l337 346l57 -50l-277 -281h685l-277 281l57 50l337 -346v-44l-337 -347l-57 50l275 280h-681l275 -280l-57 -50z" />
    <glyph glyph-name="arrowupdn" unicode="&#x2195;" horiz-adv-x="836" 
d="M57 241l47 56l291 -193v492l-291 -193l-47 56l356 241h45l357 -241l-47 -56l-291 193v-492l291 193l47 -56l-357 -241h-45z" />
    <glyph glyph-name="uni2196" unicode="&#x2196;" horiz-adv-x="663" 
d="M564 61l-411 411v-416h-75v519l32 31h517v-75h-422l415 -414z" />
    <glyph glyph-name="uni2197" unicode="&#x2197;" horiz-adv-x="686" 
d="M148 73l-56 56l415 414h-422v75h517l32 -31v-519h-75v416z" />
    <glyph glyph-name="uni2198" unicode="&#x2198;" horiz-adv-x="663" 
d="M130 611l411 -411v416h75v-519l-32 -31h-517v75h422l-415 414z" />
    <glyph glyph-name="uni2199" unicode="&#x2199;" horiz-adv-x="686" 
d="M571 611l56 -56l-415 -414h422v-75h-517l-32 31v519h75v-416z" />
    <glyph glyph-name="partialdiff" unicode="&#x2202;" horiz-adv-x="566" 
d="M188 -10q-53 0 -93 25t-57.5 76t-3.5 130q12 66 41.5 126.5t73.5 107.5t97.5 74.5t113.5 27.5q32 0 58 -10t42 -34.5t18 -68.5q11 70 5 125.5t-35 87.5t-89 32q-19 0 -39 -3.5t-43 -9.5l9 50q26 8 50 11t47 3q74 0 119 -37.5t59 -110.5t-5 -179q-17 -98 -53 -176
t-85.5 -133.5t-108 -84.5t-121.5 -29zM210 62q42 0 80 21.5t69.5 58t53.5 84.5t31 100q15 82 -10.5 121t-81.5 39q-41 0 -78.5 -20t-68.5 -56.5t-53.5 -84.5t-32.5 -104q-9 -55 0.5 -90t33.5 -52t57 -17z" />
    <glyph glyph-name="uni2206" unicode="&#x2206;" horiz-adv-x="695" 
d="M-14 0l12 65l393 635h70l172 -635l-12 -65h-635zM83 65h465l-140 539z" />
    <glyph glyph-name="product" unicode="&#x220f;" horiz-adv-x="726" 
d="M74 0l111 634h-80l13 66h651l-12 -66h-80l-111 -634h-84l112 634h-325l-111 -634h-84z" />
    <glyph glyph-name="summation" unicode="&#x2211;" horiz-adv-x="450" 
d="M-11 -49l17 96l315 285l-217 272l17 96h390l-12 -65h-321l220 -275l-11 -65l-316 -279h319l-12 -65h-389z" />
    <glyph glyph-name="minus" unicode="&#x2212;" horiz-adv-x="550" 
d="M78 255l12 71h396l-12 -71h-396z" />
    <glyph glyph-name="uni2215" unicode="&#x2215;" horiz-adv-x="391" 
d="M-32 -95l402 859h83l-403 -859h-82z" />
    <glyph glyph-name="radical" unicode="&#x221a;" horiz-adv-x="712" 
d="M6 179l150 79l77 -200l574 807h60l-648 -909h-40l-85 215l-69 -36z" />
    <glyph glyph-name="infinity" unicode="&#x221e;" horiz-adv-x="706" 
d="M169 141q-55 0 -90.5 32.5t-35.5 91.5q0 49 23.5 87t63 60t87.5 22q43 0 72.5 -17t50 -43.5t37 -56t34 -56t40.5 -43.5t56 -17q42 0 71 27.5t29 70.5q0 35 -19 54.5t-54 19.5q-43 0 -85 -32.5t-71 -82.5l-35 29q19 37 49 70.5t70 55t87 21.5q57 0 93 -32.5t36 -90.5
q0 -48 -24.5 -86.5t-65 -61t-89.5 -22.5q-44 0 -74 17t-51 43.5t-38 56t-33.5 56t-38.5 43.5t-53 17q-41 0 -69 -29.5t-28 -69.5q0 -36 22.5 -54.5t53.5 -18.5q44 0 84 33t69 82l34 -29q-18 -36 -48.5 -70t-71 -55.5t-88.5 -21.5z" />
    <glyph glyph-name="integral" unicode="&#x222b;" horiz-adv-x="258" 
d="M-115 -191l19 70h21q28 0 42.5 14.5t24.5 52.5l240 836q14 48 37 77.5t56 42.5t75 13h23l-20 -71h-18q-25 0 -41.5 -13t-27.5 -49l-240 -836q-13 -48 -36 -78.5t-55.5 -44.5t-76.5 -14h-23z" />
    <glyph glyph-name="approxequal" unicode="&#x2248;" horiz-adv-x="550" 
d="M332 112q-28 0 -48.5 10t-36.5 23t-33 23t-39 10q-25 0 -46.5 -18t-32.5 -47h-63q17 48 41.5 79.5t54.5 46.5t65 15q29 0 49 -10t36.5 -23t33 -23t38.5 -10q26 0 47.5 18t31.5 48h63q-16 -48 -40.5 -79.5t-55 -47t-65.5 -15.5zM368 319q-28 0 -48.5 10t-36.5 23t-33 23
t-39 10q-25 0 -46.5 -18t-32.5 -47h-63q17 48 41.5 79.5t54.5 46.5t65 15q29 0 49 -10t36.5 -23t33 -23t38.5 -10q26 0 47.5 18t31.5 48h63q-16 -48 -40.5 -79.5t-55 -47t-65.5 -15.5z" />
    <glyph glyph-name="notequal" unicode="&#x2260;" horiz-adv-x="550" 
d="M87 85l292 413h75l-292 -413h-75zM97 359l12 72h398l-12 -72h-398zM60 151l12 72h399l-13 -72h-398z" />
    <glyph glyph-name="lessequal" unicode="&#x2264;" horiz-adv-x="550" 
d="M337 213l-212 192v0l280 193h109l-278 -192l211 -193h-110zM76 89l10 64h350l-12 -64h-348z" />
    <glyph glyph-name="greaterequal" unicode="&#x2265;" horiz-adv-x="550" 
d="M99 213l277 193l-210 192h109l212 -193v0l-280 -192h-108zM62 89l11 64h350l-12 -64h-349z" />
    <glyph glyph-name="lozenge" unicode="&#x25ca;" horiz-adv-x="553" 
d="M251 110l-196 240l283 239l196 -239zM266 195l182 155l-125 153l-182 -154z" />
    <glyph glyph-name="Q.ss06" horiz-adv-x="795" 
d="M570 -135l-147 174l83 27l174 -201h-110zM352 -12q-87 0 -152.5 38.5t-102.5 106t-37 153.5q0 89 32.5 166t90.5 135.5t133.5 91.5t160.5 33q87 0 152.5 -38t102.5 -105t37 -154q0 -89 -32.5 -166.5t-90.5 -136t-133 -91.5t-161 -33zM364 62q66 0 123.5 27t101 74.5
t68.5 111t25 136.5q0 70 -27.5 120.5t-76.5 78t-113 27.5q-66 0 -123.5 -26.5t-101.5 -74t-68.5 -110.5t-24.5 -135q0 -70 27.5 -121.5t76.5 -79.5t113 -28z" />
    <glyph glyph-name="i.loclTRK" horiz-adv-x="223" 
d="M26 0l87 496h84l-87 -496h-84zM175 562q-21 0 -35.5 15t-14.5 35t14.5 35t34.5 15q21 0 35.5 -15t14.5 -35t-14.5 -35t-34.5 -15z" />
    <glyph glyph-name="a.ss02" horiz-adv-x="622" 
d="M249 -12q-64 0 -109.5 29.5t-69.5 79.5t-24 110q0 66 21.5 121t60 95.5t90 62.5t110.5 22q66 0 108 -26t62 -69l21 83h78l-88 -496h-78l8 82v0q-19 -24 -46 -45.5t-62.5 -35t-81.5 -13.5zM273 61q57 0 101.5 31t70 83.5t25.5 115.5q0 44 -17 76t-48 50t-74 18
q-57 0 -101.5 -28.5t-70.5 -78.5t-26 -113q0 -44 17 -79t48.5 -55t74.5 -20z" />
    <glyph glyph-name="aacute.ss02" horiz-adv-x="622" 
d="M249 -12q-64 0 -109.5 29.5t-69.5 79.5t-24 110q0 66 21.5 121t60 95.5t90 62.5t110.5 22q66 0 108 -26t62 -69l21 83h78l-88 -496h-78l8 82v0q-19 -24 -46 -45.5t-62.5 -35t-81.5 -13.5zM273 61q57 0 101.5 31t70 83.5t25.5 115.5q0 44 -17 76t-48 50t-74 18
q-57 0 -101.5 -28.5t-70.5 -78.5t-26 -113q0 -44 17 -79t48.5 -55t74.5 -20zM254 537l10 63l233 127v0l-13 -73z" />
    <glyph glyph-name="abreve.ss02" horiz-adv-x="622" 
d="M249 -12q-64 0 -109.5 29.5t-69.5 79.5t-24 110q0 66 21.5 121t60 95.5t90 62.5t110.5 22q66 0 108 -26t62 -69l21 83h78l-88 -496h-78l8 82v0q-19 -24 -46 -45.5t-62.5 -35t-81.5 -13.5zM273 61q57 0 101.5 31t70 83.5t25.5 115.5q0 44 -17 76t-48 50t-74 18
q-57 0 -101.5 -28.5t-70.5 -78.5t-26 -113q0 -44 17 -79t48.5 -55t74.5 -20zM361 559q-45 0 -72.5 17.5t-38.5 47t-5 65.5l2 14h50q-7 -37 10.5 -57.5t65.5 -20.5q47 0 72 20.5t32 57.5h51l-3 -15q-7 -36 -28.5 -65t-55 -46.5t-80.5 -17.5z" />
    <glyph glyph-name="acircumflex.ss02" horiz-adv-x="622" 
d="M249 -12q-64 0 -109.5 29.5t-69.5 79.5t-24 110q0 66 21.5 121t60 95.5t90 62.5t110.5 22q66 0 108 -26t62 -69l21 83h78l-88 -496h-78l8 82v0q-19 -24 -46 -45.5t-62.5 -35t-81.5 -13.5zM273 61q57 0 101.5 31t70 83.5t25.5 115.5q0 44 -17 76t-48 50t-74 18
q-57 0 -101.5 -28.5t-70.5 -78.5t-26 -113q0 -44 17 -79t48.5 -55t74.5 -20zM224 554l12 65l152 82l122 -82l-12 -65l-122 84z" />
    <glyph glyph-name="adieresis.ss02" horiz-adv-x="622" 
d="M249 -12q-64 0 -109.5 29.5t-69.5 79.5t-24 110q0 66 21.5 121t60 95.5t90 62.5t110.5 22q66 0 108 -26t62 -69l21 83h78l-88 -496h-78l8 82v0q-19 -24 -46 -45.5t-62.5 -35t-81.5 -13.5zM273 61q57 0 101.5 31t70 83.5t25.5 115.5q0 44 -17 76t-48 50t-74 18
q-57 0 -101.5 -28.5t-70.5 -78.5t-26 -113q0 -44 17 -79t48.5 -55t74.5 -20zM293 571q-21 0 -35.5 14.5t-14.5 35.5q0 20 14.5 35t35.5 15t35.5 -15t14.5 -35q0 -21 -14.5 -35.5t-35.5 -14.5zM454 571q-22 0 -36 14.5t-14 35.5q0 20 14 35t36 15q20 0 34.5 -15t14.5 -35
q0 -21 -14.5 -35.5t-34.5 -14.5z" />
    <glyph glyph-name="agrave.ss02" horiz-adv-x="622" 
d="M249 -12q-64 0 -109.5 29.5t-69.5 79.5t-24 110q0 66 21.5 121t60 95.5t90 62.5t110.5 22q66 0 108 -26t62 -69l21 83h78l-88 -496h-78l8 82v0q-19 -24 -46 -45.5t-62.5 -35t-81.5 -13.5zM273 61q57 0 101.5 31t70 83.5t25.5 115.5q0 44 -17 76t-48 50t-74 18
q-57 0 -101.5 -28.5t-70.5 -78.5t-26 -113q0 -44 17 -79t48.5 -55t74.5 -20zM463 537l-189 117l12 73v0l188 -127z" />
    <glyph glyph-name="amacron.ss02" horiz-adv-x="622" 
d="M249 -12q-64 0 -109.5 29.5t-69.5 79.5t-24 110q0 66 21.5 121t60 95.5t90 62.5t110.5 22q66 0 108 -26t62 -69l21 83h78l-88 -496h-78l8 82v0q-19 -24 -46 -45.5t-62.5 -35t-81.5 -13.5zM273 61q57 0 101.5 31t70 83.5t25.5 115.5q0 44 -17 76t-48 50t-74 18
q-57 0 -101.5 -28.5t-70.5 -78.5t-26 -113q0 -44 17 -79t48.5 -55t74.5 -20zM193 592l12 63h347l-10 -63h-349z" />
    <glyph glyph-name="aogonek.ss02" horiz-adv-x="622" 
d="M249 -12q-64 0 -109.5 29.5t-69.5 79.5t-24 110q0 66 21.5 121t60 95.5t90 62.5t110.5 22q66 0 108 -26t62 -69l21 83h78l-88 -496h-78l8 82v0q-19 -24 -46 -45.5t-62.5 -35t-81.5 -13.5zM273 61q57 0 101.5 31t70 83.5t25.5 115.5q0 44 -17 76t-48 50t-74 18
q-57 0 -101.5 -28.5t-70.5 -78.5t-26 -113q0 -44 17 -79t48.5 -55t74.5 -20zM401 -203q-30 0 -55.5 9.5t-38.5 30.5t-7 55q5 24 19.5 46t43.5 43t75 39l57 23l14 -43l-62 -28q-39 -17 -56 -35t-21 -37q-4 -23 10 -36t41 -13q14 0 31.5 4t36.5 11l-10 -56q-18 -6 -38 -9.5
t-40 -3.5z" />
    <glyph glyph-name="aring.ss02" horiz-adv-x="622" 
d="M249 -12q-64 0 -109.5 29.5t-69.5 79.5t-24 110q0 66 21.5 121t60 95.5t90 62.5t110.5 22q66 0 108 -26t62 -69l21 83h78l-88 -496h-78l8 82v0q-19 -24 -46 -45.5t-62.5 -35t-81.5 -13.5zM273 61q57 0 101.5 31t70 83.5t25.5 115.5q0 44 -17 76t-48 50t-74 18
q-57 0 -101.5 -28.5t-70.5 -78.5t-26 -113q0 -44 17 -79t48.5 -55t74.5 -20zM380 557q-43 0 -74 27.5t-31 75.5t31 75.5t74 27.5q44 0 74.5 -27.5t30.5 -75.5t-30.5 -75.5t-74.5 -27.5zM380 600q24 0 40.5 16.5t16.5 43.5q0 28 -16.5 43.5t-40.5 15.5q-23 0 -40 -15.5
t-17 -43.5q0 -27 17 -43.5t40 -16.5z" />
    <glyph glyph-name="atilde.ss02" horiz-adv-x="622" 
d="M249 -12q-64 0 -109.5 29.5t-69.5 79.5t-24 110q0 66 21.5 121t60 95.5t90 62.5t110.5 22q66 0 108 -26t62 -69l21 83h78l-88 -496h-78l8 82v0q-19 -24 -46 -45.5t-62.5 -35t-81.5 -13.5zM273 61q57 0 101.5 31t70 83.5t25.5 115.5q0 44 -17 76t-48 50t-74 18
q-57 0 -101.5 -28.5t-70.5 -78.5t-26 -113q0 -44 17 -79t48.5 -55t74.5 -20zM210 555q16 50 46 75.5t67 25.5q27 0 42 -11.5t29 -23.5t36 -12q16 0 30 11.5t21 33.5h49q-15 -49 -45.5 -75t-68.5 -26q-27 0 -43 12t-29.5 23.5t-34.5 11.5q-17 0 -30 -11t-20 -34h-49z" />
    <glyph glyph-name="ae.ss02" horiz-adv-x="990" 
d="M249 -12q-64 0 -109.5 29.5t-69.5 79.5t-24 110q0 66 21.5 121t60 95.5t90 62.5t110.5 22q62 0 102.5 -23.5t62.5 -61.5l19 73h70l-10 -54q38 31 85 48.5t101 17.5q65 0 109.5 -25.5t67 -68.5t22.5 -95q0 -20 -4 -45.5t-9 -44.5h-395q-6 -50 7.5 -88.5t45 -60t78.5 -21.5
q52 0 91.5 24.5t61.5 64.5h83q-21 -46 -57 -82t-84.5 -57t-107.5 -21q-52 0 -94 19.5t-68 54.5l-11 -62h-70l10 77v0q-19 -23 -45.5 -43.5t-60.5 -33t-79 -12.5zM273 61q57 0 101.5 31t70 83.5t25.5 115.5q0 44 -17 76t-48 50t-74 18q-57 0 -101.5 -28.5t-70.5 -78.5
t-26 -113q0 -44 17 -79t48.5 -55t74.5 -20zM561 294h312q6 46 -9 77.5t-45 48.5t-72 17q-40 0 -78 -16t-66 -48t-42 -79z" />
    <glyph glyph-name="aeacute.ss02" horiz-adv-x="990" 
d="M249 -12q-64 0 -109.5 29.5t-69.5 79.5t-24 110q0 66 21.5 121t60 95.5t90 62.5t110.5 22q62 0 102.5 -23.5t62.5 -61.5l19 73h70l-10 -54q38 31 85 48.5t101 17.5q65 0 109.5 -25.5t67 -68.5t22.5 -95q0 -20 -4 -45.5t-9 -44.5h-395q-6 -50 7.5 -88.5t45 -60t78.5 -21.5
q52 0 91.5 24.5t61.5 64.5h83q-21 -46 -57 -82t-84.5 -57t-107.5 -21q-52 0 -94 19.5t-68 54.5l-11 -62h-70l10 77v0q-19 -23 -45.5 -43.5t-60.5 -33t-79 -12.5zM273 61q57 0 101.5 31t70 83.5t25.5 115.5q0 44 -17 76t-48 50t-74 18q-57 0 -101.5 -28.5t-70.5 -78.5
t-26 -113q0 -44 17 -79t48.5 -55t74.5 -20zM561 294h312q6 46 -9 77.5t-45 48.5t-72 17q-40 0 -78 -16t-66 -48t-42 -79zM443 537l10 63l233 127v0l-13 -73z" />
    <glyph glyph-name="g.ss03" horiz-adv-x="646" 
d="M238 -232q-48 0 -89 12.5t-71 37t-46.5 59.5t-16.5 80h83q3 -35 22.5 -61.5t52 -40.5t75.5 -14q49 0 91.5 21t73 63t41.5 103l12 72q-20 -28 -51 -53t-71.5 -41t-89.5 -16q-61 0 -108.5 28.5t-74 77.5t-26.5 110q0 62 22.5 116.5t62.5 96.5t93.5 65.5t116.5 23.5
q65 0 113.5 -29.5t67.5 -71.5v0l30 89h70l-84 -475q-10 -58 -36.5 -105t-66 -80t-89 -50.5t-107.5 -17.5zM280 63q58 0 106.5 31t77.5 82.5t29 112.5q0 45 -20 77.5t-54.5 50.5t-78.5 18q-62 0 -108.5 -30.5t-72.5 -80.5t-26 -111q0 -45 18.5 -78.5t51.5 -52.5t77 -19z" />
    <glyph glyph-name="gbreve.ss03" horiz-adv-x="646" 
d="M238 -232q-48 0 -89 12.5t-71 37t-46.5 59.5t-16.5 80h83q3 -35 22.5 -61.5t52 -40.5t75.5 -14q49 0 91.5 21t73 63t41.5 103l12 72q-20 -28 -51 -53t-71.5 -41t-89.5 -16q-61 0 -108.5 28.5t-74 77.5t-26.5 110q0 62 22.5 116.5t62.5 96.5t93.5 65.5t116.5 23.5
q65 0 113.5 -29.5t67.5 -71.5v0l30 89h70l-84 -475q-10 -58 -36.5 -105t-66 -80t-89 -50.5t-107.5 -17.5zM280 63q58 0 106.5 31t77.5 82.5t29 112.5q0 45 -20 77.5t-54.5 50.5t-78.5 18q-62 0 -108.5 -30.5t-72.5 -80.5t-26 -111q0 -45 18.5 -78.5t51.5 -52.5t77 -19z
M359 559q-45 0 -72.5 17.5t-38.5 47t-5 65.5l2 14h50q-7 -37 10.5 -57.5t65.5 -20.5q47 0 72 20.5t32 57.5h51l-3 -15q-7 -36 -28.5 -65t-55 -46.5t-80.5 -17.5z" />
    <glyph glyph-name="uni0123.ss03" horiz-adv-x="646" 
d="M238 -232q-48 0 -89 12.5t-71 37t-46.5 59.5t-16.5 80h83q3 -35 22.5 -61.5t52 -40.5t75.5 -14q49 0 91.5 21t73 63t41.5 103l12 72q-20 -28 -51 -53t-71.5 -41t-89.5 -16q-61 0 -108.5 28.5t-74 77.5t-26.5 110q0 62 22.5 116.5t62.5 96.5t93.5 65.5t116.5 23.5
q65 0 113.5 -29.5t67.5 -71.5v0l30 89h70l-84 -475q-10 -58 -36.5 -105t-66 -80t-89 -50.5t-107.5 -17.5zM280 63q58 0 106.5 31t77.5 82.5t29 112.5q0 45 -20 77.5t-54.5 50.5t-78.5 18q-62 0 -108.5 -30.5t-72.5 -80.5t-26 -111q0 -45 18.5 -78.5t51.5 -52.5t77 -19z
M441 740l-7 -40q-25 0 -38 -9.5t-17 -28.5l-3 -21h48l-15 -83h-88q-1 26 -0.5 45.5t4.5 38.5q9 52 39 75t77 23z" />
    <glyph glyph-name="gdotaccent.ss03" horiz-adv-x="646" 
d="M238 -232q-48 0 -89 12.5t-71 37t-46.5 59.5t-16.5 80h83q3 -35 22.5 -61.5t52 -40.5t75.5 -14q49 0 91.5 21t73 63t41.5 103l12 72q-20 -28 -51 -53t-71.5 -41t-89.5 -16q-61 0 -108.5 28.5t-74 77.5t-26.5 110q0 62 22.5 116.5t62.5 96.5t93.5 65.5t116.5 23.5
q65 0 113.5 -29.5t67.5 -71.5v0l30 89h70l-84 -475q-10 -58 -36.5 -105t-66 -80t-89 -50.5t-107.5 -17.5zM280 63q58 0 106.5 31t77.5 82.5t29 112.5q0 45 -20 77.5t-54.5 50.5t-78.5 18q-62 0 -108.5 -30.5t-72.5 -80.5t-26 -111q0 -45 18.5 -78.5t51.5 -52.5t77 -19z
M370 562q-21 0 -35.5 15t-14.5 35t14.5 35t34.5 15q21 0 35.5 -15t14.5 -35t-14.5 -35t-34.5 -15z" />
    <glyph glyph-name="u.ss04" horiz-adv-x="557" 
d="M233 -12q-104 0 -152.5 55t-28.5 169l50 284h84l-49 -275q-10 -53 -3 -89t34 -54t78 -18q46 0 79 18t54.5 54t30.5 89l49 275h84l-50 -284q-20 -114 -88 -169t-172 -55z" />
    <glyph glyph-name="uacute.ss04" horiz-adv-x="557" 
d="M233 -12q-104 0 -152.5 55t-28.5 169l50 284h84l-49 -275q-10 -53 -3 -89t34 -54t78 -18q46 0 79 18t54.5 54t30.5 89l49 275h84l-50 -284q-20 -114 -88 -169t-172 -55zM225 537l10 63l233 127v0l-13 -73z" />
    <glyph glyph-name="ubreve.ss04" horiz-adv-x="557" 
d="M233 -12q-104 0 -152.5 55t-28.5 169l50 284h84l-49 -275q-10 -53 -3 -89t34 -54t78 -18q46 0 79 18t54.5 54t30.5 89l49 275h84l-50 -284q-20 -114 -88 -169t-172 -55zM332 559q-45 0 -72.5 17.5t-38.5 47t-5 65.5l2 14h50q-7 -37 10.5 -57.5t65.5 -20.5q47 0 72 20.5
t32 57.5h51l-3 -15q-7 -36 -28.5 -65t-55 -46.5t-80.5 -17.5z" />
    <glyph glyph-name="ucircumflex.ss04" horiz-adv-x="557" 
d="M233 -12q-104 0 -152.5 55t-28.5 169l50 284h84l-49 -275q-10 -53 -3 -89t34 -54t78 -18q46 0 79 18t54.5 54t30.5 89l49 275h84l-50 -284q-20 -114 -88 -169t-172 -55zM195 554l12 65l152 82l122 -82l-12 -65l-122 84z" />
    <glyph glyph-name="udieresis.ss04" horiz-adv-x="557" 
d="M233 -12q-104 0 -152.5 55t-28.5 169l50 284h84l-49 -275q-10 -53 -3 -89t34 -54t78 -18q46 0 79 18t54.5 54t30.5 89l49 275h84l-50 -284q-20 -114 -88 -169t-172 -55zM264 571q-21 0 -35.5 14.5t-14.5 35.5q0 20 14.5 35t35.5 15t35.5 -15t14.5 -35q0 -21 -14.5 -35.5
t-35.5 -14.5zM425 571q-22 0 -36 14.5t-14 35.5q0 20 14 35t36 15q20 0 34.5 -15t14.5 -35q0 -21 -14.5 -35.5t-34.5 -14.5z" />
    <glyph glyph-name="ugrave.ss04" horiz-adv-x="557" 
d="M233 -12q-104 0 -152.5 55t-28.5 169l50 284h84l-49 -275q-10 -53 -3 -89t34 -54t78 -18q46 0 79 18t54.5 54t30.5 89l49 275h84l-50 -284q-20 -114 -88 -169t-172 -55zM434 537l-189 117l12 73v0l188 -127z" />
    <glyph glyph-name="uhungarumlaut.ss04" horiz-adv-x="557" 
d="M233 -12q-104 0 -152.5 55t-28.5 169l50 284h84l-49 -275q-10 -53 -3 -89t34 -54t78 -18q46 0 79 18t54.5 54t30.5 89l49 275h84l-50 -284q-20 -114 -88 -169t-172 -55zM328 549l105 149h73l-121 -149h-57zM182 549l93 149h73l-110 -149h-56z" />
    <glyph glyph-name="umacron.ss04" horiz-adv-x="557" 
d="M233 -12q-104 0 -152.5 55t-28.5 169l50 284h84l-49 -275q-10 -53 -3 -89t34 -54t78 -18q46 0 79 18t54.5 54t30.5 89l49 275h84l-50 -284q-20 -114 -88 -169t-172 -55zM164 592l12 63h347l-10 -63h-349z" />
    <glyph glyph-name="uogonek.ss04" horiz-adv-x="557" 
d="M233 -12q-104 0 -152.5 55t-28.5 169l50 284h84l-49 -275q-10 -53 -3 -89t34 -54t78 -18q46 0 79 18t54.5 54t30.5 89l49 275h84l-50 -284q-20 -114 -88 -169t-172 -55zM242 -193q-30 0 -55.5 9.5t-38.5 30.5t-7 55q5 24 19.5 46t43.5 43t75 39l57 23l14 -43l-62 -28
q-39 -17 -56 -35t-21 -37q-4 -23 10 -36t41 -13q14 0 31.5 4t36.5 11l-10 -56q-18 -6 -38 -9.5t-40 -3.5z" />
    <glyph glyph-name="uring.ss04" horiz-adv-x="557" 
d="M233 -12q-104 0 -152.5 55t-28.5 169l50 284h84l-49 -275q-10 -53 -3 -89t34 -54t78 -18q46 0 79 18t54.5 54t30.5 89l49 275h84l-50 -284q-20 -114 -88 -169t-172 -55zM351 557q-43 0 -74 27.5t-31 75.5t31 75.5t74 27.5q44 0 74.5 -27.5t30.5 -75.5t-30.5 -75.5
t-74.5 -27.5zM351 600q24 0 40.5 16.5t16.5 43.5q0 28 -16.5 43.5t-40.5 15.5q-23 0 -40 -15.5t-17 -43.5q0 -27 17 -43.5t40 -16.5z" />
    <glyph glyph-name="utilde.ss04" horiz-adv-x="557" 
d="M233 -12q-104 0 -152.5 55t-28.5 169l50 284h84l-49 -275q-10 -53 -3 -89t34 -54t78 -18q46 0 79 18t54.5 54t30.5 89l49 275h84l-50 -284q-20 -114 -88 -169t-172 -55zM181 555q16 50 46 75.5t67 25.5q27 0 42 -11.5t29 -23.5t36 -12q16 0 30 11.5t21 33.5h49
q-15 -49 -45.5 -75t-68.5 -26q-27 0 -43 12t-29.5 23.5t-34.5 11.5q-17 0 -30 -11t-20 -34h-49z" />
    <glyph glyph-name="y.ss05" horiz-adv-x="575" 
d="M195 -232q-46 0 -82.5 12t-61 34.5t-35.5 55t-7 74.5h82q-1 -35 12 -60t40 -38t65 -13q44 0 79 21t59.5 64.5t36.5 110.5l9 50v0q-31 -41 -79.5 -66t-109.5 -25q-57 0 -95.5 23.5t-54 72t-2.5 122.5l51 290h84l-49 -281q-10 -51 -1 -85.5t34.5 -52t66.5 -17.5q43 0 81 21
t65 61t37 97l45 257h84l-82 -467q-15 -84 -53 -142t-93.5 -88.5t-125.5 -30.5z" />
    <glyph glyph-name="yacute.ss05" horiz-adv-x="575" 
d="M195 -232q-46 0 -82.5 12t-61 34.5t-35.5 55t-7 74.5h82q-1 -35 12 -60t40 -38t65 -13q44 0 79 21t59.5 64.5t36.5 110.5l9 50v0q-31 -41 -79.5 -66t-109.5 -25q-57 0 -95.5 23.5t-54 72t-2.5 122.5l51 290h84l-49 -281q-10 -51 -1 -85.5t34.5 -52t66.5 -17.5q43 0 81 21
t65 61t37 97l45 257h84l-82 -467q-15 -84 -53 -142t-93.5 -88.5t-125.5 -30.5zM235 537l10 63l233 127v0l-13 -73z" />
    <glyph glyph-name="ycircumflex.ss05" horiz-adv-x="575" 
d="M195 -232q-46 0 -82.5 12t-61 34.5t-35.5 55t-7 74.5h82q-1 -35 12 -60t40 -38t65 -13q44 0 79 21t59.5 64.5t36.5 110.5l9 50v0q-31 -41 -79.5 -66t-109.5 -25q-57 0 -95.5 23.5t-54 72t-2.5 122.5l51 290h84l-49 -281q-10 -51 -1 -85.5t34.5 -52t66.5 -17.5q43 0 81 21
t65 61t37 97l45 257h84l-82 -467q-15 -84 -53 -142t-93.5 -88.5t-125.5 -30.5zM205 554l12 65l152 82l122 -82l-12 -65l-122 84z" />
    <glyph glyph-name="ydieresis.ss05" horiz-adv-x="575" 
d="M195 -232q-46 0 -82.5 12t-61 34.5t-35.5 55t-7 74.5h82q-1 -35 12 -60t40 -38t65 -13q44 0 79 21t59.5 64.5t36.5 110.5l9 50v0q-31 -41 -79.5 -66t-109.5 -25q-57 0 -95.5 23.5t-54 72t-2.5 122.5l51 290h84l-49 -281q-10 -51 -1 -85.5t34.5 -52t66.5 -17.5q43 0 81 21
t65 61t37 97l45 257h84l-82 -467q-15 -84 -53 -142t-93.5 -88.5t-125.5 -30.5zM274 571q-21 0 -35.5 14.5t-14.5 35.5q0 20 14.5 35t35.5 15t35.5 -15t14.5 -35q0 -21 -14.5 -35.5t-35.5 -14.5zM435 571q-22 0 -36 14.5t-14 35.5q0 20 14 35t36 15q20 0 34.5 -15t14.5 -35
q0 -21 -14.5 -35.5t-34.5 -14.5z" />
    <glyph glyph-name="ygrave.ss05" horiz-adv-x="575" 
d="M195 -232q-46 0 -82.5 12t-61 34.5t-35.5 55t-7 74.5h82q-1 -35 12 -60t40 -38t65 -13q44 0 79 21t59.5 64.5t36.5 110.5l9 50v0q-31 -41 -79.5 -66t-109.5 -25q-57 0 -95.5 23.5t-54 72t-2.5 122.5l51 290h84l-49 -281q-10 -51 -1 -85.5t34.5 -52t66.5 -17.5q43 0 81 21
t65 61t37 97l45 257h84l-82 -467q-15 -84 -53 -142t-93.5 -88.5t-125.5 -30.5zM444 537l-189 117l12 73v0l188 -127z" />
    <glyph glyph-name="uni1EF9.ss05" horiz-adv-x="575" 
d="M195 -232q-46 0 -82.5 12t-61 34.5t-35.5 55t-7 74.5h82q-1 -35 12 -60t40 -38t65 -13q44 0 79 21t59.5 64.5t36.5 110.5l9 50v0q-31 -41 -79.5 -66t-109.5 -25q-57 0 -95.5 23.5t-54 72t-2.5 122.5l51 290h84l-49 -281q-10 -51 -1 -85.5t34.5 -52t66.5 -17.5q43 0 81 21
t65 61t37 97l45 257h84l-82 -467q-15 -84 -53 -142t-93.5 -88.5t-125.5 -30.5zM191 555q16 50 46 75.5t67 25.5q27 0 42 -11.5t29 -23.5t36 -12q16 0 30 11.5t21 33.5h49q-15 -49 -45.5 -75t-68.5 -26q-27 0 -43 12t-29.5 23.5t-34.5 11.5q-17 0 -30 -11t-20 -34h-49z" />
    <glyph glyph-name="one.ss07" horiz-adv-x="353" 
d="M99 0l107 606l-117 -25l10 58l152 61h57l-124 -700h-85zM17 70h275l-13 -70h-275z" />
    <glyph glyph-name="three.ss07" horiz-adv-x="588" 
d="M248 -5q-71 0 -113 21t-62.5 54t-25.5 70t-2 68h79q-7 -61 25.5 -102t110.5 -41q56 0 98 24.5t65 67t23 96.5q0 57 -34 87.5t-98 30.5h-105l10 58l273 226l28 -28h-363l13 73h411l-12 -62l-277 -230l-42 24h79q93 0 144.5 -46.5t51.5 -127.5q0 -78 -35.5 -137t-98 -92.5
t-143.5 -33.5z" />
    <glyph glyph-name="four.ss07" horiz-adv-x="614" 
d="M337 0l29 165h-335l12 65l375 470h95l-376 -461h246l31 171l82 19l-34 -190h104l-13 -74h-104l-29 -165h-83z" />
    <glyph glyph-name="six.ss07" horiz-adv-x="594" 
d="M257 -2q-67 0 -115 25.5t-73.5 70t-25.5 100.5q0 45 12.5 84.5t31 73t38 58.5t32.5 41l221 259h99l-244 -281l2 21q17 10 35 15.5t37.5 8.5t38.5 3q62 0 106.5 -26.5t69 -71.5t24.5 -102q0 -81 -38.5 -144t-104 -99t-146.5 -36zM269 75q56 0 99.5 24.5t68.5 68t25 101.5
q0 39 -16 70.5t-46.5 50t-74.5 18.5q-56 0 -100.5 -27t-70.5 -72.5t-26 -103.5q0 -59 38.5 -94.5t102.5 -35.5z" />
    <glyph glyph-name="nine.ss07" horiz-adv-x="594" 
d="M154 0l244 282l-3 -22q-16 -9 -34.5 -15t-37.5 -9t-39 -3q-61 0 -105.5 26.5t-69 72t-24.5 101.5q0 82 38.5 144.5t104 98.5t146.5 36q67 0 115 -26t73.5 -71.5t25.5 -102.5q0 -44 -12.5 -83t-31.5 -72t-38 -57.5t-32 -40.5l-221 -259h-99zM306 302q56 0 100.5 27
t70 73.5t25.5 103.5q0 59 -38 94t-103 35q-55 0 -98.5 -24.5t-68.5 -68t-25 -101.5t36 -98.5t101 -40.5z" />
    <glyph glyph-name="one.dnom" horiz-adv-x="204" 
d="M51 0l51 286l-70 -18l7 42l98 42h43l-62 -352h-67z" />
    <glyph glyph-name="two.dnom" horiz-adv-x="330" 
d="M-9 0l8 48l129 92q32 23 56.5 48.5t30.5 59.5q5 29 -8 44t-36 15q-26 0 -44.5 -15.5t-26.5 -43.5h-67q11 46 49.5 78t100.5 32q38 0 63 -14.5t35.5 -38.5t4.5 -54q-7 -41 -37 -71.5t-83 -65.5l-91 -60h181l-10 -54h-255z" />
    <glyph glyph-name="three.dnom" horiz-adv-x="328" 
d="M116 -5q-61 0 -91 27.5t-25 79.5h66q0 -21 7 -33.5t20 -17.5t30 -5q30 0 50 14.5t24 39.5q5 27 -11.5 41.5t-46.5 14.5h-46l8 41h45q29 0 50 14t25 41q5 25 -9 39.5t-43 14.5t-47 -12.5t-28 -34.5h-63q12 42 51.5 70.5t100.5 28.5q55 0 86.5 -29t23.5 -73q-5 -31 -26 -51
t-52 -28l-1 -2q28 -9 43.5 -29.5t9.5 -53.5q-7 -40 -48 -68.5t-103 -28.5z" />
    <glyph glyph-name="four.dnom" horiz-adv-x="321" 
d="M149 0l12 66h-172l9 50l205 232h73l-40 -228h46l-10 -54h-45l-12 -66h-66zM67 120h108l27 156v0z" />
    <glyph glyph-name="one.numr" horiz-adv-x="204" 
d="M113 352l51 286l-70 -18l7 42l98 42h43l-62 -352h-67z" />
    <glyph glyph-name="two.numr" horiz-adv-x="330" 
d="M53 352l8 48l129 92q32 23 56.5 48.5t30.5 59.5q5 29 -8 44t-36 15q-26 0 -44.5 -15.5t-26.5 -43.5h-67q11 46 49.5 78t100.5 32q38 0 63 -14.5t35.5 -38.5t4.5 -54q-7 -41 -37 -71.5t-83 -65.5l-91 -60h181l-10 -54h-255z" />
    <glyph glyph-name="three.numr" horiz-adv-x="328" 
d="M178 347q-61 0 -91 27.5t-25 79.5h66q0 -21 7 -33.5t20 -17.5t30 -5q30 0 50 14.5t24 39.5q5 27 -11.5 41.5t-46.5 14.5h-46l8 41h45q29 0 50 14t25 41q5 25 -9 39.5t-43 14.5t-47 -12.5t-28 -34.5h-63q12 42 51.5 70.5t100.5 28.5q55 0 86.5 -29t23.5 -73
q-5 -31 -26 -51t-52 -28l-1 -2q28 -9 43.5 -29.5t9.5 -53.5q-7 -40 -48 -68.5t-103 -28.5z" />
    <glyph glyph-name="four.numr" horiz-adv-x="321" 
d="M211 352l12 66h-172l9 50l205 232h73l-40 -228h46l-10 -54h-45l-12 -66h-66zM129 472h108l27 156v0z" />
    <glyph glyph-name="comma.ss01" horiz-adv-x="173" 
d="M-26 -97l6 39q26 0 39.5 13.5t17.5 40.5l4 23h-48l15 83h88q2 -25 0 -48t-5 -42q-10 -57 -40 -83t-77 -26z" />
    <glyph glyph-name="semicolon.ss01" horiz-adv-x="194" 
d="M128 394q-25 0 -41.5 16.5t-16.5 40.5t16.5 40.5t41.5 16.5t41 -16.5t16 -40.5t-16 -40.5t-41 -16.5zM-13 -97l6 39q26 0 39.5 13.5t17.5 40.5l4 23h-48l15 83h88q2 -25 0 -48t-5 -42q-10 -57 -40 -83t-77 -26z" />
    <glyph glyph-name="quotesinglbase.ss01" horiz-adv-x="173" 
d="M-26 -97l6 39q26 0 39.5 13.5t17.5 40.5l4 23h-48l15 83h88q2 -25 0 -48t-5 -42q-10 -57 -40 -83t-77 -26z" />
    <glyph glyph-name="quotedblbase.ss01" horiz-adv-x="303" 
d="M104 -97l6 39q26 0 39.5 13.5t17.5 40.5l4 23h-48l15 83h88q2 -25 0 -48t-5 -42q-10 -57 -40 -83t-77 -26zM-26 -97l6 39q26 0 39.5 13.5t17.5 40.5l4 23h-48l15 83h88q2 -25 0 -48t-5 -42q-10 -57 -40 -83t-77 -26z" />
    <glyph glyph-name="quotedblleft.ss01" horiz-adv-x="291" 
d="M215 738l-6 -39q-25 0 -39 -13.5t-18 -40.5l-4 -23h48l-15 -83h-88q-1 26 0.5 48.5t4.5 41.5q10 57 40 83t77 26zM345 738l-6 -39q-25 0 -39 -13.5t-18 -40.5l-4 -23h48l-15 -83h-88q-1 26 0.5 48.5t4.5 41.5q10 57 40 83t77 26z" />
    <glyph glyph-name="quotedblright.ss01" horiz-adv-x="291" 
d="M214 539l6 39q26 0 39.5 13.5t17.5 40.5l4 23h-48l15 83h88q2 -25 0 -48t-5 -42q-10 -57 -40 -83t-77 -26zM84 539l6 39q26 0 39.5 13.5t17.5 40.5l4 23h-48l15 83h88q2 -25 0 -48t-5 -42q-10 -57 -40 -83t-77 -26z" />
    <glyph glyph-name="quoteleft.ss01" horiz-adv-x="161" 
d="M215 738l-6 -39q-25 0 -39 -13.5t-18 -40.5l-4 -23h48l-15 -83h-88q-1 26 0.5 48.5t4.5 41.5q10 57 40 83t77 26z" />
    <glyph glyph-name="quoteright.ss01" horiz-adv-x="161" 
d="M84 539l6 39q26 0 39.5 13.5t17.5 40.5l4 23h-48l15 83h88q2 -25 0 -48t-5 -42q-10 -57 -40 -83t-77 -26z" />
    <glyph glyph-name="quotedblleft.ss08" horiz-adv-x="776" 
d="M406 -12q75 0 140.5 28t115.5 78t78 115.5t28 140.5t-28 140.5t-78 115.5t-115.5 78t-140.5 28t-140.5 -28t-115.5 -78t-78 -115.5t-28 -140.5t28 -140.5t78 -115.5t115.5 -78t140.5 -28zM402 479l-8 -50q-33 0 -51.5 -17.5t-22.5 -52.5l-6 -30h63l-20 -108h-114
q-2 33 0.5 62.5t5.5 54.5q13 74 52 107.5t101 33.5zM571 479l-8 -50q-33 0 -51.5 -17.5t-22.5 -52.5l-6 -30h63l-20 -108h-114q-2 33 0.5 62.5t5.5 54.5q13 74 52 107.5t101 33.5z" />
    <glyph glyph-name="quotedblright.ss08" horiz-adv-x="776" 
d="M406 712q-75 0 -140.5 -28t-115.5 -78t-78 -115.5t-28 -140.5t28 -140.5t78 -115.5t115.5 -78t140.5 -28t140.5 28t115.5 78t78 115.5t28 140.5t-28 140.5t-78 115.5t-115.5 78t-140.5 28zM410 221l8 50q33 0 51.5 17.5t22.5 52.5l6 30h-63l20 108h114q2 -33 0 -62.5
t-6 -54.5q-13 -74 -52 -107.5t-101 -33.5zM242 221l7 50q33 0 51.5 17.5t22.5 52.5l6 30h-63l20 108h114q2 -33 -0.5 -62.5t-5.5 -54.5q-13 -74 -52 -107.5t-100 -33.5z" />
    <glyph glyph-name="arrowup.ss08" horiz-adv-x="776" 
d="M406 -12q-75 0 -140.5 28t-115.5 78t-78 115.5t-28 140.5t28 140.5t78 115.5t115.5 78t140.5 28t140.5 -28t115.5 -77.5t78 -115t28 -141.5q0 -75 -28 -140.5t-78 -115.5t-115.5 -78t-140.5 -28zM371 171h71v258l125 -123l46 46l-182 180h-49l-182 -180l46 -46l125 123
v-258z" />
    <glyph glyph-name="uni2197.ss08" horiz-adv-x="776" 
d="M406 -12q-75 0 -140.5 28t-115.5 78t-78 115.5t-28 140.5t28 140.5t78 115.5t115.5 78t140.5 28t140.5 -28t115.5 -77.5t78 -115.5t28 -141t-28 -140.5t-78 -115.5t-115.5 -78t-140.5 -28zM303 203l187 185v-181h65v256l-35 35h-256v-64h180l-188 -186z" />
    <glyph glyph-name="arrowright.ss08" horiz-adv-x="776" 
d="M406 -12q-75 0 -140.5 28t-115.5 78t-78 115.5t-28 140.5t28 140.5t78 115.5t115.5 78t140.5 28t140.5 -28t115.5 -77.5t78 -115.5t28 -141t-28 -140.5t-78 -115.5t-115.5 -78t-140.5 -28zM406 145l182 181v50l-182 180l-46 -46l128 -126h-264v-67h264l-128 -125z" />
    <glyph glyph-name="uni2198.ss08" horiz-adv-x="776" 
d="M406 712q75 0 140.5 -28t115.5 -78t78 -115.5t28 -140.5t-28 -141t-78 -115.5t-115.5 -77.5t-140.5 -28t-140.5 28t-115.5 78t-78 115.5t-28 140.5t28 140.5t78 115.5t115.5 78t140.5 28zM303 497l-47 -45l188 -186h-180v-64h256l35 35v256h-65v-181z" />
    <glyph glyph-name="arrowdown.ss08" horiz-adv-x="776" 
d="M406 712q75 0 140.5 -28t115.5 -78t78 -115.5t28 -140.5q0 -76 -28 -141.5t-78 -115t-115.5 -77.5t-140.5 -28t-140.5 28t-115.5 78t-78 115.5t-28 140.5t28 140.5t78 115.5t115.5 78t140.5 28zM371 529v-258l-125 123l-46 -46l182 -180h49l182 180l-46 46l-125 -123v258
h-71z" />
    <glyph glyph-name="uni2199.ss08" horiz-adv-x="776" 
d="M406 712q75 0 140.5 -28t115.5 -78t78 -115.5t28 -140.5t-28 -140.5t-78 -115.5t-115.5 -78t-140.5 -28t-140.5 28t-115.5 77.5t-78 115.5t-28 141t28 140.5t78 115.5t115.5 78t140.5 28zM509 497l-187 -185v181h-65v-256l35 -35h256v64h-180l188 186z" />
    <glyph glyph-name="arrowleft.ss08" horiz-adv-x="776" 
d="M406 -12q-75 0 -140.5 28t-115.5 78t-78 115.5t-28 140.5t28 141t78 115.5t115.5 77.5t140.5 28t140.5 -28t115.5 -78t78 -115.5t28 -140.5t-28 -140.5t-78 -115.5t-115.5 -78t-140.5 -28zM406 145l46 47l-128 125h264v67h-264l128 126l-46 46l-182 -180v-50z" />
    <glyph glyph-name="uni2196.ss08" horiz-adv-x="776" 
d="M406 -12q-75 0 -140.5 28t-115.5 78t-78 115.5t-28 140.5t28 141t78 115.5t115.5 77.5t140.5 28t140.5 -28t115.5 -78t78 -115.5t28 -140.5t-28 -140.5t-78 -115.5t-115.5 -78t-140.5 -28zM509 203l47 45l-188 186h180v64h-256l-35 -35v-256h65v181z" />
    <glyph glyph-name="arrowboth.ss08" horiz-adv-x="776" 
d="M406 -12q-75 0 -140.5 28t-115.5 78t-78 115.5t-28 140.5t28 140.5t78 115.5t115.5 78t140.5 28t140.5 -28t115.5 -77.5t78 -115.5t28 -141t-28 -140.5t-78 -115.5t-115.5 -78t-140.5 -28zM323 164l51 40l-92 113h249l-92 -113l51 -40l128 161v50l-128 161l-51 -40
l92 -113h-249l92 113l-51 40l-129 -161v-50z" />
    <glyph glyph-name="arrowupdn.ss08" horiz-adv-x="776" 
d="M406 -12q-75 0 -140.5 28t-115.5 78t-78 115.5t-28 140.5t28 140.5t78 115.5t115.5 78t140.5 28t140.5 -28t115.5 -78t78 -115.5t28 -140.5t-28 -140.5t-77.5 -115.5t-115.5 -78t-141 -28zM382 139h49l163 128l-40 51l-114 -91v246l114 -91l40 51l-163 128h-49l-163 -128
l40 -51l114 91v-246l-114 91l-40 -51z" />
    <glyph glyph-name="uni030C.alt" 
d="M52 543l7 40q26 0 38.5 9.5t16.5 28.5l3 21h-48l15 83h88q1 -26 0.5 -45t-4.5 -39q-9 -52 -39 -75t-77 -23z" />
    <glyph glyph-name="uni0308.case" 
d="M153 775q-21 0 -35.5 14.5t-14.5 35.5q0 20 14.5 35t35.5 15t35.5 -15t14.5 -35q0 -21 -14.5 -35.5t-35.5 -14.5zM314 775q-22 0 -36 14.5t-14 35.5q0 20 14 35t36 15q20 0 34.5 -15t14.5 -35q0 -21 -14.5 -35.5t-34.5 -14.5z" />
    <glyph glyph-name="uni0307.case" 
d="M153 775q-21 0 -35.5 15t-14.5 35t14.5 35t34.5 15q21 0 35.5 -15t14.5 -35t-14.5 -35t-34.5 -15z" />
    <glyph glyph-name="gravecomb.case" 
d="M299 753l-189 117l12 73v0l188 -127z" />
    <glyph glyph-name="acutecomb.case" 
d="M90 753l10 63l233 127v0l-13 -73z" />
    <glyph glyph-name="uni030B.case" 
d="M236 760l105 149h73l-121 -149h-57zM90 760l93 149h73l-110 -149h-56z" />
    <glyph glyph-name="uni0302.case" 
d="M90 760l12 65l152 82l122 -82l-12 -65l-122 84z" />
    <glyph glyph-name="uni030C.case" 
d="M391 907l-12 -65l-152 -82l-122 82l12 65l122 -84z" />
    <glyph glyph-name="uni0306.case" 
d="M231 770q-45 0 -72.5 17.5t-38.5 47t-5 65.5l2 14h50q-7 -37 10.5 -57.5t65.5 -20.5q47 0 72 20.5t32 57.5h51l-3 -15q-7 -36 -28.5 -65t-55 -46.5t-80.5 -17.5z" />
    <glyph glyph-name="uni030A.case" 
d="M218 770q-43 0 -74 27.5t-31 75.5t31 75.5t74 27.5q44 0 74.5 -27.5t30.5 -75.5t-30.5 -75.5t-74.5 -27.5zM218 813q24 0 40.5 16.5t16.5 43.5q0 28 -16.5 43.5t-40.5 15.5q-23 0 -40 -15.5t-17 -43.5q0 -27 17 -43.5t40 -16.5z" />
    <glyph glyph-name="tildecomb.case" 
d="M92 769q16 50 46 75.5t67 25.5q27 0 42 -11.5t29 -23.5t36 -12q16 0 30 11.5t21 33.5h49q-15 -49 -45.5 -75t-68.5 -26q-27 0 -43 12t-29.5 23.5t-34.5 11.5q-17 0 -30 -11t-20 -34h-49z" />
    <glyph glyph-name="uni0304.case" 
d="M100 816l12 63h347l-10 -63h-349z" />
    <glyph glyph-name="uni0327.case" 
d="M-89 -259l9 53h92q38 0 57 13.5t19 38.5q0 22 -14 31.5t-45 9.5h-50l21 120h57l-13 -70q35 1 60.5 -8t39.5 -27.5t14 -48.5q0 -32 -18 -57.5t-48.5 -40t-69.5 -14.5h-111z" />
    <glyph glyph-name="uni0328.case" 
d="M38 -203q-30 0 -55.5 9.5t-38.5 30.5t-7 55q5 24 19.5 46t43.5 43t75 39l57 23l14 -43l-62 -28q-39 -17 -56 -35t-21 -37q-4 -23 10 -36t41 -13q14 0 31.5 4t36.5 11l-10 -56q-18 -6 -38 -9.5t-40 -3.5z" />
    </font>
</defs>
</svg>
