<?xml version="1.0" standalone="no"?>
<!DOCTYPE svg PUBLIC "-//W3C//DTD SVG 1.1//EN" "http://www.w3.org/Graphics/SVG/1.1/DTD/svg11.dtd" >
<svg xmlns="http://www.w3.org/2000/svg" xmlns:xlink="http://www.w3.org/1999/xlink" version="1.1">
<metadata>
Created by FontForge 20201107 at Wed Jun 14 12:00:55 2023
 By 
Copyright 2014 The DM Sans Project Authors (https://github.com/googlefonts/dm-fonts)
</metadata>
<defs>
<font id="DMSans18pt-ExtraBoldItalic" horiz-adv-x="0" >
  <font-face 
    font-family="DM Sans 18pt ExtraBold"
    font-weight="800"
    font-style="italic"
    font-stretch="normal"
    units-per-em="1000"
    panose-1="0 0 0 0 0 0 0 0 0 0"
    ascent="800"
    descent="-200"
    x-height="501"
    cap-height="700"
    bbox="-143 -284 1244.05 999"
    underline-thickness="50"
    underline-position="-125"
    slope="-10"
    unicode-range="U+000D-FB02"
  />
<missing-glyph horiz-adv-x="536" 
d="M23 0l124 700h401l-124 -700h-401zM103 57h261l104 586h-261z" />
    <glyph glyph-name="fi" unicode="fi" horiz-adv-x="617" 
d="M44 0l68 384h-69l21 117h68l8 45q12 64 40.5 102t71 55t96.5 17h56l-22 -119h-34q-31 0 -46.5 -12.5t-21.5 -41.5l-8 -46h320l-89 -501h-140l69 384h-181l-67 -384h-140zM549 567q-38 0 -62 23t-24 56q0 34 24 57t62 23t62 -23t24 -57q0 -33 -24 -56t-62 -23z" />
    <glyph glyph-name="fl" unicode="fl" horiz-adv-x="643" 
d="M44 0l96 546q12 64 40.5 102t71 55t96.5 17h60l-21 -119h-39q-31 0 -46.5 -12.5t-21.5 -42.5l-96 -546h-140zM43 384l21 117h313l-20 -117h-314zM393 0l128 720h140l-128 -720h-140z" />
    <glyph glyph-name=".notdef" horiz-adv-x="536" 
d="M23 0l124 700h401l-124 -700h-401zM103 57h261l104 586h-261z" />
    <glyph glyph-name=".null" 
 />
    <glyph glyph-name="nonmarkingreturn" horiz-adv-x="333" 
 />
    <glyph glyph-name="CR" unicode="&#xd;" horiz-adv-x="600" 
 />
    <glyph glyph-name="space" unicode=" " horiz-adv-x="249" 
 />
    <glyph glyph-name="exclam" unicode="!" horiz-adv-x="315" 
d="M85 229l67 471h150l-99 -471h-118zM124 -7q-37 0 -61 23.5t-24 56.5q0 34 24 57.5t61 23.5q38 0 61.5 -23.5t23.5 -56.5q0 -34 -24 -57.5t-61 -23.5z" />
    <glyph glyph-name="quotedbl" unicode="&#x22;" horiz-adv-x="396" 
d="M262 538l63 217h120l-88 -217h-95zM90 538l63 217h120l-88 -217h-95z" />
    <glyph glyph-name="numbersign" unicode="#" horiz-adv-x="866" 
d="M406 0l282 728h131l-282 -728h-131zM93 0l283 728h131l-282 -728h-132zM15 169l23 126h742l-23 -126h-742zM118 437l23 125h741l-22 -125h-742z" />
    <glyph glyph-name="dollar" unicode="$" horiz-adv-x="607" 
d="M202 -87l155 879h65l-155 -879h-65zM269 -12q-76 0 -132 26t-83.5 75.5t-16.5 121.5h149q-5 -32 6.5 -56t36.5 -37t58 -13q35 0 60 12t39 33.5t15 50.5q1 20 -7.5 35t-24 26.5t-36 20.5t-44.5 17.5t-48 17.5q-69 24 -105 66.5t-34 103.5q1 68 37 118t97.5 78t140.5 28
q69 0 119.5 -23.5t75 -69.5t16.5 -111h-150q4 26 -6 45.5t-30.5 30t-48.5 10.5q-30 0 -52.5 -10.5t-35 -29t-13.5 -43.5q0 -17 6.5 -30.5t19.5 -23.5t30.5 -18.5t39 -16.5t45.5 -16q33 -12 62.5 -28.5t52 -39t34.5 -52.5t11 -68q-1 -69 -38 -120.5t-100.5 -80.5t-145.5 -29z
" />
    <glyph glyph-name="percent" unicode="%" horiz-adv-x="909" 
d="M145 0l515 700h136l-515 -700h-136zM650 -12q-44 0 -78.5 18.5t-54 52.5t-18.5 81q2 59 29.5 106.5t74 74.5t102.5 27q45 0 79.5 -18t53.5 -52t17 -81q-1 -59 -28.5 -106.5t-73 -75t-103.5 -27.5zM240 351q-44 0 -79 18.5t-54.5 52.5t-17.5 81q1 60 28.5 106.5t74 74.5
t103.5 28q44 0 78.5 -18.5t53.5 -52.5t18 -81q-2 -60 -29.5 -107t-73 -74.5t-102.5 -27.5zM662 83q23 0 41.5 14t30 38t12.5 53q1 34 -14 50.5t-40 16.5q-22 0 -41 -14t-30 -38t-12 -55q-1 -32 14 -48.5t39 -16.5zM251 446q23 0 41.5 14t30.5 37.5t12 54.5q1 32 -14 49
t-40 17q-22 0 -41 -14t-30 -38t-12 -54q-1 -33 14 -49.5t39 -16.5z" />
    <glyph glyph-name="ampersand" unicode="&#x26;" horiz-adv-x="788" 
d="M559 0l-316 378q-32 39 -46 71.5t-13 65.5q2 59 32.5 103t84 69t121.5 25q61 0 102.5 -21.5t60.5 -59t10 -88.5h-133q6 29 -11 47t-48 18q-36 0 -59.5 -21.5t-23.5 -54.5q-1 -22 9.5 -45t32.5 -51l362 -436h-165zM252 -11q-70 0 -121 22.5t-78 64t-25 97.5
q1 61 31.5 110.5t83.5 86t120 56.5l56 17l47 -85l-51 -15q-65 -20 -104 -58.5t-40 -88.5q-1 -27 11.5 -47.5t37 -33t59.5 -12.5q51 0 95.5 21.5t89.5 67.5q25 24 49.5 56t49.5 71l32 45h142l-46 -69q-38 -57 -74.5 -103t-74.5 -81q-66 -63 -137 -92.5t-153 -29.5z" />
    <glyph glyph-name="quotesingle" unicode="'" horiz-adv-x="203" 
d="M101 538l32 217h119l-56 -217h-95z" />
    <glyph glyph-name="parenleft" unicode="(" horiz-adv-x="408" 
d="M168 -145q-38 46 -65 106t-41 129.5t-11 144.5q2 108 38 212t99.5 197.5t147.5 166.5h140l-2 -13q-88 -79 -150.5 -169t-97 -186.5t-36.5 -193.5q-3 -69 10.5 -136.5t41.5 -129.5t67 -115l-2 -13h-139z" />
    <glyph glyph-name="parenright" unicode=")" horiz-adv-x="409" 
d="M270 811q37 -46 64.5 -106t41.5 -129t11 -145q-3 -107 -38.5 -211.5t-99 -198t-148.5 -166.5h-139l2 13q87 79 150 169t97.5 186.5t36.5 193.5q2 70 -11.5 137t-41 129t-67.5 115l3 13h139z" />
    <glyph glyph-name="asterisk" unicode="*" horiz-adv-x="516" 
d="M230 360l44 138l-123 -88l-37 91l137 50l-118 47l63 87l96 -87l4 140h100l-46 -140l126 87l33 -86l-137 -50l120 -49l-66 -89l-94 87l-3 -138h-99z" />
    <glyph glyph-name="plus" unicode="+" horiz-adv-x="582" 
d="M198 60l81 458h119l-81 -458h-119zM42 231l21 117h491l-20 -117h-492z" />
    <glyph glyph-name="comma" unicode="," horiz-adv-x="249" 
d="M-42 -116l102 257h134l-145 -257h-91z" />
    <glyph glyph-name="hyphen" unicode="-" horiz-adv-x="532" 
d="M74 231l20 117h424l-20 -117h-424z" />
    <glyph glyph-name="period" unicode="." horiz-adv-x="258" 
d="M97 -7q-37 0 -61 23.5t-24 56.5q0 34 24 57.5t61 23.5t61 -23.5t24 -56.5q0 -34 -24 -57.5t-61 -23.5z" />
    <glyph glyph-name="slash" unicode="/" horiz-adv-x="430" 
d="M-42 -116l408 897h135l-408 -897h-135z" />
    <glyph glyph-name="zero" unicode="0" horiz-adv-x="711" 
d="M312 -12q-83 0 -141.5 36t-87.5 100.5t-26 150.5q2 93 31.5 172.5t80 138.5t118.5 92.5t147 33.5q85 0 143 -36t87 -100.5t26 -150.5q-2 -92 -31 -172t-80 -139t-119 -92.5t-148 -33.5zM332 114q43 0 81 23t67.5 63.5t46.5 94t19 114.5q2 55 -13.5 94.5t-45 61
t-72.5 21.5t-81 -23t-67.5 -63t-47 -93.5t-18.5 -115.5q-2 -55 13.5 -95t45.5 -61t72 -21z" />
    <glyph glyph-name="one" unicode="1" horiz-adv-x="364" 
d="M107 0l95 539l-127 -34l20 115l196 80h85l-124 -700h-145z" />
    <glyph glyph-name="two" unicode="2" horiz-adv-x="585" 
d="M14 0l18 103q82 58 153.5 112.5t124.5 105.5t83.5 98.5t32.5 92.5q0 22 -7.5 40.5t-25.5 30t-48 11.5q-33 0 -58.5 -15.5t-41.5 -41.5t-22 -59h-135q16 77 55.5 129t96.5 78.5t123 26.5q67 0 113.5 -23.5t70 -65t21.5 -94.5q-1 -48 -20.5 -93.5t-53 -88t-76.5 -83
t-91.5 -78t-98.5 -72.5h296l-21 -114h-489z" />
    <glyph glyph-name="three" unicode="3" horiz-adv-x="602" 
d="M254 -12q-76 0 -128 28t-74 80t-11 123h137q-3 -37 6.5 -62.5t32 -38.5t57.5 -13q36 0 64 15t44 41t17 59q1 28 -13 48t-39.5 30.5t-60.5 10.5h-52l20 115h52q56 0 92 27.5t38 74.5q1 31 -20 49.5t-57 18.5q-47 0 -78 -27.5t-41 -67.5h-136q15 67 53.5 115t95 73
t125.5 25q66 0 110.5 -21.5t66.5 -58.5t21 -83q-1 -42 -19.5 -78t-49.5 -63t-73 -39q33 -7 56 -26t35 -48t11 -66q-1 -69 -38.5 -123t-100.5 -86t-143 -32z" />
    <glyph glyph-name="four" unicode="4" horiz-adv-x="653" 
d="M344 0l22 124h-342l19 112l407 464h157l-80 -454h90l-21 -122h-90l-22 -124h-140zM194 246h202l54 300v0z" />
    <glyph glyph-name="five" unicode="5" horiz-adv-x="625" 
d="M275 -12q-70 0 -121.5 24.5t-77.5 71t-21 114.5h137q0 -40 28.5 -65.5t73.5 -25.5q41 0 73 20t51 54.5t20 77.5q1 32 -10.5 56t-33 37.5t-52.5 13.5q-41 0 -74.5 -20t-50.5 -49h-135l129 403h395l-22 -123h-291l-54 -149q26 23 64 37t83 14q50 0 86 -16t59 -44.5
t34 -64.5t10 -75q-2 -85 -42.5 -150.5t-107.5 -103t-150 -37.5z" />
    <glyph glyph-name="six" unicode="6" horiz-adv-x="633" 
d="M291 -12q-66 0 -111 21.5t-72.5 58t-39.5 83.5t-10 99q2 96 28.5 180t73 147.5t109 99t137.5 35.5q74 0 120 -28.5t66 -75t16 -100.5h-131q0 43 -22.5 66t-64.5 23q-40 0 -75 -23.5t-62 -71.5t-43 -119q0 -3 -0.5 -5.5t-1.5 -5.5q20 24 47 42.5t60 28.5t69 10
q56 0 99 -26t67.5 -71t23.5 -103q-2 -56 -24 -104t-61 -84.5t-89.5 -56.5t-108.5 -20zM302 108q39 0 69 16t48 45t19 65q0 29 -12 52t-35 36t-55 13q-38 0 -68.5 -16.5t-49 -45.5t-19.5 -65q-1 -29 12 -51.5t36.5 -35.5t54.5 -13z" />
    <glyph glyph-name="seven" unicode="7" horiz-adv-x="536" 
d="M59 0l359 580h-331l21 120h478l-17 -98l-363 -602h-147z" />
    <glyph glyph-name="eight" unicode="8" horiz-adv-x="631" 
d="M272 -12q-66 0 -117.5 22t-80 64t-26.5 102q1 45 20 84.5t53.5 70t79.5 46.5q-38 19 -59 52t-20 75q1 60 37.5 107t98.5 74t140 27q70 0 115.5 -21.5t68 -58.5t21.5 -86q-1 -43 -20.5 -76t-48.5 -56.5t-60 -36.5q46 -20 69.5 -60t21.5 -92q-2 -72 -42.5 -125t-106 -82.5
t-144.5 -29.5zM291 104q39 0 69.5 16t48.5 43t19 61q1 43 -27 67t-76 24q-37 0 -68 -15t-50 -42t-20 -62q-1 -39 26.5 -65.5t77.5 -26.5zM347 417q30 0 56 13t42.5 36.5t16.5 53.5q1 27 -10 44t-31 26t-45 9q-32 0 -58.5 -13t-42.5 -36t-16 -52q-1 -38 23.5 -59.5
t64.5 -21.5z" />
    <glyph glyph-name="nine" unicode="9" horiz-adv-x="634" 
d="M263 -12q-74 0 -120 28.5t-66 75.5t-16 100h130q1 -43 23.5 -66t64.5 -23q31 0 56 12t45 33.5t35.5 50t26.5 61.5t19 68q-20 -24 -47 -42.5t-59.5 -28.5t-69.5 -10q-56 0 -99.5 26t-68 71t-22.5 104q2 56 24 104t61 84t89.5 56t108.5 20q66 0 111 -21.5t72.5 -58
t39.5 -83.5t10 -99q-2 -96 -28.5 -180t-73 -147.5t-109 -99t-137.5 -35.5zM332 365q38 0 69 16.5t49.5 45.5t19.5 65q1 29 -12 51.5t-36.5 35.5t-55.5 13q-37 0 -67.5 -16t-48.5 -44.5t-19 -65.5q-1 -29 11 -52t35 -36t55 -13z" />
    <glyph glyph-name="colon" unicode=":" horiz-adv-x="260" 
d="M97 -8q-37 0 -61 23.5t-24 56.5q0 34 24 57.5t61 23.5t61 -23.5t24 -56.5q0 -34 -24 -57.5t-61 -23.5zM160 352q-37 0 -61 23.5t-24 56.5q0 34 24 57.5t61 23.5t61 -23.5t24 -56.5q0 -34 -24 -57.5t-61 -23.5z" />
    <glyph glyph-name="semicolon" unicode=";" horiz-adv-x="266" 
d="M157 352q-37 0 -61 23.5t-24 56.5q0 34 24 57.5t61 23.5t61 -23.5t24 -56.5q0 -34 -24 -57.5t-61 -23.5zM-35 -116l102 257h134l-145 -257h-91z" />
    <glyph glyph-name="less" unicode="&#x3c;" horiz-adv-x="582" 
d="M547 574l-261 -226l178 -223h-176l-178 225v0l257 224h180z" />
    <glyph glyph-name="equal" unicode="=" horiz-adv-x="582" 
d="M91 341l22 123h431l-21 -123h-432zM51 116l22 122h432l-22 -122h-432z" />
    <glyph glyph-name="greater" unicode="&#x3e;" horiz-adv-x="582" 
d="M70 126l262 225l-179 224h177l178 -225v0l-258 -224h-180z" />
    <glyph glyph-name="question" unicode="?" horiz-adv-x="539" 
d="M135 227l24 163h49q41 0 77 6t63 19.5t42.5 38.5t16.5 63q1 24 -8.5 42t-28 28t-46.5 10q-30 0 -55 -12t-40.5 -33t-20.5 -50h-132q10 60 46 107.5t93.5 75t131.5 27.5q61 0 106 -22t69.5 -62.5t22.5 -96.5q-2 -74 -37.5 -126t-96 -79t-137.5 -28l-16 -71h-123zM172 -7
q-37 0 -61 23.5t-24 57.5q0 33 24 56.5t61 23.5t61 -23.5t24 -56.5q0 -34 -24 -57.5t-61 -23.5z" />
    <glyph glyph-name="at" unicode="@" horiz-adv-x="1040" 
d="M435 -216q-111 0 -194.5 43.5t-130 123t-46.5 186.5q0 111 38.5 206t109 166t166.5 110t209 39q117 0 202 -44t131.5 -122.5t46.5 -182.5q0 -61 -15.5 -117t-45.5 -100.5t-74.5 -70.5t-102.5 -26q-70 0 -102 40.5t-24 106.5l4 32l20 -56q-24 -57 -76 -91t-115 -34
q-75 0 -117 45.5t-42 123.5q0 54 17 104t48 89.5t74 62.5t95 23q58 0 90.5 -28t38.5 -81l-21 -15l21 116h114l-46 -264q-6 -37 2 -60t40 -23q28 0 48.5 20t34 52.5t20 71t6.5 75.5q0 80 -34 138t-98.5 89t-153.5 31q-87 0 -161 -32t-128 -89t-83.5 -132t-29.5 -162
q0 -85 33.5 -145t96 -91.5t150.5 -31.5q46 0 90.5 9.5t82.5 26.5l22 -91q-47 -21 -100.5 -31t-110.5 -10zM480 95q33 0 61 19.5t45.5 52t19.5 72.5q1 29 -8 51.5t-27.5 36t-47.5 13.5q-28 0 -51 -13t-39 -34.5t-25 -49.5t-9 -58q0 -40 20.5 -65t60.5 -25z" />
    <glyph glyph-name="A" unicode="A" horiz-adv-x="712" 
d="M-23 0l378 700h161l131 -700h-148l-91 544v0l-284 -544h-147zM109 157l55 107h373l17 -107h-445z" />
    <glyph glyph-name="B" unicode="B" horiz-adv-x="641" 
d="M23 0l124 700h291q66 0 109.5 -19t65.5 -54.5t21 -83.5q-2 -52 -28 -94t-70 -67t-100 -29l18 11q43 -2 74 -21.5t48 -52t16 -73.5q-2 -65 -37.5 -114t-95.5 -76t-135 -27h-301zM183 112h139q40 0 68.5 14t44.5 40t17 60q1 37 -25 58.5t-73 21.5h-137zM236 409h127
q56 0 89 28.5t34 77.5q1 24 -9 40.5t-30.5 25.5t-52.5 9l-127 -1z" />
    <glyph glyph-name="C" unicode="C" horiz-adv-x="742" 
d="M340 -12q-93 0 -157 37t-96 103t-30 153q3 92 34.5 170.5t86.5 137t128.5 91t159.5 32.5q128 0 199 -64t70 -180h-154q-1 56 -36.5 86.5t-101.5 30.5q-51 0 -94.5 -21.5t-76 -60.5t-51 -92t-19.5 -116q-2 -57 16.5 -97.5t55 -62t89.5 -21.5q66 0 109.5 28t65.5 80h154
q-26 -74 -77 -126.5t-121 -80t-154 -27.5z" />
    <glyph glyph-name="D" unicode="D" horiz-adv-x="716" 
d="M24 0l123 700h241q108 0 176 -36.5t99.5 -102.5t28.5 -156q-2 -90 -33 -164t-87 -128.5t-133.5 -83.5t-173.5 -29h-241zM185 120h93q87 0 146 33.5t90.5 95.5t33.5 146q2 62 -17.5 103.5t-61.5 62t-109 20.5h-93z" />
    <glyph glyph-name="E" unicode="E" horiz-adv-x="564" 
d="M23 0l124 700h444l-20 -111h-304l-31 -180h273l-18 -107h-274l-34 -191h304l-20 -111h-444z" />
    <glyph glyph-name="F" unicode="F" horiz-adv-x="543" 
d="M23 0l124 700h445l-20 -111h-305l-32 -184h240l-20 -108h-239l-53 -297h-140z" />
    <glyph glyph-name="G" unicode="G" horiz-adv-x="782" 
d="M333 -12q-89 0 -151 39.5t-94 108t-29 155.5q2 93 34 170.5t88.5 133.5t132.5 86.5t166 30.5q124 0 197 -59.5t79 -164.5h-157q-7 45 -42 70t-98 25q-74 0 -131.5 -35.5t-90 -99t-34.5 -147.5q-2 -59 17 -101.5t57 -65t92 -22.5q60 0 104 22t73.5 61t44.5 89h-169l18 104
h311l-69 -388h-127l2 86v0q-27 -31 -59.5 -53t-73 -33.5t-91.5 -11.5z" />
    <glyph glyph-name="H" unicode="H" horiz-adv-x="716" 
d="M464 0l124 700h140l-124 -700h-140zM23 0l124 700h140l-124 -700h-140zM198 302l19 111h343l-20 -111h-342z" />
    <glyph glyph-name="I" unicode="I" horiz-adv-x="275" 
d="M23 0l124 700h140l-124 -700h-140z" />
    <glyph glyph-name="J" unicode="J" horiz-adv-x="539" 
d="M209 -12q-68 0 -114.5 26.5t-66 77t-6.5 122.5h139q-5 -31 0 -54t21.5 -35t44.5 -12t47.5 11t32 31.5t16.5 47.5l87 497h140l-87 -497q-18 -103 -87 -159t-167 -56z" />
    <glyph glyph-name="K" unicode="K" horiz-adv-x="659" 
d="M24 0l123 700h140l-47 -273l297 273h172l-306 -277l191 -423h-167l-140 318l-80 -73l-43 -245h-140z" />
    <glyph glyph-name="L" unicode="L" horiz-adv-x="561" 
d="M24 0l123 700h140l-104 -591h306l-20 -109h-445z" />
    <glyph glyph-name="M" unicode="M" horiz-adv-x="892" 
d="M24 0l123 700h168l136 -431v0l285 431h168l-123 -700h-140l81 463v0l-246 -364h-111l-120 364v0l-81 -463h-140z" />
    <glyph glyph-name="N" unicode="N" horiz-adv-x="732" 
d="M23 0l124 700h141l231 -480v0l85 480h140l-124 -700h-140l-232 480v0l-84 -480h-141z" />
    <glyph glyph-name="O" unicode="O" horiz-adv-x="799" 
d="M358 -12q-90 0 -158.5 40.5t-105.5 111t-35 160.5q3 87 35.5 161.5t89.5 131t132 88t160 31.5q91 0 159 -40.5t105 -110.5t35 -161q-2 -86 -35.5 -161t-90 -131.5t-131 -88t-160.5 -31.5zM376 114q52 0 97.5 21t80.5 58.5t55 88t22 108.5q1 60 -18 103.5t-58 68t-96 24.5
q-53 0 -98.5 -21t-80.5 -58.5t-55 -87.5t-22 -109q-1 -59 19 -103t59 -68.5t95 -24.5z" />
    <glyph glyph-name="P" unicode="P" horiz-adv-x="620" 
d="M24 0l123 700h266q76 0 124.5 -26.5t71.5 -70.5t22 -96q-2 -74 -39.5 -129t-103 -85t-152.5 -30h-126l-46 -263h-140zM230 376h117q65 0 101.5 32t37.5 89q2 42 -22 65.5t-80 23.5h-117z" />
    <glyph glyph-name="Q" unicode="Q" horiz-adv-x="799" 
d="M488 -111l-158 405h152l157 -405h-151zM358 -12q-90 0 -158.5 40.5t-105.5 111t-35 160.5q3 87 35.5 161.5t89.5 131t132 88t160 31.5q91 0 159 -40.5t105 -110.5t35 -161q-2 -86 -35.5 -161t-90 -131.5t-131 -88t-160.5 -31.5zM376 114q52 0 97.5 21t80.5 58.5t55 88
t22 108.5q1 60 -18 103.5t-58 68t-96 24.5q-53 0 -98.5 -21t-80.5 -58.5t-55 -87.5t-22 -109q-1 -59 19 -103t59 -68.5t95 -24.5z" />
    <glyph glyph-name="R" unicode="R" horiz-adv-x="634" 
d="M24 0l123 700h262q76 0 125 -26t72 -69.5t22 -95.5q-2 -71 -39 -124.5t-102 -83t-151 -29.5h-124l-48 -272h-140zM392 0l-89 307h146l97 -307h-154zM230 374h117q61 0 98 32.5t38 89.5q1 39 -22.5 63t-77.5 24h-116z" />
    <glyph glyph-name="S" unicode="S" horiz-adv-x="607" 
d="M269 -12q-76 0 -132 26t-83.5 75.5t-16.5 121.5h149q-5 -32 6.5 -56t36.5 -37t58 -13q35 0 60 12t39 33.5t15 50.5q1 20 -7.5 35t-24 26.5t-36 20.5t-44.5 17.5t-48 17.5q-69 24 -105 66.5t-34 103.5q1 68 37 118t97.5 78t140.5 28q69 0 119.5 -23.5t75 -69.5t16.5 -111
h-150q4 26 -6 45.5t-30.5 30t-48.5 10.5q-30 0 -52.5 -10.5t-35 -29t-13.5 -43.5q0 -17 6.5 -30.5t19.5 -23.5t30.5 -18.5t39 -16.5t45.5 -16q33 -12 62.5 -28.5t52 -39t34.5 -52.5t11 -68q-1 -69 -38 -120.5t-100.5 -80.5t-145.5 -29z" />
    <glyph glyph-name="T" unicode="T" horiz-adv-x="601" 
d="M186 0l104 589h-204l20 111h548l-19 -111h-205l-104 -589h-140z" />
    <glyph glyph-name="U" unicode="U" horiz-adv-x="688" 
d="M296 -12q-85 0 -142 33.5t-79.5 97t-7.5 152.5l75 429h140l-76 -429q-8 -48 1 -82.5t37.5 -53t76.5 -18.5q45 0 79.5 17t57.5 51.5t32 85.5l76 429h140l-76 -429q-17 -96 -66 -159t-119 -93.5t-149 -30.5z" />
    <glyph glyph-name="V" unicode="V" horiz-adv-x="709" 
d="M224 0l-130 700h149l93 -557v0l289 557h149l-377 -700h-173z" />
    <glyph glyph-name="W" unicode="W" horiz-adv-x="1021" 
d="M163 0l-58 700h149l24 -540v0l236 540h156l40 -539v0l215 539h151l-311 -700h-168l-43 502v0l-224 -502h-167z" />
    <glyph glyph-name="X" unicode="X" horiz-adv-x="676" 
d="M-11 0l283 355l-163 345h162l110 -235v0l179 235h159l-282 -352l165 -348h-162l-111 238v0l-182 -238h-158z" />
    <glyph glyph-name="Y" unicode="Y" horiz-adv-x="640" 
d="M206 0l44 244l-158 456h160l100 -337l-20 3l217 334h158l-317 -456l-44 -244h-140z" />
    <glyph glyph-name="Z" unicode="Z" horiz-adv-x="578" 
d="M4 0l19 107l403 477h-317l21 116h478l-19 -107l-404 -477h321l-21 -116h-481z" />
    <glyph glyph-name="bracketleft" unicode="[" horiz-adv-x="381" 
d="M-7 -176l173 986h259l-20 -113h-127l-134 -759h127l-20 -114h-258z" />
    <glyph glyph-name="backslash" unicode="\" horiz-adv-x="746" 
d="M660 -116h-136l-408 897h136z" />
    <glyph glyph-name="bracketright" unicode="]" horiz-adv-x="381" 
d="M412 812l-174 -987h-258l20 114h127l133 758h-127l21 115h258z" />
    <glyph glyph-name="asciicircum" unicode="^" horiz-adv-x="680" 
d="M23 186l330 514h135l147 -514h-141l-102 354v0l-228 -354h-141z" />
    <glyph glyph-name="underscore" unicode="_" horiz-adv-x="689" 
d="M3 -173l23 134h580l-22 -134h-581z" />
    <glyph glyph-name="grave" unicode="`" horiz-adv-x="234" 
d="M277 540l-206 110l28 108v0l203 -123z" />
    <glyph glyph-name="a" unicode="a" horiz-adv-x="596" 
d="M191 -12q-57 0 -93 18t-52.5 48.5t-15.5 68.5q1 52 31 90t85 59.5t129 21.5h123q6 36 0.5 59t-24 34.5t-51.5 11.5q-37 0 -66 -16t-42 -49h-135q15 54 52.5 94t91.5 62.5t119 22.5q72 0 120 -24t69 -69.5t9 -110.5l-55 -309h-123l1 74v0q-14 -19 -31.5 -35t-39.5 -27.5
t-47.5 -17.5t-54.5 -6zM243 96q25 0 47 8.5t39.5 24t29.5 36t18 43.5v1h-101q-29 0 -50 -8t-32.5 -23t-12.5 -35q-1 -24 16.5 -35.5t45.5 -11.5z" />
    <glyph glyph-name="b" unicode="b" horiz-adv-x="654" 
d="M320 -12q-36 0 -65 10t-50 27.5t-33 38.5v0l-27 -64h-124l127 720h140l-49 -280q28 31 70 52t98 21q62 0 107.5 -29.5t70 -80t22.5 -114.5q-2 -62 -24.5 -116.5t-61.5 -96t-90 -65t-111 -23.5zM310 110q42 0 76 20.5t54.5 56.5t21.5 81q1 35 -12 62.5t-38.5 44
t-60.5 16.5q-43 0 -77 -21.5t-54 -57.5t-21 -83q-1 -34 12 -61.5t38.5 -42.5t60.5 -15z" />
    <glyph glyph-name="c" unicode="c" horiz-adv-x="612" 
d="M266 -12q-68 0 -118 28t-76.5 78t-24.5 116q2 63 26 118t66 96.5t97.5 65t121.5 23.5q98 0 156.5 -52.5t58.5 -145.5h-148q-1 37 -25.5 57.5t-62.5 20.5q-40 0 -72.5 -22.5t-52 -61t-21.5 -87.5q-1 -26 5.5 -47.5t19 -36.5t30.5 -23t40 -8q27 0 49.5 9.5t40 27t27.5 41.5
h147q-21 -59 -63 -103.5t-98.5 -69t-122.5 -24.5z" />
    <glyph glyph-name="d" unicode="d" horiz-adv-x="653" 
d="M242 -12q-61 0 -105.5 30t-67.5 81.5t-21 115.5t24 118t60 94.5t88.5 63t108.5 22.5q60 0 97 -21.5t55 -54.5l49 283h140l-126 -720h-125l-4 68v0q-18 -22 -42.5 -40t-57 -29t-73.5 -11zM300 110q43 0 77 22.5t55 60t22 82.5q1 34 -12 60.5t-38 41t-59 14.5
q-43 0 -77 -21t-54 -57.5t-21 -81.5q-2 -34 10.5 -62t37 -43.5t59.5 -15.5z" />
    <glyph glyph-name="e" unicode="e" horiz-adv-x="608" 
d="M266 -12q-69 0 -119 27t-76 77t-24 117q2 62 25 117t64 97t97 66t124 24t116 -27t73 -74t23 -108q0 -23 -4.5 -46t-9.5 -42h-409l15 84h269q3 32 -8 54t-32.5 34t-50.5 12q-34 0 -64.5 -15.5t-52.5 -46.5t-30 -78l-5 -30q-7 -37 2.5 -66t34 -45.5t60.5 -16.5t62.5 15.5
t43.5 39.5h142q-22 -48 -62.5 -86.5t-92.5 -60.5t-111 -22z" />
    <glyph glyph-name="f" unicode="f" horiz-adv-x="372" 
d="M44 0l96 546q12 64 40.5 102t71 55t96.5 17h60l-21 -119h-39q-31 0 -46.5 -12.5t-21.5 -42.5l-96 -546h-140zM43 384l21 117h313l-20 -117h-314z" />
    <glyph glyph-name="g" unicode="g" horiz-adv-x="566" 
d="M185 -232q-67 0 -116 16t-74.5 47.5t-24.5 77.5q1 43 24.5 78t66 62.5t99.5 46.5l38 -70q-52 -15 -74.5 -39.5t-23.5 -51.5q0 -20 12.5 -34t35.5 -21t53 -7q48 0 81 18.5t34 54.5q1 23 -15.5 38.5t-65.5 18.5q-46 3 -83 11t-65.5 18.5t-49 23.5t-31.5 27l4 23l127 114
l91 -31l-149 -127l53 72q11 -7 22.5 -13t26.5 -10.5t37.5 -8t54.5 -6.5q62 -5 100.5 -22t55.5 -46t16 -68q-1 -56 -34.5 -99.5t-91.5 -68t-134 -24.5zM249 147q-57 0 -96 20.5t-59 55.5t-19 79q2 58 34 106t85.5 76.5t119.5 28.5q57 0 96 -21t58.5 -55.5t18.5 -78.5
q-2 -59 -33.5 -107t-84.5 -76t-120 -28zM268 252q42 0 70.5 25t29.5 65q1 32 -19 48t-54 16q-42 0 -71 -25t-30 -65q-1 -31 19.5 -47.5t54.5 -16.5zM378 403l-5 98h208l-16 -83z" />
    <glyph glyph-name="h" unicode="h" horiz-adv-x="621" 
d="M22 0l126 720h140l-51 -293v0q31 39 76.5 62.5t100.5 23.5q63 0 101.5 -26.5t52.5 -77.5t0 -125l-50 -284h-139l47 271q11 59 -8 91.5t-72 32.5q-33 0 -62 -16t-48.5 -45.5t-27.5 -71.5l-46 -262h-140z" />
    <glyph glyph-name="i" unicode="i" horiz-adv-x="278" 
d="M25 0l88 501h140l-88 -501h-140zM209 564q-38 0 -62 23t-24 56q0 34 24 57t62 23t62 -22.5t24 -57.5q0 -33 -24 -56t-62 -23z" />
    <glyph glyph-name="j" unicode="j" horiz-adv-x="292" 
d="M-113 -220l22 119h40q32 0 47 12.5t21 41.5l96 548h140l-96 -547q-12 -63 -40.5 -101.5t-71 -55.5t-96.5 -17h-62zM209 564q-38 0 -62 23t-24 56q0 35 24 57.5t62 22.5t62 -22.5t24 -57.5q0 -33 -24 -56t-62 -23z" />
    <glyph glyph-name="k" unicode="k" horiz-adv-x="594" 
d="M370 0l-178 280l230 221h172l-287 -257l10 72l219 -316h-166zM21 0l128 720h140l-128 -720h-140z" />
    <glyph glyph-name="l" unicode="l" horiz-adv-x="271" 
d="M21 0l128 720h140l-128 -720h-140z" />
    <glyph glyph-name="m" unicode="m" horiz-adv-x="940" 
d="M22 0l87 501h123v-69v0q29 37 69 59t91 22q37 0 66.5 -10t50 -29.5t32.5 -48.5v0q34 40 80.5 64t99.5 24q65 0 106.5 -26.5t57 -77.5t2.5 -124l-51 -285h-139l48 272q10 59 -9.5 91t-65.5 32q-28 0 -52.5 -14t-42.5 -40t-26 -63l-50 -278h-139l48 272q10 59 -9 91t-66 32
q-30 0 -55.5 -16t-43.5 -45t-26 -71l-46 -263h-140z" />
    <glyph glyph-name="n" unicode="n" horiz-adv-x="620" 
d="M22 0l87 501h123v-79v0q30 41 76 66t104 25q65 0 103 -28.5t51.5 -79t1.5 -120.5l-51 -285h-139l48 272q9 58 -8.5 90.5t-72.5 32.5q-32 0 -60.5 -15.5t-48 -44t-27.5 -69.5l-47 -266h-140z" />
    <glyph glyph-name="o" unicode="o" horiz-adv-x="616" 
d="M267 -12q-67 0 -117 30t-77 82t-25 118q2 63 25 116.5t64 93.5t94.5 62.5t115.5 22.5q67 0 117.5 -29.5t78 -81t25.5 -118.5q-2 -63 -25.5 -117t-64.5 -94t-94.5 -62.5t-116.5 -22.5zM285 109q39 0 70 22t49.5 60t19.5 87q1 37 -10.5 62t-33 38.5t-49.5 13.5
q-38 0 -69 -22t-49.5 -60t-20.5 -87q-1 -36 11 -61.5t33.5 -39t48.5 -13.5z" />
    <glyph glyph-name="p" unicode="p" horiz-adv-x="654" 
d="M-17 -220l127 721h124l3 -68v0q20 23 45 41t56.5 28.5t69.5 10.5q62 0 107.5 -29.5t69.5 -80t22 -115.5q-1 -62 -24 -116.5t-62 -95.5t-90 -64.5t-110 -23.5q-36 0 -65 9.5t-50 27t-34 39.5l-49 -284h-140zM310 110q43 0 77 20.5t54 56.5t21 81q2 35 -11.5 62.5t-38.5 44
t-61 16.5q-42 0 -76 -21.5t-54.5 -57.5t-21.5 -83q-1 -34 12.5 -61.5t39 -42.5t59.5 -15z" />
    <glyph glyph-name="q" unicode="q" horiz-adv-x="654" 
d="M366 -220l49 288q-28 -34 -70.5 -57t-100.5 -23q-62 0 -106.5 30t-68 81.5t-21.5 116.5q2 63 24 117t60.5 94.5t89 63t107.5 22.5q41 0 70 -10.5t49.5 -27t32.5 -38.5v0l27 64h124l-126 -721h-140zM300 110q43 0 77 22.5t55 60t22 82.5q1 34 -12 60.5t-38 41t-59 14.5
q-43 0 -76.5 -21t-54 -57.5t-21.5 -81.5q-2 -34 10.5 -62t37.5 -43.5t59 -15.5z" />
    <glyph glyph-name="r" unicode="r" horiz-adv-x="411" 
d="M22 0l87 501h125l-2 -91v0q24 32 55 54.5t68.5 35.5t78.5 13l-25 -148h-44q-31 0 -57.5 -6.5t-47.5 -22t-36 -41t-21 -64.5l-41 -231h-140z" />
    <glyph glyph-name="s" unicode="s" horiz-adv-x="539" 
d="M233 -12q-71 0 -119 23.5t-71.5 63.5t-19.5 90h139q0 -21 10 -37.5t29.5 -25.5t48.5 -9q26 0 44 8t28 21t10 29q1 17 -9.5 26.5t-29.5 16t-45 12.5q-33 7 -65 18.5t-57 27.5t-39 39t-13 55q1 49 30.5 86.5t81 59t117.5 21.5q92 0 143.5 -42.5t49.5 -114.5h-134
q-2 24 -22 37.5t-53 13.5t-54 -14t-22 -34q0 -13 11 -23t32 -17t50 -13q39 -9 71 -20t55 -26.5t34.5 -38t10.5 -54.5q-1 -55 -33 -95t-86 -62t-123 -22z" />
    <glyph glyph-name="t" unicode="t" horiz-adv-x="432" 
d="M249 0q-61 0 -98 19.5t-49.5 59.5t-1.5 101l36 204h-83l21 117h83l40 138h125l-25 -138h131l-20 -117h-132l-36 -206q-6 -34 8 -46.5t44 -12.5h70l-21 -119h-92z" />
    <glyph glyph-name="u" unicode="u" horiz-adv-x="621" 
d="M209 -12q-65 0 -103.5 28t-51 79.5t-1.5 119.5l50 286h140l-48 -272q-9 -59 8 -91t71 -32q33 0 61.5 15t48.5 44t28 69l47 267h140l-88 -501h-123l1 79v0q-29 -41 -75 -66t-105 -25z" />
    <glyph glyph-name="v" unicode="v" horiz-adv-x="571" 
d="M156 0l-96 501h146l59 -369v0l188 369h147l-273 -501h-171z" />
    <glyph glyph-name="w" unicode="w" horiz-adv-x="822" 
d="M120 0l-60 501h138l25 -411l-29 1l184 410h155l39 -410l-29 -1l169 411h138l-234 -501h-146l-45 422h33l-194 -422h-144z" />
    <glyph glyph-name="x" unicode="x" horiz-adv-x="579" 
d="M-25 0l227 251l-138 250h149l91 -169v0l150 169h150l-226 -251l137 -250h-149l-90 169v0l-150 -169h-151z" />
    <glyph glyph-name="y" unicode="y" horiz-adv-x="609" 
d="M47 -220l158 253h-30l-111 468h151l75 -339v0l194 339h150l-438 -721h-149z" />
    <glyph glyph-name="z" unicode="z" horiz-adv-x="494" 
d="M-12 0l21 112l304 273h-246l21 116h407l-20 -113l-309 -272h259l-21 -116h-416z" />
    <glyph glyph-name="braceleft" unicode="{" horiz-adv-x="475" 
d="M268 -179q-71 0 -111.5 35t-38.5 102q1 41 15 80.5t28 77t15 71.5q1 20 -7.5 35.5t-27.5 25.5t-51 13l20 111q42 4 68.5 19t39 46.5t12.5 84.5q1 11 1 21t-0.5 19.5t0.5 19.5q2 81 30.5 131.5t76.5 74t105 23.5h66l-21 -116h-39q-22 0 -39.5 -7t-28.5 -24.5t-14 -49.5
q-3 -20 -3.5 -41t-1 -45t-5.5 -52q-4 -44 -20.5 -77t-45 -53.5t-68.5 -28.5v-2q48 -10 68 -39.5t19 -70.5q-1 -40 -14 -77.5t-26 -71t-13 -64.5q-1 -31 15 -43t43 -12h39l-20 -116h-66z" />
    <glyph glyph-name="bar" unicode="|" horiz-adv-x="276" 
d="M6 -100l145 820h140l-145 -820h-140z" />
    <glyph glyph-name="braceright" unicode="}" horiz-adv-x="474" 
d="M229 811q71 0 112 -35t39 -102q-1 -41 -15 -80.5t-28.5 -76.5t-14.5 -72q-1 -19 7 -35t27.5 -25.5t51.5 -13.5l-20 -111q-42 -4 -68.5 -19t-39 -46.5t-13.5 -84.5q-1 -11 -0.5 -21t0.5 -19.5t-1 -19.5q-1 -81 -30 -131.5t-76.5 -74t-104.5 -23.5h-66l20 116h40
q22 0 39.5 7t28.5 24.5t14 49.5q3 20 3 41t0.5 45t5.5 52q4 45 21 77.5t45.5 53t68.5 27.5v2q-48 11 -68.5 40.5t-18.5 70.5q1 41 14 78t25.5 70.5t13.5 64.5q1 32 -15 43.5t-43 11.5h-40l20 116h66z" />
    <glyph glyph-name="asciitilde" unicode="~" horiz-adv-x="582" 
d="M373 222q-31 0 -54.5 10t-41.5 23.5t-36 23.5t-40 10q-25 0 -45 -17t-31 -49h-104q23 67 55 109t71.5 61.5t83.5 19.5q32 0 55 -10t42 -23t36.5 -23.5t39.5 -10.5q26 0 45.5 17t29.5 50h105q-21 -66 -53.5 -108.5t-72 -62.5t-85.5 -20z" />
    <glyph glyph-name="uni00A0" unicode="&#xa0;" horiz-adv-x="249" 
 />
    <glyph glyph-name="exclamdown" unicode="&#xa1;" horiz-adv-x="315" 
d="M227 278l-68 -471h-150l99 471h119zM187 513q38 0 61.5 -23t23.5 -57q0 -33 -23.5 -56.5t-61.5 -23.5q-37 0 -60.5 23t-23.5 57t23.5 57t60.5 23z" />
    <glyph glyph-name="cent" unicode="&#xa2;" horiz-adv-x="612" 
d="M183 -93l31 175h128l-31 -175h-128zM275 428l31 175h128l-31 -175h-128zM266 -12q-68 0 -118 28t-76.5 78t-24.5 116q2 63 26 118t66 96.5t97.5 65t121.5 23.5q98 0 156.5 -52.5t58.5 -145.5h-148q-1 37 -25.5 57.5t-62.5 20.5q-40 0 -72.5 -22.5t-52 -61t-21.5 -87.5
q-1 -26 5.5 -47.5t19 -36.5t30.5 -23t40 -8q27 0 49.5 9.5t40 27t27.5 41.5h147q-21 -59 -63 -103.5t-98.5 -69t-122.5 -24.5z" />
    <glyph glyph-name="sterling" unicode="&#xa3;" horiz-adv-x="629" 
d="M33 0l14 77q35 30 60 63.5t38.5 71.5t14.5 80q1 21 -1.5 41t-6.5 40t-6.5 41t-1.5 44q2 75 36.5 132t94 89.5t136.5 32.5q54 0 94.5 -15t67.5 -44t38 -69t4 -91h-128q5 30 -4.5 53.5t-31 37t-53.5 13.5q-39 0 -66 -17.5t-41 -46.5t-15 -64q-1 -20 2 -40.5t6.5 -42
t6.5 -43t2 -44.5q-1 -55 -27.5 -104t-72.5 -84h353l-19 -111h-494zM48 295l17 95h405l-16 -95h-406z" />
    <glyph glyph-name="currency" unicode="&#xa4;" horiz-adv-x="563" 
d="M258 118q-51 0 -89 20t-58.5 55.5t-18.5 80.5q1 60 32 105.5t83 71t115 25.5q51 0 89.5 -19t59 -53.5t19.5 -80.5q-1 -60 -32.5 -106t-83.5 -72.5t-116 -26.5zM89 77l-47 58l109 93l60 -46zM413 77l-75 93l69 54l73 -89zM274 205q27 0 49 14.5t36 39.5t14 57
q1 25 -8 41.5t-24.5 24.5t-34.5 8q-26 0 -48.5 -14.5t-36 -39.5t-14.5 -58q-1 -25 8 -41t24.5 -24t34.5 -8zM174 372l-74 90l67 58l80 -98zM421 363l-45 59l115 98l47 -58z" />
    <glyph glyph-name="yen" unicode="&#xa5;" horiz-adv-x="655" 
d="M33 148l17 95h540l-17 -95h-540zM290 315l-227 1l17 96h223zM407 315l20 97h193l-17 -96zM214 0l43 244l-157 456h159l100 -337l-20 3l218 334h157l-317 -456l-43 -244h-140z" />
    <glyph glyph-name="brokenbar" unicode="&#xa6;" horiz-adv-x="276" 
d="M93 395l58 325h140l-58 -325h-140zM6 -100l58 325h140l-58 -325h-140z" />
    <glyph glyph-name="section" unicode="&#xa7;" horiz-adv-x="621" 
d="M230 -232q-70 0 -122 24.5t-77.5 70.5t-16.5 109h150q-3 -23 5 -42.5t27 -31.5t48 -12q31 0 54 10.5t36.5 30.5t14.5 45q1 21 -10 34.5t-30 23t-45.5 18t-56.5 19.5q-44 16 -81 40.5t-58.5 60t-20.5 84.5q1 47 23 88t60 74q-7 14 -10.5 30.5t-2.5 35.5q2 67 36.5 119.5
t94.5 82.5t138 30q72 0 123.5 -24.5t77.5 -70.5t16 -109h-150q3 23 -5 42.5t-27 31.5t-48 12q-29 1 -53 -10t-37.5 -31t-14.5 -45q0 -21 10.5 -34.5t30 -23.5t46 -18.5t55.5 -19.5q45 -15 82 -39.5t58 -59.5t20 -85q-1 -47 -23 -88t-60 -74q8 -16 11 -34.5t1 -38.5
q-4 -65 -39 -116t-94 -80t-136 -29zM388 142q13 12 21 29t8 36q1 21 -9 36t-28.5 27.5t-44 23.5t-56.5 22q-13 5 -26.5 11t-23.5 11q-12 -11 -20.5 -28.5t-8.5 -36.5q-1 -15 5 -28t17.5 -23.5t28.5 -20t38.5 -18.5t47.5 -19q15 -6 27.5 -11.5t23.5 -10.5z" />
    <glyph glyph-name="dieresis" unicode="&#xa8;" horiz-adv-x="318" 
d="M133 567q-27 0 -45.5 18.5t-18.5 46.5t18.5 46.5t45.5 18.5q28 0 47 -18.5t19 -46.5t-19 -46.5t-47 -18.5zM319 567q-27 0 -45.5 18.5t-18.5 46.5t18.5 46.5t45.5 18.5q28 0 47 -18.5t19 -46.5t-19 -46.5t-47 -18.5z" />
    <glyph glyph-name="copyright" unicode="&#xa9;" horiz-adv-x="790" 
d="M351 -6q-91 0 -157 38.5t-102 104.5t-36 151q0 88 32 164.5t89 134.5t133.5 90t166.5 32q91 0 157 -37.5t101.5 -103.5t35.5 -151q0 -88 -32 -165t-89 -135t-133.5 -90.5t-165.5 -32.5zM374 125q-54 0 -96 22.5t-65.5 64t-23.5 96.5q0 57 20 106.5t56 86.5t84 58t105 21
q78 0 127.5 -42t51.5 -118h-121q-4 30 -24 47t-54 17q-41 0 -70 -25t-43.5 -64t-14.5 -81q0 -46 22.5 -70t59.5 -24q35 0 60 17.5t40 46.5h121q-19 -48 -55 -84t-82 -55.5t-98 -19.5zM359 42q80 0 146 28.5t113.5 79t73 118t25.5 146.5q0 73 -29 128.5t-84.5 87t-134.5 31.5
q-80 0 -146 -28t-113.5 -78t-73.5 -117t-26 -146q0 -72 29.5 -128.5t85 -89t134.5 -32.5z" />
    <glyph glyph-name="ordfeminine" unicode="&#xaa;" horiz-adv-x="507" 
d="M235 349q-41 0 -73 18t-49 51t-16 78q2 59 29 107.5t71.5 78t100.5 29.5q47 0 74.5 -18t38.5 -49l20 62h97l-61 -352h-98l2 62v0q-22 -31 -55.5 -49t-80.5 -18zM283 433q29 0 53.5 14.5t40 40.5t16.5 60q1 39 -21 59t-55 20q-27 0 -51.5 -14.5t-40 -40.5t-16.5 -61
q-2 -38 20 -58t54 -20z" />
    <glyph glyph-name="guillemotleft" unicode="&#xab;" horiz-adv-x="520" 
d="M315 120l-58 175l120 175h131l-122 -175l60 -175h-131zM107 120l-58 175l120 175h131l-123 -175l61 -175h-131z" />
    <glyph glyph-name="logicalnot" unicode="&#xac;" horiz-adv-x="582" 
d="M441 195l24 136h-459l19 107h599l-43 -243h-140z" />
    <glyph glyph-name="registered" unicode="&#xae;" horiz-adv-x="510" 
d="M262 290q-61 0 -104 27t-62 74.5t-8 109.5t46.5 109.5t88.5 74.5t114 27q62 0 104.5 -27t61.5 -74.5t7 -109.5q-10 -62 -45.5 -109.5t-88 -74.5t-114.5 -27zM312 397l-39 95h69l43 -95h-73zM270 338q49 0 88 21t65.5 57.5t34.5 84.5q13 72 -22.5 117t-107.5 45
q-48 0 -87.5 -20.5t-65.5 -57t-34 -84.5q-12 -72 23 -117.5t106 -45.5zM194 397l38 213h105q34 0 51.5 -18.5t12.5 -49.5t-29 -49.5t-58 -18.5h-42l-14 -77h-64zM279 521h31q9 0 15.5 4t7.5 13q2 8 -2.5 12t-13.5 4h-32z" />
    <glyph glyph-name="macron" unicode="&#xaf;" horiz-adv-x="382" 
d="M59 581l17 99h381l-17 -99h-381z" />
    <glyph glyph-name="degree" unicode="&#xb0;" horiz-adv-x="370" 
d="M240 421q-38 0 -71.5 18t-53.5 50.5t-20 75.5q0 46 20.5 78.5t54 50.5t71.5 18q39 0 72 -18t53 -50.5t20 -78.5q0 -43 -20.5 -76t-53.5 -50.5t-72 -17.5zM240 508q20 0 37.5 14.5t17.5 44.5q0 29 -17 43.5t-37 14.5t-37.5 -14.5t-17.5 -43.5q0 -30 17 -44.5t37 -14.5z
" />
    <glyph glyph-name="plusminus" unicode="&#xb1;" horiz-adv-x="582" 
d="M14 89l21 118h497l-21 -118h-497zM232 253l65 364h118l-65 -364h-118zM64 377l21 116h497l-20 -116h-498z" />
    <glyph glyph-name="uni00B2" unicode="&#xb2;" horiz-adv-x="364" 
d="M55 352l14 79l133 80q31 20 51 40.5t24 44.5q3 19 -5 29t-23 10q-18 0 -30.5 -11.5t-18.5 -32.5h-106q12 52 58.5 87t119.5 35q47 0 74.5 -16t39 -41t5.5 -53q-7 -38 -38.5 -66.5t-93.5 -60.5l-75 -40h176l-15 -84h-290z" />
    <glyph glyph-name="uni00B3" unicode="&#xb3;" horiz-adv-x="358" 
d="M195 348q-78 0 -111 31t-28 85h109q-1 -14 3.5 -23t14 -13t21.5 -4q19 0 32.5 10.5t17.5 29.5q3 21 -8.5 31.5t-34.5 10.5h-38l9 51h34q23 0 37.5 10t18.5 31q3 17 -6 27t-29 10t-32 -9t-19 -27h-101q11 46 55 80t121 34q65 0 100 -30t27 -74q-6 -31 -27.5 -50.5
t-53.5 -26.5l-1 -3q33 -10 48.5 -29.5t9.5 -52.5q-7 -44 -53.5 -71.5t-115.5 -27.5z" />
    <glyph glyph-name="acute" unicode="&#xb4;" horiz-adv-x="232" 
d="M63 540l5 95l239 123v0l-5 -108z" />
    <glyph glyph-name="uni00B5" unicode="&#xb5;" horiz-adv-x="629" 
d="M-18 -220l127 716h140l-46 -264q-10 -60 7.5 -93t72.5 -33q33 0 61.5 15.5t48.5 45t28 71.5l45 258h140l-87 -496h-123l1 79v0q-30 -41 -76 -66t-105 -25q-15 0 -29.5 3.5t-25.5 10.5l-39 -222h-140z" />
    <glyph glyph-name="paragraph" unicode="&#xb6;" horiz-adv-x="661" 
d="M229 -100l66 380h-18q-72 0 -117.5 27t-66 69.5t-20.5 88.5q0 75 35.5 127t98.5 80t144 28h322l-141 -800h-117l122 693h-69l-122 -693h-117z" />
    <glyph glyph-name="periodcentered" unicode="&#xb7;" horiz-adv-x="260" 
d="M142 244q-38 0 -62 23.5t-24 56.5q0 34 24 57.5t63 23.5q37 0 61 -23.5t24 -57.5q0 -33 -24 -56.5t-62 -23.5z" />
    <glyph glyph-name="cedilla" unicode="&#xb8;" horiz-adv-x="270" 
d="M-91 -264l14 79h117q26 0 41 8.5t16 27.5q0 17 -10.5 23.5t-33.5 6.5h-64l22 126h87l-10 -53q30 0 56 -9t41.5 -29.5t14.5 -54.5q-1 -39 -22.5 -67t-55.5 -43t-74 -15h-139z" />
    <glyph glyph-name="uni00B9" unicode="&#xb9;" horiz-adv-x="241" 
d="M111 352l44 252l-72 -16l11 66l126 50h60l-62 -352h-107z" />
    <glyph glyph-name="ordmasculine" unicode="&#xba;" horiz-adv-x="489" 
d="M263 349q-52 0 -90 19t-58 53.5t-18 80.5q1 61 32 108t82.5 74.5t113.5 27.5q53 0 90.5 -18.5t57.5 -52.5t19 -80q-2 -61 -33 -109t-82.5 -75.5t-113.5 -27.5zM277 431q31 0 54 17t36.5 44.5t14.5 58.5q1 27 -8.5 44.5t-25.5 26.5t-37 9q-32 0 -55 -17.5t-36 -45
t-14 -57.5q-1 -26 8 -44t25.5 -27t37.5 -9z" />
    <glyph glyph-name="guillemotright" unicode="&#xbb;" horiz-adv-x="520" 
d="M220 470l58 -175l-120 -175h-131l122 175l-60 175h131zM428 470l58 -175l-120 -175h-131l123 175l-61 175h131z" />
    <glyph glyph-name="onequarter" unicode="&#xbc;" horiz-adv-x="876" 
d="M111 352l44 252l-72 -16l11 66l126 50h60l-62 -352h-107zM106 0l515 700h136l-515 -700h-136zM670 0l11 60h-164l12 70l191 218h115l-38 -216h37l-14 -72h-36l-10 -60h-104zM631 132h70l18 103v0z" />
    <glyph glyph-name="onehalf" unicode="&#xbd;" horiz-adv-x="931" 
d="M111 352l44 252l-72 -16l11 66l126 50h60l-62 -352h-107zM106 0l515 700h136l-515 -700h-136zM560 0l14 79l133 80q31 20 51 40.5t24 44.5q3 19 -5 29t-23 10q-18 0 -30.5 -11.5t-18.5 -32.5h-106q12 52 58.5 87t119.5 35q47 0 74.5 -16t39 -41t5.5 -53
q-7 -38 -38.5 -66.5t-93.5 -60.5l-75 -40h176l-15 -84h-290z" />
    <glyph glyph-name="threequarters" unicode="&#xbe;" horiz-adv-x="953" 
d="M195 348q-78 0 -111 31t-28 85h109q-1 -14 3.5 -23t14 -13t21.5 -4q19 0 32.5 10.5t17.5 29.5q3 21 -8.5 31.5t-34.5 10.5h-38l9 51h34q23 0 37.5 10t18.5 31q3 17 -6 27t-29 10t-32 -9t-19 -27h-101q11 46 55 80t121 34q65 0 100 -30t27 -74q-6 -31 -27.5 -50.5
t-53.5 -26.5l-1 -3q33 -10 48.5 -29.5t9.5 -52.5q-7 -44 -53.5 -71.5t-115.5 -27.5zM182 0l515 700h136l-515 -700h-136zM746 0l11 60h-164l12 70l191 218h115l-38 -216h37l-14 -72h-36l-10 -60h-104zM707 132h70l18 103v0z" />
    <glyph glyph-name="questiondown" unicode="&#xbf;" horiz-adv-x="538" 
d="M404 279l-24 -164h-49q-41 0 -77 -5.5t-63 -19.5t-42.5 -38.5t-16.5 -62.5q-1 -24 8.5 -42t28.5 -28t46 -10q31 0 55.5 12t40 33t20.5 50h132q-10 -60 -46 -107.5t-93.5 -75t-131.5 -27.5q-61 0 -106 22t-69.5 62.5t-22.5 96.5q2 75 37.5 126.5t96 79t137.5 27.5l16 71
h123zM367 513q37 0 61 -23.5t24 -57.5q0 -33 -24 -56.5t-61 -23.5t-61 23.5t-24 56.5q0 34 24 57.5t61 23.5z" />
    <glyph glyph-name="Agrave" unicode="&#xc0;" horiz-adv-x="712" 
d="M-23 0l378 700h161l131 -700h-148l-91 544v0l-284 -544h-147zM109 157l55 107h373l17 -107h-445zM552 753l-206 110l28 108v0l203 -123z" />
    <glyph glyph-name="Aacute" unicode="&#xc1;" horiz-adv-x="712" 
d="M-23 0l378 700h161l131 -700h-148l-91 544v0l-284 -544h-147zM109 157l55 107h373l17 -107h-445zM340 753l5 95l239 123v0l-5 -108z" />
    <glyph glyph-name="Acircumflex" unicode="&#xc2;" horiz-adv-x="712" 
d="M-23 0l378 700h161l131 -700h-148l-91 544v0l-284 -544h-147zM109 157l55 107h373l17 -107h-445zM296 760l18 99l163 83l134 -83l-18 -99l-133 85z" />
    <glyph glyph-name="Atilde" unicode="&#xc3;" horiz-adv-x="712" 
d="M-23 0l378 700h161l131 -700h-148l-91 544v0l-284 -544h-147zM109 157l55 107h373l17 -107h-445zM265 770q22 68 60.5 99.5t85.5 31.5q29 0 47 -11.5t34 -23t36 -11.5q17 0 30.5 11.5t20.5 33.5h74q-22 -68 -60 -99.5t-86 -31.5q-29 0 -47.5 11.5t-34 23t-35.5 11.5
q-17 0 -30.5 -11t-21.5 -34h-73z" />
    <glyph glyph-name="Adieresis" unicode="&#xc4;" horiz-adv-x="712" 
d="M-23 0l378 700h161l131 -700h-148l-91 544v0l-284 -544h-147zM109 157l55 107h373l17 -107h-445zM366 769q-27 0 -45.5 18.5t-18.5 46.5t18.5 46.5t45.5 18.5q28 0 47 -18.5t19 -46.5t-19 -46.5t-47 -18.5zM552 769q-27 0 -45.5 18.5t-18.5 46.5t18.5 46.5t45.5 18.5
q28 0 47 -18.5t19 -46.5t-19 -46.5t-47 -18.5z" />
    <glyph glyph-name="Aring" unicode="&#xc5;" horiz-adv-x="712" 
d="M-23 0l378 700h161l131 -700h-148l-91 544v0l-284 -544h-147zM109 157l55 107h373l17 -107h-445zM468 770q-48 0 -82 30.5t-34 84.5q0 53 34 83.5t82 30.5t82 -30.5t34 -83.5q0 -54 -34 -84.5t-82 -30.5zM468 832q21 0 36 14.5t15 38.5q0 25 -15 38.5t-36 13.5t-36 -13.5
t-15 -38.5q0 -24 15 -38.5t36 -14.5z" />
    <glyph glyph-name="AE" unicode="&#xc6;" horiz-adv-x="948" 
d="M-23 0l498 700h499l-20 -111h-266l-32 -179h237l-19 -107h-236l-34 -192h266l-20 -111h-406l105 594v0l-419 -594h-153zM144 133l79 107h330l-19 -107h-390z" />
    <glyph glyph-name="Ccedilla" unicode="&#xc7;" horiz-adv-x="742" 
d="M340 -12q-93 0 -157 37t-96 103t-30 153q3 92 34.5 170.5t86.5 137t128.5 91t159.5 32.5q128 0 199 -64t70 -180h-154q-1 56 -36.5 86.5t-101.5 30.5q-51 0 -94.5 -21.5t-76 -60.5t-51 -92t-19.5 -116q-2 -57 16.5 -97.5t55 -62t89.5 -21.5q66 0 109.5 28t65.5 80h154
q-26 -74 -77 -126.5t-121 -80t-154 -27.5zM196 -264l14 79h117q26 0 41 8.5t16 27.5q0 17 -10.5 23.5t-33.5 6.5h-64l22 126h87l-10 -53q30 0 56 -9t41.5 -29.5t14.5 -54.5q-1 -39 -22.5 -67t-55.5 -43t-74 -15h-139z" />
    <glyph glyph-name="Egrave" unicode="&#xc8;" horiz-adv-x="564" 
d="M23 0l124 700h444l-20 -111h-304l-31 -180h273l-18 -107h-274l-34 -191h304l-20 -111h-444zM482 753l-206 110l28 108v0l203 -123z" />
    <glyph glyph-name="Eacute" unicode="&#xc9;" horiz-adv-x="564" 
d="M23 0l124 700h444l-20 -111h-304l-31 -180h273l-18 -107h-274l-34 -191h304l-20 -111h-444zM270 753l5 95l239 123v0l-5 -108z" />
    <glyph glyph-name="Ecircumflex" unicode="&#xca;" horiz-adv-x="564" 
d="M23 0l124 700h444l-20 -111h-304l-31 -180h273l-18 -107h-274l-34 -191h304l-20 -111h-444zM226 760l18 99l163 83l134 -83l-18 -99l-133 85z" />
    <glyph glyph-name="Edieresis" unicode="&#xcb;" horiz-adv-x="564" 
d="M23 0l124 700h444l-20 -111h-304l-31 -180h273l-18 -107h-274l-34 -191h304l-20 -111h-444zM296 769q-27 0 -45.5 18.5t-18.5 46.5t18.5 46.5t45.5 18.5q28 0 47 -18.5t19 -46.5t-19 -46.5t-47 -18.5zM482 769q-27 0 -45.5 18.5t-18.5 46.5t18.5 46.5t45.5 18.5
q28 0 47 -18.5t19 -46.5t-19 -46.5t-47 -18.5z" />
    <glyph glyph-name="Igrave" unicode="&#xcc;" horiz-adv-x="275" 
d="M23 0l124 700h140l-124 -700h-140zM334 753l-206 110l28 108v0l203 -123z" />
    <glyph glyph-name="Iacute" unicode="&#xcd;" horiz-adv-x="275" 
d="M23 0l124 700h140l-124 -700h-140zM122 753l5 95l239 123v0l-5 -108z" />
    <glyph glyph-name="Icircumflex" unicode="&#xce;" horiz-adv-x="275" 
d="M23 0l124 700h140l-124 -700h-140zM77 760l18 99l163 83l134 -83l-18 -99l-133 85z" />
    <glyph glyph-name="Idieresis" unicode="&#xcf;" horiz-adv-x="275" 
d="M23 0l124 700h140l-124 -700h-140zM148 769q-27 0 -45.5 18.5t-18.5 46.5t18.5 46.5t45.5 18.5q28 0 47 -18.5t19 -46.5t-19 -46.5t-47 -18.5zM334 769q-27 0 -45.5 18.5t-18.5 46.5t18.5 46.5t45.5 18.5q28 0 47 -18.5t19 -46.5t-19 -46.5t-47 -18.5z" />
    <glyph glyph-name="Eth" unicode="&#xd0;" horiz-adv-x="729" 
d="M13 291l21 119h382l-21 -119h-382zM37 0l123 700h241q108 0 176 -36.5t99.5 -102.5t28.5 -156q-2 -90 -33 -164t-87 -128.5t-133.5 -83.5t-173.5 -29h-241zM198 120h93q87 0 146 33.5t90.5 95.5t33.5 146q2 62 -17 103.5t-61.5 62t-109.5 20.5h-93z" />
    <glyph glyph-name="Ntilde" unicode="&#xd1;" horiz-adv-x="732" 
d="M23 0l124 700h141l231 -480v0l85 480h140l-124 -700h-140l-232 480v0l-84 -480h-141zM275 770q22 68 60.5 99.5t85.5 31.5q29 0 47 -11.5t34 -23t36 -11.5q17 0 30.5 11.5t20.5 33.5h74q-22 -68 -60 -99.5t-86 -31.5q-29 0 -47.5 11.5t-34 23t-35.5 11.5q-17 0 -30.5 -11
t-21.5 -34h-73z" />
    <glyph glyph-name="Ograve" unicode="&#xd2;" horiz-adv-x="799" 
d="M358 -12q-90 0 -158.5 40.5t-105.5 111t-35 160.5q3 87 35.5 161.5t89.5 131t132 88t160 31.5q91 0 159 -40.5t105 -110.5t35 -161q-2 -86 -35.5 -161t-90 -131.5t-131 -88t-160.5 -31.5zM376 114q52 0 97.5 21t80.5 58.5t55 88t22 108.5q1 60 -18 103.5t-58 68t-96 24.5
q-53 0 -98.5 -21t-80.5 -58.5t-55 -87.5t-22 -109q-1 -59 19 -103t59 -68.5t95 -24.5zM596 753l-206 110l28 108v0l203 -123z" />
    <glyph glyph-name="Oacute" unicode="&#xd3;" horiz-adv-x="799" 
d="M358 -12q-90 0 -158.5 40.5t-105.5 111t-35 160.5q3 87 35.5 161.5t89.5 131t132 88t160 31.5q91 0 159 -40.5t105 -110.5t35 -161q-2 -86 -35.5 -161t-90 -131.5t-131 -88t-160.5 -31.5zM376 114q52 0 97.5 21t80.5 58.5t55 88t22 108.5q1 60 -18 103.5t-58 68t-96 24.5
q-53 0 -98.5 -21t-80.5 -58.5t-55 -87.5t-22 -109q-1 -59 19 -103t59 -68.5t95 -24.5zM384 753l5 95l239 123v0l-5 -108z" />
    <glyph glyph-name="Ocircumflex" unicode="&#xd4;" horiz-adv-x="799" 
d="M358 -12q-90 0 -158.5 40.5t-105.5 111t-35 160.5q3 87 35.5 161.5t89.5 131t132 88t160 31.5q91 0 159 -40.5t105 -110.5t35 -161q-2 -86 -35.5 -161t-90 -131.5t-131 -88t-160.5 -31.5zM376 114q52 0 97.5 21t80.5 58.5t55 88t22 108.5q1 60 -18 103.5t-58 68t-96 24.5
q-53 0 -98.5 -21t-80.5 -58.5t-55 -87.5t-22 -109q-1 -59 19 -103t59 -68.5t95 -24.5zM340 760l18 99l163 83l134 -83l-18 -99l-133 85z" />
    <glyph glyph-name="Otilde" unicode="&#xd5;" horiz-adv-x="799" 
d="M358 -12q-90 0 -158.5 40.5t-105.5 111t-35 160.5q3 87 35.5 161.5t89.5 131t132 88t160 31.5q91 0 159 -40.5t105 -110.5t35 -161q-2 -86 -35.5 -161t-90 -131.5t-131 -88t-160.5 -31.5zM376 114q52 0 97.5 21t80.5 58.5t55 88t22 108.5q1 60 -18 103.5t-58 68t-96 24.5
q-53 0 -98.5 -21t-80.5 -58.5t-55 -87.5t-22 -109q-1 -59 19 -103t59 -68.5t95 -24.5zM309 770q22 68 60.5 99.5t85.5 31.5q29 0 47 -11.5t34 -23t36 -11.5q17 0 30.5 11.5t20.5 33.5h74q-22 -68 -60 -99.5t-86 -31.5q-29 0 -47.5 11.5t-34 23t-35.5 11.5q-17 0 -30.5 -11
t-21.5 -34h-73z" />
    <glyph glyph-name="Odieresis" unicode="&#xd6;" horiz-adv-x="799" 
d="M358 -12q-90 0 -158.5 40.5t-105.5 111t-35 160.5q3 87 35.5 161.5t89.5 131t132 88t160 31.5q91 0 159 -40.5t105 -110.5t35 -161q-2 -86 -35.5 -161t-90 -131.5t-131 -88t-160.5 -31.5zM376 114q52 0 97.5 21t80.5 58.5t55 88t22 108.5q1 60 -18 103.5t-58 68t-96 24.5
q-53 0 -98.5 -21t-80.5 -58.5t-55 -87.5t-22 -109q-1 -59 19 -103t59 -68.5t95 -24.5zM411 769q-27 0 -45.5 18.5t-18.5 46.5t18.5 46.5t45.5 18.5q28 0 47 -18.5t19 -46.5t-19 -46.5t-47 -18.5zM597 769q-27 0 -45.5 18.5t-18.5 46.5t18.5 46.5t45.5 18.5q28 0 47 -18.5
t19 -46.5t-19 -46.5t-47 -18.5z" />
    <glyph glyph-name="multiply" unicode="&#xd7;" horiz-adv-x="582" 
d="M139 85l-67 82l143 123l-98 120l96 82l99 -121l145 124l68 -82l-145 -124l99 -120l-96 -82l-99 121z" />
    <glyph glyph-name="Oslash" unicode="&#xd8;" horiz-adv-x="781" 
d="M-18 0l721 700h129l-720 -700h-130zM354 -12q-90 0 -158.5 40.5t-105.5 111t-34 160.5q2 87 34.5 161.5t89.5 131t132 88t160 31.5q91 0 159 -40.5t105.5 -110.5t34.5 -161q-2 -86 -35 -161t-90 -131.5t-131.5 -88t-160.5 -31.5zM372 114q52 0 97.5 21t80.5 58.5t55 88
t22 108.5q2 60 -17.5 103.5t-58.5 68t-96 24.5q-53 0 -98.5 -21t-80.5 -58.5t-55 -87.5t-21 -109q-2 -59 18 -103t59 -68.5t95 -24.5z" />
    <glyph glyph-name="Ugrave" unicode="&#xd9;" horiz-adv-x="688" 
d="M296 -12q-85 0 -142 33.5t-79.5 97t-7.5 152.5l75 429h140l-76 -429q-8 -48 1 -82.5t37.5 -53t76.5 -18.5q45 0 79.5 17t57.5 51.5t32 85.5l76 429h140l-76 -429q-17 -96 -66 -159t-119 -93.5t-149 -30.5zM546 753l-206 110l28 108v0l203 -123z" />
    <glyph glyph-name="Uacute" unicode="&#xda;" horiz-adv-x="688" 
d="M296 -12q-85 0 -142 33.5t-79.5 97t-7.5 152.5l75 429h140l-76 -429q-8 -48 1 -82.5t37.5 -53t76.5 -18.5q45 0 79.5 17t57.5 51.5t32 85.5l76 429h140l-76 -429q-17 -96 -66 -159t-119 -93.5t-149 -30.5zM334 753l5 95l239 123v0l-5 -108z" />
    <glyph glyph-name="Ucircumflex" unicode="&#xdb;" horiz-adv-x="688" 
d="M296 -12q-85 0 -142 33.5t-79.5 97t-7.5 152.5l75 429h140l-76 -429q-8 -48 1 -82.5t37.5 -53t76.5 -18.5q45 0 79.5 17t57.5 51.5t32 85.5l76 429h140l-76 -429q-17 -96 -66 -159t-119 -93.5t-149 -30.5zM290 760l18 99l163 83l134 -83l-18 -99l-133 85z" />
    <glyph glyph-name="Udieresis" unicode="&#xdc;" horiz-adv-x="688" 
d="M296 -12q-85 0 -142 33.5t-79.5 97t-7.5 152.5l75 429h140l-76 -429q-8 -48 1 -82.5t37.5 -53t76.5 -18.5q45 0 79.5 17t57.5 51.5t32 85.5l76 429h140l-76 -429q-17 -96 -66 -159t-119 -93.5t-149 -30.5zM361 769q-27 0 -45.5 18.5t-18.5 46.5t18.5 46.5t45.5 18.5
q28 0 47 -18.5t19 -46.5t-19 -46.5t-47 -18.5zM547 769q-27 0 -45.5 18.5t-18.5 46.5t18.5 46.5t45.5 18.5q28 0 47 -18.5t19 -46.5t-19 -46.5t-47 -18.5z" />
    <glyph glyph-name="Yacute" unicode="&#xdd;" horiz-adv-x="640" 
d="M206 0l44 244l-158 456h160l100 -337l-20 3l217 334h158l-317 -456l-44 -244h-140zM311 753l5 95l239 123v0l-5 -108z" />
    <glyph glyph-name="Thorn" unicode="&#xde;" horiz-adv-x="620" 
d="M24 0l123 700h140l-23 -132h127q76 0 124 -26t71 -69t21 -96q-1 -73 -38.5 -128t-103 -85.5t-151.5 -30.5h-127l-23 -133h-140zM207 245h118q64 0 100.5 34t37.5 92q1 40 -22.5 61.5t-78.5 21.5h-118z" />
    <glyph glyph-name="germandbls" unicode="&#xdf;" horiz-adv-x="718" 
d="M439 -10q-96 0 -147 50t-46 137h131q-2 -39 17 -61.5t57 -22.5t60.5 19t23.5 52q0 16 -7 27.5t-23.5 22.5t-45.5 21q-70 26 -101.5 53t-30.5 68q1 30 16 51.5t38.5 38t46 31.5t38 32.5t15.5 41.5q1 30 -23 47t-69 17q-62 0 -96 -32t-45 -89l-87 -494h-140l90 505
q12 67 50 118t101 80t147 29q71 0 119.5 -21.5t73.5 -57.5t24 -79q-1 -35 -17 -59.5t-38.5 -42.5t-45.5 -32t-38 -26.5t-16 -28.5q0 -9 6.5 -17.5t25.5 -18t56 -24.5q63 -24 89.5 -57t24.5 -89q-1 -56 -31.5 -98.5t-83 -66.5t-119.5 -24z" />
    <glyph glyph-name="agrave" unicode="&#xe0;" horiz-adv-x="596" 
d="M191 -12q-57 0 -93 18t-52.5 48.5t-15.5 68.5q1 52 31 90t85 59.5t129 21.5h123q6 36 0.5 59t-24 34.5t-51.5 11.5q-37 0 -66 -16t-42 -49h-135q15 54 52.5 94t91.5 62.5t119 22.5q72 0 120 -24t69 -69.5t9 -110.5l-55 -309h-123l1 74v0q-14 -19 -31.5 -35t-39.5 -27.5
t-47.5 -17.5t-54.5 -6zM243 96q25 0 47 8.5t39.5 24t29.5 36t18 43.5v1h-101q-29 0 -50 -8t-32.5 -23t-12.5 -35q-1 -24 16.5 -35.5t45.5 -11.5zM451 540l-206 110l28 108v0l203 -123z" />
    <glyph glyph-name="aacute" unicode="&#xe1;" horiz-adv-x="596" 
d="M191 -12q-57 0 -93 18t-52.5 48.5t-15.5 68.5q1 52 31 90t85 59.5t129 21.5h123q6 36 0.5 59t-24 34.5t-51.5 11.5q-37 0 -66 -16t-42 -49h-135q15 54 52.5 94t91.5 62.5t119 22.5q72 0 120 -24t69 -69.5t9 -110.5l-55 -309h-123l1 74v0q-14 -19 -31.5 -35t-39.5 -27.5
t-47.5 -17.5t-54.5 -6zM243 96q25 0 47 8.5t39.5 24t29.5 36t18 43.5v1h-101q-29 0 -50 -8t-32.5 -23t-12.5 -35q-1 -24 16.5 -35.5t45.5 -11.5zM239 540l5 95l239 123v0l-5 -108z" />
    <glyph glyph-name="acircumflex" unicode="&#xe2;" horiz-adv-x="596" 
d="M191 -12q-57 0 -93 18t-52.5 48.5t-15.5 68.5q1 52 31 90t85 59.5t129 21.5h123q6 36 0.5 59t-24 34.5t-51.5 11.5q-37 0 -66 -16t-42 -49h-135q15 54 52.5 94t91.5 62.5t119 22.5q72 0 120 -24t69 -69.5t9 -110.5l-55 -309h-123l1 74v0q-14 -19 -31.5 -35t-39.5 -27.5
t-47.5 -17.5t-54.5 -6zM243 96q25 0 47 8.5t39.5 24t29.5 36t18 43.5v1h-101q-29 0 -50 -8t-32.5 -23t-12.5 -35q-1 -24 16.5 -35.5t45.5 -11.5zM195 545l18 99l163 83l134 -83l-18 -99l-133 85z" />
    <glyph glyph-name="atilde" unicode="&#xe3;" horiz-adv-x="596" 
d="M191 -12q-57 0 -93 18t-52.5 48.5t-15.5 68.5q1 52 31 90t85 59.5t129 21.5h123q6 36 0.5 59t-24 34.5t-51.5 11.5q-37 0 -66 -16t-42 -49h-135q15 54 52.5 94t91.5 62.5t119 22.5q72 0 120 -24t69 -69.5t9 -110.5l-55 -309h-123l1 74v0q-14 -19 -31.5 -35t-39.5 -27.5
t-47.5 -17.5t-54.5 -6zM243 96q25 0 47 8.5t39.5 24t29.5 36t18 43.5v1h-101q-29 0 -50 -8t-32.5 -23t-12.5 -35q-1 -24 16.5 -35.5t45.5 -11.5zM163 557q22 68 60.5 99.5t85.5 31.5q29 0 47 -11.5t34 -23t36 -11.5q17 0 30.5 11.5t20.5 33.5h74q-22 -68 -60 -99.5
t-86 -31.5q-29 0 -47.5 11.5t-34 23t-35.5 11.5q-17 0 -30.5 -11t-21.5 -34h-73z" />
    <glyph glyph-name="adieresis" unicode="&#xe4;" horiz-adv-x="596" 
d="M191 -12q-57 0 -93 18t-52.5 48.5t-15.5 68.5q1 52 31 90t85 59.5t129 21.5h123q6 36 0.5 59t-24 34.5t-51.5 11.5q-37 0 -66 -16t-42 -49h-135q15 54 52.5 94t91.5 62.5t119 22.5q72 0 120 -24t69 -69.5t9 -110.5l-55 -309h-123l1 74v0q-14 -19 -31.5 -35t-39.5 -27.5
t-47.5 -17.5t-54.5 -6zM243 96q25 0 47 8.5t39.5 24t29.5 36t18 43.5v1h-101q-29 0 -50 -8t-32.5 -23t-12.5 -35q-1 -24 16.5 -35.5t45.5 -11.5zM265 567q-27 0 -45.5 18.5t-18.5 46.5t18.5 46.5t45.5 18.5q28 0 47 -18.5t19 -46.5t-19 -46.5t-47 -18.5zM451 567
q-27 0 -45.5 18.5t-18.5 46.5t18.5 46.5t45.5 18.5q28 0 47 -18.5t19 -46.5t-19 -46.5t-47 -18.5z" />
    <glyph glyph-name="aring" unicode="&#xe5;" horiz-adv-x="596" 
d="M191 -12q-57 0 -93 18t-52.5 48.5t-15.5 68.5q1 52 31 90t85 59.5t129 21.5h123q6 36 0.5 59t-24 34.5t-51.5 11.5q-37 0 -66 -16t-42 -49h-135q15 54 52.5 94t91.5 62.5t119 22.5q72 0 120 -24t69 -69.5t9 -110.5l-55 -309h-123l1 74v0q-14 -19 -31.5 -35t-39.5 -27.5
t-47.5 -17.5t-54.5 -6zM243 96q25 0 47 8.5t39.5 24t29.5 36t18 43.5v1h-101q-29 0 -50 -8t-32.5 -23t-12.5 -35q-1 -24 16.5 -35.5t45.5 -11.5zM365 551q-48 0 -82 30.5t-34 84.5q0 53 34 83.5t82 30.5t82 -30.5t34 -83.5q0 -54 -34 -84.5t-82 -30.5zM365 613q21 0 36 14.5
t15 38.5q0 25 -15 38.5t-36 13.5t-36 -13.5t-15 -38.5q0 -24 15 -38.5t36 -14.5z" />
    <glyph glyph-name="ae" unicode="&#xe6;" horiz-adv-x="956" 
d="M204 -12q-58 0 -97 16t-59 46t-19 71q1 52 31.5 90.5t84 60.5t126.5 22h136q6 34 1 57.5t-23.5 35.5t-53.5 12q-36 0 -65.5 -16t-41.5 -49h-136q15 54 53 94t92.5 62.5t118.5 22.5q39 0 70.5 -7.5t56 -22t40.5 -36.5q38 31 86.5 48.5t101.5 17.5q67 0 115 -27t73 -74
t23 -108q0 -15 -3 -33.5t-6 -34t-5 -20.5h-370q-4 -31 6.5 -57t34 -41.5t58.5 -15.5q40 0 68.5 19t45.5 47h140q-21 -50 -62 -91t-95 -65t-116 -24q-64 0 -112 26t-75 71q-27 -30 -62.5 -52t-76 -33.5t-84.5 -11.5zM243 96q32 0 59 14t47.5 38t32.5 54l1 7h-110
q-28 0 -48.5 -7.5t-32 -22t-12.5 -34.5q0 -15 7.5 -26.5t22 -17t33.5 -5.5zM552 300h227q4 31 -7 53t-32.5 34.5t-51.5 12.5q-29 0 -55.5 -11.5t-47.5 -33t-33 -55.5z" />
    <glyph glyph-name="ccedilla" unicode="&#xe7;" horiz-adv-x="612" 
d="M266 -12q-68 0 -118 28t-76.5 78t-24.5 116q2 63 26 118t66 96.5t97.5 65t121.5 23.5q98 0 156.5 -52.5t58.5 -145.5h-148q-1 37 -25.5 57.5t-62.5 20.5q-40 0 -72.5 -22.5t-52 -61t-21.5 -87.5q-1 -26 5.5 -47.5t19 -36.5t30.5 -23t40 -8q27 0 49.5 9.5t40 27t27.5 41.5
h147q-21 -59 -63 -103.5t-98.5 -69t-122.5 -24.5zM116 -264l14 79h117q26 0 41 8.5t16 27.5q0 17 -10.5 23.5t-33.5 6.5h-64l22 126h87l-10 -53q30 0 56 -9t41.5 -29.5t14.5 -54.5q-1 -39 -22.5 -67t-55.5 -43t-74 -15h-139z" />
    <glyph glyph-name="egrave" unicode="&#xe8;" horiz-adv-x="608" 
d="M266 -12q-69 0 -119 27t-76 77t-24 117q2 62 25 117t64 97t97 66t124 24t116 -27t73 -74t23 -108q0 -23 -4.5 -46t-9.5 -42h-409l15 84h269q3 32 -8 54t-32.5 34t-50.5 12q-34 0 -64.5 -15.5t-52.5 -46.5t-30 -78l-5 -30q-7 -37 2.5 -66t34 -45.5t60.5 -16.5t62.5 15.5
t43.5 39.5h142q-22 -48 -62.5 -86.5t-92.5 -60.5t-111 -22zM469 540l-206 110l28 108v0l203 -123z" />
    <glyph glyph-name="eacute" unicode="&#xe9;" horiz-adv-x="608" 
d="M266 -12q-69 0 -119 27t-76 77t-24 117q2 62 25 117t64 97t97 66t124 24t116 -27t73 -74t23 -108q0 -23 -4.5 -46t-9.5 -42h-409l15 84h269q3 32 -8 54t-32.5 34t-50.5 12q-34 0 -64.5 -15.5t-52.5 -46.5t-30 -78l-5 -30q-7 -37 2.5 -66t34 -45.5t60.5 -16.5t62.5 15.5
t43.5 39.5h142q-22 -48 -62.5 -86.5t-92.5 -60.5t-111 -22zM257 540l5 95l239 123v0l-5 -108z" />
    <glyph glyph-name="ecircumflex" unicode="&#xea;" horiz-adv-x="608" 
d="M266 -12q-69 0 -119 27t-76 77t-24 117q2 62 25 117t64 97t97 66t124 24t116 -27t73 -74t23 -108q0 -23 -4.5 -46t-9.5 -42h-409l15 84h269q3 32 -8 54t-32.5 34t-50.5 12q-34 0 -64.5 -15.5t-52.5 -46.5t-30 -78l-5 -30q-7 -37 2.5 -66t34 -45.5t60.5 -16.5t62.5 15.5
t43.5 39.5h142q-22 -48 -62.5 -86.5t-92.5 -60.5t-111 -22zM213 545l18 99l163 83l134 -83l-18 -99l-133 85z" />
    <glyph glyph-name="edieresis" unicode="&#xeb;" horiz-adv-x="608" 
d="M266 -12q-69 0 -119 27t-76 77t-24 117q2 62 25 117t64 97t97 66t124 24t116 -27t73 -74t23 -108q0 -23 -4.5 -46t-9.5 -42h-409l15 84h269q3 32 -8 54t-32.5 34t-50.5 12q-34 0 -64.5 -15.5t-52.5 -46.5t-30 -78l-5 -30q-7 -37 2.5 -66t34 -45.5t60.5 -16.5t62.5 15.5
t43.5 39.5h142q-22 -48 -62.5 -86.5t-92.5 -60.5t-111 -22zM283 567q-27 0 -45.5 18.5t-18.5 46.5t18.5 46.5t45.5 18.5q28 0 47 -18.5t19 -46.5t-19 -46.5t-47 -18.5zM469 567q-27 0 -45.5 18.5t-18.5 46.5t18.5 46.5t45.5 18.5q28 0 47 -18.5t19 -46.5t-19 -46.5
t-47 -18.5z" />
    <glyph glyph-name="igrave" unicode="&#xec;" horiz-adv-x="271" 
d="M21 0l88 501h140l-88 -501h-140zM294 540l-206 110l28 108v0l203 -123z" />
    <glyph glyph-name="iacute" unicode="&#xed;" horiz-adv-x="271" 
d="M21 0l88 501h140l-88 -501h-140zM82 540l5 95l239 123v0l-5 -108z" />
    <glyph glyph-name="icircumflex" unicode="&#xee;" horiz-adv-x="271" 
d="M21 0l88 501h140l-88 -501h-140zM38 545l18 99l163 83l134 -83l-18 -99l-133 85z" />
    <glyph glyph-name="idieresis" unicode="&#xef;" horiz-adv-x="271" 
d="M21 0l88 501h140l-88 -501h-140zM108 567q-27 0 -45.5 18.5t-18.5 46.5t18.5 46.5t45.5 18.5q28 0 47 -18.5t19 -46.5t-19 -46.5t-47 -18.5zM294 567q-27 0 -45.5 18.5t-18.5 46.5t18.5 46.5t45.5 18.5q28 0 47 -18.5t19 -46.5t-19 -46.5t-47 -18.5z" />
    <glyph glyph-name="eth" unicode="&#xf0;" horiz-adv-x="643" 
d="M285 -12q-74 0 -128 32.5t-82 85.5t-26 117q1 60 24.5 111t64.5 89t94 59t114 21q39 0 70.5 -9.5t54.5 -31.5q-7 33 -18 65t-26.5 62.5t-35.5 58.5t-44 52h131q36 -36 60.5 -78t39.5 -87.5t21.5 -91t4.5 -88.5q-1 -85 -26.5 -152.5t-69 -115.5t-100.5 -73.5t-123 -25.5z
M301 107q31 0 57.5 12.5t46.5 34.5t32 51t13 61q1 38 -12.5 64.5t-38.5 40t-57 13.5q-40 0 -73.5 -20.5t-53.5 -55.5t-22 -79q-1 -36 12.5 -63.5t38.5 -43t57 -15.5zM307 533l14 83l310 93l-15 -82z" />
    <glyph glyph-name="ntilde" unicode="&#xf1;" horiz-adv-x="620" 
d="M22 0l87 501h123v-79v0q30 41 76 66t104 25q65 0 103 -28.5t51.5 -79t1.5 -120.5l-51 -285h-139l48 272q9 58 -8.5 90.5t-72.5 32.5q-32 0 -60.5 -15.5t-48 -44t-27.5 -69.5l-47 -266h-140zM182 557q22 68 60.5 99.5t85.5 31.5q29 0 47 -11.5t34 -23t36 -11.5
q17 0 30.5 11.5t20.5 33.5h74q-22 -68 -60 -99.5t-86 -31.5q-29 0 -47.5 11.5t-34 23t-35.5 11.5q-17 0 -30.5 -11t-21.5 -34h-73z" />
    <glyph glyph-name="ograve" unicode="&#xf2;" horiz-adv-x="616" 
d="M267 -12q-67 0 -117 30t-77 82t-25 118q2 63 25 116.5t64 93.5t94.5 62.5t115.5 22.5q67 0 117.5 -29.5t78 -81t25.5 -118.5q-2 -63 -25.5 -117t-64.5 -94t-94.5 -62.5t-116.5 -22.5zM285 109q39 0 70 22t49.5 60t19.5 87q1 37 -10.5 62t-33 38.5t-49.5 13.5
q-38 0 -69 -22t-49.5 -60t-20.5 -87q-1 -36 11 -61.5t33.5 -39t48.5 -13.5zM467 540l-206 110l28 108v0l203 -123z" />
    <glyph glyph-name="oacute" unicode="&#xf3;" horiz-adv-x="616" 
d="M267 -12q-67 0 -117 30t-77 82t-25 118q2 63 25 116.5t64 93.5t94.5 62.5t115.5 22.5q67 0 117.5 -29.5t78 -81t25.5 -118.5q-2 -63 -25.5 -117t-64.5 -94t-94.5 -62.5t-116.5 -22.5zM285 109q39 0 70 22t49.5 60t19.5 87q1 37 -10.5 62t-33 38.5t-49.5 13.5
q-38 0 -69 -22t-49.5 -60t-20.5 -87q-1 -36 11 -61.5t33.5 -39t48.5 -13.5zM254 540l5 95l239 123v0l-5 -108z" />
    <glyph glyph-name="ocircumflex" unicode="&#xf4;" horiz-adv-x="616" 
d="M267 -12q-67 0 -117 30t-77 82t-25 118q2 63 25 116.5t64 93.5t94.5 62.5t115.5 22.5q67 0 117.5 -29.5t78 -81t25.5 -118.5q-2 -63 -25.5 -117t-64.5 -94t-94.5 -62.5t-116.5 -22.5zM285 109q39 0 70 22t49.5 60t19.5 87q1 37 -10.5 62t-33 38.5t-49.5 13.5
q-38 0 -69 -22t-49.5 -60t-20.5 -87q-1 -36 11 -61.5t33.5 -39t48.5 -13.5zM210 545l18 99l163 83l134 -83l-18 -99l-133 85z" />
    <glyph glyph-name="otilde" unicode="&#xf5;" horiz-adv-x="616" 
d="M267 -12q-67 0 -117 30t-77 82t-25 118q2 63 25 116.5t64 93.5t94.5 62.5t115.5 22.5q67 0 117.5 -29.5t78 -81t25.5 -118.5q-2 -63 -25.5 -117t-64.5 -94t-94.5 -62.5t-116.5 -22.5zM285 109q39 0 70 22t49.5 60t19.5 87q1 37 -10.5 62t-33 38.5t-49.5 13.5
q-38 0 -69 -22t-49.5 -60t-20.5 -87q-1 -36 11 -61.5t33.5 -39t48.5 -13.5zM178 557q22 68 60.5 99.5t85.5 31.5q29 0 47 -11.5t34 -23t36 -11.5q17 0 30.5 11.5t20.5 33.5h74q-22 -68 -60 -99.5t-86 -31.5q-29 0 -47.5 11.5t-34 23t-35.5 11.5q-17 0 -30.5 -11t-21.5 -34
h-73z" />
    <glyph glyph-name="odieresis" unicode="&#xf6;" horiz-adv-x="616" 
d="M267 -12q-67 0 -117 30t-77 82t-25 118q2 63 25 116.5t64 93.5t94.5 62.5t115.5 22.5q67 0 117.5 -29.5t78 -81t25.5 -118.5q-2 -63 -25.5 -117t-64.5 -94t-94.5 -62.5t-116.5 -22.5zM285 109q39 0 70 22t49.5 60t19.5 87q1 37 -10.5 62t-33 38.5t-49.5 13.5
q-38 0 -69 -22t-49.5 -60t-20.5 -87q-1 -36 11 -61.5t33.5 -39t48.5 -13.5zM281 567q-27 0 -45.5 18.5t-18.5 46.5t18.5 46.5t45.5 18.5q28 0 47 -18.5t19 -46.5t-19 -46.5t-47 -18.5zM467 567q-27 0 -45.5 18.5t-18.5 46.5t18.5 46.5t45.5 18.5q28 0 47 -18.5t19 -46.5
t-19 -46.5t-47 -18.5z" />
    <glyph glyph-name="divide" unicode="&#xf7;" horiz-adv-x="582" 
d="M69 231l20 117h438l-20 -117h-438zM265 24q-37 0 -61 23t-24 57t24 57t61 23t61 -23t24 -57t-24 -57t-61 -23zM331 395q-38 0 -61.5 23.5t-23.5 57.5q0 33 23.5 56.5t61.5 23.5q37 0 60.5 -23.5t23.5 -56.5q0 -34 -23.5 -57.5t-60.5 -23.5z" />
    <glyph glyph-name="oslash" unicode="&#xf8;" horiz-adv-x="590" 
d="M-17 0l518 501h107l-518 -501h-107zM257 -12q-67 0 -117 30t-77 82t-25 118q2 63 25.5 116.5t64 93.5t94 62.5t115.5 22.5q68 0 118 -29.5t77.5 -81t25.5 -118.5q-2 -63 -25.5 -117t-64.5 -94t-94.5 -62.5t-116.5 -22.5zM275 109q39 0 70 22t49.5 60t19.5 87
q1 37 -10.5 62t-33 38.5t-49.5 13.5q-38 0 -69 -22t-49.5 -60t-20.5 -87q-1 -36 11 -61.5t33.5 -39t48.5 -13.5z" />
    <glyph glyph-name="ugrave" unicode="&#xf9;" horiz-adv-x="621" 
d="M209 -12q-65 0 -103.5 28t-51 79.5t-1.5 119.5l50 286h140l-48 -272q-9 -59 8 -91t71 -32q33 0 61.5 15t48.5 44t28 69l47 267h140l-88 -501h-123l1 79v0q-29 -41 -75 -66t-105 -25zM470 540l-206 110l28 108v0l203 -123z" />
    <glyph glyph-name="uacute" unicode="&#xfa;" horiz-adv-x="621" 
d="M209 -12q-65 0 -103.5 28t-51 79.5t-1.5 119.5l50 286h140l-48 -272q-9 -59 8 -91t71 -32q33 0 61.5 15t48.5 44t28 69l47 267h140l-88 -501h-123l1 79v0q-29 -41 -75 -66t-105 -25zM258 540l5 95l239 123v0l-5 -108z" />
    <glyph glyph-name="ucircumflex" unicode="&#xfb;" horiz-adv-x="621" 
d="M209 -12q-65 0 -103.5 28t-51 79.5t-1.5 119.5l50 286h140l-48 -272q-9 -59 8 -91t71 -32q33 0 61.5 15t48.5 44t28 69l47 267h140l-88 -501h-123l1 79v0q-29 -41 -75 -66t-105 -25zM214 545l18 99l163 83l134 -83l-18 -99l-133 85z" />
    <glyph glyph-name="udieresis" unicode="&#xfc;" horiz-adv-x="621" 
d="M209 -12q-65 0 -103.5 28t-51 79.5t-1.5 119.5l50 286h140l-48 -272q-9 -59 8 -91t71 -32q33 0 61.5 15t48.5 44t28 69l47 267h140l-88 -501h-123l1 79v0q-29 -41 -75 -66t-105 -25zM284 567q-27 0 -45.5 18.5t-18.5 46.5t18.5 46.5t45.5 18.5q28 0 47 -18.5t19 -46.5
t-19 -46.5t-47 -18.5zM470 567q-27 0 -45.5 18.5t-18.5 46.5t18.5 46.5t45.5 18.5q28 0 47 -18.5t19 -46.5t-19 -46.5t-47 -18.5z" />
    <glyph glyph-name="yacute" unicode="&#xfd;" horiz-adv-x="609" 
d="M47 -220l158 253h-30l-111 468h151l75 -339v0l194 339h150l-438 -721h-149zM253 540l5 95l239 123v0l-5 -108z" />
    <glyph glyph-name="thorn" unicode="&#xfe;" horiz-adv-x="654" 
d="M-17 -220l165 940h137l-48 -286q19 23 44.5 40.5t57 28t69.5 10.5q62 0 107.5 -29.5t69.5 -80t22 -115.5q-1 -62 -24 -116.5t-62 -95.5t-90 -64.5t-110 -23.5q-36 0 -65 9.5t-50 27t-34 39.5l-49 -284h-140zM310 110q43 0 77 20.5t54 56.5t21 81q2 35 -11.5 62.5
t-38.5 44t-61 16.5q-42 0 -76 -21.5t-54.5 -57.5t-21.5 -83q-1 -34 12.5 -61.5t39 -42.5t59.5 -15z" />
    <glyph glyph-name="ydieresis" unicode="&#xff;" horiz-adv-x="609" 
d="M47 -220l158 253h-30l-111 468h151l75 -339v0l194 339h150l-438 -721h-149zM279 567q-27 0 -45.5 18.5t-18.5 46.5t18.5 46.5t45.5 18.5q28 0 47 -18.5t19 -46.5t-19 -46.5t-47 -18.5zM465 567q-27 0 -45.5 18.5t-18.5 46.5t18.5 46.5t45.5 18.5q28 0 47 -18.5t19 -46.5
t-19 -46.5t-47 -18.5z" />
    <glyph glyph-name="Amacron" unicode="&#x100;" horiz-adv-x="712" 
d="M-23 0l378 700h161l131 -700h-148l-91 544v0l-284 -544h-147zM109 157l55 107h373l17 -107h-445zM266 815l17 99h381l-17 -99h-381z" />
    <glyph glyph-name="amacron" unicode="&#x101;" horiz-adv-x="596" 
d="M191 -12q-57 0 -93 18t-52.5 48.5t-15.5 68.5q1 52 31 90t85 59.5t129 21.5h123q6 36 0.5 59t-24 34.5t-51.5 11.5q-37 0 -66 -16t-42 -49h-135q15 54 52.5 94t91.5 62.5t119 22.5q72 0 120 -24t69 -69.5t9 -110.5l-55 -309h-123l1 74v0q-14 -19 -31.5 -35t-39.5 -27.5
t-47.5 -17.5t-54.5 -6zM243 96q25 0 47 8.5t39.5 24t29.5 36t18 43.5v1h-101q-29 0 -50 -8t-32.5 -23t-12.5 -35q-1 -24 16.5 -35.5t45.5 -11.5zM159 581l17 99h381l-17 -99h-381z" />
    <glyph glyph-name="Abreve" unicode="&#x102;" horiz-adv-x="712" 
d="M-23 0l378 700h161l131 -700h-148l-91 544v0l-284 -544h-147zM109 157l55 107h373l17 -107h-445zM447 770q-49 0 -81.5 19t-46 54.5t-4.5 83.5l4 17h72q-6 -33 9.5 -51.5t64.5 -18.5q48 0 70.5 18.5t29.5 51.5h73l-4 -17q-8 -49 -34 -84t-65 -54t-88 -19z" />
    <glyph glyph-name="abreve" unicode="&#x103;" horiz-adv-x="596" 
d="M191 -12q-57 0 -93 18t-52.5 48.5t-15.5 68.5q1 52 31 90t85 59.5t129 21.5h123q6 36 0.5 59t-24 34.5t-51.5 11.5q-37 0 -66 -16t-42 -49h-135q15 54 52.5 94t91.5 62.5t119 22.5q72 0 120 -24t69 -69.5t9 -110.5l-55 -309h-123l1 74v0q-14 -19 -31.5 -35t-39.5 -27.5
t-47.5 -17.5t-54.5 -6zM243 96q25 0 47 8.5t39.5 24t29.5 36t18 43.5v1h-101q-29 0 -50 -8t-32.5 -23t-12.5 -35q-1 -24 16.5 -35.5t45.5 -11.5zM345 554q-49 0 -81.5 19t-46 54.5t-4.5 83.5l4 17h72q-6 -33 9.5 -51.5t64.5 -18.5q48 0 70.5 18.5t29.5 51.5h73l-4 -17
q-8 -49 -34 -84t-65 -54t-88 -19z" />
    <glyph glyph-name="Aogonek" unicode="&#x104;" horiz-adv-x="712" 
d="M-23 0l378 700h161l131 -700h-148l-91 544v0l-284 -544h-147zM109 157l55 107h373l17 -107h-445zM526 -212q-38 0 -67 11.5t-43.5 35.5t-8.5 60q6 28 23.5 53.5t53.5 49.5t96 48l48 19l19 -65l-54 -25q-39 -18 -56.5 -34t-21.5 -33q-3 -18 8.5 -28.5t34.5 -10.5
q15 0 34.5 4t40.5 11l-15 -82q-20 -6 -44 -10t-48 -4z" />
    <glyph glyph-name="aogonek" unicode="&#x105;" horiz-adv-x="596" 
d="M191 -12q-57 0 -93 18t-52.5 48.5t-15.5 68.5q1 52 31 90t85 59.5t129 21.5h123q6 36 0.5 59t-24 34.5t-51.5 11.5q-37 0 -66 -16t-42 -49h-135q15 54 52.5 94t91.5 62.5t119 22.5q72 0 120 -24t69 -69.5t9 -110.5l-55 -309h-123l1 74v0q-14 -19 -31.5 -35t-39.5 -27.5
t-47.5 -17.5t-54.5 -6zM243 96q25 0 47 8.5t39.5 24t29.5 36t18 43.5v1h-101q-29 0 -50 -8t-32.5 -23t-12.5 -35q-1 -24 16.5 -35.5t45.5 -11.5zM365 -212q-38 0 -67 11.5t-43.5 35.5t-8.5 60q6 28 23.5 53.5t53.5 49.5t96 48l48 19l19 -65l-54 -25q-39 -18 -56.5 -34
t-21.5 -33q-3 -18 8.5 -28.5t34.5 -10.5q15 0 34.5 4t40.5 11l-15 -82q-20 -6 -44 -10t-48 -4z" />
    <glyph glyph-name="Cacute" unicode="&#x106;" horiz-adv-x="742" 
d="M340 -12q-93 0 -157 37t-96 103t-30 153q3 92 34.5 170.5t86.5 137t128.5 91t159.5 32.5q128 0 199 -64t70 -180h-154q-1 56 -36.5 86.5t-101.5 30.5q-51 0 -94.5 -21.5t-76 -60.5t-51 -92t-19.5 -116q-2 -57 16.5 -97.5t55 -62t89.5 -21.5q66 0 109.5 28t65.5 80h154
q-26 -74 -77 -126.5t-121 -80t-154 -27.5zM369 753l5 95l239 123v0l-5 -108z" />
    <glyph glyph-name="cacute" unicode="&#x107;" horiz-adv-x="612" 
d="M266 -12q-68 0 -118 28t-76.5 78t-24.5 116q2 63 26 118t66 96.5t97.5 65t121.5 23.5q98 0 156.5 -52.5t58.5 -145.5h-148q-1 37 -25.5 57.5t-62.5 20.5q-40 0 -72.5 -22.5t-52 -61t-21.5 -87.5q-1 -26 5.5 -47.5t19 -36.5t30.5 -23t40 -8q27 0 49.5 9.5t40 27t27.5 41.5
h147q-21 -59 -63 -103.5t-98.5 -69t-122.5 -24.5zM254 540l5 95l239 123v0l-5 -108z" />
    <glyph glyph-name="Cdotaccent" unicode="&#x10a;" horiz-adv-x="742" 
d="M340 -12q-93 0 -157 37t-96 103t-30 153q3 92 34.5 170.5t86.5 137t128.5 91t159.5 32.5q128 0 199 -64t70 -180h-154q-1 56 -36.5 86.5t-101.5 30.5q-51 0 -94.5 -21.5t-76 -60.5t-51 -92t-19.5 -116q-2 -57 16.5 -97.5t55 -62t89.5 -21.5q66 0 109.5 28t65.5 80h154
q-26 -74 -77 -126.5t-121 -80t-154 -27.5zM488 768q-28 0 -46.5 19t-18.5 46q0 28 19 47t46 19q28 0 46.5 -19t18.5 -47q0 -27 -18.5 -46t-46.5 -19z" />
    <glyph glyph-name="cdotaccent" unicode="&#x10b;" horiz-adv-x="612" 
d="M266 -12q-68 0 -118 28t-76.5 78t-24.5 116q2 63 26 118t66 96.5t97.5 65t121.5 23.5q98 0 156.5 -52.5t58.5 -145.5h-148q-1 37 -25.5 57.5t-62.5 20.5q-40 0 -72.5 -22.5t-52 -61t-21.5 -87.5q-1 -26 5.5 -47.5t19 -36.5t30.5 -23t40 -8q27 0 49.5 9.5t40 27t27.5 41.5
h147q-21 -59 -63 -103.5t-98.5 -69t-122.5 -24.5zM373 564q-28 0 -46.5 19t-18.5 46q0 28 19 47t46 19q28 0 46.5 -19t18.5 -47q0 -27 -18.5 -46t-46.5 -19z" />
    <glyph glyph-name="Ccaron" unicode="&#x10c;" horiz-adv-x="742" 
d="M340 -12q-93 0 -157 37t-96 103t-30 153q3 92 34.5 170.5t86.5 137t128.5 91t159.5 32.5q128 0 199 -64t70 -180h-154q-1 56 -36.5 86.5t-101.5 30.5q-51 0 -94.5 -21.5t-76 -60.5t-51 -92t-19.5 -116q-2 -57 16.5 -97.5t55 -62t89.5 -21.5q66 0 109.5 28t65.5 80h154
q-26 -74 -77 -126.5t-121 -80t-154 -27.5zM655 942l-18 -99l-163 -83l-134 83l18 99l133 -86z" />
    <glyph glyph-name="ccaron" unicode="&#x10d;" horiz-adv-x="612" 
d="M266 -12q-68 0 -118 28t-76.5 78t-24.5 116q2 63 26 118t66 96.5t97.5 65t121.5 23.5q98 0 156.5 -52.5t58.5 -145.5h-148q-1 37 -25.5 57.5t-62.5 20.5q-40 0 -72.5 -22.5t-52 -61t-21.5 -87.5q-1 -26 5.5 -47.5t19 -36.5t30.5 -23t40 -8q27 0 49.5 9.5t40 27t27.5 41.5
h147q-21 -59 -63 -103.5t-98.5 -69t-122.5 -24.5zM539 727l-18 -99l-163 -83l-134 83l18 99l133 -86z" />
    <glyph glyph-name="Dcaron" unicode="&#x10e;" horiz-adv-x="716" 
d="M24 0l123 700h241q108 0 176 -36.5t99.5 -102.5t28.5 -156q-2 -90 -33 -164t-87 -128.5t-133.5 -83.5t-173.5 -29h-241zM185 120h93q87 0 146 33.5t90.5 95.5t33.5 146q2 62 -17.5 103.5t-61.5 62t-109 20.5h-93zM588 942l-18 -99l-163 -83l-134 83l18 99l133 -86z" />
    <glyph glyph-name="dcaron" unicode="&#x10f;" horiz-adv-x="761" 
d="M242 -12q-61 0 -105.5 30t-67.5 81.5t-21 115.5t24 118t60 94.5t88.5 63t108.5 22.5q60 0 97 -21.5t55 -54.5l49 283h140l-126 -720h-125l-4 68v0q-18 -22 -42.5 -40t-57 -29t-73.5 -11zM300 110q43 0 77 22.5t55 60t22 82.5q1 34 -12 60.5t-38 41t-59 14.5
q-43 0 -77 -21t-54 -57.5t-21 -81.5q-2 -34 10.5 -62t37 -43.5t59.5 -15.5zM678 518l10 56q24 0 37 8.5t17 27.5l2 18h-47l20 109h106q2 -29 1 -52t-5 -47q-10 -58 -46 -89t-95 -31z" />
    <glyph glyph-name="Dcroat" unicode="&#x110;" horiz-adv-x="729" 
d="M13 291l21 119h382l-21 -119h-382zM37 0l123 700h241q108 0 176 -36.5t99.5 -102.5t28.5 -156q-2 -90 -33 -164t-87 -128.5t-133.5 -83.5t-173.5 -29h-241zM198 120h93q87 0 146 33.5t90.5 95.5t33.5 146q2 62 -17 103.5t-61.5 62t-109.5 20.5h-93z" />
    <glyph glyph-name="dcroat" unicode="&#x111;" horiz-adv-x="681" 
d="M365 564l14 83h349l-15 -83h-348zM242 -12q-61 0 -105.5 30t-67.5 81.5t-21 115.5t24 118t60 94.5t88.5 63t108.5 22.5q60 0 97 -21.5t55 -54.5l49 283h140l-126 -720h-125l-4 68v0q-18 -22 -42.5 -40t-57 -29t-73.5 -11zM300 110q43 0 77 22.5t55 60t22 82.5
q1 34 -12 60.5t-38 41t-59 14.5q-43 0 -77 -21t-54 -57.5t-21 -81.5q-2 -34 10.5 -62t37 -43.5t59.5 -15.5z" />
    <glyph glyph-name="Emacron" unicode="&#x112;" horiz-adv-x="564" 
d="M23 0l124 700h444l-20 -111h-304l-31 -180h273l-18 -107h-274l-34 -191h304l-20 -111h-444zM196 815l17 99h381l-17 -99h-381z" />
    <glyph glyph-name="emacron" unicode="&#x113;" horiz-adv-x="608" 
d="M266 -12q-69 0 -119 27t-76 77t-24 117q2 62 25 117t64 97t97 66t124 24t116 -27t73 -74t23 -108q0 -23 -4.5 -46t-9.5 -42h-409l15 84h269q3 32 -8 54t-32.5 34t-50.5 12q-34 0 -64.5 -15.5t-52.5 -46.5t-30 -78l-5 -30q-7 -37 2.5 -66t34 -45.5t60.5 -16.5t62.5 15.5
t43.5 39.5h142q-22 -48 -62.5 -86.5t-92.5 -60.5t-111 -22zM178 581l17 99h381l-17 -99h-381z" />
    <glyph glyph-name="Ebreve" unicode="&#x114;" horiz-adv-x="564" 
d="M23 0l124 700h444l-20 -111h-304l-31 -180h273l-18 -107h-274l-34 -191h304l-20 -111h-444zM378 770q-49 0 -81.5 19t-46 54.5t-4.5 83.5l4 17h72q-6 -33 9.5 -51.5t64.5 -18.5q48 0 70.5 18.5t29.5 51.5h73l-4 -17q-8 -49 -34 -84t-65 -54t-88 -19z" />
    <glyph glyph-name="ebreve" unicode="&#x115;" horiz-adv-x="608" 
d="M266 -12q-69 0 -119 27t-76 77t-24 117q2 62 25 117t64 97t97 66t124 24t116 -27t73 -74t23 -108q0 -23 -4.5 -46t-9.5 -42h-409l15 84h269q3 32 -8 54t-32.5 34t-50.5 12q-34 0 -64.5 -15.5t-52.5 -46.5t-30 -78l-5 -30q-7 -37 2.5 -66t34 -45.5t60.5 -16.5t62.5 15.5
t43.5 39.5h142q-22 -48 -62.5 -86.5t-92.5 -60.5t-111 -22zM363 554q-49 0 -81.5 19t-46 54.5t-4.5 83.5l4 17h72q-6 -33 9.5 -51.5t64.5 -18.5q48 0 70.5 18.5t29.5 51.5h73l-4 -17q-8 -49 -34 -84t-65 -54t-88 -19z" />
    <glyph glyph-name="Edotaccent" unicode="&#x116;" horiz-adv-x="564" 
d="M23 0l124 700h444l-20 -111h-304l-31 -180h273l-18 -107h-274l-34 -191h304l-20 -111h-444zM389 768q-28 0 -46.5 19t-18.5 46q0 28 19 47t46 19q28 0 46.5 -19t18.5 -47q0 -27 -18.5 -46t-46.5 -19z" />
    <glyph glyph-name="edotaccent" unicode="&#x117;" horiz-adv-x="608" 
d="M266 -12q-69 0 -119 27t-76 77t-24 117q2 62 25 117t64 97t97 66t124 24t116 -27t73 -74t23 -108q0 -23 -4.5 -46t-9.5 -42h-409l15 84h269q3 32 -8 54t-32.5 34t-50.5 12q-34 0 -64.5 -15.5t-52.5 -46.5t-30 -78l-5 -30q-7 -37 2.5 -66t34 -45.5t60.5 -16.5t62.5 15.5
t43.5 39.5h142q-22 -48 -62.5 -86.5t-92.5 -60.5t-111 -22zM377 564q-28 0 -46.5 19t-18.5 46q0 28 19 47t46 19q28 0 46.5 -19t18.5 -47q0 -27 -18.5 -46t-46.5 -19z" />
    <glyph glyph-name="Eogonek" unicode="&#x118;" horiz-adv-x="564" 
d="M23 0l124 700h444l-20 -111h-304l-31 -180h273l-18 -107h-274l-34 -191h304l-20 -111h-444zM346 -207q-38 0 -67 11.5t-43.5 35.5t-8.5 60q6 28 23.5 53.5t53.5 49.5t96 48l48 19l19 -65l-54 -25q-39 -18 -56.5 -34t-21.5 -33q-3 -18 8.5 -28.5t34.5 -10.5q15 0 34.5 4
t40.5 11l-15 -82q-20 -6 -44 -10t-48 -4z" />
    <glyph glyph-name="eogonek" unicode="&#x119;" horiz-adv-x="608" 
d="M266 -12q-69 0 -119 27t-76 77t-24 117q2 62 25 117t64 97t97 66t124 24t116 -27t73 -74t23 -108q0 -23 -4.5 -46t-9.5 -42h-409l15 84h269q3 32 -8 54t-32.5 34t-50.5 12q-34 0 -64.5 -15.5t-52.5 -46.5t-30 -78l-5 -30q-7 -37 2.5 -66t34 -45.5t60.5 -16.5t62.5 15.5
t43.5 39.5h142q-22 -48 -62.5 -86.5t-92.5 -60.5t-111 -22zM254 -201q-38 0 -67 11.5t-43.5 35.5t-8.5 60q6 28 23.5 53.5t53.5 49.5t96 48l48 19l19 -65l-54 -25q-39 -18 -56.5 -34t-21.5 -33q-3 -18 8.5 -28.5t34.5 -10.5q15 0 34.5 4t40.5 11l-15 -82q-20 -6 -44 -10
t-48 -4z" />
    <glyph glyph-name="Ecaron" unicode="&#x11a;" horiz-adv-x="564" 
d="M23 0l124 700h444l-20 -111h-304l-31 -180h273l-18 -107h-274l-34 -191h304l-20 -111h-444zM556 942l-18 -99l-163 -83l-134 83l18 99l133 -86z" />
    <glyph glyph-name="ecaron" unicode="&#x11b;" horiz-adv-x="608" 
d="M266 -12q-69 0 -119 27t-76 77t-24 117q2 62 25 117t64 97t97 66t124 24t116 -27t73 -74t23 -108q0 -23 -4.5 -46t-9.5 -42h-409l15 84h269q3 32 -8 54t-32.5 34t-50.5 12q-34 0 -64.5 -15.5t-52.5 -46.5t-30 -78l-5 -30q-7 -37 2.5 -66t34 -45.5t60.5 -16.5t62.5 15.5
t43.5 39.5h142q-22 -48 -62.5 -86.5t-92.5 -60.5t-111 -22zM543 727l-18 -99l-163 -83l-134 83l18 99l133 -86z" />
    <glyph glyph-name="Gbreve" unicode="&#x11e;" horiz-adv-x="782" 
d="M333 -12q-89 0 -151 39.5t-94 108t-29 155.5q2 93 34 170.5t88.5 133.5t132.5 86.5t166 30.5q124 0 197 -59.5t79 -164.5h-157q-7 45 -42 70t-98 25q-74 0 -131.5 -35.5t-90 -99t-34.5 -147.5q-2 -59 17 -101.5t57 -65t92 -22.5q60 0 104 22t73.5 61t44.5 89h-169l18 104
h311l-69 -388h-127l2 86v0q-27 -31 -59.5 -53t-73 -33.5t-91.5 -11.5zM486 770q-49 0 -81.5 19t-46 54.5t-4.5 83.5l4 17h72q-6 -33 9.5 -51.5t64.5 -18.5q48 0 70.5 18.5t29.5 51.5h73l-4 -17q-8 -49 -34 -84t-65 -54t-88 -19z" />
    <glyph glyph-name="gbreve" unicode="&#x11f;" horiz-adv-x="566" 
d="M185 -232q-67 0 -116 16t-74.5 47.5t-24.5 77.5q1 43 24.5 78t66 62.5t99.5 46.5l38 -70q-52 -15 -74.5 -39.5t-23.5 -51.5q0 -20 12.5 -34t35.5 -21t53 -7q48 0 81 18.5t34 54.5q1 23 -15.5 38.5t-65.5 18.5q-46 3 -83 11t-65.5 18.5t-49 23.5t-31.5 27l4 23l127 114
l91 -31l-149 -127l53 72q11 -7 22.5 -13t26.5 -10.5t37.5 -8t54.5 -6.5q62 -5 100.5 -22t55.5 -46t16 -68q-1 -56 -34.5 -99.5t-91.5 -68t-134 -24.5zM249 147q-57 0 -96 20.5t-59 55.5t-19 79q2 58 34 106t85.5 76.5t119.5 28.5q57 0 96 -21t58.5 -55.5t18.5 -78.5
q-2 -59 -33.5 -107t-84.5 -76t-120 -28zM268 252q42 0 70.5 25t29.5 65q1 32 -19 48t-54 16q-42 0 -71 -25t-30 -65q-1 -31 19.5 -47.5t54.5 -16.5zM378 403l-5 98h208l-16 -83zM343 554q-49 0 -81.5 19t-46 54.5t-4.5 83.5l4 17h72q-6 -33 9.5 -51.5t64.5 -18.5
q48 0 70.5 18.5t29.5 51.5h73l-4 -17q-8 -49 -34 -84t-65 -54t-88 -19z" />
    <glyph glyph-name="Gdotaccent" unicode="&#x120;" horiz-adv-x="782" 
d="M333 -12q-89 0 -151 39.5t-94 108t-29 155.5q2 93 34 170.5t88.5 133.5t132.5 86.5t166 30.5q124 0 197 -59.5t79 -164.5h-157q-7 45 -42 70t-98 25q-74 0 -131.5 -35.5t-90 -99t-34.5 -147.5q-2 -59 17 -101.5t57 -65t92 -22.5q60 0 104 22t73.5 61t44.5 89h-169l18 104
h311l-69 -388h-127l2 86v0q-27 -31 -59.5 -53t-73 -33.5t-91.5 -11.5zM498 768q-28 0 -46.5 19t-18.5 46q0 28 19 47t46 19q28 0 46.5 -19t18.5 -47q0 -27 -18.5 -46t-46.5 -19z" />
    <glyph glyph-name="gdotaccent" unicode="&#x121;" horiz-adv-x="566" 
d="M185 -232q-67 0 -116 16t-74.5 47.5t-24.5 77.5q1 43 24.5 78t66 62.5t99.5 46.5l38 -70q-52 -15 -74.5 -39.5t-23.5 -51.5q0 -20 12.5 -34t35.5 -21t53 -7q48 0 81 18.5t34 54.5q1 23 -15.5 38.5t-65.5 18.5q-46 3 -83 11t-65.5 18.5t-49 23.5t-31.5 27l4 23l127 114
l91 -31l-149 -127l53 72q11 -7 22.5 -13t26.5 -10.5t37.5 -8t54.5 -6.5q62 -5 100.5 -22t55.5 -46t16 -68q-1 -56 -34.5 -99.5t-91.5 -68t-134 -24.5zM249 147q-57 0 -96 20.5t-59 55.5t-19 79q2 58 34 106t85.5 76.5t119.5 28.5q57 0 96 -21t58.5 -55.5t18.5 -78.5
q-2 -59 -33.5 -107t-84.5 -76t-120 -28zM268 252q42 0 70.5 25t29.5 65q1 32 -19 48t-54 16q-42 0 -71 -25t-30 -65q-1 -31 19.5 -47.5t54.5 -16.5zM378 403l-5 98h208l-16 -83zM357 564q-28 0 -46.5 19t-18.5 46q0 28 19 47t46 19q28 0 46.5 -19t18.5 -47q0 -27 -18.5 -46
t-46.5 -19z" />
    <glyph glyph-name="uni0122" unicode="&#x122;" horiz-adv-x="782" 
d="M333 -12q-89 0 -151 39.5t-94 108t-29 155.5q2 93 34 170.5t88.5 133.5t132.5 86.5t166 30.5q124 0 197 -59.5t79 -164.5h-157q-7 45 -42 70t-98 25q-74 0 -131.5 -35.5t-90 -99t-34.5 -147.5q-2 -59 17 -101.5t57 -65t92 -22.5q60 0 104 22t73.5 61t44.5 89h-169l18 104
h311l-69 -388h-127l2 86v0q-27 -31 -59.5 -53t-73 -33.5t-91.5 -11.5zM242 -284l10 56q26 0 40.5 15.5t20.5 47.5l3 15h-57l19 106h115q4 -27 3 -53t-5 -49q-11 -64 -49 -101t-100 -37z" />
    <glyph glyph-name="uni0123" unicode="&#x123;" horiz-adv-x="566" 
d="M185 -232q-67 0 -116 16t-74.5 47.5t-24.5 77.5q1 43 24.5 78t66 62.5t99.5 46.5l38 -70q-52 -15 -74.5 -39.5t-23.5 -51.5q0 -20 12.5 -34t35.5 -21t53 -7q48 0 81 18.5t34 54.5q1 23 -15.5 38.5t-65.5 18.5q-46 3 -83 11t-65.5 18.5t-49 23.5t-31.5 27l4 23l127 114
l91 -31l-149 -127l53 72q11 -7 22.5 -13t26.5 -10.5t37.5 -8t54.5 -6.5q62 -5 100.5 -22t55.5 -46t16 -68q-1 -56 -34.5 -99.5t-91.5 -68t-134 -24.5zM249 147q-57 0 -96 20.5t-59 55.5t-19 79q2 58 34 106t85.5 76.5t119.5 28.5q57 0 96 -21t58.5 -55.5t18.5 -78.5
q-2 -59 -33.5 -107t-84.5 -76t-120 -28zM268 252q42 0 70.5 25t29.5 65q1 32 -19 48t-54 16q-42 0 -71 -25t-30 -65q-1 -31 19.5 -47.5t54.5 -16.5zM378 403l-5 98h208l-16 -83zM443 782l-10 -56q-23 0 -36 -9t-17 -28l-3 -18h47l-20 -108h-106q-2 29 -1 52t5 47
q11 57 46.5 88.5t94.5 31.5z" />
    <glyph glyph-name="Hbar" unicode="&#x126;" horiz-adv-x="776" 
d="M71 493l19 111h720l-19 -111h-720zM494 0l124 700h140l-124 -700h-140zM53 0l124 700h140l-124 -700h-140zM228 302l19 111h343l-20 -111h-342z" />
    <glyph glyph-name="hbar" unicode="&#x127;" horiz-adv-x="649" 
d="M78 564l14 83h349l-15 -83h-348zM50 0l126 720h140l-51 -293v0q31 39 76.5 62.5t100.5 23.5q63 0 101.5 -26.5t52.5 -77.5t0 -125l-50 -284h-139l47 271q11 59 -8 91.5t-72 32.5q-33 0 -62 -16t-48.5 -45.5t-27.5 -71.5l-46 -262h-140z" />
    <glyph glyph-name="Itilde" unicode="&#x128;" horiz-adv-x="275" 
d="M23 0l124 700h140l-124 -700h-140zM47 770q22 68 60.5 99.5t85.5 31.5q29 0 47 -11.5t34 -23t36 -11.5q17 0 30.5 11.5t20.5 33.5h74q-22 -68 -60 -99.5t-86 -31.5q-29 0 -47.5 11.5t-34 23t-35.5 11.5q-17 0 -30.5 -11t-21.5 -34h-73z" />
    <glyph glyph-name="itilde" unicode="&#x129;" horiz-adv-x="271" 
d="M21 0l88 501h140l-88 -501h-140zM6 557q22 68 60.5 99.5t85.5 31.5q29 0 47 -11.5t34 -23t36 -11.5q17 0 30.5 11.5t20.5 33.5h74q-22 -68 -60 -99.5t-86 -31.5q-29 0 -47.5 11.5t-34 23t-35.5 11.5q-17 0 -30.5 -11t-21.5 -34h-73z" />
    <glyph glyph-name="Imacron" unicode="&#x12a;" horiz-adv-x="275" 
d="M23 0l124 700h140l-124 -700h-140zM48 815l17 99h381l-17 -99h-381z" />
    <glyph glyph-name="imacron" unicode="&#x12b;" horiz-adv-x="271" 
d="M21 0l88 501h140l-88 -501h-140zM3 581l17 99h381l-17 -99h-381z" />
    <glyph glyph-name="Ibreve" unicode="&#x12c;" horiz-adv-x="275" 
d="M23 0l124 700h140l-124 -700h-140zM229 770q-49 0 -81.5 19t-46 54.5t-4.5 83.5l4 17h72q-6 -33 9.5 -51.5t64.5 -18.5q48 0 70.5 18.5t29.5 51.5h73l-4 -17q-8 -49 -34 -84t-65 -54t-88 -19z" />
    <glyph glyph-name="ibreve" unicode="&#x12d;" horiz-adv-x="271" 
d="M21 0l88 501h140l-88 -501h-140zM188 554q-49 0 -81.5 19t-46 54.5t-4.5 83.5l4 17h72q-6 -33 9.5 -51.5t64.5 -18.5q48 0 70.5 18.5t29.5 51.5h73l-4 -17q-8 -49 -34 -84t-65 -54t-88 -19z" />
    <glyph glyph-name="Iogonek" unicode="&#x12e;" horiz-adv-x="275" 
d="M23 0l124 700h140l-124 -700h-140zM42 -212q-38 0 -67 11.5t-43.5 35.5t-8.5 60q6 28 23.5 53.5t53.5 49.5t96 48l48 19l19 -65l-54 -25q-39 -18 -56.5 -34t-21.5 -33q-3 -18 8.5 -28.5t34.5 -10.5q15 0 34.5 4t40.5 11l-15 -82q-20 -6 -44 -10t-48 -4z" />
    <glyph glyph-name="iogonek" unicode="&#x12f;" horiz-adv-x="271" 
d="M21 0l88 501h140l-88 -501h-140zM202 564q-28 0 -46.5 19t-18.5 46q0 28 19 47t46 19q28 0 46.5 -19t18.5 -47q0 -27 -18.5 -46t-46.5 -19zM40 -212q-38 0 -67 11.5t-43.5 35.5t-8.5 60q6 28 23.5 53.5t53.5 49.5t96 48l48 19l19 -65l-54 -25q-39 -18 -56.5 -34
t-21.5 -33q-3 -18 8.5 -28.5t34.5 -10.5q15 0 34.5 4t40.5 11l-15 -82q-20 -6 -44 -10t-48 -4z" />
    <glyph glyph-name="Idotaccent" unicode="&#x130;" horiz-adv-x="275" 
d="M23 0l124 700h140l-124 -700h-140zM241 768q-28 0 -46.5 19t-18.5 46q0 28 19 47t46 19q28 0 46.5 -19t18.5 -47q0 -27 -18.5 -46t-46.5 -19z" />
    <glyph glyph-name="dotlessi" unicode="&#x131;" horiz-adv-x="271" 
d="M21 0l88 501h140l-88 -501h-140z" />
    <glyph glyph-name="IJ" unicode="&#x132;" horiz-adv-x="780" 
d="M23 0l124 700h140l-124 -700h-140zM450 -12q-68 0 -114.5 26.5t-66 77t-6.5 122.5h139q-5 -31 0 -54t21.5 -35t44.5 -12t47.5 11t32 31.5t16.5 47.5l87 497h140l-87 -497q-18 -103 -87 -159t-167 -56z" />
    <glyph glyph-name="ij" unicode="&#x133;" horiz-adv-x="537" 
d="M25 0l88 501h140l-88 -501h-140zM209 564q-38 0 -62 23t-24 56q0 34 24 57t62 23t62 -22.5t24 -57.5q0 -33 -24 -56t-62 -23zM132 -220l22 119h40q32 0 47 12.5t21 41.5l96 548h140l-96 -547q-12 -63 -40.5 -101.5t-71 -55.5t-96.5 -17h-62zM454 564q-38 0 -62 23t-24 56
q0 35 24 57.5t62 22.5t62 -22.5t24 -57.5q0 -33 -24 -56t-62 -23z" />
    <glyph glyph-name="uni0136" unicode="&#x136;" horiz-adv-x="659" 
d="M24 0l123 700h140l-47 -273l297 273h172l-306 -277l191 -423h-167l-140 318l-80 -73l-43 -245h-140zM177 -284l10 56q26 0 40.5 15.5t20.5 47.5l3 15h-57l19 106h115q4 -27 3 -53t-5 -49q-11 -64 -49 -101t-100 -37z" />
    <glyph glyph-name="uni0137" unicode="&#x137;" horiz-adv-x="594" 
d="M370 0l-178 280l230 221h172l-287 -257l10 72l219 -316h-166zM21 0l128 720h140l-128 -720h-140zM144 -284l10 56q26 0 40.5 15.5t20.5 47.5l3 15h-57l19 106h115q4 -27 3 -53t-5 -49q-11 -64 -49 -101t-100 -37z" />
    <glyph glyph-name="Lacute" unicode="&#x139;" horiz-adv-x="561" 
d="M24 0l123 700h140l-104 -591h306l-20 -109h-445zM122 753l5 95l239 123v0l-5 -108z" />
    <glyph glyph-name="lacute" unicode="&#x13a;" horiz-adv-x="271" 
d="M21 0l128 720h140l-128 -720h-140zM122 759l5 95l239 123v0l-5 -108z" />
    <glyph glyph-name="uni013B" unicode="&#x13b;" horiz-adv-x="561" 
d="M24 0l123 700h140l-104 -591h306l-20 -109h-445zM131 -284l10 56q26 0 40.5 15.5t20.5 47.5l3 15h-57l19 106h115q4 -27 3 -53t-5 -49q-11 -64 -49 -101t-100 -37z" />
    <glyph glyph-name="uni013C" unicode="&#x13c;" horiz-adv-x="271" 
d="M21 0l128 720h140l-128 -720h-140zM-17 -284l10 56q26 0 40.5 15.5t20.5 47.5l3 15h-57l19 106h115q4 -27 3 -53t-5 -49q-11 -64 -49 -101t-100 -37z" />
    <glyph glyph-name="Lcaron" unicode="&#x13d;" horiz-adv-x="561" 
d="M24 0l123 700h140l-104 -591h306l-20 -109h-445zM318 506l10 56q24 0 37 8.5t17 27.5l2 18h-47l20 109h106q2 -29 1 -52t-5 -47q-10 -58 -46 -89t-95 -31z" />
    <glyph glyph-name="lcaron" unicode="&#x13e;" horiz-adv-x="380" 
d="M21 0l128 720h140l-128 -720h-140zM297 518l10 56q24 0 37 8.5t17 27.5l2 18h-47l20 109h106q2 -29 1 -52t-5 -47q-10 -58 -46 -89t-95 -31z" />
    <glyph glyph-name="Ldot" unicode="&#x13f;" horiz-adv-x="561" 
d="M24 0l123 700h140l-104 -591h306l-20 -109h-445zM401 269q-38 0 -62 23.5t-24 56.5q0 34 24 57.5t63 23.5q37 0 61 -23.5t24 -57.5q0 -33 -24 -56.5t-62 -23.5z" />
    <glyph glyph-name="ldot" unicode="&#x140;" horiz-adv-x="385" 
d="M21 0l128 720h140l-128 -720h-140zM347 279q-38 0 -62 23.5t-24 56.5q0 34 24 57.5t63 23.5q37 0 61 -23.5t24 -57.5q0 -33 -24 -56.5t-62 -23.5z" />
    <glyph glyph-name="Lslash" unicode="&#x141;" horiz-adv-x="589" 
d="M23 256l23 131l326 100l-23 -132zM51 0l123 700h140l-104 -591h306l-19 -109h-446z" />
    <glyph glyph-name="lslash" unicode="&#x142;" horiz-adv-x="305" 
d="M17 280l21 121l299 93l-22 -121zM38 0l128 720h140l-128 -720h-140z" />
    <glyph glyph-name="Nacute" unicode="&#x143;" horiz-adv-x="732" 
d="M23 0l124 700h141l231 -480v0l85 480h140l-124 -700h-140l-232 480v0l-84 -480h-141zM350 753l5 95l239 123v0l-5 -108z" />
    <glyph glyph-name="nacute" unicode="&#x144;" horiz-adv-x="620" 
d="M22 0l87 501h123v-79v0q30 41 76 66t104 25q65 0 103 -28.5t51.5 -79t1.5 -120.5l-51 -285h-139l48 272q9 58 -8.5 90.5t-72.5 32.5q-32 0 -60.5 -15.5t-48 -44t-27.5 -69.5l-47 -266h-140zM258 540l5 95l239 123v0l-5 -108z" />
    <glyph glyph-name="uni0145" unicode="&#x145;" horiz-adv-x="732" 
d="M23 0l124 700h141l231 -480v0l85 480h140l-124 -700h-140l-232 480v0l-84 -480h-141zM214 -284l10 56q26 0 40.5 15.5t20.5 47.5l3 15h-57l19 106h115q4 -27 3 -53t-5 -49q-11 -64 -49 -101t-100 -37z" />
    <glyph glyph-name="uni0146" unicode="&#x146;" horiz-adv-x="620" 
d="M22 0l87 501h123v-79v0q30 41 76 66t104 25q65 0 103 -28.5t51.5 -79t1.5 -120.5l-51 -285h-139l48 272q9 58 -8.5 90.5t-72.5 32.5q-32 0 -60.5 -15.5t-48 -44t-27.5 -69.5l-47 -266h-140zM157 -284l10 56q26 0 40.5 15.5t20.5 47.5l3 15h-57l19 106h115q4 -27 3 -53
t-5 -49q-11 -64 -49 -101t-100 -37z" />
    <glyph glyph-name="Ncaron" unicode="&#x147;" horiz-adv-x="732" 
d="M23 0l124 700h141l231 -480v0l85 480h140l-124 -700h-140l-232 480v0l-85 -480h-140zM636 942l-17 -99l-164 -83l-134 83l18 99l133 -86z" />
    <glyph glyph-name="ncaron" unicode="&#x148;" horiz-adv-x="620" 
d="M22 0l87 501h123v-79v0q30 41 76 66t104 25q65 0 103 -28.5t51.5 -79t1.5 -120.5l-51 -285h-139l48 272q9 58 -8.5 90.5t-72.5 32.5q-32 0 -60.5 -15.5t-48 -44t-27.5 -69.5l-47 -266h-140zM543 727l-17 -99l-164 -83l-133 83l17 99l133 -86z" />
    <glyph glyph-name="Eng" unicode="&#x14a;" horiz-adv-x="732" 
d="M24 0l123 700h140l233 -475v0l84 475h140l-132 -746q-10 -63 -39 -101.5t-71.5 -55.5t-96.5 -17h-62l21 119h41q32 0 47.5 12.5t20.5 41.5l8 47l-233 474v0l-84 -474h-140z" />
    <glyph glyph-name="eng" unicode="&#x14b;" horiz-adv-x="626" 
d="M22 0l88 501h123l-4 -82v0q30 42 77.5 68t106.5 26q63 0 101.5 -26.5t52 -77.5t0.5 -124l-58 -331q-11 -63 -40 -101.5t-71.5 -55.5t-96.5 -17h-61l20 119h41q32 0 48 12.5t21 41.5l56 319q10 59 -9 91t-72 32q-33 0 -61.5 -16t-48.5 -45t-27 -71l-46 -263h-140z" />
    <glyph glyph-name="Omacron" unicode="&#x14c;" horiz-adv-x="799" 
d="M358 -12q-90 0 -158.5 40.5t-105.5 111t-35 160.5q3 87 35.5 161.5t89.5 131t132 88t160 31.5q91 0 159 -40.5t105 -110.5t35 -161q-2 -86 -35.5 -161t-90 -131.5t-131 -88t-160.5 -31.5zM376 114q52 0 97.5 21t80.5 58.5t55 88t22 108.5q1 60 -18 103.5t-58 68t-96 24.5
q-53 0 -98.5 -21t-80.5 -58.5t-55 -87.5t-22 -109q-1 -59 19 -103t59 -68.5t95 -24.5zM310 815l17 99h381l-17 -99h-381z" />
    <glyph glyph-name="omacron" unicode="&#x14d;" horiz-adv-x="616" 
d="M267 -12q-67 0 -117 30t-77 82t-25 118q2 63 25 116.5t64 93.5t94.5 62.5t115.5 22.5q67 0 117.5 -29.5t78 -81t25.5 -118.5q-2 -63 -25.5 -117t-64.5 -94t-94.5 -62.5t-116.5 -22.5zM285 109q39 0 70 22t49.5 60t19.5 87q1 37 -10.5 62t-33 38.5t-49.5 13.5
q-38 0 -69 -22t-49.5 -60t-20.5 -87q-1 -36 11 -61.5t33.5 -39t48.5 -13.5zM175 581l17 99h381l-17 -99h-381z" />
    <glyph glyph-name="Obreve" unicode="&#x14e;" horiz-adv-x="799" 
d="M358 -12q-90 0 -158.5 40.5t-105.5 111t-35 160.5q3 87 35.5 161.5t89.5 131t132 88t160 31.5q91 0 159 -40.5t105 -110.5t35 -161q-2 -86 -35.5 -161t-90 -131.5t-131 -88t-160.5 -31.5zM376 114q52 0 97.5 21t80.5 58.5t55 88t22 108.5q1 60 -18 103.5t-58 68t-96 24.5
q-53 0 -98.5 -21t-80.5 -58.5t-55 -87.5t-22 -109q-1 -59 19 -103t59 -68.5t95 -24.5zM492 770q-49 0 -81.5 19t-46 54.5t-4.5 83.5l4 17h72q-6 -33 9.5 -51.5t64.5 -18.5q48 0 70.5 18.5t29.5 51.5h73l-4 -17q-8 -49 -34 -84t-65 -54t-88 -19z" />
    <glyph glyph-name="obreve" unicode="&#x14f;" horiz-adv-x="616" 
d="M267 -12q-67 0 -117 30t-77 82t-25 118q2 63 25 116.5t64 93.5t94.5 62.5t115.5 22.5q67 0 117.5 -29.5t78 -81t25.5 -118.5q-2 -63 -25.5 -117t-64.5 -94t-94.5 -62.5t-116.5 -22.5zM285 109q39 0 70 22t49.5 60t19.5 87q1 37 -10.5 62t-33 38.5t-49.5 13.5
q-38 0 -69 -22t-49.5 -60t-20.5 -87q-1 -36 11 -61.5t33.5 -39t48.5 -13.5zM360 554q-49 0 -81.5 19t-46 54.5t-4.5 83.5l4 17h72q-6 -33 9.5 -51.5t64.5 -18.5q48 0 70.5 18.5t29.5 51.5h73l-4 -17q-8 -49 -34 -84t-65 -54t-88 -19z" />
    <glyph glyph-name="Ohungarumlaut" unicode="&#x150;" horiz-adv-x="799" 
d="M358 -12q-90 0 -158.5 40.5t-105.5 111t-35 160.5q3 87 35.5 161.5t89.5 131t132 88t160 31.5q91 0 159 -40.5t105 -110.5t35 -161q-2 -86 -35.5 -161t-90 -131.5t-131 -88t-160.5 -31.5zM376 114q52 0 97.5 21t80.5 58.5t55 88t22 108.5q1 60 -18 103.5t-58 68t-96 24.5
q-53 0 -98.5 -21t-80.5 -58.5t-55 -87.5t-22 -109q-1 -59 19 -103t59 -68.5t95 -24.5zM476 760l122 187h113l-147 -187h-88zM300 760l105 187h113l-130 -187h-88z" />
    <glyph glyph-name="ohungarumlaut" unicode="&#x151;" horiz-adv-x="616" 
d="M267 -12q-67 0 -117 30t-77 82t-25 118q2 63 25 116.5t64 93.5t94.5 62.5t115.5 22.5q67 0 117.5 -29.5t78 -81t25.5 -118.5q-2 -63 -25.5 -117t-64.5 -94t-94.5 -62.5t-116.5 -22.5zM285 109q39 0 70 22t49.5 60t19.5 87q1 37 -10.5 62t-33 38.5t-49.5 13.5
q-38 0 -69 -22t-49.5 -60t-20.5 -87q-1 -36 11 -61.5t33.5 -39t48.5 -13.5zM346 548l122 187h113l-147 -187h-88zM170 548l105 187h113l-130 -187h-88z" />
    <glyph glyph-name="OE" unicode="&#x152;" horiz-adv-x="1097" 
d="M341 -12q-86 0 -150.5 41t-99 112.5t-31.5 162.5q2 87 34 161t87 129.5t126 86.5t150 31q45 0 86.5 -12t74.5 -34.5t52 -52.5l16 87h438l-21 -113h-298l-31 -177h268l-19 -109h-268l-33 -188h297l-19 -113h-438l15 85q-30 -31 -69 -52.5t-82 -33t-85 -11.5zM374 114
q52 0 97 22t79.5 60t55 89.5t21.5 109.5q2 59 -19.5 102t-61.5 66t-92 23q-50 0 -94.5 -21t-78.5 -58.5t-54.5 -87t-21.5 -106.5q-2 -61 19 -105.5t60 -69t90 -24.5z" />
    <glyph glyph-name="oe" unicode="&#x153;" horiz-adv-x="982" 
d="M267 -12q-67 0 -117 30t-77 82t-25 118q2 63 25 116.5t64 93.5t94.5 62.5t115.5 22.5q57 0 102.5 -22t72.5 -62q40 39 94 61.5t117 22.5q67 0 115 -27t73 -74t23 -108q0 -15 -2.5 -32t-5.5 -31.5t-6 -24.5h-371q-3 -32 7.5 -58t34.5 -41t58 -15q37 0 64 16.5t44 43.5h143
q-23 -50 -63.5 -89.5t-93 -62t-112.5 -22.5q-58 0 -102.5 20.5t-72.5 57.5q-38 -36 -89.5 -57t-109.5 -21zM285 109q39 0 70 22t49.5 60t19.5 87q1 37 -10.5 62t-33 38.5t-49.5 13.5q-38 0 -69 -22t-49.5 -60t-20.5 -87q-1 -36 11 -61.5t33.5 -39t48.5 -13.5zM578 300h227
q3 32 -8 54t-32.5 34t-50.5 12t-55.5 -11.5t-47.5 -33t-33 -55.5z" />
    <glyph glyph-name="Racute" unicode="&#x154;" horiz-adv-x="634" 
d="M24 0l123 700h262q76 0 125 -26t72 -69.5t22 -95.5q-2 -71 -39 -124.5t-102 -83t-151 -29.5h-124l-48 -272h-140zM392 0l-89 307h146l97 -307h-154zM230 374h117q61 0 98 32.5t38 89.5q1 39 -22.5 63t-77.5 24h-116zM269 753l5 95l239 123v0l-5 -108z" />
    <glyph glyph-name="racute" unicode="&#x155;" horiz-adv-x="411" 
d="M22 0l87 501h125l-2 -91v0q24 32 55 54.5t68.5 35.5t78.5 13l-25 -148h-44q-31 0 -57.5 -6.5t-47.5 -22t-36 -41t-21 -64.5l-41 -231h-140zM193 540l5 95l239 123v0l-5 -108z" />
    <glyph glyph-name="uni0156" unicode="&#x156;" horiz-adv-x="634" 
d="M24 0l123 700h262q76 0 125 -26t72 -69.5t22 -95.5q-2 -71 -39 -124.5t-102 -83t-151 -29.5h-124l-48 -272h-140zM392 0l-89 307h146l97 -307h-154zM230 374h117q61 0 98 32.5t38 89.5q1 39 -22.5 63t-77.5 24h-116zM161 -284l10 56q26 0 40.5 15.5t20.5 47.5l3 15h-57
l19 106h115q4 -27 3 -53t-5 -49q-11 -64 -49 -101t-100 -37z" />
    <glyph glyph-name="uni0157" unicode="&#x157;" horiz-adv-x="411" 
d="M22 0l87 501h125l-2 -91v0q24 32 55 54.5t68.5 35.5t78.5 13l-25 -148h-44q-31 0 -57.5 -6.5t-47.5 -22t-36 -41t-21 -64.5l-41 -231h-140zM-19 -284l10 56q26 0 40.5 15.5t20.5 47.5l3 15h-57l19 106h115q4 -27 3 -53t-5 -49q-11 -64 -49 -101t-100 -37z" />
    <glyph glyph-name="Rcaron" unicode="&#x158;" horiz-adv-x="634" 
d="M24 0l123 700h262q76 0 125 -26t72 -69.5t22 -95.5q-2 -71 -39 -124.5t-102 -83t-151 -29.5h-124l-48 -272h-140zM392 0l-89 307h146l97 -307h-154zM230 374h117q61 0 98 32.5t38 89.5q1 39 -22.5 63t-77.5 24h-116zM555 942l-18 -99l-164 -83l-133 83l17 99l134 -86z
" />
    <glyph glyph-name="rcaron" unicode="&#x159;" horiz-adv-x="411" 
d="M22 0l87 501h125l-2 -91v0q24 32 55 54.5t68.5 35.5t78.5 13l-25 -148h-44q-31 0 -57.5 -6.5t-47.5 -22t-36 -41t-21 -64.5l-41 -231h-140zM478 727l-17 -99l-164 -83l-133 83l17 99l133 -86z" />
    <glyph glyph-name="Sacute" unicode="&#x15a;" horiz-adv-x="607" 
d="M269 -12q-76 0 -132 26t-83.5 75.5t-16.5 121.5h149q-5 -32 6.5 -56t36.5 -37t58 -13q35 0 60 12t39 33.5t15 50.5q1 20 -7.5 35t-24 26.5t-36 20.5t-44.5 17.5t-48 17.5q-69 24 -105 66.5t-34 103.5q1 68 37 118t97.5 78t140.5 28q69 0 119.5 -23.5t75 -69.5t16.5 -111
h-150q4 26 -6 45.5t-30.5 30t-48.5 10.5q-30 0 -52.5 -10.5t-35 -29t-13.5 -43.5q0 -17 6.5 -30.5t19.5 -23.5t30.5 -18.5t39 -16.5t45.5 -16q33 -12 62.5 -28.5t52 -39t34.5 -52.5t11 -68q-1 -69 -38 -120.5t-100.5 -80.5t-145.5 -29zM288 753l5 95l239 123v0l-5 -108z" />
    <glyph glyph-name="sacute" unicode="&#x15b;" horiz-adv-x="539" 
d="M233 -12q-71 0 -119 23.5t-71.5 63.5t-19.5 90h139q0 -21 10 -37.5t29.5 -25.5t48.5 -9q26 0 44 8t28 21t10 29q1 17 -9.5 26.5t-29.5 16t-45 12.5q-33 7 -65 18.5t-57 27.5t-39 39t-13 55q1 49 30.5 86.5t81 59t117.5 21.5q92 0 143.5 -42.5t49.5 -114.5h-134
q-2 24 -22 37.5t-53 13.5t-54 -14t-22 -34q0 -13 11 -23t32 -17t50 -13q39 -9 71 -20t55 -26.5t34.5 -38t10.5 -54.5q-1 -55 -33 -95t-86 -62t-123 -22zM212 540l5 95l239 123v0l-5 -108z" />
    <glyph glyph-name="Scedilla" unicode="&#x15e;" horiz-adv-x="607" 
d="M269 -12q-76 0 -132 26t-83.5 75.5t-16.5 121.5h149q-5 -32 6.5 -56t36.5 -37t58 -13q35 0 60 12t39 33.5t15 50.5q1 20 -7.5 35t-24 26.5t-36 20.5t-44.5 17.5t-48 17.5q-69 24 -105 66.5t-34 103.5q1 68 37 118t97.5 78t140.5 28q69 0 119.5 -23.5t75 -69.5t16.5 -111
h-150q4 26 -6 45.5t-30.5 30t-48.5 10.5q-30 0 -52.5 -10.5t-35 -29t-13.5 -43.5q0 -17 6.5 -30.5t19.5 -23.5t30.5 -18.5t39 -16.5t45.5 -16q33 -12 62.5 -28.5t52 -39t34.5 -52.5t11 -68q-1 -69 -38 -120.5t-100.5 -80.5t-145.5 -29zM119 -264l14 79h117q26 0 41 8.5
t16 27.5q0 17 -10.5 23.5t-33.5 6.5h-64l22 126h87l-10 -53q30 0 56 -9t41.5 -29.5t14.5 -54.5q-1 -39 -22.5 -67t-55.5 -43t-74 -15h-139z" />
    <glyph glyph-name="scedilla" unicode="&#x15f;" horiz-adv-x="539" 
d="M233 -12q-71 0 -119 23.5t-71.5 63.5t-19.5 90h139q0 -21 10 -37.5t29.5 -25.5t48.5 -9q26 0 44 8t28 21t10 29q1 17 -9.5 26.5t-29.5 16t-45 12.5q-33 7 -65 18.5t-57 27.5t-39 39t-13 55q1 49 30.5 86.5t81 59t117.5 21.5q92 0 143.5 -42.5t49.5 -114.5h-134
q-2 24 -22 37.5t-53 13.5t-54 -14t-22 -34q0 -13 11 -23t32 -17t50 -13q39 -9 71 -20t55 -26.5t34.5 -38t10.5 -54.5q-1 -55 -33 -95t-86 -62t-123 -22zM84 -264l14 79h117q26 0 41 8.5t16 27.5q0 17 -10.5 23.5t-33.5 6.5h-64l22 126h87l-10 -53q30 0 56 -9t41.5 -29.5
t14.5 -54.5q-1 -39 -22.5 -67t-55.5 -43t-74 -15h-139z" />
    <glyph glyph-name="Scaron" unicode="&#x160;" horiz-adv-x="607" 
d="M269 -12q-76 0 -132 26t-83.5 75.5t-16.5 121.5h149q-5 -32 6.5 -56t36.5 -37t58 -13q35 0 60 12t39 33.5t15 50.5q1 20 -7.5 35t-24 26.5t-36 20.5t-44.5 17.5t-48 17.5q-69 24 -105 66.5t-34 103.5q1 68 37 118t97.5 78t140.5 28q69 0 119.5 -23.5t75 -69.5t16.5 -111
h-150q4 26 -6 45.5t-30.5 30t-48.5 10.5q-30 0 -52.5 -10.5t-35 -29t-13.5 -43.5q0 -17 6.5 -30.5t19.5 -23.5t30.5 -18.5t39 -16.5t45.5 -16q33 -12 62.5 -28.5t52 -39t34.5 -52.5t11 -68q-1 -69 -38 -120.5t-100.5 -80.5t-145.5 -29zM575 942l-18 -99l-164 -83l-133 83
l17 99l133 -86z" />
    <glyph glyph-name="scaron" unicode="&#x161;" horiz-adv-x="539" 
d="M233 -12q-71 0 -119 23.5t-71.5 63.5t-19.5 90h139q0 -21 10 -37.5t29.5 -25.5t48.5 -9q26 0 44 8t28 21t10 29q1 17 -9.5 26.5t-29.5 16t-45 12.5q-33 7 -65 18.5t-57 27.5t-39 39t-13 55q1 49 30.5 86.5t81 59t117.5 21.5q92 0 143.5 -42.5t49.5 -114.5h-134
q-2 24 -22 37.5t-53 13.5t-54 -14t-22 -34q0 -13 11 -23t32 -17t50 -13q39 -9 71 -20t55 -26.5t34.5 -38t10.5 -54.5q-1 -55 -33 -95t-86 -62t-123 -22zM497 727l-18 -99l-163 -83l-134 83l18 99l133 -86z" />
    <glyph glyph-name="uni0162" unicode="&#x162;" horiz-adv-x="601" 
d="M186 0l104 589h-204l20 111h548l-19 -111h-205l-104 -589h-140zM112 -264l14 79h117q26 0 41 8.5t16 27.5q0 17 -10.5 23.5t-33.5 6.5h-64l22 126h87l-10 -53q30 0 56 -9t41.5 -29.5t14.5 -54.5q-1 -39 -22.5 -67t-55.5 -43t-74 -15h-139z" />
    <glyph glyph-name="uni0163" unicode="&#x163;" horiz-adv-x="432" 
d="M249 0q-61 0 -98 19.5t-49.5 59.5t-1.5 101l36 204h-83l21 117h83l40 138h125l-25 -138h131l-20 -117h-132l-36 -206q-6 -34 8 -46.5t44 -12.5h70l-21 -119h-92zM85 -264l14 79h117q26 0 41 8.5t16 27.5q0 17 -10.5 23.5t-33.5 6.5h-64l22 126h87l-10 -53q30 0 56 -9
t41.5 -29.5t14.5 -54.5q-1 -39 -22.5 -67t-55.5 -43t-74 -15h-139z" />
    <glyph glyph-name="Tcaron" unicode="&#x164;" horiz-adv-x="601" 
d="M186 0l104 589h-204l20 111h548l-19 -111h-205l-104 -589h-140zM570 926l-18 -99l-163 -83l-134 83l18 99l133 -85z" />
    <glyph glyph-name="tcaron" unicode="&#x165;" horiz-adv-x="432" 
d="M249 0q-61 0 -98 19.5t-49.5 59.5t-1.5 101l36 204h-83l21 117h83l40 138h125l-25 -138h131l-20 -117h-132l-36 -206q-6 -34 8 -46.5t44 -12.5h70l-21 -119h-92zM358 553l10 56q24 0 37 8.5t17 27.5l2 18h-47l20 109h106q2 -29 1 -52t-5 -47q-10 -58 -46 -89t-95 -31z
" />
    <glyph glyph-name="Utilde" unicode="&#x168;" horiz-adv-x="688" 
d="M296 -12q-85 0 -142 33.5t-79.5 97t-7.5 152.5l75 429h140l-76 -429q-8 -48 1 -82.5t37.5 -53t76.5 -18.5q45 0 79.5 17t57.5 51.5t32 85.5l76 429h140l-76 -429q-17 -96 -66 -159t-119 -93.5t-149 -30.5zM259 770q22 68 60.5 99.5t85.5 31.5q29 0 47 -11.5t34 -23
t36 -11.5q17 0 30.5 11.5t20.5 33.5h74q-22 -68 -60 -99.5t-86 -31.5q-29 0 -47.5 11.5t-34 23t-35.5 11.5q-17 0 -30.5 -11t-21.5 -34h-73z" />
    <glyph glyph-name="utilde" unicode="&#x169;" horiz-adv-x="621" 
d="M209 -12q-65 0 -103.5 28t-51 79.5t-1.5 119.5l50 286h140l-48 -272q-9 -59 8 -91t71 -32q33 0 61.5 15t48.5 44t28 69l47 267h140l-88 -501h-123l1 79v0q-29 -41 -75 -66t-105 -25zM182 557q22 68 60.5 99.5t85.5 31.5q29 0 47 -11.5t34 -23t36 -11.5q17 0 30.5 11.5
t20.5 33.5h74q-22 -68 -60 -99.5t-86 -31.5q-29 0 -47.5 11.5t-34 23t-35.5 11.5q-17 0 -30.5 -11t-21.5 -34h-73z" />
    <glyph glyph-name="Umacron" unicode="&#x16a;" horiz-adv-x="688" 
d="M296 -12q-85 0 -142 33.5t-79.5 97t-7.5 152.5l75 429h140l-76 -429q-8 -48 1 -82.5t37.5 -53t76.5 -18.5q45 0 79.5 17t57.5 51.5t32 85.5l76 429h140l-76 -429q-17 -96 -66 -159t-119 -93.5t-149 -30.5zM260 815l17 99h381l-17 -99h-381z" />
    <glyph glyph-name="umacron" unicode="&#x16b;" horiz-adv-x="621" 
d="M209 -12q-65 0 -103.5 28t-51 79.5t-1.5 119.5l50 286h140l-48 -272q-9 -59 8 -91t71 -32q33 0 61.5 15t48.5 44t28 69l47 267h140l-88 -501h-123l1 79v0q-29 -41 -75 -66t-105 -25zM178 581l17 99h381l-17 -99h-381z" />
    <glyph glyph-name="Ubreve" unicode="&#x16c;" horiz-adv-x="688" 
d="M296 -12q-85 0 -142 33.5t-79.5 97t-7.5 152.5l75 429h140l-76 -429q-8 -48 1 -82.5t37.5 -53t76.5 -18.5q45 0 79.5 17t57.5 51.5t32 85.5l76 429h140l-76 -429q-17 -96 -66 -159t-119 -93.5t-149 -30.5zM442 770q-49 0 -81.5 19t-46 54.5t-4.5 83.5l4 17h72
q-6 -33 9.5 -51.5t64.5 -18.5q48 0 70.5 18.5t29.5 51.5h73l-4 -17q-8 -49 -34 -84t-65 -54t-88 -19z" />
    <glyph glyph-name="ubreve" unicode="&#x16d;" horiz-adv-x="621" 
d="M209 -12q-65 0 -103.5 28t-51 79.5t-1.5 119.5l50 286h140l-48 -272q-9 -59 8 -91t71 -32q33 0 61.5 15t48.5 44t28 69l47 267h140l-88 -501h-123l1 79v0q-29 -41 -75 -66t-105 -25zM364 554q-49 0 -81.5 19t-46 54.5t-4.5 83.5l4 17h72q-6 -33 9.5 -51.5t64.5 -18.5
q48 0 70.5 18.5t29.5 51.5h73l-4 -17q-8 -49 -34 -84t-65 -54t-88 -19z" />
    <glyph glyph-name="Uring" unicode="&#x16e;" horiz-adv-x="688" 
d="M296 -12q-85 0 -142 33.5t-79.5 97t-7.5 152.5l75 429h140l-76 -429q-8 -48 1 -82.5t37.5 -53t76.5 -18.5q45 0 79.5 17t57.5 51.5t32 85.5l76 429h140l-76 -429q-17 -96 -66 -159t-119 -93.5t-149 -30.5zM463 770q-48 0 -82 30.5t-34 84.5q0 53 34 83.5t82 30.5
t82 -30.5t34 -83.5q0 -54 -34 -84.5t-82 -30.5zM463 832q21 0 36 14.5t15 38.5q0 25 -15 38.5t-36 13.5t-36 -13.5t-15 -38.5q0 -24 15 -38.5t36 -14.5z" />
    <glyph glyph-name="uring" unicode="&#x16f;" horiz-adv-x="621" 
d="M209 -12q-65 0 -103.5 28t-51 79.5t-1.5 119.5l50 286h140l-48 -272q-9 -59 8 -91t71 -32q33 0 61.5 15t48.5 44t28 69l47 267h140l-88 -501h-123l1 79v0q-29 -41 -75 -66t-105 -25zM383 551q-48 0 -82 30.5t-34 84.5q0 53 34 83.5t82 30.5t82 -30.5t34 -83.5
q0 -54 -34 -84.5t-82 -30.5zM383 613q21 0 36 14.5t15 38.5q0 25 -15 38.5t-36 13.5t-36 -13.5t-15 -38.5q0 -24 15 -38.5t36 -14.5z" />
    <glyph glyph-name="Uhungarumlaut" unicode="&#x170;" horiz-adv-x="688" 
d="M296 -12q-85 0 -142 33.5t-79.5 97t-7.5 152.5l75 429h140l-76 -429q-8 -48 1 -82.5t37.5 -53t76.5 -18.5q45 0 79.5 17t57.5 51.5t32 85.5l76 429h140l-76 -429q-17 -96 -66 -159t-119 -93.5t-149 -30.5zM426 760l122 187h113l-147 -187h-88zM250 760l105 187h113
l-130 -187h-88z" />
    <glyph glyph-name="uhungarumlaut" unicode="&#x171;" horiz-adv-x="621" 
d="M209 -12q-65 0 -103.5 28t-51 79.5t-1.5 119.5l50 286h140l-48 -272q-9 -59 8 -91t71 -32q33 0 61.5 15t48.5 44t28 69l47 267h140l-88 -501h-123l1 79v0q-29 -41 -75 -66t-105 -25zM350 548l122 187h113l-147 -187h-88zM174 548l105 187h113l-130 -187h-88z" />
    <glyph glyph-name="Uogonek" unicode="&#x172;" horiz-adv-x="688" 
d="M296 -12q-85 0 -142 33.5t-79.5 97t-7.5 152.5l75 429h140l-76 -429q-8 -48 1 -82.5t37.5 -53t76.5 -18.5q45 0 79.5 17t57.5 51.5t32 85.5l76 429h140l-76 -429q-17 -96 -66 -159t-119 -93.5t-149 -30.5zM299 -203q-38 0 -67 11.5t-43.5 35.5t-8.5 60q6 28 23.5 53.5
t53.5 49.5t96 48l48 19l19 -65l-54 -25q-39 -18 -56.5 -34t-21.5 -33q-3 -18 8.5 -28.5t34.5 -10.5q15 0 34.5 4t40.5 11l-15 -82q-20 -6 -44 -10t-48 -4z" />
    <glyph glyph-name="uogonek" unicode="&#x173;" horiz-adv-x="621" 
d="M209 -12q-65 0 -103.5 28t-51 79.5t-1.5 119.5l50 286h140l-48 -272q-9 -59 8 -91t71 -32q33 0 61.5 15t48.5 44t28 69l47 267h140l-88 -501h-123l1 79v0q-29 -41 -75 -66t-105 -25zM390 -212q-38 0 -67 11.5t-43.5 35.5t-8.5 60q6 28 23.5 53.5t53.5 49.5t96 48l48 19
l19 -65l-54 -25q-39 -18 -56.5 -34t-21.5 -33q-3 -18 8.5 -28.5t34.5 -10.5q15 0 34.5 4t40.5 11l-15 -82q-20 -6 -44 -10t-48 -4z" />
    <glyph glyph-name="Wcircumflex" unicode="&#x174;" horiz-adv-x="1021" 
d="M163 0l-58 700h149l24 -540v0l236 540h156l40 -539v0l215 539h151l-311 -700h-168l-43 502v0l-224 -502h-167zM456 760l18 99l163 83l134 -83l-18 -99l-133 85z" />
    <glyph glyph-name="wcircumflex" unicode="&#x175;" horiz-adv-x="822" 
d="M120 0l-60 501h138l25 -411l-29 1l184 410h155l39 -410l-29 -1l169 411h138l-234 -501h-146l-45 422h33l-194 -422h-144zM314 545l18 99l163 83l134 -83l-18 -99l-133 85z" />
    <glyph glyph-name="Ycircumflex" unicode="&#x176;" horiz-adv-x="640" 
d="M206 0l44 244l-158 456h160l100 -337l-20 3l217 334h158l-317 -456l-44 -244h-140zM267 760l18 99l163 83l134 -83l-18 -99l-133 85z" />
    <glyph glyph-name="ycircumflex" unicode="&#x177;" horiz-adv-x="609" 
d="M47 -220l158 253h-30l-111 468h151l75 -339v0l194 339h150l-438 -721h-149zM208 545l18 99l163 83l134 -83l-18 -99l-133 85z" />
    <glyph glyph-name="Ydieresis" unicode="&#x178;" horiz-adv-x="640" 
d="M206 0l44 244l-158 456h160l100 -337l-20 3l217 334h158l-317 -456l-44 -244h-140zM337 769q-27 0 -45.5 18.5t-18.5 46.5t18.5 46.5t45.5 18.5q28 0 47 -18.5t19 -46.5t-19 -46.5t-47 -18.5zM523 769q-27 0 -45.5 18.5t-18.5 46.5t18.5 46.5t45.5 18.5q28 0 47 -18.5
t19 -46.5t-19 -46.5t-47 -18.5z" />
    <glyph glyph-name="Zacute" unicode="&#x179;" horiz-adv-x="578" 
d="M4 0l19 107l403 477h-317l21 116h478l-19 -107l-404 -477h321l-21 -116h-481zM279 753l5 95l239 123v0l-5 -108z" />
    <glyph glyph-name="zacute" unicode="&#x17a;" horiz-adv-x="494" 
d="M-12 0l21 112l304 273h-246l21 116h407l-20 -113l-309 -272h259l-21 -116h-416zM195 540l5 95l239 123v0l-5 -108z" />
    <glyph glyph-name="Zdotaccent" unicode="&#x17b;" horiz-adv-x="578" 
d="M4 0l19 107l403 477h-317l21 116h478l-19 -107l-404 -477h321l-21 -116h-481zM398 768q-28 0 -46.5 19t-18.5 46q0 28 19 47t46 19q28 0 46.5 -19t18.5 -47q0 -27 -18.5 -46t-46.5 -19z" />
    <glyph glyph-name="zdotaccent" unicode="&#x17c;" horiz-adv-x="494" 
d="M-12 0l21 112l304 273h-246l21 116h407l-20 -113l-309 -272h259l-21 -116h-416zM314 564q-28 0 -46.5 19t-18.5 46q0 28 19 47t46 19q28 0 46.5 -19t18.5 -47q0 -27 -18.5 -46t-46.5 -19z" />
    <glyph glyph-name="Zcaron" unicode="&#x17d;" horiz-adv-x="578" 
d="M4 0l19 107l403 477h-317l21 116h478l-19 -107l-404 -477h321l-21 -116h-481zM565 942l-17 -99l-164 -83l-133 83l17 99l133 -86z" />
    <glyph glyph-name="zcaron" unicode="&#x17e;" horiz-adv-x="494" 
d="M-12 0l21 112l304 273h-246l21 116h407l-20 -113l-309 -272h259l-21 -116h-416zM480 727l-18 -99l-163 -83l-134 83l18 99l133 -86z" />
    <glyph glyph-name="uni018F" unicode="&#x18f;" horiz-adv-x="767" 
d="M334 -12q-68 0 -121 21.5t-89.5 61t-54.5 94t-14 120.5q1 25 5.5 52.5t12.5 54.5h548l-18 -98h-400q-8 -56 8 -95t52.5 -60t89.5 -21q43 0 81.5 14t69.5 41t52 65.5t28 86.5l10 61q8 61 -8.5 105t-53.5 68.5t-92 24.5q-61 0 -111 -28.5t-76 -79.5h-158q31 71 85 124
t125.5 82.5t153.5 29.5q90 0 155 -37.5t99.5 -103t32.5 -149.5q-2 -91 -33 -170t-86 -138t-129.5 -92.5t-163.5 -33.5z" />
    <glyph glyph-name="florin" unicode="&#x192;" horiz-adv-x="335" 
d="M-143 -239l33 118h26q21 0 34 11.5t20 37.5l186 657q29 101 97.5 146.5t182.5 45.5l-32 -119q-46 0 -71.5 -16.5t-36.5 -56.5l-185 -657q-18 -63 -50.5 -100t-77 -52t-98.5 -15h-28zM55 438l32 116h295l-32 -116h-295z" />
    <glyph glyph-name="AEacute" unicode="&#x1fc;" horiz-adv-x="948" 
d="M-23 0l498 700h499l-20 -111h-266l-32 -179h237l-19 -107h-236l-34 -192h266l-20 -111h-406l105 594v0l-419 -594h-153zM144 133l79 107h330l-19 -107h-390zM541 753l5 95l239 123v0l-5 -108z" />
    <glyph glyph-name="aeacute" unicode="&#x1fd;" horiz-adv-x="956" 
d="M204 -12q-58 0 -97 16t-59 46t-19 71q1 52 31.5 90.5t84 60.5t126.5 22h136q6 34 1 57.5t-23.5 35.5t-53.5 12q-36 0 -65.5 -16t-41.5 -49h-136q15 54 53 94t92.5 62.5t118.5 22.5q39 0 70.5 -7.5t56 -22t40.5 -36.5q38 31 86.5 48.5t101.5 17.5q67 0 115 -27t73 -74
t23 -108q0 -15 -3 -33.5t-6 -34t-5 -20.5h-370q-4 -31 6.5 -57t34 -41.5t58.5 -15.5q40 0 68.5 19t45.5 47h140q-21 -50 -62 -91t-95 -65t-116 -24q-64 0 -112 26t-75 71q-27 -30 -62.5 -52t-76 -33.5t-84.5 -11.5zM243 96q32 0 59 14t47.5 38t32.5 54l1 7h-110
q-28 0 -48.5 -7.5t-32 -22t-12.5 -34.5q0 -15 7.5 -26.5t22 -17t33.5 -5.5zM552 300h227q4 31 -7 53t-32.5 34.5t-51.5 12.5q-29 0 -55.5 -11.5t-47.5 -33t-33 -55.5zM426 540l5 95l239 123v0l-5 -108z" />
    <glyph glyph-name="uni0218" unicode="&#x218;" horiz-adv-x="607" 
d="M269 -12q-76 0 -132 26t-83.5 75.5t-16.5 121.5h149q-5 -32 6.5 -56t36.5 -37t58 -13q35 0 60 12t39 33.5t15 50.5q1 20 -7.5 35t-24 26.5t-36 20.5t-44.5 17.5t-48 17.5q-69 24 -105 66.5t-34 103.5q1 68 37 118t97.5 78t140.5 28q69 0 119.5 -23.5t75 -69.5t16.5 -111
h-150q4 26 -6 45.5t-30.5 30t-48.5 10.5q-30 0 -52.5 -10.5t-35 -29t-13.5 -43.5q0 -17 6.5 -30.5t19.5 -23.5t30.5 -18.5t39 -16.5t45.5 -16q33 -12 62.5 -28.5t52 -39t34.5 -52.5t11 -68q-1 -69 -38 -120.5t-100.5 -80.5t-145.5 -29zM153 -284l10 56q26 0 40.5 15.5
t20.5 47.5l3 15h-57l19 106h115q4 -27 3 -53t-5 -49q-11 -64 -49 -101t-100 -37z" />
    <glyph glyph-name="uni0219" unicode="&#x219;" horiz-adv-x="539" 
d="M233 -12q-71 0 -119 23.5t-71.5 63.5t-19.5 90h139q0 -21 10 -37.5t29.5 -25.5t48.5 -9q26 0 44 8t28 21t10 29q1 17 -9.5 26.5t-29.5 16t-45 12.5q-33 7 -65 18.5t-57 27.5t-39 39t-13 55q1 49 30.5 86.5t81 59t117.5 21.5q92 0 143.5 -42.5t49.5 -114.5h-134
q-2 24 -22 37.5t-53 13.5t-54 -14t-22 -34q0 -13 11 -23t32 -17t50 -13q39 -9 71 -20t55 -26.5t34.5 -38t10.5 -54.5q-1 -55 -33 -95t-86 -62t-123 -22zM121 -284l10 56q26 0 40.5 15.5t20.5 47.5l3 15h-57l19 106h115q4 -27 3 -53t-5 -49q-11 -64 -49 -101t-100 -37z" />
    <glyph glyph-name="uni021A" unicode="&#x21a;" horiz-adv-x="601" 
d="M186 0l104 589h-204l20 111h548l-19 -111h-205l-104 -589h-140zM149 -284l10 56q26 0 40.5 15.5t20.5 47.5l3 15h-57l19 106h115q4 -27 3 -53t-5 -49q-11 -64 -49 -101t-100 -37z" />
    <glyph glyph-name="uni021B" unicode="&#x21b;" horiz-adv-x="432" 
d="M249 0q-61 0 -98 19.5t-49.5 59.5t-1.5 101l36 204h-83l21 117h83l40 138h125l-25 -138h131l-20 -117h-132l-36 -206q-6 -34 8 -46.5t44 -12.5h70l-21 -119h-92zM122 -284l10 56q26 0 40.5 15.5t20.5 47.5l3 15h-57l19 106h115q4 -27 3 -53t-5 -49q-11 -64 -49 -101
t-100 -37z" />
    <glyph glyph-name="uni0237" unicode="&#x237;" horiz-adv-x="273" 
d="M-113 -220l22 119h40q32 0 47.5 12.5t20.5 41.5l96 548h140l-96 -547q-12 -63 -40.5 -101.5t-71 -55.5t-96.5 -17h-62z" />
    <glyph glyph-name="uni0259" unicode="&#x259;" horiz-adv-x="608" 
d="M342 513q69 0 118.5 -27.5t76 -77t24.5 -116.5q-2 -62 -25 -117t-64.5 -97.5t-97.5 -66t-124 -23.5q-67 0 -115.5 27t-73.5 74t-23 108q1 23 5.5 46.5t9.5 41.5h409l-15 -85h-270q-2 -31 9 -53.5t32.5 -34t49.5 -11.5q35 0 65.5 15.5t52.5 46.5t30 78l5 29q7 38 -2.5 67
t-34 45t-61.5 16q-35 0 -61.5 -15t-43.5 -40h-143q24 49 64 87t92 60.5t111 22.5z" />
    <glyph glyph-name="circumflex" unicode="&#x2c6;" horiz-adv-x="298" 
d="M52 545l18 99l163 83l134 -83l-18 -99l-133 85z" />
    <glyph glyph-name="caron" unicode="&#x2c7;" horiz-adv-x="298" 
d="M382 727l-18 -99l-163 -83l-134 83l18 99l133 -86z" />
    <glyph glyph-name="breve" unicode="&#x2d8;" horiz-adv-x="320" 
d="M213 554q-49 0 -81.5 19t-46 54.5t-4.5 83.5l4 17h72q-6 -33 9.5 -51.5t64.5 -18.5q48 0 70.5 18.5t29.5 51.5h73l-4 -17q-8 -49 -34 -84t-65 -54t-88 -19z" />
    <glyph glyph-name="dotaccent" unicode="&#x2d9;" horiz-adv-x="132" 
d="M133 564q-28 0 -46.5 19t-18.5 46q0 28 19 47t46 19q28 0 46.5 -19t18.5 -47q0 -27 -18.5 -46t-46.5 -19z" />
    <glyph glyph-name="ring" unicode="&#x2da;" horiz-adv-x="237" 
d="M192 551q-48 0 -82 30.5t-34 84.5q0 53 34 83.5t82 30.5t82 -30.5t34 -83.5q0 -54 -34 -84.5t-82 -30.5zM192 613q21 0 36 14.5t15 38.5q0 25 -15 38.5t-36 13.5t-36 -13.5t-15 -38.5q0 -24 15 -38.5t36 -14.5z" />
    <glyph glyph-name="ogonek" unicode="&#x2db;" horiz-adv-x="227" 
d="M56 -212q-38 0 -67 11.5t-43.5 35.5t-8.5 60q6 28 23.5 53.5t53.5 49.5t96 48l48 19l19 -65l-54 -25q-39 -18 -56.5 -34t-21.5 -33q-3 -18 8.5 -28.5t34.5 -10.5q15 0 34.5 4t40.5 11l-15 -82q-20 -6 -44 -10t-48 -4z" />
    <glyph glyph-name="tilde" unicode="&#x2dc;" horiz-adv-x="365" 
d="M54 557q22 68 60.5 99.5t85.5 31.5q29 0 47 -11.5t34 -23t36 -11.5q17 0 30.5 11.5t20.5 33.5h74q-22 -68 -60 -99.5t-86 -31.5q-29 0 -47.5 11.5t-34 23t-35.5 11.5q-17 0 -30.5 -11t-21.5 -34h-73z" />
    <glyph glyph-name="hungarumlaut" unicode="&#x2dd;" horiz-adv-x="378" 
d="M228 548l122 187h113l-147 -187h-88zM52 548l105 187h113l-130 -187h-88z" />
    <glyph glyph-name="gravecomb" unicode="&#x300;" 
d="M277 540l-206 110l28 108v0l203 -123z" />
    <glyph glyph-name="acutecomb" unicode="&#x301;" 
d="M63 540l5 95l239 123v0l-5 -108z" />
    <glyph glyph-name="uni0302" unicode="&#x302;" 
d="M52 545l18 99l163 83l134 -83l-18 -99l-133 85z" />
    <glyph glyph-name="tildecomb" unicode="&#x303;" 
d="M54 557q22 68 60.5 99.5t85.5 31.5q29 0 47 -11.5t34 -23t36 -11.5q17 0 30.5 11.5t20.5 33.5h74q-22 -68 -60 -99.5t-86 -31.5q-29 0 -47.5 11.5t-34 23t-35.5 11.5q-17 0 -30.5 -11t-21.5 -34h-73z" />
    <glyph glyph-name="uni0304" unicode="&#x304;" 
d="M59 581l17 99h381l-17 -99h-381z" />
    <glyph glyph-name="uni0306" unicode="&#x306;" 
d="M213 554q-49 0 -81.5 19t-46 54.5t-4.5 83.5l4 17h72q-6 -33 9.5 -51.5t64.5 -18.5q48 0 70.5 18.5t29.5 51.5h73l-4 -17q-8 -49 -34 -84t-65 -54t-88 -19z" />
    <glyph glyph-name="uni0307" unicode="&#x307;" 
d="M133 564q-28 0 -46.5 19t-18.5 46q0 28 19 47t46 19q28 0 46.5 -19t18.5 -47q0 -27 -18.5 -46t-46.5 -19z" />
    <glyph glyph-name="uni0308" unicode="&#x308;" 
d="M133 567q-27 0 -45.5 18.5t-18.5 46.5t18.5 46.5t45.5 18.5q28 0 47 -18.5t19 -46.5t-19 -46.5t-47 -18.5zM319 567q-27 0 -45.5 18.5t-18.5 46.5t18.5 46.5t45.5 18.5q28 0 47 -18.5t19 -46.5t-19 -46.5t-47 -18.5z" />
    <glyph glyph-name="uni030A" unicode="&#x30a;" 
d="M192 551q-48 0 -82 30.5t-34 84.5q0 53 34 83.5t82 30.5t82 -30.5t34 -83.5q0 -54 -34 -84.5t-82 -30.5zM192 613q21 0 36 14.5t15 38.5q0 25 -15 38.5t-36 13.5t-36 -13.5t-15 -38.5q0 -24 15 -38.5t36 -14.5z" />
    <glyph glyph-name="uni030B" unicode="&#x30b;" 
d="M228 548l122 187h113l-147 -187h-88zM52 548l105 187h113l-130 -187h-88z" />
    <glyph glyph-name="uni030C" unicode="&#x30c;" 
d="M382 727l-18 -99l-163 -83l-134 83l18 99l133 -86z" />
    <glyph glyph-name="uni0312" unicode="&#x312;" 
d="M213 782l-9 -56q-23 0 -36.5 -9t-17.5 -28l-2 -18h46l-19 -108h-107q-1 29 0 52t5 47q10 57 45.5 88.5t94.5 31.5z" />
    <glyph glyph-name="uni0326" unicode="&#x326;" 
d="M-87 -284l10 56q26 0 40.5 15.5t20.5 47.5l3 15h-57l19 106h115q4 -27 3 -53t-5 -49q-11 -64 -49 -101t-100 -37z" />
    <glyph glyph-name="uni0327" unicode="&#x327;" 
d="M-91 -264l14 79h117q26 0 41 8.5t16 27.5q0 17 -10.5 23.5t-33.5 6.5h-64l22 126h87l-10 -53q30 0 56 -9t41.5 -29.5t14.5 -54.5q-1 -39 -22.5 -67t-55.5 -43t-74 -15h-139z" />
    <glyph glyph-name="uni0328" unicode="&#x328;" 
d="M56 -212q-38 0 -67 11.5t-43.5 35.5t-8.5 60q6 28 23.5 53.5t53.5 49.5t96 48l48 19l19 -65l-54 -25q-39 -18 -56.5 -34t-21.5 -33q-3 -18 8.5 -28.5t34.5 -10.5q15 0 34.5 4t40.5 11l-15 -82q-20 -6 -44 -10t-48 -4z" />
    <glyph glyph-name="pi" unicode="&#x3c0;" horiz-adv-x="647" 
d="M58 0l70 393h-73l19 108h588l-19 -108h-74l-69 -393h-140l69 393h-161l-70 -393h-140z" />
    <glyph glyph-name="Wgrave" unicode="&#x1e80;" horiz-adv-x="1021" 
d="M163 0l-58 700h149l24 -540v0l236 540h156l40 -539v0l215 539h151l-311 -700h-168l-43 502v0l-224 -502h-167zM713 753l-206 110l28 108v0l203 -123z" />
    <glyph glyph-name="wgrave" unicode="&#x1e81;" horiz-adv-x="822" 
d="M120 0l-60 501h138l25 -411l-29 1l184 410h155l39 -410l-29 -1l169 411h138l-234 -501h-146l-45 422h33l-194 -422h-144zM571 540l-206 110l28 108v0l203 -123z" />
    <glyph glyph-name="Wacute" unicode="&#x1e82;" horiz-adv-x="1021" 
d="M163 0l-58 700h149l24 -540v0l236 540h156l40 -539v0l215 539h151l-311 -700h-168l-43 502v0l-224 -502h-167zM501 753l5 95l239 123v0l-5 -108z" />
    <glyph glyph-name="wacute" unicode="&#x1e83;" horiz-adv-x="822" 
d="M120 0l-60 501h138l25 -411l-29 1l184 410h155l39 -410l-29 -1l169 411h138l-234 -501h-146l-45 422h33l-194 -422h-144zM358 540l5 95l239 123v0l-5 -108z" />
    <glyph glyph-name="Wdieresis" unicode="&#x1e84;" horiz-adv-x="1021" 
d="M163 0l-58 700h149l24 -540v0l236 540h156l40 -539v0l215 539h151l-311 -700h-168l-43 502v0l-224 -502h-167zM527 769q-27 0 -45.5 18.5t-18.5 46.5t18.5 46.5t45.5 18.5q28 0 47 -18.5t19 -46.5t-19 -46.5t-47 -18.5zM713 769q-27 0 -45.5 18.5t-18.5 46.5t18.5 46.5
t45.5 18.5q28 0 47 -18.5t19 -46.5t-19 -46.5t-47 -18.5z" />
    <glyph glyph-name="wdieresis" unicode="&#x1e85;" horiz-adv-x="822" 
d="M120 0l-60 501h138l25 -411l-29 1l184 410h155l39 -410l-29 -1l169 411h138l-234 -501h-146l-45 422h33l-194 -422h-144zM385 567q-27 0 -45.5 18.5t-18.5 46.5t18.5 46.5t45.5 18.5q28 0 47 -18.5t19 -46.5t-19 -46.5t-47 -18.5zM571 567q-27 0 -45.5 18.5t-18.5 46.5
t18.5 46.5t45.5 18.5q28 0 47 -18.5t19 -46.5t-19 -46.5t-47 -18.5z" />
    <glyph glyph-name="uni1E9E" unicode="&#x1e9e;" horiz-adv-x="738" 
d="M429 -6q-106 0 -154.5 57.5t-29.5 168.5h137q-6 -32 -2.5 -57t20.5 -38.5t50 -13.5q31 0 51.5 14t33.5 39t19 56q11 63 -14 92t-85 29h-108l16 92l169 148h-208q-32 0 -47.5 -13t-21.5 -42l-92 -526h-140l93 526q11 64 39.5 102t71 55t96.5 17h394l-19 -106l-191 -163h15
q65 0 105 -27t55 -74t5 -108q-13 -72 -47 -123t-87 -78t-124 -27z" />
    <glyph glyph-name="uni1EBC" unicode="&#x1ebc;" horiz-adv-x="564" 
d="M23 0l124 700h444l-20 -111h-304l-31 -180h273l-18 -107h-274l-34 -191h304l-20 -111h-444zM195 770q22 68 60.5 99.5t85.5 31.5q29 0 47 -11.5t34 -23t36 -11.5q17 0 30.5 11.5t20.5 33.5h74q-22 -68 -60 -99.5t-86 -31.5q-29 0 -47.5 11.5t-34 23t-35.5 11.5
q-17 0 -30.5 -11t-21.5 -34h-73z" />
    <glyph glyph-name="uni1EBD" unicode="&#x1ebd;" horiz-adv-x="608" 
d="M266 -12q-69 0 -119 27t-76 77t-24 117q2 62 25 117t64 97t97 66t124 24t116 -27t73 -74t23 -108q0 -23 -4.5 -46t-9.5 -42h-409l15 84h269q3 32 -8 54t-32.5 34t-50.5 12q-34 0 -64.5 -15.5t-52.5 -46.5t-30 -78l-5 -30q-7 -37 2.5 -66t34 -45.5t60.5 -16.5t62.5 15.5
t43.5 39.5h142q-22 -48 -62.5 -86.5t-92.5 -60.5t-111 -22zM181 557q22 68 60.5 99.5t85.5 31.5q29 0 47 -11.5t34 -23t36 -11.5q17 0 30.5 11.5t20.5 33.5h74q-22 -68 -60 -99.5t-86 -31.5q-29 0 -47.5 11.5t-34 23t-35.5 11.5q-17 0 -30.5 -11t-21.5 -34h-73z" />
    <glyph glyph-name="Ygrave" unicode="&#x1ef2;" horiz-adv-x="640" 
d="M206 0l44 244l-158 456h160l100 -337l-20 3l217 334h158l-317 -456l-44 -244h-140zM523 753l-206 110l28 108v0l203 -123z" />
    <glyph glyph-name="ygrave" unicode="&#x1ef3;" horiz-adv-x="609" 
d="M47 -220l158 253h-30l-111 468h151l75 -339v0l194 339h150l-438 -721h-149zM465 540l-206 110l28 108v0l203 -123z" />
    <glyph glyph-name="uni1EF8" unicode="&#x1ef8;" horiz-adv-x="640" 
d="M206 0l44 244l-158 456h160l100 -337l-20 3l217 334h158l-317 -456l-44 -244h-140zM236 770q22 68 60.5 99.5t85.5 31.5q29 0 47 -11.5t34 -23t36 -11.5q17 0 30.5 11.5t20.5 33.5h74q-22 -68 -60 -99.5t-86 -31.5q-29 0 -47.5 11.5t-34 23t-35.5 11.5q-17 0 -30.5 -11
t-21.5 -34h-73z" />
    <glyph glyph-name="uni1EF9" unicode="&#x1ef9;" horiz-adv-x="609" 
d="M47 -220l158 253h-30l-111 468h151l75 -339v0l194 339h150l-438 -721h-149zM176 557q22 68 60.5 99.5t85.5 31.5q29 0 47 -11.5t34 -23t36 -11.5q17 0 30.5 11.5t20.5 33.5h74q-22 -68 -60 -99.5t-86 -31.5q-29 0 -47.5 11.5t-34 23t-35.5 11.5q-17 0 -30.5 -11
t-21.5 -34h-73z" />
    <glyph glyph-name="endash" unicode="&#x2013;" horiz-adv-x="652" 
d="M75 234l20 117h544l-21 -117h-543z" />
    <glyph glyph-name="emdash" unicode="&#x2014;" horiz-adv-x="876" 
d="M75 234l20 117h768l-21 -117h-767z" />
    <glyph glyph-name="quoteleft" unicode="&#x2018;" horiz-adv-x="281" 
d="M76 444l150 256h95l-99 -256h-146z" />
    <glyph glyph-name="quoteright" unicode="&#x2019;" horiz-adv-x="281" 
d="M317 700l-150 -256h-95l99 256h146z" />
    <glyph glyph-name="quotesinglbase" unicode="&#x201a;" horiz-adv-x="259" 
d="M-41 -110l99 254h146l-150 -254h-95z" />
    <glyph glyph-name="quotedblleft" unicode="&#x201c;" horiz-adv-x="487" 
d="M282 444l150 256h95l-98 -256h-147zM76 444l150 256h95l-99 -256h-146z" />
    <glyph glyph-name="quotedblright" unicode="&#x201d;" horiz-adv-x="487" 
d="M317 699l-149 -256h-96l99 256h146zM524 699l-150 -256h-95l99 256h146z" />
    <glyph glyph-name="quotedblbase" unicode="&#x201e;" horiz-adv-x="467" 
d="M-41 -110l99 254h146l-150 -254h-95zM168 -110l98 254h146l-149 -254h-95z" />
    <glyph glyph-name="dagger" unicode="&#x2020;" horiz-adv-x="610" 
d="M144 -264l141 722l-203 -11l19 107l200 -11l28 243h140l-56 -243l204 11l-19 -107l-201 11l-113 -722h-140z" />
    <glyph glyph-name="daggerdbl" unicode="&#x2021;" horiz-adv-x="612" 
d="M144 -264l58 243l-204 -11l19 108l199 -11l70 393l-204 -11l19 107l200 -11l29 243h139l-56 -243l205 11l-20 -107l-200 11l-69 -393l205 11l-20 -108l-200 11l-30 -243h-140z" />
    <glyph glyph-name="bullet" unicode="&#x2022;" horiz-adv-x="392" 
d="M210 194q-38 0 -69.5 18.5t-50.5 50t-19 70.5q0 40 19 71.5t50.5 50t69.5 18.5q41 0 72.5 -18.5t50 -50t18.5 -71.5q0 -39 -18.5 -70.5t-50 -50t-72.5 -18.5z" />
    <glyph glyph-name="ellipsis" unicode="&#x2026;" horiz-adv-x="699" 
d="M318 -7q-37 0 -61 23.5t-24 56.5q0 34 24 57.5t61 23.5t61 -23.5t24 -56.5q0 -34 -24 -57.5t-61 -23.5zM538 -7q-37 0 -61 23.5t-24 56.5q0 34 24 57.5t61 23.5t61 -23.5t24 -56.5q0 -34 -24 -57.5t-61 -23.5zM97 -7q-37 0 -61 23.5t-24 56.5q0 34 24 57.5t61 23.5
t61 -23.5t24 -56.5q0 -34 -24 -57.5t-61 -23.5z" />
    <glyph glyph-name="perthousand" unicode="&#x2030;" horiz-adv-x="1297" 
d="M1038 -12q-44 0 -78.5 18.5t-54 52.5t-18.5 81q2 59 29.5 106.5t74 74.5t103.5 27q44 0 78.5 -18t53.5 -52t18 -81q-2 -59 -29.5 -106.5t-73 -75t-103.5 -27.5zM1050 83q24 0 42.5 14t29.5 38t12 53q1 34 -14 50.5t-40 16.5q-22 0 -40.5 -14t-30 -38t-12.5 -55
q-1 -32 14 -48.5t39 -16.5zM145 0l515 700h136l-515 -700h-136zM650 -12q-44 0 -78.5 18.5t-54 52.5t-18.5 81q2 59 29.5 106.5t74 74.5t102.5 27q45 0 79.5 -18t53.5 -52t17 -81q-1 -59 -28.5 -106.5t-73 -75t-103.5 -27.5zM240 351q-44 0 -79 18.5t-54.5 52.5t-17.5 81
q1 60 28.5 106.5t74 74.5t103.5 28q44 0 78.5 -18.5t53.5 -52.5t18 -81q-2 -60 -29.5 -107t-73 -74.5t-102.5 -27.5zM662 83q23 0 41.5 14t30 38t12.5 53q1 34 -14 50.5t-40 16.5q-22 0 -41 -14t-30 -38t-12 -55q-1 -32 14 -48.5t39 -16.5zM251 446q23 0 41.5 14t30.5 37.5
t12 54.5q1 32 -14 49t-40 17q-22 0 -41 -14t-30 -38t-12 -54q-1 -33 14 -49.5t39 -16.5z" />
    <glyph glyph-name="guilsinglleft" unicode="&#x2039;" horiz-adv-x="312" 
d="M107 120l-58 175l120 175h131l-123 -175l61 -175h-131z" />
    <glyph glyph-name="guilsinglright" unicode="&#x203a;" horiz-adv-x="312" 
d="M220 470l58 -175l-120 -175h-131l123 175l-61 175h131z" />
    <glyph glyph-name="fraction" unicode="&#x2044;" horiz-adv-x="520" 
d="M-46 0l515 700h136l-515 -700h-136z" />
    <glyph glyph-name="uni2074" unicode="&#x2074;" horiz-adv-x="353" 
d="M209 352l11 60h-164l12 70l191 218h115l-38 -216h37l-14 -72h-36l-10 -60h-104zM170 484h70l18 103v0z" />
    <glyph glyph-name="uni20A8" unicode="&#x20a8;" horiz-adv-x="1113" 
d="M24 0l123 700h262q76 0 125 -26t72 -69.5t22 -95.5q-2 -71 -39 -124.5t-102 -83t-151 -29.5h-124l-48 -272h-140zM392 0l-89 307h146l97 -307h-154zM230 374h117q61 0 98 32.5t38 89.5q1 39 -22.5 63t-77.5 24h-116zM807 -12q-71 0 -119 23.5t-71.5 63.5t-19.5 90h139
q0 -21 10 -37.5t29.5 -25.5t48.5 -9q26 0 44 8t28 21t10 29q1 17 -9.5 26.5t-29.5 16t-45 12.5q-33 7 -65 18.5t-57 27.5t-39 39t-13 55q1 49 30.5 86.5t81 59t117.5 21.5q92 0 143.5 -42.5t49.5 -114.5h-134q-2 24 -22 37.5t-53 13.5t-54 -14t-22 -34q0 -13 11 -23t32 -17
t50 -13q39 -9 71 -20t55 -26.5t34.5 -38t10.5 -54.5q-1 -55 -33 -95t-86 -62t-123 -22z" />
    <glyph glyph-name="Euro" unicode="&#x20ac;" horiz-adv-x="796" 
d="M19 237l14 79h432l-14 -79h-432zM45 385l14 80h432l-14 -80h-432zM394 -12q-94 0 -158 37t-96 103t-29 153q2 92 33.5 170.5t86.5 137t129 91t159 32.5q128 0 199 -64t71 -180h-155q-1 56 -36.5 86.5t-100.5 30.5q-52 0 -95.5 -21.5t-76 -60.5t-50.5 -92t-20 -116
q-2 -57 16.5 -97.5t55.5 -62t89 -21.5q66 0 110 28t65 80h154q-26 -74 -77 -126.5t-120.5 -80t-153.5 -27.5z" />
    <glyph glyph-name="uni20B9" unicode="&#x20b9;" horiz-adv-x="614" 
d="M247 -10q-107 0 -154 56.5t-27 168.5l24 134q93 0 148.5 5t85 20.5t43.5 47.5t23 87l25 141h131l-24 -139q-11 -64 -33.5 -112t-60 -80t-92.5 -47.5t-132 -15.5l-10 -57q-8 -45 6 -74t63 -29q46 0 70 27t32 75h130q-20 -99 -83 -153.5t-165 -54.5zM76 438l17 88h534
l-16 -88h-535zM106 605l18 96h533l-17 -96h-534z" />
    <glyph glyph-name="uni20BA" unicode="&#x20ba;" horiz-adv-x="827" 
d="M334 -12q-50 0 -104.5 7t-112.5 19l122 691h142l-102 -578q20 -4 39 -6t38 -2q70 0 119 23.5t82.5 66.5t54 102t33.5 130h142q-26 -155 -82 -255t-146.5 -149t-224.5 -49zM14 216l15 90l448 88l-16 -90zM41 380l15 87l451 92l-16 -89z" />
    <glyph glyph-name="uni20BD" unicode="&#x20bd;" horiz-adv-x="660" 
d="M-1 98l19 108h92l12 74h-91l19 109h92l55 311h257q76 0 124.5 -24t71.5 -65.5t22 -97.5q-2 -68 -40 -121t-103 -82.5t-149 -29.5h-117l-13 -74h179l-19 -108h-179l-18 -98h-140l18 98h-92zM282 389h111q65 0 99 33t35 85q1 40 -22 63t-76 23h-111z" />
    <glyph glyph-name="uni2113" unicode="&#x2113;" horiz-adv-x="277" 
d="M6 -100l146 820h140l-146 -820h-140z" />
    <glyph glyph-name="trademark" unicode="&#x2122;" horiz-adv-x="844" 
d="M92 617l15 83h272l-14 -83h-85l-48 -268h-103l48 268h-85zM369 349l62 351h138l45 -227l135 227h127l-62 -351h-95l38 223l-134 -223h-70l-52 230l-40 -230h-92z" />
    <glyph glyph-name="uni2126" unicode="&#x2126;" horiz-adv-x="794" 
d="M5 0l20 107h194l-29 -34q-43 20 -73 58.5t-46 86.5t-16 95q0 87 33 160t91.5 126.5t135.5 83t165 29.5q66 0 121 -20t95.5 -57t62.5 -89t22 -117q0 -80 -28 -150t-81.5 -123.5t-129.5 -82.5l-15 34h195l-20 -107h-272l21 111q43 21 77 52t58 70t37 82.5t13 89.5
q0 42 -12.5 75t-36.5 56.5t-56.5 35.5t-73.5 12q-59 0 -107 -22t-82.5 -60.5t-53 -89.5t-18.5 -108q0 -43 13 -81t36 -66.5t53 -45.5l-21 -111h-272z" />
    <glyph glyph-name="estimated" unicode="&#x212e;" horiz-adv-x="763" 
d="M344 -7q-105 0 -175.5 42.5t-100 119.5t-10.5 179q14 79 48 147t86 118.5t119.5 79.5t148.5 29q87 0 145.5 -29t92 -78t43.5 -109.5t-2 -124.5l-10 -49h-505l-31 -178q30 -31 70.5 -47t95.5 -16q49 0 93.5 14t87.5 40t86 63l42 -59q-74 -67 -155 -104.5t-169 -37.5z
M238 397h333l30 170q-25 29 -64 44t-91 15q-53 0 -98 -17t-82 -51z" />
    <glyph glyph-name="arrowleft" unicode="&#x2190;" horiz-adv-x="758" 
d="M745 285h-504l245 -219l-88 -89l-353 329v83l353 329l88 -88l-246 -220h505v-125z" />
    <glyph glyph-name="arrowup" unicode="&#x2191;" horiz-adv-x="853" 
d="M37 346l365 354h83l365 -354l-88 -88l-253 248v-506h-132v506l-252 -247z" />
    <glyph glyph-name="arrowright" unicode="&#x2192;" horiz-adv-x="758" 
d="M48 285v125h504l-245 220l87 88l354 -329v-83l-354 -329l-88 89l246 219h-504z" />
    <glyph glyph-name="arrowdown" unicode="&#x2193;" horiz-adv-x="853" 
d="M38 354l88 87l253 -247v506h132v-506l252 248l88 -88l-364 -354h-84z" />
    <glyph glyph-name="arrowboth" unicode="&#x2194;" horiz-adv-x="922" 
d="M44 304v84l290 315l88 -74l-205 -219h523l-206 219l88 74l290 -315v-84l-290 -315l-88 74l209 224h-530l209 -224l-88 -74z" />
    <glyph glyph-name="arrowupdn" unicode="&#x2195;" horiz-adv-x="819" 
d="M62 214l72 88l230 -150v398l-230 -150l-72 88l323 214h84l323 -214l-73 -88l-229 149v-396l229 149l73 -88l-323 -214h-84z" />
    <glyph glyph-name="uni2196" unicode="&#x2196;" horiz-adv-x="687" 
d="M554 44l-358 357v-353h-122v510l59 59h510v-122h-355l359 -359z" />
    <glyph glyph-name="uni2197" unicode="&#x2197;" horiz-adv-x="709" 
d="M175 56l-92 92l359 359h-355v122h509l59 -59v-510h-122v353z" />
    <glyph glyph-name="uni2198" unicode="&#x2198;" horiz-adv-x="687" 
d="M163 628l358 -357v353h122v-510l-59 -59h-510v122h355l-359 359z" />
    <glyph glyph-name="uni2199" unicode="&#x2199;" horiz-adv-x="709" 
d="M565 628l93 -92l-359 -359h355v-122h-509l-59 59v510h122v-353z" />
    <glyph glyph-name="partialdiff" unicode="&#x2202;" horiz-adv-x="598" 
d="M210 -8q-59 0 -104.5 26.5t-66 81.5t-5.5 139q12 68 42.5 126.5t75.5 102t98.5 68t110.5 24.5q26 0 47 -6.5t37 -21.5t24 -40q4 49 -6.5 87t-38.5 59t-79 21q-16 0 -33.5 -2t-38.5 -7l13 74q31 9 58.5 12.5t52.5 3.5q82 0 131 -40t64.5 -114.5t-2.5 -177.5
q-17 -97 -53 -174t-86.5 -131t-111.5 -82.5t-129 -28.5zM246 112q31 0 59.5 16t52 44.5t40 66.5t24.5 81q11 62 -9.5 92t-61.5 30q-32 0 -60 -15t-51 -43t-40 -64.5t-24 -79.5q-8 -45 -0.5 -73.5t26 -41.5t44.5 -13z" />
    <glyph glyph-name="uni2206" unicode="&#x2206;" horiz-adv-x="717" 
d="M-23 0l19 107l385 593h114l175 -593l-19 -107h-674zM140 107h386l-116 434z" />
    <glyph glyph-name="product" unicode="&#x220f;" horiz-adv-x="740" 
d="M55 0l105 593h-73l19 107h688l-20 -107h-74l-104 -593h-140l104 593h-260l-105 -593h-140z" />
    <glyph glyph-name="summation" unicode="&#x2211;" horiz-adv-x="505" 
d="M-9 -50l30 163l284 220l-210 205l30 162h432l-19 -107h-314l220 -211l-17 -101l-293 -224h309l-19 -107h-433z" />
    <glyph glyph-name="minus" unicode="&#x2212;" horiz-adv-x="582" 
d="M76 231l20 117h424l-20 -117h-424z" />
    <glyph glyph-name="uni2215" unicode="&#x2215;" horiz-adv-x="429" 
d="M-42 -116l408 897h135l-408 -897h-135z" />
    <glyph glyph-name="radical" unicode="&#x221a;" horiz-adv-x="801" 
d="M15 229l219 116l87 -226l560 771h88l-678 -932h-68l-96 247l-83 -44z" />
    <glyph glyph-name="infinity" unicode="&#x221e;" horiz-adv-x="748" 
d="M181 124q-64 0 -104.5 36.5t-38.5 105.5q1 54 27.5 95.5t71 65.5t99.5 24q47 0 78.5 -17t54 -43.5t39.5 -56t33.5 -56t38 -43t52.5 -16.5q35 0 57 22t22 54q1 30 -15.5 45.5t-43.5 15.5q-36 0 -73 -27t-63 -72l-63 30q20 44 52.5 81t77 60t96.5 23q66 0 106.5 -37
t38.5 -105q-1 -53 -28.5 -95t-72.5 -66t-100 -24q-47 0 -80 17t-56.5 43.5t-42 56t-35 56t-36.5 43t-47 16.5q-31 0 -53 -22t-23 -55q-1 -29 16.5 -44.5t43.5 -15.5q37 0 73 27t62 72l63 -30q-19 -43 -52 -80.5t-77.5 -60.5t-97.5 -23z" />
    <glyph glyph-name="integral" unicode="&#x222b;" horiz-adv-x="280" 
d="M-132 -239l32 118h18q21 0 33 11.5t19 37.5l237 839q18 63 50 99.5t76.5 51t96.5 14.5h19l-33 -118h-17q-19 0 -31.5 -11t-20.5 -36l-237 -839q-18 -63 -50 -100t-76 -52t-97 -15h-19z" />
    <glyph glyph-name="approxequal" unicode="&#x2248;" horiz-adv-x="582" 
d="M348 79q-31 0 -54.5 10t-41.5 23.5t-36 23.5t-40 10q-25 0 -45 -17t-31 -49h-104q23 67 55 109t71.5 61.5t83.5 19.5q32 0 55 -10t42 -23t36.5 -23.5t39.5 -10.5q26 0 45.5 17t29.5 50h105q-21 -66 -53.5 -108.5t-72 -62.5t-85.5 -20zM389 314q-31 0 -54.5 10t-41.5 23.5
t-36 23.5t-40 10q-25 0 -45 -17t-31 -49h-104q23 67 55 109t71.5 61.5t83.5 19.5q32 0 55 -10t42 -23t36.5 -23.5t39.5 -10.5q26 0 45.5 17t29.5 50h105q-21 -66 -53.5 -108.5t-72 -62.5t-85.5 -20z" />
    <glyph glyph-name="notequal" unicode="&#x2260;" horiz-adv-x="582" 
d="M58 48l339 483h107l-338 -483h-108zM92 341l22 123h431l-22 -123h-431zM52 116l22 122h432l-22 -122h-432z" />
    <glyph glyph-name="lessequal" unicode="&#x2264;" horiz-adv-x="582" 
d="M313 263l-186 187v0l252 188h177l-250 -188l184 -187h-177zM79 89l18 107h381l-19 -107h-380z" />
    <glyph glyph-name="greaterequal" unicode="&#x2265;" horiz-adv-x="582" 
d="M100 263l250 187l-184 188h177l185 -188v0l-251 -187h-177zM60 89l19 107h381l-19 -107h-381z" />
    <glyph glyph-name="lozenge" unicode="&#x25ca;" horiz-adv-x="561" 
d="M254 97l-210 255l300 254l209 -254zM278 234l138 118l-96 117l-138 -117z" />
    <glyph glyph-name="Q.ss06" horiz-adv-x="802" 
d="M516 -125l-123 187l138 30l158 -217h-173zM358 -12q-90 0 -158.5 40.5t-105.5 111t-35 160.5q3 87 35.5 161.5t89.5 131t132 88t160 31.5q91 0 159 -40.5t105 -110.5t35 -161q-2 -86 -35.5 -161t-90 -131.5t-131 -88t-160.5 -31.5zM376 114q52 0 97.5 21t80.5 58.5t55 88
t22 108.5q1 60 -18 103.5t-58 68t-96 24.5q-53 0 -98.5 -21t-80.5 -58.5t-55 -87.5t-22 -109q-1 -59 19 -103t59 -68.5t95 -24.5z" />
    <glyph glyph-name="i.loclTRK" horiz-adv-x="271" 
d="M21 0l88 501h140l-88 -501h-140zM202 564q-28 0 -46.5 19t-18.5 46q0 28 19 47t46 19q28 0 46.5 -19t18.5 -47q0 -27 -18.5 -46t-46.5 -19z" />
    <glyph glyph-name="a.ss02" horiz-adv-x="653" 
d="M242 -12q-61 0 -105.5 30t-67.5 81.5t-21 115.5t24 118t60.5 94.5t88.5 63t107 22.5q60 0 97 -22t56 -54l27 64h124l-88 -501h-125l-4 68v0q-18 -22 -43 -40t-57 -29t-73 -11zM300 110q43 0 77 22.5t55 60t22 82.5q1 34 -12 60.5t-38 41t-59 14.5q-43 0 -77 -21
t-54 -57.5t-21 -81.5q-2 -34 10.5 -62t37 -43.5t59.5 -15.5z" />
    <glyph glyph-name="aacute.ss02" horiz-adv-x="653" 
d="M242 -12q-61 0 -105.5 30t-67.5 81.5t-21 115.5t24 118t60.5 94.5t88.5 63t107 22.5q60 0 97 -22t56 -54l27 64h124l-88 -501h-125l-4 68v0q-18 -22 -43 -40t-57 -29t-73 -11zM300 110q43 0 77 22.5t55 60t22 82.5q1 34 -12 60.5t-38 41t-59 14.5q-43 0 -77 -21
t-54 -57.5t-21 -81.5q-2 -34 10.5 -62t37 -43.5t59.5 -15.5zM271 540l5 95l239 123v0l-5 -108z" />
    <glyph glyph-name="abreve.ss02" horiz-adv-x="653" 
d="M242 -12q-61 0 -105.5 30t-67.5 81.5t-21 115.5t24 118t60.5 94.5t88.5 63t107 22.5q60 0 97 -22t56 -54l27 64h124l-88 -501h-125l-4 68v0q-18 -22 -43 -40t-57 -29t-73 -11zM300 110q43 0 77 22.5t55 60t22 82.5q1 34 -12 60.5t-38 41t-59 14.5q-43 0 -77 -21
t-54 -57.5t-21 -81.5q-2 -34 10.5 -62t37 -43.5t59.5 -15.5zM377 554q-49 0 -81.5 19t-46 54.5t-4.5 83.5l4 17h72q-6 -33 9.5 -51.5t64.5 -18.5q48 0 70.5 18.5t29.5 51.5h73l-4 -17q-8 -49 -34 -84t-65 -54t-88 -19z" />
    <glyph glyph-name="acircumflex.ss02" horiz-adv-x="653" 
d="M242 -12q-61 0 -105.5 30t-67.5 81.5t-21 115.5t24 118t60.5 94.5t88.5 63t107 22.5q60 0 97 -22t56 -54l27 64h124l-88 -501h-125l-4 68v0q-18 -22 -43 -40t-57 -29t-73 -11zM300 110q43 0 77 22.5t55 60t22 82.5q1 34 -12 60.5t-38 41t-59 14.5q-43 0 -77 -21
t-54 -57.5t-21 -81.5q-2 -34 10.5 -62t37 -43.5t59.5 -15.5zM227 545l18 99l163 83l134 -83l-18 -99l-133 85z" />
    <glyph glyph-name="adieresis.ss02" horiz-adv-x="653" 
d="M242 -12q-61 0 -105.5 30t-67.5 81.5t-21 115.5t24 118t60.5 94.5t88.5 63t107 22.5q60 0 97 -22t56 -54l27 64h124l-88 -501h-125l-4 68v0q-18 -22 -43 -40t-57 -29t-73 -11zM300 110q43 0 77 22.5t55 60t22 82.5q1 34 -12 60.5t-38 41t-59 14.5q-43 0 -77 -21
t-54 -57.5t-21 -81.5q-2 -34 10.5 -62t37 -43.5t59.5 -15.5zM297 567q-27 0 -45.5 18.5t-18.5 46.5t18.5 46.5t45.5 18.5q28 0 47 -18.5t19 -46.5t-19 -46.5t-47 -18.5zM483 567q-27 0 -45.5 18.5t-18.5 46.5t18.5 46.5t45.5 18.5q28 0 47 -18.5t19 -46.5t-19 -46.5
t-47 -18.5z" />
    <glyph glyph-name="agrave.ss02" horiz-adv-x="653" 
d="M242 -12q-61 0 -105.5 30t-67.5 81.5t-21 115.5t24 118t60.5 94.5t88.5 63t107 22.5q60 0 97 -22t56 -54l27 64h124l-88 -501h-125l-4 68v0q-18 -22 -43 -40t-57 -29t-73 -11zM300 110q43 0 77 22.5t55 60t22 82.5q1 34 -12 60.5t-38 41t-59 14.5q-43 0 -77 -21
t-54 -57.5t-21 -81.5q-2 -34 10.5 -62t37 -43.5t59.5 -15.5zM483 540l-206 110l28 108v0l203 -123z" />
    <glyph glyph-name="amacron.ss02" horiz-adv-x="653" 
d="M242 -12q-61 0 -105.5 30t-67.5 81.5t-21 115.5t24 118t60.5 94.5t88.5 63t107 22.5q60 0 97 -22t56 -54l27 64h124l-88 -501h-125l-4 68v0q-18 -22 -43 -40t-57 -29t-73 -11zM300 110q43 0 77 22.5t55 60t22 82.5q1 34 -12 60.5t-38 41t-59 14.5q-43 0 -77 -21
t-54 -57.5t-21 -81.5q-2 -34 10.5 -62t37 -43.5t59.5 -15.5zM192 581l17 99h381l-17 -99h-381z" />
    <glyph glyph-name="aogonek.ss02" horiz-adv-x="653" 
d="M242 -12q-61 0 -105.5 30t-67.5 81.5t-21 115.5t24 118t60.5 94.5t88.5 63t107 22.5q60 0 97 -22t56 -54l27 64h124l-88 -501h-125l-4 68v0q-18 -22 -43 -40t-57 -29t-73 -11zM300 110q43 0 77 22.5t55 60t22 82.5q1 34 -12 60.5t-38 41t-59 14.5q-43 0 -77 -21
t-54 -57.5t-21 -81.5q-2 -34 10.5 -62t37 -43.5t59.5 -15.5zM422 -212q-38 0 -67 11.5t-43.5 35.5t-8.5 60q6 28 23.5 53.5t53.5 49.5t96 48l48 19l19 -65l-54 -25q-39 -18 -56.5 -34t-21.5 -33q-3 -18 8.5 -28.5t34.5 -10.5q15 0 34.5 4t40.5 11l-15 -82q-20 -6 -44 -10
t-48 -4z" />
    <glyph glyph-name="aring.ss02" horiz-adv-x="653" 
d="M242 -12q-61 0 -105.5 30t-67.5 81.5t-21 115.5t24 118t60.5 94.5t88.5 63t107 22.5q60 0 97 -22t56 -54l27 64h124l-88 -501h-125l-4 68v0q-18 -22 -43 -40t-57 -29t-73 -11zM300 110q43 0 77 22.5t55 60t22 82.5q1 34 -12 60.5t-38 41t-59 14.5q-43 0 -77 -21
t-54 -57.5t-21 -81.5q-2 -34 10.5 -62t37 -43.5t59.5 -15.5zM397 551q-48 0 -82 30.5t-34 84.5q0 53 34 83.5t82 30.5t82 -30.5t34 -83.5q0 -54 -34 -84.5t-82 -30.5zM397 613q21 0 36 14.5t15 38.5q0 25 -15 38.5t-36 13.5t-36 -13.5t-15 -38.5q0 -24 15 -38.5t36 -14.5z
" />
    <glyph glyph-name="atilde.ss02" horiz-adv-x="653" 
d="M242 -12q-61 0 -105.5 30t-67.5 81.5t-21 115.5t24 118t60.5 94.5t88.5 63t107 22.5q60 0 97 -22t56 -54l27 64h124l-88 -501h-125l-4 68v0q-18 -22 -43 -40t-57 -29t-73 -11zM300 110q43 0 77 22.5t55 60t22 82.5q1 34 -12 60.5t-38 41t-59 14.5q-43 0 -77 -21
t-54 -57.5t-21 -81.5q-2 -34 10.5 -62t37 -43.5t59.5 -15.5zM195 557q22 68 60.5 99.5t85.5 31.5q29 0 47 -11.5t34 -23t36 -11.5q17 0 30.5 11.5t20.5 33.5h74q-22 -68 -60 -99.5t-86 -31.5q-29 0 -47.5 11.5t-34 23t-35.5 11.5q-17 0 -30.5 -11t-21.5 -34h-73z" />
    <glyph glyph-name="ae.ss02" horiz-adv-x="1010" 
d="M242 -12q-61 0 -105.5 30t-67.5 81.5t-21 115.5t24 118t60.5 94.5t88.5 63t107 22.5q55 0 91 -19t55 -48l16 55h110l-7 -37q36 23 78 36t89 13q68 0 116 -27t73 -74t23 -108q0 -23 -4.5 -46t-9.5 -42h-370q-3 -34 7.5 -59.5t34 -40t57.5 -14.5q36 0 62 15.5t43 39.5h143
q-23 -48 -63 -86.5t-92 -60.5t-111 -22q-47 0 -85 13.5t-65 38.5l-7 -40h-110l4 59v0q-17 -19 -41.5 -35.5t-54.5 -26t-68 -9.5zM300 110q43 0 77 22.5t55 60t22 82.5q1 34 -12 60.5t-38 41t-59 14.5q-43 0 -77 -21t-54 -57.5t-21 -81.5q-2 -34 10.5 -62t37 -43.5
t59.5 -15.5zM606 300h227q3 32 -8 54t-32.5 34t-50.5 12t-55.5 -11.5t-47.5 -33t-33 -55.5z" />
    <glyph glyph-name="aeacute.ss02" horiz-adv-x="1010" 
d="M242 -12q-61 0 -105.5 30t-67.5 81.5t-21 115.5t24 118t60.5 94.5t88.5 63t107 22.5q55 0 91 -19t55 -48l16 55h110l-7 -37q36 23 78 36t89 13q68 0 116 -27t73 -74t23 -108q0 -23 -4.5 -46t-9.5 -42h-370q-3 -34 7.5 -59.5t34 -40t57.5 -14.5q36 0 62 15.5t43 39.5h143
q-23 -48 -63 -86.5t-92 -60.5t-111 -22q-47 0 -85 13.5t-65 38.5l-7 -40h-110l4 59v0q-17 -19 -41.5 -35.5t-54.5 -26t-68 -9.5zM300 110q43 0 77 22.5t55 60t22 82.5q1 34 -12 60.5t-38 41t-59 14.5q-43 0 -77 -21t-54 -57.5t-21 -81.5q-2 -34 10.5 -62t37 -43.5
t59.5 -15.5zM606 300h227q3 32 -8 54t-32.5 34t-50.5 12t-55.5 -11.5t-47.5 -33t-33 -55.5zM443 540l5 95l239 123v0l-5 -108z" />
    <glyph glyph-name="g.ss03" horiz-adv-x="666" 
d="M251 -232q-46 0 -89.5 11t-77.5 35.5t-52 63t-15 91.5h139q0 -25 14.5 -43t39.5 -27.5t58 -9.5q35 0 67.5 14.5t56 44t31.5 75.5l10 60q-19 -23 -45 -41.5t-59.5 -29.5t-73.5 -11q-64 0 -111 29t-72 79t-23 113q1 60 24 112.5t62.5 93t91 63t110.5 22.5q54 0 96.5 -22
t61.5 -55v0l27 65h125l-84 -472q-12 -67 -41.5 -116t-72 -81.5t-93 -48t-105.5 -15.5zM305 121q44 0 79.5 21.5t56.5 57t23 77.5q1 33 -13 58.5t-40 40.5t-63 15q-43 0 -78 -21t-55.5 -55.5t-21.5 -77.5q-1 -33 12 -59t38.5 -41.5t61.5 -15.5z" />
    <glyph glyph-name="gbreve.ss03" horiz-adv-x="666" 
d="M251 -232q-46 0 -89.5 11t-77.5 35.5t-52 63t-15 91.5h139q0 -25 14.5 -43t39.5 -27.5t58 -9.5q35 0 67.5 14.5t56 44t31.5 75.5l10 60q-19 -23 -45 -41.5t-59.5 -29.5t-73.5 -11q-64 0 -111 29t-72 79t-23 113q1 60 24 112.5t62.5 93t91 63t110.5 22.5q54 0 96.5 -22
t61.5 -55v0l27 65h125l-84 -472q-12 -67 -41.5 -116t-72 -81.5t-93 -48t-105.5 -15.5zM305 121q44 0 79.5 21.5t56.5 57t23 77.5q1 33 -13 58.5t-40 40.5t-63 15q-43 0 -78 -21t-55.5 -55.5t-21.5 -77.5q-1 -33 12 -59t38.5 -41.5t61.5 -15.5zM363 554q-49 0 -81.5 19
t-46 54.5t-4.5 83.5l4 17h72q-6 -33 9.5 -51.5t64.5 -18.5q48 0 70.5 18.5t29.5 51.5h73l-4 -17q-8 -49 -34 -84t-65 -54t-88 -19z" />
    <glyph glyph-name="uni0123.ss03" horiz-adv-x="666" 
d="M251 -232q-46 0 -89.5 11t-77.5 35.5t-52 63t-15 91.5h139q0 -25 14.5 -43t39.5 -27.5t58 -9.5q35 0 67.5 14.5t56 44t31.5 75.5l10 60q-19 -23 -45 -41.5t-59.5 -29.5t-73.5 -11q-64 0 -111 29t-72 79t-23 113q1 60 24 112.5t62.5 93t91 63t110.5 22.5q54 0 96.5 -22
t61.5 -55v0l27 65h125l-84 -472q-12 -67 -41.5 -116t-72 -81.5t-93 -48t-105.5 -15.5zM305 121q44 0 79.5 21.5t56.5 57t23 77.5q1 33 -13 58.5t-40 40.5t-63 15q-43 0 -78 -21t-55.5 -55.5t-21.5 -77.5q-1 -33 12 -59t38.5 -41.5t61.5 -15.5zM462 782l-9 -56
q-23 0 -36.5 -9t-17.5 -28l-2 -18h47l-20 -108h-107q-1 29 0 52t5 47q10 57 45.5 88.5t94.5 31.5z" />
    <glyph glyph-name="gdotaccent.ss03" horiz-adv-x="666" 
d="M251 -232q-46 0 -89.5 11t-77.5 35.5t-52 63t-15 91.5h139q0 -25 14.5 -43t39.5 -27.5t58 -9.5q35 0 67.5 14.5t56 44t31.5 75.5l10 60q-19 -23 -45 -41.5t-59.5 -29.5t-73.5 -11q-64 0 -111 29t-72 79t-23 113q1 60 24 112.5t62.5 93t91 63t110.5 22.5q54 0 96.5 -22
t61.5 -55v0l27 65h125l-84 -472q-12 -67 -41.5 -116t-72 -81.5t-93 -48t-105.5 -15.5zM305 121q44 0 79.5 21.5t56.5 57t23 77.5q1 33 -13 58.5t-40 40.5t-63 15q-43 0 -78 -21t-55.5 -55.5t-21.5 -77.5q-1 -33 12 -59t38.5 -41.5t61.5 -15.5zM376 564q-28 0 -46.5 19
t-18.5 46q0 28 19 47t46 19q28 0 46.5 -19t18.5 -47q0 -27 -18.5 -46t-46.5 -19z" />
    <glyph glyph-name="u.ss04" horiz-adv-x="615" 
d="M262 -12q-125 0 -176 63.5t-31 177.5l48 272h140l-47 -262q-9 -48 -3.5 -80t27 -48.5t61.5 -16.5q38 0 65 16.5t43.5 48.5t25.5 80l46 262h140l-48 -272q-20 -114 -93 -177.5t-198 -63.5z" />
    <glyph glyph-name="uacute.ss04" horiz-adv-x="615" 
d="M262 -12q-125 0 -176 63.5t-31 177.5l48 272h140l-47 -262q-9 -48 -3.5 -80t27 -48.5t61.5 -16.5q38 0 65 16.5t43.5 48.5t25.5 80l46 262h140l-48 -272q-20 -114 -93 -177.5t-198 -63.5zM255 540l5 95l239 123v0l-5 -108z" />
    <glyph glyph-name="ubreve.ss04" horiz-adv-x="615" 
d="M262 -12q-125 0 -176 63.5t-31 177.5l48 272h140l-47 -262q-9 -48 -3.5 -80t27 -48.5t61.5 -16.5q38 0 65 16.5t43.5 48.5t25.5 80l46 262h140l-48 -272q-20 -114 -93 -177.5t-198 -63.5zM361 554q-49 0 -81.5 19t-46 54.5t-4.5 83.5l4 17h72q-6 -33 9.5 -51.5
t64.5 -18.5q48 0 70.5 18.5t29.5 51.5h73l-4 -17q-8 -49 -34 -84t-65 -54t-88 -19z" />
    <glyph glyph-name="ucircumflex.ss04" horiz-adv-x="615" 
d="M262 -12q-125 0 -176 63.5t-31 177.5l48 272h140l-47 -262q-9 -48 -3.5 -80t27 -48.5t61.5 -16.5q38 0 65 16.5t43.5 48.5t25.5 80l46 262h140l-48 -272q-20 -114 -93 -177.5t-198 -63.5zM211 545l18 99l163 83l134 -83l-18 -99l-133 85z" />
    <glyph glyph-name="udieresis.ss04" horiz-adv-x="615" 
d="M262 -12q-125 0 -176 63.5t-31 177.5l48 272h140l-47 -262q-9 -48 -3.5 -80t27 -48.5t61.5 -16.5q38 0 65 16.5t43.5 48.5t25.5 80l46 262h140l-48 -272q-20 -114 -93 -177.5t-198 -63.5zM282 567q-27 0 -45.5 18.5t-18.5 46.5t18.5 46.5t45.5 18.5q28 0 47 -18.5
t19 -46.5t-19 -46.5t-47 -18.5zM468 567q-27 0 -45.5 18.5t-18.5 46.5t18.5 46.5t45.5 18.5q28 0 47 -18.5t19 -46.5t-19 -46.5t-47 -18.5z" />
    <glyph glyph-name="ugrave.ss04" horiz-adv-x="615" 
d="M262 -12q-125 0 -176 63.5t-31 177.5l48 272h140l-47 -262q-9 -48 -3.5 -80t27 -48.5t61.5 -16.5q38 0 65 16.5t43.5 48.5t25.5 80l46 262h140l-48 -272q-20 -114 -93 -177.5t-198 -63.5zM468 540l-206 110l28 108v0l203 -123z" />
    <glyph glyph-name="uhungarumlaut.ss04" horiz-adv-x="615" 
d="M262 -12q-125 0 -176 63.5t-31 177.5l48 272h140l-47 -262q-9 -48 -3.5 -80t27 -48.5t61.5 -16.5q38 0 65 16.5t43.5 48.5t25.5 80l46 262h140l-48 -272q-20 -114 -93 -177.5t-198 -63.5zM347 548l122 187h113l-147 -187h-88zM171 548l105 187h113l-130 -187h-88z" />
    <glyph glyph-name="umacron.ss04" horiz-adv-x="615" 
d="M262 -12q-125 0 -176 63.5t-31 177.5l48 272h140l-47 -262q-9 -48 -3.5 -80t27 -48.5t61.5 -16.5q38 0 65 16.5t43.5 48.5t25.5 80l46 262h140l-48 -272q-20 -114 -93 -177.5t-198 -63.5zM176 581l17 99h381l-17 -99h-381z" />
    <glyph glyph-name="uogonek.ss04" horiz-adv-x="615" 
d="M262 -12q-125 0 -176 63.5t-31 177.5l48 272h140l-47 -262q-9 -48 -3.5 -80t27 -48.5t61.5 -16.5q38 0 65 16.5t43.5 48.5t25.5 80l46 262h140l-48 -272q-20 -114 -93 -177.5t-198 -63.5zM268 -202q-38 0 -67 11.5t-43.5 35.5t-8.5 60q6 28 23.5 53.5t53.5 49.5t96 48
l48 19l19 -65l-54 -25q-39 -18 -56.5 -34t-21.5 -33q-3 -18 8.5 -28.5t34.5 -10.5q15 0 34.5 4t40.5 11l-15 -82q-20 -6 -44 -10t-48 -4z" />
    <glyph glyph-name="uring.ss04" horiz-adv-x="615" 
d="M262 -12q-125 0 -176 63.5t-31 177.5l48 272h140l-47 -262q-9 -48 -3.5 -80t27 -48.5t61.5 -16.5q38 0 65 16.5t43.5 48.5t25.5 80l46 262h140l-48 -272q-20 -114 -93 -177.5t-198 -63.5zM381 551q-48 0 -82 30.5t-34 84.5q0 53 34 83.5t82 30.5t82 -30.5t34 -83.5
q0 -54 -34 -84.5t-82 -30.5zM381 613q21 0 36 14.5t15 38.5q0 25 -15 38.5t-36 13.5t-36 -13.5t-15 -38.5q0 -24 15 -38.5t36 -14.5z" />
    <glyph glyph-name="utilde.ss04" horiz-adv-x="615" 
d="M262 -12q-125 0 -176 63.5t-31 177.5l48 272h140l-47 -262q-9 -48 -3.5 -80t27 -48.5t61.5 -16.5q38 0 65 16.5t43.5 48.5t25.5 80l46 262h140l-48 -272q-20 -114 -93 -177.5t-198 -63.5zM179 557q22 68 60.5 99.5t85.5 31.5q29 0 47 -11.5t34 -23t36 -11.5
q17 0 30.5 11.5t20.5 33.5h74q-22 -68 -60 -99.5t-86 -31.5q-29 0 -47.5 11.5t-34 23t-35.5 11.5q-17 0 -30.5 -11t-21.5 -34h-73z" />
    <glyph glyph-name="y.ss05" horiz-adv-x="626" 
d="M227 -232q-41 0 -81 11t-71 34t-48 59t-13 87h138q1 -23 12 -40.5t32 -26.5t48 -9q37 0 64 15.5t45.5 47t27.5 79.5l8 48v0q-29 -33 -72 -53.5t-102 -20.5q-63 0 -103.5 26t-55 77t-1.5 128l48 271h139l-46 -263q-7 -40 -0.5 -68t27.5 -43t58 -15t65.5 16t47 46t25.5 71
l45 256h140l-83 -477q-15 -85 -59 -142t-105 -85.5t-130 -28.5z" />
    <glyph glyph-name="yacute.ss05" horiz-adv-x="626" 
d="M227 -232q-41 0 -81 11t-71 34t-48 59t-13 87h138q1 -23 12 -40.5t32 -26.5t48 -9q37 0 64 15.5t45.5 47t27.5 79.5l8 48v0q-29 -33 -72 -53.5t-102 -20.5q-63 0 -103.5 26t-55 77t-1.5 128l48 271h139l-46 -263q-7 -40 -0.5 -68t27.5 -43t58 -15t65.5 16t47 46t25.5 71
l45 256h140l-83 -477q-15 -85 -59 -142t-105 -85.5t-130 -28.5zM262 540l5 95l239 123v0l-5 -108z" />
    <glyph glyph-name="ycircumflex.ss05" horiz-adv-x="626" 
d="M227 -232q-41 0 -81 11t-71 34t-48 59t-13 87h138q1 -23 12 -40.5t32 -26.5t48 -9q37 0 64 15.5t45.5 47t27.5 79.5l8 48v0q-29 -33 -72 -53.5t-102 -20.5q-63 0 -103.5 26t-55 77t-1.5 128l48 271h139l-46 -263q-7 -40 -0.5 -68t27.5 -43t58 -15t65.5 16t47 46t25.5 71
l45 256h140l-83 -477q-15 -85 -59 -142t-105 -85.5t-130 -28.5zM217 545l18 99l163 83l134 -83l-18 -99l-133 85z" />
    <glyph glyph-name="ydieresis.ss05" horiz-adv-x="626" 
d="M227 -232q-41 0 -81 11t-71 34t-48 59t-13 87h138q1 -23 12 -40.5t32 -26.5t48 -9q37 0 64 15.5t45.5 47t27.5 79.5l8 48v0q-29 -33 -72 -53.5t-102 -20.5q-63 0 -103.5 26t-55 77t-1.5 128l48 271h139l-46 -263q-7 -40 -0.5 -68t27.5 -43t58 -15t65.5 16t47 46t25.5 71
l45 256h140l-83 -477q-15 -85 -59 -142t-105 -85.5t-130 -28.5zM288 567q-27 0 -45.5 18.5t-18.5 46.5t18.5 46.5t45.5 18.5q28 0 47 -18.5t19 -46.5t-19 -46.5t-47 -18.5zM474 567q-27 0 -45.5 18.5t-18.5 46.5t18.5 46.5t45.5 18.5q28 0 47 -18.5t19 -46.5t-19 -46.5
t-47 -18.5z" />
    <glyph glyph-name="ygrave.ss05" horiz-adv-x="626" 
d="M227 -232q-41 0 -81 11t-71 34t-48 59t-13 87h138q1 -23 12 -40.5t32 -26.5t48 -9q37 0 64 15.5t45.5 47t27.5 79.5l8 48v0q-29 -33 -72 -53.5t-102 -20.5q-63 0 -103.5 26t-55 77t-1.5 128l48 271h139l-46 -263q-7 -40 -0.5 -68t27.5 -43t58 -15t65.5 16t47 46t25.5 71
l45 256h140l-83 -477q-15 -85 -59 -142t-105 -85.5t-130 -28.5zM474 540l-206 110l28 108v0l203 -123z" />
    <glyph glyph-name="uni1EF9.ss05" horiz-adv-x="626" 
d="M227 -232q-41 0 -81 11t-71 34t-48 59t-13 87h138q1 -23 12 -40.5t32 -26.5t48 -9q37 0 64 15.5t45.5 47t27.5 79.5l8 48v0q-29 -33 -72 -53.5t-102 -20.5q-63 0 -103.5 26t-55 77t-1.5 128l48 271h139l-46 -263q-7 -40 -0.5 -68t27.5 -43t58 -15t65.5 16t47 46t25.5 71
l45 256h140l-83 -477q-15 -85 -59 -142t-105 -85.5t-130 -28.5zM185 557q22 68 60.5 99.5t85.5 31.5q29 0 47 -11.5t34 -23t36 -11.5q17 0 30.5 11.5t20.5 33.5h74q-22 -68 -60 -99.5t-86 -31.5q-29 0 -47.5 11.5t-34 23t-35.5 11.5q-17 0 -30.5 -11t-21.5 -34h-73z" />
    <glyph glyph-name="one.ss07" horiz-adv-x="432" 
d="M103 0l95 539l-122 -27l19 110l192 78h84l-124 -700h-144zM12 110h366l-20 -110h-366z" />
    <glyph glyph-name="three.ss07" horiz-adv-x="603" 
d="M256 -6q-62 0 -105.5 17t-69 47t-35 72t-3.5 93h134q-8 -48 17.5 -80t82.5 -32q40 0 70 17t47 48t18 71q1 46 -27 72.5t-80 26.5h-101l16 92l230 176l36 -34h-343l21 120h438l-18 -104l-259 -198l-55 39h69q98 0 152.5 -48.5t51.5 -132.5q-2 -78 -39.5 -137t-101.5 -92
t-146 -33z" />
    <glyph glyph-name="four.ss07" horiz-adv-x="658" 
d="M338 0l23 130h-336l20 112l369 458h149l-367 -449h195l28 156l136 30l-33 -186h90l-22 -121h-89l-24 -130h-139z" />
    <glyph glyph-name="six.ss07" horiz-adv-x="612" 
d="M263 -9q-69 0 -119 26.5t-76 73.5t-24 108q1 38 11.5 74t27.5 68.5t38.5 62t43.5 56.5l208 243h155l-249 -284l3 28q14 7 29.5 11t32 6t32.5 2q58 0 100.5 -24t65 -67.5t20.5 -102.5q-2 -81 -42 -144.5t-107 -100t-150 -36.5zM283 110q42 0 74.5 18.5t51.5 52t20 75.5
q1 31 -11 54.5t-35 37t-57 13.5q-42 0 -75 -19.5t-52 -53.5t-20 -77q-2 -46 26 -73.5t78 -27.5z" />
    <glyph glyph-name="nine.ss07" horiz-adv-x="612" 
d="M119 0l249 284l-3 -28q-14 -6 -29.5 -10.5t-32 -6.5t-32.5 -2q-58 0 -100.5 24t-64.5 68t-21 102q2 82 42 145t107.5 99.5t149.5 36.5q70 0 119.5 -26.5t75.5 -73.5t24 -109q-1 -38 -11.5 -73.5t-28 -68t-38.5 -62t-43 -56.5l-207 -243h-156zM321 342q43 0 75.5 19.5
t51.5 54t20 76.5q2 46 -26 73.5t-78 27.5q-42 0 -74.5 -18.5t-51.5 -51.5t-20 -76q-1 -46 26 -75.5t77 -29.5z" />
    <glyph glyph-name="one.dnom" horiz-adv-x="241" 
d="M49 0l44 252l-72 -16l11 66l126 50h60l-62 -352h-107z" />
    <glyph glyph-name="two.dnom" horiz-adv-x="364" 
d="M-7 0l14 79l133 80q31 20 51 40.5t24 44.5q3 19 -5 29t-23 10q-18 0 -30.5 -11.5t-18.5 -32.5h-106q12 52 58.5 87t119.5 35q47 0 74.5 -16t39 -41t5.5 -53q-7 -38 -38.5 -66.5t-93.5 -60.5l-75 -40h176l-15 -84h-290z" />
    <glyph glyph-name="three.dnom" horiz-adv-x="358" 
d="M133 -4q-78 0 -111 31t-28 85h109q-1 -14 3.5 -23t14 -13t21.5 -4q19 0 32.5 10.5t17.5 29.5q3 21 -8.5 31.5t-34.5 10.5h-38l9 51h34q23 0 37.5 10t18.5 31q3 17 -6 27t-29 10t-32 -9t-19 -27h-101q11 46 55 80t121 34q65 0 100 -30t27 -74q-6 -31 -27.5 -50.5
t-53.5 -26.5l-1 -3q33 -10 48.5 -29.5t9.5 -52.5q-7 -44 -53.5 -71.5t-115.5 -27.5z" />
    <glyph glyph-name="four.dnom" horiz-adv-x="353" 
d="M147 0l11 60h-164l12 70l191 218h115l-38 -216h37l-14 -72h-36l-10 -60h-104zM108 132h70l18 103v0z" />
    <glyph glyph-name="one.numr" horiz-adv-x="241" 
d="M111 352l44 252l-72 -16l11 66l126 50h60l-62 -352h-107z" />
    <glyph glyph-name="two.numr" horiz-adv-x="364" 
d="M55 352l14 79l133 80q31 20 51 40.5t24 44.5q3 19 -5 29t-23 10q-18 0 -30.5 -11.5t-18.5 -32.5h-106q12 52 58.5 87t119.5 35q47 0 74.5 -16t39 -41t5.5 -53q-7 -38 -38.5 -66.5t-93.5 -60.5l-75 -40h176l-15 -84h-290z" />
    <glyph glyph-name="three.numr" horiz-adv-x="358" 
d="M195 348q-78 0 -111 31t-28 85h109q-1 -14 3.5 -23t14 -13t21.5 -4q19 0 32.5 10.5t17.5 29.5q3 21 -8.5 31.5t-34.5 10.5h-38l9 51h34q23 0 37.5 10t18.5 31q3 17 -6 27t-29 10t-32 -9t-19 -27h-101q11 46 55 80t121 34q65 0 100 -30t27 -74q-6 -31 -27.5 -50.5
t-53.5 -26.5l-1 -3q33 -10 48.5 -29.5t9.5 -52.5q-7 -44 -53.5 -71.5t-115.5 -27.5z" />
    <glyph glyph-name="four.numr" horiz-adv-x="353" 
d="M209 352l11 60h-164l12 70l191 218h115l-38 -216h37l-14 -72h-36l-10 -60h-104zM170 484h70l18 103v0z" />
    <glyph glyph-name="comma.ss01" horiz-adv-x="224" 
d="M-11 -104l10 56q26 0 41 15t20 46l4 19h-58l19 109h123q5 -29 3.5 -56.5t-5.5 -51.5q-11 -64 -49.5 -100.5t-107.5 -36.5z" />
    <glyph glyph-name="semicolon.ss01" horiz-adv-x="258" 
d="M158 352q-37 0 -61 23.5t-24 56.5q0 34 24 57.5t61 23.5t61 -23.5t24 -56.5q0 -34 -24 -57.5t-61 -23.5zM8 -104l10 56q26 0 41 15t20 46l4 19h-58l19 109h123q5 -29 3.5 -56.5t-5.5 -51.5q-11 -64 -49.5 -100.5t-107.5 -36.5z" />
    <glyph glyph-name="quotesinglbase.ss01" horiz-adv-x="217" 
d="M-10 -103l10 56q26 0 40.5 15t20.5 47l3 18h-58l20 109h115q4 -29 3 -56.5t-5 -51.5q-11 -64 -49 -100.5t-100 -36.5z" />
    <glyph glyph-name="quotedblbase.ss01" horiz-adv-x="385" 
d="M158 -103l10 56q26 0 40.5 15t20.5 47l3 18h-58l20 109h115q4 -29 3 -56.5t-5 -51.5q-11 -64 -49 -100.5t-100 -36.5zM-10 -103l10 56q26 0 40.5 15t20.5 47l3 18h-58l20 109h115q4 -29 3 -56.5t-5 -51.5q-11 -64 -49 -100.5t-100 -36.5z" />
    <glyph glyph-name="quotedblleft.ss01" horiz-adv-x="375" 
d="M248 738l-10 -56q-25 0 -40.5 -15t-20.5 -46l-4 -19h58l-19 -109h-116q-4 30 -2.5 57t4.5 51q11 64 49 100.5t101 36.5zM415 738l-10 -56q-25 0 -40 -15t-20 -46l-4 -19h58l-20 -109h-115q-4 30 -2.5 57t4.5 51q11 64 49 100.5t100 36.5z" />
    <glyph glyph-name="quotedblright.ss01" horiz-adv-x="374" 
d="M255 493l10 56q26 0 40.5 15t20.5 47l3 18h-58l20 109h115q4 -29 3 -56.5t-5 -51.5q-11 -64 -49 -100.5t-100 -36.5zM88 493l10 56q26 0 40.5 15t20.5 47l3 18h-58l20 109h115q4 -29 3 -56.5t-5 -51.5q-11 -64 -49 -100.5t-100 -36.5z" />
    <glyph glyph-name="quoteleft.ss01" horiz-adv-x="206" 
d="M248 739l-10 -56q-25 0 -40.5 -15t-20.5 -47l-4 -18h58l-19 -109h-116q-4 30 -2.5 57t4.5 51q11 64 49 100.5t101 36.5z" />
    <glyph glyph-name="quoteright.ss01" horiz-adv-x="206" 
d="M88 493l10 56q26 0 40.5 15t20.5 47l3 18h-58l20 109h115q4 -29 3 -56.5t-5 -51.5q-11 -64 -49 -100.5t-100 -36.5z" />
    <glyph glyph-name="quotedblleft.ss08" horiz-adv-x="776" 
d="M406 -12q75 0 140.5 28t115.5 78t78 115.5t28 140.5t-28 140.5t-78 115.5t-115.5 78t-140.5 28t-140.5 -28t-115.5 -78t-78 -115.5t-28 -140.5t28 -140.5t78 -115.5t115.5 -78t140.5 -28zM399 483l-11 -60q-27 0 -44 -16.5t-22 -50.5l-4 -21h63l-22 -118h-125
q-3 32 -2 61.5t5 56.5q12 70 53 109t109 39zM581 483l-11 -60q-28 0 -44.5 -16.5t-22.5 -50.5l-4 -21h63l-21 -118h-125q-4 32 -2.5 61.5t5.5 56.5q12 70 53 109t109 39z" />
    <glyph glyph-name="quotedblright.ss08" horiz-adv-x="776" 
d="M406 712q-75 0 -140.5 -28t-115.5 -78t-78 -115.5t-28 -140.5t28 -140.5t78 -115.5t115.5 -78t140.5 -28t140.5 28t115.5 78t78 115.5t28 140.5t-28 140.5t-78 115.5t-115.5 78t-140.5 28zM412 217l11 60q28 0 44.5 16.5t22.5 50.5l4 21h-63l21 118h125q4 -32 3 -61.5
t-6 -56.5q-12 -69 -53 -108.5t-109 -39.5zM231 217l10 60q29 0 45.5 16.5t21.5 50.5l4 21h-63l21 118h125q4 -32 3 -61.5t-6 -56.5q-11 -69 -52 -108.5t-109 -39.5z" />
    <glyph glyph-name="arrowup.ss08" horiz-adv-x="776" 
d="M406 -12q-75 0 -140.5 28t-115.5 78t-78 115.5t-28 140.5t28 140.5t78 115.5t115.5 78t140.5 28t140.5 -28t115.5 -77.5t78 -115t28 -141.5q0 -75 -28 -140.5t-78 -115.5t-115.5 -78t-140.5 -28zM360 165h92v238l106 -105l58 59l-184 180h-53l-183 -180l58 -59l106 105
v-238z" />
    <glyph glyph-name="uni2197.ss08" horiz-adv-x="776" 
d="M406 -12q-75 0 -140.5 28t-115.5 78t-78 115.5t-28 140.5t28 140.5t78 115.5t115.5 78t140.5 28t140.5 -28t115.5 -77.5t78 -115.5t28 -141t-28 -140.5t-78 -115.5t-115.5 -78t-140.5 -28zM310 196l171 168v-163h79v267l-37 36h-267v-80h163l-169 -168z" />
    <glyph glyph-name="arrowright.ss08" horiz-adv-x="776" 
d="M406 -12q-75 0 -140.5 28t-115.5 78t-78 115.5t-28 140.5t28 140.5t78 115.5t115.5 78t140.5 28t140.5 -28t115.5 -78t78 -115.5t28 -140.5t-28 -140.5t-78 -115.5t-115.5 -78t-140.5 -28zM411 142l180 181v54l-180 182l-58 -57l110 -108h-243v-87h243l-110 -108z" />
    <glyph glyph-name="uni2198.ss08" horiz-adv-x="776" 
d="M406 712q75 0 140.5 -28t115.5 -78t78 -115.5t28 -140.5t-28 -141t-78 -115.5t-115.5 -77.5t-140.5 -28t-140.5 28t-115.5 78t-78 115.5t-28 140.5t28 140.5t78 115.5t115.5 78t140.5 28zM310 504l-60 -60l169 -168h-163v-80h267l37 36v267h-79v-163z" />
    <glyph glyph-name="arrowdown.ss08" horiz-adv-x="776" 
d="M406 712q75 0 140.5 -28t115.5 -78t78 -115.5t28 -140.5q0 -76 -28 -141.5t-78 -115t-115.5 -77.5t-140.5 -28t-140.5 28t-115.5 78t-78 115.5t-28 140.5t28 140.5t78 115.5t115.5 78t140.5 28zM360 535v-238l-106 105l-58 -59l183 -180h53l184 180l-58 59l-106 -105v238
h-92z" />
    <glyph glyph-name="uni2199.ss08" horiz-adv-x="776" 
d="M406 712q75 0 140.5 -28t115.5 -78t78 -115.5t28 -140.5t-28 -140.5t-78 -115.5t-115.5 -78t-140.5 -28t-140.5 28t-115.5 77.5t-78 115.5t-28 141t28 140.5t78 115.5t115.5 78t140.5 28zM501 504l-170 -168v163h-80v-267l37 -36h267v80h-163l169 168z" />
    <glyph glyph-name="arrowleft.ss08" horiz-adv-x="776" 
d="M406 -12q-75 0 -141 28t-115.5 78t-77.5 115.5t-28 140.5t28 140.5t78 115.5t115.5 78t140.5 28t140.5 -28t115.5 -78t78 -115.5t28 -140.5t-28 -140.5t-78 -115.5t-115.5 -78t-140.5 -28zM400 142l58 57l-110 108h243v87h-243l110 108l-58 57l-180 -182v-54z" />
    <glyph glyph-name="uni2196.ss08" horiz-adv-x="776" 
d="M406 -12q-75 0 -140.5 28t-115.5 78t-78 115.5t-28 140.5t28 141t78 115.5t115.5 77.5t140.5 28t140.5 -28t115.5 -78t78 -115.5t28 -140.5t-28 -140.5t-78 -115.5t-115.5 -78t-140.5 -28zM501 196l60 60l-169 168h163v80h-267l-37 -36v-267h80v163z" />
    <glyph glyph-name="arrowboth.ss08" horiz-adv-x="776" 
d="M406 -12q-75 0 -140.5 28t-115.5 78t-78 115.5t-28 140.5t28 140.5t78 115.5t115.5 78t140.5 28t140.5 -28t115.5 -77.5t78 -115.5t28 -141t-28 -140.5t-78 -115.5t-115.5 -78t-140.5 -28zM310 147l66 50l-89 108h243l-90 -108l66 -50l144 177v54l-144 175l-66 -49
l90 -109h-243l89 109l-65 49l-144 -175v-54z" />
    <glyph glyph-name="arrowupdn.ss08" horiz-adv-x="776" 
d="M406 -12q-75 0 -140.5 28t-115.5 78t-78 115.5t-28 140.5t28 140.5t78 115.5t115.5 78t140.5 28t140.5 -28t115.5 -78t78 -115.5t28 -140.5t-28 -140.5t-77.5 -115.5t-115.5 -78t-141 -28zM380 110h54l174 143l-48 65l-108 -88v240l108 -88l48 65l-174 143h-54l-176 -143
l49 -65l109 88v-240l-109 88l-49 -65z" />
    <glyph glyph-name="uni030C.alt" 
d="M45 506l10 56q24 0 37 8.5t17 27.5l2 18h-47l20 109h106q2 -29 1 -52t-5 -47q-10 -58 -46 -89t-95 -31z" />
    <glyph glyph-name="uni0308.case" 
d="M169 769q-27 0 -45.5 18.5t-18.5 46.5t18.5 46.5t45.5 18.5q28 0 47 -18.5t19 -46.5t-19 -46.5t-47 -18.5zM355 769q-27 0 -45.5 18.5t-18.5 46.5t18.5 46.5t45.5 18.5q28 0 47 -18.5t19 -46.5t-19 -46.5t-47 -18.5z" />
    <glyph glyph-name="uni0307.case" 
d="M169 768q-28 0 -46.5 19t-18.5 46q0 28 19 47t46 19q28 0 46.5 -19t18.5 -47q0 -27 -18.5 -46t-46.5 -19z" />
    <glyph glyph-name="gravecomb.case" 
d="M315 753l-206 110l28 108v0l203 -123z" />
    <glyph glyph-name="acutecomb.case" 
d="M101 753l5 95l239 123v0l-5 -108z" />
    <glyph glyph-name="uni030B.case" 
d="M265 760l122 187h113l-147 -187h-88zM89 760l105 187h113l-130 -187h-88z" />
    <glyph glyph-name="uni0302.case" 
d="M90 760l18 99l163 83l134 -83l-18 -99l-133 85z" />
    <glyph glyph-name="uni030C.case" 
d="M420 942l-18 -99l-163 -83l-134 83l18 99l133 -86z" />
    <glyph glyph-name="uni0306.case" 
d="M251 770q-49 0 -81.5 19t-46 54.5t-4.5 83.5l4 17h72q-6 -33 9.5 -51.5t64.5 -18.5q48 0 70.5 18.5t29.5 51.5h73l-4 -17q-8 -49 -34 -84t-65 -54t-88 -19z" />
    <glyph glyph-name="uni030A.case" 
d="M231 770q-48 0 -82 30.5t-34 84.5q0 53 34 83.5t82 30.5t82 -30.5t34 -83.5q0 -54 -34 -84.5t-82 -30.5zM231 832q21 0 36 14.5t15 38.5q0 25 -15 38.5t-36 13.5t-36 -13.5t-15 -38.5q0 -24 15 -38.5t36 -14.5z" />
    <glyph glyph-name="tildecomb.case" 
d="M91 770q22 68 60.5 99.5t85.5 31.5q29 0 47 -11.5t34 -23t36 -11.5q17 0 30.5 11.5t20.5 33.5h74q-22 -68 -60 -99.5t-86 -31.5q-29 0 -47.5 11.5t-34 23t-35.5 11.5q-17 0 -30.5 -11t-21.5 -34h-73z" />
    <glyph glyph-name="uni0304.case" 
d="M100 815l17 99h381l-17 -99h-381z" />
    <glyph glyph-name="uni0327.case" 
d="M-91 -264l14 79h117q26 0 41 8.5t16 27.5q0 17 -10.5 23.5t-33.5 6.5h-64l22 126h87l-10 -53q30 0 56 -9t41.5 -29.5t14.5 -54.5q-1 -39 -22.5 -67t-55.5 -43t-74 -15h-139z" />
    <glyph glyph-name="uni0328.case" 
d="M56 -212q-38 0 -67 11.5t-43.5 35.5t-8.5 60q6 28 23.5 53.5t53.5 49.5t96 48l48 19l19 -65l-54 -25q-39 -18 -56.5 -34t-21.5 -33q-3 -18 8.5 -28.5t34.5 -10.5q15 0 34.5 4t40.5 11l-15 -82q-20 -6 -44 -10t-48 -4z" />
    </font>
</defs>
</svg>
