<?xml version="1.0" standalone="no"?>
<!DOCTYPE svg PUBLIC "-//W3C//DTD SVG 1.1//EN" "http://www.w3.org/Graphics/SVG/1.1/DTD/svg11.dtd" >
<svg xmlns="http://www.w3.org/2000/svg" xmlns:xlink="http://www.w3.org/1999/xlink" version="1.1">
<metadata>
Created by FontForge 20201107 at Wed Jun 14 12:00:55 2023
 By 
Copyright 2014 The DM Sans Project Authors (https://github.com/googlefonts/dm-fonts)
</metadata>
<defs>
<font id="DMSans18pt-LightItalic" horiz-adv-x="0" >
  <font-face 
    font-family="DM Sans 18pt Light"
    font-weight="300"
    font-style="italic"
    font-stretch="normal"
    units-per-em="1000"
    panose-1="0 0 0 0 0 0 0 0 0 0"
    ascent="800"
    descent="-200"
    x-height="501"
    cap-height="700"
    bbox="-116 -258 1132 970"
    underline-thickness="50"
    underline-position="-125"
    slope="-10"
    unicode-range="U+000D-FB02"
  />
<missing-glyph horiz-adv-x="556" 
d="M33 0l124 700h401l-124 -700h-401zM113 57h261l104 586h-261z" />
    <glyph glyph-name="fi" unicode="fi" horiz-adv-x="553" 
d="M55 0l78 442h-77l11 59h76l16 90q8 44 27.5 72.5t52 42.5t76.5 14h48l-11 -60h-37q-39 0 -59 -16t-27 -56l-15 -87h302l-89 -501h-70l78 442h-232l-78 -442h-70zM511 620q-21 0 -36 15.5t-15 36.5q0 22 15 36.5t36 14.5t36 -14t15 -37q0 -22 -14.5 -37t-36.5 -15z" />
    <glyph glyph-name="fl" unicode="fl" horiz-adv-x="542" 
d="M55 0l104 591q8 44 27.5 72.5t52 42.5t76.5 14h52l-11 -60h-41q-38 0 -58.5 -16t-27.5 -56l-104 -588h-70zM56 441l11 60h277l-11 -60h-277zM356 0l128 720h70l-128 -720h-70z" />
    <glyph glyph-name=".notdef" horiz-adv-x="556" 
d="M33 0l124 700h401l-124 -700h-401zM113 57h261l104 586h-261z" />
    <glyph glyph-name=".null" 
 />
    <glyph glyph-name="nonmarkingreturn" horiz-adv-x="333" 
 />
    <glyph glyph-name="CR" unicode="&#xd;" horiz-adv-x="600" 
 />
    <glyph glyph-name="space" unicode=" " horiz-adv-x="293" 
 />
    <glyph glyph-name="exclam" unicode="!" horiz-adv-x="236" 
d="M69 185l83 515h76l-100 -515h-59zM83 -5q-22 0 -37 15t-15 37t14.5 36.5t37.5 14.5q21 0 35.5 -14.5t14.5 -36.5t-14.5 -37t-35.5 -15z" />
    <glyph glyph-name="quotedbl" unicode="&#x22;" horiz-adv-x="293" 
d="M215 558l58 197h71l-80 -197h-49zM92 558l58 197h70l-79 -197h-49z" />
    <glyph glyph-name="numbersign" unicode="#" horiz-adv-x="795" 
d="M389 0l271 700h67l-271 -700h-67zM103 0l271 700h67l-271 -700h-67zM42 204l11 62h655l-11 -62h-655zM122 434l10 62h655l-10 -62h-655z" />
    <glyph glyph-name="dollar" unicode="$" horiz-adv-x="577" 
d="M183 -87l155 878h68l-155 -878h-68zM261 -12q-74 0 -128 26t-79.5 75.5t-15.5 120.5h73q-10 -48 8 -84.5t57 -57.5t92 -21q57 0 96 19t59.5 52.5t21.5 78.5q1 29 -10 49.5t-30 35t-45 25.5t-55.5 20.5t-58.5 20.5q-68 25 -99.5 66.5t-30.5 95.5q2 60 33 105.5t84.5 71
t124.5 25.5q64 0 111 -24.5t69.5 -68t12.5 -99.5h-72q6 40 -9.5 69.5t-46.5 46t-73 16.5q-48 0 -83 -17t-55.5 -47t-21.5 -69q0 -25 9 -43.5t26.5 -32t42 -24t53 -20.5t60.5 -21q30 -11 56 -27t44.5 -37t28.5 -48t9 -61q-1 -64 -33.5 -113t-89.5 -76.5t-135 -27.5z" />
    <glyph glyph-name="percent" unicode="%" horiz-adv-x="753" 
d="M89 0l534 700h70l-534 -700h-70zM511 -12q-39 0 -69.5 17t-47 48.5t-15.5 75.5q1 53 26.5 95.5t67 68t92.5 25.5q40 0 70 -17t46.5 -48t14.5 -75q-1 -52 -26 -95.5t-66.5 -69t-92.5 -25.5zM225 381q-40 0 -70.5 17t-47 49t-15.5 75q1 52 26.5 95t67.5 68.5t92 25.5
q40 0 70.5 -17t46.5 -48.5t15 -75.5q-1 -52 -26.5 -95t-67 -68.5t-91.5 -25.5zM520 43q31 0 57 17.5t42 46.5t17 66q2 45 -21 68t-58 23q-30 0 -57 -17.5t-43 -47t-17 -65.5q-1 -45 22.5 -68t57.5 -23zM232 436q31 0 57 17t42.5 46.5t17.5 66.5q2 45 -21.5 68t-56.5 23
q-32 0 -58 -17t-42.5 -47t-17.5 -66q-2 -45 22 -68t57 -23z" />
    <glyph glyph-name="ampersand" unicode="&#x26;" horiz-adv-x="722" 
d="M566 0l-316 393q-32 39 -46.5 72t-13.5 69q2 52 28 92.5t72 63t105 22.5q55 0 90.5 -21.5t49 -56t6.5 -72.5h-70q6 38 -16 65t-70 27q-53 0 -88 -31.5t-36 -77.5q-1 -29 12.5 -57.5t38.5 -61.5l343 -426h-89zM234 -12q-64 0 -110 22.5t-70.5 64t-22.5 96.5q1 60 29 108.5
t78 84.5t116 57l30 10l30 -47l-36 -12q-78 -25 -126 -74t-49 -118q-2 -44 15 -73.5t49.5 -43.5t76.5 -14q53 0 99 19.5t91 59.5q29 25 58.5 58.5t61.5 76.5l73 99h75l-90 -125q-37 -51 -72.5 -90.5t-71.5 -69.5q-55 -45 -112 -67t-122 -22z" />
    <glyph glyph-name="quotesingle" unicode="'" horiz-adv-x="150" 
d="M101 558l29 197h71l-51 -197h-49z" />
    <glyph glyph-name="parenleft" unicode="(" horiz-adv-x="365" 
d="M181 -145q-37 42 -67 98.5t-46.5 127t-13.5 151.5q3 111 41 218t103.5 199.5t151.5 161.5h72l-1 -7q-90 -74 -155.5 -166t-102 -193.5t-38.5 -204.5q-3 -74 12.5 -141.5t45.5 -127t73 -109.5l-2 -7h-73z" />
    <glyph glyph-name="parenright" unicode=")" horiz-adv-x="365" 
d="M213 811q37 -42 67.5 -98.5t46.5 -126.5t13 -152q-3 -111 -41 -218t-103.5 -199.5t-151.5 -161.5h-72l1 7q91 74 156 166.5t101.5 193.5t38.5 204q3 75 -12 142t-45 126.5t-74 109.5l2 7h73z" />
    <glyph glyph-name="asterisk" unicode="*" horiz-adv-x="470" 
d="M227 360l38 157l-144 -87l-21 53l153 64l-129 64l37 51l115 -87l17 157h58l-40 -157l143 86l20 -50l-153 -64l131 -65l-37 -51l-115 86l-15 -157h-58z" />
    <glyph glyph-name="plus" unicode="+" horiz-adv-x="500" 
d="M187 75l75 430h66l-76 -430h-65zM28 261l10 59h449l-10 -59h-449z" />
    <glyph glyph-name="comma" unicode="," horiz-adv-x="165" 
d="M-65 -120l96 212h75l-121 -212h-50z" />
    <glyph glyph-name="hyphen" unicode="-" horiz-adv-x="511" 
d="M53 261l10 59h389l-10 -59h-389z" />
    <glyph glyph-name="period" unicode="." horiz-adv-x="186" 
d="M58 -5q-22 0 -36.5 15t-14.5 37t14 36.5t37 14.5q21 0 35.5 -14.5t14.5 -36.5t-14.5 -37t-35.5 -15z" />
    <glyph glyph-name="slash" unicode="/" horiz-adv-x="382" 
d="M-30 -90l401 850h70l-402 -850h-69z" />
    <glyph glyph-name="zero" unicode="0" horiz-adv-x="686" 
d="M298 -12q-78 0 -132.5 35.5t-81.5 99.5t-24 149q2 94 30.5 174t77.5 140t114 93t141 33q79 0 133 -35.5t81 -99.5t24 -149q-2 -94 -30.5 -174.5t-77.5 -140t-114 -92.5t-141 -33zM308 49q55 0 105 28.5t89 79.5t62 119t25 146q2 72 -19 123t-61.5 78t-94.5 27
q-56 0 -106.5 -28.5t-88.5 -79.5t-61 -118.5t-25 -144.5q-2 -72 19 -124t61 -79t95 -27z" />
    <glyph glyph-name="one" unicode="1" horiz-adv-x="298" 
d="M105 0l110 623l-122 -33l9 51l148 59h50l-124 -700h-71z" />
    <glyph glyph-name="two" unicode="2" horiz-adv-x="589" 
d="M36 0l8 48q113 78 193 144.5t131.5 124t77 110t26.5 101.5q1 32 -10 60t-37.5 46t-72.5 18q-49 0 -85 -22t-57.5 -57.5t-28.5 -77.5h-68q12 67 47 115.5t87 75t113 26.5q55 0 96.5 -20.5t65 -60.5t21.5 -96q-2 -45 -17 -88t-45 -87.5t-76 -91.5t-108.5 -99t-143.5 -110
h350l-10 -59h-457z" />
    <glyph glyph-name="three" unicode="3" horiz-adv-x="585" 
d="M249 -12q-70 0 -119.5 25.5t-72.5 74t-13 117.5h72q-5 -50 10 -84.5t48.5 -52.5t82.5 -18q54 0 95 21t64.5 58.5t25.5 85.5q1 44 -19.5 74t-56.5 45t-81 15h-52l10 60h53q78 0 126.5 38t49.5 104q2 41 -26 70t-87 29q-62 0 -105.5 -35.5t-58.5 -91.5h-71q12 55 45 97.5
t83 67t113 24.5q60 0 101 -19.5t61 -54t19 -79.5q-1 -38 -19 -75t-50.5 -63.5t-76.5 -37.5q35 -7 61 -29t40.5 -54.5t12.5 -75.5q-1 -68 -35.5 -121t-94 -84t-135.5 -31z" />
    <glyph glyph-name="four" unicode="4" horiz-adv-x="595" 
d="M349 0l28 157h-358l9 53l432 490h83l-86 -482h106l-11 -61h-106l-29 -157h-68zM114 218h276l71 393v0z" />
    <glyph glyph-name="five" unicode="5" horiz-adv-x="613" 
d="M267 -12q-67 0 -115.5 26t-74 70.5t-24.5 99.5h69q2 -61 44 -98.5t110 -37.5q57 0 103 28t74.5 76t29.5 110q1 45 -15.5 80.5t-48.5 56t-77 20.5q-61 0 -108 -26.5t-76 -70.5h-67l126 378h363l-11 -61h-308l-83 -230q31 31 75 50.5t101 19.5q45 0 82 -15.5t63 -44
t39.5 -66.5t12.5 -82q-2 -80 -40 -144t-101.5 -101.5t-142.5 -37.5z" />
    <glyph glyph-name="six" unicode="6" horiz-adv-x="620" 
d="M279 -12q-62 0 -104 20.5t-67 56t-34.5 81t-8.5 96.5q3 96 28 180.5t69.5 149.5t106 102.5t135.5 37.5q60 0 99.5 -25.5t59.5 -67.5t17 -95h-65q-1 59 -33 92.5t-90 33.5q-53 0 -101.5 -32t-87 -98t-61.5 -167q-2 -7 -3.5 -14t-3.5 -15q25 35 57 63t73.5 44t88.5 16
q60 0 105 -26t69.5 -71t22.5 -103q-1 -52 -22.5 -99t-58.5 -83t-85.5 -56.5t-105.5 -20.5zM285 50q55 0 98 24.5t68 67t26 96.5q2 42 -15 75.5t-49 52.5t-76 19q-54 0 -97.5 -25.5t-70 -67t-27.5 -93.5q-1 -41 15.5 -75.5t49.5 -54t78 -19.5z" />
    <glyph glyph-name="seven" unicode="7" horiz-adv-x="535" 
d="M97 0l392 640h-394l11 60h468l-10 -54l-390 -646h-77z" />
    <glyph glyph-name="eight" unicode="8" horiz-adv-x="600" 
d="M260 -12q-62 0 -109.5 22t-73 62.5t-24.5 95.5q1 50 24.5 92t64 71.5t90.5 40.5q-50 17 -75.5 54.5t-24.5 81.5q1 60 34.5 105.5t89 72t123.5 26.5q60 0 102.5 -21t64 -58t20.5 -86q-1 -45 -21.5 -79t-54.5 -58t-76 -38q59 -16 86 -59t25 -99q-1 -68 -37.5 -119
t-96.5 -79t-131 -28zM269 51q54 0 95 20t65 56.5t25 84.5q2 64 -36.5 94.5t-102.5 30.5q-51 0 -94 -19.5t-69 -56t-27 -87.5q-2 -57 36.5 -90t107.5 -33zM333 399q39 0 75 15t60 47t25 80q1 42 -16 66t-45.5 33.5t-62.5 9.5q-46 0 -83 -17t-58.5 -48.5t-22.5 -74.5
q-2 -56 35 -83.5t93 -27.5z" />
    <glyph glyph-name="nine" unicode="9" horiz-adv-x="620" 
d="M251 -12q-59 0 -99 25.5t-59.5 68t-17.5 94.5h65q1 -59 33.5 -92.5t88.5 -33.5q35 0 67.5 13.5t61.5 39.5t53 65.5t43 91.5t32 116q-23 -35 -55.5 -63t-73.5 -44t-89 -16q-60 0 -105 26t-69.5 71t-22.5 103q1 52 22.5 99t58 83t85.5 56.5t105 20.5q63 0 105 -20.5t67 -56
t34.5 -81t8.5 -96.5q-3 -95 -27.5 -180t-69.5 -150t-106.5 -102.5t-135.5 -37.5zM318 315q54 0 97.5 25.5t69.5 67.5t27 93q2 42 -15 76t-49 53.5t-78 19.5q-55 0 -98 -24.5t-68 -66.5t-27 -97q-1 -42 16 -75.5t48.5 -52.5t76.5 -19z" />
    <glyph glyph-name="colon" unicode=":" horiz-adv-x="190" 
d="M59 -5q-22 0 -36.5 15t-14.5 37t14 36.5t37 14.5q21 0 35.5 -14.5t14.5 -36.5t-14.5 -37t-35.5 -15zM132 409q-22 0 -36.5 15t-14.5 37t14 36.5t37 14.5q21 0 35.5 -14.5t14.5 -36.5t-14.5 -37t-35.5 -15z" />
    <glyph glyph-name="semicolon" unicode=";" horiz-adv-x="203" 
d="M129 409q-22 0 -36.5 15t-14.5 37t14 36.5t37 14.5q21 0 35.5 -14.5t14.5 -36.5t-14.5 -37t-35.5 -15zM-41 -120l96 212h75l-121 -212h-50z" />
    <glyph glyph-name="less" unicode="&#x3c;" horiz-adv-x="500" 
d="M479 582l-293 -235l205 -229h-83l-209 232v0l291 232h89z" />
    <glyph glyph-name="equal" unicode="=" horiz-adv-x="500" 
d="M75 363l10 60h390l-10 -60h-390zM39 160l10 59h390l-10 -59h-390z" />
    <glyph glyph-name="greater" unicode="&#x3e;" horiz-adv-x="500" 
d="M57 118l292 235l-205 229h83l210 -232v0l-292 -232h-88z" />
    <glyph glyph-name="question" unicode="?" horiz-adv-x="521" 
d="M151 192l24 157h25q55 0 100.5 9t79 30t52.5 55.5t21 85.5q1 37 -14.5 64.5t-44.5 43t-69 15.5q-46 0 -83 -17t-61 -47.5t-32 -73.5h-67q11 61 47 105t89 68.5t116 24.5q59 0 101 -22t64.5 -61.5t21.5 -94.5q-2 -76 -39.5 -129t-101.5 -79.5t-147 -26.5l-22 -107h-60z
M161 -5q-22 0 -36.5 15t-14.5 37t14.5 36.5t36.5 14.5q21 0 35.5 -14.5t14.5 -36.5t-14.5 -37t-35.5 -15z" />
    <glyph glyph-name="at" unicode="@" horiz-adv-x="987" 
d="M418 -195q-105 0 -184.5 41t-123.5 116t-44 177q0 104 35.5 194.5t100.5 158t154 106t196 38.5q110 0 190.5 -42t125 -117t44.5 -174q0 -57 -13.5 -112t-40 -99.5t-64.5 -71t-88 -26.5q-57 0 -81.5 36t-18.5 92l3 35l17 -24q-26 -64 -81 -101.5t-120 -37.5
q-75 0 -117.5 46.5t-42.5 125.5q0 54 17.5 104.5t49 90t76.5 62.5t98 23q63 0 100 -34t43 -99l-21 -12l23 133h62l-51 -291q-7 -44 4.5 -72t50.5 -28q34 0 59 23.5t42.5 62t26.5 83t9 87.5q0 89 -38 153t-107 98.5t-165 34.5q-92 0 -168.5 -34t-133 -94t-87.5 -140t-31 -171
q0 -93 37.5 -157.5t106.5 -98.5t165 -34q42 0 84.5 8.5t80.5 25.5l10 -49q-43 -18 -91.5 -27t-98.5 -9zM446 49q44 0 81.5 24t62 66.5t29.5 98.5q5 42 -5.5 77t-37.5 55.5t-70 20.5q-41 0 -73.5 -18.5t-55 -49t-34.5 -68.5t-12 -80q0 -57 29.5 -91.5t85.5 -34.5z" />
    <glyph glyph-name="A" unicode="A" horiz-adv-x="653" 
d="M-12 0l383 700h71l134 -700h-72l-113 614v0l-327 -614h-76zM119 188l29 56h349l10 -56h-388z" />
    <glyph glyph-name="B" unicode="B" horiz-adv-x="596" 
d="M34 0l123 700h236q66 0 108 -20.5t61.5 -55t17.5 -76.5q-1 -56 -27 -97.5t-69.5 -66t-97.5 -30.5l13 10q41 -1 72.5 -20t49.5 -51.5t16 -75.5q-1 -63 -36 -112.5t-94 -77t-131 -27.5h-242zM114 57h167q55 0 96.5 20t65.5 56.5t25 84.5q2 53 -36 83.5t-106 30.5h-164z
M173 389h163q76 0 123 41t48 108q1 32 -12.5 56t-43 37t-74.5 13h-160z" />
    <glyph glyph-name="C" unicode="C" horiz-adv-x="715" 
d="M336 -12q-90 0 -152 36.5t-94 102.5t-29 153q2 92 33 171t85 137.5t126 91t155 32.5q118 0 182.5 -55.5t67.5 -156.5h-79q-2 70 -46.5 110.5t-133.5 40.5q-66 0 -123 -27.5t-100 -77t-67.5 -116.5t-26.5 -146q-3 -74 22 -126.5t73 -80.5t116 -28q89 0 147.5 40.5
t85.5 108.5h79q-25 -66 -70.5 -113t-108.5 -72t-142 -25z" />
    <glyph glyph-name="D" unicode="D" horiz-adv-x="692" 
d="M34 0l123 700h201q110 0 177.5 -34t99.5 -99t29 -160q-2 -91 -32.5 -165.5t-86 -129t-133.5 -83.5t-177 -29h-201zM114 58h131q110 0 186 42.5t117.5 120t43.5 182.5q2 78 -21.5 131t-77.5 80.5t-145 27.5h-131z" />
    <glyph glyph-name="E" unicode="E" horiz-adv-x="536" 
d="M34 0l123 700h400l-11 -56h-329l-46 -264h299l-9 -56h-300l-47 -268h329l-10 -56h-399z" />
    <glyph glyph-name="F" unicode="F" horiz-adv-x="523" 
d="M34 0l123 700h410l-10 -56h-340l-46 -265h291l-10 -55h-291l-57 -324h-70z" />
    <glyph glyph-name="G" unicode="G" horiz-adv-x="757" 
d="M332 -12q-86 0 -147.5 38.5t-93 106.5t-28.5 156q2 92 32 169.5t83.5 134.5t126 88t159.5 31q117 0 187.5 -56t75.5 -156h-82q-3 68 -51.5 108t-137.5 40q-94 0 -165 -45.5t-112 -125.5t-43 -185q-3 -73 21.5 -127.5t72 -84t112.5 -29.5q79 0 137 31.5t97 90.5t59 141
h-211l10 57h283l-65 -371h-65l16 123v0q-33 -43 -72 -73.5t-87 -46t-112 -15.5z" />
    <glyph glyph-name="H" unicode="H" horiz-adv-x="674" 
d="M483 0l124 700h70l-124 -700h-70zM34 0l123 700h70l-123 -700h-70zM146 329l10 55h415l-10 -55h-415z" />
    <glyph glyph-name="I" unicode="I" horiz-adv-x="225" 
d="M34 0l123 700h70l-123 -700h-70z" />
    <glyph glyph-name="J" unicode="J" horiz-adv-x="476" 
d="M169 -12q-56 0 -94.5 23t-53.5 66t-5 102h71q-6 -35 0.5 -64.5t29 -47t64.5 -17.5q41 0 68.5 16.5t43 44t21.5 56.5l92 533h70l-92 -533q-14 -81 -72 -130t-143 -49z" />
    <glyph glyph-name="K" unicode="K" horiz-adv-x="567" 
d="M34 0l123 700h70l-57 -328l360 328h89l-310 -280l190 -420h-81l-166 369l-99 -89l-49 -280h-70z" />
    <glyph glyph-name="L" unicode="L" horiz-adv-x="520" 
d="M34 0l123 700h70l-113 -643h331l-10 -57h-401z" />
    <glyph glyph-name="M" unicode="M" horiz-adv-x="834" 
d="M34 0l123 700h80l170 -504v0l348 504h81l-123 -700h-70l100 571v0l-326 -472h-52l-161 470v0l-100 -569h-70z" />
    <glyph glyph-name="N" unicode="N" horiz-adv-x="682" 
d="M34 0l122 700h70l285 -588v0l103 588h70l-123 -700h-70l-283 589v0l-104 -589h-70z" />
    <glyph glyph-name="O" unicode="O" horiz-adv-x="785" 
d="M346 -12q-88 0 -152.5 39t-99.5 108.5t-32 159.5q2 88 35 163.5t90 132.5t131 89t156 32q88 0 153 -39t99.5 -107.5t32.5 -158.5q-3 -88 -36 -164t-89.5 -133.5t-130 -89.5t-157.5 -32zM358 49q66 0 124.5 27t103.5 75t71.5 113t28.5 140q2 77 -26 132t-79 84.5
t-118 29.5t-125.5 -27t-103.5 -75t-71 -112t-28 -139q-3 -76 25 -131.5t79.5 -86t118.5 -30.5z" />
    <glyph glyph-name="P" unicode="P" horiz-adv-x="576" 
d="M34 0l123 700h220q73 0 119 -24t67 -64t19 -89q-2 -70 -36 -121t-95.5 -78t-143.5 -27h-151l-52 -297h-70zM166 357h151q91 0 140.5 40t51.5 121q2 54 -31.5 88.5t-110.5 34.5h-150z" />
    <glyph glyph-name="Q" unicode="Q" horiz-adv-x="785" 
d="M508 -93l-152 364h78l153 -364h-79zM346 -12q-88 0 -152.5 39t-99.5 108.5t-32 159.5q2 88 35 163.5t90 132.5t130.5 89t156.5 32q88 0 153 -39t99.5 -107.5t32.5 -158.5q-3 -88 -36 -164t-89.5 -133.5t-130.5 -89.5t-157 -32zM357 49q67 0 125.5 27t103.5 75t71.5 113
t28.5 140q2 77 -26 132t-79 84.5t-118 29.5t-125.5 -27t-103.5 -75t-71 -112t-28 -139q-3 -76 25 -131.5t79.5 -86t117.5 -30.5z" />
    <glyph glyph-name="R" unicode="R" horiz-adv-x="586" 
d="M34 0l123 700h216q72 0 116.5 -24.5t64.5 -65t18 -88.5q-1 -70 -36 -121t-96 -79.5t-143 -28.5h-141l-52 -293h-70zM413 0l-101 315h73l105 -315h-77zM166 350h141q87 0 139 43.5t54 123.5q2 52 -31.5 88t-111.5 36h-140z" />
    <glyph glyph-name="S" unicode="S" horiz-adv-x="577" 
d="M261 -12q-74 0 -128 26t-79.5 75.5t-15.5 120.5h73q-10 -48 8 -84.5t57 -57.5t92 -21q57 0 96 19t59.5 52.5t21.5 78.5q1 29 -10 49.5t-30 35t-45 25.5t-55.5 20.5t-58.5 20.5q-68 25 -99.5 66.5t-30.5 95.5q2 60 33 105.5t84.5 71t124.5 25.5q64 0 111 -24.5t69.5 -68
t12.5 -99.5h-72q6 40 -9.5 69.5t-46.5 46t-73 16.5q-48 0 -83 -17t-55.5 -47t-21.5 -69q0 -25 9 -43.5t26.5 -32t42 -24t53 -20.5t60.5 -21q30 -11 56 -27t44.5 -37t28.5 -48t9 -61q-1 -64 -33.5 -113t-89.5 -76.5t-135 -27.5z" />
    <glyph glyph-name="T" unicode="T" horiz-adv-x="550" 
d="M196 0l113 644h-209l10 56h489l-10 -56h-210l-113 -644h-70z" />
    <glyph glyph-name="U" unicode="U" horiz-adv-x="649" 
d="M278 -12q-80 0 -131.5 32t-71.5 91.5t-4 143.5l79 445h70l-79 -445q-12 -64 0.5 -109.5t49.5 -70t99 -24.5q54 0 99 21t76 66t44 117l80 445h70l-79 -445q-16 -92 -61 -151.5t-107.5 -87.5t-133.5 -28z" />
    <glyph glyph-name="V" unicode="V" horiz-adv-x="660" 
d="M245 0l-141 700h76l119 -622v0l341 622h75l-389 -700h-81z" />
    <glyph glyph-name="W" unicode="W" horiz-adv-x="956" 
d="M176 -1l-70 701h76l51 -611v0l287 611h79l65 -613v0l268 613h77l-323 -700h-78l-70 595v0l-285 -595z" />
    <glyph glyph-name="X" unicode="X" horiz-adv-x="588" 
d="M-2 0l272 351l-150 349h79l126 -291v0l222 291h80l-277 -351l151 -349h-79l-126 292v0l-220 -292h-78z" />
    <glyph glyph-name="Y" unicode="Y" horiz-adv-x="567" 
d="M205 0l48 273l-151 427h80l117 -363v0l246 363h79l-301 -427l-48 -273h-70z" />
    <glyph glyph-name="Z" unicode="Z" horiz-adv-x="529" 
d="M-1 0l10 56l457 582h-348l11 62h431l-10 -56l-458 -582h360l-11 -62h-442z" />
    <glyph glyph-name="bracketleft" unicode="[" horiz-adv-x="296" 
d="M8 -145l169 956h157l-11 -58h-91l-148 -839h91l-10 -59h-157z" />
    <glyph glyph-name="backslash" unicode="\" horiz-adv-x="682" 
d="M591 -90h-69l-402 850h70z" />
    <glyph glyph-name="bracketright" unicode="]" horiz-adv-x="296" 
d="M317 811l-168 -956h-158l11 58h91l148 839h-91l10 59h157z" />
    <glyph glyph-name="asciicircum" unicode="^" horiz-adv-x="609" 
d="M30 200l323 500h63l145 -500h-69l-119 414v0l-268 -414h-75z" />
    <glyph glyph-name="underscore" unicode="_" horiz-adv-x="624" 
d="M-11 -100l11 65h502l-11 -65h-502z" />
    <glyph glyph-name="grave" unicode="`" horiz-adv-x="205" 
d="M252 543l-180 117l17 58v0l176 -123z" />
    <glyph glyph-name="a" unicode="a" horiz-adv-x="541" 
d="M185 -12q-55 0 -90 19.5t-51.5 51t-15.5 66.5q2 56 33 96t85.5 61t126.5 21h136q9 50 -1 83.5t-36 50t-68 16.5q-51 0 -93.5 -26.5t-60.5 -76.5h-73q16 53 51.5 89.5t84 55t100.5 18.5q66 0 107 -25.5t56 -71.5t4 -108l-54 -308h-64l12 91v0q-14 -20 -32 -39t-41 -33.5
t-52 -22.5t-64 -8zM201 50q37 0 69.5 15t58.5 40t42.5 56.5t23.5 64.5l4 18h-131q-52 0 -89 -13.5t-56.5 -38.5t-20.5 -60q-1 -38 23.5 -60t75.5 -22z" />
    <glyph glyph-name="b" unicode="b" horiz-adv-x="614" 
d="M282 -12q-42 0 -77 15.5t-58.5 39.5t-33.5 48v0l-23 -91h-64l127 720h70l-54 -305q32 41 80 69.5t116 28.5q66 0 112 -29.5t69.5 -79.5t21.5 -113q-2 -65 -24 -120t-60.5 -96.5t-89.5 -64t-112 -22.5zM289 49q59 0 105 30t73 83t29 121q2 50 -15 88t-50.5 59.5
t-78.5 21.5q-59 0 -106 -31.5t-75 -85.5t-30 -121q-1 -50 16.5 -87t51.5 -57.5t80 -20.5z" />
    <glyph glyph-name="c" unicode="c" horiz-adv-x="565" 
d="M248 -12q-61 0 -107.5 27.5t-71.5 77.5t-23 114q2 68 25.5 123.5t63.5 96.5t92.5 63.5t111.5 22.5q90 0 141 -46t53 -123h-71q-1 54 -39 81t-93 27q-56 0 -104 -29.5t-76.5 -83t-30.5 -125.5q-2 -40 8.5 -71t30 -52.5t45.5 -32.5t56 -11q36 0 70 12t60.5 36.5t40.5 61.5
h70q-18 -50 -55 -88t-87 -59.5t-110 -21.5z" />
    <glyph glyph-name="d" unicode="d" horiz-adv-x="615" 
d="M249 -12q-66 0 -112 31t-69 82.5t-21 114.5q1 65 23 119t60.5 94t89.5 62t110 22q67 0 109.5 -27.5t62.5 -75.5l55 310h70l-128 -720h-64l10 89v0q-20 -26 -47.5 -49t-64.5 -37.5t-84 -14.5zM264 49q60 0 106 32t73.5 86.5t29.5 121.5q2 50 -14.5 86.5t-49.5 56.5t-81 20
q-58 0 -105 -30t-75 -82t-29 -120q-2 -49 15 -88t51 -61t79 -22z" />
    <glyph glyph-name="e" unicode="e" horiz-adv-x="563" 
d="M243 -12q-62 0 -107 27.5t-68.5 76.5t-21.5 115t24 121.5t61 97t90.5 64.5t113.5 23q67 0 110 -27t64 -71t19 -98q0 -18 -4 -41t-8 -41h-414l10 59h347q6 52 -9 87t-47 53.5t-79 18.5q-44 0 -86.5 -20.5t-73 -59.5t-41.5 -98l-5 -26q-9 -60 3.5 -105.5t46.5 -70.5t86 -25
q56 0 98 26t66 71h68q-20 -45 -55 -80.5t-82.5 -56t-105.5 -20.5z" />
    <glyph glyph-name="f" unicode="f" horiz-adv-x="330" 
d="M55 0l104 591q8 44 27.5 72.5t52 42.5t76.5 14h52l-11 -60h-41q-38 0 -58.5 -16t-27.5 -56l-104 -588h-70zM56 441l11 60h277l-11 -60h-277z" />
    <glyph glyph-name="g" unicode="g" horiz-adv-x="547" 
d="M174 -232q-62 0 -108 17t-71.5 49.5t-23.5 78.5q0 32 13 61t39 55t64 47l52 -25q-45 -24 -69.5 -55.5t-25.5 -70.5q-1 -30 15.5 -52t48 -33.5t76.5 -11.5q74 0 120.5 33.5t47.5 88.5q2 31 -22 55.5t-95 28.5q-47 3 -82 9.5t-61 15.5t-45 21.5t-33 26.5l4 24l104 81
l57 -24l-104 -79l10 34q15 -9 28.5 -17t30 -14t40.5 -10t60 -6q72 -5 112 -26t55 -51t14 -64q-1 -52 -33 -94t-87.5 -67.5t-130.5 -25.5zM240 159q-56 0 -94 19.5t-56 53.5t-17 76q1 58 31.5 104.5t82 73.5t116.5 27q57 0 94 -19.5t55.5 -53t17.5 -76.5q-2 -57 -31.5 -104
t-81 -74t-117.5 -27zM251 219q65 0 106 38.5t42 100.5q2 46 -26.5 70.5t-80.5 24.5q-64 0 -105 -38t-43 -101q-2 -46 26.5 -70.5t80.5 -24.5zM371 438l-14 63h204l-10 -57z" />
    <glyph glyph-name="h" unicode="h" horiz-adv-x="563" 
d="M27 0l126 720h70l-54 -308v0q33 47 83.5 74t105.5 27q58 0 97 -23t54.5 -70.5t2.5 -120.5l-53 -299h-70l51 291q14 81 -13 121t-92 40q-45 0 -85 -22t-68 -64t-39 -103l-46 -263h-70z" />
    <glyph glyph-name="i" unicode="i" horiz-adv-x="232" 
d="M37 0l88 501h70l-88 -501h-70zM190 620q-21 0 -35.5 15t-14.5 37q-1 23 14 37t36 14t36 -14t15 -37q0 -22 -15 -37t-36 -15z" />
    <glyph glyph-name="j" unicode="j" horiz-adv-x="242" 
d="M-110 -220l11 60h38q38 0 58 16t27 56l104 589h70l-104 -592q-7 -44 -27 -72.5t-52 -42.5t-76 -14h-49zM195 620q-21 0 -36 15t-15 37q0 23 15 37t35 14q22 0 36 -13.5t14 -37.5q0 -22 -14 -37t-35 -15z" />
    <glyph glyph-name="k" unicode="k" horiz-adv-x="493" 
d="M343 0l-209 275l263 226h94l-305 -255l7 62l237 -308h-87zM26 0l128 720h70l-128 -720h-70z" />
    <glyph glyph-name="l" unicode="l" horiz-adv-x="212" 
d="M26 0l128 720h70l-128 -720h-70z" />
    <glyph glyph-name="m" unicode="m" horiz-adv-x="871" 
d="M27 0l88 501h63l-9 -86v0q30 47 74 72.5t94 25.5q37 0 66.5 -11t50.5 -34t30 -59v0q32 49 82 76.5t102 27.5q53 0 92 -23t56 -70t4 -121l-53 -299h-70l51 292q14 81 -11.5 120.5t-82.5 39.5q-36 0 -71 -19.5t-61.5 -57.5t-39.5 -93l-50 -282h-70l51 292
q14 81 -11.5 120.5t-81.5 39.5q-38 0 -75 -22t-64 -63.5t-38 -102.5l-46 -264h-70z" />
    <glyph glyph-name="n" unicode="n" horiz-adv-x="563" 
d="M27 0l88 501h64l-12 -92v0q32 49 82.5 76.5t107.5 27.5q63 0 101 -27.5t51.5 -76t1.5 -109.5l-53 -300h-70l52 292q13 76 -12.5 118t-93.5 42q-44 0 -82.5 -20.5t-66 -60t-40.5 -97.5l-48 -274h-70z" />
    <glyph glyph-name="o" unicode="o" horiz-adv-x="592" 
d="M254 -12q-62 0 -110 28.5t-74 79.5t-24 116q2 66 25 120.5t63 95t92 63t112 22.5q64 0 111.5 -28t73.5 -77.5t23 -115.5q-1 -66 -24.5 -121t-63 -96t-92 -64t-112.5 -23zM263 48q58 0 105 31t76 84.5t30 123.5q2 53 -17.5 90t-53 56t-74.5 19q-57 0 -104 -31t-75.5 -84.5
t-30.5 -122.5q-2 -53 17.5 -90t52.5 -56.5t74 -19.5z" />
    <glyph glyph-name="p" unicode="p" horiz-adv-x="614" 
d="M-13 -220l128 721h66l-11 -89v0q21 28 49 51t65 36.5t83 13.5q65 0 111 -29.5t69.5 -79.5t21.5 -113q-2 -65 -24 -120t-60.5 -96.5t-89.5 -64t-112 -22.5q-41 0 -76 14.5t-58.5 38.5t-34.5 51l-57 -312h-70zM290 49q59 0 105 30t73 83t29 121q1 49 -15.5 87.5t-50 60
t-78.5 21.5q-59 0 -106 -31.5t-75 -85t-30 -121.5q-1 -50 16.5 -87t51.5 -57.5t80 -20.5z" />
    <glyph glyph-name="q" unicode="q" horiz-adv-x="615" 
d="M391 -220l54 309q-31 -41 -79 -71t-117 -30q-66 0 -112 31t-69 82t-21 114q1 65 23 119.5t60.5 94.5t89.5 62t109 22q46 0 79.5 -13.5t57 -36t36.5 -53.5v0l22 91h64l-127 -721h-70zM264 49q60 0 106 32t73.5 87t29.5 121q2 50 -15 86t-49.5 56.5t-80.5 20.5
q-58 0 -105 -30t-75 -82.5t-29 -119.5q-2 -49 15.5 -88t51 -61t78.5 -22z" />
    <glyph glyph-name="r" unicode="r" horiz-adv-x="359" 
d="M27 0l88 501h65l-11 -90v0q22 32 53 55t70.5 35t85.5 12l-12 -73h-24q-33 0 -65 -8t-58.5 -26.5t-45 -49t-26.5 -76.5l-50 -280h-70z" />
    <glyph glyph-name="s" unicode="s" horiz-adv-x="496" 
d="M212 -12q-61 0 -103.5 21t-63.5 60t-17 94h72q-1 -30 10 -56t39 -41.5t74 -15.5q38 0 66 11.5t44.5 33.5t16.5 51q2 26 -12 42t-39.5 25t-62.5 16q-29 5 -56 14.5t-48.5 25t-33.5 38t-11 52.5q1 43 26.5 77.5t69.5 55.5t100 21q77 0 123 -38.5t41 -112.5h-71
q3 41 -23.5 65t-76.5 24t-82 -23.5t-33 -57.5q-1 -22 11.5 -37t37 -24.5t59.5 -17.5q31 -6 59.5 -16t50.5 -25t34.5 -38t10.5 -57q-1 -50 -29 -87.5t-75 -58.5t-108 -21z" />
    <glyph glyph-name="t" unicode="t" horiz-adv-x="372" 
d="M214 0q-50 0 -79 15.5t-39 48.5t-1 84l52 293h-78l11 60h78l30 116h61l-21 -116h151l-10 -60h-151l-53 -293q-9 -51 8 -69.5t64 -18.5h64l-11 -60h-76z" />
    <glyph glyph-name="u" unicode="u" horiz-adv-x="563" 
d="M205 -12q-62 0 -100.5 28t-52 75.5t-1.5 109.5l53 300h70l-51 -292q-13 -77 11.5 -118.5t92.5 -41.5q44 0 83 20.5t67.5 60t39.5 97.5l48 274h70l-87 -501h-64l11 92v0q-31 -49 -82 -76.5t-108 -27.5z" />
    <glyph glyph-name="v" unicode="v" horiz-adv-x="532" 
d="M181 0l-110 501h72l90 -434v0l243 434h74l-288 -501h-81z" />
    <glyph glyph-name="w" unicode="w" horiz-adv-x="744" 
d="M130 0l-59 501h71l43 -431h-15l206 431h80l55 -430h-16l196 430h71l-235 -501h-71l-56 451h15l-214 -451h-71z" />
    <glyph glyph-name="x" unicode="x" horiz-adv-x="476" 
d="M-23 0l214 253l-123 248h72l105 -215v0l180 215h75l-214 -253l122 -248h-71l-104 215v0l-181 -215h-75z" />
    <glyph glyph-name="y" unicode="y" horiz-adv-x="543" 
d="M40 -220l172 273h-27l-120 448h73l104 -401v0l252 401h73l-454 -721h-73z" />
    <glyph glyph-name="z" unicode="z" horiz-adv-x="454" 
d="M-8 0l11 58l361 384h-279l11 59h359l-11 -58l-360 -385h288l-11 -58h-369z" />
    <glyph glyph-name="braceleft" unicode="{" horiz-adv-x="415" 
d="M245 -145q-58 0 -91 28.5t-31 85.5q1 43 15.5 83t29 79t15.5 77q1 22 -6.5 41t-27 33.5t-55.5 22.5l10 57q46 10 75 30t43.5 57.5t14.5 96.5q1 13 1 24v21.5t1 20.5q1 65 22.5 109t59.5 67t92 23h51l-11 -61h-38q-26 0 -50.5 -10t-41 -38.5t-17.5 -87.5q-1 -12 -0.5 -23
t0.5 -21.5t-1 -24.5q-1 -68 -19.5 -111.5t-50.5 -67t-73 -32.5v-2q49 -11 70 -41.5t20 -72.5q-1 -45 -15.5 -87.5t-28.5 -79.5t-15 -68q-1 -39 20.5 -53t53.5 -14h39l-10 -61h-51z" />
    <glyph glyph-name="bar" unicode="|" horiz-adv-x="225" 
d="M16 -100l145 820h70l-145 -820h-70z" />
    <glyph glyph-name="braceright" unicode="}" horiz-adv-x="415" 
d="M199 810q58 0 91 -28.5t31 -85.5q0 -43 -14.5 -83t-29.5 -79t-16 -77q0 -21 7.5 -40.5t27.5 -34t54 -22.5l-10 -57q-45 -9 -74.5 -29.5t-43.5 -58t-15 -95.5q-1 -14 -1 -25v-21v-21q-2 -64 -23 -108.5t-59.5 -67.5t-92.5 -23h-51l11 61h39q27 0 51 10t40 39.5t17 87.5
q1 11 1 22t-0.5 22t0.5 24q1 69 19.5 112t50.5 66.5t73 32.5v2q-49 12 -70 42t-20 72q1 46 15.5 88t29 79.5t14.5 67.5q2 40 -20 53.5t-54 13.5h-39l10 61h51z" />
    <glyph glyph-name="asciitilde" unicode="~" horiz-adv-x="500" 
d="M331 256q-27 0 -46.5 10t-35.5 23t-32.5 23.5t-38.5 10.5q-26 0 -47 -18.5t-32 -47.5h-53q15 43 37 72t50 43t62 14q26 0 46 -10t36 -23t32.5 -23t38.5 -10q26 0 47 18t31 47h54q-15 -43 -37 -71.5t-50.5 -43t-61.5 -14.5z" />
    <glyph glyph-name="uni00A0" unicode="&#xa0;" horiz-adv-x="293" 
 />
    <glyph glyph-name="exclamdown" unicode="&#xa1;" horiz-adv-x="236" 
d="M169 323l-83 -515h-76l100 515h59zM156 513q22 0 36 -15t14 -37t-14 -36.5t-37 -14.5q-21 0 -35.5 15t-14.5 36q0 22 14.5 37t36.5 15z" />
    <glyph glyph-name="cent" unicode="&#xa2;" horiz-adv-x="565" 
d="M195 -104l24 137h69l-24 -137h-69zM295 468l24 137h70l-24 -137h-70zM248 -12q-61 0 -107.5 27.5t-71.5 77.5t-23 114q2 68 25.5 123.5t63.5 96.5t92.5 63.5t111.5 22.5q90 0 141 -46t53 -123h-71q-1 54 -39 81t-93 27q-56 0 -104 -29.5t-76.5 -83t-30.5 -125.5
q-2 -40 8.5 -71t30 -52.5t45.5 -32.5t56 -11q36 0 70 12t60.5 36.5t40.5 61.5h70q-18 -50 -55 -88t-87 -59.5t-110 -21.5z" />
    <glyph glyph-name="sterling" unicode="&#xa3;" horiz-adv-x="596" 
d="M51 0l8 43q35 34 60.5 67t40.5 71t16 85q1 25 -3 48.5t-8.5 47t-8 49t-2.5 54.5q1 74 32.5 129.5t86.5 86.5t125 31q64 0 101.5 -20.5t56 -53t23 -67t1.5 -61.5h-65q4 38 -6 70.5t-38 52.5t-78 20q-51 0 -90 -23t-61 -65t-24 -97q-1 -27 3 -52t9 -50t9 -49.5t3 -49.5
q-2 -63 -31.5 -114.5t-78.5 -93.5h368l-10 -59h-439zM58 314l9 50h358l-8 -50h-359z" />
    <glyph glyph-name="currency" unicode="&#xa4;" horiz-adv-x="526" 
d="M240 122q-44 0 -76 20t-49 55.5t-16 79.5q2 58 29.5 101.5t73 68.5t100.5 25q43 0 75.5 -19t50.5 -52.5t16 -78.5q-1 -56 -29.5 -101.5t-74 -72t-100.5 -26.5zM73 96l-28 33l94 80l28 -33zM399 96l-62 76l37 35l64 -78zM250 180q34 0 61 18t44.5 49t18.5 71
q1 33 -10.5 54t-31 32t-41.5 11q-33 0 -60 -17.5t-43.5 -48.5t-17.5 -73q-2 -32 9 -53.5t30 -32t41 -10.5zM171 388l-66 79l39 33l65 -78zM401 385l-23 36l92 79l28 -33z" />
    <glyph glyph-name="yen" unicode="&#xa5;" horiz-adv-x="591" 
d="M41 174l9 53h470l-9 -53h-470zM276 322l-209 1l9 52h198zM337 322l20 53h189l-9 -52zM216 0l48 273l-151 427h80l118 -363v0l245 363h79l-301 -427l-48 -273h-70z" />
    <glyph glyph-name="brokenbar" unicode="&#xa6;" horiz-adv-x="225" 
d="M102 385l59 335h70l-59 -335h-70zM16 -100l59 335h70l-59 -335h-70z" />
    <glyph glyph-name="section" unicode="&#xa7;" horiz-adv-x="580" 
d="M210 -232q-65 0 -111.5 25t-67 68.5t-11.5 98.5h72q-5 -31 5.5 -61.5t40 -50.5t78.5 -20q47 0 83 18.5t57.5 50.5t22.5 73q1 29 -12.5 48t-39 32.5t-60.5 25t-76 26.5q-42 15 -74 37t-49.5 54t-16.5 77q1 48 23 88.5t61 72.5q-8 14 -11.5 29.5t-2.5 34.5q2 62 33 111
t86 77.5t125 28.5q65 0 111 -25t68 -68.5t12 -98.5h-73q6 31 -4.5 61.5t-40 50.5t-79.5 20q-45 0 -82 -18.5t-59 -50t-23 -73.5q-1 -30 13.5 -49t40.5 -32t61 -25t75 -26t72 -36t50.5 -53.5t16.5 -78.5q-1 -47 -22.5 -88.5t-60.5 -72.5q10 -19 13 -41.5t-2 -49.5
q-9 -55 -41 -98t-82.5 -67.5t-118.5 -24.5zM400 94q23 19 36.5 46t13.5 60q2 37 -15 59.5t-46 37t-65 26.5t-73 25q-24 8 -42.5 18t-33.5 20q-19 -16 -34 -43t-16 -63q-1 -29 9 -48.5t28.5 -33.5t44 -24.5t55.5 -20t63 -22.5q25 -9 41 -17t34 -20z" />
    <glyph glyph-name="dieresis" unicode="&#xa8;" horiz-adv-x="246" 
d="M112 576q-19 0 -32.5 13.5t-13.5 32.5t13.5 32.5t33.5 13.5q18 0 31.5 -14t13.5 -32q0 -19 -13.5 -32.5t-32.5 -13.5zM267 576q-20 0 -33.5 13.5t-13.5 32.5t13.5 32.5t33.5 13.5q18 0 31 -14t13 -32q0 -19 -13 -32.5t-31 -13.5z" />
    <glyph glyph-name="copyright" unicode="&#xa9;" horiz-adv-x="802" 
d="M357 -4q-89 0 -154.5 38t-100.5 103.5t-35 149.5q0 87 31 162.5t88 132.5t132.5 89t162.5 32q90 0 155.5 -37.5t100.5 -102.5t35 -148q0 -87 -31.5 -163t-88 -133.5t-132 -90t-163.5 -32.5zM377 117q-50 0 -90.5 21t-64 61.5t-23.5 98.5q0 57 19 108.5t54.5 91.5t83.5 63
t105 23q74 0 122.5 -39t54.5 -112h-65q-6 49 -39.5 73.5t-81.5 24.5q-58 0 -100 -32t-65.5 -84t-23.5 -111q0 -67 35 -101t89 -34q51 0 92 25t65 73h65q-21 -46 -56.5 -80t-80.5 -52t-95 -18zM364 29q82 0 150 29.5t117 81.5t76.5 121.5t27.5 149.5q0 75 -30 133.5t-88 92.5
t-140 34t-150.5 -29.5t-118 -81.5t-77 -121.5t-27.5 -149.5q0 -75 30.5 -133.5t88.5 -92.5t141 -34z" />
    <glyph glyph-name="ordfeminine" unicode="&#xaa;" horiz-adv-x="464" 
d="M231 350q-42 0 -73 18.5t-46.5 52.5t-14.5 79q2 58 28 106t70 77t100 29q51 0 81.5 -23t38.5 -62l19 79h50l-61 -350h-50l8 79v0q-21 -37 -59 -61t-91 -24zM252 395q42 0 75 22.5t52 60t20 80.5q2 52 -26.5 80.5t-72.5 28.5q-41 0 -73.5 -22.5t-51.5 -59t-20 -80.5
q-2 -51 25.5 -80.5t71.5 -29.5z" />
    <glyph glyph-name="guillemotleft" unicode="&#xab;" horiz-adv-x="436" 
d="M291 120l-68 175l130 175h71l-133 -175l72 -175h-72zM121 120l-68 175l130 175h71l-133 -175l72 -175h-72z" />
    <glyph glyph-name="logicalnot" unicode="&#xac;" horiz-adv-x="500" 
d="M458 230l26 143h-493l10 57h562l-35 -200h-70z" />
    <glyph glyph-name="registered" unicode="&#xae;" horiz-adv-x="503" 
d="M262 311q-58 0 -98 26t-57 71.5t-7 102.5q10 58 43.5 103t83 71.5t106.5 26.5q58 0 98 -26.5t57.5 -71.5t6.5 -103q-10 -57 -43.5 -102.5t-82.5 -71.5t-107 -26zM323 405l-46 99h47l49 -98zM268 344q49 0 89.5 21.5t67.5 59.5t35 86q13 73 -23 120t-110 47
q-49 0 -89 -21.5t-66.5 -59t-35.5 -86.5q-13 -73 23 -120t109 -47zM202 405l38 215h93q32 0 48.5 -17.5t11.5 -47.5t-28 -47.5t-55 -17.5h-50l-15 -85h-43zM266 527h46q14 0 24.5 6.5t12.5 20.5t-5.5 20t-21.5 6h-46z" />
    <glyph glyph-name="macron" unicode="&#xaf;" horiz-adv-x="340" 
d="M61 599l10 54h339l-9 -54h-340z" />
    <glyph glyph-name="degree" unicode="&#xb0;" horiz-adv-x="342" 
d="M229 450q-35 0 -64 16t-47 45.5t-18 68.5q0 41 18 70.5t47 45.5t64 16q36 0 64.5 -16t46.5 -45.5t18 -70.5q0 -39 -18 -68.5t-47 -45.5t-64 -16zM229 506q26 0 48 19t22 56q0 38 -21.5 56.5t-47.5 18.5q-25 0 -47.5 -18.5t-22.5 -56.5q0 -37 22 -56t47 -19z" />
    <glyph glyph-name="plusminus" unicode="&#xb1;" horiz-adv-x="500" 
d="M-11 103l10 54h469l-10 -54h-469zM211 219l62 350h65l-62 -350h-65zM35 364l11 60h469l-11 -60h-469z" />
    <glyph glyph-name="uni00B2" unicode="&#xb2;" horiz-adv-x="322" 
d="M52 352l7 40l128 95q33 25 58.5 51.5t31.5 62.5q6 32 -8.5 48t-39.5 16q-28 0 -48 -16.5t-28 -46.5h-58q11 44 47.5 75.5t95.5 31.5q36 0 60 -14t34.5 -38t4.5 -54q-7 -42 -36.5 -73.5t-80.5 -66.5l-93 -64h180l-8 -47h-247z" />
    <glyph glyph-name="uni00B3" unicode="&#xb3;" horiz-adv-x="323" 
d="M174 347q-55 0 -84.5 26.5t-25.5 77.5h56q-1 -22 6.5 -35.5t22 -19t33.5 -5.5q31 0 53.5 15.5t26.5 42.5q5 29 -12.5 44t-49.5 15h-48l7 39h48q31 0 53 15.5t27 43.5q5 26 -10.5 42t-46.5 16t-50.5 -13.5t-29.5 -36.5h-54q12 41 50.5 68t95.5 27q53 0 83.5 -28.5
t22.5 -72.5q-5 -31 -26 -51.5t-52 -28.5v-2q26 -8 41.5 -29t9.5 -54q-7 -38 -46 -67t-101 -29z" />
    <glyph glyph-name="acute" unicode="&#xb4;" horiz-adv-x="202" 
d="M59 543l2 52l216 127v0l-2 -62z" />
    <glyph glyph-name="uni00B5" unicode="&#xb5;" horiz-adv-x="574" 
d="M-13 -220l127 716h70l-50 -285q-13 -77 12 -119.5t93 -42.5q44 0 83 20.5t67 61t40 99.5l47 266h70l-87 -496h-64l12 92v0q-32 -49 -82.5 -76.5t-108.5 -27.5q-36 0 -65.5 10.5t-49.5 29.5l-44 -248h-70z" />
    <glyph glyph-name="paragraph" unicode="&#xb6;" horiz-adv-x="575" 
d="M224 -100l71 399h-8q-71 0 -116.5 25.5t-67 67t-21.5 87.5q0 72 35 121.5t97 74.5t143 25h220l-141 -800h-63l131 744h-86l-131 -744h-63z" />
    <glyph glyph-name="periodcentered" unicode="&#xb7;" horiz-adv-x="186" 
d="M111 295q-22 0 -36.5 15t-14.5 37t14.5 36.5t36.5 14.5q21 0 35.5 -14.5t14.5 -36.5t-14.5 -37t-35.5 -15z" />
    <glyph glyph-name="cedilla" unicode="&#xb8;" horiz-adv-x="219" 
d="M-89 -258l8 47h86q40 0 60 14.5t21 40.5q0 23 -15 33.5t-48 10.5h-47l21 119h49l-13 -74q36 1 62 -8t39 -28t12 -49q0 -30 -17.5 -54t-47.5 -38t-67 -14h-103z" />
    <glyph glyph-name="uni00B9" unicode="&#xb9;" horiz-adv-x="195" 
d="M113 352l52 295l-69 -19l6 36l91 40h39l-62 -352h-57z" />
    <glyph glyph-name="ordmasculine" unicode="&#xba;" horiz-adv-x="453" 
d="M245 348q-46 0 -80.5 18.5t-52.5 52.5t-17 80q2 59 30.5 107.5t75.5 77t105 28.5q47 0 81 -18.5t52.5 -52t17.5 -80.5q-2 -59 -30.5 -107.5t-76 -77t-105.5 -28.5zM252 393q43 0 75 22.5t51 60t20 83.5q1 36 -12 60t-35 36.5t-52 12.5q-42 0 -74.5 -23.5t-51 -61
t-20.5 -80.5q-1 -36 11.5 -60.5t35.5 -37t52 -12.5z" />
    <glyph glyph-name="guillemotright" unicode="&#xbb;" horiz-adv-x="436" 
d="M161 470l68 -175l-130 -175h-71l133 175l-72 175h72zM331 470l68 -175l-130 -175h-71l133 175l-72 175h72z" />
    <glyph glyph-name="onequarter" unicode="&#xbc;" horiz-adv-x="757" 
d="M113 352l52 295l-69 -19l6 36l91 40h39l-62 -352h-57zM82 0l534 700h71l-534 -700h-71zM593 0l12 68h-174l8 44l208 236h63l-40 -231h48l-9 -49h-48l-12 -68h-56zM500 117h117l30 169v0z" />
    <glyph glyph-name="onehalf" unicode="&#xbd;" horiz-adv-x="825" 
d="M113 352l52 295l-69 -19l6 36l91 40h39l-62 -352h-57zM82 0l534 700h71l-534 -700h-71zM493 0l7 40l128 95q33 25 58.5 51.5t31.5 62.5q6 32 -8.5 48t-39.5 16q-28 0 -48 -16.5t-28 -46.5h-58q11 44 47.5 75.5t95.5 31.5q36 0 60 -14t34.5 -38t4.5 -54
q-7 -42 -36.5 -73.5t-80.5 -66.5l-93 -64h180l-8 -47h-247z" />
    <glyph glyph-name="threequarters" unicode="&#xbe;" horiz-adv-x="825" 
d="M174 347q-55 0 -84.5 26.5t-25.5 77.5h56q-1 -22 6.5 -35.5t22 -19t33.5 -5.5q31 0 53.5 15.5t26.5 42.5q5 29 -12.5 44t-49.5 15h-48l7 39h48q31 0 53 15.5t27 43.5q5 26 -10.5 42t-46.5 16t-50.5 -13.5t-29.5 -36.5h-54q12 41 50.5 68t95.5 27q53 0 83.5 -28.5
t22.5 -72.5q-5 -31 -26 -51.5t-52 -28.5v-2q26 -8 41.5 -29t9.5 -54q-7 -38 -46 -67t-101 -29zM150 0l534 700h71l-534 -700h-71zM661 0l12 68h-174l8 44l208 236h63l-40 -231h48l-9 -49h-48l-12 -68h-56zM568 117h117l30 169v0z" />
    <glyph glyph-name="questiondown" unicode="&#xbf;" horiz-adv-x="521" 
d="M371 315l-25 -156h-25q-54 0 -99.5 -9t-79 -30t-53 -55.5t-20.5 -86.5q-1 -36 14 -64t45 -43t69 -15q46 0 82.5 17t61 48t32.5 73h66q-11 -60 -47 -104.5t-89 -69t-116 -24.5q-57 0 -100 22t-65.5 62t-20.5 93q2 78 39.5 130.5t101.5 79t146 26.5l23 106h60zM361 513
q22 0 36.5 -15.5t14.5 -37.5q0 -21 -14.5 -36t-36.5 -15q-21 0 -35.5 15t-14.5 37t14.5 37t35.5 15z" />
    <glyph glyph-name="Agrave" unicode="&#xc0;" horiz-adv-x="653" 
d="M-12 0l383 700h71l134 -700h-72l-113 614v0l-327 -614h-76zM119 188l29 56h349l10 -56h-388zM513 753l-180 117l17 58v0l176 -123z" />
    <glyph glyph-name="Aacute" unicode="&#xc1;" horiz-adv-x="653" 
d="M-12 0l383 700h71l134 -700h-72l-113 614v0l-327 -614h-76zM119 188l29 56h349l10 -56h-388zM320 753l2 52l216 127v0l-2 -62z" />
    <glyph glyph-name="Acircumflex" unicode="&#xc2;" horiz-adv-x="653" 
d="M-12 0l383 700h71l134 -700h-72l-113 614v0l-327 -614h-76zM119 188l29 56h349l10 -56h-388zM283 761l10 57l149 82l119 -82l-10 -57l-119 84z" />
    <glyph glyph-name="Atilde" unicode="&#xc3;" horiz-adv-x="653" 
d="M-12 0l383 700h71l134 -700h-72l-113 614v0l-327 -614h-76zM119 188l29 56h349l10 -56h-388zM275 770q14 46 42 69.5t62 23.5q26 0 41 -11.5t28.5 -23.5t35.5 -12q16 0 30 11.5t21 33.5h42q-12 -44 -41 -68.5t-64 -24.5q-26 0 -41.5 12t-28.5 23.5t-34 11.5
q-17 0 -30 -11t-21 -34h-42z" />
    <glyph glyph-name="Adieresis" unicode="&#xc4;" horiz-adv-x="653" 
d="M-12 0l383 700h71l134 -700h-72l-113 614v0l-327 -614h-76zM119 188l29 56h349l10 -56h-388zM351 777q-19 0 -32.5 13.5t-13.5 32.5t13.5 32.5t33.5 13.5q18 0 31.5 -14t13.5 -32q0 -19 -13.5 -32.5t-32.5 -13.5zM506 777q-20 0 -33.5 13.5t-13.5 32.5t13.5 32.5
t33.5 13.5q18 0 31 -14t13 -32q0 -19 -13 -32.5t-31 -13.5z" />
    <glyph glyph-name="Aring" unicode="&#xc5;" horiz-adv-x="653" 
d="M-12 0l383 700h71l134 -700h-72l-113 614v0l-327 -614h-76zM119 188l29 56h349l10 -56h-388zM434 770q-41 0 -71.5 26.5t-30.5 73.5t30.5 73.5t71.5 26.5q43 0 72.5 -26.5t29.5 -73.5q0 -46 -29.5 -73t-72.5 -27zM435 809q24 0 41 16.5t17 44.5q0 29 -17 45t-42 16
q-24 0 -41 -16t-17 -45q0 -28 17 -44.5t42 -16.5z" />
    <glyph glyph-name="AE" unicode="&#xc6;" horiz-adv-x="903" 
d="M-12 0l530 700h406l-10 -56h-295l-47 -264h265l-9 -56h-265l-47 -268h294l-10 -56h-365l114 640v0l-484 -640h-77zM152 166l39 56h315l-10 -56h-344z" />
    <glyph glyph-name="Ccedilla" unicode="&#xc7;" horiz-adv-x="715" 
d="M336 -12q-90 0 -152 36.5t-94 102.5t-29 153q2 92 33 171t85 137.5t126 91t155 32.5q118 0 182.5 -55.5t67.5 -156.5h-79q-2 70 -46.5 110.5t-133.5 40.5q-66 0 -123 -27.5t-100 -77t-67.5 -116.5t-26.5 -146q-3 -74 22 -126.5t73 -80.5t116 -28q89 0 147.5 40.5
t85.5 108.5h79q-25 -66 -70.5 -113t-108.5 -72t-142 -25zM222 -258l8 47h86q40 0 60 14.5t21 40.5q0 23 -15 33.5t-48 10.5h-47l21 119h49l-13 -74q36 1 62 -8t39 -28t12 -49q0 -30 -17.5 -54t-47.5 -38t-67 -14h-103z" />
    <glyph glyph-name="Egrave" unicode="&#xc8;" horiz-adv-x="536" 
d="M34 0l123 700h400l-11 -56h-329l-46 -264h299l-9 -56h-300l-47 -268h329l-10 -56h-399zM458 753l-180 117l17 58v0l176 -123z" />
    <glyph glyph-name="Eacute" unicode="&#xc9;" horiz-adv-x="536" 
d="M34 0l123 700h400l-11 -56h-329l-46 -264h299l-9 -56h-300l-47 -268h329l-10 -56h-399zM264 753l2 52l216 127v0l-2 -62z" />
    <glyph glyph-name="Ecircumflex" unicode="&#xca;" horiz-adv-x="536" 
d="M34 0l123 700h400l-11 -56h-329l-46 -264h299l-9 -56h-300l-47 -268h329l-10 -56h-399zM227 761l10 57l149 82l119 -82l-10 -57l-119 84z" />
    <glyph glyph-name="Edieresis" unicode="&#xcb;" horiz-adv-x="536" 
d="M34 0l123 700h400l-11 -56h-329l-46 -264h299l-9 -56h-300l-47 -268h329l-10 -56h-399zM295 777q-19 0 -32.5 13.5t-13.5 32.5t13.5 32.5t33.5 13.5q18 0 31.5 -14t13.5 -32q0 -19 -13.5 -32.5t-32.5 -13.5zM450 777q-20 0 -33.5 13.5t-13.5 32.5t13.5 32.5t33.5 13.5
q18 0 31 -14t13 -32q0 -19 -13 -32.5t-31 -13.5z" />
    <glyph glyph-name="Igrave" unicode="&#xcc;" horiz-adv-x="225" 
d="M34 0l123 700h70l-123 -700h-70zM300 753l-180 117l17 58v0l176 -123z" />
    <glyph glyph-name="Iacute" unicode="&#xcd;" horiz-adv-x="225" 
d="M34 0l123 700h70l-123 -700h-70zM106 753l2 52l216 127v0l-2 -62z" />
    <glyph glyph-name="Icircumflex" unicode="&#xce;" horiz-adv-x="225" 
d="M34 0l123 700h70l-123 -700h-70zM70 761l10 57l149 82l119 -82l-10 -57l-119 84z" />
    <glyph glyph-name="Idieresis" unicode="&#xcf;" horiz-adv-x="225" 
d="M34 0l123 700h70l-123 -700h-70zM138 777q-19 0 -32.5 13.5t-13.5 32.5t13.5 32.5t33.5 13.5q18 0 31.5 -14t13.5 -32q0 -19 -13.5 -32.5t-32.5 -13.5zM293 777q-20 0 -33.5 13.5t-13.5 32.5t13.5 32.5t33.5 13.5q18 0 31 -14t13 -32q0 -19 -13 -32.5t-31 -13.5z" />
    <glyph glyph-name="Eth" unicode="&#xd0;" horiz-adv-x="717" 
d="M21 316l11 65h369l-11 -65h-369zM59 0l123 700h202q109 0 177 -34t99.5 -99t28.5 -160q-2 -91 -32.5 -165.5t-86 -129t-133.5 -83.5t-176 -29h-202zM139 58h132q109 0 185.5 42.5t117.5 120t43 182.5q3 78 -21 131t-78 80.5t-144 27.5h-132z" />
    <glyph glyph-name="Ntilde" unicode="&#xd1;" horiz-adv-x="682" 
d="M34 0l122 700h70l285 -588v0l103 588h70l-123 -700h-70l-283 589v0l-104 -589h-70zM289 770q14 46 42 69.5t62 23.5q26 0 41 -11.5t28.5 -23.5t35.5 -12q16 0 30 11.5t21 33.5h42q-12 -44 -41 -68.5t-64 -24.5q-26 0 -41.5 12t-28.5 23.5t-34 11.5q-17 0 -30 -11t-21 -34
h-42z" />
    <glyph glyph-name="Ograve" unicode="&#xd2;" horiz-adv-x="785" 
d="M346 -12q-88 0 -152.5 39t-99.5 108.5t-32 159.5q2 88 35 163.5t90 132.5t131 89t156 32q88 0 153 -39t99.5 -107.5t32.5 -158.5q-3 -88 -36 -164t-89.5 -133.5t-130 -89.5t-157.5 -32zM358 49q66 0 124.5 27t103.5 75t71.5 113t28.5 140q2 77 -26 132t-79 84.5
t-118 29.5t-125.5 -27t-103.5 -75t-71 -112t-28 -139q-3 -76 25 -131.5t79.5 -86t118.5 -30.5zM580 753l-180 117l17 58v0l176 -123z" />
    <glyph glyph-name="Oacute" unicode="&#xd3;" horiz-adv-x="785" 
d="M346 -12q-88 0 -152.5 39t-99.5 108.5t-32 159.5q2 88 35 163.5t90 132.5t131 89t156 32q88 0 153 -39t99.5 -107.5t32.5 -158.5q-3 -88 -36 -164t-89.5 -133.5t-130 -89.5t-157.5 -32zM358 49q66 0 124.5 27t103.5 75t71.5 113t28.5 140q2 77 -26 132t-79 84.5
t-118 29.5t-125.5 -27t-103.5 -75t-71 -112t-28 -139q-3 -76 25 -131.5t79.5 -86t118.5 -30.5zM386 753l2 52l216 127v0l-2 -62z" />
    <glyph glyph-name="Ocircumflex" unicode="&#xd4;" horiz-adv-x="785" 
d="M346 -12q-88 0 -152.5 39t-99.5 108.5t-32 159.5q2 88 35 163.5t90 132.5t131 89t156 32q88 0 153 -39t99.5 -107.5t32.5 -158.5q-3 -88 -36 -164t-89.5 -133.5t-130 -89.5t-157.5 -32zM358 49q66 0 124.5 27t103.5 75t71.5 113t28.5 140q2 77 -26 132t-79 84.5
t-118 29.5t-125.5 -27t-103.5 -75t-71 -112t-28 -139q-3 -76 25 -131.5t79.5 -86t118.5 -30.5zM349 761l10 57l149 82l119 -82l-10 -57l-119 84z" />
    <glyph glyph-name="Otilde" unicode="&#xd5;" horiz-adv-x="785" 
d="M346 -12q-88 0 -152.5 39t-99.5 108.5t-32 159.5q2 88 35 163.5t90 132.5t131 89t156 32q88 0 153 -39t99.5 -107.5t32.5 -158.5q-3 -88 -36 -164t-89.5 -133.5t-130 -89.5t-157.5 -32zM358 49q66 0 124.5 27t103.5 75t71.5 113t28.5 140q2 77 -26 132t-79 84.5
t-118 29.5t-125.5 -27t-103.5 -75t-71 -112t-28 -139q-3 -76 25 -131.5t79.5 -86t118.5 -30.5zM342 770q14 46 42 69.5t62 23.5q26 0 41 -11.5t28.5 -23.5t35.5 -12q16 0 30 11.5t21 33.5h42q-12 -44 -41 -68.5t-64 -24.5q-26 0 -41.5 12t-28.5 23.5t-34 11.5q-17 0 -30 -11
t-21 -34h-42z" />
    <glyph glyph-name="Odieresis" unicode="&#xd6;" horiz-adv-x="785" 
d="M346 -12q-88 0 -152.5 39t-99.5 108.5t-32 159.5q2 88 35 163.5t90 132.5t131 89t156 32q88 0 153 -39t99.5 -107.5t32.5 -158.5q-3 -88 -36 -164t-89.5 -133.5t-130 -89.5t-157.5 -32zM358 49q66 0 124.5 27t103.5 75t71.5 113t28.5 140q2 77 -26 132t-79 84.5
t-118 29.5t-125.5 -27t-103.5 -75t-71 -112t-28 -139q-3 -76 25 -131.5t79.5 -86t118.5 -30.5zM417 777q-19 0 -32.5 13.5t-13.5 32.5t13.5 32.5t33.5 13.5q18 0 31.5 -14t13.5 -32q0 -19 -13.5 -32.5t-32.5 -13.5zM572 777q-20 0 -33.5 13.5t-13.5 32.5t13.5 32.5
t33.5 13.5q18 0 31 -14t13 -32q0 -19 -13 -32.5t-31 -13.5z" />
    <glyph glyph-name="multiply" unicode="&#xd7;" horiz-adv-x="500" 
d="M88 111l-35 42l161 138l-108 131l48 40l109 -131l163 140l35 -42l-164 -140l108 -131l-48 -40l-108 131z" />
    <glyph glyph-name="Oslash" unicode="&#xd8;" horiz-adv-x="781" 
d="M-5 0l748 700h79l-747 -700h-80zM346 -12q-87 0 -152 39t-100 108.5t-32 159.5q2 87 35 163t90 133t130.5 89t156.5 32q88 0 153 -39t99.5 -107.5t31.5 -158.5q-2 -88 -35 -164t-89.5 -133.5t-130.5 -89.5t-157 -32zM357 49q67 0 125.5 27t103.5 75t71.5 113t28.5 140
q2 77 -26 132t-79 84.5t-118 29.5t-125.5 -27t-103.5 -75t-71.5 -111.5t-27.5 -139.5q-3 -76 25 -131.5t79 -86t118 -30.5z" />
    <glyph glyph-name="Ugrave" unicode="&#xd9;" horiz-adv-x="649" 
d="M278 -12q-80 0 -131.5 32t-71.5 91.5t-4 143.5l79 445h70l-79 -445q-12 -64 0.5 -109.5t49.5 -70t99 -24.5q54 0 99 21t76 66t44 117l80 445h70l-79 -445q-16 -92 -61 -151.5t-107.5 -87.5t-133.5 -28zM517 753l-180 117l17 58v0l176 -123z" />
    <glyph glyph-name="Uacute" unicode="&#xda;" horiz-adv-x="649" 
d="M278 -12q-80 0 -131.5 32t-71.5 91.5t-4 143.5l79 445h70l-79 -445q-12 -64 0.5 -109.5t49.5 -70t99 -24.5q54 0 99 21t76 66t44 117l80 445h70l-79 -445q-16 -92 -61 -151.5t-107.5 -87.5t-133.5 -28zM323 753l2 52l216 127v0l-2 -62z" />
    <glyph glyph-name="Ucircumflex" unicode="&#xdb;" horiz-adv-x="649" 
d="M278 -12q-80 0 -131.5 32t-71.5 91.5t-4 143.5l79 445h70l-79 -445q-12 -64 0.5 -109.5t49.5 -70t99 -24.5q54 0 99 21t76 66t44 117l80 445h70l-79 -445q-16 -92 -61 -151.5t-107.5 -87.5t-133.5 -28zM287 761l10 57l149 82l119 -82l-10 -57l-119 84z" />
    <glyph glyph-name="Udieresis" unicode="&#xdc;" horiz-adv-x="649" 
d="M278 -12q-80 0 -131.5 32t-71.5 91.5t-4 143.5l79 445h70l-79 -445q-12 -64 0.5 -109.5t49.5 -70t99 -24.5q54 0 99 21t76 66t44 117l80 445h70l-79 -445q-16 -92 -61 -151.5t-107.5 -87.5t-133.5 -28zM355 777q-19 0 -32.5 13.5t-13.5 32.5t13.5 32.5t33.5 13.5
q18 0 31.5 -14t13.5 -32q0 -19 -13.5 -32.5t-32.5 -13.5zM510 777q-20 0 -33.5 13.5t-13.5 32.5t13.5 32.5t33.5 13.5q18 0 31 -14t13 -32q0 -19 -13 -32.5t-31 -13.5z" />
    <glyph glyph-name="Yacute" unicode="&#xdd;" horiz-adv-x="567" 
d="M205 0l48 273l-151 427h80l117 -363v0l246 363h79l-301 -427l-48 -273h-70zM282 753l2 52l216 127v0l-2 -62z" />
    <glyph glyph-name="Thorn" unicode="&#xde;" horiz-adv-x="575" 
d="M34 0l123 700h70l-26 -149h151q72 0 118 -22.5t67 -61.5t19 -89q-1 -69 -35.5 -120.5t-95.5 -79.5t-144 -28h-151l-26 -150h-70zM141 210h151q91 0 140.5 45t50.5 124q2 55 -31 84t-110 29h-151z" />
    <glyph glyph-name="germandbls" unicode="&#xdf;" horiz-adv-x="648" 
d="M382 -10q-84 0 -129.5 49t-37.5 128h71q-6 -55 22 -87.5t83 -32.5q56 0 90.5 30.5t35.5 81.5q1 21 -7.5 37t-28 29t-51.5 24q-67 24 -96.5 49t-28.5 65q1 34 20 56.5t46 39t54 33.5t46 38.5t19 54.5q2 39 -30 63.5t-92 24.5q-78 0 -121.5 -42.5t-56.5 -115.5l-92 -515
h-70l93 523q11 61 43.5 108t86.5 74t128 27q62 0 103 -18.5t61 -50t18 -70.5q0 -42 -19 -69t-46 -46t-54 -34t-45 -30.5t-19 -36.5q0 -14 8 -26t31 -23t64 -26q59 -21 84.5 -53t24.5 -82q-1 -52 -28 -91.5t-73.5 -62.5t-106.5 -23z" />
    <glyph glyph-name="agrave" unicode="&#xe0;" horiz-adv-x="541" 
d="M185 -12q-55 0 -90 19.5t-51.5 51t-15.5 66.5q2 56 33 96t85.5 61t126.5 21h136q9 50 -1 83.5t-36 50t-68 16.5q-51 0 -93.5 -26.5t-60.5 -76.5h-73q16 53 51.5 89.5t84 55t100.5 18.5q66 0 107 -25.5t56 -71.5t4 -108l-54 -308h-64l12 91v0q-14 -20 -32 -39t-41 -33.5
t-52 -22.5t-64 -8zM201 50q37 0 69.5 15t58.5 40t42.5 56.5t23.5 64.5l4 18h-131q-52 0 -89 -13.5t-56.5 -38.5t-20.5 -60q-1 -38 23.5 -60t75.5 -22zM412 543l-180 117l17 58v0l176 -123z" />
    <glyph glyph-name="aacute" unicode="&#xe1;" horiz-adv-x="541" 
d="M185 -12q-55 0 -90 19.5t-51.5 51t-15.5 66.5q2 56 33 96t85.5 61t126.5 21h136q9 50 -1 83.5t-36 50t-68 16.5q-51 0 -93.5 -26.5t-60.5 -76.5h-73q16 53 51.5 89.5t84 55t100.5 18.5q66 0 107 -25.5t56 -71.5t4 -108l-54 -308h-64l12 91v0q-14 -20 -32 -39t-41 -33.5
t-52 -22.5t-64 -8zM201 50q37 0 69.5 15t58.5 40t42.5 56.5t23.5 64.5l4 18h-131q-52 0 -89 -13.5t-56.5 -38.5t-20.5 -60q-1 -38 23.5 -60t75.5 -22zM220 543l2 52l216 127v0l-2 -62z" />
    <glyph glyph-name="acircumflex" unicode="&#xe2;" horiz-adv-x="541" 
d="M185 -12q-55 0 -90 19.5t-51.5 51t-15.5 66.5q2 56 33 96t85.5 61t126.5 21h136q9 50 -1 83.5t-36 50t-68 16.5q-51 0 -93.5 -26.5t-60.5 -76.5h-73q16 53 51.5 89.5t84 55t100.5 18.5q66 0 107 -25.5t56 -71.5t4 -108l-54 -308h-64l12 91v0q-14 -20 -32 -39t-41 -33.5
t-52 -22.5t-64 -8zM201 50q37 0 69.5 15t58.5 40t42.5 56.5t23.5 64.5l4 18h-131q-52 0 -89 -13.5t-56.5 -38.5t-20.5 -60q-1 -38 23.5 -60t75.5 -22zM183 559l10 57l149 82l119 -82l-10 -57l-119 84z" />
    <glyph glyph-name="atilde" unicode="&#xe3;" horiz-adv-x="541" 
d="M185 -12q-55 0 -90 19.5t-51.5 51t-15.5 66.5q2 56 33 96t85.5 61t126.5 21h136q9 50 -1 83.5t-36 50t-68 16.5q-51 0 -93.5 -26.5t-60.5 -76.5h-73q16 53 51.5 89.5t84 55t100.5 18.5q66 0 107 -25.5t56 -71.5t4 -108l-54 -308h-64l12 91v0q-14 -20 -32 -39t-41 -33.5
t-52 -22.5t-64 -8zM201 50q37 0 69.5 15t58.5 40t42.5 56.5t23.5 64.5l4 18h-131q-52 0 -89 -13.5t-56.5 -38.5t-20.5 -60q-1 -38 23.5 -60t75.5 -22zM174 562q14 46 42 69.5t62 23.5q26 0 41 -11.5t28.5 -23.5t35.5 -12q16 0 30 11.5t21 33.5h42q-12 -44 -41 -68.5
t-64 -24.5q-26 0 -41.5 12t-28.5 23.5t-34 11.5q-17 0 -30 -11t-21 -34h-42z" />
    <glyph glyph-name="adieresis" unicode="&#xe4;" horiz-adv-x="541" 
d="M185 -12q-55 0 -90 19.5t-51.5 51t-15.5 66.5q2 56 33 96t85.5 61t126.5 21h136q9 50 -1 83.5t-36 50t-68 16.5q-51 0 -93.5 -26.5t-60.5 -76.5h-73q16 53 51.5 89.5t84 55t100.5 18.5q66 0 107 -25.5t56 -71.5t4 -108l-54 -308h-64l12 91v0q-14 -20 -32 -39t-41 -33.5
t-52 -22.5t-64 -8zM201 50q37 0 69.5 15t58.5 40t42.5 56.5t23.5 64.5l4 18h-131q-52 0 -89 -13.5t-56.5 -38.5t-20.5 -60q-1 -38 23.5 -60t75.5 -22zM251 576q-19 0 -32.5 13.5t-13.5 32.5t13.5 32.5t33.5 13.5q18 0 31.5 -14t13.5 -32q0 -19 -13.5 -32.5t-32.5 -13.5z
M406 576q-20 0 -33.5 13.5t-13.5 32.5t13.5 32.5t33.5 13.5q18 0 31 -14t13 -32q0 -19 -13 -32.5t-31 -13.5z" />
    <glyph glyph-name="aring" unicode="&#xe5;" horiz-adv-x="541" 
d="M185 -12q-55 0 -90 19.5t-51.5 51t-15.5 66.5q2 56 33 96t85.5 61t126.5 21h136q9 50 -1 83.5t-36 50t-68 16.5q-51 0 -93.5 -26.5t-60.5 -76.5h-73q16 53 51.5 89.5t84 55t100.5 18.5q66 0 107 -25.5t56 -71.5t4 -108l-54 -308h-64l12 91v0q-14 -20 -32 -39t-41 -33.5
t-52 -22.5t-64 -8zM201 50q37 0 69.5 15t58.5 40t42.5 56.5t23.5 64.5l4 18h-131q-52 0 -89 -13.5t-56.5 -38.5t-20.5 -60q-1 -38 23.5 -60t75.5 -22zM335 565q-41 0 -71.5 26.5t-30.5 73.5t30.5 73.5t71.5 26.5q43 0 72.5 -26.5t29.5 -73.5q0 -46 -29.5 -73t-72.5 -27z
M336 604q24 0 41 16.5t17 44.5q0 29 -17 45t-42 16q-24 0 -41 -16t-17 -45q0 -28 17 -44.5t42 -16.5z" />
    <glyph glyph-name="ae" unicode="&#xe6;" horiz-adv-x="920" 
d="M184 -12q-54 0 -89 18.5t-51.5 49.5t-15.5 67q2 55 32.5 95.5t83.5 62.5t121 22h150q9 48 0 81t-34.5 51t-69.5 18q-52 0 -94 -26.5t-60 -76.5h-74q16 53 53.5 89.5t86.5 55t98 18.5q45 0 78 -12t54 -33.5t30 -51.5q40 46 94.5 71.5t117.5 25.5q65 0 108 -27t64 -71
t19 -98q0 -12 -3 -29t-5.5 -32l-3.5 -21h-400q-9 -54 6 -96t49 -66.5t83 -24.5q60 0 104.5 29.5t69.5 80.5h67q-21 -48 -56.5 -87t-85 -61t-110.5 -22q-70 0 -118.5 34t-67.5 93q-22 -34 -56 -63t-77.5 -46.5t-97.5 -17.5zM204 50q48 0 88.5 23t69 62t39.5 84l4 25h-146
q-47 0 -82 -13.5t-54.5 -38t-20.5 -61.5q0 -24 11.5 -42t34.5 -28.5t56 -10.5zM485 294h332q6 52 -9 87t-47 53.5t-78 18.5q-44 0 -84 -18t-70 -53.5t-44 -87.5z" />
    <glyph glyph-name="ccedilla" unicode="&#xe7;" horiz-adv-x="565" 
d="M248 -12q-61 0 -107.5 27.5t-71.5 77.5t-23 114q2 68 25.5 123.5t63.5 96.5t92.5 63.5t111.5 22.5q90 0 141 -46t53 -123h-71q-1 54 -39 81t-93 27q-56 0 -104 -29.5t-76.5 -83t-30.5 -125.5q-2 -40 8.5 -71t30 -52.5t45.5 -32.5t56 -11q36 0 70 12t60.5 36.5t40.5 61.5
h70q-18 -50 -55 -88t-87 -59.5t-110 -21.5zM129 -258l8 47h86q40 0 60 14.5t21 40.5q0 23 -15 33.5t-48 10.5h-47l21 119h49l-13 -74q36 1 62 -8t39 -28t12 -49q0 -30 -17.5 -54t-47.5 -38t-67 -14h-103z" />
    <glyph glyph-name="egrave" unicode="&#xe8;" horiz-adv-x="563" 
d="M243 -12q-62 0 -107 27.5t-68.5 76.5t-21.5 115t24 121.5t61 97t90.5 64.5t113.5 23q67 0 110 -27t64 -71t19 -98q0 -18 -4 -41t-8 -41h-414l10 59h347q6 52 -9 87t-47 53.5t-79 18.5q-44 0 -86.5 -20.5t-73 -59.5t-41.5 -98l-5 -26q-9 -60 3.5 -105.5t46.5 -70.5t86 -25
q56 0 98 26t66 71h68q-20 -45 -55 -80.5t-82.5 -56t-105.5 -20.5zM437 543l-180 117l17 58v0l176 -123z" />
    <glyph glyph-name="eacute" unicode="&#xe9;" horiz-adv-x="563" 
d="M243 -12q-62 0 -107 27.5t-68.5 76.5t-21.5 115t24 121.5t61 97t90.5 64.5t113.5 23q67 0 110 -27t64 -71t19 -98q0 -18 -4 -41t-8 -41h-414l10 59h347q6 52 -9 87t-47 53.5t-79 18.5q-44 0 -86.5 -20.5t-73 -59.5t-41.5 -98l-5 -26q-9 -60 3.5 -105.5t46.5 -70.5t86 -25
q56 0 98 26t66 71h68q-20 -45 -55 -80.5t-82.5 -56t-105.5 -20.5zM245 543l2 52l216 127v0l-2 -62z" />
    <glyph glyph-name="ecircumflex" unicode="&#xea;" horiz-adv-x="563" 
d="M243 -12q-62 0 -107 27.5t-68.5 76.5t-21.5 115t24 121.5t61 97t90.5 64.5t113.5 23q67 0 110 -27t64 -71t19 -98q0 -18 -4 -41t-8 -41h-414l10 59h347q6 52 -9 87t-47 53.5t-79 18.5q-44 0 -86.5 -20.5t-73 -59.5t-41.5 -98l-5 -26q-9 -60 3.5 -105.5t46.5 -70.5t86 -25
q56 0 98 26t66 71h68q-20 -45 -55 -80.5t-82.5 -56t-105.5 -20.5zM208 559l10 57l149 82l119 -82l-10 -57l-119 84z" />
    <glyph glyph-name="edieresis" unicode="&#xeb;" horiz-adv-x="563" 
d="M243 -12q-62 0 -107 27.5t-68.5 76.5t-21.5 115t24 121.5t61 97t90.5 64.5t113.5 23q67 0 110 -27t64 -71t19 -98q0 -18 -4 -41t-8 -41h-414l10 59h347q6 52 -9 87t-47 53.5t-79 18.5q-44 0 -86.5 -20.5t-73 -59.5t-41.5 -98l-5 -26q-9 -60 3.5 -105.5t46.5 -70.5t86 -25
q56 0 98 26t66 71h68q-20 -45 -55 -80.5t-82.5 -56t-105.5 -20.5zM276 576q-19 0 -32.5 13.5t-13.5 32.5t13.5 32.5t33.5 13.5q18 0 31.5 -14t13.5 -32q0 -19 -13.5 -32.5t-32.5 -13.5zM431 576q-20 0 -33.5 13.5t-13.5 32.5t13.5 32.5t33.5 13.5q18 0 31 -14t13 -32
q0 -19 -13 -32.5t-31 -13.5z" />
    <glyph glyph-name="igrave" unicode="&#xec;" horiz-adv-x="212" 
d="M27 0l88 501h70l-88 -501h-70zM255 543l-180 117l17 58v0l176 -123z" />
    <glyph glyph-name="iacute" unicode="&#xed;" horiz-adv-x="212" 
d="M27 0l88 501h70l-88 -501h-70zM63 543l2 52l216 127v0l-2 -62z" />
    <glyph glyph-name="icircumflex" unicode="&#xee;" horiz-adv-x="212" 
d="M27 0l88 501h70l-88 -501h-70zM26 559l10 57l149 82l119 -82l-10 -57l-119 84z" />
    <glyph glyph-name="idieresis" unicode="&#xef;" horiz-adv-x="212" 
d="M27 0l88 501h70l-88 -501h-70zM94 576q-19 0 -32.5 13.5t-13.5 32.5t13.5 32.5t33.5 13.5q18 0 31.5 -14t13.5 -32q0 -19 -13.5 -32.5t-32.5 -13.5zM249 576q-20 0 -33.5 13.5t-13.5 32.5t13.5 32.5t33.5 13.5q18 0 31 -14t13 -32q0 -19 -13 -32.5t-31 -13.5z" />
    <glyph glyph-name="eth" unicode="&#xf0;" horiz-adv-x="611" 
d="M266 -12q-71 0 -120.5 31.5t-75.5 84t-23 116.5q1 62 25 114.5t65 92.5t93.5 62t112.5 22q51 0 97.5 -19t70.5 -68q-6 38 -19 73.5t-32 69t-46 67t-62 66.5h73q38 -36 66 -77.5t47 -86t27.5 -93t6.5 -100.5q-2 -92 -29.5 -158.5t-71.5 -110.5t-97.5 -65t-107.5 -21z
M273 47q44 0 83 18.5t69.5 51t48.5 75t19 91.5q2 54 -18.5 92t-56.5 57t-82 19q-58 0 -107 -30t-78.5 -81.5t-31.5 -114.5q-2 -54 17 -94t54.5 -62t82.5 -22zM291 555l9 51l304 102l-9 -51z" />
    <glyph glyph-name="ntilde" unicode="&#xf1;" horiz-adv-x="563" 
d="M27 0l88 501h64l-12 -92v0q32 49 82.5 76.5t107.5 27.5q63 0 101 -27.5t51.5 -76t1.5 -109.5l-53 -300h-70l52 292q13 76 -12.5 118t-93.5 42q-44 0 -82.5 -20.5t-66 -60t-40.5 -97.5l-48 -274h-70zM194 562q14 46 42 69.5t62 23.5q26 0 41 -11.5t28.5 -23.5t35.5 -12
q16 0 30 11.5t21 33.5h42q-12 -44 -41 -68.5t-64 -24.5q-26 0 -41.5 12t-28.5 23.5t-34 11.5q-17 0 -30 -11t-21 -34h-42z" />
    <glyph glyph-name="ograve" unicode="&#xf2;" horiz-adv-x="592" 
d="M254 -12q-62 0 -110 28.5t-74 79.5t-24 116q2 66 25 120.5t63 95t92 63t112 22.5q64 0 111.5 -28t73.5 -77.5t23 -115.5q-1 -66 -24.5 -121t-63 -96t-92 -64t-112.5 -23zM263 48q58 0 105 31t76 84.5t30 123.5q2 53 -17.5 90t-53 56t-74.5 19q-57 0 -104 -31t-75.5 -84.5
t-30.5 -122.5q-2 -53 17.5 -90t52.5 -56.5t74 -19.5zM443 543l-180 117l17 58v0l176 -123z" />
    <glyph glyph-name="oacute" unicode="&#xf3;" horiz-adv-x="592" 
d="M254 -12q-62 0 -110 28.5t-74 79.5t-24 116q2 66 25 120.5t63 95t92 63t112 22.5q64 0 111.5 -28t73.5 -77.5t23 -115.5q-1 -66 -24.5 -121t-63 -96t-92 -64t-112.5 -23zM263 48q58 0 105 31t76 84.5t30 123.5q2 53 -17.5 90t-53 56t-74.5 19q-57 0 -104 -31t-75.5 -84.5
t-30.5 -122.5q-2 -53 17.5 -90t52.5 -56.5t74 -19.5zM251 543l2 52l216 127v0l-2 -62z" />
    <glyph glyph-name="ocircumflex" unicode="&#xf4;" horiz-adv-x="592" 
d="M254 -12q-62 0 -110 28.5t-74 79.5t-24 116q2 66 25 120.5t63 95t92 63t112 22.5q64 0 111.5 -28t73.5 -77.5t23 -115.5q-1 -66 -24.5 -121t-63 -96t-92 -64t-112.5 -23zM263 48q58 0 105 31t76 84.5t30 123.5q2 53 -17.5 90t-53 56t-74.5 19q-57 0 -104 -31t-75.5 -84.5
t-30.5 -122.5q-2 -53 17.5 -90t52.5 -56.5t74 -19.5zM214 559l10 57l149 82l119 -82l-10 -57l-119 84z" />
    <glyph glyph-name="otilde" unicode="&#xf5;" horiz-adv-x="592" 
d="M254 -12q-62 0 -110 28.5t-74 79.5t-24 116q2 66 25 120.5t63 95t92 63t112 22.5q64 0 111.5 -28t73.5 -77.5t23 -115.5q-1 -66 -24.5 -121t-63 -96t-92 -64t-112.5 -23zM263 48q58 0 105 31t76 84.5t30 123.5q2 53 -17.5 90t-53 56t-74.5 19q-57 0 -104 -31t-75.5 -84.5
t-30.5 -122.5q-2 -53 17.5 -90t52.5 -56.5t74 -19.5zM205 562q14 46 42 69.5t62 23.5q26 0 41 -11.5t28.5 -23.5t35.5 -12q16 0 30 11.5t21 33.5h42q-12 -44 -41 -68.5t-64 -24.5q-26 0 -41.5 12t-28.5 23.5t-34 11.5q-17 0 -30 -11t-21 -34h-42z" />
    <glyph glyph-name="odieresis" unicode="&#xf6;" horiz-adv-x="592" 
d="M254 -12q-62 0 -110 28.5t-74 79.5t-24 116q2 66 25 120.5t63 95t92 63t112 22.5q64 0 111.5 -28t73.5 -77.5t23 -115.5q-1 -66 -24.5 -121t-63 -96t-92 -64t-112.5 -23zM263 48q58 0 105 31t76 84.5t30 123.5q2 53 -17.5 90t-53 56t-74.5 19q-57 0 -104 -31t-75.5 -84.5
t-30.5 -122.5q-2 -53 17.5 -90t52.5 -56.5t74 -19.5zM282 576q-19 0 -32.5 13.5t-13.5 32.5t13.5 32.5t33.5 13.5q18 0 31.5 -14t13.5 -32q0 -19 -13.5 -32.5t-32.5 -13.5zM437 576q-20 0 -33.5 13.5t-13.5 32.5t13.5 32.5t33.5 13.5q18 0 31 -14t13 -32q0 -19 -13 -32.5
t-31 -13.5z" />
    <glyph glyph-name="divide" unicode="&#xf7;" horiz-adv-x="500" 
d="M58 261l10 59h389l-10 -59h-389zM234 107q-22 0 -36.5 15t-14.5 37t14.5 36.5t37.5 14.5q21 0 35.5 -14.5t14.5 -36.5t-14.5 -37t-36.5 -15zM282 372q-22 0 -37 15t-15 37t14.5 36.5t37.5 14.5q21 0 35.5 -14.5t14.5 -36.5t-14.5 -37t-35.5 -15z" />
    <glyph glyph-name="oslash" unicode="&#xf8;" horiz-adv-x="597" 
d="M0 0l525 501h72l-524 -501h-73zM258 -12q-63 0 -110.5 28.5t-73.5 79.5t-24 116q2 66 25 120.5t63 95t92.5 63t112.5 22.5q63 0 110.5 -28t73.5 -77.5t24 -115.5t-25 -121t-63 -96t-92.5 -64t-112.5 -23zM267 48q59 0 106 31t75.5 84.5t30.5 123.5q2 53 -18 90t-53 56
t-75 19q-57 0 -104 -30.5t-75.5 -84.5t-30.5 -123q-2 -53 17.5 -90t53 -56.5t73.5 -19.5z" />
    <glyph glyph-name="ugrave" unicode="&#xf9;" horiz-adv-x="563" 
d="M205 -12q-62 0 -100.5 28t-52 75.5t-1.5 109.5l53 300h70l-51 -292q-13 -77 11.5 -118.5t92.5 -41.5q44 0 83 20.5t67.5 60t39.5 97.5l48 274h70l-87 -501h-64l11 92v0q-31 -49 -82 -76.5t-108 -27.5zM422 543l-180 117l17 58v0l176 -123z" />
    <glyph glyph-name="uacute" unicode="&#xfa;" horiz-adv-x="563" 
d="M205 -12q-62 0 -100.5 28t-52 75.5t-1.5 109.5l53 300h70l-51 -292q-13 -77 11.5 -118.5t92.5 -41.5q44 0 83 20.5t67.5 60t39.5 97.5l48 274h70l-87 -501h-64l11 92v0q-31 -49 -82 -76.5t-108 -27.5zM230 543l2 52l216 127v0l-2 -62z" />
    <glyph glyph-name="ucircumflex" unicode="&#xfb;" horiz-adv-x="563" 
d="M205 -12q-62 0 -100.5 28t-52 75.5t-1.5 109.5l53 300h70l-51 -292q-13 -77 11.5 -118.5t92.5 -41.5q44 0 83 20.5t67.5 60t39.5 97.5l48 274h70l-87 -501h-64l11 92v0q-31 -49 -82 -76.5t-108 -27.5zM193 559l10 57l149 82l119 -82l-10 -57l-119 84z" />
    <glyph glyph-name="udieresis" unicode="&#xfc;" horiz-adv-x="563" 
d="M205 -12q-62 0 -100.5 28t-52 75.5t-1.5 109.5l53 300h70l-51 -292q-13 -77 11.5 -118.5t92.5 -41.5q44 0 83 20.5t67.5 60t39.5 97.5l48 274h70l-87 -501h-64l11 92v0q-31 -49 -82 -76.5t-108 -27.5zM261 576q-19 0 -32.5 13.5t-13.5 32.5t13.5 32.5t33.5 13.5
q18 0 31.5 -14t13.5 -32q0 -19 -13.5 -32.5t-32.5 -13.5zM416 576q-20 0 -33.5 13.5t-13.5 32.5t13.5 32.5t33.5 13.5q18 0 31 -14t13 -32q0 -19 -13 -32.5t-31 -13.5z" />
    <glyph glyph-name="yacute" unicode="&#xfd;" horiz-adv-x="543" 
d="M40 -220l172 273h-27l-120 448h73l104 -401v0l252 401h73l-454 -721h-73zM230 543l2 52l216 127v0l-2 -62z" />
    <glyph glyph-name="thorn" unicode="&#xfe;" horiz-adv-x="614" 
d="M-13 -220l166 940h70l-53 -305q21 27 49 49t65 35.5t83 13.5q65 0 111 -29.5t69.5 -79.5t21.5 -113q-2 -65 -24 -120t-60.5 -96.5t-89.5 -64t-112 -22.5q-41 0 -76 14.5t-58.5 38.5t-34.5 51l-57 -312h-70zM290 49q59 0 105 30t73 83t29 121q1 49 -15.5 87.5t-50 60
t-78.5 21.5q-59 0 -106 -31.5t-75 -85t-30 -121.5q-1 -50 16.5 -87t51.5 -57.5t80 -20.5z" />
    <glyph glyph-name="ydieresis" unicode="&#xff;" horiz-adv-x="543" 
d="M40 -220l172 273h-27l-120 448h73l104 -401v0l252 401h73l-454 -721h-73zM261 576q-19 0 -32.5 13.5t-13.5 32.5t13.5 32.5t33.5 13.5q18 0 31.5 -14t13.5 -32q0 -19 -13.5 -32.5t-32.5 -13.5zM416 576q-20 0 -33.5 13.5t-13.5 32.5t13.5 32.5t33.5 13.5q18 0 31 -14
t13 -32q0 -19 -13 -32.5t-31 -13.5z" />
    <glyph glyph-name="Amacron" unicode="&#x100;" horiz-adv-x="653" 
d="M-12 0l383 700h71l134 -700h-72l-113 614v0l-327 -614h-76zM119 188l29 56h349l10 -56h-388zM256 816l10 54h339l-9 -54h-340z" />
    <glyph glyph-name="amacron" unicode="&#x101;" horiz-adv-x="541" 
d="M185 -12q-55 0 -90 19.5t-51.5 51t-15.5 66.5q2 56 33 96t85.5 61t126.5 21h136q9 50 -1 83.5t-36 50t-68 16.5q-51 0 -93.5 -26.5t-60.5 -76.5h-73q16 53 51.5 89.5t84 55t100.5 18.5q66 0 107 -25.5t56 -71.5t4 -108l-54 -308h-64l12 91v0q-14 -20 -32 -39t-41 -33.5
t-52 -22.5t-64 -8zM201 50q37 0 69.5 15t58.5 40t42.5 56.5t23.5 64.5l4 18h-131q-52 0 -89 -13.5t-56.5 -38.5t-20.5 -60q-1 -38 23.5 -60t75.5 -22zM154 599l10 54h339l-9 -54h-340z" />
    <glyph glyph-name="Abreve" unicode="&#x102;" horiz-adv-x="653" 
d="M-12 0l383 700h71l134 -700h-72l-113 614v0l-327 -614h-76zM119 188l29 56h349l10 -56h-388zM418 769q-44 0 -71 17t-37 45t-5 61l2 13h44q-7 -38 11 -59t66 -21q47 0 72.5 21t32.5 59h45l-3 -13q-6 -33 -26 -61t-52.5 -45t-78.5 -17z" />
    <glyph glyph-name="abreve" unicode="&#x103;" horiz-adv-x="541" 
d="M185 -12q-55 0 -90 19.5t-51.5 51t-15.5 66.5q2 56 33 96t85.5 61t126.5 21h136q9 50 -1 83.5t-36 50t-68 16.5q-51 0 -93.5 -26.5t-60.5 -76.5h-73q16 53 51.5 89.5t84 55t100.5 18.5q66 0 107 -25.5t56 -71.5t4 -108l-54 -308h-64l12 91v0q-14 -20 -32 -39t-41 -33.5
t-52 -22.5t-64 -8zM201 50q37 0 69.5 15t58.5 40t42.5 56.5t23.5 64.5l4 18h-131q-52 0 -89 -13.5t-56.5 -38.5t-20.5 -60q-1 -38 23.5 -60t75.5 -22zM317 565q-44 0 -71 17t-37 45t-5 61l2 13h44q-7 -38 11 -59t66 -21q47 0 72.5 21t32.5 59h45l-3 -13q-6 -33 -26 -61
t-52.5 -45t-78.5 -17z" />
    <glyph glyph-name="Aogonek" unicode="&#x104;" horiz-adv-x="653" 
d="M-12 0l383 700h71l134 -700h-72l-113 614v0l-327 -614h-76zM119 188l29 56h349l10 -56h-388zM472 -201q-28 0 -53 9t-37 29.5t-6 53.5q3 23 17.5 44.5t41.5 41.5t70 37l59 24l13 -38l-65 -29q-38 -17 -55 -35t-21 -38q-4 -25 10.5 -38t41.5 -13q15 0 32.5 3.5t34.5 10.5
l-9 -49q-16 -6 -35.5 -9.5t-38.5 -3.5z" />
    <glyph glyph-name="aogonek" unicode="&#x105;" horiz-adv-x="541" 
d="M185 -12q-55 0 -90 19.5t-51.5 51t-15.5 66.5q2 56 33 96t85.5 61t126.5 21h136q9 50 -1 83.5t-36 50t-68 16.5q-51 0 -93.5 -26.5t-60.5 -76.5h-73q16 53 51.5 89.5t84 55t100.5 18.5q66 0 107 -25.5t56 -71.5t4 -108l-54 -308h-64l12 91v0q-14 -20 -32 -39t-41 -33.5
t-52 -22.5t-64 -8zM201 50q37 0 69.5 15t58.5 40t42.5 56.5t23.5 64.5l4 18h-131q-52 0 -89 -13.5t-56.5 -38.5t-20.5 -60q-1 -38 23.5 -60t75.5 -22zM322 -201q-28 0 -53 9t-37 29.5t-6 53.5q3 23 17.5 44.5t41.5 41.5t70 37l59 24l13 -38l-65 -29q-38 -17 -55 -35t-21 -38
q-4 -25 10.5 -38t41.5 -13q15 0 32.5 3.5t34.5 10.5l-9 -49q-16 -6 -35.5 -9.5t-38.5 -3.5z" />
    <glyph glyph-name="Cacute" unicode="&#x106;" horiz-adv-x="715" 
d="M336 -12q-90 0 -152 36.5t-94 102.5t-29 153q2 92 33 171t85 137.5t126 91t155 32.5q118 0 182.5 -55.5t67.5 -156.5h-79q-2 70 -46.5 110.5t-133.5 40.5q-66 0 -123 -27.5t-100 -77t-67.5 -116.5t-26.5 -146q-3 -74 22 -126.5t73 -80.5t116 -28q89 0 147.5 40.5
t85.5 108.5h79q-25 -66 -70.5 -113t-108.5 -72t-142 -25zM372 753l2 52l216 127v0l-2 -62z" />
    <glyph glyph-name="cacute" unicode="&#x107;" horiz-adv-x="565" 
d="M248 -12q-61 0 -107.5 27.5t-71.5 77.5t-23 114q2 68 25.5 123.5t63.5 96.5t92.5 63.5t111.5 22.5q90 0 141 -46t53 -123h-71q-1 54 -39 81t-93 27q-56 0 -104 -29.5t-76.5 -83t-30.5 -125.5q-2 -40 8.5 -71t30 -52.5t45.5 -32.5t56 -11q36 0 70 12t60.5 36.5t40.5 61.5
h70q-18 -50 -55 -88t-87 -59.5t-110 -21.5zM240 543l2 52l216 127v0l-2 -62z" />
    <glyph glyph-name="Cdotaccent" unicode="&#x10a;" horiz-adv-x="715" 
d="M336 -12q-90 0 -152 36.5t-94 102.5t-29 153q2 92 33 171t85 137.5t126 91t155 32.5q118 0 182.5 -55.5t67.5 -156.5h-79q-2 70 -46.5 110.5t-133.5 40.5q-66 0 -123 -27.5t-100 -77t-67.5 -116.5t-26.5 -146q-3 -74 22 -126.5t73 -80.5t116 -28q89 0 147.5 40.5
t85.5 108.5h79q-25 -66 -70.5 -113t-108.5 -72t-142 -25zM480 777q-19 0 -32.5 13.5t-13.5 32.5t13.5 32.5t32.5 13.5t32.5 -13.5t13.5 -32.5t-13.5 -32.5t-32.5 -13.5z" />
    <glyph glyph-name="cdotaccent" unicode="&#x10b;" horiz-adv-x="565" 
d="M248 -12q-61 0 -107.5 27.5t-71.5 77.5t-23 114q2 68 25.5 123.5t63.5 96.5t92.5 63.5t111.5 22.5q90 0 141 -46t53 -123h-71q-1 54 -39 81t-93 27q-56 0 -104 -29.5t-76.5 -83t-30.5 -125.5q-2 -40 8.5 -71t30 -52.5t45.5 -32.5t56 -11q36 0 70 12t60.5 36.5t40.5 61.5
h70q-18 -50 -55 -88t-87 -59.5t-110 -21.5zM346 568q-19 0 -32.5 13.5t-13.5 32.5t13.5 32.5t32.5 13.5t32.5 -13.5t13.5 -32.5t-13.5 -32.5t-32.5 -13.5z" />
    <glyph glyph-name="Ccaron" unicode="&#x10c;" horiz-adv-x="715" 
d="M336 -12q-90 0 -152 36.5t-94 102.5t-29 153q2 92 33 171t85 137.5t126 91t155 32.5q118 0 182.5 -55.5t67.5 -156.5h-79q-2 70 -46.5 110.5t-133.5 40.5q-66 0 -123 -27.5t-100 -77t-67.5 -116.5t-26.5 -146q-3 -74 22 -126.5t73 -80.5t116 -28q89 0 147.5 40.5
t85.5 108.5h79q-25 -66 -70.5 -113t-108.5 -72t-142 -25zM624 900l-10 -57l-148 -82l-120 82l10 57l119 -84z" />
    <glyph glyph-name="ccaron" unicode="&#x10d;" horiz-adv-x="565" 
d="M248 -12q-61 0 -107.5 27.5t-71.5 77.5t-23 114q2 68 25.5 123.5t63.5 96.5t92.5 63.5t111.5 22.5q90 0 141 -46t53 -123h-71q-1 54 -39 81t-93 27q-56 0 -104 -29.5t-76.5 -83t-30.5 -125.5q-2 -40 8.5 -71t30 -52.5t45.5 -32.5t56 -11q36 0 70 12t60.5 36.5t40.5 61.5
h70q-18 -50 -55 -88t-87 -59.5t-110 -21.5zM496 699l-10 -57l-149 -82l-119 82l10 57l119 -84z" />
    <glyph glyph-name="Dcaron" unicode="&#x10e;" horiz-adv-x="692" 
d="M34 0l123 700h201q110 0 177.5 -34t99.5 -99t29 -160q-2 -91 -32.5 -165.5t-86 -129t-133.5 -83.5t-177 -29h-201zM114 58h131q110 0 186 42.5t117.5 120t43.5 182.5q2 78 -21.5 131t-77.5 80.5t-145 27.5h-131zM552 900l-10 -57l-149 -82l-119 82l10 57l119 -84z" />
    <glyph glyph-name="dcaron" unicode="&#x10f;" horiz-adv-x="685" 
d="M249 -12q-66 0 -112 31t-69 82.5t-21 114.5q1 65 23 119t60.5 94t89.5 62t110 22q67 0 109.5 -27.5t62.5 -75.5l55 310h70l-128 -720h-64l10 89v0q-20 -26 -47.5 -49t-64.5 -37.5t-84 -14.5zM264 49q60 0 106 32t73.5 86.5t29.5 121.5q2 50 -14.5 86.5t-49.5 56.5t-81 20
q-58 0 -105 -30t-75 -82t-29 -120q-2 -49 15 -88t51 -61t79 -22zM645 565l6 36q23 0 33.5 9.5t14.5 28.5l4 22h-40l13 76h75q0 -25 -0.5 -43t-3.5 -37q-9 -50 -35 -71t-67 -21z" />
    <glyph glyph-name="Dcroat" unicode="&#x110;" horiz-adv-x="717" 
d="M21 316l11 65h369l-11 -65h-369zM59 0l123 700h202q109 0 177 -34t99.5 -99t28.5 -160q-2 -91 -32.5 -165.5t-86 -129t-133.5 -83.5t-176 -29h-202zM139 58h132q109 0 185.5 42.5t117.5 120t43 182.5q3 78 -21 131t-78 80.5t-144 27.5h-132z" />
    <glyph glyph-name="dcroat" unicode="&#x111;" horiz-adv-x="665" 
d="M386 572l10 60h293l-10 -60h-293zM249 -12q-66 0 -112 31t-69 82.5t-21 114.5q1 65 23 119t60.5 94t89.5 62t110 22q66 0 109 -27.5t63 -75.5l55 310h70l-128 -720h-64l10 89v0q-20 -26 -47.5 -49t-64.5 -37.5t-84 -14.5zM264 49q60 0 106 32t73.5 86.5t29.5 121.5
q2 50 -15 86t-49.5 56.5t-80.5 20.5q-58 0 -105 -30t-75 -82t-29 -120q-2 -49 15.5 -88t51 -61t78.5 -22z" />
    <glyph glyph-name="Emacron" unicode="&#x112;" horiz-adv-x="536" 
d="M34 0l123 700h400l-11 -56h-329l-46 -264h299l-9 -56h-300l-47 -268h329l-10 -56h-399zM200 816l10 54h339l-9 -54h-340z" />
    <glyph glyph-name="emacron" unicode="&#x113;" horiz-adv-x="563" 
d="M243 -12q-62 0 -107 27.5t-68.5 76.5t-21.5 115t24 121.5t61 97t90.5 64.5t113.5 23q67 0 110 -27t64 -71t19 -98q0 -18 -4 -41t-8 -41h-414l10 59h347q6 52 -9 87t-47 53.5t-79 18.5q-44 0 -86.5 -20.5t-73 -59.5t-41.5 -98l-5 -26q-9 -60 3.5 -105.5t46.5 -70.5t86 -25
q56 0 98 26t66 71h68q-20 -45 -55 -80.5t-82.5 -56t-105.5 -20.5zM180 599l10 54h339l-9 -54h-340z" />
    <glyph glyph-name="Ebreve" unicode="&#x114;" horiz-adv-x="536" 
d="M34 0l123 700h400l-11 -56h-329l-46 -264h299l-9 -56h-300l-47 -268h329l-10 -56h-399zM362 769q-44 0 -71 17t-37 45t-5 61l2 13h44q-7 -38 11 -59t66 -21q47 0 72.5 21t32.5 59h45l-3 -13q-6 -33 -26 -61t-52.5 -45t-78.5 -17z" />
    <glyph glyph-name="ebreve" unicode="&#x115;" horiz-adv-x="563" 
d="M243 -12q-62 0 -107 27.5t-68.5 76.5t-21.5 115t24 121.5t61 97t90.5 64.5t113.5 23q67 0 110 -27t64 -71t19 -98q0 -18 -4 -41t-8 -41h-414l10 59h347q6 52 -9 87t-47 53.5t-79 18.5q-44 0 -86.5 -20.5t-73 -59.5t-41.5 -98l-5 -26q-9 -60 3.5 -105.5t46.5 -70.5t86 -25
q56 0 98 26t66 71h68q-20 -45 -55 -80.5t-82.5 -56t-105.5 -20.5zM342 565q-44 0 -71 17t-37 45t-5 61l2 13h44q-7 -38 11 -59t66 -21q47 0 72.5 21t32.5 59h45l-3 -13q-6 -33 -26 -61t-52.5 -45t-78.5 -17z" />
    <glyph glyph-name="Edotaccent" unicode="&#x116;" horiz-adv-x="536" 
d="M34 0l123 700h400l-11 -56h-329l-46 -264h299l-9 -56h-300l-47 -268h329l-10 -56h-399zM372 777q-19 0 -32.5 13.5t-13.5 32.5t13.5 32.5t32.5 13.5t32.5 -13.5t13.5 -32.5t-13.5 -32.5t-32.5 -13.5z" />
    <glyph glyph-name="edotaccent" unicode="&#x117;" horiz-adv-x="563" 
d="M243 -12q-62 0 -107 27.5t-68.5 76.5t-21.5 115t24 121.5t61 97t90.5 64.5t113.5 23q67 0 110 -27t64 -71t19 -98q0 -18 -4 -41t-8 -41h-414l10 59h347q6 52 -9 87t-47 53.5t-79 18.5q-44 0 -86.5 -20.5t-73 -59.5t-41.5 -98l-5 -26q-9 -60 3.5 -105.5t46.5 -70.5t86 -25
q56 0 98 26t66 71h68q-20 -45 -55 -80.5t-82.5 -56t-105.5 -20.5zM351 568q-19 0 -32.5 13.5t-13.5 32.5t13.5 32.5t32.5 13.5t32.5 -13.5t13.5 -32.5t-13.5 -32.5t-32.5 -13.5z" />
    <glyph glyph-name="Eogonek" unicode="&#x118;" horiz-adv-x="536" 
d="M34 0l123 700h400l-11 -56h-329l-46 -264h299l-9 -56h-300l-47 -268h329l-10 -56h-399zM329 -201q-28 0 -53 9t-37 29.5t-6 53.5q3 23 17.5 44.5t41.5 41.5t70 37l59 24l13 -38l-65 -29q-38 -17 -55 -35t-21 -38q-4 -25 10.5 -38t41.5 -13q15 0 32.5 3.5t34.5 10.5
l-9 -49q-16 -6 -35.5 -9.5t-38.5 -3.5z" />
    <glyph glyph-name="eogonek" unicode="&#x119;" horiz-adv-x="563" 
d="M243 -12q-62 0 -107 27.5t-68.5 76.5t-21.5 115t24 121.5t61 97t90.5 64.5t113.5 23q67 0 110 -27t64 -71t19 -98q0 -18 -4 -41t-8 -41h-414l10 59h347q6 52 -9 87t-47 53.5t-79 18.5q-44 0 -86.5 -20.5t-73 -59.5t-41.5 -98l-5 -26q-9 -60 3.5 -105.5t46.5 -70.5t86 -25
q56 0 98 26t66 71h68q-20 -45 -55 -80.5t-82.5 -56t-105.5 -20.5zM247 -189q-28 0 -53 9t-37 29.5t-6 53.5q3 23 17.5 44.5t41.5 41.5t70 37l59 24l13 -38l-65 -29q-38 -17 -55 -35t-21 -38q-4 -25 10.5 -38t41.5 -13q15 0 32.5 3.5t34.5 10.5l-9 -49q-16 -6 -35.5 -9.5
t-38.5 -3.5z" />
    <glyph glyph-name="Ecaron" unicode="&#x11a;" horiz-adv-x="536" 
d="M34 0l123 700h400l-11 -56h-329l-46 -264h299l-9 -56h-300l-47 -268h329l-10 -56h-399zM517 900l-10 -57l-149 -82l-119 82l10 57l119 -84z" />
    <glyph glyph-name="ecaron" unicode="&#x11b;" horiz-adv-x="563" 
d="M243 -12q-62 0 -107 27.5t-68.5 76.5t-21.5 115t24 121.5t61 97t90.5 64.5t113.5 23q67 0 110 -27t64 -71t19 -98q0 -18 -4 -41t-8 -41h-414l10 59h347q6 52 -9 87t-47 53.5t-79 18.5q-44 0 -86.5 -20.5t-73 -59.5t-41.5 -98l-5 -26q-9 -60 3.5 -105.5t46.5 -70.5t86 -25
q56 0 98 26t66 71h68q-20 -45 -55 -80.5t-82.5 -56t-105.5 -20.5zM501 699l-10 -57l-149 -82l-119 82l10 57l119 -84z" />
    <glyph glyph-name="Gbreve" unicode="&#x11e;" horiz-adv-x="757" 
d="M332 -12q-86 0 -147.5 38.5t-93 106.5t-28.5 156q2 92 32 169.5t83.5 134.5t126 88t159.5 31q117 0 187.5 -56t75.5 -156h-82q-3 68 -51.5 108t-137.5 40q-94 0 -165 -45.5t-112 -125.5t-43 -185q-3 -73 21.5 -127.5t72 -84t112.5 -29.5q79 0 137 31.5t97 90.5t59 141
h-211l10 57h283l-65 -371h-65l16 123v0q-33 -43 -72 -73.5t-87 -46t-112 -15.5zM470 769q-44 0 -71 17t-37 45t-5 61l2 13h44q-7 -38 11 -59t66 -21q47 0 72.5 21t32.5 59h45l-3 -13q-6 -33 -26 -61t-52.5 -45t-78.5 -17z" />
    <glyph glyph-name="gbreve" unicode="&#x11f;" horiz-adv-x="547" 
d="M174 -232q-62 0 -108 17t-71.5 49.5t-23.5 78.5q0 32 13 61t39 55t64 47l52 -25q-45 -24 -69.5 -55.5t-25.5 -70.5q-1 -30 15.5 -52t48 -33.5t76.5 -11.5q74 0 120.5 33.5t47.5 88.5q2 31 -22 55.5t-95 28.5q-47 3 -82 9.5t-61 15.5t-45 21.5t-33 26.5l4 24l104 81
l57 -24l-104 -79l10 34q15 -9 28.5 -17t30 -14t40.5 -10t60 -6q72 -5 112 -26t55 -51t14 -64q-1 -52 -33 -94t-87.5 -67.5t-130.5 -25.5zM240 159q-56 0 -94 19.5t-56 53.5t-17 76q1 58 31.5 104.5t82 73.5t116.5 27q57 0 94 -19.5t55.5 -53t17.5 -76.5q-2 -57 -31.5 -104
t-81 -74t-117.5 -27zM251 219q65 0 106 38.5t42 100.5q2 46 -26.5 70.5t-80.5 24.5q-64 0 -105 -38t-43 -101q-2 -46 26.5 -70.5t80.5 -24.5zM371 438l-14 63h204l-10 -57zM339 565q-44 0 -71 17t-37 45t-5 61l2 13h44q-7 -38 11 -59t66 -21q47 0 72.5 21t32.5 59h45l-3 -13
q-6 -33 -26 -61t-52.5 -45t-78.5 -17z" />
    <glyph glyph-name="Gdotaccent" unicode="&#x120;" horiz-adv-x="757" 
d="M332 -12q-86 0 -147.5 38.5t-93 106.5t-28.5 156q2 92 32 169.5t83.5 134.5t126 88t159.5 31q117 0 187.5 -56t75.5 -156h-82q-3 68 -51.5 108t-137.5 40q-94 0 -165 -45.5t-112 -125.5t-43 -185q-3 -73 21.5 -127.5t72 -84t112.5 -29.5q79 0 137 31.5t97 90.5t59 141
h-211l10 57h283l-65 -371h-65l16 123v0q-33 -43 -72 -73.5t-87 -46t-112 -15.5zM480 777q-19 0 -32.5 13.5t-13.5 32.5t13.5 32.5t32.5 13.5t32.5 -13.5t13.5 -32.5t-13.5 -32.5t-32.5 -13.5z" />
    <glyph glyph-name="gdotaccent" unicode="&#x121;" horiz-adv-x="547" 
d="M174 -232q-62 0 -108 17t-71.5 49.5t-23.5 78.5q0 32 13 61t39 55t64 47l52 -25q-45 -24 -69.5 -55.5t-25.5 -70.5q-1 -30 15.5 -52t48 -33.5t76.5 -11.5q74 0 120.5 33.5t47.5 88.5q2 31 -22 55.5t-95 28.5q-47 3 -82 9.5t-61 15.5t-45 21.5t-33 26.5l4 24l104 81
l57 -24l-104 -79l10 34q15 -9 28.5 -17t30 -14t40.5 -10t60 -6q72 -5 112 -26t55 -51t14 -64q-1 -52 -33 -94t-87.5 -67.5t-130.5 -25.5zM240 159q-56 0 -94 19.5t-56 53.5t-17 76q1 58 31.5 104.5t82 73.5t116.5 27q57 0 94 -19.5t55.5 -53t17.5 -76.5q-2 -57 -31.5 -104
t-81 -74t-117.5 -27zM251 219q65 0 106 38.5t42 100.5q2 46 -26.5 70.5t-80.5 24.5q-64 0 -105 -38t-43 -101q-2 -46 26.5 -70.5t80.5 -24.5zM371 438l-14 63h204l-10 -57zM348 568q-19 0 -32.5 13.5t-13.5 32.5t13.5 32.5t32.5 13.5t32.5 -13.5t13.5 -32.5t-13.5 -32.5
t-32.5 -13.5z" />
    <glyph glyph-name="uni0122" unicode="&#x122;" horiz-adv-x="757" 
d="M332 -12q-86 0 -147.5 38.5t-93 106.5t-28.5 156q2 92 32 169.5t83.5 134.5t126 88t159.5 31q117 0 187.5 -56t75.5 -156h-82q-3 68 -51.5 108t-137.5 40q-94 0 -165 -45.5t-112 -125.5t-43 -185q-3 -73 21.5 -127.5t72 -84t112.5 -29.5q79 0 137 31.5t97 90.5t59 141
h-211l10 57h283l-65 -371h-65l16 123v0q-33 -43 -72 -73.5t-87 -46t-112 -15.5zM251 -226l6 36q24 0 37 14t17 41l3 14h-43l12 69h79q1 -18 0 -35.5t-3 -31.5q-10 -58 -38.5 -82.5t-69.5 -24.5z" />
    <glyph glyph-name="uni0123" unicode="&#x123;" horiz-adv-x="547" 
d="M174 -232q-62 0 -108 17t-71.5 49.5t-23.5 78.5q0 32 13 61t39 55t64 47l52 -25q-45 -24 -69.5 -55.5t-25.5 -70.5q-1 -30 15.5 -52t48 -33.5t76.5 -11.5q74 0 120.5 33.5t47.5 88.5q2 31 -22 55.5t-95 28.5q-47 3 -82 9.5t-61 15.5t-45 21.5t-33 26.5l4 24l104 81
l57 -24l-104 -79l10 34q15 -9 28.5 -17t30 -14t40.5 -10t60 -6q72 -5 112 -26t55 -51t14 -64q-1 -52 -33 -94t-87.5 -67.5t-130.5 -25.5zM240 159q-56 0 -94 19.5t-56 53.5t-17 76q1 58 31.5 104.5t82 73.5t116.5 27q57 0 94 -19.5t55.5 -53t17.5 -76.5q-2 -57 -31.5 -104
t-81 -74t-117.5 -27zM251 219q65 0 106 38.5t42 100.5q2 46 -26.5 70.5t-80.5 24.5q-64 0 -105 -38t-43 -101q-2 -46 26.5 -70.5t80.5 -24.5zM371 438l-14 63h204l-10 -57zM412 735l-6 -36q-22 0 -33 -9.5t-15 -28.5l-4 -22h40l-13 -76h-75q0 25 0.5 43t3.5 37q9 50 35.5 71
t66.5 21z" />
    <glyph glyph-name="Hbar" unicode="&#x126;" horiz-adv-x="729" 
d="M79 500l12 65h659l-12 -65h-659zM512 0l124 700h70l-124 -700h-70zM63 0l123 700h70l-123 -700h-70zM175 329l10 55h415l-10 -55h-415z" />
    <glyph glyph-name="hbar" unicode="&#x127;" horiz-adv-x="615" 
d="M101 572l10 60h293l-10 -60h-293zM79 0l126 720h70l-54 -308v0q33 47 83.5 74t105.5 27q58 0 96.5 -23t54.5 -70.5t3 -120.5l-53 -299h-70l51 291q14 81 -13 121t-92 40q-45 0 -85 -22t-68 -64t-39 -103l-46 -263h-70z" />
    <glyph glyph-name="Itilde" unicode="&#x128;" horiz-adv-x="225" 
d="M34 0l123 700h70l-123 -700h-70zM62 770q14 46 42 69.5t62 23.5q26 0 41 -11.5t28.5 -23.5t35.5 -12q16 0 30 11.5t21 33.5h42q-12 -44 -41 -68.5t-64 -24.5q-26 0 -41.5 12t-28.5 23.5t-34 11.5q-17 0 -30 -11t-21 -34h-42z" />
    <glyph glyph-name="itilde" unicode="&#x129;" horiz-adv-x="212" 
d="M27 0l88 501h70l-88 -501h-70zM17 562q14 46 42 69.5t62 23.5q26 0 41 -11.5t28.5 -23.5t35.5 -12q16 0 30 11.5t21 33.5h42q-12 -44 -41 -68.5t-64 -24.5q-26 0 -41.5 12t-28.5 23.5t-34 11.5q-17 0 -30 -11t-21 -34h-42z" />
    <glyph glyph-name="Imacron" unicode="&#x12a;" horiz-adv-x="225" 
d="M34 0l123 700h70l-123 -700h-70zM43 816l10 54h339l-9 -54h-340z" />
    <glyph glyph-name="imacron" unicode="&#x12b;" horiz-adv-x="212" 
d="M27 0l88 501h70l-88 -501h-70zM-3 599l10 54h339l-9 -54h-340z" />
    <glyph glyph-name="Ibreve" unicode="&#x12c;" horiz-adv-x="225" 
d="M34 0l123 700h70l-123 -700h-70zM205 769q-44 0 -71 17t-37 45t-5 61l2 13h44q-7 -38 11 -59t66 -21q47 0 72.5 21t32.5 59h45l-3 -13q-6 -33 -26 -61t-52.5 -45t-78.5 -17z" />
    <glyph glyph-name="ibreve" unicode="&#x12d;" horiz-adv-x="212" 
d="M27 0l88 501h70l-88 -501h-70zM160 565q-44 0 -71 17t-37 45t-5 61l2 13h44q-7 -38 11 -59t66 -21q47 0 72.5 21t32.5 59h45l-3 -13q-6 -33 -26 -61t-52.5 -45t-78.5 -17z" />
    <glyph glyph-name="Iogonek" unicode="&#x12e;" horiz-adv-x="225" 
d="M34 0l123 700h70l-123 -700h-70zM-1 -201q-28 0 -53 9t-37 29.5t-6 53.5q3 23 17.5 44.5t41.5 41.5t70 37l59 24l13 -38l-65 -29q-38 -17 -55 -35t-21 -38q-4 -25 10.5 -38t41.5 -13q15 0 32.5 3.5t34.5 10.5l-9 -49q-16 -6 -35.5 -9.5t-38.5 -3.5z" />
    <glyph glyph-name="iogonek" unicode="&#x12f;" horiz-adv-x="212" 
d="M27 0l88 501h70l-88 -501h-70zM169 568q-19 0 -32.5 13.5t-13.5 32.5t13.5 32.5t32.5 13.5t32.5 -13.5t13.5 -32.5t-13.5 -32.5t-32.5 -13.5zM-7 -201q-28 0 -53 9t-37 29.5t-6 53.5q3 23 17.5 44.5t41.5 41.5t70 37l59 24l13 -38l-65 -29q-38 -17 -55 -35t-21 -38
q-4 -25 10.5 -38t41.5 -13q15 0 32.5 3.5t34.5 10.5l-9 -49q-16 -6 -35.5 -9.5t-38.5 -3.5z" />
    <glyph glyph-name="Idotaccent" unicode="&#x130;" horiz-adv-x="225" 
d="M34 0l123 700h70l-123 -700h-70zM214 777q-19 0 -32.5 13.5t-13.5 32.5t13.5 32.5t32.5 13.5t32.5 -13.5t13.5 -32.5t-13.5 -32.5t-32.5 -13.5z" />
    <glyph glyph-name="dotlessi" unicode="&#x131;" horiz-adv-x="212" 
d="M27 0l88 501h70l-88 -501h-70z" />
    <glyph glyph-name="IJ" unicode="&#x132;" horiz-adv-x="660" 
d="M34 0l123 700h70l-123 -700h-70zM353 -12q-56 0 -94.5 23t-53.5 66t-5 102h71q-6 -35 0.5 -64.5t29 -47t64.5 -17.5q41 0 68.5 16.5t43 44t21.5 56.5l92 533h70l-92 -533q-14 -81 -72 -130t-143 -49z" />
    <glyph glyph-name="ij" unicode="&#x133;" horiz-adv-x="433" 
d="M37 0l88 501h70l-88 -501h-70zM190 620q-21 0 -35.5 15t-14.5 37q-1 23 14 37t36 14t36 -14t15 -37q0 -22 -15 -37t-36 -15zM81 -220l11 60h38q38 0 58 16t27 56l104 589h70l-104 -592q-7 -44 -27 -72.5t-52 -42.5t-76 -14h-49zM386 620q-21 0 -36 15t-15 37q0 23 15 37
t35 14q22 0 36 -13.5t14 -37.5q0 -22 -14 -37t-35 -15z" />
    <glyph glyph-name="uni0136" unicode="&#x136;" horiz-adv-x="567" 
d="M34 0l123 700h70l-57 -328l360 328h89l-310 -280l190 -420h-81l-166 369l-99 -89l-49 -280h-70zM158 -226l6 36q24 0 37 14t17 41l3 14h-43l12 69h79q1 -18 0 -35.5t-3 -31.5q-10 -58 -38.5 -82.5t-69.5 -24.5z" />
    <glyph glyph-name="uni0137" unicode="&#x137;" horiz-adv-x="493" 
d="M343 0l-209 275l263 226h94l-305 -255l7 62l237 -308h-87zM26 0l128 720h70l-128 -720h-70zM118 -226l6 36q24 0 37 14t17 41l3 14h-43l12 69h79q1 -18 0 -35.5t-3 -31.5q-10 -58 -38.5 -82.5t-69.5 -24.5z" />
    <glyph glyph-name="Lacute" unicode="&#x139;" horiz-adv-x="520" 
d="M34 0l123 700h70l-113 -643h331l-10 -57h-401zM108 753l2 52l216 127v0l-2 -62z" />
    <glyph glyph-name="lacute" unicode="&#x13a;" horiz-adv-x="212" 
d="M26 0l128 720h70l-128 -720h-70zM103 762l2 52l216 127v0l-2 -62z" />
    <glyph glyph-name="uni013B" unicode="&#x13b;" horiz-adv-x="520" 
d="M34 0l123 700h70l-113 -643h331l-10 -57h-401zM132 -226l6 36q24 0 37 14t17 41l3 14h-43l12 69h79q1 -18 0 -35.5t-3 -31.5q-10 -58 -38.5 -82.5t-69.5 -24.5z" />
    <glyph glyph-name="uni013C" unicode="&#x13c;" horiz-adv-x="212" 
d="M26 0l128 720h70l-128 -720h-70zM-22 -226l6 36q24 0 37 14t17 41l3 14h-43l12 69h79q1 -18 0 -35.5t-3 -31.5q-10 -58 -38.5 -82.5t-69.5 -24.5z" />
    <glyph glyph-name="Lcaron" unicode="&#x13d;" horiz-adv-x="520" 
d="M34 0l123 700h70l-113 -643h331l-10 -57h-401zM267 553l6 36q23 0 33.5 9.5t14.5 28.5l4 22h-40l13 76h75q0 -25 -0.5 -43t-3.5 -37q-9 -50 -35 -71t-67 -21z" />
    <glyph glyph-name="lcaron" unicode="&#x13e;" horiz-adv-x="281" 
d="M26 0l128 720h70l-128 -720h-70zM241 565l6 36q23 0 33.5 9.5t14.5 28.5l4 22h-40l13 76h75q0 -25 -0.5 -43t-3.5 -37q-9 -50 -35 -71t-67 -21z" />
    <glyph glyph-name="Ldot" unicode="&#x13f;" horiz-adv-x="520" 
d="M34 0l123 700h70l-113 -643h331l-10 -57h-401zM372 298q-22 0 -36.5 15t-14.5 37t14.5 36.5t36.5 14.5q21 0 35.5 -14.5t14.5 -36.5t-14.5 -37t-35.5 -15z" />
    <glyph glyph-name="ldot" unicode="&#x140;" horiz-adv-x="246" 
d="M26 0l128 720h70l-128 -720h-70zM248 309q-22 0 -36.5 15t-14.5 37t14.5 36.5t36.5 14.5q21 0 35.5 -14.5t14.5 -36.5t-14.5 -37t-35.5 -15z" />
    <glyph glyph-name="Lslash" unicode="&#x141;" horiz-adv-x="548" 
d="M26 286l11 65l301 110l-12 -65zM62 0l123 700h70l-113 -643h331l-10 -57h-401z" />
    <glyph glyph-name="lslash" unicode="&#x142;" horiz-adv-x="238" 
d="M24 336l11 65l238 95l-12 -63zM39 0l128 720h70l-128 -720h-70z" />
    <glyph glyph-name="Nacute" unicode="&#x143;" horiz-adv-x="682" 
d="M34 0l122 700h70l285 -588v0l103 588h70l-123 -700h-70l-283 589v0l-104 -589h-70zM334 753l2 52l216 127v0l-2 -62z" />
    <glyph glyph-name="nacute" unicode="&#x144;" horiz-adv-x="563" 
d="M27 0l88 501h64l-12 -92v0q32 49 82.5 76.5t107.5 27.5q63 0 101 -27.5t51.5 -76t1.5 -109.5l-53 -300h-70l52 292q13 76 -12.5 118t-93.5 42q-44 0 -82.5 -20.5t-66 -60t-40.5 -97.5l-48 -274h-70zM240 543l2 52l216 127v0l-2 -62z" />
    <glyph glyph-name="uni0145" unicode="&#x145;" horiz-adv-x="682" 
d="M34 0l122 700h70l285 -588v0l103 588h70l-123 -700h-70l-283 589v0l-104 -589h-70zM214 -226l6 36q24 0 37 14t17 41l3 14h-43l12 69h79q1 -18 0 -35.5t-3 -31.5q-10 -58 -38.5 -82.5t-69.5 -24.5z" />
    <glyph glyph-name="uni0146" unicode="&#x146;" horiz-adv-x="563" 
d="M27 0l88 501h64l-12 -92v0q32 49 82.5 76.5t107.5 27.5q63 0 101 -27.5t51.5 -76t1.5 -109.5l-53 -300h-70l52 292q13 76 -12.5 118t-93.5 42q-44 0 -82.5 -20.5t-66 -60t-40.5 -97.5l-48 -274h-70zM154 -226l6 36q24 0 37 14t17 41l3 14h-43l12 69h79q1 -18 0 -35.5
t-3 -31.5q-10 -58 -38.5 -82.5t-69.5 -24.5z" />
    <glyph glyph-name="Ncaron" unicode="&#x147;" horiz-adv-x="682" 
d="M34 0l123 700h69l285 -588v0l103 588h70l-123 -700h-70l-283 589v0l-104 -589h-70zM586 900l-10 -57l-148 -82l-120 82l10 57l119 -84z" />
    <glyph glyph-name="ncaron" unicode="&#x148;" horiz-adv-x="563" 
d="M27 0l88 501h64l-12 -92v0q32 49 82.5 76.5t107.5 27.5q63 0 101 -27.5t51.5 -76t1.5 -109.5l-53 -300h-70l52 292q13 76 -12.5 118t-93.5 42q-44 0 -82.5 -20.5t-66 -60t-40.5 -97.5l-48 -274h-70zM495 699l-10 -57l-149 -82l-119 82l10 57l119 -84z" />
    <glyph glyph-name="Eng" unicode="&#x14a;" horiz-adv-x="682" 
d="M34 0l122 700h71l284 -583v0l103 583h70l-139 -791q-8 -44 -27.5 -72.5t-51.5 -42.5t-76 -14h-49l10 60h38q39 0 59 16t27 56l16 88l-285 583v0l-102 -583h-70z" />
    <glyph glyph-name="eng" unicode="&#x14b;" horiz-adv-x="573" 
d="M27 0l88 501h64l-12 -90v0q32 48 82.5 75t107.5 27t96 -23t55 -70t3 -120l-69 -391q-8 -44 -27.5 -72.5t-51.5 -42.5t-76 -14h-49l10 60h39q39 0 58.5 16t26.5 56l68 380q14 81 -14 120.5t-93 39.5q-45 0 -84 -22t-67 -63t-38 -102l-47 -265h-70z" />
    <glyph glyph-name="Omacron" unicode="&#x14c;" horiz-adv-x="785" 
d="M346 -12q-88 0 -152.5 39t-99.5 108.5t-32 159.5q2 88 35 163.5t90 132.5t131 89t156 32q88 0 153 -39t99.5 -107.5t32.5 -158.5q-3 -88 -36 -164t-89.5 -133.5t-130 -89.5t-157.5 -32zM358 49q66 0 124.5 27t103.5 75t71.5 113t28.5 140q2 77 -26 132t-79 84.5
t-118 29.5t-125.5 -27t-103.5 -75t-71 -112t-28 -139q-3 -76 25 -131.5t79.5 -86t118.5 -30.5zM322 816l10 54h339l-9 -54h-340z" />
    <glyph glyph-name="omacron" unicode="&#x14d;" horiz-adv-x="592" 
d="M254 -12q-62 0 -110 28.5t-74 79.5t-24 116q2 66 25 120.5t63 95t92 63t112 22.5q64 0 111.5 -28t73.5 -77.5t23 -115.5q-1 -66 -24.5 -121t-63 -96t-92 -64t-112.5 -23zM263 48q58 0 105 31t76 84.5t30 123.5q2 53 -17.5 90t-53 56t-74.5 19q-57 0 -104 -31t-75.5 -84.5
t-30.5 -122.5q-2 -53 17.5 -90t52.5 -56.5t74 -19.5zM185 599l10 54h339l-9 -54h-340z" />
    <glyph glyph-name="Obreve" unicode="&#x14e;" horiz-adv-x="785" 
d="M346 -12q-88 0 -152.5 39t-99.5 108.5t-32 159.5q2 88 35 163.5t90 132.5t131 89t156 32q88 0 153 -39t99.5 -107.5t32.5 -158.5q-3 -88 -36 -164t-89.5 -133.5t-130 -89.5t-157.5 -32zM358 49q66 0 124.5 27t103.5 75t71.5 113t28.5 140q2 77 -26 132t-79 84.5
t-118 29.5t-125.5 -27t-103.5 -75t-71 -112t-28 -139q-3 -76 25 -131.5t79.5 -86t118.5 -30.5zM484 769q-44 0 -71 17t-37 45t-5 61l2 13h44q-7 -38 11 -59t66 -21q47 0 72.5 21t32.5 59h45l-3 -13q-6 -33 -26 -61t-52.5 -45t-78.5 -17z" />
    <glyph glyph-name="obreve" unicode="&#x14f;" horiz-adv-x="592" 
d="M254 -12q-62 0 -110 28.5t-74 79.5t-24 116q2 66 25 120.5t63 95t92 63t112 22.5q64 0 111.5 -28t73.5 -77.5t23 -115.5q-1 -66 -24.5 -121t-63 -96t-92 -64t-112.5 -23zM263 48q58 0 105 31t76 84.5t30 123.5q2 53 -17.5 90t-53 56t-74.5 19q-57 0 -104 -31t-75.5 -84.5
t-30.5 -122.5q-2 -53 17.5 -90t52.5 -56.5t74 -19.5zM348 565q-44 0 -71 17t-37 45t-5 61l2 13h44q-7 -38 11 -59t66 -21q47 0 72.5 21t32.5 59h45l-3 -13q-6 -33 -26 -61t-52.5 -45t-78.5 -17z" />
    <glyph glyph-name="Ohungarumlaut" unicode="&#x150;" horiz-adv-x="785" 
d="M346 -12q-88 0 -152.5 39t-99.5 108.5t-32 159.5q2 88 35 163.5t90 132.5t131 89t156 32q88 0 153 -39t99.5 -107.5t32.5 -158.5q-3 -88 -36 -164t-89.5 -133.5t-130 -89.5t-157.5 -32zM358 49q66 0 124.5 27t103.5 75t71.5 113t28.5 140q2 77 -26 132t-79 84.5
t-118 29.5t-125.5 -27t-103.5 -75t-71 -112t-28 -139q-3 -76 25 -131.5t79.5 -86t118.5 -30.5zM482 760l99 139h63l-113 -139h-49zM343 760l90 139h63l-104 -139h-49z" />
    <glyph glyph-name="ohungarumlaut" unicode="&#x151;" horiz-adv-x="592" 
d="M254 -12q-62 0 -110 28.5t-74 79.5t-24 116q2 66 25 120.5t63 95t92 63t112 22.5q64 0 111.5 -28t73.5 -77.5t23 -115.5q-1 -66 -24.5 -121t-63 -96t-92 -64t-112.5 -23zM263 48q58 0 105 31t76 84.5t30 123.5q2 53 -17.5 90t-53 56t-74.5 19q-57 0 -104 -31t-75.5 -84.5
t-30.5 -122.5q-2 -53 17.5 -90t52.5 -56.5t74 -19.5zM347 555l99 139h63l-113 -139h-49zM208 555l90 139h63l-104 -139h-49z" />
    <glyph glyph-name="OE" unicode="&#x152;" horiz-adv-x="1111" 
d="M339 -12q-83 0 -146 40.5t-97.5 112.5t-31.5 166q2 84 34.5 157.5t88.5 129.5t126.5 87t148.5 31q57 0 105 -16t84 -48t58 -78l24 130h399l-11 -58h-329l-46 -261h299l-10 -58h-299l-47 -265h329l-10 -58h-399l23 129q-38 -45 -84.5 -77t-99 -48t-109.5 -16zM350 49
q67 0 124.5 28t102 76.5t70 114t27.5 140.5q2 77 -26 130.5t-78.5 82.5t-118.5 29q-61 0 -117 -26t-100 -72.5t-70 -108.5t-28 -134q-2 -80 25.5 -138t77 -90t111.5 -32z" />
    <glyph glyph-name="oe" unicode="&#x153;" horiz-adv-x="987" 
d="M254 -12q-63 0 -110.5 28.5t-73.5 79.5t-24 116q2 66 25 120.5t63 95t92 63t112 22.5q69 0 119.5 -33t72.5 -89q40 57 100.5 89.5t132.5 32.5q65 0 108 -27t64 -71t19 -98q-1 -12 -3.5 -29t-5.5 -32t-4 -21h-399q-9 -54 6 -96.5t49 -66.5t82 -24q60 0 104.5 29.5
t69.5 80.5h68q-21 -48 -57 -87t-85 -61t-111 -22q-67 0 -114.5 32t-68.5 88q-40 -56 -100 -88t-131 -32zM263 48q58 0 105 31t76 84.5t30 123.5q2 53 -17.5 90t-52.5 56t-75 19q-57 0 -104 -30.5t-75.5 -84.5t-30.5 -123q-2 -53 17.5 -90t53 -56.5t73.5 -19.5zM553 294h331
q7 52 -8 87t-47.5 53.5t-78.5 18.5q-43 0 -83 -18t-70 -53t-44 -88z" />
    <glyph glyph-name="Racute" unicode="&#x154;" horiz-adv-x="586" 
d="M34 0l123 700h216q72 0 116.5 -24.5t64.5 -65t18 -88.5q-1 -70 -36 -121t-96 -79.5t-143 -28.5h-141l-52 -293h-70zM413 0l-101 315h73l105 -315h-77zM166 350h141q87 0 139 43.5t54 123.5q2 52 -31.5 88t-111.5 36h-140zM262 753l2 52l216 127v0l-2 -62z" />
    <glyph glyph-name="racute" unicode="&#x155;" horiz-adv-x="359" 
d="M27 0l88 501h65l-11 -90v0q22 32 53 55t70.5 35t85.5 12l-12 -73h-24q-33 0 -65 -8t-58.5 -26.5t-45 -49t-26.5 -76.5l-50 -280h-70zM167 543l2 52l216 127v0l-2 -62z" />
    <glyph glyph-name="uni0156" unicode="&#x156;" horiz-adv-x="586" 
d="M34 0l123 700h216q72 0 116.5 -24.5t64.5 -65t18 -88.5q-1 -70 -36 -121t-96 -79.5t-143 -28.5h-141l-52 -293h-70zM413 0l-101 315h73l105 -315h-77zM166 350h141q87 0 139 43.5t54 123.5q2 52 -31.5 88t-111.5 36h-140zM175 -226l6 36q24 0 37 14t17 41l3 14h-43l12 69
h79q1 -18 0 -35.5t-3 -31.5q-10 -58 -38.5 -82.5t-69.5 -24.5z" />
    <glyph glyph-name="uni0157" unicode="&#x157;" horiz-adv-x="359" 
d="M27 0l88 501h65l-11 -90v0q22 32 53 55t70.5 35t85.5 12l-12 -73h-24q-33 0 -65 -8t-58.5 -26.5t-45 -49t-26.5 -76.5l-50 -280h-70zM-20 -226l6 36q24 0 37 14t17 41l3 14h-43l12 69h79q1 -18 0 -35.5t-3 -31.5q-10 -58 -38.5 -82.5t-69.5 -24.5z" />
    <glyph glyph-name="Rcaron" unicode="&#x158;" horiz-adv-x="586" 
d="M34 0l123 700h216q72 0 116.5 -24.5t64.5 -65t18 -88.5q-1 -70 -36 -121t-96 -79.5t-143 -28.5h-141l-52 -293h-70zM413 0l-101 315h73l105 -315h-77zM166 350h141q87 0 139 43.5t54 123.5q2 52 -31.5 88t-111.5 36h-140zM514 900l-10 -57l-148 -82l-120 82l10 57
l119 -84z" />
    <glyph glyph-name="rcaron" unicode="&#x159;" horiz-adv-x="359" 
d="M27 0l88 501h65l-11 -90v0q22 32 53 55t70.5 35t85.5 12l-12 -73h-24q-33 0 -65 -8t-58.5 -26.5t-45 -49t-26.5 -76.5l-50 -280h-70zM422 699l-10 -57l-149 -82l-119 82l10 57l119 -84z" />
    <glyph glyph-name="Sacute" unicode="&#x15a;" horiz-adv-x="577" 
d="M261 -12q-74 0 -128 26t-79.5 75.5t-15.5 120.5h73q-10 -48 8 -84.5t57 -57.5t92 -21q57 0 96 19t59.5 52.5t21.5 78.5q1 29 -10 49.5t-30 35t-45 25.5t-55.5 20.5t-58.5 20.5q-68 25 -99.5 66.5t-30.5 95.5q2 60 33 105.5t84.5 71t124.5 25.5q64 0 111 -24.5t69.5 -68
t12.5 -99.5h-72q6 40 -9.5 69.5t-46.5 46t-73 16.5q-48 0 -83 -17t-55.5 -47t-21.5 -69q0 -25 9 -43.5t26.5 -32t42 -24t53 -20.5t60.5 -21q30 -11 56 -27t44.5 -37t28.5 -48t9 -61q-1 -64 -33.5 -113t-89.5 -76.5t-135 -27.5zM275 753l2 52l216 127v0l-2 -62z" />
    <glyph glyph-name="sacute" unicode="&#x15b;" horiz-adv-x="496" 
d="M212 -12q-61 0 -103.5 21t-63.5 60t-17 94h72q-1 -30 10 -56t39 -41.5t74 -15.5q38 0 66 11.5t44.5 33.5t16.5 51q2 26 -12 42t-39.5 25t-62.5 16q-29 5 -56 14.5t-48.5 25t-33.5 38t-11 52.5q1 43 26.5 77.5t69.5 55.5t100 21q77 0 123 -38.5t41 -112.5h-71
q3 41 -23.5 65t-76.5 24t-82 -23.5t-33 -57.5q-1 -22 11.5 -37t37 -24.5t59.5 -17.5q31 -6 59.5 -16t50.5 -25t34.5 -38t10.5 -57q-1 -50 -29 -87.5t-75 -58.5t-108 -21zM202 543l2 52l216 127v0l-2 -62z" />
    <glyph glyph-name="Scedilla" unicode="&#x15e;" horiz-adv-x="577" 
d="M261 -12q-74 0 -128 26t-79.5 75.5t-15.5 120.5h73q-10 -48 8 -84.5t57 -57.5t92 -21q57 0 96 19t59.5 52.5t21.5 78.5q1 29 -10 49.5t-30 35t-45 25.5t-55.5 20.5t-58.5 20.5q-68 25 -99.5 66.5t-30.5 95.5q2 60 33 105.5t84.5 71t124.5 25.5q64 0 111 -24.5t69.5 -68
t12.5 -99.5h-72q6 40 -9.5 69.5t-46.5 46t-73 16.5q-48 0 -83 -17t-55.5 -47t-21.5 -69q0 -25 9 -43.5t26.5 -32t42 -24t53 -20.5t60.5 -21q30 -11 56 -27t44.5 -37t28.5 -48t9 -61q-1 -64 -33.5 -113t-89.5 -76.5t-135 -27.5zM110 -258l8 47h86q40 0 60 14.5t21 40.5
q0 23 -15 33.5t-48 10.5h-47l21 119h49l-13 -74q36 1 62 -8t39 -28t12 -49q0 -30 -17.5 -54t-47.5 -38t-67 -14h-103z" />
    <glyph glyph-name="scedilla" unicode="&#x15f;" horiz-adv-x="496" 
d="M212 -12q-61 0 -103.5 21t-63.5 60t-17 94h72q-1 -30 10 -56t39 -41.5t74 -15.5q38 0 66 11.5t44.5 33.5t16.5 51q2 26 -12 42t-39.5 25t-62.5 16q-29 5 -56 14.5t-48.5 25t-33.5 38t-11 52.5q1 43 26.5 77.5t69.5 55.5t100 21q77 0 123 -38.5t41 -112.5h-71
q3 41 -23.5 65t-76.5 24t-82 -23.5t-33 -57.5q-1 -22 11.5 -37t37 -24.5t59.5 -17.5q31 -6 59.5 -16t50.5 -25t34.5 -38t10.5 -57q-1 -50 -29 -87.5t-75 -58.5t-108 -21zM101 -258l8 47h86q40 0 60 14.5t21 40.5q0 23 -15 33.5t-48 10.5h-47l21 119h49l-13 -74q36 1 62 -8
t39 -28t12 -49q0 -30 -17.5 -54t-47.5 -38t-67 -14h-103z" />
    <glyph glyph-name="Scaron" unicode="&#x160;" horiz-adv-x="577" 
d="M261 -12q-74 0 -128 26t-79.5 75.5t-15.5 120.5h73q-10 -48 8 -84.5t57 -57.5t92 -21q57 0 96 19t59.5 52.5t21.5 78.5q1 29 -10 49.5t-30 35t-45 25.5t-55.5 20.5t-58.5 20.5q-68 25 -99.5 66.5t-30.5 95.5q2 60 33 105.5t84.5 71t124.5 25.5q64 0 111 -24.5t69.5 -68
t12.5 -99.5h-72q6 40 -9.5 69.5t-46.5 46t-73 16.5q-48 0 -83 -17t-55.5 -47t-21.5 -69q0 -25 9 -43.5t26.5 -32t42 -24t53 -20.5t60.5 -21q30 -11 56 -27t44.5 -37t28.5 -48t9 -61q-1 -64 -33.5 -113t-89.5 -76.5t-135 -27.5zM528 900l-10 -57l-149 -82l-119 82l10 57
l119 -84z" />
    <glyph glyph-name="scaron" unicode="&#x161;" horiz-adv-x="496" 
d="M212 -12q-61 0 -103.5 21t-63.5 60t-17 94h72q-1 -30 10 -56t39 -41.5t74 -15.5q38 0 66 11.5t44.5 33.5t16.5 51q2 26 -12 42t-39.5 25t-62.5 16q-29 5 -56 14.5t-48.5 25t-33.5 38t-11 52.5q1 43 26.5 77.5t69.5 55.5t100 21q77 0 123 -38.5t41 -112.5h-71
q3 41 -23.5 65t-76.5 24t-82 -23.5t-33 -57.5q-1 -22 11.5 -37t37 -24.5t59.5 -17.5q31 -6 59.5 -16t50.5 -25t34.5 -38t10.5 -57q-1 -50 -29 -87.5t-75 -58.5t-108 -21zM458 699l-10 -57l-149 -82l-119 82l10 57l119 -84z" />
    <glyph glyph-name="uni0162" unicode="&#x162;" horiz-adv-x="550" 
d="M196 0l113 644h-209l10 56h489l-10 -56h-210l-113 -644h-70zM122 -258l8 47h86q40 0 60 14.5t21 40.5q0 23 -15 33.5t-48 10.5h-47l21 119h49l-13 -74q36 1 62 -8t39 -28t12 -49q0 -30 -17.5 -54t-47.5 -38t-67 -14h-103z" />
    <glyph glyph-name="uni0163" unicode="&#x163;" horiz-adv-x="372" 
d="M214 0q-50 0 -79 15.5t-39 48.5t-1 84l52 293h-78l11 60h78l30 116h61l-21 -116h151l-10 -60h-151l-53 -293q-9 -51 8 -69.5t64 -18.5h64l-11 -60h-76zM72 -258l8 47h86q40 0 60 14.5t21 40.5q0 23 -15 33.5t-48 10.5h-47l21 119h49l-13 -74q36 1 62 -8t39 -28t12 -49
q0 -30 -17.5 -54t-47.5 -38t-67 -14h-103z" />
    <glyph glyph-name="Tcaron" unicode="&#x164;" horiz-adv-x="550" 
d="M196 0l113 644h-209l10 56h489l-10 -56h-210l-113 -644h-70zM524 899l-10 -57l-149 -82l-119 82l10 57l119 -84z" />
    <glyph glyph-name="tcaron" unicode="&#x165;" horiz-adv-x="372" 
d="M214 0q-50 0 -79 15.5t-39 48.5t-1 84l52 293h-78l11 60h78l30 116h61l-21 -116h151l-10 -60h-151l-53 -293q-9 -51 8 -69.5t64 -18.5h64l-11 -60h-76zM284 548l6 36q23 0 33.5 9.5t14.5 28.5l4 22h-40l13 76h75q0 -25 -0.5 -43t-3.5 -37q-9 -50 -35 -71t-67 -21z" />
    <glyph glyph-name="Utilde" unicode="&#x168;" horiz-adv-x="649" 
d="M278 -12q-80 0 -131.5 32t-71.5 91.5t-4 143.5l79 445h70l-79 -445q-12 -64 0.5 -109.5t49.5 -70t99 -24.5q54 0 99 21t76 66t44 117l80 445h70l-79 -445q-16 -92 -61 -151.5t-107.5 -87.5t-133.5 -28zM279 770q14 46 42 69.5t62 23.5q26 0 41 -11.5t28.5 -23.5t35.5 -12
q16 0 30 11.5t21 33.5h42q-12 -44 -41 -68.5t-64 -24.5q-26 0 -41.5 12t-28.5 23.5t-34 11.5q-17 0 -30 -11t-21 -34h-42z" />
    <glyph glyph-name="utilde" unicode="&#x169;" horiz-adv-x="563" 
d="M205 -12q-62 0 -100.5 28t-52 75.5t-1.5 109.5l53 300h70l-51 -292q-13 -77 11.5 -118.5t92.5 -41.5q44 0 83 20.5t67.5 60t39.5 97.5l48 274h70l-87 -501h-64l11 92v0q-31 -49 -82 -76.5t-108 -27.5zM184 562q14 46 42 69.5t62 23.5q26 0 41 -11.5t28.5 -23.5t35.5 -12
q16 0 30 11.5t21 33.5h42q-12 -44 -41 -68.5t-64 -24.5q-26 0 -41.5 12t-28.5 23.5t-34 11.5q-17 0 -30 -11t-21 -34h-42z" />
    <glyph glyph-name="Umacron" unicode="&#x16a;" horiz-adv-x="649" 
d="M278 -12q-80 0 -131.5 32t-71.5 91.5t-4 143.5l79 445h70l-79 -445q-12 -64 0.5 -109.5t49.5 -70t99 -24.5q54 0 99 21t76 66t44 117l80 445h70l-79 -445q-16 -92 -61 -151.5t-107.5 -87.5t-133.5 -28zM259 816l10 54h339l-9 -54h-340z" />
    <glyph glyph-name="umacron" unicode="&#x16b;" horiz-adv-x="563" 
d="M205 -12q-62 0 -100.5 28t-52 75.5t-1.5 109.5l53 300h70l-51 -292q-13 -77 11.5 -118.5t92.5 -41.5q44 0 83 20.5t67.5 60t39.5 97.5l48 274h70l-87 -501h-64l11 92v0q-31 -49 -82 -76.5t-108 -27.5zM164 599l10 54h339l-9 -54h-340z" />
    <glyph glyph-name="Ubreve" unicode="&#x16c;" horiz-adv-x="649" 
d="M278 -12q-80 0 -131.5 32t-71.5 91.5t-4 143.5l79 445h70l-79 -445q-12 -64 0.5 -109.5t49.5 -70t99 -24.5q54 0 99 21t76 66t44 117l80 445h70l-79 -445q-16 -92 -61 -151.5t-107.5 -87.5t-133.5 -28zM421 769q-44 0 -71 17t-37 45t-5 61l2 13h44q-7 -38 11 -59t66 -21
q47 0 72.5 21t32.5 59h45l-3 -13q-6 -33 -26 -61t-52.5 -45t-78.5 -17z" />
    <glyph glyph-name="ubreve" unicode="&#x16d;" horiz-adv-x="563" 
d="M205 -12q-62 0 -100.5 28t-52 75.5t-1.5 109.5l53 300h70l-51 -292q-13 -77 11.5 -118.5t92.5 -41.5q44 0 83 20.5t67.5 60t39.5 97.5l48 274h70l-87 -501h-64l11 92v0q-31 -49 -82 -76.5t-108 -27.5zM327 565q-44 0 -71 17t-37 45t-5 61l2 13h44q-7 -38 11 -59t66 -21
q47 0 72.5 21t32.5 59h45l-3 -13q-6 -33 -26 -61t-52.5 -45t-78.5 -17z" />
    <glyph glyph-name="Uring" unicode="&#x16e;" horiz-adv-x="649" 
d="M278 -12q-80 0 -131.5 32t-71.5 91.5t-4 143.5l79 445h70l-79 -445q-12 -64 0.5 -109.5t49.5 -70t99 -24.5q54 0 99 21t76 66t44 117l80 445h70l-79 -445q-16 -92 -61 -151.5t-107.5 -87.5t-133.5 -28zM438 770q-41 0 -71.5 26.5t-30.5 73.5t30.5 73.5t71.5 26.5
q43 0 72.5 -26.5t29.5 -73.5q0 -46 -29.5 -73t-72.5 -27zM439 809q24 0 41 16.5t17 44.5q0 29 -17 45t-42 16q-24 0 -41 -16t-17 -45q0 -28 17 -44.5t42 -16.5z" />
    <glyph glyph-name="uring" unicode="&#x16f;" horiz-adv-x="563" 
d="M205 -12q-62 0 -100.5 28t-52 75.5t-1.5 109.5l53 300h70l-51 -292q-13 -77 11.5 -118.5t92.5 -41.5q44 0 83 20.5t67.5 60t39.5 97.5l48 274h70l-87 -501h-64l11 92v0q-31 -49 -82 -76.5t-108 -27.5zM345 565q-41 0 -71.5 26.5t-30.5 73.5t30.5 73.5t71.5 26.5
q43 0 72.5 -26.5t29.5 -73.5q0 -46 -29.5 -73t-72.5 -27zM346 604q24 0 41 16.5t17 44.5q0 29 -17 45t-42 16q-24 0 -41 -16t-17 -45q0 -28 17 -44.5t42 -16.5z" />
    <glyph glyph-name="Uhungarumlaut" unicode="&#x170;" horiz-adv-x="649" 
d="M278 -12q-80 0 -131.5 32t-71.5 91.5t-4 143.5l79 445h70l-79 -445q-12 -64 0.5 -109.5t49.5 -70t99 -24.5q54 0 99 21t76 66t44 117l80 445h70l-79 -445q-16 -92 -61 -151.5t-107.5 -87.5t-133.5 -28zM420 760l99 139h63l-113 -139h-49zM281 760l90 139h63l-104 -139
h-49z" />
    <glyph glyph-name="uhungarumlaut" unicode="&#x171;" horiz-adv-x="563" 
d="M205 -12q-62 0 -100.5 28t-52 75.5t-1.5 109.5l53 300h70l-51 -292q-13 -77 11.5 -118.5t92.5 -41.5q44 0 83 20.5t67.5 60t39.5 97.5l48 274h70l-87 -501h-64l11 92v0q-31 -49 -82 -76.5t-108 -27.5zM327 555l99 139h63l-113 -139h-49zM188 555l90 139h63l-104 -139h-49
z" />
    <glyph glyph-name="Uogonek" unicode="&#x172;" horiz-adv-x="649" 
d="M278 -12q-80 0 -131.5 32t-71.5 91.5t-4 143.5l79 445h70l-79 -445q-12 -64 0.5 -109.5t49.5 -70t99 -24.5q54 0 99 21t76 66t44 117l80 445h70l-79 -445q-16 -92 -61 -151.5t-107.5 -87.5t-133.5 -28zM293 -191q-28 0 -53 9t-37 29.5t-6 53.5q3 23 17.5 44.5t41.5 41.5
t70 37l59 24l13 -38l-65 -29q-38 -17 -55 -35t-21 -38q-4 -25 10.5 -38t41.5 -13q15 0 32.5 3.5t34.5 10.5l-9 -49q-16 -6 -35.5 -9.5t-38.5 -3.5z" />
    <glyph glyph-name="uogonek" unicode="&#x173;" horiz-adv-x="563" 
d="M205 -12q-62 0 -100.5 28t-52 75.5t-1.5 109.5l53 300h70l-51 -292q-13 -77 11.5 -118.5t92.5 -41.5q44 0 83 20.5t67.5 60t39.5 97.5l48 274h70l-87 -501h-64l11 92v0q-31 -49 -82 -76.5t-108 -27.5zM343 -201q-28 0 -53 9t-37 29.5t-6 53.5q3 23 17.5 44.5t41.5 41.5
t70 37l59 24l13 -38l-65 -29q-38 -17 -55 -35t-21 -38q-4 -25 10.5 -38t41.5 -13q15 0 32.5 3.5t34.5 10.5l-9 -49q-16 -6 -35.5 -9.5t-38.5 -3.5z" />
    <glyph glyph-name="Wcircumflex" unicode="&#x174;" horiz-adv-x="956" 
d="M176 -1l-70 701h76l51 -611v0l287 611h79l65 -613v0l268 613h77l-323 -700h-78l-70 595v0l-285 -595zM440 761l10 57l149 82l119 -82l-10 -57l-119 84z" />
    <glyph glyph-name="wcircumflex" unicode="&#x175;" horiz-adv-x="744" 
d="M130 0l-59 501h71l43 -431h-15l206 431h80l55 -430h-16l196 430h71l-235 -501h-71l-56 451h15l-214 -451h-71zM293 559l10 57l149 82l119 -82l-10 -57l-119 84z" />
    <glyph glyph-name="Ycircumflex" unicode="&#x176;" horiz-adv-x="567" 
d="M205 0l48 273l-151 427h80l117 -363v0l246 363h79l-301 -427l-48 -273h-70zM245 761l10 57l149 82l119 -82l-10 -57l-119 84z" />
    <glyph glyph-name="ycircumflex" unicode="&#x177;" horiz-adv-x="543" 
d="M40 -220l172 273h-27l-120 448h73l104 -401v0l252 401h73l-454 -721h-73zM193 559l10 57l149 82l119 -82l-10 -57l-119 84z" />
    <glyph glyph-name="Ydieresis" unicode="&#x178;" horiz-adv-x="567" 
d="M205 0l48 273l-151 427h80l117 -363v0l246 363h79l-301 -427l-48 -273h-70zM313 777q-19 0 -32.5 13.5t-13.5 32.5t13.5 32.5t33.5 13.5q18 0 31.5 -14t13.5 -32q0 -19 -13.5 -32.5t-32.5 -13.5zM468 777q-20 0 -33.5 13.5t-13.5 32.5t13.5 32.5t33.5 13.5q18 0 31 -14
t13 -32q0 -19 -13 -32.5t-31 -13.5z" />
    <glyph glyph-name="Zacute" unicode="&#x179;" horiz-adv-x="529" 
d="M-1 0l10 56l457 582h-348l11 62h431l-10 -56l-458 -582h360l-11 -62h-442zM263 753l2 52l216 127v0l-2 -62z" />
    <glyph glyph-name="zacute" unicode="&#x17a;" horiz-adv-x="454" 
d="M-8 0l11 58l361 384h-279l11 59h359l-11 -58l-360 -385h288l-11 -58h-369zM191 543l2 52l216 127v0l-2 -62z" />
    <glyph glyph-name="Zdotaccent" unicode="&#x17b;" horiz-adv-x="529" 
d="M-1 0l10 56l457 582h-348l11 62h431l-10 -56l-458 -582h360l-11 -62h-442zM371 777q-19 0 -32.5 13.5t-13.5 32.5t13.5 32.5t32.5 13.5t32.5 -13.5t13.5 -32.5t-13.5 -32.5t-32.5 -13.5z" />
    <glyph glyph-name="zdotaccent" unicode="&#x17c;" horiz-adv-x="454" 
d="M-8 0l11 58l361 384h-279l11 59h359l-11 -58l-360 -385h288l-11 -58h-369zM297 568q-19 0 -32.5 13.5t-13.5 32.5t13.5 32.5t32.5 13.5t32.5 -13.5t13.5 -32.5t-13.5 -32.5t-32.5 -13.5z" />
    <glyph glyph-name="Zcaron" unicode="&#x17d;" horiz-adv-x="529" 
d="M-1 0l10 56l457 582h-348l11 62h431l-10 -56l-458 -582h360l-11 -62h-442zM516 900l-10 -57l-149 -82l-119 82l10 57l119 -84z" />
    <glyph glyph-name="zcaron" unicode="&#x17e;" horiz-adv-x="454" 
d="M-8 0l11 58l361 384h-279l11 59h359l-11 -58l-360 -385h288l-11 -58h-369zM446 699l-10 -57l-149 -82l-119 82l10 57l119 -84z" />
    <glyph glyph-name="uni018F" unicode="&#x18f;" horiz-adv-x="746" 
d="M320 -12q-63 0 -112.5 18.5t-84.5 54t-52.5 85.5t-16.5 111q1 27 6 57t12 57h584l-11 -65h-514q-15 -79 5.5 -136t70.5 -88t123 -31q60 0 113.5 22t95 62t67.5 94t32 118l4 43q9 76 -13.5 134t-71.5 91t-121 33q-84 0 -154.5 -42.5t-106.5 -119.5h-81q32 68 84.5 119
t121 79t147.5 28q85 0 147.5 -37t95.5 -102.5t30 -151.5q-2 -90 -32 -169t-83 -138.5t-125.5 -92.5t-159.5 -33z" />
    <glyph glyph-name="florin" unicode="&#x192;" horiz-adv-x="333" 
d="M-116 -179l16 58h21q32 0 50.5 15t30.5 56l183 649q25 86 83 125t152 39l-15 -59q-63 0 -98.5 -24.5t-51.5 -80.5l-183 -649q-12 -44 -33.5 -73t-53 -42.5t-76.5 -13.5h-25zM79 488l15 58h273l-15 -58h-273z" />
    <glyph glyph-name="AEacute" unicode="&#x1fc;" horiz-adv-x="903" 
d="M-12 0l530 700h406l-10 -56h-295l-47 -264h265l-9 -56h-265l-47 -268h294l-10 -56h-365l114 640v0l-484 -640h-77zM152 166l39 56h315l-10 -56h-344zM510 753l2 52l216 127v0l-2 -62z" />
    <glyph glyph-name="aeacute" unicode="&#x1fd;" horiz-adv-x="920" 
d="M184 -12q-54 0 -89 18.5t-51.5 49.5t-15.5 67q2 55 32.5 95.5t83.5 62.5t121 22h150q9 48 0 81t-34.5 51t-69.5 18q-52 0 -94 -26.5t-60 -76.5h-74q16 53 53.5 89.5t86.5 55t98 18.5q45 0 78 -12t54 -33.5t30 -51.5q40 46 94.5 71.5t117.5 25.5q65 0 108 -27t64 -71
t19 -98q0 -12 -3 -29t-5.5 -32l-3.5 -21h-400q-9 -54 6 -96t49 -66.5t83 -24.5q60 0 104.5 29.5t69.5 80.5h67q-21 -48 -56.5 -87t-85 -61t-110.5 -22q-70 0 -118.5 34t-67.5 93q-22 -34 -56 -63t-77.5 -46.5t-97.5 -17.5zM204 50q48 0 88.5 23t69 62t39.5 84l4 25h-146
q-47 0 -82 -13.5t-54.5 -38t-20.5 -61.5q0 -24 11.5 -42t34.5 -28.5t56 -10.5zM485 294h332q6 52 -9 87t-47 53.5t-78 18.5q-44 0 -84 -18t-70 -53.5t-44 -87.5zM418 543l2 52l216 127v0l-2 -62z" />
    <glyph glyph-name="uni0218" unicode="&#x218;" horiz-adv-x="577" 
d="M261 -12q-74 0 -128 26t-79.5 75.5t-15.5 120.5h73q-10 -48 8 -84.5t57 -57.5t92 -21q57 0 96 19t59.5 52.5t21.5 78.5q1 29 -10 49.5t-30 35t-45 25.5t-55.5 20.5t-58.5 20.5q-68 25 -99.5 66.5t-30.5 95.5q2 60 33 105.5t84.5 71t124.5 25.5q64 0 111 -24.5t69.5 -68
t12.5 -99.5h-72q6 40 -9.5 69.5t-46.5 46t-73 16.5q-48 0 -83 -17t-55.5 -47t-21.5 -69q0 -25 9 -43.5t26.5 -32t42 -24t53 -20.5t60.5 -21q30 -11 56 -27t44.5 -37t28.5 -48t9 -61q-1 -64 -33.5 -113t-89.5 -76.5t-135 -27.5zM134 -226l6 36q24 0 37 14t17 41l3 14h-43
l12 69h79q1 -18 0 -35.5t-3 -31.5q-10 -58 -38.5 -82.5t-69.5 -24.5z" />
    <glyph glyph-name="uni0219" unicode="&#x219;" horiz-adv-x="496" 
d="M212 -12q-61 0 -103.5 21t-63.5 60t-17 94h72q-1 -30 10 -56t39 -41.5t74 -15.5q38 0 66 11.5t44.5 33.5t16.5 51q2 26 -12 42t-39.5 25t-62.5 16q-29 5 -56 14.5t-48.5 25t-33.5 38t-11 52.5q1 43 26.5 77.5t69.5 55.5t100 21q77 0 123 -38.5t41 -112.5h-71
q3 41 -23.5 65t-76.5 24t-82 -23.5t-33 -57.5q-1 -22 11.5 -37t37 -24.5t59.5 -17.5q31 -6 59.5 -16t50.5 -25t34.5 -38t10.5 -57q-1 -50 -29 -87.5t-75 -58.5t-108 -21zM127 -226l6 36q24 0 37 14t17 41l3 14h-43l12 69h79q1 -18 0 -35.5t-3 -31.5q-10 -58 -38.5 -82.5
t-69.5 -24.5z" />
    <glyph glyph-name="uni021A" unicode="&#x21a;" horiz-adv-x="550" 
d="M196 0l113 644h-209l10 56h489l-10 -56h-210l-113 -644h-70zM148 -226l6 36q24 0 37 14t17 41l3 14h-43l12 69h79q1 -18 0 -35.5t-3 -31.5q-10 -58 -38.5 -82.5t-69.5 -24.5z" />
    <glyph glyph-name="uni021B" unicode="&#x21b;" horiz-adv-x="372" 
d="M214 0q-50 0 -79 15.5t-39 48.5t-1 84l52 293h-78l11 60h78l30 116h61l-21 -116h151l-10 -60h-151l-53 -293q-9 -51 8 -69.5t64 -18.5h64l-11 -60h-76zM98 -226l6 36q24 0 37 14t17 41l3 14h-43l12 69h79q1 -18 0 -35.5t-3 -31.5q-10 -58 -38.5 -82.5t-69.5 -24.5z" />
    <glyph glyph-name="uni0237" unicode="&#x237;" horiz-adv-x="225" 
d="M-110 -220l11 60h37q39 0 59 16t27 56l104 589h70l-104 -592q-7 -44 -27 -72.5t-52 -42.5t-77 -14h-48z" />
    <glyph glyph-name="uni0259" unicode="&#x259;" horiz-adv-x="563" 
d="M320 513q62 0 107 -27.5t68.5 -76.5t21.5 -115t-24 -121.5t-61.5 -97t-91 -64.5t-112.5 -23q-66 0 -109.5 27t-64.5 71.5t-19 97.5q0 18 4 40.5t8 41.5h414l-10 -60h-347q-6 -50 9 -86t47.5 -54t77.5 -18q46 0 88 20t73 60t41 97l5 27q10 60 -3.5 105t-47 70.5
t-85.5 25.5q-57 0 -99 -26.5t-65 -70.5h-69q21 45 56 80.5t82.5 56t105.5 20.5z" />
    <glyph glyph-name="circumflex" unicode="&#x2c6;" horiz-adv-x="269" 
d="M55 559l10 57l149 82l119 -82l-10 -57l-119 84z" />
    <glyph glyph-name="caron" unicode="&#x2c7;" horiz-adv-x="268" 
d="M347 699l-10 -57l-149 -82l-119 82l10 57l119 -84z" />
    <glyph glyph-name="breve" unicode="&#x2d8;" horiz-adv-x="271" 
d="M190 565q-44 0 -71 17t-37 45t-5 61l2 13h44q-7 -38 11 -59t66 -21q47 0 72.5 21t32.5 59h45l-3 -13q-6 -33 -26 -61t-52.5 -45t-78.5 -17z" />
    <glyph glyph-name="dotaccent" unicode="&#x2d9;" horiz-adv-x="93" 
d="M110 568q-19 0 -32.5 13.5t-13.5 32.5t13.5 32.5t32.5 13.5t32.5 -13.5t13.5 -32.5t-13.5 -32.5t-32.5 -13.5z" />
    <glyph glyph-name="ring" unicode="&#x2da;" horiz-adv-x="207" 
d="M176 565q-41 0 -71.5 26.5t-30.5 73.5t30.5 73.5t71.5 26.5q43 0 72.5 -26.5t29.5 -73.5q0 -46 -29.5 -73t-72.5 -27zM177 604q24 0 41 16.5t17 44.5q0 29 -17 45t-42 16q-24 0 -41 -16t-17 -45q0 -28 17 -44.5t42 -16.5z" />
    <glyph glyph-name="ogonek" unicode="&#x2db;" horiz-adv-x="185" 
d="M33 -201q-28 0 -53 9t-37 29.5t-6 53.5q3 23 17.5 44.5t41.5 41.5t70 37l59 24l13 -38l-65 -29q-38 -17 -55 -35t-21 -38q-4 -25 10.5 -38t41.5 -13q15 0 32.5 3.5t34.5 10.5l-9 -49q-16 -6 -35.5 -9.5t-38.5 -3.5z" />
    <glyph glyph-name="tilde" unicode="&#x2dc;" horiz-adv-x="287" 
d="M55 562q14 46 42 69.5t62 23.5q26 0 41 -11.5t28.5 -23.5t35.5 -12q16 0 30 11.5t21 33.5h42q-12 -44 -41 -68.5t-64 -24.5q-26 0 -41.5 12t-28.5 23.5t-34 11.5q-17 0 -30 -11t-21 -34h-42z" />
    <glyph glyph-name="hungarumlaut" unicode="&#x2dd;" horiz-adv-x="276" 
d="M192 555l99 139h63l-113 -139h-49zM53 555l90 139h63l-104 -139h-49z" />
    <glyph glyph-name="gravecomb" unicode="&#x300;" 
d="M252 543l-180 117l17 58v0l176 -123z" />
    <glyph glyph-name="acutecomb" unicode="&#x301;" 
d="M59 543l2 52l216 127v0l-2 -62z" />
    <glyph glyph-name="uni0302" unicode="&#x302;" 
d="M55 559l10 57l149 82l119 -82l-10 -57l-119 84z" />
    <glyph glyph-name="tildecomb" unicode="&#x303;" 
d="M55 562q14 46 42 69.5t62 23.5q26 0 41 -11.5t28.5 -23.5t35.5 -12q16 0 30 11.5t21 33.5h42q-12 -44 -41 -68.5t-64 -24.5q-26 0 -41.5 12t-28.5 23.5t-34 11.5q-17 0 -30 -11t-21 -34h-42z" />
    <glyph glyph-name="uni0304" unicode="&#x304;" 
d="M61 599l10 54h339l-9 -54h-340z" />
    <glyph glyph-name="uni0306" unicode="&#x306;" 
d="M190 565q-44 0 -71 17t-37 45t-5 61l2 13h44q-7 -38 11 -59t66 -21q47 0 72.5 21t32.5 59h45l-3 -13q-6 -33 -26 -61t-52.5 -45t-78.5 -17z" />
    <glyph glyph-name="uni0307" unicode="&#x307;" 
d="M110 568q-19 0 -32.5 13.5t-13.5 32.5t13.5 32.5t32.5 13.5t32.5 -13.5t13.5 -32.5t-13.5 -32.5t-32.5 -13.5z" />
    <glyph glyph-name="uni0308" unicode="&#x308;" 
d="M112 576q-19 0 -32.5 13.5t-13.5 32.5t13.5 32.5t33.5 13.5q18 0 31.5 -14t13.5 -32q0 -19 -13.5 -32.5t-32.5 -13.5zM267 576q-20 0 -33.5 13.5t-13.5 32.5t13.5 32.5t33.5 13.5q18 0 31 -14t13 -32q0 -19 -13 -32.5t-31 -13.5z" />
    <glyph glyph-name="uni030A" unicode="&#x30a;" 
d="M176 565q-41 0 -71.5 26.5t-30.5 73.5t30.5 73.5t71.5 26.5q43 0 72.5 -26.5t29.5 -73.5q0 -46 -29.5 -73t-72.5 -27zM177 604q24 0 41 16.5t17 44.5q0 29 -17 45t-42 16q-24 0 -41 -16t-17 -45q0 -28 17 -44.5t42 -16.5z" />
    <glyph glyph-name="uni030B" unicode="&#x30b;" 
d="M192 555l99 139h63l-113 -139h-49zM53 555l90 139h63l-104 -139h-49z" />
    <glyph glyph-name="uni030C" unicode="&#x30c;" 
d="M347 699l-10 -57l-149 -82l-119 82l10 57l119 -84z" />
    <glyph glyph-name="uni0312" unicode="&#x312;" 
d="M171 735l-6 -36q-22 0 -33 -9.5t-15 -28.5l-4 -22h40l-13 -76h-75q0 25 0.5 43t3.5 37q9 50 35.5 71t66.5 21z" />
    <glyph glyph-name="uni0326" unicode="&#x326;" 
d="M-83 -226l6 36q24 0 37 14t17 41l3 14h-43l12 69h79q1 -18 0 -35.5t-3 -31.5q-10 -58 -38.5 -82.5t-69.5 -24.5z" />
    <glyph glyph-name="uni0327" unicode="&#x327;" 
d="M-89 -258l8 47h86q40 0 60 14.5t21 40.5q0 23 -15 33.5t-48 10.5h-47l21 119h49l-13 -74q36 1 62 -8t39 -28t12 -49q0 -30 -17.5 -54t-47.5 -38t-67 -14h-103z" />
    <glyph glyph-name="uni0328" unicode="&#x328;" 
d="M33 -201q-28 0 -53 9t-37 29.5t-6 53.5q3 23 17.5 44.5t41.5 41.5t70 37l59 24l13 -38l-65 -29q-38 -17 -55 -35t-21 -38q-4 -25 10.5 -38t41.5 -13q15 0 32.5 3.5t34.5 10.5l-9 -49q-16 -6 -35.5 -9.5t-38.5 -3.5z" />
    <glyph glyph-name="pi" unicode="&#x3c0;" horiz-adv-x="646" 
d="M87 0l78 445h-81l10 56h546l-10 -56h-81l-78 -445h-70l78 445h-244l-78 -445h-70z" />
    <glyph glyph-name="Wgrave" unicode="&#x1e80;" horiz-adv-x="956" 
d="M176 -1l-70 701h76l51 -611v0l287 611h79l65 -613v0l268 613h77l-323 -700h-78l-70 595v0l-285 -595zM670 753l-180 117l17 58v0l176 -123z" />
    <glyph glyph-name="wgrave" unicode="&#x1e81;" horiz-adv-x="744" 
d="M130 0l-59 501h71l43 -431h-15l206 431h80l55 -430h-16l196 430h71l-235 -501h-71l-56 451h15l-214 -451h-71zM522 543l-180 117l17 58v0l176 -123z" />
    <glyph glyph-name="Wacute" unicode="&#x1e82;" horiz-adv-x="956" 
d="M176 -1l-70 701h76l51 -611v0l287 611h79l65 -613v0l268 613h77l-323 -700h-78l-70 595v0l-285 -595zM477 753l2 52l216 127v0l-2 -62z" />
    <glyph glyph-name="wacute" unicode="&#x1e83;" horiz-adv-x="744" 
d="M130 0l-59 501h71l43 -431h-15l206 431h80l55 -430h-16l196 430h71l-235 -501h-71l-56 451h15l-214 -451h-71zM330 543l2 52l216 127v0l-2 -62z" />
    <glyph glyph-name="Wdieresis" unicode="&#x1e84;" horiz-adv-x="956" 
d="M176 -1l-70 701h76l51 -611v0l287 611h79l65 -613v0l268 613h77l-323 -700h-78l-70 595v0l-285 -595zM508 777q-19 0 -32.5 13.5t-13.5 32.5t13.5 32.5t33.5 13.5q18 0 31.5 -14t13.5 -32q0 -19 -13.5 -32.5t-32.5 -13.5zM663 777q-20 0 -33.5 13.5t-13.5 32.5t13.5 32.5
t33.5 13.5q18 0 31 -14t13 -32q0 -19 -13 -32.5t-31 -13.5z" />
    <glyph glyph-name="wdieresis" unicode="&#x1e85;" horiz-adv-x="744" 
d="M130 0l-59 501h71l43 -431h-15l206 431h80l55 -430h-16l196 430h71l-235 -501h-71l-56 451h15l-214 -451h-71zM361 576q-19 0 -32.5 13.5t-13.5 32.5t13.5 32.5t33.5 13.5q18 0 31.5 -14t13.5 -32q0 -19 -13.5 -32.5t-32.5 -13.5zM516 576q-20 0 -33.5 13.5t-13.5 32.5
t13.5 32.5t33.5 13.5q18 0 31 -14t13 -32q0 -19 -13 -32.5t-31 -13.5z" />
    <glyph glyph-name="uni1E9E" unicode="&#x1e9e;" horiz-adv-x="662" 
d="M368 -6q-94 0 -138.5 54t-26.5 156h69q-8 -46 0 -79.5t34 -51.5t70 -18q42 0 75.5 17.5t56.5 53.5t32 89q14 81 -13 122.5t-114 41.5h-108l8 50l243 212h-264q-40 0 -60.5 -16.5t-27.5 -56.5l-100 -568h-70l100 571q8 44 27.5 72.5t51.5 42.5t76 14h363l-9 -54l-246 -213
h16q79 0 126.5 -25.5t65 -74t5.5 -117.5q-12 -67 -42.5 -117t-80.5 -77.5t-119 -27.5z" />
    <glyph glyph-name="uni1EBC" unicode="&#x1ebc;" horiz-adv-x="536" 
d="M34 0l123 700h400l-11 -56h-329l-46 -264h299l-9 -56h-300l-47 -268h329l-10 -56h-399zM220 770q14 46 42 69.5t62 23.5q26 0 41 -11.5t28.5 -23.5t35.5 -12q16 0 30 11.5t21 33.5h42q-12 -44 -41 -68.5t-64 -24.5q-26 0 -41.5 12t-28.5 23.5t-34 11.5q-17 0 -30 -11
t-21 -34h-42z" />
    <glyph glyph-name="uni1EBD" unicode="&#x1ebd;" horiz-adv-x="563" 
d="M243 -12q-62 0 -107 27.5t-68.5 76.5t-21.5 115t24 121.5t61 97t90.5 64.5t113.5 23q67 0 110 -27t64 -71t19 -98q0 -18 -4 -41t-8 -41h-414l10 59h347q6 52 -9 87t-47 53.5t-79 18.5q-44 0 -86.5 -20.5t-73 -59.5t-41.5 -98l-5 -26q-9 -60 3.5 -105.5t46.5 -70.5t86 -25
q56 0 98 26t66 71h68q-20 -45 -55 -80.5t-82.5 -56t-105.5 -20.5zM200 562q14 46 42 69.5t62 23.5q26 0 41 -11.5t28.5 -23.5t35.5 -12q16 0 30 11.5t21 33.5h42q-12 -44 -41 -68.5t-64 -24.5q-26 0 -41.5 12t-28.5 23.5t-34 11.5q-17 0 -30 -11t-21 -34h-42z" />
    <glyph glyph-name="Ygrave" unicode="&#x1ef2;" horiz-adv-x="567" 
d="M205 0l48 273l-151 427h80l117 -363v0l246 363h79l-301 -427l-48 -273h-70zM475 753l-180 117l17 58v0l176 -123z" />
    <glyph glyph-name="ygrave" unicode="&#x1ef3;" horiz-adv-x="543" 
d="M40 -220l172 273h-27l-120 448h73l104 -401v0l252 401h73l-454 -721h-73zM422 543l-180 117l17 58v0l176 -123z" />
    <glyph glyph-name="uni1EF8" unicode="&#x1ef8;" horiz-adv-x="567" 
d="M205 0l48 273l-151 427h80l117 -363v0l246 363h79l-301 -427l-48 -273h-70zM237 770q14 46 42 69.5t62 23.5q26 0 41 -11.5t28.5 -23.5t35.5 -12q16 0 30 11.5t21 33.5h42q-12 -44 -41 -68.5t-64 -24.5q-26 0 -41.5 12t-28.5 23.5t-34 11.5q-17 0 -30 -11t-21 -34h-42z
" />
    <glyph glyph-name="uni1EF9" unicode="&#x1ef9;" horiz-adv-x="543" 
d="M40 -220l172 273h-27l-120 448h73l104 -401v0l252 401h73l-454 -721h-73zM184 562q14 46 42 69.5t62 23.5q26 0 41 -11.5t28.5 -23.5t35.5 -12q16 0 30 11.5t21 33.5h42q-12 -44 -41 -68.5t-64 -24.5q-26 0 -41.5 12t-28.5 23.5t-34 11.5q-17 0 -30 -11t-21 -34h-42z" />
    <glyph glyph-name="endash" unicode="&#x2013;" horiz-adv-x="641" 
d="M53 264l10 59h519l-10 -59h-519z" />
    <glyph glyph-name="emdash" unicode="&#x2014;" horiz-adv-x="841" 
d="M53 264l10 59h719l-10 -59h-719z" />
    <glyph glyph-name="quoteleft" unicode="&#x2018;" horiz-adv-x="201" 
d="M77 480l127 220h51l-97 -220h-81z" />
    <glyph glyph-name="quoteright" unicode="&#x2019;" horiz-adv-x="201" 
d="M243 700l-127 -220h-51l97 220h81z" />
    <glyph glyph-name="quotesinglbase" unicode="&#x201a;" horiz-adv-x="170" 
d="M-66 -125l96 219h81l-126 -219h-51z" />
    <glyph glyph-name="quotedblleft" unicode="&#x201c;" horiz-adv-x="348" 
d="M224 480l127 220h51l-97 -220h-81zM77 480l127 220h51l-97 -220h-81z" />
    <glyph glyph-name="quotedblright" unicode="&#x201d;" horiz-adv-x="348" 
d="M243 700l-127 -220h-51l98 220h80zM390 700l-127 -220h-51l97 220h81z" />
    <glyph glyph-name="quotedblbase" unicode="&#x201e;" horiz-adv-x="329" 
d="M-66 -125l96 219h81l-126 -219h-51zM93 -125l96 219h81l-126 -219h-51z" />
    <glyph glyph-name="dagger" unicode="&#x2020;" horiz-adv-x="512" 
d="M132 -258l140 754l-189 -7l9 57l188 -7l35 240h69l-49 -240l188 7l-9 -57l-187 7l-126 -754h-69z" />
    <glyph glyph-name="daggerdbl" unicode="&#x2021;" horiz-adv-x="513" 
d="M133 -258l50 240l-190 -7l11 57l186 -7l84 471l-190 -7l10 57l187 -7l34 240h69l-49 -240l190 7l-10 -57l-187 7l-83 -471l190 7l-10 -57l-187 7l-36 -240h-69z" />
    <glyph glyph-name="bullet" unicode="&#x2022;" horiz-adv-x="357" 
d="M193 218q-31 0 -58 15.5t-42 41.5t-15 59q0 32 15.5 58t42 41.5t57.5 15.5q33 0 59 -15t41.5 -41.5t15.5 -58.5q0 -33 -15.5 -59t-41.5 -41.5t-59 -15.5z" />
    <glyph glyph-name="ellipsis" unicode="&#x2026;" horiz-adv-x="536" 
d="M233 -5q-22 0 -36.5 15t-14.5 37t14 36.5t37 14.5q21 0 35.5 -14.5t14.5 -36.5t-14.5 -37t-35.5 -15zM408 -5q-22 0 -36.5 15t-14.5 37t14 36.5t37 14.5q21 0 35.5 -14.5t14.5 -36.5t-14.5 -37t-35.5 -15zM58 -5q-22 0 -36.5 15t-14.5 37t14 36.5t37 14.5
q21 0 35.5 -14.5t14.5 -36.5t-14.5 -37t-35.5 -15z" />
    <glyph glyph-name="perthousand" unicode="&#x2030;" horiz-adv-x="1105" 
d="M863 -12q-40 0 -70 17t-46.5 48.5t-15.5 75.5q1 53 26.5 95.5t67.5 68t92 25.5q40 0 70 -17t46 -48t15 -75q-1 -52 -26.5 -95.5t-66.5 -69t-92 -25.5zM871 43q31 0 57.5 17.5t42.5 46.5t17 66q2 45 -21.5 68t-56.5 23q-31 0 -58 -17t-43 -46.5t-18 -66.5q-1 -45 23 -68
t57 -23zM89 0l534 700h70l-534 -700h-70zM511 -12q-39 0 -69.5 17t-47 48.5t-15.5 75.5q1 53 26.5 95.5t67 68t92.5 25.5q40 0 70 -17t46.5 -48t14.5 -75q-1 -52 -26 -95.5t-66.5 -69t-92.5 -25.5zM225 381q-40 0 -70.5 17t-47 49t-15.5 75q1 52 26.5 95t67.5 68.5t92 25.5
q40 0 70.5 -17t46.5 -48.5t15 -75.5q-1 -52 -26.5 -95t-67 -68.5t-91.5 -25.5zM520 43q31 0 57 17.5t42 46.5t17 66q2 45 -21 68t-58 23q-30 0 -57 -17.5t-43 -47t-17 -65.5q-1 -45 22.5 -68t57.5 -23zM232 436q31 0 57 17t42.5 46.5t17.5 66.5q2 45 -21.5 68t-56.5 23
q-32 0 -58 -17t-42.5 -47t-17.5 -66q-2 -45 22 -68t57 -23z" />
    <glyph glyph-name="guilsinglleft" unicode="&#x2039;" horiz-adv-x="266" 
d="M121 120l-68 175l130 175h71l-133 -175l72 -175h-72z" />
    <glyph glyph-name="guilsinglright" unicode="&#x203a;" horiz-adv-x="266" 
d="M161 470l68 -175l-130 -175h-71l133 175l-72 175h72z" />
    <glyph glyph-name="fraction" unicode="&#x2044;" horiz-adv-x="408" 
d="M-73 0l534 700h71l-534 -700h-71z" />
    <glyph glyph-name="uni2074" unicode="&#x2074;" horiz-adv-x="313" 
d="M212 352l12 68h-174l8 44l208 236h63l-40 -231h48l-9 -49h-48l-12 -68h-56zM119 469h117l30 169v0z" />
    <glyph glyph-name="uni20A8" unicode="&#x20a8;" horiz-adv-x="1037" 
d="M34 0l123 700h216q72 0 116.5 -24.5t64.5 -65t18 -88.5q-1 -70 -36 -121t-96 -79.5t-143 -28.5h-141l-52 -293h-70zM413 0l-101 315h73l105 -315h-77zM166 350h141q87 0 139 43.5t54 123.5q2 52 -31.5 88t-111.5 36h-140zM753 -12q-61 0 -103.5 21t-63.5 60t-17 94h72
q-1 -30 10 -56t39 -41.5t74 -15.5q38 0 66 11.5t44.5 33.5t16.5 51q2 26 -12 42t-39.5 25t-62.5 16q-29 5 -56 14.5t-48.5 25t-33.5 38t-11 52.5q1 43 26.5 77.5t69.5 55.5t100 21q77 0 123 -38.5t41 -112.5h-71q3 41 -23.5 65t-76.5 24t-82 -23.5t-33 -57.5
q-1 -22 11.5 -37t37 -24.5t59.5 -17.5q31 -6 59.5 -16t50.5 -25t34.5 -38t10.5 -57q-1 -50 -29 -87.5t-75 -58.5t-108 -21z" />
    <glyph glyph-name="Euro" unicode="&#x20ac;" horiz-adv-x="774" 
d="M22 240l10 58h432l-10 -58h-432zM50 395l10 58h432l-10 -58h-432zM395 -12q-90 0 -152 36.5t-94 102.5t-29 153q2 92 33 171t85 137.5t126 91t156 32.5q117 0 181.5 -55.5t68.5 -156.5h-80q-2 70 -46.5 110.5t-133.5 40.5q-66 0 -123 -27.5t-100 -77t-67.5 -116.5
t-26.5 -146q-2 -74 22.5 -126.5t72.5 -80.5t116 -28q89 0 147.5 40.5t85.5 108.5h80q-26 -66 -71.5 -113t-109 -72t-141.5 -25z" />
    <glyph glyph-name="uni20B9" unicode="&#x20b9;" horiz-adv-x="646" 
d="M255 -10q-99 0 -138 55.5t-23 150.5l25 144q98 0 157 7t91.5 27.5t49 61t28.5 108.5l21 123h66l-22 -124q-13 -74 -35 -123t-59.5 -77.5t-96 -40.5t-143.5 -12l-16 -94q-13 -68 11 -109t94 -41q67 0 104 38t49 105h66q-19 -99 -78.5 -149t-150.5 -50zM94 471l9 52h544
l-9 -52h-544zM125 647l10 53h544l-10 -53h-544z" />
    <glyph glyph-name="uni20BA" unicode="&#x20ba;" horiz-adv-x="811" 
d="M309 -19q-34 0 -71 5t-75 14l125 702h71l-114 -648q20 -4 38.5 -6t37.5 -2q75 0 134 23.5t102 69.5t71.5 113t43.5 155h72q-25 -139 -79 -234t-142 -143.5t-214 -48.5zM30 204l9 52l448 110l-9 -52zM57 369l9 51l453 114l-9 -52z" />
    <glyph glyph-name="uni20BD" unicode="&#x20bd;" horiz-adv-x="617" 
d="M24 133l10 58h85l19 107h-85l10 58h85l61 344h211q72 0 117.5 -22.5t66.5 -62t19 -93.5q-1 -66 -36 -117t-96 -79t-142 -28h-142l-18 -107h234l-10 -58h-235l-23 -133h-70l24 133h-85zM217 356h142q92 0 141.5 44t50.5 118q2 61 -31.5 93.5t-110.5 32.5h-141z" />
    <glyph glyph-name="uni2113" unicode="&#x2113;" horiz-adv-x="226" 
d="M16 -100l146 820h70l-146 -820h-70z" />
    <glyph glyph-name="trademark" unicode="&#x2122;" horiz-adv-x="754" 
d="M99 654l8 46h238l-8 -46h-91l-54 -306h-57l55 306h-91zM337 348l63 352h71l70 -285l174 285h68l-62 -352h-53l47 269l-167 -269h-42l-68 272l-48 -272h-53z" />
    <glyph glyph-name="uni2126" unicode="&#x2126;" horiz-adv-x="793" 
d="M19 0l10 56h196l-16 -13q-46 18 -79.5 58.5t-51.5 94t-18 108.5q0 86 33 160t91.5 130t134.5 87t161 31q65 0 118.5 -20.5t93.5 -59t61.5 -91t21.5 -117.5q0 -82 -32.5 -159.5t-90.5 -136t-136 -85.5l-10 13h196l-11 -56h-276l11 59q62 12 113 45t87.5 82t56.5 107.5
t20 120.5q0 54 -17 97t-48 74t-74 47.5t-95 16.5q-73 0 -134.5 -26.5t-107 -73t-71 -108.5t-25.5 -133q0 -61 21.5 -114t61 -88.5t92.5 -46.5l-11 -59h-276z" />
    <glyph glyph-name="estimated" unicode="&#x212e;" horiz-adv-x="765" 
d="M346 -7q-105 0 -174.5 43t-98 118.5t-9.5 174.5q14 77 47 143.5t84.5 117t118.5 79t146 28.5q73 0 130 -23.5t94.5 -66.5t51.5 -102t1 -131l-11 -61h-544l-31 -175q32 -47 79.5 -71t124.5 -24q51 0 97 16t91.5 45.5t93.5 70.5l29 -38q-73 -66 -154 -105t-166 -39z
M192 371h416l31 179q-24 46 -71.5 71t-115.5 25q-65 0 -124.5 -26t-106.5 -82z" />
    <glyph glyph-name="arrowleft" unicode="&#x2190;" horiz-adv-x="733" 
d="M725 314h-594l302 -281l-45 -45l-346 328v55l346 328l45 -45l-301 -280l593 -1v-59z" />
    <glyph glyph-name="arrowup" unicode="&#x2191;" horiz-adv-x="803" 
d="M37 347l353 353h57l353 -353l-45 -45l-304 304v-606h-65v607l-304 -305z" />
    <glyph glyph-name="arrowright" unicode="&#x2192;" horiz-adv-x="733" 
d="M42 314v59l593 1l-301 280l45 45l346 -328v-55l-346 -328l-45 45l302 281h-594z" />
    <glyph glyph-name="arrowdown" unicode="&#x2193;" horiz-adv-x="803" 
d="M39 353l45 45l304 -305v607h65v-606l304 304l45 -45l-353 -353h-57z" />
    <glyph glyph-name="arrowboth" unicode="&#x2194;" horiz-adv-x="936" 
d="M42 316v55l346 328l45 -45l-301 -280h706l-301 280l45 45l346 -328v-55l-346 -328l-45 45l302 281h-708l302 -281l-45 -45z" />
    <glyph glyph-name="arrowupdn" unicode="&#x2195;" horiz-adv-x="787" 
d="M56 246l35 40l291 -214l-1 556l-290 -214l-35 40l328 246h55l328 -246l-35 -40l-291 214v-557l291 215l35 -40l-328 -246h-55z" />
    <glyph glyph-name="uni2196" unicode="&#x2196;" horiz-adv-x="658" 
d="M568 68l-429 429v-431h-63v499l40 41h499v-64h-430l429 -429z" />
    <glyph glyph-name="uni2197" unicode="&#x2197;" horiz-adv-x="674" 
d="M132 80l-46 45l429 429h-430v64h499l40 -41v-499h-63v431z" />
    <glyph glyph-name="uni2198" unicode="&#x2198;" horiz-adv-x="658" 
d="M121 604l429 -429v431h63v-499l-40 -41h-499v64h430l-429 429z" />
    <glyph glyph-name="uni2199" unicode="&#x2199;" horiz-adv-x="674" 
d="M575 604l46 -45l-429 -429h430v-64h-499l-40 41v499h63v-431z" />
    <glyph glyph-name="partialdiff" unicode="&#x2202;" horiz-adv-x="559" 
d="M183 -10q-52 0 -90.5 24t-55 74.5t-3.5 127.5q12 66 41.5 126.5t73 109t97.5 76.5t113 28q35 0 61.5 -11t42 -38t17.5 -75q13 75 8 135t-35 94.5t-91 34.5q-19 0 -40 -3.5t-44 -9.5l8 44q25 7 47.5 10t45.5 3q72 0 116 -37t58 -109.5t-5 -179.5q-17 -98 -53 -176.5
t-85.5 -133.5t-107 -84.5t-119.5 -29.5zM200 50q45 0 86 22.5t74.5 61.5t56.5 89t33 105q16 86 -11.5 127.5t-86.5 41.5q-43 0 -83 -21.5t-73 -60t-56.5 -89.5t-34.5 -110q-9 -57 0.5 -94t34.5 -54.5t60 -17.5z" />
    <glyph glyph-name="uni2206" unicode="&#x2206;" horiz-adv-x="691" 
d="M-12 0l10 55l396 645h58l172 -645l-10 -55h-626zM69 55h484l-145 565z" />
    <glyph glyph-name="product" unicode="&#x220f;" horiz-adv-x="723" 
d="M77 0l114 644h-81l10 56h642l-10 -56h-81l-114 -644h-70l114 644h-340l-114 -644h-70z" />
    <glyph glyph-name="summation" unicode="&#x2211;" horiz-adv-x="437" 
d="M-12 -49l14 80l319 303l-215 286l14 80h379l-10 -55h-320l218 -290l-10 -56l-320 -293h320l-10 -55h-379z" />
    <glyph glyph-name="minus" unicode="&#x2212;" horiz-adv-x="500" 
d="M58 261l10 59h389l-10 -59h-389z" />
    <glyph glyph-name="uni2215" unicode="&#x2215;" horiz-adv-x="381" 
d="M-30 -90l401 850h70l-402 -850h-69z" />
    <glyph glyph-name="radical" unicode="&#x221a;" horiz-adv-x="690" 
d="M4 167l132 69l75 -193l578 816h53l-641 -903h-34l-81 207l-67 -35z" />
    <glyph glyph-name="infinity" unicode="&#x221e;" horiz-adv-x="691" 
d="M164 145q-54 0 -88 32.5t-33 91.5q2 47 24.5 83t60.5 57t83 21q42 0 70.5 -17t48.5 -43.5t36 -56t33 -56t40.5 -43.5t56.5 -17q43 0 73.5 28t31.5 73q1 36 -18.5 57.5t-56.5 21.5q-45 0 -88.5 -34t-72.5 -85l-27 29q17 35 46.5 68t68.5 54t85 21q55 0 89.5 -32.5
t32.5 -90.5q-1 -46 -24.5 -82.5t-62 -58t-85.5 -21.5q-42 0 -71 17t-49 43.5t-36.5 56t-33.5 56t-38.5 43.5t-53.5 17q-42 0 -71.5 -30t-30.5 -72q-1 -38 21.5 -58t55.5 -20q46 0 87.5 34t70.5 85l27 -29q-17 -35 -47 -68t-68.5 -54t-86.5 -21z" />
    <glyph glyph-name="integral" unicode="&#x222b;" horiz-adv-x="253" 
d="M-111 -179l16 58h22q29 0 44 15.5t26 55.5l241 836q13 44 34 71.5t51 40.5t70 13h23l-16 -59h-20q-25 0 -43 -14t-29 -52l-241 -836q-12 -44 -32 -73t-50 -42.5t-72 -13.5h-24z" />
    <glyph glyph-name="approxequal" unicode="&#x2248;" horiz-adv-x="500" 
d="M307 120q-27 0 -46.5 10t-35.5 23t-32.5 23.5t-38.5 10.5q-26 0 -47 -18.5t-32 -47.5h-53q15 43 37 72t50 43t62 14q26 0 46 -10t36 -23t32.5 -23t38.5 -10q26 0 47 18t31 47h54q-15 -43 -37 -71.5t-50.5 -43t-61.5 -14.5zM342 320q-27 0 -46.5 10t-35.5 23t-32.5 23.5
t-38.5 10.5q-26 0 -47 -18.5t-32 -47.5h-53q15 43 37 72t50 43t62 14q26 0 46 -10t36 -23t32.5 -23t38.5 -10q26 0 47 18t31 47h54q-15 -43 -37 -71.5t-50.5 -43t-61.5 -14.5z" />
    <glyph glyph-name="notequal" unicode="&#x2260;" horiz-adv-x="500" 
d="M94 94l280 396h68l-281 -396h-67zM76 363l10 60h390l-10 -60h-390zM40 160l10 59h390l-10 -59h-390z" />
    <glyph glyph-name="lessequal" unicode="&#x2264;" horiz-adv-x="500" 
d="M317 215l-219 193v0l287 194h93l-285 -194l217 -193h-93zM63 103l9 54h342l-10 -54h-341z" />
    <glyph glyph-name="greaterequal" unicode="&#x2265;" horiz-adv-x="500" 
d="M79 215l283 194l-215 193h92l219 -194v0l-287 -193h-92zM44 103l9 54h342l-10 -54h-341z" />
    <glyph glyph-name="lozenge" unicode="&#x25ca;" horiz-adv-x="551" 
d="M251 113l-193 236l278 236l193 -236zM263 186l192 164l-132 162l-192 -164z" />
    <glyph glyph-name="Q.ss06" horiz-adv-x="786" 
d="M580 -137l-153 170l69 26l178 -196h-94zM346 -12q-88 0 -152.5 39t-99.5 108.5t-32 159.5q2 88 35 163.5t90 132.5t130.5 89t156.5 32q88 0 153 -39t99.5 -107.5t32.5 -158.5q-3 -88 -36 -164t-89.5 -133.5t-130.5 -89.5t-157 -32zM357 49q67 0 125.5 27t103.5 75
t71.5 113t28.5 140q2 77 -26 132t-79 84.5t-118 29.5t-125.5 -27t-103.5 -75t-71 -112t-28 -139q-3 -76 25 -131.5t79.5 -86t117.5 -30.5z" />
    <glyph glyph-name="i.loclTRK" horiz-adv-x="212" 
d="M27 0l88 501h70l-88 -501h-70zM169 568q-19 0 -32.5 13.5t-13.5 32.5t13.5 32.5t32.5 13.5t32.5 -13.5t13.5 -32.5t-13.5 -32.5t-32.5 -13.5z" />
    <glyph glyph-name="a.ss02" horiz-adv-x="614" 
d="M249 -12q-66 0 -112 31t-69 82.5t-21 114.5q1 65 23 119t60.5 94t89.5 62t110 22q66 0 109 -27.5t63 -75.5l20 91h66l-89 -501h-65l11 89v0q-20 -26 -47.5 -49t-64.5 -37.5t-84 -14.5zM264 49q60 0 106 32t73.5 86.5t29.5 121.5q2 50 -15 86t-49.5 56.5t-80.5 20.5
q-58 0 -105 -30t-75 -82t-29 -120q-2 -49 15.5 -88t51 -61t78.5 -22z" />
    <glyph glyph-name="aacute.ss02" horiz-adv-x="614" 
d="M249 -12q-66 0 -112 31t-69 82.5t-21 114.5q1 65 23 119t60.5 94t89.5 62t110 22q66 0 109 -27.5t63 -75.5l20 91h66l-89 -501h-65l11 89v0q-20 -26 -47.5 -49t-64.5 -37.5t-84 -14.5zM264 49q60 0 106 32t73.5 86.5t29.5 121.5q2 50 -15 86t-49.5 56.5t-80.5 20.5
q-58 0 -105 -30t-75 -82t-29 -120q-2 -49 15.5 -88t51 -61t78.5 -22zM261 543l2 52l216 127v0l-2 -62z" />
    <glyph glyph-name="abreve.ss02" horiz-adv-x="614" 
d="M249 -12q-66 0 -112 31t-69 82.5t-21 114.5q1 65 23 119t60.5 94t89.5 62t110 22q66 0 109 -27.5t63 -75.5l20 91h66l-89 -501h-65l11 89v0q-20 -26 -47.5 -49t-64.5 -37.5t-84 -14.5zM264 49q60 0 106 32t73.5 86.5t29.5 121.5q2 50 -15 86t-49.5 56.5t-80.5 20.5
q-58 0 -105 -30t-75 -82t-29 -120q-2 -49 15.5 -88t51 -61t78.5 -22zM358 565q-44 0 -71 17t-37 45t-5 61l2 13h44q-7 -38 11 -59t66 -21q47 0 72.5 21t32.5 59h45l-3 -13q-6 -33 -26 -61t-52.5 -45t-78.5 -17z" />
    <glyph glyph-name="acircumflex.ss02" horiz-adv-x="614" 
d="M249 -12q-66 0 -112 31t-69 82.5t-21 114.5q1 65 23 119t60.5 94t89.5 62t110 22q66 0 109 -27.5t63 -75.5l20 91h66l-89 -501h-65l11 89v0q-20 -26 -47.5 -49t-64.5 -37.5t-84 -14.5zM264 49q60 0 106 32t73.5 86.5t29.5 121.5q2 50 -15 86t-49.5 56.5t-80.5 20.5
q-58 0 -105 -30t-75 -82t-29 -120q-2 -49 15.5 -88t51 -61t78.5 -22zM224 559l10 57l149 82l119 -82l-10 -57l-119 84z" />
    <glyph glyph-name="adieresis.ss02" horiz-adv-x="614" 
d="M249 -12q-66 0 -112 31t-69 82.5t-21 114.5q1 65 23 119t60.5 94t89.5 62t110 22q66 0 109 -27.5t63 -75.5l20 91h66l-89 -501h-65l11 89v0q-20 -26 -47.5 -49t-64.5 -37.5t-84 -14.5zM264 49q60 0 106 32t73.5 86.5t29.5 121.5q2 50 -15 86t-49.5 56.5t-80.5 20.5
q-58 0 -105 -30t-75 -82t-29 -120q-2 -49 15.5 -88t51 -61t78.5 -22zM292 576q-19 0 -32.5 13.5t-13.5 32.5t13.5 32.5t33.5 13.5q18 0 31.5 -14t13.5 -32q0 -19 -13.5 -32.5t-32.5 -13.5zM447 576q-20 0 -33.5 13.5t-13.5 32.5t13.5 32.5t33.5 13.5q18 0 31 -14t13 -32
q0 -19 -13 -32.5t-31 -13.5z" />
    <glyph glyph-name="agrave.ss02" horiz-adv-x="614" 
d="M249 -12q-66 0 -112 31t-69 82.5t-21 114.5q1 65 23 119t60.5 94t89.5 62t110 22q66 0 109 -27.5t63 -75.5l20 91h66l-89 -501h-65l11 89v0q-20 -26 -47.5 -49t-64.5 -37.5t-84 -14.5zM264 49q60 0 106 32t73.5 86.5t29.5 121.5q2 50 -15 86t-49.5 56.5t-80.5 20.5
q-58 0 -105 -30t-75 -82t-29 -120q-2 -49 15.5 -88t51 -61t78.5 -22zM453 543l-180 117l17 58v0l176 -123z" />
    <glyph glyph-name="amacron.ss02" horiz-adv-x="614" 
d="M249 -12q-66 0 -112 31t-69 82.5t-21 114.5q1 65 23 119t60.5 94t89.5 62t110 22q66 0 109 -27.5t63 -75.5l20 91h66l-89 -501h-65l11 89v0q-20 -26 -47.5 -49t-64.5 -37.5t-84 -14.5zM264 49q60 0 106 32t73.5 86.5t29.5 121.5q2 50 -15 86t-49.5 56.5t-80.5 20.5
q-58 0 -105 -30t-75 -82t-29 -120q-2 -49 15.5 -88t51 -61t78.5 -22zM195 599l10 54h339l-9 -54h-340z" />
    <glyph glyph-name="aogonek.ss02" horiz-adv-x="614" 
d="M249 -12q-66 0 -112 31t-69 82.5t-21 114.5q1 65 23 119t60.5 94t89.5 62t110 22q66 0 109 -27.5t63 -75.5l20 91h66l-89 -501h-65l11 89v0q-20 -26 -47.5 -49t-64.5 -37.5t-84 -14.5zM264 49q60 0 106 32t73.5 86.5t29.5 121.5q2 50 -15 86t-49.5 56.5t-80.5 20.5
q-58 0 -105 -30t-75 -82t-29 -120q-2 -49 15.5 -88t51 -61t78.5 -22zM395 -201q-28 0 -53 9t-37 29.5t-6 53.5q3 23 17.5 44.5t41.5 41.5t70 37l59 24l13 -38l-65 -29q-38 -17 -55 -35t-21 -38q-4 -25 10.5 -38t41.5 -13q15 0 32.5 3.5t34.5 10.5l-9 -49q-16 -6 -35.5 -9.5
t-38.5 -3.5z" />
    <glyph glyph-name="aring.ss02" horiz-adv-x="614" 
d="M249 -12q-66 0 -112 31t-69 82.5t-21 114.5q1 65 23 119t60.5 94t89.5 62t110 22q66 0 109 -27.5t63 -75.5l20 91h66l-89 -501h-65l11 89v0q-20 -26 -47.5 -49t-64.5 -37.5t-84 -14.5zM264 49q60 0 106 32t73.5 86.5t29.5 121.5q2 50 -15 86t-49.5 56.5t-80.5 20.5
q-58 0 -105 -30t-75 -82t-29 -120q-2 -49 15.5 -88t51 -61t78.5 -22zM376 565q-41 0 -71.5 26.5t-30.5 73.5t30.5 73.5t71.5 26.5q43 0 72.5 -26.5t29.5 -73.5q0 -46 -29.5 -73t-72.5 -27zM377 604q24 0 41 16.5t17 44.5q0 29 -17 45t-42 16q-24 0 -41 -16t-17 -45
q0 -28 17 -44.5t42 -16.5z" />
    <glyph glyph-name="atilde.ss02" horiz-adv-x="614" 
d="M249 -12q-66 0 -112 31t-69 82.5t-21 114.5q1 65 23 119t60.5 94t89.5 62t110 22q66 0 109 -27.5t63 -75.5l20 91h66l-89 -501h-65l11 89v0q-20 -26 -47.5 -49t-64.5 -37.5t-84 -14.5zM264 49q60 0 106 32t73.5 86.5t29.5 121.5q2 50 -15 86t-49.5 56.5t-80.5 20.5
q-58 0 -105 -30t-75 -82t-29 -120q-2 -49 15.5 -88t51 -61t78.5 -22zM215 562q14 46 42 69.5t62 23.5q26 0 41 -11.5t28.5 -23.5t35.5 -12q16 0 30 11.5t21 33.5h42q-12 -44 -41 -68.5t-64 -24.5q-26 0 -41.5 12t-28.5 23.5t-34 11.5q-17 0 -30 -11t-21 -34h-42z" />
    <glyph glyph-name="ae.ss02" horiz-adv-x="986" 
d="M249 -12q-66 0 -112 31t-69 82.5t-21 114.5q1 65 23 119t60.5 94t89.5 62t110 22q64 0 105.5 -25.5t62.5 -70.5l21 84h61l-11 -61q38 35 85.5 54t103.5 19q67 0 110 -27t64 -71t19 -98q0 -18 -4 -41t-8 -41h-400q-6 -56 8 -98t47 -65.5t83 -23.5q56 0 98 26t66 71h68
q-20 -45 -55 -80.5t-82.5 -56t-105.5 -20.5q-55 0 -96.5 21t-66.5 59l-12 -68h-60l11 86v0q-20 -25 -47 -47.5t-63.5 -36.5t-82.5 -14zM264 49q60 0 106 32t73.5 86.5t29.5 121.5q2 50 -15 86t-49.5 56.5t-80.5 20.5q-58 0 -105 -30t-75 -82t-29 -120q-2 -49 15.5 -88
t51 -61t78.5 -22zM550 294h332q6 52 -9 87t-47 53.5t-79 18.5q-42 0 -82.5 -18t-70.5 -53t-44 -88z" />
    <glyph glyph-name="aeacute.ss02" horiz-adv-x="986" 
d="M249 -12q-66 0 -112 31t-69 82.5t-21 114.5q1 65 23 119t60.5 94t89.5 62t110 22q64 0 105.5 -25.5t62.5 -70.5l21 84h61l-11 -61q38 35 85.5 54t103.5 19q67 0 110 -27t64 -71t19 -98q0 -18 -4 -41t-8 -41h-400q-6 -56 8 -98t47 -65.5t83 -23.5q56 0 98 26t66 71h68
q-20 -45 -55 -80.5t-82.5 -56t-105.5 -20.5q-55 0 -96.5 21t-66.5 59l-12 -68h-60l11 86v0q-20 -25 -47 -47.5t-63.5 -36.5t-82.5 -14zM264 49q60 0 106 32t73.5 86.5t29.5 121.5q2 50 -15 86t-49.5 56.5t-80.5 20.5q-58 0 -105 -30t-75 -82t-29 -120q-2 -49 15.5 -88
t51 -61t78.5 -22zM550 294h332q6 52 -9 87t-47 53.5t-79 18.5q-42 0 -82.5 -18t-70.5 -53t-44 -88zM451 543l2 52l216 127v0l-2 -62z" />
    <glyph glyph-name="g.ss03" horiz-adv-x="638" 
d="M233 -232q-50 0 -90 13t-68.5 37.5t-44.5 58t-16 76.5h69q4 -37 24 -65t54.5 -43.5t80.5 -15.5q52 0 96.5 22.5t76.5 67t43 110.5l13 77q-21 -30 -53 -56.5t-73.5 -43.5t-92.5 -17q-64 0 -111.5 29.5t-72 80.5t-22.5 114q2 62 25 116t62.5 95.5t92.5 65t114 23.5
q69 0 117.5 -32t66.5 -77v0l31 97h56l-84 -480q-10 -58 -35.5 -104t-64 -79.5t-87.5 -51.5t-107 -18zM272 50q61 0 111 32t81 86.5t33 119.5q1 51 -19 87.5t-56.5 56.5t-83.5 20q-64 0 -112.5 -31.5t-76.5 -84.5t-30 -118q-2 -51 16.5 -88.5t53.5 -58.5t83 -21z" />
    <glyph glyph-name="gbreve.ss03" horiz-adv-x="638" 
d="M233 -232q-50 0 -90 13t-68.5 37.5t-44.5 58t-16 76.5h69q4 -37 24 -65t54.5 -43.5t80.5 -15.5q52 0 96.5 22.5t76.5 67t43 110.5l13 77q-21 -30 -53 -56.5t-73.5 -43.5t-92.5 -17q-64 0 -111.5 29.5t-72 80.5t-22.5 114q2 62 25 116t62.5 95.5t92.5 65t114 23.5
q69 0 117.5 -32t66.5 -77v0l31 97h56l-84 -480q-10 -58 -35.5 -104t-64 -79.5t-87.5 -51.5t-107 -18zM272 50q61 0 111 32t81 86.5t33 119.5q1 51 -19 87.5t-56.5 56.5t-83.5 20q-64 0 -112.5 -31.5t-76.5 -84.5t-30 -118q-2 -51 16.5 -88.5t53.5 -58.5t83 -21zM330 565
q-44 0 -71 17t-37 45t-5 61l2 13h44q-7 -38 11 -59t66 -21q47 0 72.5 21t32.5 59h45l-3 -13q-6 -33 -26 -61t-52.5 -45t-78.5 -17z" />
    <glyph glyph-name="uni0123.ss03" horiz-adv-x="638" 
d="M233 -232q-50 0 -90 13t-68.5 37.5t-44.5 58t-16 76.5h69q4 -37 24 -65t54.5 -43.5t80.5 -15.5q52 0 96.5 22.5t76.5 67t43 110.5l13 77q-21 -30 -53 -56.5t-73.5 -43.5t-92.5 -17q-64 0 -111.5 29.5t-72 80.5t-22.5 114q2 62 25 116t62.5 95.5t92.5 65t114 23.5
q69 0 117.5 -32t66.5 -77v0l31 97h56l-84 -480q-10 -58 -35.5 -104t-64 -79.5t-87.5 -51.5t-107 -18zM272 50q61 0 111 32t81 86.5t33 119.5q1 51 -19 87.5t-56.5 56.5t-83.5 20q-64 0 -112.5 -31.5t-76.5 -84.5t-30 -118q-2 -51 16.5 -88.5t53.5 -58.5t83 -21zM404 735
l-6 -36q-22 0 -33 -9.5t-15 -28.5l-4 -22h40l-13 -76h-75q0 25 0.5 43t3.5 37q9 50 35.5 71t66.5 21z" />
    <glyph glyph-name="gdotaccent.ss03" horiz-adv-x="638" 
d="M233 -232q-50 0 -90 13t-68.5 37.5t-44.5 58t-16 76.5h69q4 -37 24 -65t54.5 -43.5t80.5 -15.5q52 0 96.5 22.5t76.5 67t43 110.5l13 77q-21 -30 -53 -56.5t-73.5 -43.5t-92.5 -17q-64 0 -111.5 29.5t-72 80.5t-22.5 114q2 62 25 116t62.5 95.5t92.5 65t114 23.5
q69 0 117.5 -32t66.5 -77v0l31 97h56l-84 -480q-10 -58 -35.5 -104t-64 -79.5t-87.5 -51.5t-107 -18zM272 50q61 0 111 32t81 86.5t33 119.5q1 51 -19 87.5t-56.5 56.5t-83.5 20q-64 0 -112.5 -31.5t-76.5 -84.5t-30 -118q-2 -51 16.5 -88.5t53.5 -58.5t83 -21zM339 568
q-19 0 -32.5 13.5t-13.5 32.5t13.5 32.5t32.5 13.5t32.5 -13.5t13.5 -32.5t-13.5 -32.5t-32.5 -13.5z" />
    <glyph glyph-name="u.ss04" horiz-adv-x="547" 
d="M228 -12q-99 0 -146.5 55t-27.5 169l50 289h70l-48 -276q-11 -61 -4 -100t34.5 -57.5t77.5 -18.5t86 18.5t59 57.5t34 100l48 276h70l-50 -289q-20 -114 -87.5 -169t-165.5 -55z" />
    <glyph glyph-name="uacute.ss04" horiz-adv-x="547" 
d="M228 -12q-99 0 -146.5 55t-27.5 169l50 289h70l-48 -276q-11 -61 -4 -100t34.5 -57.5t77.5 -18.5t86 18.5t59 57.5t34 100l48 276h70l-50 -289q-20 -114 -87.5 -169t-165.5 -55zM232 543l2 52l216 127v0l-2 -62z" />
    <glyph glyph-name="ubreve.ss04" horiz-adv-x="547" 
d="M228 -12q-99 0 -146.5 55t-27.5 169l50 289h70l-48 -276q-11 -61 -4 -100t34.5 -57.5t77.5 -18.5t86 18.5t59 57.5t34 100l48 276h70l-50 -289q-20 -114 -87.5 -169t-165.5 -55zM329 565q-44 0 -71 17t-37 45t-5 61l2 13h44q-7 -38 11 -59t66 -21q47 0 72.5 21t32.5 59
h45l-3 -13q-6 -33 -26 -61t-52.5 -45t-78.5 -17z" />
    <glyph glyph-name="ucircumflex.ss04" horiz-adv-x="547" 
d="M228 -12q-99 0 -146.5 55t-27.5 169l50 289h70l-48 -276q-11 -61 -4 -100t34.5 -57.5t77.5 -18.5t86 18.5t59 57.5t34 100l48 276h70l-50 -289q-20 -114 -87.5 -169t-165.5 -55zM195 559l10 57l149 82l119 -82l-10 -57l-119 84z" />
    <glyph glyph-name="udieresis.ss04" horiz-adv-x="547" 
d="M228 -12q-99 0 -146.5 55t-27.5 169l50 289h70l-48 -276q-11 -61 -4 -100t34.5 -57.5t77.5 -18.5t86 18.5t59 57.5t34 100l48 276h70l-50 -289q-20 -114 -87.5 -169t-165.5 -55zM263 576q-19 0 -32.5 13.5t-13.5 32.5t13.5 32.5t33.5 13.5q18 0 31.5 -14t13.5 -32
q0 -19 -13.5 -32.5t-32.5 -13.5zM418 576q-20 0 -33.5 13.5t-13.5 32.5t13.5 32.5t33.5 13.5q18 0 31 -14t13 -32q0 -19 -13 -32.5t-31 -13.5z" />
    <glyph glyph-name="ugrave.ss04" horiz-adv-x="547" 
d="M228 -12q-99 0 -146.5 55t-27.5 169l50 289h70l-48 -276q-11 -61 -4 -100t34.5 -57.5t77.5 -18.5t86 18.5t59 57.5t34 100l48 276h70l-50 -289q-20 -114 -87.5 -169t-165.5 -55zM424 543l-180 117l17 58v0l176 -123z" />
    <glyph glyph-name="uhungarumlaut.ss04" horiz-adv-x="547" 
d="M228 -12q-99 0 -146.5 55t-27.5 169l50 289h70l-48 -276q-11 -61 -4 -100t34.5 -57.5t77.5 -18.5t86 18.5t59 57.5t34 100l48 276h70l-50 -289q-20 -114 -87.5 -169t-165.5 -55zM328 555l99 139h63l-113 -139h-49zM189 555l90 139h63l-104 -139h-49z" />
    <glyph glyph-name="umacron.ss04" horiz-adv-x="547" 
d="M228 -12q-99 0 -146.5 55t-27.5 169l50 289h70l-48 -276q-11 -61 -4 -100t34.5 -57.5t77.5 -18.5t86 18.5t59 57.5t34 100l48 276h70l-50 -289q-20 -114 -87.5 -169t-165.5 -55zM166 599l10 54h339l-9 -54h-340z" />
    <glyph glyph-name="uogonek.ss04" horiz-adv-x="547" 
d="M228 -12q-99 0 -146.5 55t-27.5 169l50 289h70l-48 -276q-11 -61 -4 -100t34.5 -57.5t77.5 -18.5t86 18.5t59 57.5t34 100l48 276h70l-50 -289q-20 -114 -87.5 -169t-165.5 -55zM235 -191q-28 0 -53 9t-37 29.5t-6 53.5q3 23 17.5 44.5t41.5 41.5t70 37l59 24l13 -38
l-65 -29q-38 -17 -55 -35t-21 -38q-4 -25 10.5 -38t41.5 -13q15 0 32.5 3.5t34.5 10.5l-9 -49q-16 -6 -35.5 -9.5t-38.5 -3.5z" />
    <glyph glyph-name="uring.ss04" horiz-adv-x="547" 
d="M228 -12q-99 0 -146.5 55t-27.5 169l50 289h70l-48 -276q-11 -61 -4 -100t34.5 -57.5t77.5 -18.5t86 18.5t59 57.5t34 100l48 276h70l-50 -289q-20 -114 -87.5 -169t-165.5 -55zM347 565q-41 0 -71.5 26.5t-30.5 73.5t30.5 73.5t71.5 26.5q43 0 72.5 -26.5t29.5 -73.5
q0 -46 -29.5 -73t-72.5 -27zM348 604q24 0 41 16.5t17 44.5q0 29 -17 45t-42 16q-24 0 -41 -16t-17 -45q0 -28 17 -44.5t42 -16.5z" />
    <glyph glyph-name="utilde.ss04" horiz-adv-x="547" 
d="M228 -12q-99 0 -146.5 55t-27.5 169l50 289h70l-48 -276q-11 -61 -4 -100t34.5 -57.5t77.5 -18.5t86 18.5t59 57.5t34 100l48 276h70l-50 -289q-20 -114 -87.5 -169t-165.5 -55zM186 562q14 46 42 69.5t62 23.5q26 0 41 -11.5t28.5 -23.5t35.5 -12q16 0 30 11.5t21 33.5
h42q-12 -44 -41 -68.5t-64 -24.5q-26 0 -41.5 12t-28.5 23.5t-34 11.5q-17 0 -30 -11t-21 -34h-42z" />
    <glyph glyph-name="y.ss05" horiz-adv-x="562" 
d="M186 -232q-45 0 -79 12.5t-56.5 35.5t-32.5 55.5t-7 72.5h69q-1 -40 13 -65.5t41 -37.5t63 -12q51 0 87.5 22.5t60.5 66.5t36 108l11 58v0q-35 -46 -82.5 -71t-103.5 -25q-57 0 -96.5 23t-55 70.5t-2.5 121.5l52 298h70l-51 -290q-9 -54 -4.5 -90t28.5 -54t71 -18
q46 0 88 22t72.5 64.5t41.5 103.5l46 262h70l-84 -475q-14 -79 -49.5 -137t-90 -89.5t-126.5 -31.5z" />
    <glyph glyph-name="yacute.ss05" horiz-adv-x="562" 
d="M186 -232q-45 0 -79 12.5t-56.5 35.5t-32.5 55.5t-7 72.5h69q-1 -40 13 -65.5t41 -37.5t63 -12q51 0 87.5 22.5t60.5 66.5t36 108l11 58v0q-35 -46 -82.5 -71t-103.5 -25q-57 0 -96.5 23t-55 70.5t-2.5 121.5l52 298h70l-51 -290q-9 -54 -4.5 -90t28.5 -54t71 -18
q46 0 88 22t72.5 64.5t41.5 103.5l46 262h70l-84 -475q-14 -79 -49.5 -137t-90 -89.5t-126.5 -31.5zM239 543l2 52l216 127v0l-2 -62z" />
    <glyph glyph-name="ycircumflex.ss05" horiz-adv-x="562" 
d="M186 -232q-45 0 -79 12.5t-56.5 35.5t-32.5 55.5t-7 72.5h69q-1 -40 13 -65.5t41 -37.5t63 -12q51 0 87.5 22.5t60.5 66.5t36 108l11 58v0q-35 -46 -82.5 -71t-103.5 -25q-57 0 -96.5 23t-55 70.5t-2.5 121.5l52 298h70l-51 -290q-9 -54 -4.5 -90t28.5 -54t71 -18
q46 0 88 22t72.5 64.5t41.5 103.5l46 262h70l-84 -475q-14 -79 -49.5 -137t-90 -89.5t-126.5 -31.5zM202 559l10 57l149 82l119 -82l-10 -57l-119 84z" />
    <glyph glyph-name="ydieresis.ss05" horiz-adv-x="562" 
d="M186 -232q-45 0 -79 12.5t-56.5 35.5t-32.5 55.5t-7 72.5h69q-1 -40 13 -65.5t41 -37.5t63 -12q51 0 87.5 22.5t60.5 66.5t36 108l11 58v0q-35 -46 -82.5 -71t-103.5 -25q-57 0 -96.5 23t-55 70.5t-2.5 121.5l52 298h70l-51 -290q-9 -54 -4.5 -90t28.5 -54t71 -18
q46 0 88 22t72.5 64.5t41.5 103.5l46 262h70l-84 -475q-14 -79 -49.5 -137t-90 -89.5t-126.5 -31.5zM270 576q-19 0 -32.5 13.5t-13.5 32.5t13.5 32.5t33.5 13.5q18 0 31.5 -14t13.5 -32q0 -19 -13.5 -32.5t-32.5 -13.5zM425 576q-20 0 -33.5 13.5t-13.5 32.5t13.5 32.5
t33.5 13.5q18 0 31 -14t13 -32q0 -19 -13 -32.5t-31 -13.5z" />
    <glyph glyph-name="ygrave.ss05" horiz-adv-x="562" 
d="M186 -232q-45 0 -79 12.5t-56.5 35.5t-32.5 55.5t-7 72.5h69q-1 -40 13 -65.5t41 -37.5t63 -12q51 0 87.5 22.5t60.5 66.5t36 108l11 58v0q-35 -46 -82.5 -71t-103.5 -25q-57 0 -96.5 23t-55 70.5t-2.5 121.5l52 298h70l-51 -290q-9 -54 -4.5 -90t28.5 -54t71 -18
q46 0 88 22t72.5 64.5t41.5 103.5l46 262h70l-84 -475q-14 -79 -49.5 -137t-90 -89.5t-126.5 -31.5zM431 543l-180 117l17 58v0l176 -123z" />
    <glyph glyph-name="uni1EF9.ss05" horiz-adv-x="562" 
d="M186 -232q-45 0 -79 12.5t-56.5 35.5t-32.5 55.5t-7 72.5h69q-1 -40 13 -65.5t41 -37.5t63 -12q51 0 87.5 22.5t60.5 66.5t36 108l11 58v0q-35 -46 -82.5 -71t-103.5 -25q-57 0 -96.5 23t-55 70.5t-2.5 121.5l52 298h70l-51 -290q-9 -54 -4.5 -90t28.5 -54t71 -18
q46 0 88 22t72.5 64.5t41.5 103.5l46 262h70l-84 -475q-14 -79 -49.5 -137t-90 -89.5t-126.5 -31.5zM193 562q14 46 42 69.5t62 23.5q26 0 41 -11.5t28.5 -23.5t35.5 -12q16 0 30 11.5t21 33.5h42q-12 -44 -41 -68.5t-64 -24.5q-26 0 -41.5 12t-28.5 23.5t-34 11.5
q-17 0 -30 -11t-21 -34h-42z" />
    <glyph glyph-name="one.ss07" horiz-adv-x="333" 
d="M97 0l110 623l-115 -25l8 45l142 57h50l-124 -700h-71zM12 55h257l-10 -55h-257z" />
    <glyph glyph-name="three.ss07" horiz-adv-x="586" 
d="M246 -5q-51 0 -91 14.5t-66.5 41.5t-37.5 65.5t-6 87.5h66q-7 -74 33 -112t112 -38q59 0 103 25t69 68.5t26 100.5q3 63 -32.5 96t-105.5 33h-104l9 50l283 238l26 -26h-368l11 61h403l-10 -52l-282 -238l-38 21h80q96 0 147 -48t49 -132q-2 -76 -37.5 -134t-97 -90
t-141.5 -32z" />
    <glyph glyph-name="four.ss07" horiz-adv-x="616" 
d="M355 0l28 157h-353l9 53l394 490h79l-392 -482h274l37 196l70 16l-39 -212h102l-11 -61h-102l-28 -157h-68z" />
    <glyph glyph-name="six.ss07" horiz-adv-x="590" 
d="M254 -2q-68 0 -115.5 26.5t-72.5 72.5t-23 103q1 43 13.5 81t30.5 70t36.5 56.5t31.5 39.5l224 263h84l-243 -283l2 22q18 9 37 16t39.5 10t40.5 3q65 0 110.5 -27.5t69.5 -74.5t22 -106q-2 -79 -40.5 -140.5t-102.5 -96.5t-144 -35zM265 64q58 0 103.5 25t72.5 70.5
t28 105.5q2 44 -15 78.5t-49.5 54.5t-80.5 20q-58 0 -104.5 -27.5t-74 -75t-29.5 -107.5q-2 -66 38 -105t111 -39z" />
    <glyph glyph-name="nine.ss07" horiz-adv-x="590" 
d="M164 0l243 283l-2 -21q-17 -10 -36.5 -16.5t-39.5 -10t-41 -3.5q-64 0 -110 27.5t-70 75t-22 105.5q2 80 40.5 141t103 96t143.5 35q69 0 116 -27.5t72 -74t23 -104.5q-1 -42 -13.5 -79.5t-30.5 -69t-36.5 -55.5t-31.5 -39l-224 -263h-84zM302 292q59 0 105.5 27.5
t74.5 75t29 107.5q2 66 -38 105t-111 39q-58 0 -103.5 -25t-72.5 -70t-28 -106q-2 -64 36 -108.5t108 -44.5z" />
    <glyph glyph-name="one.dnom" horiz-adv-x="195" 
d="M51 0l52 295l-69 -19l6 36l91 40h39l-62 -352h-57z" />
    <glyph glyph-name="two.dnom" horiz-adv-x="322" 
d="M-10 0l7 40l128 95q33 25 58.5 51.5t31.5 62.5q6 32 -8.5 48t-39.5 16q-28 0 -48 -16.5t-28 -46.5h-58q11 44 47.5 75.5t95.5 31.5q36 0 60 -14t34.5 -38t4.5 -54q-7 -42 -36.5 -73.5t-80.5 -66.5l-93 -64h180l-8 -47h-247z" />
    <glyph glyph-name="three.dnom" horiz-adv-x="323" 
d="M112 -5q-55 0 -84.5 26.5t-25.5 77.5h56q-1 -22 6.5 -35.5t22 -19t33.5 -5.5q31 0 53.5 15.5t26.5 42.5q5 29 -12.5 44t-49.5 15h-48l7 39h48q31 0 53 15.5t27 43.5q5 26 -10.5 42t-46.5 16t-50.5 -13.5t-29.5 -36.5h-54q12 41 50.5 68t95.5 27q53 0 83.5 -28.5
t22.5 -72.5q-5 -31 -26 -51.5t-52 -28.5v-2q26 -8 41.5 -29t9.5 -54q-7 -38 -46 -67t-101 -29z" />
    <glyph glyph-name="four.dnom" horiz-adv-x="313" 
d="M150 0l12 68h-174l8 44l208 236h63l-40 -231h48l-9 -49h-48l-12 -68h-56zM57 117h117l30 169v0z" />
    <glyph glyph-name="one.numr" horiz-adv-x="195" 
d="M113 352l52 295l-69 -19l6 36l91 40h39l-62 -352h-57z" />
    <glyph glyph-name="two.numr" horiz-adv-x="322" 
d="M52 352l7 40l128 95q33 25 58.5 51.5t31.5 62.5q6 32 -8.5 48t-39.5 16q-28 0 -48 -16.5t-28 -46.5h-58q11 44 47.5 75.5t95.5 31.5q36 0 60 -14t34.5 -38t4.5 -54q-7 -42 -36.5 -73.5t-80.5 -66.5l-93 -64h180l-8 -47h-247z" />
    <glyph glyph-name="three.numr" horiz-adv-x="323" 
d="M174 347q-55 0 -84.5 26.5t-25.5 77.5h56q-1 -22 6.5 -35.5t22 -19t33.5 -5.5q31 0 53.5 15.5t26.5 42.5q5 29 -12.5 44t-49.5 15h-48l7 39h48q31 0 53 15.5t27 43.5q5 26 -10.5 42t-46.5 16t-50.5 -13.5t-29.5 -36.5h-54q12 41 50.5 68t95.5 27q53 0 83.5 -28.5
t22.5 -72.5q-5 -31 -26 -51.5t-52 -28.5v-2q26 -8 41.5 -29t9.5 -54q-7 -38 -46 -67t-101 -29z" />
    <glyph glyph-name="four.numr" horiz-adv-x="313" 
d="M212 352l12 68h-174l8 44l208 236h63l-40 -231h48l-9 -49h-48l-12 -68h-56zM119 469h117l30 169v0z" />
    <glyph glyph-name="comma.ss01" horiz-adv-x="162" 
d="M-30 -96l6 35q26 0 38.5 13.5t17.5 38.5l4 25h-46l14 76h81q1 -25 -1 -46.5t-5 -39.5q-9 -55 -37.5 -78.5t-71.5 -23.5z" />
    <glyph glyph-name="semicolon.ss01" horiz-adv-x="180" 
d="M121 409q-22 0 -36.5 15t-14.5 37t14 36.5t37 14.5q21 0 35.5 -14.5t14.5 -36.5t-14.5 -37t-35.5 -15zM-18 -96l6 35q26 0 38.5 13.5t17.5 38.5l4 25h-46l14 76h81q1 -25 -1 -46.5t-5 -39.5q-9 -55 -37.5 -78.5t-71.5 -23.5z" />
    <glyph glyph-name="quotesinglbase.ss01" horiz-adv-x="162" 
d="M-30 -96l6 35q26 0 39 13.5t17 38.5l4 25h-46l14 76h81q1 -25 -1 -46.5t-5 -39.5q-9 -55 -37 -78.5t-72 -23.5z" />
    <glyph glyph-name="quotedblbase.ss01" horiz-adv-x="283" 
d="M91 -96l6 35q26 0 39 13.5t17 38.5l4 25h-46l14 76h81q1 -25 -1 -46.5t-5 -39.5q-9 -55 -37 -78.5t-72 -23.5zM-30 -96l6 35q26 0 39 13.5t17 38.5l4 25h-46l14 76h81q1 -25 -1 -46.5t-5 -39.5q-9 -55 -37 -78.5t-72 -23.5z" />
    <glyph glyph-name="quotedblleft.ss01" horiz-adv-x="271" 
d="M206 738l-6 -35q-25 0 -38.5 -13t-17.5 -39l-4 -25h46l-14 -76h-81q-1 25 1 46.5t5 39.5q9 55 37.5 78.5t71.5 23.5zM326 738l-6 -35q-24 0 -38 -13t-18 -39l-4 -25h46l-13 -76h-82q-1 25 1 46.5t5 39.5q10 55 38 78.5t71 23.5z" />
    <glyph glyph-name="quotedblright.ss01" horiz-adv-x="271" 
d="M204 550l6 35q26 0 39 13.5t17 38.5l4 25h-46l14 76h81q1 -25 -1 -46.5t-5 -39.5q-9 -55 -37 -78.5t-72 -23.5zM83 550l6 35q26 0 39 13.5t17 38.5l4 25h-46l14 76h81q1 -25 -1 -46.5t-5 -39.5q-9 -55 -37 -78.5t-72 -23.5z" />
    <glyph glyph-name="quoteleft.ss01" horiz-adv-x="150" 
d="M206 738l-6 -35q-25 0 -38.5 -13t-17.5 -39l-4 -25h46l-14 -76h-81q-1 25 1 46.5t5 39.5q9 55 37.5 78.5t71.5 23.5z" />
    <glyph glyph-name="quoteright.ss01" horiz-adv-x="150" 
d="M83 550l6 35q26 0 39 13.5t17 38.5l4 25h-46l14 76h81q1 -25 -1 -46.5t-5 -39.5q-9 -55 -37 -78.5t-72 -23.5z" />
    <glyph glyph-name="quotedblleft.ss08" horiz-adv-x="776" 
d="M406 -12q75 0 140.5 28t115.5 78t78 115.5t28 140.5t-28 140.5t-78 115.5t-115.5 78t-140.5 28t-140.5 -28t-115.5 -78t-78 -115.5t-28 -140.5t28 -140.5t78 -115.5t115.5 -78t140.5 -28zM402 472l-8 -45q-33 0 -50.5 -17.5t-22.5 -50.5l-5 -32h60l-18 -99h-106
q-1 32 1.5 60t6.5 52q12 71 48.5 101.5t93.5 30.5zM558 472l-8 -45q-33 0 -50 -17.5t-22 -50.5l-6 -32h60l-17 -99h-106q-1 32 1.5 59.5t5.5 52.5q13 71 49.5 101.5t92.5 30.5z" />
    <glyph glyph-name="quotedblright.ss08" horiz-adv-x="776" 
d="M406 712q-75 0 -140.5 -28t-115.5 -78t-78 -115.5t-28 -140.5t28 -140.5t78 -115.5t115.5 -78t140.5 -28t140.5 28t115.5 78t78 115.5t28 140.5t-28 140.5t-78 115.5t-115.5 78t-140.5 28zM409 228l8 45q33 0 50.5 17.5t22.5 50.5l5 32h-60l18 99h106q1 -32 -1.5 -60
t-6.5 -52q-12 -71 -48.5 -101.5t-93.5 -30.5zM253 228l8 45q33 0 50.5 17.5t22.5 50.5l5 32h-60l18 99h105q1 -32 -1 -60t-6 -52q-12 -71 -49 -101.5t-93 -30.5z" />
    <glyph glyph-name="arrowup.ss08" horiz-adv-x="776" 
d="M406 -12q-75 0 -140.5 28t-115.5 78t-78 115.5t-28 140.5t28 140.5t78 115.5t115.5 78t140.5 28t140.5 -28t115.5 -78t78 -115.5t28 -140.5t-28 -140.5t-78 -115.5t-115.5 -78t-140.5 -28zM380 176h53v271l136 -133l34 35l-177 175h-38l-178 -174l35 -35l135 132v-271z
" />
    <glyph glyph-name="uni2197.ss08" horiz-adv-x="776" 
d="M406 -12q-75 0 -140.5 28t-115.5 78t-78 115.5t-28 140.5t28 140.5t78 115.5t115.5 78t140.5 28t140.5 -28t115.5 -77.5t78 -115.5t28 -141t-28 -140.5t-78 -115.5t-115.5 -78t-140.5 -28zM301 212l196 193v-191h50v248l-27 27h-250v-49h192l-197 -193z" />
    <glyph glyph-name="arrowright.ss08" horiz-adv-x="776" 
d="M406 -12q-75 0 -140.5 28t-115.5 78t-78 115.5t-28 140.5t28 140.5t78 115.5t115.5 78t140.5 28t140.5 -28t115.5 -78t78 -115.5t28 -140.5t-28 -140.5t-78 -115.5t-115.5 -78t-140.5 -28zM405 156l178 175v39l-177 174l-35 -34l137 -134h-278v-51h279l-139 -134z" />
    <glyph glyph-name="uni2198.ss08" horiz-adv-x="776" 
d="M406 712q75 0 140.5 -28t115.5 -78t78 -115.5t28 -140.5t-28 -141t-78 -115.5t-115.5 -77.5t-140.5 -28t-140.5 28t-115.5 78t-78 115.5t-28 140.5t28 140.5t78 115.5t115.5 78t140.5 28zM301 488l-36 -35l197 -193h-192v-49h250l27 27v248h-50v-191z" />
    <glyph glyph-name="arrowdown.ss08" horiz-adv-x="776" 
d="M406 712q75 0 140.5 -28t115.5 -78t78 -115.5t28 -140.5t-28 -140.5t-78 -115.5t-115.5 -78t-140.5 -28t-140.5 28t-115.5 78t-78 115.5t-28 140.5t28 140.5t78 115.5t115.5 78t140.5 28zM380 524v-271l-135 132l-35 -35l178 -174h38l177 175l-34 35l-136 -133v271h-53z
" />
    <glyph glyph-name="uni2199.ss08" horiz-adv-x="776" 
d="M406 712q75 0 140.5 -28t115.5 -78t78 -115.5t28 -140.5t-28 -140.5t-78 -115.5t-115.5 -78t-140.5 -28t-140.5 28t-115.5 77.5t-78 115.5t-28 141t28 140.5t78 115.5t115.5 78t140.5 28zM511 488l-196 -193v191h-50v-248l27 -27h250v49h-192l197 193z" />
    <glyph glyph-name="arrowleft.ss08" horiz-adv-x="776" 
d="M406 -12q-75 0 -140.5 28t-115.5 78t-78 115.5t-28 140.5t28 140.5t78 115.5t115.5 78t140.5 28t140.5 -28t115.5 -78t78 -115.5t28 -140.5t-28 -140.5t-78 -115.5t-115.5 -78t-140.5 -28zM407 156l35 35l-139 134h279v51h-278l137 134l-35 34l-177 -174v-39z" />
    <glyph glyph-name="uni2196.ss08" horiz-adv-x="776" 
d="M406 -12q-75 0 -140.5 28t-115.5 78t-78 115.5t-28 140.5t28 141t78 115.5t115.5 77.5t140.5 28t140.5 -28t115.5 -78t78 -115.5t28 -140.5t-28 -140.5t-78 -115.5t-115.5 -78t-140.5 -28zM511 212l36 35l-197 193h192v49h-250l-27 -27v-248h50v191z" />
    <glyph glyph-name="arrowboth.ss08" horiz-adv-x="776" 
d="M406 -12q-75 0 -140.5 28t-115.5 78t-78 115.5t-28 140.5t28 140.5t78 115.5t115.5 78t140.5 28t140.5 -28t115.5 -77.5t78 -115.5t28 -141t-28 -140.5t-78 -115.5t-115.5 -78t-140.5 -28zM333 168l40 31l-106 126h278l-106 -126l40 -31l135 163v38l-135 163l-40 -31
l106 -126h-278l106 126l-40 31l-135 -163v-38z" />
    <glyph glyph-name="arrowupdn.ss08" horiz-adv-x="776" 
d="M406 -12q-75 0 -140.5 28t-115.5 78t-78 115.5t-28 140.5t28 140.5t78 115.5t115.5 78t140.5 28t140.5 -28t115.5 -78t78 -115.5t28 -140.5t-28 -140.5t-77.5 -115.5t-115.5 -78t-141 -28zM387 145h38l166 133l-31 39l-128 -103v273l128 -104l31 40l-166 133h-38
l-165 -133l31 -40l128 104v-273l-128 103l-31 -39z" />
    <glyph glyph-name="uni030C.alt" 
d="M54 553l6 36q23 0 33.5 9.5t14.5 28.5l4 22h-40l13 76h75q0 -25 -0.5 -43t-3.5 -37q-9 -50 -35 -71t-67 -21z" />
    <glyph glyph-name="uni0308.case" 
d="M148 777q-19 0 -32.5 13.5t-13.5 32.5t13.5 32.5t33.5 13.5q18 0 31.5 -14t13.5 -32q0 -19 -13.5 -32.5t-32.5 -13.5zM303 777q-20 0 -33.5 13.5t-13.5 32.5t13.5 32.5t33.5 13.5q18 0 31 -14t13 -32q0 -19 -13 -32.5t-31 -13.5z" />
    <glyph glyph-name="uni0307.case" 
d="M147 777q-19 0 -32.5 13.5t-13.5 32.5t13.5 32.5t32.5 13.5t32.5 -13.5t13.5 -32.5t-13.5 -32.5t-32.5 -13.5z" />
    <glyph glyph-name="gravecomb.case" 
d="M289 753l-180 117l17 58v0l176 -123z" />
    <glyph glyph-name="acutecomb.case" 
d="M96 753l2 52l216 127v0l-2 -62z" />
    <glyph glyph-name="uni030B.case" 
d="M228 760l99 139h63l-113 -139h-49zM89 760l90 139h63l-104 -139h-49z" />
    <glyph glyph-name="uni0302.case" 
d="M91 761l10 57l149 82l119 -82l-10 -57l-119 84z" />
    <glyph glyph-name="uni030C.case" 
d="M383 900l-10 -57l-149 -82l-119 82l10 57l119 -84z" />
    <glyph glyph-name="uni0306.case" 
d="M226 769q-44 0 -71 17t-37 45t-5 61l2 13h44q-7 -38 11 -59t66 -21q47 0 72.5 21t32.5 59h45l-3 -13q-6 -33 -26 -61t-52.5 -45t-78.5 -17z" />
    <glyph glyph-name="uni030A.case" 
d="M212 770q-41 0 -71.5 26.5t-30.5 73.5t30.5 73.5t71.5 26.5q43 0 72.5 -26.5t29.5 -73.5q0 -46 -29.5 -73t-72.5 -27zM213 809q24 0 41 16.5t17 44.5q0 29 -17 45t-42 16q-24 0 -41 -16t-17 -45q0 -28 17 -44.5t42 -16.5z" />
    <glyph glyph-name="tildecomb.case" 
d="M92 770q14 46 42 69.5t62 23.5q26 0 41 -11.5t28.5 -23.5t35.5 -12q16 0 30 11.5t21 33.5h42q-12 -44 -41 -68.5t-64 -24.5q-26 0 -41.5 12t-28.5 23.5t-34 11.5q-17 0 -30 -11t-21 -34h-42z" />
    <glyph glyph-name="uni0304.case" 
d="M99 816l10 54h339l-9 -54h-340z" />
    <glyph glyph-name="uni0327.case" 
d="M-89 -258l8 47h86q40 0 60 14.5t21 40.5q0 23 -15 33.5t-48 10.5h-47l21 119h49l-13 -74q36 1 62 -8t39 -28t12 -49q0 -30 -17.5 -54t-47.5 -38t-67 -14h-103z" />
    <glyph glyph-name="uni0328.case" 
d="M33 -201q-28 0 -53 9t-37 29.5t-6 53.5q3 23 17.5 44.5t41.5 41.5t70 37l59 24l13 -38l-65 -29q-38 -17 -55 -35t-21 -38q-4 -25 10.5 -38t41.5 -13q15 0 32.5 3.5t34.5 10.5l-9 -49q-16 -6 -35.5 -9.5t-38.5 -3.5z" />
    </font>
</defs>
</svg>
