<?xml version="1.0" standalone="no"?>
<!DOCTYPE svg PUBLIC "-//W3C//DTD SVG 1.1//EN" "http://www.w3.org/Graphics/SVG/1.1/DTD/svg11.dtd" >
<svg xmlns="http://www.w3.org/2000/svg" xmlns:xlink="http://www.w3.org/1999/xlink" version="1.1">
<metadata>
Created by FontForge 20201107 at Wed Jun 14 12:00:55 2023
 By 
Copyright 2014 The DM Sans Project Authors (https://github.com/googlefonts/dm-fonts)
</metadata>
<defs>
<font id="DMSans24pt-Bold" horiz-adv-x="0" >
  <font-face 
    font-family="DM Sans 24pt"
    font-weight="700"
    font-stretch="normal"
    units-per-em="1000"
    panose-1="0 0 0 0 0 0 0 0 0 0"
    ascent="800"
    descent="-200"
    x-height="496"
    cap-height="700"
    bbox="-57 -280 1225 979"
    underline-thickness="50"
    underline-position="-125"
    unicode-range="U+000D-FB02"
  />
<missing-glyph horiz-adv-x="535" 
d="M67 0v700h401v-700h-401zM137 57h261v586h-261v-586z" />
    <glyph glyph-name="fi" unicode="fi" horiz-adv-x="612" 
d="M87 0v383h-68v113h68v53q0 63 21 100t60 54t92 17h56v-115h-35q-32 0 -45.5 -12.5t-13.5 -42.5v-54h322v-496h-135v383h-187v-383h-135zM477 563q-36 0 -59.5 22t-23.5 55t23.5 54.5t59.5 21.5q37 0 60.5 -21.5t23.5 -54.5t-23.5 -55t-60.5 -22z" />
    <glyph glyph-name="fl" unicode="fl" horiz-adv-x="628" 
d="M87 0v549q0 63 21 100t60 54t92 17h56v-115h-35q-32 0 -45.5 -12.5t-13.5 -43.5v-549h-135zM19 383v113h307v-113h-307zM428 0v720h135v-720h-135z" />
    <glyph glyph-name=".notdef" horiz-adv-x="535" 
d="M67 0v700h401v-700h-401zM137 57h261v586h-261v-586z" />
    <glyph glyph-name=".null" 
 />
    <glyph glyph-name="nonmarkingreturn" horiz-adv-x="333" 
 />
    <glyph glyph-name="CR" unicode="&#xd;" horiz-adv-x="600" 
 />
    <glyph glyph-name="space" unicode=" " horiz-adv-x="234" 
 />
    <glyph glyph-name="exclam" unicode="!" horiz-adv-x="302" 
d="M94 226l-15 474h145l-16 -474h-114zM152 -5q-38 0 -61 22.5t-23 55.5t23 55.5t61 22.5q36 0 59.5 -22.5t23.5 -55.5t-23.5 -55.5t-59.5 -22.5z" />
    <glyph glyph-name="quotedbl" unicode="&#x22;" horiz-adv-x="358" 
d="M216 544l-12 211h115l-11 -211h-92zM51 544l-12 211h115l-12 -211h-91z" />
    <glyph glyph-name="numbersign" unicode="#" horiz-adv-x="867" 
d="M452 0l155 726h127l-155 -726h-127zM139 0l155 726h127l-155 -726h-127zM31 171v122h741v-122h-741zM86 437v121h742v-121h-742z" />
    <glyph glyph-name="dollar" unicode="$" horiz-adv-x="600" 
d="M266 -87v879h66v-879h-66zM308 -12q-76 0 -135.5 26t-93.5 76t-36 121h143q1 -31 16 -56t42 -39.5t64 -14.5q31 0 54.5 10.5t37 29.5t13.5 45q0 31 -15.5 51.5t-41.5 34t-59.5 25t-70.5 23.5q-81 28 -124 72.5t-43 118.5q0 63 30 108t84 69t123 24q71 0 125 -24.5
t85 -70.5t33 -108h-145q-1 23 -13 43.5t-34 33t-53 12.5q-26 1 -47 -8t-33.5 -26.5t-12.5 -43.5q0 -25 12 -42t34 -29.5t52 -23t65 -21.5q53 -18 96.5 -42.5t69.5 -63.5t26 -103q0 -55 -28.5 -102t-83.5 -76t-136 -29z" />
    <glyph glyph-name="percent" unicode="%" horiz-adv-x="887" 
d="M180 0l393 700h131l-393 -700h-131zM674 -12q-48 0 -87.5 21.5t-63 62t-23.5 95.5q0 56 23.5 96t63 61.5t87.5 21.5q50 0 88.5 -21.5t61.5 -61.5t23 -96q0 -55 -23 -95.5t-62 -62t-88 -21.5zM673 81q20 0 35.5 10t24.5 29t9 47q0 29 -9 48.5t-24 29.5t-35 10
q-19 0 -34.5 -10t-24.5 -29.5t-9 -48.5q0 -28 9 -47t24 -29t34 -10zM214 353q-48 0 -87.5 22t-63 62t-23.5 95q0 57 23.5 96.5t63 61.5t88.5 22t87.5 -22t62 -61.5t23.5 -96.5q0 -55 -23.5 -95t-62.5 -62t-88 -22zM214 446q19 0 34.5 10t24.5 29t9 47q0 30 -9 49t-24.5 29
t-34.5 10t-34.5 -10t-24.5 -29.5t-9 -48.5q0 -28 9 -47t24.5 -29t34.5 -10z" />
    <glyph glyph-name="ampersand" unicode="&#x26;" horiz-adv-x="778" 
d="M604 0l-386 381q-47 46 -66 83t-19 79q0 48 24 86.5t69 60.5t109 22t108.5 -23.5t67 -62.5t20.5 -88h-128q1 36 -19.5 53.5t-49.5 17.5q-33 0 -52.5 -17.5t-19.5 -47.5q0 -24 15.5 -49.5t45.5 -58.5l441 -436h-160zM293 -11q-77 0 -134.5 26.5t-89.5 74.5t-32 113
q0 50 21 93.5t64 77.5t106 54l53 17l60 -84l-50 -16q-62 -20 -92 -54.5t-30 -79.5q0 -31 16 -56.5t45 -40.5t68 -15q56 0 100 24t84 76q19 25 37.5 55t36.5 67l21 43h138l-33 -67q-27 -53 -53.5 -97t-55.5 -78q-58 -70 -126 -101.5t-154 -31.5z" />
    <glyph glyph-name="quotesingle" unicode="'" horiz-adv-x="195" 
d="M52 544l-13 211h117l-13 -211h-91z" />
    <glyph glyph-name="parenleft" unicode="(" horiz-adv-x="403" 
d="M237 -145q-55 57 -99 130.5t-68.5 161.5t-24.5 186q0 99 24.5 186.5t68.5 161.5t99 130h135v-13q-60 -63 -103.5 -138t-67.5 -157.5t-24 -169.5t24 -169.5t68 -157t103 -138.5v-13h-135z" />
    <glyph glyph-name="parenright" unicode=")" horiz-adv-x="403" 
d="M166 -145h-135v13q60 64 103.5 138.5t67.5 157t24 169.5t-24 169.5t-67.5 157.5t-103.5 138v13h135q56 -56 99.5 -130t68 -161.5t24.5 -186.5q0 -98 -24.5 -186t-68 -161.5t-99.5 -130.5z" />
    <glyph glyph-name="asterisk" unicode="*" horiz-adv-x="511" 
d="M210 360l19 140l-110 -89l-50 89l129 50l-128 49l47 84l113 -87l-21 141h98l-22 -141l113 87l46 -83l-129 -51l129 -50l-48 -87l-111 88l21 -140h-96z" />
    <glyph glyph-name="plus" unicode="+" horiz-adv-x="579" 
d="M232 61v456h115v-456h-115zM45 233v113h488v-113h-488z" />
    <glyph glyph-name="comma" unicode="," horiz-adv-x="240" 
d="M19 -123l57 254h130l-99 -254h-88z" />
    <glyph glyph-name="hyphen" unicode="-" horiz-adv-x="576" 
d="M77 233v113h422v-113h-422z" />
    <glyph glyph-name="period" unicode="." horiz-adv-x="247" 
d="M124 -5q-38 0 -61 22.5t-23 55.5t23 55.5t61 22.5q37 0 60 -22.5t23 -55.5t-23 -55.5t-60 -22.5z" />
    <glyph glyph-name="slash" unicode="/" horiz-adv-x="426" 
d="M22 -114l250 893h131l-250 -893h-131z" />
    <glyph glyph-name="zero" unicode="0" horiz-adv-x="712" 
d="M357 -12q-98 0 -167.5 46t-107 127.5t-37.5 188.5t37.5 188.5t107 127.5t167.5 46q97 0 166.5 -46t107 -127.5t37.5 -188.5t-37.5 -188.5t-107 -127.5t-166.5 -46zM356 109q52 0 91 29.5t61 83.5t22 128q0 75 -22 128.5t-61 82.5t-91 29q-51 0 -90.5 -29t-61.5 -82.5
t-22 -128.5q0 -74 22 -128t61.5 -83.5t90.5 -29.5z" />
    <glyph glyph-name="one" unicode="1" horiz-adv-x="351" 
d="M145 0v545l-117 -27v105l174 77h82v-700h-139z" />
    <glyph glyph-name="two" unicode="2" horiz-adv-x="571" 
d="M49 0v99q63 51 123 102t108 101.5t75.5 98.5t27.5 93q0 28 -10 51.5t-31 38t-56 14.5q-34 0 -58 -16t-36 -42.5t-12 -59.5h-130q2 77 34 129t86 77.5t120 25.5q74 0 124.5 -27.5t77 -74.5t26.5 -108q0 -46 -16.5 -90t-45.5 -85.5t-66 -79.5t-76.5 -72.5t-76.5 -64.5h297
v-110h-485z" />
    <glyph glyph-name="three" unicode="3" horiz-adv-x="598" 
d="M297 -12q-68 0 -125 25t-91 76t-36 129h133q1 -33 15 -59.5t40.5 -42t64.5 -15.5q35 0 59.5 14t37.5 37t13 53q0 35 -17 59t-47.5 36.5t-70.5 12.5h-52v111h52q49 0 82 22.5t33 67.5q0 38 -24.5 61t-66.5 23q-48 0 -74.5 -28t-29.5 -69h-131q3 66 33 113.5t82 72.5
t120 25q72 0 122 -25.5t76 -68t26 -93.5q0 -40 -15.5 -71.5t-40.5 -52.5t-57 -31q40 -7 69.5 -30t46 -58.5t16.5 -81.5q0 -57 -28 -105.5t-82 -77.5t-133 -29z" />
    <glyph glyph-name="four" unicode="4" horiz-adv-x="647" 
d="M387 0v127h-343v107l326 466h152v-456h91v-117h-91v-127h-135zM188 244h208v307v0z" />
    <glyph glyph-name="five" unicode="5" horiz-adv-x="621" 
d="M320 -12q-78 0 -133.5 27.5t-87 75t-36.5 107.5h132q8 -40 42 -67.5t83 -27.5q36 0 63 18t42.5 49.5t15.5 69.5q0 41 -15.5 70.5t-42.5 45t-62 15.5q-42 0 -74 -21t-44 -53h-130l60 403h390v-118h-290l-30 -154q22 23 59 38t83 15q57 0 99 -19.5t70.5 -53.5t42.5 -77
t14 -89q0 -56 -18 -102.5t-51.5 -80.5t-80 -52.5t-101.5 -18.5z" />
    <glyph glyph-name="six" unicode="6" horiz-adv-x="634" 
d="M332 -12q-80 0 -134.5 29.5t-87 78.5t-47.5 109t-15 122q0 118 33 204t95.5 133.5t150.5 47.5q74 0 124.5 -28.5t79 -75t32.5 -100.5h-125q-8 45 -37 69t-75 24q-42 0 -74 -26t-50.5 -78t-21.5 -131v-2.5v-2.5q16 27 43 47.5t61 32.5t71 12q58 0 109 -28t82.5 -79
t31.5 -121q0 -63 -31 -117.5t-86.5 -87t-128.5 -32.5zM324 104q36 0 64 15t44 41.5t16 60.5q0 36 -16 62t-44.5 41t-64.5 15t-64 -15.5t-44.5 -42t-16.5 -59.5q0 -34 16.5 -60.5t45 -42t64.5 -15.5z" />
    <glyph glyph-name="seven" unicode="7" horiz-adv-x="534" 
d="M104 0l262 585h-339v115h478v-95l-261 -605h-140z" />
    <glyph glyph-name="eight" unicode="8" horiz-adv-x="632" 
d="M316 -12q-72 0 -130.5 26t-93 73t-34.5 109q0 43 14.5 78t41.5 62t63 41q-46 21 -74 60t-28 88t27.5 92t81 69t132.5 26q80 0 133.5 -26t80.5 -69t27 -92q0 -48 -28.5 -87.5t-73.5 -60.5q37 -15 63.5 -41.5t41.5 -61.5t15 -78q0 -62 -35 -109t-93 -73t-131 -26zM316 101
q63 0 94.5 30t31.5 76q0 51 -33.5 80.5t-92.5 29.5t-93 -29.5t-34 -80.5q0 -46 32.5 -76t94.5 -30zM316 416q51 0 79.5 26t28.5 67q0 44 -28 68.5t-80 24.5q-51 0 -79 -24.5t-28 -69.5q0 -40 28 -66t79 -26z" />
    <glyph glyph-name="nine" unicode="9" horiz-adv-x="634" 
d="M307 -12q-73 0 -124 28.5t-78.5 75.5t-33.5 100h126q8 -45 37 -69t74 -24q43 0 74.5 25.5t50 77.5t21.5 129v4v4q-16 -26 -43 -47t-60.5 -33t-71.5 -12q-57 0 -108.5 28t-83 79t-31.5 121q0 64 31 118t87 86.5t128 32.5q80 0 134.5 -29.5t87 -78.5t47.5 -109t15 -122
q0 -117 -33 -203.5t-95.5 -134t-150.5 -47.5zM311 361q36 0 64 15.5t45 42t17 59.5q0 34 -17 61t-45.5 42t-64.5 15t-64 -15t-44 -41t-16 -61t16 -61.5t44.5 -41.5t64.5 -15z" />
    <glyph glyph-name="colon" unicode=":" horiz-adv-x="249" 
d="M124 -5q-38 0 -61 22.5t-23 55.5t23 55.5t61 22.5q37 0 60 -22.5t23 -55.5t-23 -55.5t-60 -22.5zM124 354q-38 0 -61 22.5t-23 55.5t23 55.5t61 22.5q37 0 60 -22.5t23 -55.5t-23 -55.5t-60 -22.5z" />
    <glyph glyph-name="semicolon" unicode=";" horiz-adv-x="273" 
d="M148 354q-38 0 -61 22.5t-23 55.5t23 55.5t61 22.5q37 0 60 -22.5t23 -55.5t-23 -55.5t-60 -22.5zM28 -123l57 254h130l-99 -254h-88z" />
    <glyph glyph-name="less" unicode="&#x3c;" horiz-adv-x="579" 
d="M485 46h-170l-220 225v0l220 225h170l-221 -225z" />
    <glyph glyph-name="equal" unicode="=" horiz-adv-x="579" 
d="M75 343v118h429v-118h-429zM75 119v118h429v-118h-429z" />
    <glyph glyph-name="greater" unicode="&#x3e;" horiz-adv-x="579" 
d="M94 46l221 225l-221 225h171l220 -225v0l-220 -225h-171z" />
    <glyph glyph-name="question" unicode="?" horiz-adv-x="529" 
d="M135 221l-4 166h48q37 0 70 5t57.5 17t38.5 35t14 58q0 31 -12.5 53t-35 34t-52.5 12q-31 0 -54 -12.5t-35 -34t-12 -51.5h-128q-1 60 26 107t79 74.5t125 27.5q68 0 120 -24.5t81 -71.5t29 -114q0 -68 -29.5 -113.5t-82 -67.5t-121.5 -23l-3 -77h-119zM195 -5
q-37 0 -60.5 22.5t-23.5 55.5t23.5 55.5t60.5 22.5t60 -22.5t23 -55.5t-23 -55.5t-60 -22.5z" />
    <glyph glyph-name="at" unicode="@" horiz-adv-x="1052" 
d="M445 -214q-112 0 -195.5 42.5t-129.5 121t-46 184.5q0 112 39.5 207t110 166t166.5 110t210 39q116 0 201.5 -44t131 -122t45.5 -181q0 -61 -15 -117t-45.5 -100.5t-74.5 -70.5t-101 -26q-70 0 -102 40t-23 106l3 32l20 -54q-24 -58 -76.5 -92t-116.5 -34
q-75 0 -117.5 45.5t-42.5 122.5q0 55 17 105t48.5 89.5t74.5 62.5t96 23q58 0 91.5 -28.5t39.5 -81.5l-20 -15l20 117h110l-46 -266q-6 -37 2.5 -60.5t40.5 -23.5q29 0 50 20t35 53t21 72t7 77q0 81 -34 139t-98.5 89.5t-155.5 31.5q-88 0 -162.5 -32.5t-129.5 -90
t-85.5 -133.5t-30.5 -164q0 -84 34 -144t97.5 -91t150.5 -31q46 0 91 9t82 26l22 -88q-48 -20 -101 -30t-109 -10zM490 92q35 0 63.5 19.5t47 52.5t20.5 75q2 30 -7.5 53.5t-29.5 37t-50 13.5q-29 0 -53 -13t-40.5 -35.5t-26 -51t-9.5 -59.5q0 -41 21.5 -66.5t63.5 -25.5z
" />
    <glyph glyph-name="A" unicode="A" horiz-adv-x="707" 
d="M22 0l255 700h153l256 -700h-143l-190 546v0l-190 -546h-141zM135 159l35 105h357l35 -105h-427z" />
    <glyph glyph-name="B" unicode="B" horiz-adv-x="635" 
d="M67 0v700h287q73 0 123 -23t75.5 -63.5t25.5 -93.5t-23 -89t-60.5 -55.5t-81.5 -22.5l15 11q48 -2 85.5 -25.5t59 -62.5t21.5 -85q0 -56 -26.5 -99t-78 -67.5t-125.5 -24.5h-297zM202 110h140q55 0 85 25t30 72t-31 73.5t-86 26.5h-138v-197zM202 408h130q53 0 81 24
t28 68q0 43 -28 67.5t-82 24.5h-129v-184z" />
    <glyph glyph-name="C" unicode="C" horiz-adv-x="740" 
d="M385 -12q-106 0 -182 45.5t-117 127t-41 188.5t41 189t117 128t182 46q128 0 209 -63t101 -178h-148q-13 56 -54 87.5t-109 31.5q-63 0 -108.5 -29.5t-69.5 -83t-24 -128.5q0 -74 24 -128t69.5 -83t108.5 -29q68 0 109 29.5t54 82.5h148q-20 -109 -101 -171t-209 -62z
" />
    <glyph glyph-name="D" unicode="D" horiz-adv-x="714" 
d="M67 0v700h243q122 0 202 -43.5t118.5 -122t38.5 -184.5t-38.5 -184.5t-118 -122t-202.5 -43.5h-243zM202 116h101q86 0 136 28t71 80.5t21 125.5q0 74 -21 126.5t-71 80.5t-136 28h-101v-469z" />
    <glyph glyph-name="E" unicode="E" horiz-adv-x="580" 
d="M67 0v700h461v-109h-326v-183h296v-105h-296v-194h326v-109h-461z" />
    <glyph glyph-name="F" unicode="F" horiz-adv-x="553" 
d="M67 0v700h456v-109h-321v-187h258v-106h-258v-298h-135z" />
    <glyph glyph-name="G" unicode="G" horiz-adv-x="775" 
d="M374 -12q-99 0 -173 44.5t-115 125t-41 187.5q0 108 42 190.5t121 129.5t189 47q123 0 204.5 -59t105.5 -164h-151q-15 46 -55.5 72.5t-104.5 26.5q-68 0 -116 -30t-73 -84t-25 -129q0 -76 25 -129t71.5 -80.5t109.5 -27.5q92 0 139.5 49.5t56.5 128.5h-172v101h308v-387
h-125l-10 89v0q-22 -33 -51.5 -55.5t-68.5 -34t-91 -11.5z" />
    <glyph glyph-name="H" unicode="H" horiz-adv-x="710" 
d="M508 0v700h135v-700h-135zM67 0v700h135v-700h-135zM184 303v109h347v-109h-347z" />
    <glyph glyph-name="I" unicode="I" horiz-adv-x="269" 
d="M67 0v700h135v-700h-135z" />
    <glyph glyph-name="J" unicode="J" horiz-adv-x="537" 
d="M254 -12q-68 0 -119.5 26t-80 76.5t-28.5 122.5h135q0 -32 10 -55.5t29.5 -36t50.5 -12.5q29 0 48 11.5t27.5 33t8.5 51.5v495h135v-495q0 -105 -58.5 -161t-157.5 -56z" />
    <glyph glyph-name="K" unicode="K" horiz-adv-x="649" 
d="M67 0v700h135v-277l253 277h167l-258 -277l265 -423h-165l-196 318l-66 -70v-248h-135z" />
    <glyph glyph-name="L" unicode="L" horiz-adv-x="555" 
d="M67 0v700h135v-595h307v-105h-442z" />
    <glyph glyph-name="M" unicode="M" horiz-adv-x="889" 
d="M67 0v700h161l218 -436v0l215 436h161v-700h-135v471v0l-189 -371h-107l-189 372v0v-472h-135z" />
    <glyph glyph-name="N" unicode="N" horiz-adv-x="726" 
d="M67 0v700h135l322 -482v0v482h135v-700h-135l-322 481v0v-481h-135z" />
    <glyph glyph-name="O" unicode="O" horiz-adv-x="792" 
d="M396 -12q-104 0 -183 46t-123.5 127.5t-44.5 188.5t44.5 188.5t123.5 127.5t183 46t183.5 -46t124 -127.5t44.5 -188.5t-44.5 -188.5t-124 -127.5t-183.5 -46zM396 109q65 0 113 29.5t74.5 83.5t26.5 128q0 75 -26.5 128.5t-74.5 82.5t-113 29t-113 -29t-74.5 -82.5
t-26.5 -128.5q0 -74 26.5 -128t74.5 -83.5t113 -29.5z" />
    <glyph glyph-name="P" unicode="P" horiz-adv-x="611" 
d="M67 0v700h263q85 0 140.5 -28.5t83 -77.5t27.5 -111q0 -57 -26.5 -106t-82 -79.5t-142.5 -30.5h-128v-267h-135zM202 376h120q64 0 92.5 29t28.5 78q0 51 -28.5 79t-92.5 28h-120v-214z" />
    <glyph glyph-name="Q" unicode="Q" horiz-adv-x="792" 
d="M561 -110l-254 401h155l260 -401h-161zM396 -12q-104 0 -183 46t-123.5 127.5t-44.5 188.5t44.5 188.5t123.5 127.5t183 46t183.5 -46t124 -127.5t44.5 -188.5t-44.5 -188.5t-124 -127.5t-183.5 -46zM396 109q65 0 113 29.5t74.5 83.5t26.5 128q0 75 -26.5 128.5
t-74.5 82.5t-113 29t-113 -29t-74.5 -82.5t-26.5 -128.5q0 -74 26.5 -128t74.5 -83.5t113 -29.5z" />
    <glyph glyph-name="R" unicode="R" horiz-adv-x="628" 
d="M67 0v700h262q84 0 139.5 -29t82.5 -77.5t27 -107.5q0 -56 -26.5 -104.5t-82 -78t-142.5 -29.5h-125v-274h-135zM430 0l-144 308h146l152 -308h-154zM202 372h118q62 0 91 30t29 79t-29 77.5t-91 28.5h-118v-215z" />
    <glyph glyph-name="S" unicode="S" horiz-adv-x="600" 
d="M308 -12q-76 0 -135.5 26t-93.5 76t-36 121h143q1 -31 16 -56t42 -39.5t64 -14.5q31 0 54.5 10.5t37 29.5t13.5 45q0 31 -15.5 51.5t-41.5 34t-59.5 25t-70.5 23.5q-81 28 -124 72.5t-43 118.5q0 63 30 108t84 69t123 24q71 0 125 -24.5t85 -70.5t33 -108h-145
q-1 23 -13 43.5t-34 33t-53 12.5q-26 1 -47 -8t-33.5 -26.5t-12.5 -43.5q0 -25 12 -42t34 -29.5t52 -23t65 -21.5q53 -18 96.5 -42.5t69.5 -63.5t26 -103q0 -55 -28.5 -102t-83.5 -76t-136 -29z" />
    <glyph glyph-name="T" unicode="T" horiz-adv-x="596" 
d="M231 0v591h-205v109h544v-109h-205v-591h-134z" />
    <glyph glyph-name="U" unicode="U" horiz-adv-x="685" 
d="M340 -12q-77 0 -140 31t-100 93t-37 158v430h135v-431q0 -52 17 -87.5t50 -52.5t77 -17q46 0 78.5 17t50 52.5t17.5 87.5v431h135v-430q0 -96 -38.5 -158t-102.5 -93t-142 -31z" />
    <glyph glyph-name="V" unicode="V" horiz-adv-x="704" 
d="M269 0l-255 700h145l193 -562v0l195 562h143l-255 -700h-166z" />
    <glyph glyph-name="W" unicode="W" horiz-adv-x="1016" 
d="M209 0l-184 700h144l122 -547v0l144 547h149l140 -547v0l123 547h145l-189 -700h-161l-134 510v0l-139 -510h-160z" />
    <glyph glyph-name="X" unicode="X" horiz-adv-x="668" 
d="M33 0l220 355l-223 345h156l154 -239v0l140 239h153l-220 -351l225 -349h-156l-155 243v0l-141 -243h-153z" />
    <glyph glyph-name="Y" unicode="Y" horiz-adv-x="633" 
d="M249 0v246l-236 454h153l170 -355h-36l169 355h151l-236 -454v-246h-135z" />
    <glyph glyph-name="Z" unicode="Z" horiz-adv-x="571" 
d="M48 0v104l318 484h-316v112h472v-104l-321 -484h322v-112h-475z" />
    <glyph glyph-name="bracketleft" unicode="[" horiz-adv-x="369" 
d="M67 -173v984h248v-109h-122v-765h122v-110h-248z" />
    <glyph glyph-name="backslash" unicode="\" horiz-adv-x="426" 
d="M403 -114h-131l-250 893h131z" />
    <glyph glyph-name="bracketright" unicode="]" horiz-adv-x="369" 
d="M302 -173h-248v110h121v765h-121v109h248v-984z" />
    <glyph glyph-name="asciicircum" unicode="^" horiz-adv-x="672" 
d="M33 168l239 532h129l239 -532h-137l-166 373v0l-168 -373h-136z" />
    <glyph glyph-name="underscore" unicode="_" horiz-adv-x="734" 
d="M77 -168v129h580v-129h-580z" />
    <glyph glyph-name="grave" unicode="`" horiz-adv-x="228" 
d="M228 539l-228 108v108v0l228 -121v-95z" />
    <glyph glyph-name="a" unicode="a" horiz-adv-x="582" 
d="M236 -12q-63 0 -104.5 20t-61.5 54t-20 75q0 46 23.5 80.5t71.5 54.5t121 20h125q0 36 -10.5 59.5t-32 35t-54.5 11.5q-39 0 -66.5 -17t-34.5 -52h-131q6 55 37 95t82 62t113 22q71 0 123 -23.5t80.5 -69t28.5 -110.5v-305h-114l-15 77v0q-10 -20 -25.5 -36t-35.5 -28
t-45 -18.5t-55 -6.5zM268 92q27 0 47.5 9.5t35 25.5t23 37t11.5 45v0h-104q-31 0 -50.5 -7.5t-28.5 -21t-9 -31.5t9 -31t26 -19.5t40 -6.5z" />
    <glyph glyph-name="b" unicode="b" horiz-adv-x="656" 
d="M363 -12q-37 0 -67.5 9t-54.5 26.5t-41 41.5v0l-15 -65h-120v720h135v-293q23 32 62 56.5t101 24.5q70 0 124.5 -34t86.5 -93t32 -134q0 -74 -32 -133t-86.5 -92.5t-124.5 -33.5zM333 106q40 0 70.5 18t48 50t17.5 74q0 41 -17.5 73.5t-48 50.5t-70.5 18t-71 -18.5
t-48.5 -50t-17.5 -73.5q0 -41 17.5 -73.5t48.5 -50.5t71 -18z" />
    <glyph glyph-name="c" unicode="c" horiz-adv-x="605" 
d="M310 -12q-76 0 -135 33.5t-92.5 92t-33.5 134.5t33.5 134.5t92.5 92t135 33.5q96 0 162 -50t83 -138h-142q-9 34 -37 53.5t-67 19.5q-34 0 -62 -17.5t-44 -50t-16 -77.5q0 -34 9.5 -60.5t26 -45.5t38.5 -29t48 -10t47 8.5t36 25t21 39.5h142q-17 -86 -83 -137t-162 -51z
" />
    <glyph glyph-name="d" unicode="d" horiz-adv-x="656" 
d="M293 -12q-69 0 -124.5 34t-87.5 93.5t-32 133.5q0 75 32 133.5t87.5 92t124.5 33.5q55 0 96.5 -20.5t66.5 -56.5v289h135v-720h-120l-15 69v0q-15 -22 -37.5 -40.5t-53.5 -29.5t-72 -11zM323 106q40 0 71 18.5t48.5 50.5t17.5 73q0 42 -17.5 74t-48.5 50t-71 18
q-39 0 -70.5 -18t-48.5 -50t-17 -73q0 -42 17 -74t48.5 -50.5t70.5 -18.5z" />
    <glyph glyph-name="e" unicode="e" horiz-adv-x="602" 
d="M308 -12q-76 0 -134.5 32t-91.5 90t-33 133q0 78 32.5 137.5t91 93.5t136.5 34q74 0 130.5 -32t88 -87.5t31.5 -125.5v-22.5t-2 -25.5h-411v83h276q-3 45 -34.5 73t-78.5 28q-35 0 -64 -15.5t-46 -46.5t-17 -78v-29q0 -40 16 -70t44.5 -46t64.5 -16q37 0 62 16.5t38 42.5
h138q-15 -47 -48 -85.5t-81 -61t-108 -22.5z" />
    <glyph glyph-name="f" unicode="f" horiz-adv-x="363" 
d="M87 0v549q0 63 21 100t60 54t92 17h56v-115h-35q-32 0 -45.5 -12.5t-13.5 -43.5v-549h-135zM19 383v113h307v-113h-307z" />
    <glyph glyph-name="g" unicode="g" horiz-adv-x="596" 
d="M281 -232q-71 0 -124.5 17.5t-82.5 53t-29 87.5q0 35 18 65.5t52.5 56t85.5 43.5l50 -67q-45 -15 -65 -37.5t-20 -46.5t15.5 -39.5t41.5 -23t58 -7.5q31 0 54 8t36.5 23.5t13.5 35.5q0 27 -19 43.5t-74 20.5q-51 4 -90 12t-68.5 18t-50.5 23t-33 26v23l107 116l94 -31
l-124 -125l39 66q10 -7 21 -12.5t26.5 -9.5t40.5 -7.5t64 -7.5q66 -5 108 -24t62 -51t20 -77q0 -44 -24 -83.5t-74.5 -64t-128.5 -24.5zM282 147q-63 0 -108.5 24t-70 65t-24.5 91t24.5 91t70 65.5t108.5 24.5t108.5 -24.5t69.5 -65.5t24 -91t-24 -91t-69.5 -65t-108.5 -24z
M282 250q38 0 62 19.5t24 57.5q0 37 -24 56.5t-62 19.5t-62.5 -19.5t-24.5 -56.5q0 -38 24.5 -57.5t62.5 -19.5zM363 401l-22 95h208v-80z" />
    <glyph glyph-name="h" unicode="h" horiz-adv-x="614" 
d="M65 0v720h135v-298v0q24 39 66 62.5t98 23.5q62 0 105 -26.5t65.5 -77.5t22.5 -126v-278h-134v266q0 62 -24.5 95t-79.5 33q-34 0 -61 -16.5t-42.5 -47t-15.5 -74.5v-256h-135z" />
    <glyph glyph-name="i" unicode="i" horiz-adv-x="272" 
d="M69 0v496h135v-496h-135zM136 568q-36 0 -59.5 21.5t-23.5 54.5t23.5 54.5t59.5 21.5q37 0 60.5 -21.5t23.5 -54.5t-23.5 -54.5t-60.5 -21.5z" />
    <glyph glyph-name="j" unicode="j" horiz-adv-x="272" 
d="M-30 -220v115h41q32 0 45.5 13t13.5 42v546h135v-545q0 -62 -21.5 -99.5t-60.5 -54.5t-92 -17h-61zM138 568q-37 0 -60 21.5t-23 54.5t23 54.5t60 21.5t60 -21.5t23 -54.5t-23 -54.5t-60 -21.5z" />
    <glyph glyph-name="k" unicode="k" horiz-adv-x="578" 
d="M396 0l-216 273l191 223h160l-248 -279v107l281 -324h-168zM65 0v720h135v-720h-135z" />
    <glyph glyph-name="l" unicode="l" horiz-adv-x="265" 
d="M65 0v720h135v-720h-135z" />
    <glyph glyph-name="m" unicode="m" horiz-adv-x="943" 
d="M65 0v496h119l11 -67v0q24 37 63.5 58t91.5 21q38 0 68.5 -9.5t54 -29t39.5 -48.5v0q28 40 73.5 63.5t99.5 23.5q65 0 110 -26.5t68 -77.5t23 -126v-278h-134v266q0 62 -23.5 95t-73.5 33q-34 0 -59 -16.5t-39 -47t-14 -74.5v-256h-134v266q0 62 -24 95t-76 33
q-32 0 -56.5 -16.5t-38.5 -47t-14 -74.5v-256h-135z" />
    <glyph glyph-name="n" unicode="n" horiz-adv-x="614" 
d="M65 0v496h119l10 -83v0q23 43 66 69t103 26q62 0 105 -26.5t66 -77.5t23 -126v-278h-135v266q0 62 -25 95t-79 33q-34 0 -61 -16.5t-42 -47t-15 -74.5v-256h-135z" />
    <glyph glyph-name="o" unicode="o" horiz-adv-x="608" 
d="M303 -12q-71 0 -128.5 33t-91.5 92t-34 135q0 77 34 135.5t92 91.5t129 33q72 0 130 -33t91.5 -91.5t33.5 -135.5t-34 -135.5t-91.5 -91.5t-130.5 -33zM304 105q32 0 58.5 16t43 48t16.5 79q0 48 -16 79.5t-42.5 47.5t-58.5 16t-59 -16t-43 -47.5t-16 -79.5q0 -47 16 -79
t42.5 -48t58.5 -16z" />
    <glyph glyph-name="p" unicode="p" horiz-adv-x="656" 
d="M65 -220v716h120l15 -69v0q16 22 38 40.5t53 29.5t72 11q70 0 124.5 -34t86.5 -93t32 -134q0 -74 -32 -133t-86.5 -92.5t-124.5 -33.5q-55 0 -96 20.5t-67 56.5v-285h-135zM333 106q39 0 70 18t48.5 50t17.5 73q0 42 -17.5 74t-48.5 50.5t-70 18.5q-40 0 -71 -18.5
t-48.5 -50.5t-17.5 -73t17.5 -73.5t48.5 -50.5t71 -18z" />
    <glyph glyph-name="q" unicode="q" horiz-adv-x="656" 
d="M456 -220v289q-23 -32 -62.5 -56.5t-100.5 -24.5q-69 0 -124.5 34t-87.5 93.5t-32 133.5q0 75 32 133.5t87.5 92t124.5 33.5q37 0 67.5 -9t54.5 -26.5t41 -41.5v0l15 65h120v-716h-135zM323 106q40 0 71 18.5t48.5 50.5t17.5 73q0 42 -17.5 74t-48.5 50t-71 18
q-39 0 -70.5 -18t-48.5 -50t-17 -73q0 -42 17 -74t48.5 -50.5t70.5 -18.5z" />
    <glyph glyph-name="r" unicode="r" horiz-adv-x="401" 
d="M65 0v496h120l13 -93v0q18 32 44.5 55.5t61 36.5t75.5 13v-143h-37q-31 0 -57.5 -7t-45.5 -23t-29 -43.5t-10 -69.5v-222h-135z" />
    <glyph glyph-name="s" unicode="s" horiz-adv-x="529" 
d="M271 -12q-66 0 -116.5 22t-81 60.5t-35.5 87.5h135q4 -18 17 -33.5t33 -24.5t46 -9q28 0 44.5 7.5t25 20t8.5 25.5q0 20 -12.5 30.5t-35.5 17.5t-55 15q-33 8 -66.5 18t-61.5 25.5t-45 39.5t-17 61q0 44 24.5 79.5t70 56.5t108.5 21q90 0 143.5 -41t62.5 -113h-127
q-5 24 -25.5 37t-53.5 13q-35 0 -53.5 -13t-18.5 -32q0 -14 13 -24t36.5 -17.5t54.5 -14.5q54 -13 97 -27.5t69.5 -42.5t26.5 -82q1 -46 -25 -83t-73 -58.5t-113 -21.5z" />
    <glyph glyph-name="t" unicode="t" horiz-adv-x="426" 
d="M290 0q-53 0 -92.5 16.5t-61.5 55t-22 105.5v206h-85v113h85l15 135h120v-135h132v-113h-132v-208q0 -34 15 -47t51 -13h63v-115h-88z" />
    <glyph glyph-name="u" unicode="u" horiz-adv-x="614" 
d="M251 -12q-62 0 -105.5 26t-66 77.5t-22.5 126.5v278h134v-266q0 -62 25 -95t79 -33q35 0 62 16.5t42 47t15 74.5v256h135v-496h-119l-10 83v0q-24 -43 -67 -69t-102 -26z" />
    <glyph glyph-name="v" unicode="v" horiz-adv-x="559" 
d="M197 0l-181 496h142l122 -369v0l122 369h141l-182 -496h-164z" />
    <glyph glyph-name="w" unicode="w" horiz-adv-x="810" 
d="M161 0l-145 496h133l100 -418l-34 1l115 417h150l115 -417l-34 -1l100 418h133l-145 -496h-140l-122 430h37l-123 -430h-140z" />
    <glyph glyph-name="x" unicode="x" horiz-adv-x="571" 
d="M17 0l182 248l-182 248h146l123 -172v0l123 172h145l-182 -248l182 -248h-145l-123 172v0l-123 -172h-146z" />
    <glyph glyph-name="y" unicode="y" horiz-adv-x="603" 
d="M128 -220l124 276h-30l-203 440h147l145 -318v0l130 318h144l-314 -716h-143z" />
    <glyph glyph-name="z" unicode="z" horiz-adv-x="483" 
d="M32 0v108l250 276h-247v112h401v-108l-253 -276h258v-112h-409z" />
    <glyph glyph-name="braceleft" unicode="{" horiz-adv-x="468" 
d="M341 -177q-78 0 -126.5 43t-48.5 126q0 33 5.5 61t11 56.5t5.5 62.5q0 23 -10 42.5t-31 32t-58 17.5v108q37 5 58 17t31 31.5t10 42.5q0 34 -5.5 62.5t-11 56.5t-5.5 61q0 83 48.5 125.5t126.5 42.5h64v-112h-38q-36 0 -53.5 -16t-17.5 -52q0 -25 5 -51t9.5 -55.5
t4.5 -66.5q0 -53 -25.5 -90t-83.5 -49v-2q58 -12 83.5 -49.5t25.5 -90.5q0 -37 -4.5 -66.5t-9.5 -55t-5 -51.5q0 -35 17.5 -52t53.5 -17h38v-112h-64z" />
    <glyph glyph-name="bar" unicode="|" horiz-adv-x="269" 
d="M67 -100v820h135v-820h-135z" />
    <glyph glyph-name="braceright" unicode="}" horiz-adv-x="468" 
d="M127 -177h-64v112h39q35 0 52.5 17t17.5 52q0 26 -4.5 51.5t-9.5 55t-5 66.5q0 53 26.5 90.5t82.5 49.5v2q-56 12 -82.5 49t-26.5 90q0 37 5 66.5t9.5 55.5t4.5 51q0 36 -17.5 52t-52.5 16h-39v112h64q79 0 127 -42.5t48 -125.5q0 -33 -5 -61t-10.5 -56.5t-5.5 -62.5
q0 -23 9.5 -42.5t31 -31.5t57.5 -17v-108q-36 -5 -57.5 -17.5t-31 -32t-9.5 -42.5q0 -34 5.5 -62.5t10.5 -56.5t5 -61q0 -83 -48 -126t-127 -43z" />
    <glyph glyph-name="asciitilde" unicode="~" horiz-adv-x="579" 
d="M377 225q-31 0 -55.5 10t-45.5 23t-41 23t-42 10q-25 0 -42 -17t-22 -49h-100q11 65 35 106.5t59 60.5t78 19q32 0 56.5 -10t45 -23t40.5 -23t42 -10q26 0 43 17t21 49h100q-9 -65 -33.5 -106t-59.5 -60.5t-79 -19.5z" />
    <glyph glyph-name="uni00A0" unicode="&#xa0;" horiz-adv-x="234" 
 />
    <glyph glyph-name="exclamdown" unicode="&#xa1;" horiz-adv-x="302" 
d="M94 277h114l16 -474h-145zM152 508q36 0 59.5 -22.5t23.5 -55.5t-23.5 -55.5t-59.5 -22.5q-38 0 -61 22.5t-23 55.5t23 55.5t61 22.5z" />
    <glyph glyph-name="cent" unicode="&#xa2;" horiz-adv-x="605" 
d="M246 -104v172h123v-172h-123zM246 428v172h123v-172h-123zM310 -12q-76 0 -135 33.5t-92.5 92t-33.5 134.5t33.5 134.5t92.5 92t135 33.5q96 0 162 -50t83 -138h-142q-9 34 -37 53.5t-67 19.5q-34 0 -62 -17.5t-44 -50t-16 -77.5q0 -34 9.5 -60.5t26 -45.5t38.5 -29
t48 -10t47 8.5t36 25t21 39.5h142q-17 -86 -83 -137t-162 -51z" />
    <glyph glyph-name="sterling" unicode="&#xa3;" horiz-adv-x="625" 
d="M75 0v79q26 25 44 52t27 59.5t9 75.5q0 27 -7.5 54t-18.5 55t-18.5 58.5t-7.5 64.5q0 67 29 114.5t81 73.5t119 26q77 0 127.5 -29.5t77 -78.5t28.5 -110h-124q-2 46 -28.5 76.5t-77.5 30.5q-28 0 -52 -12t-38 -35.5t-14 -59.5q0 -25 7.5 -52.5t18 -56t18.5 -58.5t8 -60
q0 -41 -15.5 -82.5t-53.5 -76.5h355v-108h-494zM40 297v91h402v-91h-402z" />
    <glyph glyph-name="currency" unicode="&#xa4;" horiz-adv-x="558" 
d="M279 118q-56 0 -99.5 22t-68.5 62.5t-25 95.5t25.5 95t69.5 61.5t99 21.5q57 0 100.5 -21.5t68.5 -61.5t25 -95t-25.5 -95.5t-69 -62.5t-100.5 -22zM116 79l-54 55l92 92l65 -44zM442 79l-91 91l57 52l88 -88zM280 204q20 0 39 9.5t31.5 30t12.5 53.5q0 34 -12.5 54.5
t-31 30t-40.5 9.5q-21 0 -39.5 -9.5t-30.5 -30t-12 -54.5q0 -33 11.5 -53.5t30.5 -30t41 -9.5zM152 374l-90 89l54 55l97 -96zM398 365l-52 57l96 96l54 -55z" />
    <glyph glyph-name="yen" unicode="&#xa5;" horiz-adv-x="648" 
d="M57 148v92h535v-92h-535zM283 314h-226v92h221zM395 314l4 92h193v-92h-197zM257 0v246l-237 454h153l170 -355h-36l169 355h151l-235 -454v-246h-135z" />
    <glyph glyph-name="brokenbar" unicode="&#xa6;" horiz-adv-x="269" 
d="M67 395v325h135v-325h-135zM67 -100v325h135v-325h-135z" />
    <glyph glyph-name="section" unicode="&#xa7;" horiz-adv-x="613" 
d="M303 -232q-71 0 -125 24.5t-84.5 70.5t-33.5 108h145q1 -23 13 -43.5t34 -33t52 -12.5q40 -1 67 19t27 59q0 25 -12 41t-34.5 27t-52 20.5t-64.5 21.5q-52 17 -96 43t-70 65.5t-26 99.5q0 39 14 74.5t41 63.5q-13 19 -20 42.5t-7 52.5q0 63 31 108t84.5 69t122.5 24
q71 0 125 -24.5t85 -70.5t33 -108h-145q-1 23 -13 43.5t-34 33t-53 12.5q-40 1 -66.5 -19t-26.5 -59q0 -25 12 -41t34.5 -27t52 -20.5t64.5 -21.5q53 -18 96.5 -43.5t69.5 -64.5t26 -100q0 -39 -14 -74.5t-42 -63.5q14 -19 20.5 -42.5t6.5 -52.5q0 -62 -30.5 -107.5
t-84 -69.5t-122.5 -24zM406 139q9 10 14.5 24t5.5 30q0 26 -12 44t-33.5 31.5t-51.5 25.5t-67 25q-18 6 -31.5 11.5t-24.5 10.5q-10 -10 -15 -23.5t-5 -30.5q0 -20 7.5 -35t21.5 -27.5t34 -22.5t45.5 -20t54.5 -21q15 -5 29.5 -10.5t27.5 -11.5z" />
    <glyph glyph-name="dieresis" unicode="&#xa8;" horiz-adv-x="348" 
d="M266 563q-27 0 -45 18.5t-18 45.5t18 45.5t45 18.5t45.5 -18.5t18.5 -45.5t-18.5 -45.5t-45.5 -18.5zM82 563q-27 0 -45 18.5t-18 45.5t18 45.5t45 18.5q28 0 46 -18.5t18 -45.5t-18 -45.5t-46 -18.5z" />
    <glyph glyph-name="copyright" unicode="&#xa9;" horiz-adv-x="785" 
d="M393 -6q-104 0 -182.5 46t-123 127t-44.5 185q0 105 44.5 185.5t123 126t182.5 45.5t182.5 -45.5t122.5 -126t44 -185.5q0 -104 -44 -185t-122.5 -127t-182.5 -46zM393 124q-61 0 -111.5 27.5t-79 79t-28.5 121.5q0 71 28.5 122t79 78.5t111.5 27.5q78 0 134.5 -42
t73.5 -117h-118q-10 31 -34.5 48.5t-58.5 17.5q-30 0 -53.5 -15t-37.5 -45t-14 -75t14 -75t37.5 -45t53.5 -15q37 0 59.5 17.5t33.5 48.5h118q-17 -72 -73.5 -115.5t-134.5 -43.5zM393 42q92 0 159 39.5t103 109t36 161.5q0 94 -36.5 163t-103 107.5t-158.5 38.5t-159 -38.5
t-103 -107.5t-36 -163q0 -92 36 -162t103 -109t159 -39z" />
    <glyph glyph-name="ordfeminine" unicode="&#xaa;" horiz-adv-x="501" 
d="M218 348q-47 0 -85.5 22.5t-60.5 63.5t-22 96t22 95.5t59.5 62.5t84.5 22q46 0 77 -16.5t48 -43.5l9 55h94v-351h-95l-8 53v0q-16 -26 -47 -42.5t-76 -16.5zM248 429q26 0 47 12t33.5 34.5t12.5 53.5q0 48 -27.5 73.5t-65.5 25.5q-37 0 -64 -25.5t-27 -73.5t27 -74
t64 -26z" />
    <glyph glyph-name="guillemotleft" unicode="&#xab;" horiz-adv-x="514" 
d="M337 120l-90 175l90 175h127l-93 -175l93 -175h-127zM131 120l-89 175l89 175h127l-92 -175l92 -175h-127z" />
    <glyph glyph-name="logicalnot" unicode="&#xac;" horiz-adv-x="579" 
d="M453 198v136h-461v104h596v-240h-135z" />
    <glyph glyph-name="registered" unicode="&#xae;" horiz-adv-x="510" 
d="M255 291q-61 0 -109 27.5t-75 74.5t-27 108q0 62 27 109.5t75 74.5t109 27q62 0 109 -27t74 -74.5t27 -109.5q0 -61 -27 -108t-74 -74.5t-109 -27.5zM288 397l-56 96h65l62 -96h-71zM255 339q49 0 84.5 20.5t55 57.5t19.5 84q0 49 -19.5 85.5t-55 57t-84.5 20.5
q-48 0 -84 -20.5t-55.5 -57t-19.5 -85.5q0 -47 19.5 -84t55.5 -57.5t84 -20.5zM169 397v213h104q35 0 55.5 -18t20.5 -49t-20.5 -49.5t-55.5 -18.5h-42v-78h-62zM230 520h35q9 0 15 4.5t6 14.5q0 11 -6 15t-15 4h-35v-38z" />
    <glyph glyph-name="macron" unicode="&#xaf;" horiz-adv-x="408" 
d="M15 577v95h378v-95h-378z" />
    <glyph glyph-name="degree" unicode="&#xb0;" horiz-adv-x="363" 
d="M181 423q-38 0 -71 17.5t-53 50t-20 75.5q0 45 20.5 78t53.5 50.5t71 17.5q39 0 71.5 -17.5t52 -50.5t19.5 -78q0 -43 -20 -75.5t-52.5 -50t-71.5 -17.5zM181 508q20 0 38 15t18 45t-17.5 44.5t-37.5 14.5t-38 -15t-18 -44q0 -30 17.5 -45t37.5 -15z" />
    <glyph glyph-name="plusminus" unicode="&#xb1;" horiz-adv-x="579" 
d="M42 0v103h495v-103h-495zM232 169v363h115v-363h-115zM42 294v113h495v-113h-495z" />
    <glyph glyph-name="uni00B2" unicode="&#xb2;" horiz-adv-x="361" 
d="M37 352v76l118 82q29 20 45 40.5t16 45.5q0 20 -10.5 30.5t-26.5 10.5q-19 0 -29.5 -12t-13.5 -33h-102q3 52 42.5 86t111.5 34q46 0 76.5 -15.5t45.5 -40.5t15 -53q0 -39 -26.5 -67.5t-82.5 -60.5l-69 -42h177v-81h-287z" />
    <glyph glyph-name="uni00B3" unicode="&#xb3;" horiz-adv-x="356" 
d="M177 348q-76 0 -114.5 31t-42.5 84h105q2 -15 8 -24t16.5 -13t22.5 -4q21 0 33 10.5t12 30.5q0 21 -14 32t-37 11h-39v50h35q24 0 37.5 10.5t13.5 31.5q0 19 -12 29t-33 10q-19 0 -30.5 -9.5t-15.5 -27.5h-97q2 30 19 56t50.5 41t84.5 15q63 0 103 -29.5t40 -73.5
q0 -31 -17.5 -50.5t-48.5 -27.5v-2q33 -10 52 -30t19 -52q0 -44 -40.5 -71.5t-109.5 -27.5z" />
    <glyph glyph-name="acute" unicode="&#xb4;" horiz-adv-x="228" 
d="M0 539v95l228 121v0v-108z" />
    <glyph glyph-name="uni00B5" unicode="&#xb5;" horiz-adv-x="622" 
d="M65 -220v716h135v-266q0 -62 25 -95t79 -33q35 0 61.5 16.5t41.5 47.5t15 74v256h135v-496h-118l-11 83v0q-23 -43 -66 -69t-103 -26q-17 0 -31.5 3.5t-27.5 10.5v-222h-135z" />
    <glyph glyph-name="paragraph" unicode="&#xb6;" horiz-adv-x="649" 
d="M286 -100v381h-18q-83 0 -135.5 29t-77 76.5t-24.5 103.5q0 57 25 104.5t77.5 76.5t134.5 29h314v-800h-113v696h-70v-696h-113z" />
    <glyph glyph-name="periodcentered" unicode="&#xb7;" horiz-adv-x="247" 
d="M124 248q-38 0 -61 22.5t-23 55.5t23 55.5t61 22.5q37 0 60 -22.5t23 -55.5t-23 -55.5t-60 -22.5z" />
    <glyph glyph-name="cedilla" unicode="&#xb8;" horiz-adv-x="266" 
d="M0 -264v77h115q25 0 38 8.5t13 26.5t-13 26t-38 8h-62v125h84v-55q33 1 62.5 -10t48 -34.5t18.5 -61.5q0 -37 -18.5 -61.5t-48 -36.5t-64.5 -12h-135z" />
    <glyph glyph-name="uni00B9" unicode="&#xb9;" horiz-adv-x="237" 
d="M93 352v255l-70 -16v64l115 49h59v-352h-104z" />
    <glyph glyph-name="ordmasculine" unicode="&#xba;" horiz-adv-x="489" 
d="M243 349q-57 0 -100.5 23.5t-68.5 64.5t-25 94q0 54 25 94.5t69 63.5t101 23q58 0 102 -23t69 -63.5t25 -94.5q0 -53 -25.5 -94t-69.5 -64.5t-102 -23.5zM243 431q24 0 44.5 11t33.5 33.5t13 55.5q0 34 -12.5 56t-33 33.5t-45.5 11.5q-23 0 -43 -11.5t-32.5 -33.5
t-12.5 -56q0 -33 12 -55.5t32.5 -33.5t43.5 -11z" />
    <glyph glyph-name="guillemotright" unicode="&#xbb;" horiz-adv-x="514" 
d="M177 120h-127l92 175l-92 175h127l89 -175zM383 120h-127l92 175l-92 175h127l89 -175z" />
    <glyph glyph-name="onequarter" unicode="&#xbc;" horiz-adv-x="838" 
d="M93 352v255l-70 -16v64l115 49h59v-352h-104zM133 0l393 700h132l-394 -700h-131zM679 0v61h-165v68l154 219h111v-217h37v-70h-37v-61h-100zM616 131h71v107v0z" />
    <glyph glyph-name="onehalf" unicode="&#xbd;" horiz-adv-x="873" 
d="M93 352v255l-70 -16v64l115 49h59v-352h-104zM133 0l393 700h132l-394 -700h-131zM549 0v76l118 82q29 20 45 40.5t16 45.5q0 20 -10.5 30.5t-26.5 10.5q-19 0 -29.5 -12t-13.5 -33h-102q3 52 42.5 86t111.5 34q46 0 76.5 -15.5t45.5 -40.5t15 -53q0 -39 -26.5 -67.5
t-82.5 -60.5l-69 -42h177v-81h-287z" />
    <glyph glyph-name="threequarters" unicode="&#xbe;" horiz-adv-x="925" 
d="M177 348q-76 0 -114.5 31t-42.5 84h105q2 -15 8 -24t16.5 -13t22.5 -4q21 0 33 10.5t12 30.5q0 21 -14 32t-37 11h-39v50h35q24 0 37.5 10.5t13.5 31.5q0 19 -12 29t-33 10q-19 0 -30.5 -9.5t-15.5 -27.5h-97q2 30 19 56t50.5 41t84.5 15q63 0 103 -29.5t40 -73.5
q0 -31 -17.5 -50.5t-48.5 -27.5v-2q33 -10 52 -30t19 -52q0 -44 -40.5 -71.5t-109.5 -27.5zM220 0l393 700h132l-394 -700h-131zM766 0v61h-165v68l154 219h111v-217h37v-70h-37v-61h-100zM703 131h71v107v0z" />
    <glyph glyph-name="questiondown" unicode="&#xbf;" horiz-adv-x="529" 
d="M394 282l4 -166h-48q-38 0 -70.5 -5t-57 -17t-38.5 -34.5t-14 -58.5q0 -30 12.5 -52.5t34.5 -34.5t53 -12q32 0 54.5 12.5t34.5 34.5t12 51h128q1 -60 -26 -107t-79 -74.5t-125 -27.5q-68 0 -120 24.5t-81 72t-29 113.5q0 69 29.5 114t82.5 67.5t121 22.5l3 77h119z
M334 508q37 0 60 -22.5t23 -55.5t-23 -55.5t-60 -22.5t-60 22.5t-23 55.5t23 55.5t60 22.5z" />
    <glyph glyph-name="Agrave" unicode="&#xc0;" horiz-adv-x="707" 
d="M22 0l255 700h153l256 -700h-143l-190 546v0l-190 -546h-141zM135 159l35 105h357l35 -105h-427zM468 743l-228 108v108v0l228 -121v-95z" />
    <glyph glyph-name="Aacute" unicode="&#xc1;" horiz-adv-x="707" 
d="M22 0l255 700h153l256 -700h-143l-190 546v0l-190 -546h-141zM135 159l35 105h357l35 -105h-427zM240 743v95l228 121v0v-108z" />
    <glyph glyph-name="Acircumflex" unicode="&#xc2;" horiz-adv-x="707" 
d="M22 0l255 700h153l256 -700h-143l-190 546v0l-190 -546h-141zM135 159l35 105h357l35 -105h-427zM207 745v97l148 79l147 -79v-97l-147 83z" />
    <glyph glyph-name="Atilde" unicode="&#xc3;" horiz-adv-x="707" 
d="M22 0l255 700h153l256 -700h-143l-190 546v0l-190 -546h-141zM135 159l35 105h357l35 -105h-427zM418 751q-29 0 -49.5 11.5t-37.5 23t-38 11.5q-16 0 -27.5 -11t-15.5 -34h-71q11 67 42.5 97.5t77.5 30.5q29 0 49 -11.5t37.5 -23t38.5 -11.5q17 0 28.5 11.5t14.5 33.5
h71q-10 -66 -41.5 -97t-78.5 -31z" />
    <glyph glyph-name="Adieresis" unicode="&#xc4;" horiz-adv-x="707" 
d="M22 0l255 700h153l256 -700h-143l-190 546v0l-190 -546h-141zM135 159l35 105h357l35 -105h-427zM262 767q-26 0 -44.5 18.5t-18.5 45.5t18.5 45.5t44.5 18.5q28 0 46.5 -18.5t18.5 -45.5t-18.5 -45.5t-46.5 -18.5zM446 767q-27 0 -45.5 18.5t-18.5 45.5t18.5 45.5
t45.5 18.5t45.5 -18.5t18.5 -45.5t-18.5 -45.5t-45.5 -18.5z" />
    <glyph glyph-name="Aring" unicode="&#xc5;" horiz-adv-x="707" 
d="M22 0l255 700h153l256 -700h-143l-190 546v0l-190 -546h-141zM135 159l35 105h357l35 -105h-427zM354 749q-47 0 -81 30.5t-34 83.5t34 83t81 30q48 0 82 -30t34 -83t-34 -83.5t-82 -30.5zM354 809q22 0 37 15t15 39q0 25 -15 39t-37 14q-21 0 -36 -14t-15 -39
q0 -24 15 -39t36 -15z" />
    <glyph glyph-name="AE" unicode="&#xc6;" horiz-adv-x="943" 
d="M22 0l375 700h493v-107h-268v-185h238v-104h-238v-197h268v-107h-403v597v0l-319 -597h-146zM165 135l57 104h330v-104h-387z" />
    <glyph glyph-name="Ccedilla" unicode="&#xc7;" horiz-adv-x="740" 
d="M385 -12q-106 0 -182 45.5t-117 127t-41 188.5t41 189t117 128t182 46q128 0 209 -63t101 -178h-148q-13 56 -54 87.5t-109 31.5q-63 0 -108.5 -29.5t-69.5 -83t-24 -128.5q0 -74 24 -128t69.5 -83t108.5 -29q68 0 109 29.5t54 82.5h148q-20 -109 -101 -171t-209 -62z
M281 -267v77h115q25 0 38 8.5t13 26.5t-13 26t-38 8h-62v125h84v-55q33 1 62.5 -10t48 -34.5t18.5 -61.5q0 -37 -18.5 -61.5t-48 -36.5t-64.5 -12h-135z" />
    <glyph glyph-name="Egrave" unicode="&#xc8;" horiz-adv-x="580" 
d="M67 0v700h461v-109h-326v-183h296v-105h-296v-194h326v-109h-461zM411 743l-228 108v108v0l228 -121v-95z" />
    <glyph glyph-name="Eacute" unicode="&#xc9;" horiz-adv-x="580" 
d="M67 0v700h461v-109h-326v-183h296v-105h-296v-194h326v-109h-461zM183 743v95l228 121v0v-108z" />
    <glyph glyph-name="Ecircumflex" unicode="&#xca;" horiz-adv-x="580" 
d="M67 0v700h461v-109h-326v-183h296v-105h-296v-194h326v-109h-461zM150 745v97l148 79l147 -79v-97l-147 83z" />
    <glyph glyph-name="Edieresis" unicode="&#xcb;" horiz-adv-x="580" 
d="M67 0v700h461v-109h-326v-183h296v-105h-296v-194h326v-109h-461zM205 767q-26 0 -44.5 18.5t-18.5 45.5t18.5 45.5t44.5 18.5q28 0 46.5 -18.5t18.5 -45.5t-18.5 -45.5t-46.5 -18.5zM389 767q-27 0 -45.5 18.5t-18.5 45.5t18.5 45.5t45.5 18.5t45.5 -18.5t18.5 -45.5
t-18.5 -45.5t-45.5 -18.5z" />
    <glyph glyph-name="Igrave" unicode="&#xcc;" horiz-adv-x="269" 
d="M67 0v700h135v-700h-135zM248 743l-228 108v108v0l228 -121v-95z" />
    <glyph glyph-name="Iacute" unicode="&#xcd;" horiz-adv-x="269" 
d="M67 0v700h135v-700h-135zM20 743v95l228 121v0v-108z" />
    <glyph glyph-name="Icircumflex" unicode="&#xce;" horiz-adv-x="269" 
d="M67 0v700h135v-700h-135zM-13 745v97l148 79l147 -79v-97l-147 83z" />
    <glyph glyph-name="Idieresis" unicode="&#xcf;" horiz-adv-x="269" 
d="M67 0v700h135v-700h-135zM42 767q-26 0 -44.5 18.5t-18.5 45.5t18.5 45.5t44.5 18.5q28 0 46.5 -18.5t18.5 -45.5t-18.5 -45.5t-46.5 -18.5zM226 767q-27 0 -45.5 18.5t-18.5 45.5t18.5 45.5t45.5 18.5t45.5 -18.5t18.5 -45.5t-18.5 -45.5t-45.5 -18.5z" />
    <glyph glyph-name="Eth" unicode="&#xd0;" horiz-adv-x="725" 
d="M6 293v115h381v-115h-381zM79 0v700h243q122 0 202 -43.5t118.5 -122t38.5 -184.5t-38.5 -184.5t-118.5 -122t-202 -43.5h-243zM214 116h100q87 0 137 28t71 80.5t21 125.5q0 74 -21 126.5t-71 80.5t-137 28h-100v-469z" />
    <glyph glyph-name="Ntilde" unicode="&#xd1;" horiz-adv-x="726" 
d="M67 0v700h135l322 -482v0v482h135v-700h-135l-322 481v0v-481h-135zM427 751q-29 0 -49.5 11.5t-37.5 23t-38 11.5q-16 0 -27.5 -11t-15.5 -34h-71q11 67 42.5 97.5t77.5 30.5q29 0 49 -11.5t37.5 -23t38.5 -11.5q17 0 28.5 11.5t14.5 33.5h71q-10 -66 -41.5 -97
t-78.5 -31z" />
    <glyph glyph-name="Ograve" unicode="&#xd2;" horiz-adv-x="792" 
d="M396 -12q-104 0 -183 46t-123.5 127.5t-44.5 188.5t44.5 188.5t123.5 127.5t183 46t183.5 -46t124 -127.5t44.5 -188.5t-44.5 -188.5t-124 -127.5t-183.5 -46zM396 109q65 0 113 29.5t74.5 83.5t26.5 128q0 75 -26.5 128.5t-74.5 82.5t-113 29t-113 -29t-74.5 -82.5
t-26.5 -128.5q0 -74 26.5 -128t74.5 -83.5t113 -29.5zM510 743l-228 108v108v0l228 -121v-95z" />
    <glyph glyph-name="Oacute" unicode="&#xd3;" horiz-adv-x="792" 
d="M396 -12q-104 0 -183 46t-123.5 127.5t-44.5 188.5t44.5 188.5t123.5 127.5t183 46t183.5 -46t124 -127.5t44.5 -188.5t-44.5 -188.5t-124 -127.5t-183.5 -46zM396 109q65 0 113 29.5t74.5 83.5t26.5 128q0 75 -26.5 128.5t-74.5 82.5t-113 29t-113 -29t-74.5 -82.5
t-26.5 -128.5q0 -74 26.5 -128t74.5 -83.5t113 -29.5zM282 743v95l228 121v0v-108z" />
    <glyph glyph-name="Ocircumflex" unicode="&#xd4;" horiz-adv-x="792" 
d="M396 -12q-104 0 -183 46t-123.5 127.5t-44.5 188.5t44.5 188.5t123.5 127.5t183 46t183.5 -46t124 -127.5t44.5 -188.5t-44.5 -188.5t-124 -127.5t-183.5 -46zM396 109q65 0 113 29.5t74.5 83.5t26.5 128q0 75 -26.5 128.5t-74.5 82.5t-113 29t-113 -29t-74.5 -82.5
t-26.5 -128.5q0 -74 26.5 -128t74.5 -83.5t113 -29.5zM249 745v97l148 79l147 -79v-97l-147 83z" />
    <glyph glyph-name="Otilde" unicode="&#xd5;" horiz-adv-x="792" 
d="M396 -12q-104 0 -183 46t-123.5 127.5t-44.5 188.5t44.5 188.5t123.5 127.5t183 46t183.5 -46t124 -127.5t44.5 -188.5t-44.5 -188.5t-124 -127.5t-183.5 -46zM396 109q65 0 113 29.5t74.5 83.5t26.5 128q0 75 -26.5 128.5t-74.5 82.5t-113 29t-113 -29t-74.5 -82.5
t-26.5 -128.5q0 -74 26.5 -128t74.5 -83.5t113 -29.5zM460 751q-29 0 -49.5 11.5t-37.5 23t-38 11.5q-16 0 -27.5 -11t-15.5 -34h-71q11 67 42.5 97.5t77.5 30.5q29 0 49 -11.5t37.5 -23t38.5 -11.5q17 0 28.5 11.5t14.5 33.5h71q-10 -66 -41.5 -97t-78.5 -31z" />
    <glyph glyph-name="Odieresis" unicode="&#xd6;" horiz-adv-x="792" 
d="M396 -12q-104 0 -183 46t-123.5 127.5t-44.5 188.5t44.5 188.5t123.5 127.5t183 46t183.5 -46t124 -127.5t44.5 -188.5t-44.5 -188.5t-124 -127.5t-183.5 -46zM396 109q65 0 113 29.5t74.5 83.5t26.5 128q0 75 -26.5 128.5t-74.5 82.5t-113 29t-113 -29t-74.5 -82.5
t-26.5 -128.5q0 -74 26.5 -128t74.5 -83.5t113 -29.5zM304 767q-26 0 -44.5 18.5t-18.5 45.5t18.5 45.5t44.5 18.5q28 0 46.5 -18.5t18.5 -45.5t-18.5 -45.5t-46.5 -18.5zM488 767q-27 0 -45.5 18.5t-18.5 45.5t18.5 45.5t45.5 18.5t45.5 -18.5t18.5 -45.5t-18.5 -45.5
t-45.5 -18.5z" />
    <glyph glyph-name="multiply" unicode="&#xd7;" horiz-adv-x="579" 
d="M166 87l-80 79l124 124l-121 121l79 80l122 -122l123 124l79 -79l-123 -124l121 -122l-79 -79l-122 122z" />
    <glyph glyph-name="Oslash" unicode="&#xd8;" horiz-adv-x="784" 
d="M29 0l599 700h127l-598 -700h-128zM395 -12q-103 0 -182 46t-124 127.5t-45 188.5t45 188.5t124 127.5t182 46q105 0 184.5 -46t123.5 -127.5t44 -188.5t-44 -188.5t-123.5 -127.5t-184.5 -46zM396 109q65 0 113 29.5t74 83.5t26 128q0 75 -26 128.5t-74 82.5t-113 29
t-113 -29t-74.5 -82.5t-26.5 -128.5q0 -74 26.5 -128t74.5 -83.5t113 -29.5z" />
    <glyph glyph-name="Ugrave" unicode="&#xd9;" horiz-adv-x="685" 
d="M340 -12q-77 0 -140 31t-100 93t-37 158v430h135v-431q0 -52 17 -87.5t50 -52.5t77 -17q46 0 78.5 17t50 52.5t17.5 87.5v431h135v-430q0 -96 -38.5 -158t-102.5 -93t-142 -31zM456 743l-228 108v108v0l228 -121v-95z" />
    <glyph glyph-name="Uacute" unicode="&#xda;" horiz-adv-x="685" 
d="M340 -12q-77 0 -140 31t-100 93t-37 158v430h135v-431q0 -52 17 -87.5t50 -52.5t77 -17q46 0 78.5 17t50 52.5t17.5 87.5v431h135v-430q0 -96 -38.5 -158t-102.5 -93t-142 -31zM228 743v95l228 121v0v-108z" />
    <glyph glyph-name="Ucircumflex" unicode="&#xdb;" horiz-adv-x="685" 
d="M340 -12q-77 0 -140 31t-100 93t-37 158v430h135v-431q0 -52 17 -87.5t50 -52.5t77 -17q46 0 78.5 17t50 52.5t17.5 87.5v431h135v-430q0 -96 -38.5 -158t-102.5 -93t-142 -31zM195 745v97l148 79l147 -79v-97l-147 83z" />
    <glyph glyph-name="Udieresis" unicode="&#xdc;" horiz-adv-x="685" 
d="M340 -12q-77 0 -140 31t-100 93t-37 158v430h135v-431q0 -52 17 -87.5t50 -52.5t77 -17q46 0 78.5 17t50 52.5t17.5 87.5v431h135v-430q0 -96 -38.5 -158t-102.5 -93t-142 -31zM250 767q-26 0 -44.5 18.5t-18.5 45.5t18.5 45.5t44.5 18.5q28 0 46.5 -18.5t18.5 -45.5
t-18.5 -45.5t-46.5 -18.5zM434 767q-27 0 -45.5 18.5t-18.5 45.5t18.5 45.5t45.5 18.5t45.5 -18.5t18.5 -45.5t-18.5 -45.5t-45.5 -18.5z" />
    <glyph glyph-name="Yacute" unicode="&#xdd;" horiz-adv-x="633" 
d="M249 0v246l-236 454h153l170 -355h-36l169 355h151l-236 -454v-246h-135zM203 743v95l228 121v0v-108z" />
    <glyph glyph-name="Thorn" unicode="&#xde;" horiz-adv-x="611" 
d="M67 0v700h135v-134h128q85 0 140.5 -28t83 -77t27.5 -112q0 -57 -26.5 -106t-82 -79t-142.5 -30h-128v-134h-135zM202 243h120q64 0 92.5 29t28.5 77q0 51 -28.5 79t-92.5 28h-120v-213z" />
    <glyph glyph-name="germandbls" unicode="&#xdf;" horiz-adv-x="714" 
d="M480 -10q-94 0 -152 48.5t-69 137.5h126q5 -39 29 -62.5t64 -23.5q35 0 54.5 16t19.5 46q0 29 -19 47.5t-72 36.5q-82 29 -118.5 58.5t-36.5 75.5q0 27 12.5 45.5t31.5 32t37 26.5t30.5 28.5t12.5 37.5q0 38 -29 58.5t-79 20.5q-63 0 -92.5 -32.5t-29.5 -90.5v-496h-134
v507q0 67 31 117.5t89.5 79t141.5 28.5q73 0 126.5 -24t82 -64t28.5 -90q0 -29 -12.5 -50t-31 -36t-37 -27t-30.5 -24t-12 -26q0 -12 7.5 -22t29.5 -20.5t64 -25.5q75 -27 108 -65.5t33 -96.5q0 -51 -25 -89.5t-71 -60t-108 -21.5z" />
    <glyph glyph-name="agrave" unicode="&#xe0;" horiz-adv-x="582" 
d="M236 -12q-63 0 -104.5 20t-61.5 54t-20 75q0 46 23.5 80.5t71.5 54.5t121 20h125q0 36 -10.5 59.5t-32 35t-54.5 11.5q-39 0 -66.5 -17t-34.5 -52h-131q6 55 37 95t82 62t113 22q71 0 123 -23.5t80.5 -69t28.5 -110.5v-305h-114l-15 77v0q-10 -20 -25.5 -36t-35.5 -28
t-45 -18.5t-55 -6.5zM268 92q27 0 47.5 9.5t35 25.5t23 37t11.5 45v0h-104q-31 0 -50.5 -7.5t-28.5 -21t-9 -31.5t9 -31t26 -19.5t40 -6.5zM402 539l-228 108v108v0l228 -121v-95z" />
    <glyph glyph-name="aacute" unicode="&#xe1;" horiz-adv-x="582" 
d="M236 -12q-63 0 -104.5 20t-61.5 54t-20 75q0 46 23.5 80.5t71.5 54.5t121 20h125q0 36 -10.5 59.5t-32 35t-54.5 11.5q-39 0 -66.5 -17t-34.5 -52h-131q6 55 37 95t82 62t113 22q71 0 123 -23.5t80.5 -69t28.5 -110.5v-305h-114l-15 77v0q-10 -20 -25.5 -36t-35.5 -28
t-45 -18.5t-55 -6.5zM268 92q27 0 47.5 9.5t35 25.5t23 37t11.5 45v0h-104q-31 0 -50.5 -7.5t-28.5 -21t-9 -31.5t9 -31t26 -19.5t40 -6.5zM174 539v95l228 121v0v-108z" />
    <glyph glyph-name="acircumflex" unicode="&#xe2;" horiz-adv-x="582" 
d="M236 -12q-63 0 -104.5 20t-61.5 54t-20 75q0 46 23.5 80.5t71.5 54.5t121 20h125q0 36 -10.5 59.5t-32 35t-54.5 11.5q-39 0 -66.5 -17t-34.5 -52h-131q6 55 37 95t82 62t113 22q71 0 123 -23.5t80.5 -69t28.5 -110.5v-305h-114l-15 77v0q-10 -20 -25.5 -36t-35.5 -28
t-45 -18.5t-55 -6.5zM268 92q27 0 47.5 9.5t35 25.5t23 37t11.5 45v0h-104q-31 0 -50.5 -7.5t-28.5 -21t-9 -31.5t9 -31t26 -19.5t40 -6.5zM141 542v96l148 80l147 -80v-96l-147 83z" />
    <glyph glyph-name="atilde" unicode="&#xe3;" horiz-adv-x="582" 
d="M236 -12q-63 0 -104.5 20t-61.5 54t-20 75q0 46 23.5 80.5t71.5 54.5t121 20h125q0 36 -10.5 59.5t-32 35t-54.5 11.5q-39 0 -66.5 -17t-34.5 -52h-131q6 55 37 95t82 62t113 22q71 0 123 -23.5t80.5 -69t28.5 -110.5v-305h-114l-15 77v0q-10 -20 -25.5 -36t-35.5 -28
t-45 -18.5t-55 -6.5zM268 92q27 0 47.5 9.5t35 25.5t23 37t11.5 45v0h-104q-31 0 -50.5 -7.5t-28.5 -21t-9 -31.5t9 -31t26 -19.5t40 -6.5zM348 562q-29 0 -49.5 11.5t-37.5 23t-38 11.5q-16 0 -27.5 -11t-15.5 -34h-71q11 67 42.5 97.5t77.5 30.5q29 0 49 -11.5t37.5 -22.5
t38.5 -11q17 0 28.5 11t14.5 34h71q-10 -67 -41.5 -98t-78.5 -31z" />
    <glyph glyph-name="adieresis" unicode="&#xe4;" horiz-adv-x="582" 
d="M236 -12q-63 0 -104.5 20t-61.5 54t-20 75q0 46 23.5 80.5t71.5 54.5t121 20h125q0 36 -10.5 59.5t-32 35t-54.5 11.5q-39 0 -66.5 -17t-34.5 -52h-131q6 55 37 95t82 62t113 22q71 0 123 -23.5t80.5 -69t28.5 -110.5v-305h-114l-15 77v0q-10 -20 -25.5 -36t-35.5 -28
t-45 -18.5t-55 -6.5zM268 92q27 0 47.5 9.5t35 25.5t23 37t11.5 45v0h-104q-31 0 -50.5 -7.5t-28.5 -21t-9 -31.5t9 -31t26 -19.5t40 -6.5zM196 562q-26 0 -44.5 18.5t-18.5 44.5q0 28 18.5 46.5t44.5 18.5q28 0 46.5 -18.5t18.5 -46.5q0 -26 -18.5 -44.5t-46.5 -18.5z
M380 562q-27 0 -45.5 18.5t-18.5 44.5q0 28 18.5 46.5t45.5 18.5t45.5 -18.5t18.5 -46.5q0 -26 -18.5 -44.5t-45.5 -18.5z" />
    <glyph glyph-name="aring" unicode="&#xe5;" horiz-adv-x="582" 
d="M236 -12q-63 0 -104.5 20t-61.5 54t-20 75q0 46 23.5 80.5t71.5 54.5t121 20h125q0 36 -10.5 59.5t-32 35t-54.5 11.5q-39 0 -66.5 -17t-34.5 -52h-131q6 55 37 95t82 62t113 22q71 0 123 -23.5t80.5 -69t28.5 -110.5v-305h-114l-15 77v0q-10 -20 -25.5 -36t-35.5 -28
t-45 -18.5t-55 -6.5zM268 92q27 0 47.5 9.5t35 25.5t23 37t11.5 45v0h-104q-31 0 -50.5 -7.5t-28.5 -21t-9 -31.5t9 -31t26 -19.5t40 -6.5zM289 562q-47 0 -81 30.5t-34 83.5q0 52 34 82.5t81 30.5q48 0 82 -30.5t34 -82.5q0 -53 -34 -83.5t-82 -30.5zM289 622q22 0 37 14.5
t15 39.5t-15 39t-37 14q-21 0 -36 -14t-15 -39t15 -39.5t36 -14.5z" />
    <glyph glyph-name="ae" unicode="&#xe6;" horiz-adv-x="946" 
d="M247 -12q-64 0 -108 20.5t-66.5 55t-22.5 75.5q0 46 23 81.5t69.5 55.5t119.5 20h133q0 34 -10.5 57t-32 34t-52.5 11q-35 0 -62.5 -16.5t-33.5 -49.5h-131q5 53 36 92.5t80.5 61.5t110.5 22q59 0 104.5 -18t75.5 -51q32 33 77 51t97 18q73 0 129 -32t88 -87.5t32 -126.5
q0 -10 -0.5 -22.5t-2.5 -25.5h-367q3 -36 19.5 -62t43 -40t56.5 -14q41 0 67.5 21t39.5 52h134q-13 -52 -46.5 -93.5t-82.5 -65.5t-110 -24q-65 0 -118.5 27t-87.5 73q-20 -29 -48 -51.5t-65.5 -35.5t-87.5 -13zM266 92q33 0 58.5 15.5t42 41.5t22.5 57v8h-109
q-30 0 -49.5 -8t-28.5 -21.5t-9 -31.5t9 -32t26 -21.5t38 -7.5zM535 296h231q-4 48 -35 75.5t-76 27.5q-28 0 -53.5 -11.5t-42.5 -34t-24 -57.5z" />
    <glyph glyph-name="ccedilla" unicode="&#xe7;" horiz-adv-x="605" 
d="M310 -12q-76 0 -135 33.5t-92.5 92t-33.5 134.5t33.5 134.5t92.5 92t135 33.5q96 0 162 -50t83 -138h-142q-9 34 -37 53.5t-67 19.5q-34 0 -62 -17.5t-44 -50t-16 -77.5q0 -34 9.5 -60.5t26 -45.5t38.5 -29t48 -10t47 8.5t36 25t21 39.5h142q-17 -86 -83 -137t-162 -51z
M214 -267v77h115q25 0 38 8.5t13 26.5t-13 26t-38 8h-62v125h84v-55q33 1 62.5 -10t48 -34.5t18.5 -61.5q0 -37 -18.5 -61.5t-48 -36.5t-64.5 -12h-135z" />
    <glyph glyph-name="egrave" unicode="&#xe8;" horiz-adv-x="602" 
d="M308 -12q-76 0 -134.5 32t-91.5 90t-33 133q0 78 32.5 137.5t91 93.5t136.5 34q74 0 130.5 -32t88 -87.5t31.5 -125.5v-22.5t-2 -25.5h-411v83h276q-3 45 -34.5 73t-78.5 28q-35 0 -64 -15.5t-46 -46.5t-17 -78v-29q0 -40 16 -70t44.5 -46t64.5 -16q37 0 62 16.5t38 42.5
h138q-15 -47 -48 -85.5t-81 -61t-108 -22.5zM420 539l-228 108v108v0l228 -121v-95z" />
    <glyph glyph-name="eacute" unicode="&#xe9;" horiz-adv-x="602" 
d="M308 -12q-76 0 -134.5 32t-91.5 90t-33 133q0 78 32.5 137.5t91 93.5t136.5 34q74 0 130.5 -32t88 -87.5t31.5 -125.5v-22.5t-2 -25.5h-411v83h276q-3 45 -34.5 73t-78.5 28q-35 0 -64 -15.5t-46 -46.5t-17 -78v-29q0 -40 16 -70t44.5 -46t64.5 -16q37 0 62 16.5t38 42.5
h138q-15 -47 -48 -85.5t-81 -61t-108 -22.5zM192 539v95l228 121v0v-108z" />
    <glyph glyph-name="ecircumflex" unicode="&#xea;" horiz-adv-x="602" 
d="M308 -12q-76 0 -134.5 32t-91.5 90t-33 133q0 78 32.5 137.5t91 93.5t136.5 34q74 0 130.5 -32t88 -87.5t31.5 -125.5v-22.5t-2 -25.5h-411v83h276q-3 45 -34.5 73t-78.5 28q-35 0 -64 -15.5t-46 -46.5t-17 -78v-29q0 -40 16 -70t44.5 -46t64.5 -16q37 0 62 16.5t38 42.5
h138q-15 -47 -48 -85.5t-81 -61t-108 -22.5zM159 542v96l148 80l147 -80v-96l-147 83z" />
    <glyph glyph-name="edieresis" unicode="&#xeb;" horiz-adv-x="602" 
d="M308 -12q-76 0 -134.5 32t-91.5 90t-33 133q0 78 32.5 137.5t91 93.5t136.5 34q74 0 130.5 -32t88 -87.5t31.5 -125.5v-22.5t-2 -25.5h-411v83h276q-3 45 -34.5 73t-78.5 28q-35 0 -64 -15.5t-46 -46.5t-17 -78v-29q0 -40 16 -70t44.5 -46t64.5 -16q37 0 62 16.5t38 42.5
h138q-15 -47 -48 -85.5t-81 -61t-108 -22.5zM214 562q-26 0 -44.5 18.5t-18.5 44.5q0 28 18.5 46.5t44.5 18.5q28 0 46.5 -18.5t18.5 -46.5q0 -26 -18.5 -44.5t-46.5 -18.5zM398 562q-27 0 -45.5 18.5t-18.5 44.5q0 28 18.5 46.5t45.5 18.5t45.5 -18.5t18.5 -46.5
q0 -26 -18.5 -44.5t-45.5 -18.5z" />
    <glyph glyph-name="igrave" unicode="&#xec;" horiz-adv-x="265" 
d="M65 0v496h135v-496h-135zM246 539l-228 108v108v0l228 -121v-95z" />
    <glyph glyph-name="iacute" unicode="&#xed;" horiz-adv-x="265" 
d="M65 0v496h135v-496h-135zM18 539v95l228 121v0v-108z" />
    <glyph glyph-name="icircumflex" unicode="&#xee;" horiz-adv-x="265" 
d="M65 0v496h135v-496h-135zM-15 542v96l148 80l147 -80v-96l-147 83z" />
    <glyph glyph-name="idieresis" unicode="&#xef;" horiz-adv-x="265" 
d="M65 0v496h135v-496h-135zM40 562q-26 0 -44.5 18.5t-18.5 44.5q0 28 18.5 46.5t44.5 18.5q28 0 46.5 -18.5t18.5 -46.5q0 -26 -18.5 -44.5t-46.5 -18.5zM224 562q-27 0 -45.5 18.5t-18.5 44.5q0 28 18.5 46.5t45.5 18.5t45.5 -18.5t18.5 -46.5q0 -26 -18.5 -44.5
t-45.5 -18.5z" />
    <glyph glyph-name="eth" unicode="&#xf0;" horiz-adv-x="648" 
d="M320 -12q-79 0 -140 34.5t-96 92.5t-35 131q0 74 34.5 132t93.5 91t133 33q41 0 76.5 -11.5t66.5 -36.5q-13 33 -31 66.5t-40 65t-48 60t-56 54.5h127q49 -42 85.5 -92t60.5 -104t36 -107.5t12 -104.5q0 -93 -37 -161.5t-100.5 -105.5t-141.5 -37zM324 103q37 0 68 17.5
t50 49.5t19 76t-19 75.5t-50 49t-68 17.5q-36 0 -67.5 -17.5t-50.5 -49t-19 -75.5t19 -76t50.5 -49.5t67.5 -17.5zM266 535v80l292 94v-80z" />
    <glyph glyph-name="ntilde" unicode="&#xf1;" horiz-adv-x="614" 
d="M65 0v496h119l10 -83v0q23 43 66 69t103 26q62 0 105 -26.5t66 -77.5t23 -126v-278h-135v266q0 62 -25 95t-79 33q-34 0 -61 -16.5t-42 -47t-15 -74.5v-256h-135zM391 562q-29 0 -49.5 11.5t-37.5 23t-38 11.5q-16 0 -27.5 -11t-15.5 -34h-71q11 67 42.5 97.5t77.5 30.5
q29 0 49 -11.5t37.5 -22.5t38.5 -11q17 0 28.5 11t14.5 34h71q-10 -67 -41.5 -98t-78.5 -31z" />
    <glyph glyph-name="ograve" unicode="&#xf2;" horiz-adv-x="608" 
d="M303 -12q-71 0 -128.5 33t-91.5 92t-34 135q0 77 34 135.5t92 91.5t129 33q72 0 130 -33t91.5 -91.5t33.5 -135.5t-34 -135.5t-91.5 -91.5t-130.5 -33zM304 105q32 0 58.5 16t43 48t16.5 79q0 48 -16 79.5t-42.5 47.5t-58.5 16t-59 -16t-43 -47.5t-16 -79.5q0 -47 16 -79
t42.5 -48t58.5 -16zM418 539l-228 108v108v0l228 -121v-95z" />
    <glyph glyph-name="oacute" unicode="&#xf3;" horiz-adv-x="608" 
d="M303 -12q-71 0 -128.5 33t-91.5 92t-34 135q0 77 34 135.5t92 91.5t129 33q72 0 130 -33t91.5 -91.5t33.5 -135.5t-34 -135.5t-91.5 -91.5t-130.5 -33zM304 105q32 0 58.5 16t43 48t16.5 79q0 48 -16 79.5t-42.5 47.5t-58.5 16t-59 -16t-43 -47.5t-16 -79.5q0 -47 16 -79
t42.5 -48t58.5 -16zM190 539v95l228 121v0v-108z" />
    <glyph glyph-name="ocircumflex" unicode="&#xf4;" horiz-adv-x="608" 
d="M303 -12q-71 0 -128.5 33t-91.5 92t-34 135q0 77 34 135.5t92 91.5t129 33q72 0 130 -33t91.5 -91.5t33.5 -135.5t-34 -135.5t-91.5 -91.5t-130.5 -33zM304 105q32 0 58.5 16t43 48t16.5 79q0 48 -16 79.5t-42.5 47.5t-58.5 16t-59 -16t-43 -47.5t-16 -79.5q0 -47 16 -79
t42.5 -48t58.5 -16zM157 542v96l148 80l147 -80v-96l-147 83z" />
    <glyph glyph-name="otilde" unicode="&#xf5;" horiz-adv-x="608" 
d="M303 -12q-71 0 -128.5 33t-91.5 92t-34 135q0 77 34 135.5t92 91.5t129 33q72 0 130 -33t91.5 -91.5t33.5 -135.5t-34 -135.5t-91.5 -91.5t-130.5 -33zM304 105q32 0 58.5 16t43 48t16.5 79q0 48 -16 79.5t-42.5 47.5t-58.5 16t-59 -16t-43 -47.5t-16 -79.5q0 -47 16 -79
t42.5 -48t58.5 -16zM364 562q-29 0 -49.5 11.5t-37.5 23t-38 11.5q-16 0 -27.5 -11t-15.5 -34h-71q11 67 42.5 97.5t77.5 30.5q29 0 49 -11.5t37.5 -22.5t38.5 -11q17 0 28.5 11t14.5 34h71q-10 -67 -41.5 -98t-78.5 -31z" />
    <glyph glyph-name="odieresis" unicode="&#xf6;" horiz-adv-x="608" 
d="M303 -12q-71 0 -128.5 33t-91.5 92t-34 135q0 77 34 135.5t92 91.5t129 33q72 0 130 -33t91.5 -91.5t33.5 -135.5t-34 -135.5t-91.5 -91.5t-130.5 -33zM304 105q32 0 58.5 16t43 48t16.5 79q0 48 -16 79.5t-42.5 47.5t-58.5 16t-59 -16t-43 -47.5t-16 -79.5q0 -47 16 -79
t42.5 -48t58.5 -16zM212 562q-26 0 -44.5 18.5t-18.5 44.5q0 28 18.5 46.5t44.5 18.5q28 0 46.5 -18.5t18.5 -46.5q0 -26 -18.5 -44.5t-46.5 -18.5zM396 562q-27 0 -45.5 18.5t-18.5 44.5q0 28 18.5 46.5t45.5 18.5t45.5 -18.5t18.5 -46.5q0 -26 -18.5 -44.5t-45.5 -18.5z
" />
    <glyph glyph-name="divide" unicode="&#xf7;" horiz-adv-x="579" 
d="M72 233v113h435v-113h-435zM291 31q-38 0 -61 22.5t-23 54.5q0 34 23 56.5t61 22.5q36 0 59 -22.5t23 -56.5q0 -32 -23 -54.5t-59 -22.5zM291 396q-38 0 -61 22.5t-23 55.5t23 55.5t61 22.5q36 0 59 -22.5t23 -55.5t-23 -55.5t-59 -22.5z" />
    <glyph glyph-name="oslash" unicode="&#xf8;" horiz-adv-x="587" 
d="M28 0l427 496h104l-427 -496h-104zM292 -12q-71 0 -128.5 33t-91.5 92t-34 135q0 77 34 135.5t92 91.5t129 33q72 0 130 -33t91.5 -91.5t33.5 -135.5t-33.5 -135.5t-91.5 -91.5t-131 -33zM293 105q32 0 58.5 16t43 48t16.5 79q0 48 -16 79.5t-42.5 47.5t-58.5 16t-59 -16
t-43 -47.5t-16 -79.5q0 -47 16 -79t42.5 -48t58.5 -16z" />
    <glyph glyph-name="ugrave" unicode="&#xf9;" horiz-adv-x="614" 
d="M251 -12q-62 0 -105.5 26t-66 77.5t-22.5 126.5v278h134v-266q0 -62 25 -95t79 -33q35 0 62 16.5t42 47t15 74.5v256h135v-496h-119l-10 83v0q-24 -43 -67 -69t-102 -26zM415 539l-228 108v108v0l228 -121v-95z" />
    <glyph glyph-name="uacute" unicode="&#xfa;" horiz-adv-x="614" 
d="M251 -12q-62 0 -105.5 26t-66 77.5t-22.5 126.5v278h134v-266q0 -62 25 -95t79 -33q35 0 62 16.5t42 47t15 74.5v256h135v-496h-119l-10 83v0q-24 -43 -67 -69t-102 -26zM187 539v95l228 121v0v-108z" />
    <glyph glyph-name="ucircumflex" unicode="&#xfb;" horiz-adv-x="614" 
d="M251 -12q-62 0 -105.5 26t-66 77.5t-22.5 126.5v278h134v-266q0 -62 25 -95t79 -33q35 0 62 16.5t42 47t15 74.5v256h135v-496h-119l-10 83v0q-24 -43 -67 -69t-102 -26zM153 542v96l148 80l147 -80v-96l-147 83z" />
    <glyph glyph-name="udieresis" unicode="&#xfc;" horiz-adv-x="614" 
d="M251 -12q-62 0 -105.5 26t-66 77.5t-22.5 126.5v278h134v-266q0 -62 25 -95t79 -33q35 0 62 16.5t42 47t15 74.5v256h135v-496h-119l-10 83v0q-24 -43 -67 -69t-102 -26zM209 562q-26 0 -44.5 18.5t-18.5 44.5q0 28 18.5 46.5t44.5 18.5q28 0 46.5 -18.5t18.5 -46.5
q0 -26 -18.5 -44.5t-46.5 -18.5zM393 562q-27 0 -45.5 18.5t-18.5 44.5q0 28 18.5 46.5t45.5 18.5t45.5 -18.5t18.5 -46.5q0 -26 -18.5 -44.5t-45.5 -18.5z" />
    <glyph glyph-name="yacute" unicode="&#xfd;" horiz-adv-x="603" 
d="M128 -220l124 276h-30l-203 440h147l145 -318v0l130 318h144l-314 -716h-143zM188 539v95l228 121v0v-108z" />
    <glyph glyph-name="thorn" unicode="&#xfe;" horiz-adv-x="656" 
d="M65 -220v940h135v-293q16 22 38 40.5t53 29.5t72 11q70 0 124.5 -34t86.5 -93t32 -134q0 -74 -32 -133t-86.5 -92.5t-124.5 -33.5q-55 0 -96 20.5t-67 56.5v-285h-135zM333 106q40 0 70.5 18t48 50t17.5 73q0 42 -17.5 74t-48 50.5t-70.5 18.5t-71 -18.5t-48.5 -50.5
t-17.5 -73t17.5 -73.5t48.5 -50.5t71 -18z" />
    <glyph glyph-name="ydieresis" unicode="&#xff;" horiz-adv-x="603" 
d="M128 -220l124 276h-30l-203 440h147l145 -318v0l130 318h144l-314 -716h-143zM210 562q-26 0 -44.5 18.5t-18.5 44.5q0 28 18.5 46.5t44.5 18.5q28 0 46.5 -18.5t18.5 -46.5q0 -26 -18.5 -44.5t-46.5 -18.5zM394 562q-27 0 -45.5 18.5t-18.5 44.5q0 28 18.5 46.5
t45.5 18.5t45.5 -18.5t18.5 -46.5q0 -26 -18.5 -44.5t-45.5 -18.5z" />
    <glyph glyph-name="Amacron" unicode="&#x100;" horiz-adv-x="707" 
d="M22 0l255 700h153l256 -700h-143l-190 546v0l-190 -546h-141zM135 159l35 105h357l35 -105h-427zM165 781v95h378v-95h-378z" />
    <glyph glyph-name="amacron" unicode="&#x101;" horiz-adv-x="582" 
d="M236 -12q-63 0 -104.5 20t-61.5 54t-20 75q0 46 23.5 80.5t71.5 54.5t121 20h125q0 36 -10.5 59.5t-32 35t-54.5 11.5q-39 0 -66.5 -17t-34.5 -52h-131q6 55 37 95t82 62t113 22q71 0 123 -23.5t80.5 -69t28.5 -110.5v-305h-114l-15 77v0q-10 -20 -25.5 -36t-35.5 -28
t-45 -18.5t-55 -6.5zM268 92q27 0 47.5 9.5t35 25.5t23 37t11.5 45v0h-104q-31 0 -50.5 -7.5t-28.5 -21t-9 -31.5t9 -31t26 -19.5t40 -6.5zM99 586v95h378v-95h-378z" />
    <glyph glyph-name="Abreve" unicode="&#x102;" horiz-adv-x="707" 
d="M22 0l255 700h153l256 -700h-143l-190 546v0l-190 -546h-141zM135 159l35 105h357l35 -105h-427zM355 748q-49 0 -84.5 19t-54.5 53.5t-19 82.5v17h71q0 -34 19 -53t68 -19q48 0 67.5 19t19.5 53h71v-18q0 -47 -19.5 -82t-55 -53.5t-83.5 -18.5z" />
    <glyph glyph-name="abreve" unicode="&#x103;" horiz-adv-x="582" 
d="M236 -12q-63 0 -104.5 20t-61.5 54t-20 75q0 46 23.5 80.5t71.5 54.5t121 20h125q0 36 -10.5 59.5t-32 35t-54.5 11.5q-39 0 -66.5 -17t-34.5 -52h-131q6 55 37 95t82 62t113 22q71 0 123 -23.5t80.5 -69t28.5 -110.5v-305h-114l-15 77v0q-10 -20 -25.5 -36t-35.5 -28
t-45 -18.5t-55 -6.5zM268 92q27 0 47.5 9.5t35 25.5t23 37t11.5 45v0h-104q-31 0 -50.5 -7.5t-28.5 -21t-9 -31.5t9 -31t26 -19.5t40 -6.5zM289 555q-49 0 -84.5 19t-54.5 53.5t-19 82.5v17h71q0 -33 19 -52t68 -19q48 0 67.5 19t19.5 52h71v-17q0 -48 -19.5 -83t-55 -53.5
t-83.5 -18.5z" />
    <glyph glyph-name="Aogonek" unicode="&#x104;" horiz-adv-x="707" 
d="M22 0l255 700h153l256 -700h-143l-190 546v0l-190 -546h-141zM135 159l35 105h357l35 -105h-427zM603 -211q-37 0 -68 11t-49.5 35t-18.5 60q0 27 13 52t44.5 49t86.5 47l45 20l30 -63l-51 -25q-36 -18 -51 -34t-15 -34t13.5 -29t37.5 -11q15 0 33.5 4t37.5 11v-79
q-19 -7 -41.5 -10.5t-46.5 -3.5z" />
    <glyph glyph-name="aogonek" unicode="&#x105;" horiz-adv-x="582" 
d="M236 -12q-63 0 -104.5 20t-61.5 54t-20 75q0 46 23.5 80.5t71.5 54.5t121 20h125q0 36 -10.5 59.5t-32 35t-54.5 11.5q-39 0 -66.5 -17t-34.5 -52h-131q6 55 37 95t82 62t113 22q71 0 123 -23.5t80.5 -69t28.5 -110.5v-305h-114l-15 77v0q-10 -20 -25.5 -36t-35.5 -28
t-45 -18.5t-55 -6.5zM268 92q27 0 47.5 9.5t35 25.5t23 37t11.5 45v0h-104q-31 0 -50.5 -7.5t-28.5 -21t-9 -31.5t9 -31t26 -19.5t40 -6.5zM443 -211q-37 0 -68 11t-49.5 35t-18.5 60q0 27 13 52t44.5 49t86.5 47l45 20l30 -63l-51 -25q-36 -18 -51 -34t-15 -34t13.5 -29
t37.5 -11q15 0 33.5 4t37.5 11v-79q-19 -7 -41.5 -10.5t-46.5 -3.5z" />
    <glyph glyph-name="Cacute" unicode="&#x106;" horiz-adv-x="740" 
d="M385 -12q-106 0 -182 45.5t-117 127t-41 188.5t41 189t117 128t182 46q128 0 209 -63t101 -178h-148q-13 56 -54 87.5t-109 31.5q-63 0 -108.5 -29.5t-69.5 -83t-24 -128.5q0 -74 24 -128t69.5 -83t108.5 -29q68 0 109 29.5t54 82.5h148q-20 -109 -101 -171t-209 -62z
M256 743v95l228 121v0v-108z" />
    <glyph glyph-name="cacute" unicode="&#x107;" horiz-adv-x="605" 
d="M310 -12q-76 0 -135 33.5t-92.5 92t-33.5 134.5t33.5 134.5t92.5 92t135 33.5q96 0 162 -50t83 -138h-142q-9 34 -37 53.5t-67 19.5q-34 0 -62 -17.5t-44 -50t-16 -77.5q0 -34 9.5 -60.5t26 -45.5t38.5 -29t48 -10t47 8.5t36 25t21 39.5h142q-17 -86 -83 -137t-162 -51z
M188 539v95l228 121v0v-108z" />
    <glyph glyph-name="Cdotaccent" unicode="&#x10a;" horiz-adv-x="740" 
d="M385 -12q-106 0 -182 45.5t-117 127t-41 188.5t41 189t117 128t182 46q128 0 209 -63t101 -178h-148q-13 56 -54 87.5t-109 31.5q-63 0 -108.5 -29.5t-69.5 -83t-24 -128.5q0 -74 24 -128t69.5 -83t108.5 -29q68 0 109 29.5t54 82.5h148q-20 -109 -101 -171t-209 -62z
M369 764q-26 0 -44.5 18.5t-18.5 44.5q0 27 18.5 45.5t44.5 18.5q28 0 46.5 -18.5t18.5 -45.5q0 -26 -18.5 -44.5t-46.5 -18.5z" />
    <glyph glyph-name="cdotaccent" unicode="&#x10b;" horiz-adv-x="605" 
d="M310 -12q-76 0 -135 33.5t-92.5 92t-33.5 134.5t33.5 134.5t92.5 92t135 33.5q96 0 162 -50t83 -138h-142q-9 34 -37 53.5t-67 19.5q-34 0 -62 -17.5t-44 -50t-16 -77.5q0 -34 9.5 -60.5t26 -45.5t38.5 -29t48 -10t47 8.5t36 25t21 39.5h142q-17 -86 -83 -137t-162 -51z
M302 563q-26 0 -44.5 18.5t-18.5 44.5q0 28 18.5 46.5t44.5 18.5q28 0 46.5 -18.5t18.5 -46.5q0 -26 -18.5 -44.5t-46.5 -18.5z" />
    <glyph glyph-name="Ccaron" unicode="&#x10c;" horiz-adv-x="740" 
d="M385 -12q-106 0 -182 45.5t-117 127t-41 188.5t41 189t117 128t182 46q128 0 209 -63t101 -178h-148q-13 56 -54 87.5t-109 31.5q-63 0 -108.5 -29.5t-69.5 -83t-24 -128.5q0 -74 24 -128t69.5 -83t108.5 -29q68 0 109 29.5t54 82.5h148q-20 -109 -101 -171t-209 -62z
M370 745l-148 80v96l148 -86l147 86v-96z" />
    <glyph glyph-name="ccaron" unicode="&#x10d;" horiz-adv-x="605" 
d="M310 -12q-76 0 -135 33.5t-92.5 92t-33.5 134.5t33.5 134.5t92.5 92t135 33.5q96 0 162 -50t83 -138h-142q-9 34 -37 53.5t-67 19.5q-34 0 -62 -17.5t-44 -50t-16 -77.5q0 -34 9.5 -60.5t26 -45.5t38.5 -29t48 -10t47 8.5t36 25t21 39.5h142q-17 -86 -83 -137t-162 -51z
M303 555l-148 80v96l148 -85l147 85v-96z" />
    <glyph glyph-name="Dcaron" unicode="&#x10e;" horiz-adv-x="714" 
d="M67 0v700h243q122 0 202 -43.5t118.5 -122t38.5 -184.5t-38.5 -184.5t-118 -122t-202.5 -43.5h-243zM202 116h101q86 0 136 28t71 80.5t21 125.5q0 74 -21 126.5t-71 80.5t-136 28h-101v-469zM293 745l-148 80v96l148 -86l147 86v-96z" />
    <glyph glyph-name="dcaron" unicode="&#x10f;" horiz-adv-x="762" 
d="M293 -12q-69 0 -124.5 34t-87.5 93.5t-32 133.5q0 75 32 133.5t87.5 92t124.5 33.5q55 0 96.5 -20.5t66.5 -56.5v289h135v-720h-120l-15 69v0q-15 -22 -37.5 -40.5t-53.5 -29.5t-72 -11zM323 106q40 0 71 18.5t48.5 50.5t17.5 73q0 42 -17.5 74t-48.5 50t-71 18
q-39 0 -70.5 -18t-48.5 -50t-17 -73q0 -42 17 -74t48.5 -50.5t70.5 -18.5zM634 521v55q24 0 35.5 8.5t11.5 27.5v19h-47v106h105q7 -29 10 -51.5t3 -46.5q0 -57 -30 -87.5t-88 -30.5z" />
    <glyph glyph-name="Dcroat" unicode="&#x110;" horiz-adv-x="725" 
d="M6 293v115h381v-115h-381zM79 0v700h243q122 0 202 -43.5t118.5 -122t38.5 -184.5t-38.5 -184.5t-118.5 -122t-202 -43.5h-243zM214 116h100q87 0 137 28t71 80.5t21 125.5q0 74 -21 126.5t-71 80.5t-137 28h-100v-469z" />
    <glyph glyph-name="dcroat" unicode="&#x111;" horiz-adv-x="685" 
d="M316 565v81h345v-81h-345zM293 -12q-69 0 -124.5 34t-87.5 93.5t-32 133.5q0 75 32 133.5t87.5 92t124.5 33.5q55 0 96.5 -20.5t66.5 -56.5v289h135v-720h-120l-15 69v0q-15 -22 -37.5 -40.5t-53.5 -29.5t-72 -11zM323 106q40 0 71 18.5t48.5 50.5t17.5 73q0 42 -17.5 74
t-48.5 50t-71 18q-39 0 -70.5 -18t-48.5 -50t-17 -73q0 -42 17 -74t48.5 -50.5t70.5 -18.5z" />
    <glyph glyph-name="Emacron" unicode="&#x112;" horiz-adv-x="580" 
d="M67 0v700h461v-109h-326v-183h296v-105h-296v-194h326v-109h-461zM108 781v95h378v-95h-378z" />
    <glyph glyph-name="emacron" unicode="&#x113;" horiz-adv-x="602" 
d="M308 -12q-76 0 -134.5 32t-91.5 90t-33 133q0 78 32.5 137.5t91 93.5t136.5 34q74 0 130.5 -32t88 -87.5t31.5 -125.5v-22.5t-2 -25.5h-411v83h276q-3 45 -34.5 73t-78.5 28q-35 0 -64 -15.5t-46 -46.5t-17 -78v-29q0 -40 16 -70t44.5 -46t64.5 -16q37 0 62 16.5t38 42.5
h138q-15 -47 -48 -85.5t-81 -61t-108 -22.5zM118 586v95h378v-95h-378z" />
    <glyph glyph-name="Ebreve" unicode="&#x114;" horiz-adv-x="580" 
d="M67 0v700h461v-109h-326v-183h296v-105h-296v-194h326v-109h-461zM298 748q-49 0 -84.5 19t-54.5 53.5t-19 82.5v17h71q0 -34 19 -53t68 -19q48 0 67.5 19t19.5 53h71v-18q0 -47 -19.5 -82t-55 -53.5t-83.5 -18.5z" />
    <glyph glyph-name="ebreve" unicode="&#x115;" horiz-adv-x="602" 
d="M308 -12q-76 0 -134.5 32t-91.5 90t-33 133q0 78 32.5 137.5t91 93.5t136.5 34q74 0 130.5 -32t88 -87.5t31.5 -125.5v-22.5t-2 -25.5h-411v83h276q-3 45 -34.5 73t-78.5 28q-35 0 -64 -15.5t-46 -46.5t-17 -78v-29q0 -40 16 -70t44.5 -46t64.5 -16q37 0 62 16.5t38 42.5
h138q-15 -47 -48 -85.5t-81 -61t-108 -22.5zM307 555q-49 0 -84.5 19t-54.5 53.5t-19 82.5v17h71q0 -33 19 -52t68 -19q48 0 67.5 19t19.5 52h71v-17q0 -48 -19.5 -83t-55 -53.5t-83.5 -18.5z" />
    <glyph glyph-name="Edotaccent" unicode="&#x116;" horiz-adv-x="580" 
d="M67 0v700h461v-109h-326v-183h296v-105h-296v-194h326v-109h-461zM296 764q-26 0 -44.5 18.5t-18.5 44.5q0 27 18.5 45.5t44.5 18.5q28 0 46.5 -18.5t18.5 -45.5q0 -26 -18.5 -44.5t-46.5 -18.5z" />
    <glyph glyph-name="edotaccent" unicode="&#x117;" horiz-adv-x="602" 
d="M308 -12q-76 0 -134.5 32t-91.5 90t-33 133q0 78 32.5 137.5t91 93.5t136.5 34q74 0 130.5 -32t88 -87.5t31.5 -125.5v-22.5t-2 -25.5h-411v83h276q-3 45 -34.5 73t-78.5 28q-35 0 -64 -15.5t-46 -46.5t-17 -78v-29q0 -40 16 -70t44.5 -46t64.5 -16q37 0 62 16.5t38 42.5
h138q-15 -47 -48 -85.5t-81 -61t-108 -22.5zM306 563q-26 0 -44.5 18.5t-18.5 44.5q0 28 18.5 46.5t44.5 18.5q28 0 46.5 -18.5t18.5 -46.5q0 -26 -18.5 -44.5t-46.5 -18.5z" />
    <glyph glyph-name="Eogonek" unicode="&#x118;" horiz-adv-x="580" 
d="M67 0v700h461v-109h-326v-183h296v-105h-296v-194h326v-109h-461zM445 -211q-37 0 -68 11t-49.5 35t-18.5 60q0 27 13 52t44.5 49t86.5 47l45 20l30 -63l-51 -25q-36 -18 -51 -34t-15 -34t13.5 -29t37.5 -11q15 0 33.5 4t37.5 11v-79q-19 -7 -41.5 -10.5t-46.5 -3.5z" />
    <glyph glyph-name="eogonek" unicode="&#x119;" horiz-adv-x="602" 
d="M308 -12q-76 0 -134.5 32t-91.5 90t-33 133q0 78 32.5 137.5t91 93.5t136.5 34q74 0 130.5 -32t88 -87.5t31.5 -125.5v-22.5t-2 -25.5h-411v83h276q-3 45 -34.5 73t-78.5 28q-35 0 -64 -15.5t-46 -46.5t-17 -78v-29q0 -40 16 -70t44.5 -46t64.5 -16q37 0 62 16.5t38 42.5
h138q-15 -47 -48 -85.5t-81 -61t-108 -22.5zM326 -200q-37 0 -68 11t-49.5 35t-18.5 60q0 27 13 52t44.5 49t86.5 47l45 20l30 -63l-51 -25q-36 -18 -51 -34t-15 -34t13.5 -29t37.5 -11q15 0 33.5 4t37.5 11v-79q-19 -7 -41.5 -10.5t-46.5 -3.5z" />
    <glyph glyph-name="Ecaron" unicode="&#x11a;" horiz-adv-x="580" 
d="M67 0v700h461v-109h-326v-183h296v-105h-296v-194h326v-109h-461zM298 745l-148 80v96l148 -86l147 86v-96z" />
    <glyph glyph-name="ecaron" unicode="&#x11b;" horiz-adv-x="602" 
d="M308 -12q-76 0 -134.5 32t-91.5 90t-33 133q0 78 32.5 137.5t91 93.5t136.5 34q74 0 130.5 -32t88 -87.5t31.5 -125.5v-22.5t-2 -25.5h-411v83h276q-3 45 -34.5 73t-78.5 28q-35 0 -64 -15.5t-46 -46.5t-17 -78v-29q0 -40 16 -70t44.5 -46t64.5 -16q37 0 62 16.5t38 42.5
h138q-15 -47 -48 -85.5t-81 -61t-108 -22.5zM307 555l-148 80v96l148 -85l147 85v-96z" />
    <glyph glyph-name="Gbreve" unicode="&#x11e;" horiz-adv-x="775" 
d="M374 -12q-99 0 -173 44.5t-115 125t-41 187.5q0 108 42 190.5t121 129.5t189 47q123 0 204.5 -59t105.5 -164h-151q-15 46 -55.5 72.5t-104.5 26.5q-68 0 -116 -30t-73 -84t-25 -129q0 -76 25 -129t71.5 -80.5t109.5 -27.5q92 0 139.5 49.5t56.5 128.5h-172v101h308v-387
h-125l-10 89v0q-22 -33 -51.5 -55.5t-68.5 -34t-91 -11.5zM388 748q-49 0 -84.5 19t-54.5 53.5t-19 82.5v17h71q0 -34 19 -53t68 -19q48 0 67.5 19t19.5 53h71v-18q0 -47 -19.5 -82t-55 -53.5t-83.5 -18.5z" />
    <glyph glyph-name="gbreve" unicode="&#x11f;" horiz-adv-x="596" 
d="M281 -232q-71 0 -124.5 17.5t-82.5 53t-29 87.5q0 35 18 65.5t52.5 56t85.5 43.5l50 -67q-45 -15 -65 -37.5t-20 -46.5t15.5 -39.5t41.5 -23t58 -7.5q31 0 54 8t36.5 23.5t13.5 35.5q0 27 -19 43.5t-74 20.5q-51 4 -90 12t-68.5 18t-50.5 23t-33 26v23l107 116l94 -31
l-124 -125l39 66q10 -7 21 -12.5t26.5 -9.5t40.5 -7.5t64 -7.5q66 -5 108 -24t62 -51t20 -77q0 -44 -24 -83.5t-74.5 -64t-128.5 -24.5zM282 147q-63 0 -108.5 24t-70 65t-24.5 91t24.5 91t70 65.5t108.5 24.5t108.5 -24.5t69.5 -65.5t24 -91t-24 -91t-69.5 -65t-108.5 -24z
M282 250q38 0 62 19.5t24 57.5q0 37 -24 56.5t-62 19.5t-62.5 -19.5t-24.5 -56.5q0 -38 24.5 -57.5t62.5 -19.5zM363 401l-22 95h208v-80zM282 555q-49 0 -84.5 19t-54.5 53.5t-19 82.5v17h71q0 -33 19 -52t68 -19q48 0 67.5 19t19.5 52h71v-17q0 -48 -19.5 -83t-55 -53.5
t-83.5 -18.5z" />
    <glyph glyph-name="Gdotaccent" unicode="&#x120;" horiz-adv-x="775" 
d="M374 -12q-99 0 -173 44.5t-115 125t-41 187.5q0 108 42 190.5t121 129.5t189 47q123 0 204.5 -59t105.5 -164h-151q-15 46 -55.5 72.5t-104.5 26.5q-68 0 -116 -30t-73 -84t-25 -129q0 -76 25 -129t71.5 -80.5t109.5 -27.5q92 0 139.5 49.5t56.5 128.5h-172v101h308v-387
h-125l-10 89v0q-22 -33 -51.5 -55.5t-68.5 -34t-91 -11.5zM387 764q-26 0 -44.5 18.5t-18.5 44.5q0 27 18.5 45.5t44.5 18.5q28 0 46.5 -18.5t18.5 -45.5q0 -26 -18.5 -44.5t-46.5 -18.5z" />
    <glyph glyph-name="gdotaccent" unicode="&#x121;" horiz-adv-x="596" 
d="M281 -232q-71 0 -124.5 17.5t-82.5 53t-29 87.5q0 35 18 65.5t52.5 56t85.5 43.5l50 -67q-45 -15 -65 -37.5t-20 -46.5t15.5 -39.5t41.5 -23t58 -7.5q31 0 54 8t36.5 23.5t13.5 35.5q0 27 -19 43.5t-74 20.5q-51 4 -90 12t-68.5 18t-50.5 23t-33 26v23l107 116l94 -31
l-124 -125l39 66q10 -7 21 -12.5t26.5 -9.5t40.5 -7.5t64 -7.5q66 -5 108 -24t62 -51t20 -77q0 -44 -24 -83.5t-74.5 -64t-128.5 -24.5zM282 147q-63 0 -108.5 24t-70 65t-24.5 91t24.5 91t70 65.5t108.5 24.5t108.5 -24.5t69.5 -65.5t24 -91t-24 -91t-69.5 -65t-108.5 -24z
M282 250q38 0 62 19.5t24 57.5q0 37 -24 56.5t-62 19.5t-62.5 -19.5t-24.5 -56.5q0 -38 24.5 -57.5t62.5 -19.5zM363 401l-22 95h208v-80zM281 563q-26 0 -44.5 18.5t-18.5 44.5q0 28 18.5 46.5t44.5 18.5q28 0 46.5 -18.5t18.5 -46.5q0 -26 -18.5 -44.5t-46.5 -18.5z" />
    <glyph glyph-name="uni0122" unicode="&#x122;" horiz-adv-x="775" 
d="M374 -12q-99 0 -173 44.5t-115 125t-41 187.5q0 108 42 190.5t121 129.5t189 47q123 0 204.5 -59t105.5 -164h-151q-15 46 -55.5 72.5t-104.5 26.5q-68 0 -116 -30t-73 -84t-25 -129q0 -76 25 -129t71.5 -80.5t109.5 -27.5q92 0 139.5 49.5t56.5 128.5h-172v101h308v-387
h-125l-10 89v0q-22 -33 -51.5 -55.5t-68.5 -34t-91 -11.5zM329 -280v54q26 0 38 15.5t12 47.5v15h-56v104h113q8 -27 11.5 -52t3.5 -48q0 -64 -30.5 -100t-91.5 -36z" />
    <glyph glyph-name="uni0123" unicode="&#x123;" horiz-adv-x="596" 
d="M281 -232q-71 0 -124.5 17.5t-82.5 53t-29 87.5q0 35 18 65.5t52.5 56t85.5 43.5l50 -67q-45 -15 -65 -37.5t-20 -46.5t15.5 -39.5t41.5 -23t58 -7.5q31 0 54 8t36.5 23.5t13.5 35.5q0 27 -19 43.5t-74 20.5q-51 4 -90 12t-68.5 18t-50.5 23t-33 26v23l107 116l94 -31
l-124 -125l39 66q10 -7 21 -12.5t26.5 -9.5t40.5 -7.5t64 -7.5q66 -5 108 -24t62 -51t20 -77q0 -44 -24 -83.5t-74.5 -64t-128.5 -24.5zM282 147q-63 0 -108.5 24t-70 65t-24.5 91t24.5 91t70 65.5t108.5 24.5t108.5 -24.5t69.5 -65.5t24 -91t-24 -91t-69.5 -65t-108.5 -24z
M282 250q38 0 62 19.5t24 57.5q0 37 -24 56.5t-62 19.5t-62.5 -19.5t-24.5 -56.5q0 -38 24.5 -57.5t62.5 -19.5zM363 401l-22 95h208v-80zM342 774v-55q-23 0 -35 -8.5t-12 -27.5v-19h47v-106h-105q-6 30 -9.5 52t-3.5 46q0 57 30 87.5t88 30.5z" />
    <glyph glyph-name="Hbar" unicode="&#x126;" horiz-adv-x="772" 
d="M28 493v108h716v-108h-716zM540 0v700h135v-700h-135zM98 0v700h135v-700h-135zM215 303v109h347v-109h-347z" />
    <glyph glyph-name="hbar" unicode="&#x127;" horiz-adv-x="642" 
d="M24 565v81h345v-81h-345zM93 0v720h135v-298v0q25 39 67 62.5t97 23.5q62 0 105 -26.5t65.5 -77.5t22.5 -126v-278h-134v266q0 62 -24.5 95t-78.5 33q-34 0 -61.5 -16.5t-43 -47t-15.5 -74.5v-256h-135z" />
    <glyph glyph-name="Itilde" unicode="&#x128;" horiz-adv-x="269" 
d="M67 0v700h135v-700h-135zM198 751q-29 0 -49.5 11.5t-37.5 23t-38 11.5q-16 0 -27.5 -11t-15.5 -34h-71q11 67 42.5 97.5t77.5 30.5q29 0 49 -11.5t37.5 -23t38.5 -11.5q17 0 28.5 11.5t14.5 33.5h71q-10 -66 -41.5 -97t-78.5 -31z" />
    <glyph glyph-name="itilde" unicode="&#x129;" horiz-adv-x="265" 
d="M65 0v496h135v-496h-135zM192 562q-29 0 -49.5 11.5t-37.5 23t-38 11.5q-16 0 -27.5 -11t-15.5 -34h-71q11 67 42.5 97.5t77.5 30.5q29 0 49 -11.5t37.5 -22.5t38.5 -11q17 0 28.5 11t14.5 34h71q-10 -67 -41.5 -98t-78.5 -31z" />
    <glyph glyph-name="Imacron" unicode="&#x12a;" horiz-adv-x="269" 
d="M67 0v700h135v-700h-135zM-54 781v95h378v-95h-378z" />
    <glyph glyph-name="imacron" unicode="&#x12b;" horiz-adv-x="265" 
d="M65 0v496h135v-496h-135zM-57 586v95h378v-95h-378z" />
    <glyph glyph-name="Ibreve" unicode="&#x12c;" horiz-adv-x="269" 
d="M67 0v700h135v-700h-135zM135 748q-49 0 -84.5 19t-54.5 53.5t-19 82.5v17h71q0 -34 19 -53t68 -19q48 0 67.5 19t19.5 53h71v-18q0 -47 -19.5 -82t-55 -53.5t-83.5 -18.5z" />
    <glyph glyph-name="ibreve" unicode="&#x12d;" horiz-adv-x="265" 
d="M65 0v496h135v-496h-135zM133 555q-49 0 -84.5 19t-54.5 53.5t-19 82.5v17h71q0 -33 19 -52t68 -19q48 0 67.5 19t19.5 52h71v-17q0 -48 -19.5 -83t-55 -53.5t-83.5 -18.5z" />
    <glyph glyph-name="Iogonek" unicode="&#x12e;" horiz-adv-x="269" 
d="M67 0v700h135v-700h-135zM119 -211q-37 0 -68 11t-49.5 35t-18.5 60q0 27 13 52t44.5 49t86.5 47l45 20l30 -63l-51 -25q-36 -18 -51 -34t-15 -34t13.5 -29t37.5 -11q15 0 33.5 4t37.5 11v-79q-19 -7 -41.5 -10.5t-46.5 -3.5z" />
    <glyph glyph-name="iogonek" unicode="&#x12f;" horiz-adv-x="265" 
d="M65 0v496h135v-496h-135zM132 563q-26 0 -44.5 18.5t-18.5 44.5q0 28 18.5 46.5t44.5 18.5q28 0 46.5 -18.5t18.5 -46.5q0 -26 -18.5 -44.5t-46.5 -18.5zM117 -211q-37 0 -68 11t-49.5 35t-18.5 60q0 27 13 52t44.5 49t86.5 47l45 20l30 -63l-51 -25q-36 -18 -51 -34
t-15 -34t13.5 -29t37.5 -11q15 0 33.5 4t37.5 11v-79q-19 -7 -41.5 -10.5t-46.5 -3.5z" />
    <glyph glyph-name="Idotaccent" unicode="&#x130;" horiz-adv-x="269" 
d="M67 0v700h135v-700h-135zM134 764q-26 0 -44.5 18.5t-18.5 44.5q0 27 18.5 45.5t44.5 18.5q28 0 46.5 -18.5t18.5 -45.5q0 -26 -18.5 -44.5t-46.5 -18.5z" />
    <glyph glyph-name="dotlessi" unicode="&#x131;" horiz-adv-x="265" 
d="M65 0v496h135v-496h-135z" />
    <glyph glyph-name="IJ" unicode="&#x132;" horiz-adv-x="772" 
d="M67 0v700h135v-700h-135zM489 -12q-68 0 -119.5 26t-80 76.5t-28.5 122.5h135q0 -32 10 -55.5t29.5 -36t50.5 -12.5q29 0 48 11.5t27.5 33t8.5 51.5v495h135v-495q0 -105 -58.5 -161t-157.5 -56z" />
    <glyph glyph-name="ij" unicode="&#x133;" horiz-adv-x="512" 
d="M69 0v496h135v-496h-135zM136 568q-36 0 -59.5 21.5t-23.5 54.5t23.5 54.5t59.5 21.5q37 0 60.5 -21.5t23.5 -54.5t-23.5 -54.5t-60.5 -21.5zM210 -220v115h41q32 0 45.5 13t13.5 42v546h135v-545q0 -62 -21.5 -99.5t-60.5 -54.5t-92 -17h-61zM378 568q-37 0 -60 21.5
t-23 54.5t23 54.5t60 21.5t60 -21.5t23 -54.5t-23 -54.5t-60 -21.5z" />
    <glyph glyph-name="uni0136" unicode="&#x136;" horiz-adv-x="649" 
d="M67 0v700h135v-277l253 277h167l-258 -277l265 -423h-165l-196 318l-66 -70v-248h-135zM266 -280v54q26 0 38 15.5t12 47.5v15h-56v104h113q8 -27 11.5 -52t3.5 -48q0 -64 -30.5 -100t-91.5 -36z" />
    <glyph glyph-name="uni0137" unicode="&#x137;" horiz-adv-x="578" 
d="M396 0l-216 273l191 223h160l-248 -279v107l281 -324h-168zM65 0v720h135v-720h-135zM231 -280v54q26 0 38 15.5t12 47.5v15h-56v104h113q8 -27 11.5 -52t3.5 -48q0 -64 -30.5 -100t-91.5 -36z" />
    <glyph glyph-name="Lacute" unicode="&#x139;" horiz-adv-x="555" 
d="M67 0v700h135v-595h307v-105h-442zM26 743v95l228 121v0v-108z" />
    <glyph glyph-name="lacute" unicode="&#x13a;" horiz-adv-x="265" 
d="M65 0v720h135v-720h-135zM18 763v95l228 121v0v-108z" />
    <glyph glyph-name="uni013B" unicode="&#x13b;" horiz-adv-x="555" 
d="M67 0v700h135v-595h307v-105h-442zM256 -280v54q26 0 38 15.5t12 47.5v15h-56v104h113q8 -27 11.5 -52t3.5 -48q0 -64 -30.5 -100t-91.5 -36z" />
    <glyph glyph-name="uni013C" unicode="&#x13c;" horiz-adv-x="265" 
d="M65 0v720h135v-720h-135zM74 -280v54q26 0 38 15.5t12 47.5v15h-56v104h113q8 -27 11.5 -52t3.5 -48q0 -64 -30.5 -100t-91.5 -36z" />
    <glyph glyph-name="Lcaron" unicode="&#x13d;" horiz-adv-x="555" 
d="M67 0v700h135v-595h307v-105h-442zM314 501v55q24 0 35.5 8.5t11.5 27.5v19h-47v106h105q7 -29 10 -51.5t3 -46.5q0 -57 -30 -87.5t-88 -30.5z" />
    <glyph glyph-name="lcaron" unicode="&#x13e;" horiz-adv-x="371" 
d="M65 0v720h135v-720h-135zM243 521v55q24 0 35.5 8.5t11.5 27.5v19h-47v106h105q7 -29 10 -51.5t3 -46.5q0 -57 -30 -87.5t-88 -30.5z" />
    <glyph glyph-name="Ldot" unicode="&#x13f;" horiz-adv-x="555" 
d="M67 0v700h135v-595h307v-105h-442zM379 272q-38 0 -61 22.5t-23 55.5t23 55.5t61 22.5q37 0 60 -22.5t23 -55.5t-23 -55.5t-60 -22.5z" />
    <glyph glyph-name="ldot" unicode="&#x140;" horiz-adv-x="456" 
d="M65 0v720h135v-720h-135zM344 248q-38 0 -61 22.5t-23 55.5t23 55.5t61 22.5q37 0 60 -22.5t23 -55.5t-23 -55.5t-60 -22.5z" />
    <glyph glyph-name="Lslash" unicode="&#x141;" horiz-adv-x="580" 
d="M20 266v112l305 100v-112zM91 0v700h135v-595h307v-105h-442z" />
    <glyph glyph-name="lslash" unicode="&#x142;" horiz-adv-x="295" 
d="M11 287v113l273 93v-113zM79 0v720h135v-720h-135z" />
    <glyph glyph-name="Nacute" unicode="&#x143;" horiz-adv-x="726" 
d="M67 0v700h135l322 -482v0v482h135v-700h-135l-322 481v0v-481h-135zM249 743v95l228 121v0v-108z" />
    <glyph glyph-name="nacute" unicode="&#x144;" horiz-adv-x="614" 
d="M65 0v496h119l10 -83v0q23 43 66 69t103 26q62 0 105 -26.5t66 -77.5t23 -126v-278h-135v266q0 62 -25 95t-79 33q-34 0 -61 -16.5t-42 -47t-15 -74.5v-256h-135zM217 539v95l228 121v0v-108z" />
    <glyph glyph-name="uni0145" unicode="&#x145;" horiz-adv-x="726" 
d="M67 0v700h135l322 -482v0v482h135v-700h-135l-322 481v0v-481h-135zM305 -280v54q26 0 38 15.5t12 47.5v15h-56v104h113q8 -27 11.5 -52t3.5 -48q0 -64 -30.5 -100t-91.5 -36z" />
    <glyph glyph-name="uni0146" unicode="&#x146;" horiz-adv-x="614" 
d="M65 0v496h119l10 -83v0q23 43 66 69t103 26q62 0 105 -26.5t66 -77.5t23 -126v-278h-135v266q0 62 -25 95t-79 33q-34 0 -61 -16.5t-42 -47t-15 -74.5v-256h-135zM252 -280v54q26 0 38 15.5t12 47.5v15h-56v104h113q8 -27 11.5 -52t3.5 -48q0 -64 -30.5 -100t-91.5 -36z
" />
    <glyph glyph-name="Ncaron" unicode="&#x147;" horiz-adv-x="726" 
d="M67 0v700h135l322 -482v0v482h135v-700h-135l-322 481v0v-481h-135zM364 745l-148 80v96l148 -86l147 86v-96z" />
    <glyph glyph-name="ncaron" unicode="&#x148;" horiz-adv-x="614" 
d="M65 0v496h119l10 -83v0q23 43 66 69t103 26q62 0 105 -26.5t66 -77.5t23 -126v-278h-135v266q0 62 -25 95t-79 33q-34 0 -61 -16.5t-42 -47t-15 -74.5v-256h-135zM332 555l-148 80v96l148 -85l147 85v-96z" />
    <glyph glyph-name="Eng" unicode="&#x14a;" horiz-adv-x="726" 
d="M67 0v700h135l322 -482v0v482h135v-749q0 -62 -21.5 -99.5t-60.5 -54.5t-92 -17h-61v115h41q32 0 45.5 12.5t13.5 42.5v50l-322 481v0v-481h-135z" />
    <glyph glyph-name="eng" unicode="&#x14b;" horiz-adv-x="608" 
d="M65 0v496h119l10 -83v0q23 43 66 69t103 26q62 0 105 -26.5t66 -77.5t23 -126v-327q0 -62 -21.5 -99.5t-60.5 -54.5t-92 -17h-61v115h40q33 0 46.5 13t13.5 42v316q0 62 -25 95t-79 33q-34 0 -61 -16.5t-42 -47t-15 -74.5v-256h-135z" />
    <glyph glyph-name="Omacron" unicode="&#x14c;" horiz-adv-x="792" 
d="M396 -12q-104 0 -183 46t-123.5 127.5t-44.5 188.5t44.5 188.5t123.5 127.5t183 46t183.5 -46t124 -127.5t44.5 -188.5t-44.5 -188.5t-124 -127.5t-183.5 -46zM396 109q65 0 113 29.5t74.5 83.5t26.5 128q0 75 -26.5 128.5t-74.5 82.5t-113 29t-113 -29t-74.5 -82.5
t-26.5 -128.5q0 -74 26.5 -128t74.5 -83.5t113 -29.5zM207 781v95h378v-95h-378z" />
    <glyph glyph-name="omacron" unicode="&#x14d;" horiz-adv-x="608" 
d="M303 -12q-71 0 -128.5 33t-91.5 92t-34 135q0 77 34 135.5t92 91.5t129 33q72 0 130 -33t91.5 -91.5t33.5 -135.5t-34 -135.5t-91.5 -91.5t-130.5 -33zM304 105q32 0 58.5 16t43 48t16.5 79q0 48 -16 79.5t-42.5 47.5t-58.5 16t-59 -16t-43 -47.5t-16 -79.5q0 -47 16 -79
t42.5 -48t58.5 -16zM115 586v95h378v-95h-378z" />
    <glyph glyph-name="Obreve" unicode="&#x14e;" horiz-adv-x="792" 
d="M396 -12q-104 0 -183 46t-123.5 127.5t-44.5 188.5t44.5 188.5t123.5 127.5t183 46t183.5 -46t124 -127.5t44.5 -188.5t-44.5 -188.5t-124 -127.5t-183.5 -46zM396 109q65 0 113 29.5t74.5 83.5t26.5 128q0 75 -26.5 128.5t-74.5 82.5t-113 29t-113 -29t-74.5 -82.5
t-26.5 -128.5q0 -74 26.5 -128t74.5 -83.5t113 -29.5zM397 748q-49 0 -84.5 19t-54.5 53.5t-19 82.5v17h71q0 -34 19 -53t68 -19q48 0 67.5 19t19.5 53h71v-18q0 -47 -19.5 -82t-55 -53.5t-83.5 -18.5z" />
    <glyph glyph-name="obreve" unicode="&#x14f;" horiz-adv-x="608" 
d="M303 -12q-71 0 -128.5 33t-91.5 92t-34 135q0 77 34 135.5t92 91.5t129 33q72 0 130 -33t91.5 -91.5t33.5 -135.5t-34 -135.5t-91.5 -91.5t-130.5 -33zM304 105q32 0 58.5 16t43 48t16.5 79q0 48 -16 79.5t-42.5 47.5t-58.5 16t-59 -16t-43 -47.5t-16 -79.5q0 -47 16 -79
t42.5 -48t58.5 -16zM305 555q-49 0 -84.5 19t-54.5 53.5t-19 82.5v17h71q0 -33 19 -52t68 -19q48 0 67.5 19t19.5 52h71v-17q0 -48 -19.5 -83t-55 -53.5t-83.5 -18.5z" />
    <glyph glyph-name="Ohungarumlaut" unicode="&#x150;" horiz-adv-x="792" 
d="M396 -12q-104 0 -183 46t-123.5 127.5t-44.5 188.5t44.5 188.5t123.5 127.5t183 46t183.5 -46t124 -127.5t44.5 -188.5t-44.5 -188.5t-124 -127.5t-183.5 -46zM396 109q65 0 113 29.5t74.5 83.5t26.5 128q0 75 -26.5 128.5t-74.5 82.5t-113 29t-113 -29t-74.5 -82.5
t-26.5 -128.5q0 -74 26.5 -128t74.5 -83.5t113 -29.5zM430 747l82 184h110l-108 -184h-84zM256 747l71 184h110l-96 -184h-85z" />
    <glyph glyph-name="ohungarumlaut" unicode="&#x151;" horiz-adv-x="608" 
d="M303 -12q-71 0 -128.5 33t-91.5 92t-34 135q0 77 34 135.5t92 91.5t129 33q72 0 130 -33t91.5 -91.5t33.5 -135.5t-34 -135.5t-91.5 -91.5t-130.5 -33zM304 105q32 0 58.5 16t43 48t16.5 79q0 48 -16 79.5t-42.5 47.5t-58.5 16t-59 -16t-43 -47.5t-16 -79.5q0 -47 16 -79
t42.5 -48t58.5 -16zM338 543l82 184h110l-108 -184h-84zM164 543l71 184h110l-96 -184h-85z" />
    <glyph glyph-name="OE" unicode="&#x152;" horiz-adv-x="1101" 
d="M388 -12q-73 0 -135.5 26.5t-109.5 74.5t-72.5 114.5t-25.5 146.5t25.5 146.5t72.5 114.5t109.5 74.5t135.5 26.5q67 0 129 -27.5t101 -79.5v95h430v-109h-295v-183h265v-105h-265v-194h295v-109h-430v92q-25 -33 -62 -56t-80 -35.5t-88 -12.5zM400 109q60 0 109 29.5
t78.5 83.5t29.5 128q0 75 -29.5 128.5t-78.5 82.5t-109 29t-109.5 -29t-79 -82.5t-29.5 -128.5q0 -74 29.5 -128t79 -83.5t109.5 -29.5z" />
    <glyph glyph-name="oe" unicode="&#x153;" horiz-adv-x="975" 
d="M304 -12q-72 0 -129.5 33t-91.5 91.5t-34 135.5t34 135.5t92 91.5t130 33q58 0 104.5 -22.5t76.5 -63.5q33 41 83 63.5t112 22.5q74 0 130.5 -32t88.5 -87.5t32 -125.5q0 -10 -0.5 -22.5t-2.5 -25.5h-374q3 -36 20 -62.5t44 -40.5t61 -14q40 0 67.5 21t40.5 52h134
q-13 -52 -46.5 -93.5t-83 -65.5t-111.5 -24t-112 22.5t-84 62.5q-30 -40 -76.5 -62.5t-104.5 -22.5zM304 105q32 0 58.5 16t43 48t16.5 79q0 48 -16 79.5t-42.5 47.5t-58.5 16t-59 -16t-43 -47.5t-16 -79.5q0 -47 16 -79t42.5 -48t58.5 -16zM559 298h236q-3 45 -35 73
t-79 28q-30 0 -55.5 -11.5t-43 -33.5t-23.5 -56z" />
    <glyph glyph-name="Racute" unicode="&#x154;" horiz-adv-x="628" 
d="M67 0v700h262q84 0 139.5 -29t82.5 -77.5t27 -107.5q0 -56 -26.5 -104.5t-82 -78t-142.5 -29.5h-125v-274h-135zM430 0l-144 308h146l152 -308h-154zM202 372h118q62 0 91 30t29 79t-29 77.5t-91 28.5h-118v-215zM200 743v95l228 121v0v-108z" />
    <glyph glyph-name="racute" unicode="&#x155;" horiz-adv-x="401" 
d="M65 0v496h120l13 -93v0q18 32 44.5 55.5t61 36.5t75.5 13v-143h-37q-31 0 -57.5 -7t-45.5 -23t-29 -43.5t-10 -69.5v-222h-135zM128 539v95l228 121v0v-108z" />
    <glyph glyph-name="uni0156" unicode="&#x156;" horiz-adv-x="628" 
d="M67 0v700h262q84 0 139.5 -29t82.5 -77.5t27 -107.5q0 -56 -26.5 -104.5t-82 -78t-142.5 -29.5h-125v-274h-135zM430 0l-144 308h146l152 -308h-154zM202 372h118q62 0 91 30t29 79t-29 77.5t-91 28.5h-118v-215zM256 -280v54q26 0 38 15.5t12 47.5v15h-56v104h113
q8 -27 11.5 -52t3.5 -48q0 -64 -30.5 -100t-91.5 -36z" />
    <glyph glyph-name="uni0157" unicode="&#x157;" horiz-adv-x="401" 
d="M65 0v496h120l13 -93v0q18 32 44.5 55.5t61 36.5t75.5 13v-143h-37q-31 0 -57.5 -7t-45.5 -23t-29 -43.5t-10 -69.5v-222h-135zM72 -280v54q26 0 38 15.5t12 47.5v15h-56v104h113q8 -27 11.5 -52t3.5 -48q0 -64 -30.5 -100t-91.5 -36z" />
    <glyph glyph-name="Rcaron" unicode="&#x158;" horiz-adv-x="628" 
d="M67 0v700h262q84 0 139.5 -29t82.5 -77.5t27 -107.5q0 -56 -26.5 -104.5t-82 -78t-142.5 -29.5h-125v-274h-135zM430 0l-144 308h146l152 -308h-154zM202 372h118q62 0 91 30t29 79t-29 77.5t-91 28.5h-118v-215zM314 745l-148 80v96l148 -86l147 86v-96z" />
    <glyph glyph-name="rcaron" unicode="&#x159;" horiz-adv-x="401" 
d="M65 0v496h120l13 -93v0q18 32 44.5 55.5t61 36.5t75.5 13v-143h-37q-31 0 -57.5 -7t-45.5 -23t-29 -43.5t-10 -69.5v-222h-135zM243 555l-148 80v96l148 -85l147 85v-96z" />
    <glyph glyph-name="Sacute" unicode="&#x15a;" horiz-adv-x="600" 
d="M308 -12q-76 0 -135.5 26t-93.5 76t-36 121h143q1 -31 16 -56t42 -39.5t64 -14.5q31 0 54.5 10.5t37 29.5t13.5 45q0 31 -15.5 51.5t-41.5 34t-59.5 25t-70.5 23.5q-81 28 -124 72.5t-43 118.5q0 63 30 108t84 69t123 24q71 0 125 -24.5t85 -70.5t33 -108h-145
q-1 23 -13 43.5t-34 33t-53 12.5q-26 1 -47 -8t-33.5 -26.5t-12.5 -43.5q0 -25 12 -42t34 -29.5t52 -23t65 -21.5q53 -18 96.5 -42.5t69.5 -63.5t26 -103q0 -55 -28.5 -102t-83.5 -76t-136 -29zM184 743v95l228 121v0v-108z" />
    <glyph glyph-name="sacute" unicode="&#x15b;" horiz-adv-x="529" 
d="M271 -12q-66 0 -116.5 22t-81 60.5t-35.5 87.5h135q4 -18 17 -33.5t33 -24.5t46 -9q28 0 44.5 7.5t25 20t8.5 25.5q0 20 -12.5 30.5t-35.5 17.5t-55 15q-33 8 -66.5 18t-61.5 25.5t-45 39.5t-17 61q0 44 24.5 79.5t70 56.5t108.5 21q90 0 143.5 -41t62.5 -113h-127
q-5 24 -25.5 37t-53.5 13q-35 0 -53.5 -13t-18.5 -32q0 -14 13 -24t36.5 -17.5t54.5 -14.5q54 -13 97 -27.5t69.5 -42.5t26.5 -82q1 -46 -25 -83t-73 -58.5t-113 -21.5zM150 539v95l228 121v0v-108z" />
    <glyph glyph-name="Scedilla" unicode="&#x15e;" horiz-adv-x="600" 
d="M308 -12q-76 0 -135.5 26t-93.5 76t-36 121h143q1 -31 16 -56t42 -39.5t64 -14.5q31 0 54.5 10.5t37 29.5t13.5 45q0 31 -15.5 51.5t-41.5 34t-59.5 25t-70.5 23.5q-81 28 -124 72.5t-43 118.5q0 63 30 108t84 69t123 24q71 0 125 -24.5t85 -70.5t33 -108h-145
q-1 23 -13 43.5t-34 33t-53 12.5q-26 1 -47 -8t-33.5 -26.5t-12.5 -43.5q0 -25 12 -42t34 -29.5t52 -23t65 -21.5q53 -18 96.5 -42.5t69.5 -63.5t26 -103q0 -55 -28.5 -102t-83.5 -76t-136 -29zM217 -267v77h115q25 0 38 8.5t13 26.5t-13 26t-38 8h-62v125h84v-55
q33 1 62.5 -10t48 -34.5t18.5 -61.5q0 -37 -18.5 -61.5t-48 -36.5t-64.5 -12h-135z" />
    <glyph glyph-name="scedilla" unicode="&#x15f;" horiz-adv-x="529" 
d="M271 -12q-66 0 -116.5 22t-81 60.5t-35.5 87.5h135q4 -18 17 -33.5t33 -24.5t46 -9q28 0 44.5 7.5t25 20t8.5 25.5q0 20 -12.5 30.5t-35.5 17.5t-55 15q-33 8 -66.5 18t-61.5 25.5t-45 39.5t-17 61q0 44 24.5 79.5t70 56.5t108.5 21q90 0 143.5 -41t62.5 -113h-127
q-5 24 -25.5 37t-53.5 13q-35 0 -53.5 -13t-18.5 -32q0 -14 13 -24t36.5 -17.5t54.5 -14.5q54 -13 97 -27.5t69.5 -42.5t26.5 -82q1 -46 -25 -83t-73 -58.5t-113 -21.5zM176 -267v77h115q25 0 38 8.5t13 26.5t-13 26t-38 8h-62v125h84v-55q33 1 62.5 -10t48 -34.5
t18.5 -61.5q0 -37 -18.5 -61.5t-48 -36.5t-64.5 -12h-135z" />
    <glyph glyph-name="Scaron" unicode="&#x160;" horiz-adv-x="600" 
d="M308 -12q-76 0 -135.5 26t-93.5 76t-36 121h143q1 -31 16 -56t42 -39.5t64 -14.5q31 0 54.5 10.5t37 29.5t13.5 45q0 31 -15.5 51.5t-41.5 34t-59.5 25t-70.5 23.5q-81 28 -124 72.5t-43 118.5q0 63 30 108t84 69t123 24q71 0 125 -24.5t85 -70.5t33 -108h-145
q-1 23 -13 43.5t-34 33t-53 12.5q-26 1 -47 -8t-33.5 -26.5t-12.5 -43.5q0 -25 12 -42t34 -29.5t52 -23t65 -21.5q53 -18 96.5 -42.5t69.5 -63.5t26 -103q0 -55 -28.5 -102t-83.5 -76t-136 -29zM299 745l-148 80v96l148 -86l147 86v-96z" />
    <glyph glyph-name="scaron" unicode="&#x161;" horiz-adv-x="529" 
d="M271 -12q-66 0 -116.5 22t-81 60.5t-35.5 87.5h135q4 -18 17 -33.5t33 -24.5t46 -9q28 0 44.5 7.5t25 20t8.5 25.5q0 20 -12.5 30.5t-35.5 17.5t-55 15q-33 8 -66.5 18t-61.5 25.5t-45 39.5t-17 61q0 44 24.5 79.5t70 56.5t108.5 21q90 0 143.5 -41t62.5 -113h-127
q-5 24 -25.5 37t-53.5 13q-35 0 -53.5 -13t-18.5 -32q0 -14 13 -24t36.5 -17.5t54.5 -14.5q54 -13 97 -27.5t69.5 -42.5t26.5 -82q1 -46 -25 -83t-73 -58.5t-113 -21.5zM264 555l-148 80v96l148 -85l147 85v-96z" />
    <glyph glyph-name="uni0162" unicode="&#x162;" horiz-adv-x="596" 
d="M231 0v591h-205v109h544v-109h-205v-591h-134zM209 -267v77h115q25 0 38 8.5t13 26.5t-13 26t-38 8h-62v125h84v-55q33 1 62.5 -10t48 -34.5t18.5 -61.5q0 -37 -18.5 -61.5t-48 -36.5t-64.5 -12h-135z" />
    <glyph glyph-name="uni0163" unicode="&#x163;" horiz-adv-x="426" 
d="M290 0q-53 0 -92.5 16.5t-61.5 55t-22 105.5v206h-85v113h85l15 135h120v-135h132v-113h-132v-208q0 -34 15 -47t51 -13h63v-115h-88zM188 -267v77h115q25 0 38 8.5t13 26.5t-13 26t-38 8h-62v125h84v-55q33 1 62.5 -10t48 -34.5t18.5 -61.5q0 -37 -18.5 -61.5t-48 -36.5
t-64.5 -12h-135z" />
    <glyph glyph-name="Tcaron" unicode="&#x164;" horiz-adv-x="596" 
d="M231 0v591h-205v109h544v-109h-205v-591h-134zM299 745l-148 80v96l148 -86l147 86v-96z" />
    <glyph glyph-name="tcaron" unicode="&#x165;" horiz-adv-x="426" 
d="M290 0q-53 0 -92.5 16.5t-61.5 55t-22 105.5v206h-85v113h85l15 135h120v-135h132v-113h-132v-208q0 -34 15 -47t51 -13h63v-115h-88zM309 538v55q24 0 35.5 8.5t11.5 27.5v19h-47v106h105q7 -29 10 -51.5t3 -46.5q0 -57 -30 -87.5t-88 -30.5z" />
    <glyph glyph-name="Utilde" unicode="&#x168;" horiz-adv-x="685" 
d="M340 -12q-77 0 -140 31t-100 93t-37 158v430h135v-431q0 -52 17 -87.5t50 -52.5t77 -17q46 0 78.5 17t50 52.5t17.5 87.5v431h135v-430q0 -96 -38.5 -158t-102.5 -93t-142 -31zM406 751q-29 0 -49.5 11.5t-37.5 23t-38 11.5q-16 0 -27.5 -11t-15.5 -34h-71
q11 67 42.5 97.5t77.5 30.5q29 0 49 -11.5t37.5 -23t38.5 -11.5q17 0 28.5 11.5t14.5 33.5h71q-10 -66 -41.5 -97t-78.5 -31z" />
    <glyph glyph-name="utilde" unicode="&#x169;" horiz-adv-x="614" 
d="M251 -12q-62 0 -105.5 26t-66 77.5t-22.5 126.5v278h134v-266q0 -62 25 -95t79 -33q35 0 62 16.5t42 47t15 74.5v256h135v-496h-119l-10 83v0q-24 -43 -67 -69t-102 -26zM360 562q-29 0 -49.5 11.5t-37.5 23t-38 11.5q-16 0 -27.5 -11t-15.5 -34h-71q11 67 42.5 97.5
t77.5 30.5q29 0 49 -11.5t37.5 -22.5t38.5 -11q17 0 28.5 11t14.5 34h71q-10 -67 -41.5 -98t-78.5 -31z" />
    <glyph glyph-name="Umacron" unicode="&#x16a;" horiz-adv-x="685" 
d="M340 -12q-77 0 -140 31t-100 93t-37 158v430h135v-431q0 -52 17 -87.5t50 -52.5t77 -17q46 0 78.5 17t50 52.5t17.5 87.5v431h135v-430q0 -96 -38.5 -158t-102.5 -93t-142 -31zM153 781v95h378v-95h-378z" />
    <glyph glyph-name="umacron" unicode="&#x16b;" horiz-adv-x="614" 
d="M251 -12q-62 0 -105.5 26t-66 77.5t-22.5 126.5v278h134v-266q0 -62 25 -95t79 -33q35 0 62 16.5t42 47t15 74.5v256h135v-496h-119l-10 83v0q-24 -43 -67 -69t-102 -26zM112 586v95h378v-95h-378z" />
    <glyph glyph-name="Ubreve" unicode="&#x16c;" horiz-adv-x="685" 
d="M340 -12q-77 0 -140 31t-100 93t-37 158v430h135v-431q0 -52 17 -87.5t50 -52.5t77 -17q46 0 78.5 17t50 52.5t17.5 87.5v431h135v-430q0 -96 -38.5 -158t-102.5 -93t-142 -31zM343 748q-49 0 -84.5 19t-54.5 53.5t-19 82.5v17h71q0 -34 19 -53t68 -19q48 0 67.5 19
t19.5 53h71v-18q0 -47 -19.5 -82t-55 -53.5t-83.5 -18.5z" />
    <glyph glyph-name="ubreve" unicode="&#x16d;" horiz-adv-x="614" 
d="M251 -12q-62 0 -105.5 26t-66 77.5t-22.5 126.5v278h134v-266q0 -62 25 -95t79 -33q35 0 62 16.5t42 47t15 74.5v256h135v-496h-119l-10 83v0q-24 -43 -67 -69t-102 -26zM301 555q-49 0 -84.5 19t-54.5 53.5t-19 82.5v17h71q0 -33 19 -52t68 -19q48 0 67.5 19t19.5 52h71
v-17q0 -48 -19.5 -83t-55 -53.5t-83.5 -18.5z" />
    <glyph glyph-name="Uring" unicode="&#x16e;" horiz-adv-x="685" 
d="M340 -12q-77 0 -140 31t-100 93t-37 158v430h135v-431q0 -52 17 -87.5t50 -52.5t77 -17q46 0 78.5 17t50 52.5t17.5 87.5v431h135v-430q0 -96 -38.5 -158t-102.5 -93t-142 -31zM342 749q-47 0 -81 30.5t-34 83.5t34 83t81 30q48 0 82 -30t34 -83t-34 -83.5t-82 -30.5z
M342 809q22 0 37 15t15 39q0 25 -15 39t-37 14q-21 0 -36 -14t-15 -39q0 -24 15 -39t36 -15z" />
    <glyph glyph-name="uring" unicode="&#x16f;" horiz-adv-x="614" 
d="M251 -12q-62 0 -105.5 26t-66 77.5t-22.5 126.5v278h134v-266q0 -62 25 -95t79 -33q35 0 62 16.5t42 47t15 74.5v256h135v-496h-119l-10 83v0q-24 -43 -67 -69t-102 -26zM301 562q-47 0 -81 30.5t-34 83.5q0 52 34 82.5t81 30.5q48 0 82 -30.5t34 -82.5q0 -53 -34 -83.5
t-82 -30.5zM301 622q22 0 37 14.5t15 39.5t-15 39t-37 14q-21 0 -36 -14t-15 -39t15 -39.5t36 -14.5z" />
    <glyph glyph-name="Uhungarumlaut" unicode="&#x170;" horiz-adv-x="685" 
d="M340 -12q-77 0 -140 31t-100 93t-37 158v430h135v-431q0 -52 17 -87.5t50 -52.5t77 -17q46 0 78.5 17t50 52.5t17.5 87.5v431h135v-430q0 -96 -38.5 -158t-102.5 -93t-142 -31zM376 747l82 184h110l-108 -184h-84zM202 747l71 184h110l-96 -184h-85z" />
    <glyph glyph-name="uhungarumlaut" unicode="&#x171;" horiz-adv-x="614" 
d="M251 -12q-62 0 -105.5 26t-66 77.5t-22.5 126.5v278h134v-266q0 -62 25 -95t79 -33q35 0 62 16.5t42 47t15 74.5v256h135v-496h-119l-10 83v0q-24 -43 -67 -69t-102 -26zM335 543l82 184h110l-108 -184h-84zM161 543l71 184h110l-96 -184h-85z" />
    <glyph glyph-name="Uogonek" unicode="&#x172;" horiz-adv-x="685" 
d="M340 -12q-77 0 -140 31t-100 93t-37 158v430h135v-431q0 -52 17 -87.5t50 -52.5t77 -17q46 0 78.5 17t50 52.5t17.5 87.5v431h135v-430q0 -96 -38.5 -158t-102.5 -93t-142 -31zM336 -210q-37 0 -68 11t-49.5 35t-18.5 60q0 27 13 52t44.5 49t86.5 47l45 20l30 -63
l-51 -25q-37 -18 -51.5 -34t-14.5 -34t13.5 -29t37.5 -11q15 0 33.5 4t37.5 11v-79q-19 -7 -42 -10.5t-46 -3.5z" />
    <glyph glyph-name="uogonek" unicode="&#x173;" horiz-adv-x="614" 
d="M251 -12q-62 0 -105.5 26t-66 77.5t-22.5 126.5v278h134v-266q0 -62 25 -95t79 -33q35 0 62 16.5t42 47t15 74.5v256h135v-496h-119l-10 83v0q-24 -43 -67 -69t-102 -26zM467 -211q-37 0 -68 11t-49.5 35t-18.5 60q0 27 13 52t44.5 49t86.5 47l45 20l30 -63l-51 -25
q-36 -18 -51 -34t-15 -34t13.5 -29t37.5 -11q15 0 33.5 4t37.5 11v-79q-19 -7 -41.5 -10.5t-46.5 -3.5z" />
    <glyph glyph-name="Wcircumflex" unicode="&#x174;" horiz-adv-x="1016" 
d="M209 0l-184 700h144l122 -547v0l144 547h149l140 -547v0l123 547h145l-189 -700h-161l-134 510v0l-139 -510h-160zM361 745v97l148 79l147 -79v-97l-147 83z" />
    <glyph glyph-name="wcircumflex" unicode="&#x175;" horiz-adv-x="810" 
d="M161 0l-145 496h133l100 -418l-34 1l115 417h150l115 -417l-34 -1l100 418h133l-145 -496h-140l-122 430h37l-123 -430h-140zM258 542v96l148 80l147 -80v-96l-147 83z" />
    <glyph glyph-name="Ycircumflex" unicode="&#x176;" horiz-adv-x="633" 
d="M249 0v246l-236 454h153l170 -355h-36l169 355h151l-236 -454v-246h-135zM169 745v97l148 79l147 -79v-97l-147 83z" />
    <glyph glyph-name="ycircumflex" unicode="&#x177;" horiz-adv-x="603" 
d="M128 -220l124 276h-30l-203 440h147l145 -318v0l130 318h144l-314 -716h-143zM154 542v96l148 80l147 -80v-96l-147 83z" />
    <glyph glyph-name="Ydieresis" unicode="&#x178;" horiz-adv-x="633" 
d="M249 0v246l-236 454h153l170 -355h-36l169 355h151l-236 -454v-246h-135zM225 767q-26 0 -44.5 18.5t-18.5 45.5t18.5 45.5t44.5 18.5q28 0 46.5 -18.5t18.5 -45.5t-18.5 -45.5t-46.5 -18.5zM409 767q-27 0 -45.5 18.5t-18.5 45.5t18.5 45.5t45.5 18.5t45.5 -18.5
t18.5 -45.5t-18.5 -45.5t-45.5 -18.5z" />
    <glyph glyph-name="Zacute" unicode="&#x179;" horiz-adv-x="571" 
d="M48 0v104l318 484h-316v112h472v-104l-321 -484h322v-112h-475zM171 743v95l228 121v0v-108z" />
    <glyph glyph-name="zacute" unicode="&#x17a;" horiz-adv-x="483" 
d="M32 0v108l250 276h-247v112h401v-108l-253 -276h258v-112h-409zM125 539v95l228 121v0v-108z" />
    <glyph glyph-name="Zdotaccent" unicode="&#x17b;" horiz-adv-x="571" 
d="M48 0v104l318 484h-316v112h472v-104l-321 -484h322v-112h-475zM285 764q-26 0 -44.5 18.5t-18.5 44.5q0 27 18.5 45.5t44.5 18.5q28 0 46.5 -18.5t18.5 -45.5q0 -26 -18.5 -44.5t-46.5 -18.5z" />
    <glyph glyph-name="zdotaccent" unicode="&#x17c;" horiz-adv-x="483" 
d="M32 0v108l250 276h-247v112h401v-108l-253 -276h258v-112h-409zM239 563q-26 0 -44.5 18.5t-18.5 44.5q0 28 18.5 46.5t44.5 18.5q28 0 46.5 -18.5t18.5 -46.5q0 -26 -18.5 -44.5t-46.5 -18.5z" />
    <glyph glyph-name="Zcaron" unicode="&#x17d;" horiz-adv-x="571" 
d="M48 0v104l318 484h-316v112h472v-104l-321 -484h322v-112h-475zM286 745l-148 80v96l148 -86l147 86v-96z" />
    <glyph glyph-name="zcaron" unicode="&#x17e;" horiz-adv-x="483" 
d="M32 0v108l250 276h-247v112h401v-108l-253 -276h258v-112h-409zM240 555l-148 80v96l148 -85l147 85v-96z" />
    <glyph glyph-name="uni018F" unicode="&#x18f;" horiz-adv-x="767" 
d="M381 -12q-75 0 -137 23t-106.5 67t-68.5 106.5t-24 142.5q0 14 1 29.5t2 31.5h554v-97h-418q1 -54 26 -94.5t68.5 -63t100.5 -22.5q42 0 79 13.5t65 39t43.5 62.5t15.5 85v61q0 69 -26.5 117.5t-71.5 74.5t-101 26q-65 0 -114 -31t-67 -86h-149q20 71 66 125t113 84
t149 30q102 0 179 -45t120 -127t43 -192q0 -108 -43 -189t-119.5 -126t-179.5 -45z" />
    <glyph glyph-name="florin" unicode="&#x192;" horiz-adv-x="335" 
d="M-55 -235l11 114h24q23 0 34.5 12t14.5 39l70 656q10 100 70 145t174 45l-12 -114q-47 0 -70.5 -17t-26.5 -59l-70 -656q-6 -62 -31.5 -98.5t-66.5 -51.5t-95 -15h-26zM22 442l11 112h294l-11 -112h-294z" />
    <glyph glyph-name="AEacute" unicode="&#x1fc;" horiz-adv-x="943" 
d="M22 0l375 700h493v-107h-268v-185h238v-104h-238v-197h268v-107h-403v597v0l-319 -597h-146zM165 135l57 104h330v-104h-387zM465 743v95l228 121v0v-108z" />
    <glyph glyph-name="aeacute" unicode="&#x1fd;" horiz-adv-x="946" 
d="M247 -12q-64 0 -108 20.5t-66.5 55t-22.5 75.5q0 46 23 81.5t69.5 55.5t119.5 20h133q0 34 -10.5 57t-32 34t-52.5 11q-35 0 -62.5 -16.5t-33.5 -49.5h-131q5 53 36 92.5t80.5 61.5t110.5 22q59 0 104.5 -18t75.5 -51q32 33 77 51t97 18q73 0 129 -32t88 -87.5t32 -126.5
q0 -10 -0.5 -22.5t-2.5 -25.5h-367q3 -36 19.5 -62t43 -40t56.5 -14q41 0 67.5 21t39.5 52h134q-13 -52 -46.5 -93.5t-82.5 -65.5t-110 -24q-65 0 -118.5 27t-87.5 73q-20 -29 -48 -51.5t-65.5 -35.5t-87.5 -13zM266 92q33 0 58.5 15.5t42 41.5t22.5 57v8h-109
q-30 0 -49.5 -8t-28.5 -21.5t-9 -31.5t9 -32t26 -21.5t38 -7.5zM535 296h231q-4 48 -35 75.5t-76 27.5q-28 0 -53.5 -11.5t-42.5 -34t-24 -57.5zM359 539v95l228 121v0v-108z" />
    <glyph glyph-name="uni0218" unicode="&#x218;" horiz-adv-x="600" 
d="M308 -12q-76 0 -135.5 26t-93.5 76t-36 121h143q1 -31 16 -56t42 -39.5t64 -14.5q31 0 54.5 10.5t37 29.5t13.5 45q0 31 -15.5 51.5t-41.5 34t-59.5 25t-70.5 23.5q-81 28 -124 72.5t-43 118.5q0 63 30 108t84 69t123 24q71 0 125 -24.5t85 -70.5t33 -108h-145
q-1 23 -13 43.5t-34 33t-53 12.5q-26 1 -47 -8t-33.5 -26.5t-12.5 -43.5q0 -25 12 -42t34 -29.5t52 -23t65 -21.5q53 -18 96.5 -42.5t69.5 -63.5t26 -103q0 -55 -28.5 -102t-83.5 -76t-136 -29zM248 -280v54q26 0 38 15.5t12 47.5v15h-56v104h113q8 -27 11.5 -52t3.5 -48
q0 -64 -30.5 -100t-91.5 -36z" />
    <glyph glyph-name="uni0219" unicode="&#x219;" horiz-adv-x="529" 
d="M271 -12q-66 0 -116.5 22t-81 60.5t-35.5 87.5h135q4 -18 17 -33.5t33 -24.5t46 -9q28 0 44.5 7.5t25 20t8.5 25.5q0 20 -12.5 30.5t-35.5 17.5t-55 15q-33 8 -66.5 18t-61.5 25.5t-45 39.5t-17 61q0 44 24.5 79.5t70 56.5t108.5 21q90 0 143.5 -41t62.5 -113h-127
q-5 24 -25.5 37t-53.5 13q-35 0 -53.5 -13t-18.5 -32q0 -14 13 -24t36.5 -17.5t54.5 -14.5q54 -13 97 -27.5t69.5 -42.5t26.5 -82q1 -46 -25 -83t-73 -58.5t-113 -21.5zM206 -280v54q26 0 38 15.5t12 47.5v15h-56v104h113q8 -27 11.5 -52t3.5 -48q0 -64 -30.5 -100
t-91.5 -36z" />
    <glyph glyph-name="uni021A" unicode="&#x21a;" horiz-adv-x="596" 
d="M231 0v591h-205v109h544v-109h-205v-591h-134zM239 -280v54q26 0 38 15.5t12 47.5v15h-56v104h113q8 -27 11.5 -52t3.5 -48q0 -64 -30.5 -100t-91.5 -36z" />
    <glyph glyph-name="uni021B" unicode="&#x21b;" horiz-adv-x="426" 
d="M290 0q-53 0 -92.5 16.5t-61.5 55t-22 105.5v206h-85v113h85l15 135h120v-135h132v-113h-132v-208q0 -34 15 -47t51 -13h63v-115h-88zM219 -280v54q26 0 38 15.5t12 47.5v15h-56v104h113q8 -27 11.5 -52t3.5 -48q0 -64 -30.5 -100t-91.5 -36z" />
    <glyph glyph-name="uni0237" unicode="&#x237;" horiz-adv-x="256" 
d="M-30 -220v115h41q32 0 45.5 13t13.5 42v546h135v-545q0 -62 -21.5 -99.5t-60.5 -54.5t-92 -17h-61z" />
    <glyph glyph-name="uni0259" unicode="&#x259;" horiz-adv-x="602" 
d="M294 508q76 0 134.5 -32t91.5 -89.5t33 -133.5q0 -77 -32.5 -137t-90.5 -94t-136 -34q-73 0 -130 32t-89 88t-32 125q0 11 0.5 23t1.5 25h412v-83h-277q3 -45 34.5 -73t78.5 -28q36 0 64.5 15.5t45.5 47t17 77.5v29q0 41 -16 70.5t-44 45.5t-65 16q-36 0 -61.5 -16.5
t-38.5 -42.5h-137q15 48 47.5 86t81 60.5t107.5 22.5z" />
    <glyph glyph-name="circumflex" unicode="&#x2c6;" horiz-adv-x="325" 
d="M15 541v97l148 79l147 -79v-97l-147 83z" />
    <glyph glyph-name="caron" unicode="&#x2c7;" horiz-adv-x="325" 
d="M163 541l-148 80v96l148 -86l147 86v-96z" />
    <glyph glyph-name="breve" unicode="&#x2d8;" horiz-adv-x="346" 
d="M173 544q-49 0 -84.5 19t-54.5 53.5t-19 82.5v17h70q0 -34 19.5 -53t68.5 -19q48 0 67.5 19t19.5 53h71v-18q0 -47 -19.5 -82t-55 -53.5t-83.5 -18.5z" />
    <glyph glyph-name="dotaccent" unicode="&#x2d9;" horiz-adv-x="160" 
d="M80 560q-27 0 -45 18.5t-18 44.5q0 27 18 45.5t45 18.5t45.5 -18.5t18.5 -45.5q0 -26 -18.5 -44.5t-45.5 -18.5z" />
    <glyph glyph-name="ring" unicode="&#x2da;" horiz-adv-x="257" 
d="M128 545q-47 0 -80.5 30.5t-33.5 83.5t33.5 83t80.5 30q49 0 82.5 -30t33.5 -83t-33.5 -83.5t-82.5 -30.5zM129 605q21 0 36 15t15 39q0 25 -15 39t-36 14t-36.5 -14t-15.5 -39q0 -24 15.5 -39t36.5 -15z" />
    <glyph glyph-name="ogonek" unicode="&#x2db;" horiz-adv-x="224" 
d="M136 -211q-37 0 -68 11t-49.5 35t-18.5 60q0 27 13 52t44.5 49t86.5 47l45 20l30 -63l-51 -25q-37 -18 -51.5 -34t-14.5 -34t13.5 -29t37.5 -11q15 0 33.5 4t37.5 11v-79q-19 -7 -42 -10.5t-46 -3.5z" />
    <glyph glyph-name="tilde" unicode="&#x2dc;" horiz-adv-x="383" 
d="M251 547q-29 0 -49.5 11.5t-37.5 23t-38 11.5q-16 0 -27.5 -11t-15.5 -34h-71q11 67 42.5 97.5t77.5 30.5q29 0 49 -11.5t37.5 -23t37.5 -11.5q17 0 29 11.5t15 33.5h71q-10 -66 -42 -97t-78 -31z" />
    <glyph glyph-name="hungarumlaut" unicode="&#x2dd;" horiz-adv-x="401" 
d="M189 543l82 184h110l-108 -184h-84zM15 543l71 184h110l-96 -184h-85z" />
    <glyph glyph-name="gravecomb" unicode="&#x300;" 
d="M228 539l-228 108v108v0l228 -121v-95z" />
    <glyph glyph-name="acutecomb" unicode="&#x301;" 
d="M0 539v95l228 121v0v-108z" />
    <glyph glyph-name="uni0302" unicode="&#x302;" 
d="M0 542v96l148 80l147 -80v-96l-147 83z" />
    <glyph glyph-name="tildecomb" unicode="&#x303;" 
d="M239 562q-29 0 -49.5 11.5t-37.5 23t-38 11.5q-16 0 -27.5 -11t-15.5 -34h-71q11 67 42.5 97.5t77.5 30.5q29 0 49 -11.5t37.5 -22.5t38.5 -11q17 0 28.5 11t14.5 34h71q-10 -67 -41.5 -98t-78.5 -31z" />
    <glyph glyph-name="uni0304" unicode="&#x304;" 
d="M0 586v95h378v-95h-378z" />
    <glyph glyph-name="uni0306" unicode="&#x306;" 
d="M158 555q-49 0 -84.5 19t-54.5 53.5t-19 82.5v17h71q0 -33 19 -52t68 -19q48 0 67.5 19t19.5 52h71v-17q0 -48 -19.5 -83t-55 -53.5t-83.5 -18.5z" />
    <glyph glyph-name="uni0307" unicode="&#x307;" 
d="M63 563q-26 0 -44.5 18.5t-18.5 44.5q0 28 18.5 46.5t44.5 18.5q28 0 46.5 -18.5t18.5 -46.5q0 -26 -18.5 -44.5t-46.5 -18.5z" />
    <glyph glyph-name="uni0308" unicode="&#x308;" 
d="M63 562q-26 0 -44.5 18.5t-18.5 44.5q0 28 18.5 46.5t44.5 18.5q28 0 46.5 -18.5t18.5 -46.5q0 -26 -18.5 -44.5t-46.5 -18.5zM247 562q-27 0 -45.5 18.5t-18.5 44.5q0 28 18.5 46.5t45.5 18.5t45.5 -18.5t18.5 -46.5q0 -26 -18.5 -44.5t-45.5 -18.5z" />
    <glyph glyph-name="uni030A" unicode="&#x30a;" 
d="M115 562q-47 0 -81 30.5t-34 83.5q0 52 34 82.5t81 30.5q48 0 82 -30.5t34 -82.5q0 -53 -34 -83.5t-82 -30.5zM115 622q22 0 37 14.5t15 39.5t-15 39t-37 14q-21 0 -36 -14t-15 -39t15 -39.5t36 -14.5z" />
    <glyph glyph-name="uni030B" unicode="&#x30b;" 
d="M174 543l82 184h110l-108 -184h-84zM0 543l71 184h110l-96 -184h-85z" />
    <glyph glyph-name="uni030C" unicode="&#x30c;" 
d="M148 555l-148 80v96l148 -85l147 85v-96z" />
    <glyph glyph-name="uni0312" unicode="&#x312;" 
d="M118 774v-55q-23 0 -35 -8.5t-12 -27.5v-19h47v-106h-105q-6 30 -9.5 52t-3.5 46q0 57 30 87.5t88 30.5z" />
    <glyph glyph-name="uni0326" unicode="&#x326;" 
d="M6 -280v54q26 0 38 15.5t12 47.5v15h-56v104h113q8 -27 11.5 -52t3.5 -48q0 -64 -30.5 -100t-91.5 -36z" />
    <glyph glyph-name="uni0327" unicode="&#x327;" 
d="M0 -264v77h115q25 0 38 8.5t13 26.5t-13 26t-38 8h-62v125h84v-55q33 1 62.5 -10t48 -34.5t18.5 -61.5q0 -37 -18.5 -61.5t-48 -36.5t-64.5 -12h-135z" />
    <glyph glyph-name="uni0328" unicode="&#x328;" 
d="M136 -211q-37 0 -68 11t-49.5 35t-18.5 60q0 27 13 52t44.5 49t86.5 47l45 20l30 -63l-51 -25q-36 -18 -51 -34t-15 -34t13.5 -29t37.5 -11q15 0 33.5 4t37.5 11v-79q-19 -7 -41.5 -10.5t-46.5 -3.5z" />
    <glyph glyph-name="pi" unicode="&#x3c0;" horiz-adv-x="647" 
d="M104 0v392h-73v104h585v-104h-74v-392h-135v392h-168v-392h-135z" />
    <glyph glyph-name="Wgrave" unicode="&#x1e80;" horiz-adv-x="1016" 
d="M209 0l-184 700h144l122 -547v0l144 547h149l140 -547v0l123 547h145l-189 -700h-161l-134 510v0l-139 -510h-160zM622 743l-228 108v108v0l228 -121v-95z" />
    <glyph glyph-name="wgrave" unicode="&#x1e81;" horiz-adv-x="810" 
d="M161 0l-145 496h133l100 -418l-34 1l115 417h150l115 -417l-34 -1l100 418h133l-145 -496h-140l-122 430h37l-123 -430h-140zM519 539l-228 108v108v0l228 -121v-95z" />
    <glyph glyph-name="Wacute" unicode="&#x1e82;" horiz-adv-x="1016" 
d="M209 0l-184 700h144l122 -547v0l144 547h149l140 -547v0l123 547h145l-189 -700h-161l-134 510v0l-139 -510h-160zM394 743v95l228 121v0v-108z" />
    <glyph glyph-name="wacute" unicode="&#x1e83;" horiz-adv-x="810" 
d="M161 0l-145 496h133l100 -418l-34 1l115 417h150l115 -417l-34 -1l100 418h133l-145 -496h-140l-122 430h37l-123 -430h-140zM291 539v95l228 121v0v-108z" />
    <glyph glyph-name="Wdieresis" unicode="&#x1e84;" horiz-adv-x="1016" 
d="M209 0l-184 700h144l122 -547v0l144 547h149l140 -547v0l123 547h145l-189 -700h-161l-134 510v0l-139 -510h-160zM416 767q-26 0 -44.5 18.5t-18.5 45.5t18.5 45.5t44.5 18.5q28 0 46.5 -18.5t18.5 -45.5t-18.5 -45.5t-46.5 -18.5zM600 767q-27 0 -45.5 18.5t-18.5 45.5
t18.5 45.5t45.5 18.5t45.5 -18.5t18.5 -45.5t-18.5 -45.5t-45.5 -18.5z" />
    <glyph glyph-name="wdieresis" unicode="&#x1e85;" horiz-adv-x="810" 
d="M161 0l-145 496h133l100 -418l-34 1l115 417h150l115 -417l-34 -1l100 418h133l-145 -496h-140l-122 430h37l-123 -430h-140zM313 562q-26 0 -44.5 18.5t-18.5 44.5q0 28 18.5 46.5t44.5 18.5q28 0 46.5 -18.5t18.5 -46.5q0 -26 -18.5 -44.5t-46.5 -18.5zM497 562
q-27 0 -45.5 18.5t-18.5 44.5q0 28 18.5 46.5t45.5 18.5t45.5 -18.5t18.5 -46.5q0 -26 -18.5 -44.5t-45.5 -18.5z" />
    <glyph glyph-name="uni1E9E" unicode="&#x1e9e;" horiz-adv-x="730" 
d="M466 -6q-106 0 -163 57.5t-57 167.5h133q0 -50 20 -81t69 -31q33 0 52.5 14.5t28 40t8.5 57.5q0 64 -32.5 94t-93.5 30h-106v90l149 152h-212q-32 0 -46 -13t-14 -43v-529h-135v529q0 63 21.5 100t60.5 54t92 17h391v-102l-166 -167h15q66 0 111.5 -27t69.5 -74t24 -109
q0 -71 -26.5 -122t-75.5 -78t-118 -27z" />
    <glyph glyph-name="uni1EBC" unicode="&#x1ebc;" horiz-adv-x="580" 
d="M67 0v700h461v-109h-326v-183h296v-105h-296v-194h326v-109h-461zM361 751q-29 0 -49.5 11.5t-37.5 23t-38 11.5q-16 0 -27.5 -11t-15.5 -34h-71q11 67 42.5 97.5t77.5 30.5q29 0 49 -11.5t37.5 -23t38.5 -11.5q17 0 28.5 11.5t14.5 33.5h71q-10 -66 -41.5 -97t-78.5 -31
z" />
    <glyph glyph-name="uni1EBD" unicode="&#x1ebd;" horiz-adv-x="602" 
d="M308 -12q-76 0 -134.5 32t-91.5 90t-33 133q0 78 32.5 137.5t91 93.5t136.5 34q74 0 130.5 -32t88 -87.5t31.5 -125.5v-22.5t-2 -25.5h-411v83h276q-3 45 -34.5 73t-78.5 28q-35 0 -64 -15.5t-46 -46.5t-17 -78v-29q0 -40 16 -70t44.5 -46t64.5 -16q37 0 62 16.5t38 42.5
h138q-15 -47 -48 -85.5t-81 -61t-108 -22.5zM366 562q-29 0 -49.5 11.5t-37.5 23t-38 11.5q-16 0 -27.5 -11t-15.5 -34h-71q11 67 42.5 97.5t77.5 30.5q29 0 49 -11.5t37.5 -22.5t38.5 -11q17 0 28.5 11t14.5 34h71q-10 -67 -41.5 -98t-78.5 -31z" />
    <glyph glyph-name="Ygrave" unicode="&#x1ef2;" horiz-adv-x="633" 
d="M249 0v246l-236 454h153l170 -355h-36l169 355h151l-236 -454v-246h-135zM431 743l-228 108v108v0l228 -121v-95z" />
    <glyph glyph-name="ygrave" unicode="&#x1ef3;" horiz-adv-x="603" 
d="M128 -220l124 276h-30l-203 440h147l145 -318v0l130 318h144l-314 -716h-143zM416 539l-228 108v108v0l228 -121v-95z" />
    <glyph glyph-name="uni1EF8" unicode="&#x1ef8;" horiz-adv-x="633" 
d="M249 0v246l-236 454h153l170 -355h-36l169 355h151l-236 -454v-246h-135zM380 751q-29 0 -49.5 11.5t-37.5 23t-38 11.5q-16 0 -27.5 -11t-15.5 -34h-71q11 67 42.5 97.5t77.5 30.5q29 0 49 -11.5t37.5 -23t38.5 -11.5q17 0 28.5 11.5t14.5 33.5h71q-10 -66 -41.5 -97
t-78.5 -31z" />
    <glyph glyph-name="uni1EF9" unicode="&#x1ef9;" horiz-adv-x="603" 
d="M128 -220l124 276h-30l-203 440h147l145 -318v0l130 318h144l-314 -716h-143zM361 562q-29 0 -49.5 11.5t-37.5 23t-38 11.5q-16 0 -27.5 -11t-15.5 -34h-71q11 67 42.5 97.5t77.5 30.5q29 0 49 -11.5t37.5 -22.5t38.5 -11q17 0 28.5 11t14.5 34h71q-10 -67 -41.5 -98
t-78.5 -31z" />
    <glyph glyph-name="endash" unicode="&#x2013;" horiz-adv-x="696" 
d="M77 233v113h542v-113h-542z" />
    <glyph glyph-name="emdash" unicode="&#x2014;" horiz-adv-x="919" 
d="M77 233v113h764v-113h-764z" />
    <glyph glyph-name="quoteleft" unicode="&#x2018;" horiz-adv-x="255" 
d="M30 451l103 249h92l-54 -249h-141z" />
    <glyph glyph-name="quoteright" unicode="&#x2019;" horiz-adv-x="255" 
d="M225 700l-103 -249h-92l54 249h141z" />
    <glyph glyph-name="quotesinglbase" unicode="&#x201a;" horiz-adv-x="248" 
d="M19 -111l54 249h142l-104 -249h-92z" />
    <glyph glyph-name="quotedblleft" unicode="&#x201c;" horiz-adv-x="453" 
d="M228 451l104 249h91l-54 -249h-141zM30 451l103 249h92l-54 -249h-141z" />
    <glyph glyph-name="quotedblright" unicode="&#x201d;" horiz-adv-x="453" 
d="M225 700l-103 -249h-92l54 249h141zM423 700l-103 -249h-92l54 249h141z" />
    <glyph glyph-name="quotedblbase" unicode="&#x201e;" horiz-adv-x="446" 
d="M19 -111l54 249h142l-104 -249h-92zM218 -111l54 249h140l-102 -249h-92z" />
    <glyph glyph-name="dagger" unicode="&#x2020;" horiz-adv-x="603" 
d="M234 -263l13 723l-201 -10v104l201 -11l-13 242h135l-14 -242l201 11v-104l-201 10l14 -723h-135z" />
    <glyph glyph-name="daggerdbl" unicode="&#x2021;" horiz-adv-x="604" 
d="M234 -263l14 242l-201 -10v104l201 -11v398l-201 -10v104l201 -11l-14 242h135l-14 -242l202 11v-104l-202 10v-398l202 11v-104l-202 10l14 -242h-135z" />
    <glyph glyph-name="bullet" unicode="&#x2022;" horiz-adv-x="383" 
d="M191 195q-38 0 -69 18.5t-49.5 50t-18.5 69.5q0 39 18.5 70.5t49.5 50t69 18.5q39 0 70.5 -18.5t49.5 -50t18 -70.5q0 -38 -18 -69.5t-49.5 -50t-70.5 -18.5z" />
    <glyph glyph-name="ellipsis" unicode="&#x2026;" horiz-adv-x="681" 
d="M341 -5q-38 0 -61 22.5t-23 55.5t23 55.5t61 22.5q37 0 60 -22.5t23 -55.5t-23 -55.5t-60 -22.5zM559 -5q-38 0 -61 22.5t-23 55.5t23 55.5t61 22.5q37 0 60 -22.5t23 -55.5t-23 -55.5t-60 -22.5zM124 -5q-38 0 -61 22.5t-23 55.5t23 55.5t61 22.5q37 0 60 -22.5
t23 -55.5t-23 -55.5t-60 -22.5z" />
    <glyph glyph-name="perthousand" unicode="&#x2030;" horiz-adv-x="1265" 
d="M1052 -12q-49 0 -88.5 21.5t-62.5 62t-23 95.5q0 56 23.5 96t63 61.5t88.5 21.5q48 0 87 -21.5t62 -61.5t23 -96q0 -55 -23 -95.5t-62 -62t-88 -21.5zM1051 80q20 0 35.5 10t24.5 29.5t9 47.5q0 30 -8.5 49t-24 29.5t-35.5 10.5t-35.5 -10.5t-24.5 -29.5t-9 -49
q0 -28 9 -47.5t24.5 -29.5t34.5 -10zM180 0l393 700h131l-393 -700h-131zM674 -12q-48 0 -87.5 21.5t-63 62t-23.5 95.5q0 56 23.5 96t63 61.5t87.5 21.5q50 0 88.5 -21.5t61.5 -61.5t23 -96q0 -55 -23 -95.5t-62 -62t-88 -21.5zM673 81q20 0 35.5 10t24.5 29t9 47
q0 29 -9 48.5t-24 29.5t-35 10q-19 0 -34.5 -10t-24.5 -29.5t-9 -48.5q0 -28 9 -47t24 -29t34 -10zM214 353q-48 0 -87.5 22t-63 62t-23.5 95q0 57 23.5 96.5t63 61.5t88.5 22t87.5 -22t62 -61.5t23.5 -96.5q0 -55 -23.5 -95t-62.5 -62t-88 -22zM214 446q19 0 34.5 10
t24.5 29t9 47q0 30 -9 49t-24.5 29t-34.5 10t-34.5 -10t-24.5 -29.5t-9 -48.5q0 -28 9 -47t24.5 -29t34.5 -10z" />
    <glyph glyph-name="guilsinglleft" unicode="&#x2039;" horiz-adv-x="308" 
d="M131 120l-89 175l89 175h127l-92 -175l92 -175h-127z" />
    <glyph glyph-name="guilsinglright" unicode="&#x203a;" horiz-adv-x="308" 
d="M177 120h-127l92 175l-92 175h127l89 -175z" />
    <glyph glyph-name="fraction" unicode="&#x2044;" horiz-adv-x="512" 
d="M-4 0l393 700h132l-394 -700h-131z" />
    <glyph glyph-name="uni2074" unicode="&#x2074;" horiz-adv-x="350" 
d="M191 352v61h-165v68l154 219h111v-217h37v-70h-37v-61h-100zM128 483h71v107v0z" />
    <glyph glyph-name="uni20A8" unicode="&#x20a8;" horiz-adv-x="1119" 
d="M67 0v700h262q84 0 139.5 -29t82.5 -77.5t27 -107.5q0 -56 -26.5 -104.5t-82 -78t-142.5 -29.5h-125v-274h-135zM430 0l-144 308h146l152 -308h-154zM202 372h118q62 0 91 30t29 79t-29 77.5t-91 28.5h-118v-215zM862 -12q-66 0 -116.5 22t-81 60.5t-35.5 87.5h135
q4 -18 17 -33.5t33 -24.5t46 -9q28 0 44.5 7.5t25 20t8.5 25.5q0 20 -12.5 30.5t-35.5 17.5t-55 15q-33 8 -66.5 18t-61.5 25.5t-45 39.5t-17 61q0 44 24.5 79.5t70 56.5t108.5 21q90 0 143.5 -41t62.5 -113h-127q-5 24 -25.5 37t-53.5 13q-35 0 -53.5 -13t-18.5 -32
q0 -14 13 -24t36.5 -17.5t54.5 -14.5q54 -13 97 -27.5t69.5 -42.5t26.5 -82q1 -46 -25 -83t-73 -58.5t-113 -21.5z" />
    <glyph glyph-name="Euro" unicode="&#x20ac;" horiz-adv-x="792" 
d="M21 236v78h432v-78h-432zM21 385v78h432v-78h-432zM437 -12q-106 0 -182.5 45.5t-117.5 127t-41 188.5t41 189t117.5 128t182.5 46q127 0 208.5 -63t101.5 -178h-149q-12 56 -53 87.5t-109 31.5q-64 0 -109 -29.5t-69 -83t-24 -128.5q0 -74 24 -128t69 -83t109 -29
q68 0 108.5 29.5t53.5 82.5h149q-20 -109 -101.5 -171t-208.5 -62z" />
    <glyph glyph-name="uni20B9" unicode="&#x20b9;" horiz-adv-x="615" 
d="M292 -12q-106 0 -162 56.5t-56 167.5v136q93 0 148 5.5t81.5 21t35 48.5t8.5 88v141h127v-138q0 -65 -14 -113.5t-45.5 -80t-84.5 -47t-130 -15.5v-61q0 -47 20 -76.5t70 -29.5q48 0 68 28t20 77h124q-2 -99 -55 -153.5t-155 -54.5zM44 440v86h535v-86h-535zM44 607v93
h535v-93h-535z" />
    <glyph glyph-name="uni20BA" unicode="&#x20ba;" horiz-adv-x="826" 
d="M379 -12q-49 0 -103 7t-113 18v687h137v-579q21 -4 40 -5.5t38 -1.5q70 0 116 23.5t72 66.5t37 103t11 131h138q0 -153 -37.5 -252.5t-119.5 -148.5t-216 -49zM21 215v87l433 90v-87zM19 379v85l436 93v-86z" />
    <glyph glyph-name="uni20BD" unicode="&#x20bd;" horiz-adv-x="652" 
d="M27 100v104h91v77h-91v105h91v314h254q84 0 139.5 -27.5t83 -75t27.5 -106.5q0 -57 -26.5 -104.5t-81.5 -76.5t-142 -29h-119v-77h183v-104h-183v-100h-135v100h-91zM253 386h114q62 0 90 29t28 76t-28 76t-90 29h-114v-210z" />
    <glyph glyph-name="uni2113" unicode="&#x2113;" horiz-adv-x="269" 
d="M67 -100v820h135v-820h-135z" />
    <glyph glyph-name="trademark" unicode="&#x2122;" horiz-adv-x="837" 
d="M27 620v80h270v-80h-85v-271h-100v271h-85zM349 349v351h133l88 -231l97 231h123v-351h-92v230l-97 -230h-68l-95 233v-233h-89z" />
    <glyph glyph-name="uni2126" unicode="&#x2126;" horiz-adv-x="788" 
d="M47 0v104h194l-21 -33q-64 27 -104 71.5t-59 101.5t-19 120q0 80 27.5 143.5t76.5 109.5t113.5 70.5t138.5 24.5q75 0 139.5 -24.5t113.5 -70.5t76.5 -109.5t27.5 -143.5q0 -63 -19 -120t-59 -101.5t-105 -71.5l-21 33h194v-104h-271v107q42 21 74.5 55.5t50.5 81.5
t18 106q0 56 -16 100t-45 75t-69.5 47.5t-88.5 16.5q-49 0 -89 -16.5t-69 -47.5t-45 -75.5t-16 -99.5q0 -59 18.5 -106t51 -81.5t74.5 -55.5v-107h-272z" />
    <glyph glyph-name="estimated" unicode="&#x212e;" horiz-adv-x="754" 
d="M386 -7q-99 0 -177 40t-123.5 116t-45.5 185q0 104 39.5 189t114.5 134.5t183 49.5q81 0 143.5 -27t105.5 -73.5t65 -105t22 -121.5v-62h-507v-173q36 -35 79.5 -52.5t100.5 -17.5q49 0 91.5 14t81 40t75.5 63l51 -57q-63 -67 -137 -104.5t-162 -37.5zM206 395h337v170
q-29 31 -72 46.5t-94 15.5q-54 0 -97 -17.5t-74 -52.5v-162z" />
    <glyph glyph-name="arrowleft" unicode="&#x2190;" horiz-adv-x="780" 
d="M738 287h-510l250 -225l-86 -85l-354 331v79l354 330l85 -85l-250 -225h511v-120z" />
    <glyph glyph-name="arrowup" unicode="&#x2191;" horiz-adv-x="878" 
d="M34 346l365 354h80l365 -354l-85 -85l-256 251v-512h-128v512l-256 -251z" />
    <glyph glyph-name="arrowright" unicode="&#x2192;" horiz-adv-x="780" 
d="M42 287v120h511l-250 225l85 85l354 -330v-79l-354 -331l-86 85l250 225h-510z" />
    <glyph glyph-name="arrowdown" unicode="&#x2193;" horiz-adv-x="890" 
d="M40 354l85 85l256 -251v512h128v-512l256 251l85 -85l-365 -354h-80z" />
    <glyph glyph-name="arrowboth" unicode="&#x2194;" horiz-adv-x="952" 
d="M40 306v80l294 318l85 -72l-212 -224h538l-212 224l85 72l294 -318v-80l-294 -319l-85 72l215 229h-544l215 -229l-85 -72z" />
    <glyph glyph-name="arrowupdn" unicode="&#x2195;" horiz-adv-x="816" 
d="M42 216l70 85l235 -154v407l-235 -153l-70 84l326 217h80l326 -217l-70 -84l-235 152v-404l235 152l70 -85l-326 -216h-80z" />
    <glyph glyph-name="uni2196" unicode="&#x2196;" horiz-adv-x="658" 
d="M526 45l-362 363v-360h-118v511l56 57h510v-118h-361l364 -363z" />
    <glyph glyph-name="uni2197" unicode="&#x2197;" horiz-adv-x="652" 
d="M132 57l-89 90l364 363h-361v118h510l56 -57v-511h-117v360z" />
    <glyph glyph-name="uni2198" unicode="&#x2198;" horiz-adv-x="658" 
d="M132 627l363 -363v360h117v-511l-56 -57h-510v118h361l-364 363z" />
    <glyph glyph-name="uni2199" unicode="&#x2199;" horiz-adv-x="658" 
d="M526 627l89 -90l-364 -363h361v-118h-510l-56 57v511h118v-360z" />
    <glyph glyph-name="partialdiff" unicode="&#x2202;" horiz-adv-x="595" 
d="M254 -8q-59 0 -108.5 26.5t-79.5 81t-30 137.5q0 68 20.5 127t57 102.5t86 68t106.5 24.5q26 0 49 -6.5t41.5 -22.5t31.5 -43q-4 52 -21 91t-49 61.5t-84 22.5q-17 0 -34.5 -2.5t-37.5 -6.5v71q30 9 56.5 12.5t50.5 3.5q82 0 137.5 -40t84 -114t28.5 -178
q0 -129 -39 -222.5t-107.5 -143.5t-158.5 -50zM267 107q33 0 59.5 17t45.5 46t29.5 68t10.5 82q0 65 -26.5 95.5t-69.5 30.5q-32 0 -58.5 -15.5t-45.5 -44t-29 -66.5t-10 -82q0 -68 27.5 -99.5t66.5 -31.5z" />
    <glyph glyph-name="uni2206" unicode="&#x2206;" horiz-adv-x="714" 
d="M22 0v103l279 597h111l280 -597v-103h-670zM160 103h394l-197 444z" />
    <glyph glyph-name="product" unicode="&#x220f;" horiz-adv-x="738" 
d="M101 0v596h-74v104h684v-104h-74v-596h-135v596h-266v-596h-135z" />
    <glyph glyph-name="summation" unicode="&#x2211;" horiz-adv-x="500" 
d="M44 -50v157l246 224l-245 213v156h429v-103h-316l260 -217v-98l-256 -228h311v-104h-429z" />
    <glyph glyph-name="minus" unicode="&#x2212;" horiz-adv-x="579" 
d="M79 233v113h422v-113h-422z" />
    <glyph glyph-name="uni2215" unicode="&#x2215;" horiz-adv-x="426" 
d="M22 -114l250 893h131l-250 -893h-131z" />
    <glyph glyph-name="radical" unicode="&#x221a;" horiz-adv-x="793" 
d="M19 224l192 113l126 -223l424 774h86l-511 -930h-66l-137 244l-75 -43z" />
    <glyph glyph-name="infinity" unicode="&#x221e;" horiz-adv-x="746" 
d="M198 126q-71 0 -118 42t-47 117q0 53 22.5 89.5t60.5 55.5t85 19t81.5 -16.5t61 -43t48.5 -56t43 -56t45 -43.5t54 -17q32 0 51.5 19t19.5 52q0 34 -18.5 51.5t-48.5 17.5q-39 0 -73 -27t-52 -73l-67 30q12 43 39 79.5t68.5 60t94.5 22.5q72 0 118.5 -42t46.5 -117
q0 -52 -22.5 -89t-61 -56t-85.5 -19t-82.5 16.5t-63.5 43t-51.5 56t-45.5 56t-44 43.5t-50 17t-47 -18.5t-19 -52.5q0 -33 19 -51t49 -18q39 0 73 27.5t51 72.5l67 -30q-11 -41 -38 -78.5t-68.5 -60.5t-95.5 -23z" />
    <glyph glyph-name="integral" unicode="&#x222b;" horiz-adv-x="278" 
d="M-45 -235l11 114h19q21 0 31 12t13 39l89 838q7 62 32 97.5t65.5 50.5t92.5 15h19l-11 -115h-18q-20 0 -31 -10.5t-14 -37.5l-89 -838q-7 -62 -31.5 -98.5t-65 -51.5t-92.5 -15h-20z" />
    <glyph glyph-name="approxequal" unicode="&#x2248;" horiz-adv-x="579" 
d="M377 83q-31 0 -55.5 10t-45.5 23t-41 23t-42 10q-25 0 -42 -17t-22 -49h-100q11 65 35 106.5t59 60.5t78 19q32 0 56.5 -10t45 -23t40.5 -23t42 -10q26 0 43 17t21 49h100q-9 -65 -33.5 -106t-59.5 -60.5t-79 -19.5zM377 315q-31 0 -55.5 10t-45.5 23t-41 23t-42 10
q-25 0 -42 -17t-22 -49h-100q11 65 35 106.5t59 60.5t78 19q32 0 56.5 -10t45 -23t40.5 -23t42 -10q26 0 43 17t21 49h100q-9 -65 -33.5 -106t-59.5 -60.5t-79 -19.5z" />
    <glyph glyph-name="notequal" unicode="&#x2260;" horiz-adv-x="579" 
d="M94 51l251 476h105l-251 -476h-105zM75 342v118h429v-118h-429zM75 118v118h429v-118h-429z" />
    <glyph glyph-name="lessequal" unicode="&#x2264;" horiz-adv-x="579" 
d="M485 169h-170l-222 188v0l222 188h170l-219 -188zM485 0h-378v103h378v-103z" />
    <glyph glyph-name="greaterequal" unicode="&#x2265;" horiz-adv-x="579" 
d="M94 169l219 188l-219 188h170l222 -188v0l-222 -188h-170zM95 0v103h377v-103h-377z" />
    <glyph glyph-name="lozenge" unicode="&#x25ca;" horiz-adv-x="560" 
d="M280 98l-253 254l254 252l252 -252zM280 233l118 119l-117 118l-118 -118z" />
    <glyph glyph-name="Q.ss06" horiz-adv-x="792" 
d="M582 -137l-201 196l130 30l233 -226h-162zM396 -12q-104 0 -183 46t-123.5 127.5t-44.5 188.5t44.5 188.5t123.5 127.5t183 46t183.5 -46t124 -127.5t44.5 -188.5t-44.5 -188.5t-124 -127.5t-183.5 -46zM396 109q65 0 113 29.5t74.5 83.5t26.5 128q0 75 -26.5 128.5
t-74.5 82.5t-113 29t-113 -29t-74.5 -82.5t-26.5 -128.5q0 -74 26.5 -128t74.5 -83.5t113 -29.5z" />
    <glyph glyph-name="i.loclTRK" horiz-adv-x="265" 
d="M65 0v496h135v-496h-135zM132 563q-26 0 -44.5 18.5t-18.5 44.5q0 28 18.5 46.5t44.5 18.5q28 0 46.5 -18.5t18.5 -46.5q0 -26 -18.5 -44.5t-46.5 -18.5z" />
    <glyph glyph-name="a.ss02" horiz-adv-x="656" 
d="M293 -12q-69 0 -124.5 34t-87.5 93.5t-32 133.5q0 75 32 133.5t87.5 92t124.5 33.5q55 0 96.5 -20.5t66.5 -56.5l8 65h127v-496h-126l-9 69v0q-23 -32 -62.5 -56.5t-100.5 -24.5zM323 106q40 0 71 18.5t48.5 50.5t17.5 73q0 42 -17.5 74t-48.5 50t-71 18q-39 0 -70.5 -18
t-48.5 -50t-17 -73q0 -42 17 -74t48.5 -50.5t70.5 -18.5z" />
    <glyph glyph-name="aacute.ss02" horiz-adv-x="656" 
d="M293 -12q-69 0 -124.5 34t-87.5 93.5t-32 133.5q0 75 32 133.5t87.5 92t124.5 33.5q55 0 96.5 -20.5t66.5 -56.5l8 65h127v-496h-126l-9 69v0q-23 -32 -62.5 -56.5t-100.5 -24.5zM323 106q40 0 71 18.5t48.5 50.5t17.5 73q0 42 -17.5 74t-48.5 50t-71 18q-39 0 -70.5 -18
t-48.5 -50t-17 -73q0 -42 17 -74t48.5 -50.5t70.5 -18.5zM207 538v95l228 121v0v-108z" />
    <glyph glyph-name="abreve.ss02" horiz-adv-x="656" 
d="M293 -12q-69 0 -124.5 34t-87.5 93.5t-32 133.5q0 75 32 133.5t87.5 92t124.5 33.5q55 0 96.5 -20.5t66.5 -56.5l8 65h127v-496h-126l-9 69v0q-23 -32 -62.5 -56.5t-100.5 -24.5zM323 106q40 0 71 18.5t48.5 50.5t17.5 73q0 42 -17.5 74t-48.5 50t-71 18q-39 0 -70.5 -18
t-48.5 -50t-17 -73q0 -42 17 -74t48.5 -50.5t70.5 -18.5zM322 554q-49 0 -84.5 19t-54.5 53.5t-19 82.5v17h71q0 -33 19 -52t68 -19q48 0 67.5 19t19.5 52h71v-17q0 -48 -19.5 -83t-55 -53.5t-83.5 -18.5z" />
    <glyph glyph-name="acircumflex.ss02" horiz-adv-x="656" 
d="M293 -12q-69 0 -124.5 34t-87.5 93.5t-32 133.5q0 75 32 133.5t87.5 92t124.5 33.5q55 0 96.5 -20.5t66.5 -56.5l8 65h127v-496h-126l-9 69v0q-23 -32 -62.5 -56.5t-100.5 -24.5zM323 106q40 0 71 18.5t48.5 50.5t17.5 73q0 42 -17.5 74t-48.5 50t-71 18q-39 0 -70.5 -18
t-48.5 -50t-17 -73q0 -42 17 -74t48.5 -50.5t70.5 -18.5zM174 541v96l148 80l147 -80v-96l-147 83z" />
    <glyph glyph-name="adieresis.ss02" horiz-adv-x="656" 
d="M293 -12q-69 0 -124.5 34t-87.5 93.5t-32 133.5q0 75 32 133.5t87.5 92t124.5 33.5q55 0 96.5 -20.5t66.5 -56.5l8 65h127v-496h-126l-9 69v0q-23 -32 -62.5 -56.5t-100.5 -24.5zM323 106q40 0 71 18.5t48.5 50.5t17.5 73q0 42 -17.5 74t-48.5 50t-71 18q-39 0 -70.5 -18
t-48.5 -50t-17 -73q0 -42 17 -74t48.5 -50.5t70.5 -18.5zM229 561q-26 0 -44.5 18.5t-18.5 44.5q0 28 18.5 46.5t44.5 18.5q28 0 46.5 -18.5t18.5 -46.5q0 -26 -18.5 -44.5t-46.5 -18.5zM413 561q-27 0 -45.5 18.5t-18.5 44.5q0 28 18.5 46.5t45.5 18.5t45.5 -18.5
t18.5 -46.5q0 -26 -18.5 -44.5t-45.5 -18.5z" />
    <glyph glyph-name="agrave.ss02" horiz-adv-x="656" 
d="M293 -12q-69 0 -124.5 34t-87.5 93.5t-32 133.5q0 75 32 133.5t87.5 92t124.5 33.5q55 0 96.5 -20.5t66.5 -56.5l8 65h127v-496h-126l-9 69v0q-23 -32 -62.5 -56.5t-100.5 -24.5zM323 106q40 0 71 18.5t48.5 50.5t17.5 73q0 42 -17.5 74t-48.5 50t-71 18q-39 0 -70.5 -18
t-48.5 -50t-17 -73q0 -42 17 -74t48.5 -50.5t70.5 -18.5zM435 538l-228 108v108v0l228 -121v-95z" />
    <glyph glyph-name="amacron.ss02" horiz-adv-x="656" 
d="M293 -12q-69 0 -124.5 34t-87.5 93.5t-32 133.5q0 75 32 133.5t87.5 92t124.5 33.5q55 0 96.5 -20.5t66.5 -56.5l8 65h127v-496h-126l-9 69v0q-23 -32 -62.5 -56.5t-100.5 -24.5zM323 106q40 0 71 18.5t48.5 50.5t17.5 73q0 42 -17.5 74t-48.5 50t-71 18q-39 0 -70.5 -18
t-48.5 -50t-17 -73q0 -42 17 -74t48.5 -50.5t70.5 -18.5zM132 585v95h378v-95h-378z" />
    <glyph glyph-name="aogonek.ss02" horiz-adv-x="656" 
d="M293 -12q-69 0 -124.5 34t-87.5 93.5t-32 133.5q0 75 32 133.5t87.5 92t124.5 33.5q55 0 96.5 -20.5t66.5 -56.5l8 65h127v-496h-126l-9 69v0q-23 -32 -62.5 -56.5t-100.5 -24.5zM323 106q40 0 71 18.5t48.5 50.5t17.5 73q0 42 -17.5 74t-48.5 50t-71 18q-39 0 -70.5 -18
t-48.5 -50t-17 -73q0 -42 17 -74t48.5 -50.5t70.5 -18.5zM508 -211q-37 0 -68 11t-49.5 35t-18.5 60q0 27 13 52t44.5 49t86.5 47l45 20l30 -63l-51 -25q-36 -18 -51 -34t-15 -34t13.5 -29t37.5 -11q15 0 33.5 4t37.5 11v-79q-19 -7 -41.5 -10.5t-46.5 -3.5z" />
    <glyph glyph-name="aring.ss02" horiz-adv-x="656" 
d="M293 -12q-69 0 -124.5 34t-87.5 93.5t-32 133.5q0 75 32 133.5t87.5 92t124.5 33.5q55 0 96.5 -20.5t66.5 -56.5l8 65h127v-496h-126l-9 69v0q-23 -32 -62.5 -56.5t-100.5 -24.5zM323 106q40 0 71 18.5t48.5 50.5t17.5 73q0 42 -17.5 74t-48.5 50t-71 18q-39 0 -70.5 -18
t-48.5 -50t-17 -73q0 -42 17 -74t48.5 -50.5t70.5 -18.5zM321 561q-47 0 -81 30.5t-34 83.5q0 52 34 82.5t81 30.5q48 0 82 -30.5t34 -82.5q0 -53 -34 -83.5t-82 -30.5zM321 621q22 0 37 14.5t15 39.5t-15 39t-37 14q-21 0 -36 -14t-15 -39t15 -39.5t36 -14.5z" />
    <glyph glyph-name="atilde.ss02" horiz-adv-x="656" 
d="M293 -12q-69 0 -124.5 34t-87.5 93.5t-32 133.5q0 75 32 133.5t87.5 92t124.5 33.5q55 0 96.5 -20.5t66.5 -56.5l8 65h127v-496h-126l-9 69v0q-23 -32 -62.5 -56.5t-100.5 -24.5zM323 106q40 0 71 18.5t48.5 50.5t17.5 73q0 42 -17.5 74t-48.5 50t-71 18q-39 0 -70.5 -18
t-48.5 -50t-17 -73q0 -42 17 -74t48.5 -50.5t70.5 -18.5zM380 561q-29 0 -49.5 11.5t-37.5 23t-38 11.5q-16 0 -27.5 -11t-15.5 -34h-71q11 67 42.5 97.5t77.5 30.5q29 0 49 -11.5t37.5 -22.5t38.5 -11q17 0 28.5 11t14.5 34h71q-10 -67 -41.5 -98t-78.5 -31z" />
    <glyph glyph-name="ae.ss02" horiz-adv-x="1015" 
d="M300 -12q-73 0 -129.5 34t-89 93.5t-32.5 133.5q0 75 32 133.5t87.5 92t124.5 33.5q53 0 94.5 -18.5t64.5 -53.5l9 60h107v-54q31 34 72.5 50t89.5 16q72 0 126 -32t85 -87.5t31 -125.5q0 -10 -0.5 -22.5t-2.5 -25.5h-373q3 -36 19.5 -62.5t44 -40.5t60.5 -14
q40 0 67.5 21t40.5 52h134q-13 -52 -45.5 -93.5t-81 -65.5t-110.5 -24q-48 0 -87.5 14.5t-69.5 40.5l-1 -43h-106l-9 43v0q-22 -22 -47 -34t-51 -16.5t-54 -4.5zM323 106q40 0 71 18.5t48.5 50.5t17.5 73q0 42 -17.5 74t-48.5 50t-71 18q-39 0 -70 -18t-48.5 -50t-17.5 -73
q0 -42 17.5 -74t48.5 -50.5t70 -18.5zM599 298h236q-3 45 -35 73t-79 28q-30 0 -55.5 -11.5t-43 -33.5t-23.5 -56z" />
    <glyph glyph-name="aeacute.ss02" horiz-adv-x="1015" 
d="M300 -12q-73 0 -129.5 34t-89 93.5t-32.5 133.5q0 75 32 133.5t87.5 92t124.5 33.5q53 0 94.5 -18.5t64.5 -53.5l9 60h107v-54q31 34 72.5 50t89.5 16q72 0 126 -32t85 -87.5t31 -125.5q0 -10 -0.5 -22.5t-2.5 -25.5h-373q3 -36 19.5 -62.5t44 -40.5t60.5 -14
q40 0 67.5 21t40.5 52h134q-13 -52 -45.5 -93.5t-81 -65.5t-110.5 -24q-48 0 -87.5 14.5t-69.5 40.5l-1 -43h-106l-9 43v0q-22 -22 -47 -34t-51 -16.5t-54 -4.5zM323 106q40 0 71 18.5t48.5 50.5t17.5 73q0 42 -17.5 74t-48.5 50t-71 18q-39 0 -70 -18t-48.5 -50t-17.5 -73
q0 -42 17.5 -74t48.5 -50.5t70 -18.5zM599 298h236q-3 45 -35 73t-79 28q-30 0 -55.5 -11.5t-43 -33.5t-23.5 -56zM402 539v95l228 121v0v-108z" />
    <glyph glyph-name="g.ss03" horiz-adv-x="666" 
d="M334 -232q-48 0 -93 11.5t-82.5 36t-62.5 62.5t-31 91h134q6 -25 24 -44.5t46 -29.5t61 -10q37 0 67.5 15t49.5 45.5t19 78.5v60q-15 -23 -38.5 -42.5t-56 -31.5t-73.5 -12q-71 0 -127.5 34t-89 91.5t-32.5 130.5q0 72 32.5 129.5t89.5 91t127 33.5q37 0 69 -10.5
t57 -28.5t42 -40v0l13 67h122v-465q0 -65 -21.5 -114t-58.5 -82t-85 -50t-102 -17zM326 115q41 0 72.5 18.5t49 49.5t17.5 70q0 40 -17.5 70.5t-49 48.5t-72.5 18t-72.5 -18t-49 -48.5t-17.5 -69.5t17.5 -70.5t49 -50t72.5 -18.5z" />
    <glyph glyph-name="gbreve.ss03" horiz-adv-x="666" 
d="M334 -232q-48 0 -93 11.5t-82.5 36t-62.5 62.5t-31 91h134q6 -25 24 -44.5t46 -29.5t61 -10q37 0 67.5 15t49.5 45.5t19 78.5v60q-15 -23 -38.5 -42.5t-56 -31.5t-73.5 -12q-71 0 -127.5 34t-89 91.5t-32.5 130.5q0 72 32.5 129.5t89.5 91t127 33.5q37 0 69 -10.5
t57 -28.5t42 -40v0l13 67h122v-465q0 -65 -21.5 -114t-58.5 -82t-85 -50t-102 -17zM326 115q41 0 72.5 18.5t49 49.5t17.5 70q0 40 -17.5 70.5t-49 48.5t-72.5 18t-72.5 -18t-49 -48.5t-17.5 -69.5t17.5 -70.5t49 -50t72.5 -18.5zM334 555q-49 0 -84.5 19t-54.5 53.5
t-19 82.5v17h71q0 -33 19 -52t68 -19q48 0 67.5 19t19.5 52h71v-17q0 -48 -19.5 -83t-55 -53.5t-83.5 -18.5z" />
    <glyph glyph-name="uni0123.ss03" horiz-adv-x="666" 
d="M334 -232q-48 0 -93 11.5t-82.5 36t-62.5 62.5t-31 91h134q6 -25 24 -44.5t46 -29.5t61 -10q37 0 67.5 15t49.5 45.5t19 78.5v60q-15 -23 -38.5 -42.5t-56 -31.5t-73.5 -12q-71 0 -127.5 34t-89 91.5t-32.5 130.5q0 72 32.5 129.5t89.5 91t127 33.5q37 0 69 -10.5
t57 -28.5t42 -40v0l13 67h122v-465q0 -65 -21.5 -114t-58.5 -82t-85 -50t-102 -17zM326 115q41 0 72.5 18.5t49 49.5t17.5 70q0 40 -17.5 70.5t-49 48.5t-72.5 18t-72.5 -18t-49 -48.5t-17.5 -69.5t17.5 -70.5t49 -50t72.5 -18.5zM393 774v-55q-23 0 -35 -8.5t-12 -27.5v-19
h47v-106h-105q-6 30 -9.5 52t-3.5 46q0 57 30 87.5t88 30.5z" />
    <glyph glyph-name="gdotaccent.ss03" horiz-adv-x="666" 
d="M334 -232q-48 0 -93 11.5t-82.5 36t-62.5 62.5t-31 91h134q6 -25 24 -44.5t46 -29.5t61 -10q37 0 67.5 15t49.5 45.5t19 78.5v60q-15 -23 -38.5 -42.5t-56 -31.5t-73.5 -12q-71 0 -127.5 34t-89 91.5t-32.5 130.5q0 72 32.5 129.5t89.5 91t127 33.5q37 0 69 -10.5
t57 -28.5t42 -40v0l13 67h122v-465q0 -65 -21.5 -114t-58.5 -82t-85 -50t-102 -17zM326 115q41 0 72.5 18.5t49 49.5t17.5 70q0 40 -17.5 70.5t-49 48.5t-72.5 18t-72.5 -18t-49 -48.5t-17.5 -69.5t17.5 -70.5t49 -50t72.5 -18.5zM332 563q-26 0 -44.5 18.5t-18.5 44.5
q0 28 18.5 46.5t44.5 18.5q28 0 46.5 -18.5t18.5 -46.5q0 -26 -18.5 -44.5t-46.5 -18.5z" />
    <glyph glyph-name="u.ss04" horiz-adv-x="607" 
d="M304 -12q-124 0 -185.5 62.5t-61.5 176.5v269h134v-258q0 -48 12 -81t37 -49.5t64 -16.5q40 0 64.5 16.5t36 49.5t11.5 81v258h135v-269q0 -114 -61.5 -176.5t-185.5 -62.5z" />
    <glyph glyph-name="uacute.ss04" horiz-adv-x="607" 
d="M304 -12q-124 0 -185.5 62.5t-61.5 176.5v269h134v-258q0 -48 12 -81t37 -49.5t64 -16.5q40 0 64.5 16.5t36 49.5t11.5 81v258h135v-269q0 -114 -61.5 -176.5t-185.5 -62.5zM190 539v95l228 121v0v-108z" />
    <glyph glyph-name="ubreve.ss04" horiz-adv-x="607" 
d="M304 -12q-124 0 -185.5 62.5t-61.5 176.5v269h134v-258q0 -48 12 -81t37 -49.5t64 -16.5q40 0 64.5 16.5t36 49.5t11.5 81v258h135v-269q0 -114 -61.5 -176.5t-185.5 -62.5zM305 555q-49 0 -84.5 19t-54.5 53.5t-19 82.5v17h71q0 -33 19 -52t68 -19q48 0 67.5 19t19.5 52
h71v-17q0 -48 -19.5 -83t-55 -53.5t-83.5 -18.5z" />
    <glyph glyph-name="ucircumflex.ss04" horiz-adv-x="607" 
d="M304 -12q-124 0 -185.5 62.5t-61.5 176.5v269h134v-258q0 -48 12 -81t37 -49.5t64 -16.5q40 0 64.5 16.5t36 49.5t11.5 81v258h135v-269q0 -114 -61.5 -176.5t-185.5 -62.5zM157 542v96l148 80l147 -80v-96l-147 83z" />
    <glyph glyph-name="udieresis.ss04" horiz-adv-x="607" 
d="M304 -12q-124 0 -185.5 62.5t-61.5 176.5v269h134v-258q0 -48 12 -81t37 -49.5t64 -16.5q40 0 64.5 16.5t36 49.5t11.5 81v258h135v-269q0 -114 -61.5 -176.5t-185.5 -62.5zM212 562q-26 0 -44.5 18.5t-18.5 44.5q0 28 18.5 46.5t44.5 18.5q28 0 46.5 -18.5t18.5 -46.5
q0 -26 -18.5 -44.5t-46.5 -18.5zM396 562q-27 0 -45.5 18.5t-18.5 44.5q0 28 18.5 46.5t45.5 18.5t45.5 -18.5t18.5 -46.5q0 -26 -18.5 -44.5t-45.5 -18.5z" />
    <glyph glyph-name="ugrave.ss04" horiz-adv-x="607" 
d="M304 -12q-124 0 -185.5 62.5t-61.5 176.5v269h134v-258q0 -48 12 -81t37 -49.5t64 -16.5q40 0 64.5 16.5t36 49.5t11.5 81v258h135v-269q0 -114 -61.5 -176.5t-185.5 -62.5zM418 539l-228 108v108v0l228 -121v-95z" />
    <glyph glyph-name="uhungarumlaut.ss04" horiz-adv-x="607" 
d="M304 -12q-124 0 -185.5 62.5t-61.5 176.5v269h134v-258q0 -48 12 -81t37 -49.5t64 -16.5q40 0 64.5 16.5t36 49.5t11.5 81v258h135v-269q0 -114 -61.5 -176.5t-185.5 -62.5zM338 543l82 184h110l-108 -184h-84zM164 543l71 184h110l-96 -184h-85z" />
    <glyph glyph-name="umacron.ss04" horiz-adv-x="607" 
d="M304 -12q-124 0 -185.5 62.5t-61.5 176.5v269h134v-258q0 -48 12 -81t37 -49.5t64 -16.5q40 0 64.5 16.5t36 49.5t11.5 81v258h135v-269q0 -114 -61.5 -176.5t-185.5 -62.5zM115 586v95h378v-95h-378z" />
    <glyph glyph-name="uogonek.ss04" horiz-adv-x="607" 
d="M304 -12q-124 0 -185.5 62.5t-61.5 176.5v269h134v-258q0 -48 12 -81t37 -49.5t64 -16.5q40 0 64.5 16.5t36 49.5t11.5 81v258h135v-269q0 -114 -61.5 -176.5t-185.5 -62.5zM344 -201q-37 0 -68 11t-49.5 35t-18.5 60q0 27 13 52t44.5 49t86.5 47l45 20l30 -63l-51 -25
q-36 -18 -51 -34t-15 -34t13.5 -29t37.5 -11q15 0 33.5 4t37.5 11v-79q-19 -7 -41.5 -10.5t-46.5 -3.5z" />
    <glyph glyph-name="uring.ss04" horiz-adv-x="607" 
d="M304 -12q-124 0 -185.5 62.5t-61.5 176.5v269h134v-258q0 -48 12 -81t37 -49.5t64 -16.5q40 0 64.5 16.5t36 49.5t11.5 81v258h135v-269q0 -114 -61.5 -176.5t-185.5 -62.5zM304 562q-47 0 -81 30.5t-34 83.5q0 52 34 82.5t81 30.5q48 0 82 -30.5t34 -82.5
q0 -53 -34 -83.5t-82 -30.5zM304 622q22 0 37 14.5t15 39.5t-15 39t-37 14q-21 0 -36 -14t-15 -39t15 -39.5t36 -14.5z" />
    <glyph glyph-name="utilde.ss04" horiz-adv-x="607" 
d="M304 -12q-124 0 -185.5 62.5t-61.5 176.5v269h134v-258q0 -48 12 -81t37 -49.5t64 -16.5q40 0 64.5 16.5t36 49.5t11.5 81v258h135v-269q0 -114 -61.5 -176.5t-185.5 -62.5zM363 562q-29 0 -49.5 11.5t-37.5 23t-38 11.5q-16 0 -27.5 -11t-15.5 -34h-71q11 67 42.5 97.5
t77.5 30.5q29 0 49 -11.5t37.5 -22.5t38.5 -11q17 0 28.5 11t14.5 34h71q-10 -67 -41.5 -98t-78.5 -31z" />
    <glyph glyph-name="y.ss05" horiz-adv-x="620" 
d="M308 -232q-42 0 -84 11t-76.5 34t-57 59t-27.5 86h133q5 -24 20 -42t37.5 -28t52.5 -10q37 0 62 16t38.5 48.5t13.5 82.5v48v0q-23 -34 -63.5 -55t-100.5 -21q-63 0 -107.5 25.5t-68 77t-23.5 127.5v269h134v-260q0 -62 27 -95.5t83 -33.5q38 0 64.5 16.5t40.5 47.5
t14 74v251h135v-471q0 -85 -33 -142.5t-88.5 -86t-125.5 -28.5z" />
    <glyph glyph-name="yacute.ss05" horiz-adv-x="620" 
d="M308 -232q-42 0 -84 11t-76.5 34t-57 59t-27.5 86h133q5 -24 20 -42t37.5 -28t52.5 -10q37 0 62 16t38.5 48.5t13.5 82.5v48v0q-23 -34 -63.5 -55t-100.5 -21q-63 0 -107.5 25.5t-68 77t-23.5 127.5v269h134v-260q0 -62 27 -95.5t83 -33.5q38 0 64.5 16.5t40.5 47.5
t14 74v251h135v-471q0 -85 -33 -142.5t-88.5 -86t-125.5 -28.5zM195 539v95l228 121v0v-108z" />
    <glyph glyph-name="ycircumflex.ss05" horiz-adv-x="620" 
d="M308 -232q-42 0 -84 11t-76.5 34t-57 59t-27.5 86h133q5 -24 20 -42t37.5 -28t52.5 -10q37 0 62 16t38.5 48.5t13.5 82.5v48v0q-23 -34 -63.5 -55t-100.5 -21q-63 0 -107.5 25.5t-68 77t-23.5 127.5v269h134v-260q0 -62 27 -95.5t83 -33.5q38 0 64.5 16.5t40.5 47.5
t14 74v251h135v-471q0 -85 -33 -142.5t-88.5 -86t-125.5 -28.5zM162 542v96l148 80l147 -80v-96l-147 83z" />
    <glyph glyph-name="ydieresis.ss05" horiz-adv-x="620" 
d="M308 -232q-42 0 -84 11t-76.5 34t-57 59t-27.5 86h133q5 -24 20 -42t37.5 -28t52.5 -10q37 0 62 16t38.5 48.5t13.5 82.5v48v0q-23 -34 -63.5 -55t-100.5 -21q-63 0 -107.5 25.5t-68 77t-23.5 127.5v269h134v-260q0 -62 27 -95.5t83 -33.5q38 0 64.5 16.5t40.5 47.5
t14 74v251h135v-471q0 -85 -33 -142.5t-88.5 -86t-125.5 -28.5zM217 562q-26 0 -44.5 18.5t-18.5 44.5q0 28 18.5 46.5t44.5 18.5q28 0 46.5 -18.5t18.5 -46.5q0 -26 -18.5 -44.5t-46.5 -18.5zM401 562q-27 0 -45.5 18.5t-18.5 44.5q0 28 18.5 46.5t45.5 18.5t45.5 -18.5
t18.5 -46.5q0 -26 -18.5 -44.5t-45.5 -18.5z" />
    <glyph glyph-name="ygrave.ss05" horiz-adv-x="620" 
d="M308 -232q-42 0 -84 11t-76.5 34t-57 59t-27.5 86h133q5 -24 20 -42t37.5 -28t52.5 -10q37 0 62 16t38.5 48.5t13.5 82.5v48v0q-23 -34 -63.5 -55t-100.5 -21q-63 0 -107.5 25.5t-68 77t-23.5 127.5v269h134v-260q0 -62 27 -95.5t83 -33.5q38 0 64.5 16.5t40.5 47.5
t14 74v251h135v-471q0 -85 -33 -142.5t-88.5 -86t-125.5 -28.5zM423 539l-228 108v108v0l228 -121v-95z" />
    <glyph glyph-name="uni1EF9.ss05" horiz-adv-x="620" 
d="M308 -232q-42 0 -84 11t-76.5 34t-57 59t-27.5 86h133q5 -24 20 -42t37.5 -28t52.5 -10q37 0 62 16t38.5 48.5t13.5 82.5v48v0q-23 -34 -63.5 -55t-100.5 -21q-63 0 -107.5 25.5t-68 77t-23.5 127.5v269h134v-260q0 -62 27 -95.5t83 -33.5q38 0 64.5 16.5t40.5 47.5
t14 74v251h135v-471q0 -85 -33 -142.5t-88.5 -86t-125.5 -28.5zM369 562q-29 0 -49.5 11.5t-37.5 23t-38 11.5q-16 0 -27.5 -11t-15.5 -34h-71q11 67 42.5 97.5t77.5 30.5q29 0 49 -11.5t37.5 -22.5t38.5 -11q17 0 28.5 11t14.5 34h71q-10 -67 -41.5 -98t-78.5 -31z" />
    <glyph glyph-name="one.ss07" horiz-adv-x="425" 
d="M147 0v545l-117 -27v105l174 77h82v-700h-139zM37 106h358v-106h-358v106z" />
    <glyph glyph-name="three.ss07" horiz-adv-x="607" 
d="M302 -6q-70 0 -126 25t-89.5 75t-38.5 127h133q4 -50 34 -82t88 -32q54 0 85.5 31t31.5 86t-34.5 87t-94.5 32h-99v90l197 184l44 -32h-345v115h432v-102l-220 -204l-62 39h70q112 0 176.5 -56t64.5 -158q0 -67 -30 -118t-86 -79t-131 -28z" />
    <glyph glyph-name="four.ss07" horiz-adv-x="653" 
d="M382 0v133h-336v108l288 459h145l-289 -450h200v157l126 29v-186h91v-117h-91v-133h-134z" />
    <glyph glyph-name="six.ss07" horiz-adv-x="609" 
d="M305 -12q-76 0 -134 32t-90 88t-32 128q0 54 18.5 107.5t59.5 113.5l164 243h151l-210 -301l-6 46q28 8 53.5 14.5t53.5 6.5q67 0 118 -28t79.5 -79.5t28.5 -124.5t-33 -129t-90.5 -86.5t-130.5 -30.5zM305 104q58 0 92 35t34 94q0 39 -15.5 68t-43.5 45t-67 16
q-38 0 -66.5 -16t-44 -44.5t-15.5 -68.5q0 -59 34.5 -94t91.5 -35z" />
    <glyph glyph-name="nine.ss07" horiz-adv-x="609" 
d="M167 0l210 301l5 -46q-27 -8 -52.5 -14.5t-54.5 -6.5q-66 0 -117 28t-80 80t-29 124q0 74 33.5 129.5t90.5 86t130 30.5q77 0 134.5 -32t89.5 -88t32 -128q0 -54 -18 -107t-59 -114l-164 -243h-151zM303 338q39 0 67.5 16t43.5 45t15 68q0 59 -34 94t-92 35t-91.5 -35
t-33.5 -94q0 -39 15 -68t43.5 -45t66.5 -16z" />
    <glyph glyph-name="one.dnom" horiz-adv-x="237" 
d="M93 0v255l-70 -16v64l115 49h59v-352h-104z" />
    <glyph glyph-name="two.dnom" horiz-adv-x="361" 
d="M37 0v76l118 82q29 20 45 40.5t16 45.5q0 20 -10.5 30.5t-26.5 10.5q-19 0 -29.5 -12t-13.5 -33h-102q3 52 42.5 86t111.5 34q46 0 76.5 -15.5t45.5 -40.5t15 -53q0 -39 -26.5 -67.5t-82.5 -60.5l-69 -42h177v-81h-287z" />
    <glyph glyph-name="three.dnom" horiz-adv-x="356" 
d="M177 -4q-76 0 -114.5 31t-42.5 84h105q2 -15 8 -24t16.5 -13t22.5 -4q21 0 33 10.5t12 30.5q0 21 -14 32t-37 11h-39v50h35q24 0 37.5 10.5t13.5 31.5q0 19 -12 29t-33 10q-19 0 -30.5 -9.5t-15.5 -27.5h-97q2 30 19 56t50.5 41t84.5 15q63 0 103 -29.5t40 -73.5
q0 -31 -17.5 -50.5t-48.5 -27.5v-2q33 -10 52 -30t19 -52q0 -44 -40.5 -71.5t-109.5 -27.5z" />
    <glyph glyph-name="four.dnom" horiz-adv-x="350" 
d="M191 0v61h-165v68l154 219h111v-217h37v-70h-37v-61h-100zM128 131h71v107v0z" />
    <glyph glyph-name="one.numr" horiz-adv-x="237" 
d="M93 352v255l-70 -16v64l115 49h59v-352h-104z" />
    <glyph glyph-name="two.numr" horiz-adv-x="361" 
d="M37 352v76l118 82q29 20 45 40.5t16 45.5q0 20 -10.5 30.5t-26.5 10.5q-19 0 -29.5 -12t-13.5 -33h-102q3 52 42.5 86t111.5 34q46 0 76.5 -15.5t45.5 -40.5t15 -53q0 -39 -26.5 -67.5t-82.5 -60.5l-69 -42h177v-81h-287z" />
    <glyph glyph-name="three.numr" horiz-adv-x="356" 
d="M177 348q-76 0 -114.5 31t-42.5 84h105q2 -15 8 -24t16.5 -13t22.5 -4q21 0 33 10.5t12 30.5q0 21 -14 32t-37 11h-39v50h35q24 0 37.5 10.5t13.5 31.5q0 19 -12 29t-33 10q-19 0 -30.5 -9.5t-15.5 -27.5h-97q2 30 19 56t50.5 41t84.5 15q63 0 103 -29.5t40 -73.5
q0 -31 -17.5 -50.5t-48.5 -27.5v-2q33 -10 52 -30t19 -52q0 -44 -40.5 -71.5t-109.5 -27.5z" />
    <glyph glyph-name="four.numr" horiz-adv-x="350" 
d="M191 352v61h-165v68l154 219h111v-217h37v-70h-37v-61h-100zM128 483h71v107v0z" />
    <glyph glyph-name="comma.ss01" horiz-adv-x="214" 
d="M50 -103v55q26 0 38 14.5t12 46.5v19h-57v106h113q9 -29 12.5 -56t3.5 -50q0 -63 -30.5 -99t-91.5 -36z" />
    <glyph glyph-name="semicolon.ss01" horiz-adv-x="247" 
d="M122 354q-38 0 -61 22.5t-23 55.5t23 55.5t61 22.5q37 0 60 -22.5t23 -55.5t-23 -55.5t-60 -22.5zM63 -103v55q26 0 38 14.5t12 46.5v19h-57v106h113q9 -29 12.5 -56t3.5 -50q0 -63 -30.5 -99t-91.5 -36z" />
    <glyph glyph-name="quotesinglbase.ss01" horiz-adv-x="214" 
d="M50 -103v55q26 0 38 14.5t12 46.5v19h-57v106h113q9 -29 12.5 -56t3.5 -50q0 -63 -30.5 -99t-91.5 -36z" />
    <glyph glyph-name="quotedblbase.ss01" horiz-adv-x="379" 
d="M215 -103v55q26 0 38 14.5t12 46.5v19h-57v106h113q9 -29 12.5 -56t3.5 -50q0 -63 -30.5 -99t-91.5 -36zM50 -103v55q26 0 38 14.5t12 46.5v19h-57v106h113q9 -29 12.5 -56t3.5 -50q0 -63 -30.5 -99t-91.5 -36z" />
    <glyph glyph-name="quotedblleft.ss01" horiz-adv-x="367" 
d="M159 735v-55q-25 0 -37.5 -14.5t-12.5 -46.5v-19h57v-106h-113q-9 30 -13 56.5t-4 49.5q0 64 31 99.5t92 35.5zM324 735v-55q-25 0 -37.5 -14.5t-12.5 -46.5v-19h57v-106h-113q-9 30 -13 56.5t-4 49.5q0 64 31 99.5t92 35.5z" />
    <glyph glyph-name="quotedblright.ss01" horiz-adv-x="367" 
d="M208 494v55q26 0 38 14.5t12 46.5v19h-57v106h113q9 -29 12.5 -56t3.5 -50q0 -63 -30.5 -99t-91.5 -36zM43 494v55q26 0 38 14.5t12 46.5v19h-57v106h113q9 -29 12.5 -56t3.5 -50q0 -63 -30.5 -99t-91.5 -36z" />
    <glyph glyph-name="quoteleft.ss01" horiz-adv-x="202" 
d="M159 735v-55q-25 0 -37.5 -14.5t-12.5 -46.5v-19h57v-106h-113q-9 30 -13 56.5t-4 49.5q0 64 31 99.5t92 35.5z" />
    <glyph glyph-name="quoteright.ss01" horiz-adv-x="202" 
d="M43 493v55q26 0 38 14.5t12 46.5v19h-57v106h113q9 -29 12.5 -56t3.5 -50q0 -63 -30.5 -99t-91.5 -36z" />
    <glyph glyph-name="quotedblleft.ss08" horiz-adv-x="764" 
d="M382 -12q75 0 140.5 28t115.5 78t78 115.5t28 140.5t-28 140.5t-78 115.5t-115.5 78t-140.5 28t-140.5 -28t-115.5 -78t-78 -115.5t-28 -140.5t28 -140.5t78 -115.5t115.5 -78t140.5 -28zM362 484v-59q-29 0 -42.5 -16.5t-13.5 -51.5v-22h63v-116h-125q-8 33 -12.5 62.5
t-4.5 54.5q0 47 15 80t45 50.5t75 17.5zM543 484v-59q-29 0 -42.5 -16.5t-13.5 -51.5v-22h63v-116h-124q-9 33 -13.5 62.5t-4.5 54.5q0 47 15 80t45.5 50.5t74.5 17.5z" />
    <glyph glyph-name="quotedblright.ss08" horiz-adv-x="764" 
d="M382 712q-75 0 -140.5 -28t-115.5 -78t-78 -115.5t-28 -140.5t28 -140.5t78 -115.5t115.5 -78t140.5 -28t140.5 28t115.5 78t78 115.5t28 140.5t-28 140.5t-78 115.5t-115.5 78t-140.5 28zM402 216v59q29 0 42.5 16.5t13.5 51.5v22h-63v116h124q10 -32 14 -62t4 -55
q0 -47 -15 -80t-44.5 -50.5t-75.5 -17.5zM221 216v59q29 0 42.5 16.5t13.5 51.5v22h-63v116h124q10 -32 14 -62t4 -55q0 -47 -15 -80t-45 -50.5t-75 -17.5z" />
    <glyph glyph-name="arrowup.ss08" horiz-adv-x="764" 
d="M382 -12q-75 0 -140.5 28t-115.5 78t-78 115.5t-28 140.5t28 140.5t78 115.5t115.5 78t140.5 28t140.5 -28t115.5 -77.5t78 -115t28 -141.5q0 -75 -28 -140.5t-78 -115.5t-115.5 -78t-140.5 -28zM338 165h89v240l108 -106l57 58l-183 179h-53l-183 -180l57 -58l108 107
v-240z" />
    <glyph glyph-name="uni2197.ss08" horiz-adv-x="764" 
d="M382 -12q-75 0 -140.5 28t-115.5 78t-78 115.5t-28 140.5t28 140.5t78 115.5t115.5 78t140.5 28t140.5 -28t115.5 -77.5t78 -115.5t28 -141t-28 -140.5t-78 -115.5t-115.5 -78t-140.5 -28zM286 197l172 169v-165h78v266l-37 37h-265v-79h164l-171 -169z" />
    <glyph glyph-name="arrowright.ss08" horiz-adv-x="764" 
d="M382 -12q-75 0 -140.5 28t-115.5 78t-78 115.5t-28 140.5t28 140.5t78 115.5t115.5 78t140.5 28t140.5 -28t115.5 -78t78 -115.5t28 -140.5t-28 -140.5t-77.5 -115.5t-115.5 -78t-141 -28zM387 142l181 182v53l-181 181l-57 -56l112 -109h-246v-85h246l-112 -110z" />
    <glyph glyph-name="uni2198.ss08" horiz-adv-x="764" 
d="M382 712q75 0 140.5 -28t115.5 -78t78 -115.5t28 -140.5t-28 -141t-78 -115.5t-115.5 -77.5t-140.5 -28t-140.5 28t-115.5 78t-78 115.5t-28 140.5t28 140.5t78 115.5t115.5 78t140.5 28zM286 503l-59 -59l171 -169h-164v-79h265l37 37v266h-78v-165z" />
    <glyph glyph-name="arrowdown.ss08" horiz-adv-x="764" 
d="M382 712q75 0 140.5 -28t115.5 -78t78 -115.5t28 -140.5q0 -76 -28 -141.5t-78 -115t-115.5 -77.5t-140.5 -28t-140.5 28t-115.5 78t-78 115.5t-28 140.5t28 140.5t78 115.5t115.5 78t140.5 28zM338 535v-240l-108 107l-57 -58l183 -180h53l183 179l-57 58l-108 -106v240
h-89z" />
    <glyph glyph-name="uni2199.ss08" horiz-adv-x="764" 
d="M382 712q75 0 140.5 -28t115.5 -78t78 -115.5t28 -140.5t-28 -140.5t-78 -115.5t-115.5 -78t-140.5 -28t-140.5 28t-115.5 77.5t-78 115.5t-28 141t28 140.5t78 115.5t115.5 78t140.5 28zM478 503l-172 -169v165h-78v-266l37 -37h265v79h-164l171 169z" />
    <glyph glyph-name="arrowleft.ss08" horiz-adv-x="764" 
d="M382 -12q-75 0 -141 28t-115.5 78t-77.5 115.5t-28 140.5t28 140.5t78 115.5t115.5 78t140.5 28t140.5 -28t115.5 -78t78 -115.5t28 -140.5t-28 -140.5t-78 -115.5t-115.5 -78t-140.5 -28zM377 142l57 56l-112 110h246v85h-246l112 109l-57 56l-181 -181v-53z" />
    <glyph glyph-name="uni2196.ss08" horiz-adv-x="764" 
d="M382 -12q-75 0 -140.5 28t-115.5 78t-78 115.5t-28 140.5t28 141t78 115.5t115.5 77.5t140.5 28t140.5 -28t115.5 -78t78 -115.5t28 -140.5t-28 -140.5t-78 -115.5t-115.5 -78t-140.5 -28zM478 197l59 59l-171 169h164v79h-265l-37 -37v-266h78v165z" />
    <glyph glyph-name="arrowboth.ss08" horiz-adv-x="764" 
d="M382 -12q-75 0 -140.5 28t-115.5 78t-78 115.5t-28 140.5t28 140.5t78 115.5t115.5 78t140.5 28t140.5 -28t115.5 -77.5t78 -115.5t28 -141t-28 -140.5t-78 -115.5t-115.5 -78t-140.5 -28zM288 148l64 50l-89 108h243l-89 -108l64 -50l142 176v53l-142 174l-64 -48
l89 -109h-243l89 109l-64 48l-143 -174v-53z" />
    <glyph glyph-name="arrowupdn.ss08" horiz-adv-x="764" 
d="M382 -12q-75 0 -140.5 28t-115.5 78t-78 115.5t-28 140.5t28 140.5t78 115.5t115.5 78t140.5 28t140.5 -28t115.5 -78t78 -115.5t28 -140.5t-28 -140.5t-77.5 -115.5t-115.5 -78t-141 -28zM357 113h53l173 142l-47 63l-109 -89v242l109 -89l47 63l-173 142h-53l-175 -141
l48 -64l109 89v-242l-109 89l-48 -64z" />
    <glyph glyph-name="uni030C.alt" 
d="M0 509v55q24 0 35.5 8.5t11.5 27.5v19h-47v106h105q7 -29 10 -51.5t3 -46.5q0 -57 -30 -87.5t-88 -30.5z" />
    <glyph glyph-name="uni0308.case" 
d="M63 767q-26 0 -44.5 18.5t-18.5 45.5t18.5 45.5t44.5 18.5q28 0 46.5 -18.5t18.5 -45.5t-18.5 -45.5t-46.5 -18.5zM247 767q-27 0 -45.5 18.5t-18.5 45.5t18.5 45.5t45.5 18.5t45.5 -18.5t18.5 -45.5t-18.5 -45.5t-45.5 -18.5z" />
    <glyph glyph-name="uni0307.case" 
d="M63 764q-26 0 -44.5 18.5t-18.5 44.5q0 27 18.5 45.5t44.5 18.5q28 0 46.5 -18.5t18.5 -45.5q0 -26 -18.5 -44.5t-46.5 -18.5z" />
    <glyph glyph-name="gravecomb.case" 
d="M228 743l-228 108v108v0l228 -121v-95z" />
    <glyph glyph-name="acutecomb.case" 
d="M0 743v95l228 121v0v-108z" />
    <glyph glyph-name="uni030B.case" 
d="M174 747l82 184h110l-108 -184h-84zM0 747l71 184h110l-96 -184h-85z" />
    <glyph glyph-name="uni0302.case" 
d="M0 745v97l148 79l147 -79v-97l-147 83z" />
    <glyph glyph-name="uni030C.case" 
d="M148 745l-148 80v96l148 -86l147 86v-96z" />
    <glyph glyph-name="uni0306.case" 
d="M158 748q-49 0 -84.5 19t-54.5 53.5t-19 82.5v17h71q0 -34 19 -53t68 -19q48 0 67.5 19t19.5 53h71v-18q0 -47 -19.5 -82t-55 -53.5t-83.5 -18.5z" />
    <glyph glyph-name="uni030A.case" 
d="M115 749q-47 0 -81 30.5t-34 83.5t34 83t81 30q48 0 82 -30t34 -83t-34 -83.5t-82 -30.5zM115 809q22 0 37 15t15 39q0 25 -15 39t-37 14q-21 0 -36 -14t-15 -39q0 -24 15 -39t36 -15z" />
    <glyph glyph-name="tildecomb.case" 
d="M239 751q-29 0 -49.5 11.5t-37.5 23t-38 11.5q-16 0 -27.5 -11t-15.5 -34h-71q11 67 42.5 97.5t77.5 30.5q29 0 49 -11.5t37.5 -23t38.5 -11.5q17 0 28.5 11.5t14.5 33.5h71q-10 -66 -41.5 -97t-78.5 -31z" />
    <glyph glyph-name="uni0304.case" 
d="M0 781v95h378v-95h-378z" />
    <glyph glyph-name="uni0327.case" 
d="M0 -264v77h115q25 0 38 8.5t13 26.5t-13 26t-38 8h-62v125h84v-55q33 1 62.5 -10t48 -34.5t18.5 -61.5q0 -37 -18.5 -61.5t-48 -36.5t-64.5 -12h-135z" />
    <glyph glyph-name="uni0328.case" 
d="M136 -211q-37 0 -68 11t-49.5 35t-18.5 60q0 27 13 52t44.5 49t86.5 47l45 20l30 -63l-51 -25q-36 -18 -51 -34t-15 -34t13.5 -29t37.5 -11q15 0 33.5 4t37.5 11v-79q-19 -7 -41.5 -10.5t-46.5 -3.5z" />
    </font>
</defs>
</svg>
