<?xml version="1.0" standalone="no"?>
<!DOCTYPE svg PUBLIC "-//W3C//DTD SVG 1.1//EN" "http://www.w3.org/Graphics/SVG/1.1/DTD/svg11.dtd" >
<svg xmlns="http://www.w3.org/2000/svg" xmlns:xlink="http://www.w3.org/1999/xlink" version="1.1">
<metadata>
Created by FontForge 20201107 at Wed Jun 14 12:00:55 2023
 By 
Copyright 2014 The DM Sans Project Authors (https://github.com/googlefonts/dm-fonts)
</metadata>
<defs>
<font id="DMSans36pt-Regular" horiz-adv-x="0" >
  <font-face 
    font-family="DM Sans 36pt"
    font-weight="400"
    font-stretch="normal"
    units-per-em="1000"
    panose-1="0 0 0 0 0 0 0 0 0 0"
    ascent="800"
    descent="-200"
    x-height="496"
    cap-height="700"
    bbox="-85 -260 1083 967"
    underline-thickness="50"
    underline-position="-125"
    unicode-range="U+000D-FB02"
  />
<missing-glyph horiz-adv-x="506" 
d="M52 0v700h401v-700h-401zM122 57h261v586h-261v-586z" />
    <glyph glyph-name="fi" unicode="fi" horiz-adv-x="511" 
d="M88 0v430h-75v66h75v71q0 48 16 78.5t47.5 45t77.5 14.5h50v-67h-37q-37 0 -53.5 -15t-16.5 -53v-74h276v-496h-84v430h-192v-430h-84zM407 576q-24 0 -41 16.5t-17 41.5t17 40.5t41 15.5q25 0 41.5 -15.5t16.5 -40.5t-16.5 -41.5t-41.5 -16.5z" />
    <glyph glyph-name="fl" unicode="fl" horiz-adv-x="495" 
d="M88 0v567q0 48 16 78.5t47.5 45t77.5 14.5h50v-67h-37q-38 0 -54 -15.5t-16 -53.5v-569h-84zM13 433v63h281v-63h-281zM360 0v705h84v-705h-84z" />
    <glyph glyph-name=".notdef" horiz-adv-x="506" 
d="M52 0v700h401v-700h-401zM122 57h261v586h-261v-586z" />
    <glyph glyph-name=".null" 
 />
    <glyph glyph-name="nonmarkingreturn" horiz-adv-x="333" 
 />
    <glyph glyph-name="CR" unicode="&#xd;" horiz-adv-x="600" 
 />
    <glyph glyph-name="space" unicode=" " horiz-adv-x="216" 
 />
    <glyph glyph-name="exclam" unicode="!" horiz-adv-x="197" 
d="M63 194l-10 506h91l-10 -506h-71zM99 -5q-23 0 -39.5 16.5t-16.5 39.5q0 24 16.5 40t39.5 16q24 0 40 -16t16 -40q0 -23 -16 -39.5t-40 -16.5z" />
    <glyph glyph-name="quotedbl" unicode="&#x22;" horiz-adv-x="283" 
d="M178 558l-11 197h79l-9 -197h-59zM48 558l-11 197h79l-10 -197h-58z" />
    <glyph glyph-name="numbersign" unicode="#" horiz-adv-x="797" 
d="M431 0l152 706h79l-151 -706h-80zM137 0l151 706h80l-151 -706h-80zM38 197v75h677v-75h-677zM80 435v74h679v-74h-679z" />
    <glyph glyph-name="dollar" unicode="$" horiz-adv-x="548" 
d="M240 -87v878h69v-878h-69zM283 -12q-77 0 -134 28t-88 78t-31 116h88q0 -41 18 -75.5t55 -55t93 -20.5q45 0 79 13.5t53 40t19 64.5q0 39 -17.5 64.5t-48 42.5t-67.5 29.5t-76 25.5q-89 31 -130.5 75.5t-41.5 111.5q0 54 26.5 96t76 66t117.5 24q67 0 116.5 -25
t77.5 -68.5t28 -100.5h-88q0 35 -16 63t-46.5 45t-77.5 17q-37 0 -66.5 -11.5t-46 -35.5t-16.5 -62q0 -32 13 -53t39 -36.5t63.5 -29.5t85.5 -31q51 -18 91.5 -42.5t63.5 -61.5t23 -95q0 -50 -26 -95.5t-78 -73.5t-131 -28z" />
    <glyph glyph-name="percent" unicode="%" horiz-adv-x="773" 
d="M138 0l407 700h84l-407 -700h-84zM574 -12q-45 0 -81 20.5t-57.5 58.5t-21.5 89q0 52 21.5 89.5t57.5 58t81 20.5q46 0 81.5 -20.5t56.5 -58t21 -89.5q0 -51 -21 -89t-57 -58.5t-81 -20.5zM573 53q24 0 44 11.5t32.5 34.5t12.5 57q0 35 -12 58t-32 34.5t-44 11.5
q-23 0 -43.5 -11.5t-33 -34.5t-12.5 -58q0 -34 12.5 -57t32.5 -34.5t43 -11.5zM200 375q-45 0 -81 20.5t-57.5 58.5t-21.5 89q0 52 21.5 89.5t58 58t81.5 20.5t81 -20.5t57 -58t21 -89.5q0 -51 -21 -89t-57.5 -58.5t-81.5 -20.5zM200 440q24 0 44 11.5t32 34.5t12 57
q0 35 -12 58.5t-32 35t-43 11.5t-44 -11.5t-33.5 -35t-12.5 -58.5q0 -34 12.5 -57t33 -34.5t43.5 -11.5z" />
    <glyph glyph-name="ampersand" unicode="&#x26;" horiz-adv-x="701" 
d="M603 0l-388 392q-46 46 -66 83.5t-20 82.5t21.5 80t61.5 54.5t95 19.5q54 0 94 -20.5t62 -56t20 -82.5h-83q1 45 -28 68t-67 23q-44 0 -70.5 -22.5t-26.5 -60.5q0 -32 19 -61t55 -67l421 -433h-100zM284 -11q-72 0 -127 26.5t-86 73.5t-31 111q0 51 20 93.5t58 75
t91 52.5l15 5l40 -53l-17 -6q-61 -21 -93.5 -63t-32.5 -100q0 -44 20.5 -76t57.5 -49t84 -17q60 0 111 26.5t85 80.5q18 30 30.5 68.5t18.5 83.5l8 41h76l-11 -47q-7 -56 -23.5 -104.5t-42.5 -87.5q-43 -64 -105.5 -99t-145.5 -35z" />
    <glyph glyph-name="quotesingle" unicode="'" horiz-adv-x="157" 
d="M50 558l-13 197h83l-12 -197h-58z" />
    <glyph glyph-name="parenleft" unicode="(" horiz-adv-x="338" 
d="M239 -130q-54 50 -100 119.5t-73.5 156t-27.5 187.5t27.5 187.5t73.5 156t100 119.5h86v-8q-61 -58 -106.5 -129.5t-71 -153.5t-25.5 -172q0 -89 25.5 -171t71.5 -154t106 -130v-8h-86z" />
    <glyph glyph-name="parenright" unicode=")" horiz-adv-x="338" 
d="M99 -130h-86v8q61 58 106.5 129.5t71 154t25.5 171.5q0 90 -25.5 172t-71 153.5t-106.5 129.5v8h86q55 -49 100.5 -119t73 -156.5t27.5 -187.5t-27.5 -187.5t-73 -155.5t-100.5 -120z" />
    <glyph glyph-name="asterisk" unicode="*" horiz-adv-x="462" 
d="M200 344l12 153l-124 -87l-35 61l139 61l-138 60l33 59l126 -87l-14 153h68l-15 -153l125 87l32 -58l-138 -62l139 -61l-33 -59l-125 86l14 -153h-66z" />
    <glyph glyph-name="plus" unicode="+" horiz-adv-x="550" 
d="M237 72v436h75v-436h-75zM46 255v71h457v-71h-457z" />
    <glyph glyph-name="comma" unicode="," horiz-adv-x="172" 
d="M8 -123l58 221h87l-87 -221h-58z" />
    <glyph glyph-name="hyphen" unicode="-" horiz-adv-x="548" 
d="M76 255v71h396v-71h-396z" />
    <glyph glyph-name="period" unicode="." horiz-adv-x="185" 
d="M93 -5q-24 0 -40.5 16.5t-16.5 39.5q0 24 16.5 40t40.5 16q23 0 39 -16t16 -40q0 -23 -16 -39.5t-39 -16.5z" />
    <glyph glyph-name="slash" unicode="/" horiz-adv-x="393" 
d="M29 -95l251 859h83l-251 -859h-83z" />
    <glyph glyph-name="zero" unicode="0" horiz-adv-x="675" 
d="M338 -12q-93 0 -160.5 45.5t-103.5 127t-36 189.5t36 189.5t103.5 127t160.5 45.5q94 0 160.5 -45.5t102.5 -127t36 -189.5t-36 -189.5t-102.5 -127t-160.5 -45.5zM338 62q62 0 110 34.5t75.5 99t27.5 154.5t-27.5 154.5t-75.5 98.5t-110 34t-110.5 -34t-76 -98.5
t-27.5 -154.5t27.5 -154.5t76 -99t110.5 -34.5z" />
    <glyph glyph-name="one" unicode="1" horiz-adv-x="269" 
d="M132 0v606l-113 -25v58l141 61h57v-700h-85z" />
    <glyph glyph-name="two" unicode="2" horiz-adv-x="527" 
d="M35 0v59q71 56 134.5 113t113 113.5t78 110.5t28.5 104q0 37 -13 68.5t-40.5 51.5t-76.5 20q-46 0 -77 -20.5t-46 -54t-15 -73.5h-81q1 69 29.5 118.5t78 75.5t112.5 26t111 -23.5t75 -69.5t27 -116q0 -49 -20 -98t-54 -95.5t-75 -89.5t-84 -81t-81 -69h338v-70h-462z
" />
    <glyph glyph-name="three" unicode="3" horiz-adv-x="557" 
d="M281 -12q-67 0 -121.5 24.5t-86.5 73.5t-34 122h85q1 -40 19.5 -73.5t53.5 -53.5t84 -20t82 19t50 50.5t17 70.5q0 49 -23.5 80t-63 46t-86.5 15h-52v71h52q68 0 106.5 31.5t38.5 86.5q0 47 -30.5 77.5t-90.5 30.5q-58 0 -92.5 -34t-39.5 -87h-85q3 57 30.5 101t75 68.5
t111.5 24.5q68 0 113.5 -24t69 -64t23.5 -88q0 -35 -13 -66.5t-38.5 -55t-64.5 -33.5q41 -8 73.5 -31.5t51.5 -61t19 -87.5q0 -57 -26.5 -105.5t-78.5 -78t-129 -29.5z" />
    <glyph glyph-name="four" unicode="4" horiz-adv-x="595" 
d="M383 0v150h-355v65l318 485h120v-476h104v-74h-104v-150h-83zM121 224h266v409h-3z" />
    <glyph glyph-name="five" unicode="5" horiz-adv-x="559" 
d="M283 -12q-72 0 -125 26.5t-84 72t-39 102.5h82q12 -58 56 -93.5t111 -35.5q50 0 86 23.5t55.5 63.5t19.5 89q0 52 -20 91t-55.5 61t-82.5 22q-58 0 -99 -26t-60 -68h-80l60 384h367v-73h-302l-41 -213q25 29 67 48t97 19q52 0 94 -18.5t72.5 -51.5t47 -77.5t16.5 -96.5
q0 -51 -16 -96t-47.5 -79.5t-76.5 -54t-103 -19.5z" />
    <glyph glyph-name="six" unicode="6" horiz-adv-x="588" 
d="M312 -12q-76 0 -128 28.5t-83.5 76.5t-46 107.5t-14.5 121.5q0 116 32 203.5t93 137t146 49.5q66 0 113.5 -26t75 -69.5t33.5 -96.5h-78q-10 57 -48 88t-97 31q-52 0 -94 -32.5t-67.5 -99t-28.5 -169.5v-2.5v-3.5q16 31 45 57.5t69 42.5t89 16q60 0 112.5 -28t85.5 -78.5
t33 -118.5q0 -59 -29 -113t-83.5 -88t-129.5 -34zM306 62q47 0 84 20.5t58 56t21 80.5q0 47 -21 82t-58 54.5t-84 19.5q-46 0 -83.5 -21.5t-59 -57t-21.5 -78.5q0 -45 21.5 -80t59 -55.5t83.5 -20.5z" />
    <glyph glyph-name="seven" unicode="7" horiz-adv-x="523" 
d="M131 0l278 628h-384v72h470v-63l-275 -637h-89z" />
    <glyph glyph-name="eight" unicode="8" horiz-adv-x="568" 
d="M284 -12q-69 0 -123.5 25.5t-86.5 71t-32 105.5q0 43 17 80t48 64.5t72 38.5q-57 20 -88 62t-31 91q0 52 27 94t77 67t120 25t120 -25t77 -67t27 -94q0 -49 -31 -91t-88 -62q42 -11 72.5 -38.5t47.5 -64.5t17 -80q0 -60 -32 -105.5t-86.5 -71t-123.5 -25.5zM284 62
q80 0 119 36.5t39 96.5q0 68 -43 103t-115 35t-115 -35t-43 -103q0 -60 39.5 -96.5t118.5 -36.5zM284 403q64 0 101.5 33t37.5 85q0 59 -37 89t-102 30q-64 0 -101 -30t-37 -89q0 -52 37 -85t101 -33z" />
    <glyph glyph-name="nine" unicode="9" horiz-adv-x="588" 
d="M277 -12q-66 0 -113 26t-74.5 70t-33.5 96h78q10 -57 48 -88t96 -31q53 0 94.5 32.5t67 99t28.5 168.5v4v3q-16 -31 -45 -57.5t-68.5 -42.5t-89.5 -16q-59 0 -112 28t-86 78.5t-33 118.5q0 59 29 113t83.5 88t129.5 34q76 0 128 -28.5t83.5 -76.5t46 -107.5t14.5 -121.5
q0 -115 -32 -203t-92.5 -137.5t-146.5 -49.5zM282 325q47 0 84 21.5t59 57.5t22 78q0 45 -22 80.5t-59 55.5t-84 20t-84 -20.5t-58 -55.5t-21 -81q0 -47 21 -82t58 -54.5t84 -19.5z" />
    <glyph glyph-name="colon" unicode=":" horiz-adv-x="186" 
d="M93 -5q-24 0 -40.5 16.5t-16.5 39.5q0 24 16.5 40t40.5 16q23 0 39 -16t16 -40q0 -23 -16 -39.5t-39 -16.5zM93 394q-24 0 -40.5 16.5t-16.5 39.5q0 24 16.5 40t40.5 16q23 0 39 -16t16 -40q0 -23 -16 -39.5t-39 -16.5z" />
    <glyph glyph-name="semicolon" unicode=";" horiz-adv-x="210" 
d="M117 394q-24 0 -40.5 16.5t-16.5 39.5q0 24 16.5 40t40.5 16q23 0 39 -16t16 -40q0 -23 -16 -39.5t-39 -16.5zM13 -123l58 221h87l-87 -221h-58z" />
    <glyph glyph-name="less" unicode="&#x3c;" horiz-adv-x="550" 
d="M441 35h-107l-224 212v36l224 213h107l-245 -231z" />
    <glyph glyph-name="equal" unicode="=" horiz-adv-x="550" 
d="M75 359v72h399v-72h-399zM75 151v72h399v-72h-399z" />
    <glyph glyph-name="greater" unicode="&#x3e;" horiz-adv-x="550" 
d="M109 35l245 230l-245 231h107l224 -213v-36l-224 -212h-107z" />
    <glyph glyph-name="question" unicode="?" horiz-adv-x="511" 
d="M148 196l-7 161h31q42 0 80.5 5.5t68 21.5t47 45.5t17.5 77.5q0 42 -17.5 72t-49 46t-73.5 16t-73 -16t-48 -44.5t-17 -68.5h-80q0 60 27.5 105t76.5 70t114 25t115 -25t78 -71t28 -109q0 -74 -31.5 -120t-86.5 -67t-127 -21l-7 -103h-66zM182 -5q-24 0 -40.5 16.5
t-16.5 39.5q0 24 16.5 40t40.5 16q23 0 39 -16t16 -40q0 -23 -16 -39.5t-39 -16.5z" />
    <glyph glyph-name="at" unicode="@" horiz-adv-x="991" 
d="M421 -199q-107 0 -187.5 41t-125 116.5t-44.5 177.5q0 107 37 198.5t104 160t158 107t200 38.5q112 0 193.5 -42.5t126 -118t44.5 -175.5q0 -58 -14 -113t-41.5 -99.5t-67 -71t-90.5 -26.5q-61 0 -87 37t-19 95l3 34l17 -30q-25 -63 -80 -99.5t-120 -36.5
q-76 0 -118.5 46t-42.5 124q0 55 17.5 105.5t49.5 90t76 62.5t98 23q62 0 98.5 -33t42.5 -95l-20 -13l23 130h71l-50 -286q-7 -43 4.5 -69.5t48.5 -26.5q33 0 57.5 23t41.5 60t25.5 80.5t8.5 84.5q0 88 -36.5 150.5t-105 96.5t-164.5 34q-91 0 -167.5 -33.5t-133.5 -93.5
t-88.5 -139.5t-31.5 -171.5q0 -90 37 -153t105.5 -96t161.5 -33q43 0 86 8.5t80 25.5l14 -57q-45 -19 -94.5 -28t-100.5 -9zM453 58q43 0 78.5 23t59 63.5t28.5 93.5q5 40 -6 72t-36.5 51.5t-66.5 19.5q-39 0 -69.5 -17.5t-52 -46.5t-33 -65.5t-11.5 -74.5q0 -53 27.5 -86
t81.5 -33z" />
    <glyph glyph-name="A" unicode="A" horiz-adv-x="627" 
d="M11 0l244 700h120l240 -700h-89l-210 627h-3l-214 -627h-88zM129 209l24 68h317l24 -68h-365z" />
    <glyph glyph-name="B" unicode="B" horiz-adv-x="568" 
d="M52 0v700h246q74 0 122.5 -23.5t72.5 -64t24 -90.5q0 -54 -23.5 -90t-61 -55t-79.5 -23l14 10q45 -1 83 -24t60.5 -62t22.5 -87q0 -53 -26 -96.5t-76.5 -69t-124.5 -25.5h-254zM136 70h161q71 0 110.5 33.5t39.5 93.5q0 59 -40.5 94.5t-111.5 35.5h-159v-257zM136 394
h156q68 0 103.5 32t35.5 87q0 53 -35.5 85t-106.5 32h-153v-236z" />
    <glyph glyph-name="C" unicode="C" horiz-adv-x="702" 
d="M372 -12q-103 0 -178 45.5t-115.5 127t-40.5 189.5t40.5 189.5t115.5 127t178 45.5q121 0 196 -57t96 -161h-93q-16 65 -65 104t-134 39q-75 0 -131 -34.5t-86.5 -99t-30.5 -153.5t30.5 -153.5t86.5 -99t131 -34.5q85 0 135 38.5t66 101.5h91q-21 -101 -96 -158t-196 -57
z" />
    <glyph glyph-name="D" unicode="D" horiz-adv-x="665" 
d="M52 0v700h215q123 0 203 -42.5t118.5 -121t38.5 -188.5q0 -108 -38.5 -186t-118.5 -120t-203 -42h-215zM136 70h129q102 0 162.5 33.5t86.5 96t26 148.5q0 88 -26 151t-86.5 97t-162.5 34h-129v-560z" />
    <glyph glyph-name="E" unicode="E" horiz-adv-x="522" 
d="M52 0v700h433v-69h-349v-244h319v-68h-319v-250h349v-69h-433z" />
    <glyph glyph-name="F" unicode="F" horiz-adv-x="498" 
d="M52 0v700h426v-69h-342v-246h291v-68h-291v-317h-84z" />
    <glyph glyph-name="G" unicode="G" horiz-adv-x="738" 
d="M360 -12q-97 0 -169.5 45.5t-112.5 126.5t-40 189q0 107 41.5 189t118 128t180.5 46q118 0 197 -56.5t101 -157.5h-97q-14 63 -66 100t-135 37q-77 0 -134.5 -34.5t-88.5 -98.5t-31 -153t31 -153.5t86.5 -98.5t127.5 -34q112 0 169 66t65 179h-202v66h288v-374h-75
l-9 136h-3q-26 -48 -61.5 -81t-79.5 -50t-101 -17z" />
    <glyph glyph-name="H" unicode="H" horiz-adv-x="636" 
d="M499 0v700h84v-700h-84zM52 0v700h84v-700h-84zM120 322v69h400v-69h-400z" />
    <glyph glyph-name="I" unicode="I" horiz-adv-x="189" 
d="M52 0v700h84v-700h-84z" />
    <glyph glyph-name="J" unicode="J" horiz-adv-x="472" 
d="M225 -12q-63 0 -108.5 24t-70 69t-24.5 107h85q0 -35 11.5 -63.5t37 -45t68.5 -16.5q42 0 66.5 16t35 43.5t10.5 62.5v515h84v-515q0 -94 -51.5 -145.5t-143.5 -51.5z" />
    <glyph glyph-name="K" unicode="K" horiz-adv-x="548" 
d="M52 0v700h84v-312l292 312h106l-307 -324l311 -376h-105l-277 332l-20 -21v-311h-84z" />
    <glyph glyph-name="L" unicode="L" horiz-adv-x="484" 
d="M52 0v700h84v-633h326v-67h-410z" />
    <glyph glyph-name="M" unicode="M" horiz-adv-x="804" 
d="M52 0v700h118l231 -519h3l230 519h117v-700h-84v567h-3l-210 -467h-104l-211 467h-3v-567h-84z" />
    <glyph glyph-name="N" unicode="N" horiz-adv-x="646" 
d="M52 0v700h111l343 -595h3v595h84v-700h-111l-343 595h-3v-595h-84z" />
    <glyph glyph-name="O" unicode="O" horiz-adv-x="766" 
d="M383 -12q-103 0 -180.5 45.5t-121 127t-43.5 189.5q0 107 43.5 188.5t121 127.5t180.5 46q104 0 181.5 -46t120.5 -127.5t43 -188.5q0 -108 -43 -189.5t-120.5 -127t-181.5 -45.5zM383 62q77 0 135.5 34.5t91 99t32.5 154.5t-32.5 154.5t-91 98.5t-135.5 34t-135.5 -34
t-91 -98.5t-32.5 -154.5t32.5 -154.5t91 -99t135.5 -34.5z" />
    <glyph glyph-name="P" unicode="P" horiz-adv-x="545" 
d="M52 0v700h230q83 0 135.5 -27t78 -73t25.5 -104q0 -57 -25 -103t-78 -73.5t-136 -27.5h-146v-292h-84zM136 363h144q83 0 119 36t36 97q0 64 -36 99t-119 35h-144v-267z" />
    <glyph glyph-name="Q" unicode="Q" horiz-adv-x="766" 
d="M569 -95l-235 368h97l235 -368h-97zM383 -12q-103 0 -180.5 45.5t-121 127t-43.5 189.5q0 107 43.5 188.5t121 127.5t180.5 46q104 0 181.5 -46t120.5 -127.5t43 -188.5q0 -108 -43 -189.5t-120.5 -127t-181.5 -45.5zM383 62q77 0 135.5 34.5t91 99t32.5 154.5
t-32.5 154.5t-91 98.5t-135.5 34t-135.5 -34t-91 -98.5t-32.5 -154.5t32.5 -154.5t91 -99t135.5 -34.5z" />
    <glyph glyph-name="R" unicode="R" horiz-adv-x="545" 
d="M52 0v700h226q82 0 134 -27.5t77 -73.5t25 -104q0 -56 -25.5 -103t-78.5 -75t-136 -28h-138v-289h-84zM422 0l-154 313h94l159 -313h-99zM136 355h136q80 0 117.5 39t37.5 100q0 62 -36.5 98.5t-119.5 36.5h-135v-274z" />
    <glyph glyph-name="S" unicode="S" horiz-adv-x="548" 
d="M283 -12q-77 0 -134 28t-88 78t-31 116h88q0 -41 18 -75.5t55 -55t93 -20.5q45 0 79 13.5t53 40t19 64.5q0 39 -17.5 64.5t-48 42.5t-67.5 29.5t-76 25.5q-89 31 -130.5 75.5t-41.5 111.5q0 54 26.5 96t76 66t117.5 24q67 0 116.5 -25t77.5 -68.5t28 -100.5h-88
q0 35 -16 63t-46.5 45t-77.5 17q-37 0 -66.5 -11.5t-46 -35.5t-16.5 -62q0 -32 13 -53t39 -36.5t63.5 -29.5t85.5 -31q51 -18 91.5 -42.5t63.5 -61.5t23 -95q0 -50 -26 -95.5t-78 -73.5t-131 -28z" />
    <glyph glyph-name="T" unicode="T" horiz-adv-x="524" 
d="M220 0v631h-209v69h502v-69h-209v-631h-84z" />
    <glyph glyph-name="U" unicode="U" horiz-adv-x="614" 
d="M306 -12q-72 0 -131 29t-93.5 88.5t-34.5 152.5v442h84v-443q0 -68 22.5 -111t62.5 -63t92 -20q53 0 92 20t61 63t22 111v443h84v-442q0 -93 -35 -152.5t-94 -88.5t-132 -29z" />
    <glyph glyph-name="V" unicode="V" horiz-adv-x="628" 
d="M254 0l-245 700h91l215 -631h3l214 631h86l-242 -700h-122z" />
    <glyph glyph-name="W" unicode="W" horiz-adv-x="967" 
d="M194 0l-184 700h87l158 -628h3l181 628h88l183 -629h3l157 629h87l-187 -700h-121l-166 559h-3l-165 -559h-121z" />
    <glyph glyph-name="X" unicode="X" horiz-adv-x="553" 
d="M13 0l214 353l-214 347h95l171 -284h3l162 284h94l-214 -350l215 -350h-95l-169 287h-3l-164 -287h-95z" />
    <glyph glyph-name="Y" unicode="Y" horiz-adv-x="557" 
d="M237 0v256l-228 444h95l179 -367h-5l178 367h92l-227 -444v-256h-84z" />
    <glyph glyph-name="Z" unicode="Z" horiz-adv-x="484" 
d="M19 0v66l345 561h-340v73h438v-66l-346 -561h350v-73h-447z" />
    <glyph glyph-name="bracketleft" unicode="[" horiz-adv-x="260" 
d="M52 -136v932h174v-69h-95v-793h95v-70h-174z" />
    <glyph glyph-name="backslash" unicode="\" horiz-adv-x="393" 
d="M364 -95h-83l-251 859h83z" />
    <glyph glyph-name="bracketright" unicode="]" horiz-adv-x="260" 
d="M208 -136h-174v70h95v793h-95v69h174v-932z" />
    <glyph glyph-name="asciicircum" unicode="^" horiz-adv-x="603" 
d="M28 178l235 522h77l235 -522h-86l-185 419h-3l-187 -419h-86z" />
    <glyph glyph-name="underscore" unicode="_" horiz-adv-x="676" 
d="M76 -115v79h524v-79h-524z" />
    <glyph glyph-name="grave" unicode="`" horiz-adv-x="210" 
d="M210 539l-210 117v78h3l207 -122v-73z" />
    <glyph glyph-name="a" unicode="a" horiz-adv-x="510" 
d="M215 -12q-60 0 -100.5 21t-60 56t-19.5 76q0 51 26.5 86t75 53.5t114.5 18.5h134q0 48 -15 80t-43 47.5t-67 15.5q-49 0 -85 -25t-44 -76h-86q6 54 36 91t76.5 56.5t102.5 19.5q71 0 117.5 -25.5t69 -71t22.5 -106.5v-305h-71l-7 86h-3q-13 -23 -31 -41t-39.5 -30.5
t-47.5 -19.5t-55 -7zM229 59q38 0 66.5 14.5t48.5 39.5t30.5 56.5t10.5 64.5v0h-127q-49 0 -79 -11.5t-43 -31.5t-13 -46t12.5 -45.5t36.5 -30t57 -10.5z" />
    <glyph glyph-name="b" unicode="b" horiz-adv-x="593" 
d="M325 -12q-40 0 -76 12t-65.5 35t-49.5 57h-3l-8 -92h-72v705h84v-291q24 36 68.5 65t113.5 29q78 0 132.5 -34.5t83.5 -93.5t29 -132q0 -74 -29 -132.5t-82 -93t-126 -34.5zM308 61q51 0 89.5 23.5t59 65.5t20.5 98t-20.5 98t-59 65.5t-89.5 23.5q-52 0 -90.5 -23.5
t-59.5 -65.5t-21 -98t21 -98t59.5 -65.5t90.5 -23.5z" />
    <glyph glyph-name="c" unicode="c" horiz-adv-x="536" 
d="M280 -12q-76 0 -132 32.5t-86.5 91t-30.5 136.5t32 136.5t89 91t128 32.5q89 0 149 -46t76 -123h-86q-10 50 -49 76t-91 26q-42 0 -79 -21t-60 -64t-23 -108q0 -47 12.5 -82.5t35 -59.5t52 -36t62.5 -12q35 0 64 11.5t49 34t27 53.5h86q-16 -75 -76 -122t-149 -47z" />
    <glyph glyph-name="d" unicode="d" horiz-adv-x="593" 
d="M268 -12q-73 0 -126 34.5t-82 93.5t-29 132q0 74 29 133t84 93t132 34q67 0 112.5 -28t69.5 -66v291h84v-705h-71l-8 92h-3q-20 -33 -49 -56t-65 -35.5t-78 -12.5zM285 61q52 0 90.5 23.5t59.5 65.5t21 98t-21 98t-59.5 65.5t-90.5 23.5q-51 0 -89 -23.5t-59 -65.5
t-21 -98t21 -98t59 -65.5t89 -23.5z" />
    <glyph glyph-name="e" unicode="e" horiz-adv-x="535" 
d="M275 -12q-71 0 -126 32.5t-86.5 91t-31.5 136.5q0 79 31 137t86.5 90.5t128.5 32.5t125 -32.5t80 -85t28 -114.5v-21.5t-1 -25.5h-415v65h333q-3 70 -45.5 109t-106.5 39q-43 0 -80 -19t-59.5 -57t-22.5 -95v-28q0 -62 23 -103t60.5 -61.5t78.5 -20.5q52 0 87 24t51 66
h83q-13 -46 -43 -82t-74.5 -57t-103.5 -21z" />
    <glyph glyph-name="f" unicode="f" horiz-adv-x="309" 
d="M88 0v567q0 48 16 78.5t47.5 45t77.5 14.5h50v-67h-37q-38 0 -54 -15.5t-16 -53.5v-569h-84zM13 433v63h281v-63h-281z" />
    <glyph glyph-name="g" unicode="g" horiz-adv-x="552" 
d="M266 -217q-67 0 -119 17.5t-81 51.5t-29 84q0 22 9.5 45.5t33 46.5t66.5 43l56 -34q-51 -22 -67 -47t-16 -52q0 -28 17 -48t50.5 -30.5t79.5 -10.5q47 0 77.5 12t45 33.5t14.5 49.5q0 32 -25.5 51.5t-96.5 23.5q-59 4 -98.5 11t-65.5 16.5t-43.5 21.5t-31.5 25v23l97 97
l54 -24l-81 -93l9 34q9 -6 19.5 -12.5t29 -11.5t49.5 -10t81 -9q67 -5 108 -22t59.5 -46.5t18.5 -71.5q0 -40 -23.5 -77.5t-72 -62t-124.5 -24.5zM265 156q-63 0 -107 23.5t-67 63.5t-23 89t23 88.5t67 63.5t107 24t107 -24t67 -63.5t23 -88.5t-23 -89t-67 -63.5t-107 -23.5
zM265 221q53 0 84.5 28.5t31.5 82.5q0 55 -31.5 83t-84.5 28t-85 -28t-32 -83q0 -54 32 -82.5t85 -28.5zM345 433l-25 63h206v-50z" />
    <glyph glyph-name="h" unicode="h" horiz-adv-x="537" 
d="M51 0v705h84v-292h3q29 46 73 70.5t95 24.5q57 0 100 -23.5t66.5 -72t23.5 -122.5v-290h-83v281q0 77 -31.5 116t-93.5 39q-43 0 -78 -21t-55 -60.5t-20 -97.5v-257h-84z" />
    <glyph glyph-name="i" unicode="i" horiz-adv-x="208" 
d="M62 0v496h84v-496h-84zM104 598q-25 0 -41.5 16.5t-16.5 42.5q0 24 16.5 40.5t41.5 16.5q24 0 41 -16.5t17 -41.5q0 -24 -17 -41t-41 -17z" />
    <glyph glyph-name="j" unicode="j" horiz-adv-x="217" 
d="M-41 -205v68h39q38 0 54 16t16 56v561h84v-563q0 -48 -16 -78.5t-47.5 -45t-77.5 -14.5h-52zM111 598q-26 0 -42.5 16.5t-16.5 42.5q0 24 16.5 40.5t42.5 16.5q24 0 40.5 -16.5t16.5 -41.5q0 -24 -16.5 -41t-40.5 -17z" />
    <glyph glyph-name="k" unicode="k" horiz-adv-x="477" 
d="M362 0l-241 273l217 223h103l-248 -253v60l276 -303h-107zM51 0v705h84v-705h-84z" />
    <glyph glyph-name="l" unicode="l" horiz-adv-x="186" 
d="M51 0v705h84v-705h-84z" />
    <glyph glyph-name="m" unicode="m" horiz-adv-x="856" 
d="M47 0v496h75l7 -79h3q25 45 66 68t91 23q39 0 70.5 -11t55 -33t37.5 -56h3q27 49 70 74.5t101 25.5q56 0 98.5 -23.5t66.5 -72t24 -122.5v-290h-83v281q0 77 -31 116t-92 39q-40 0 -70 -17t-48 -53t-18 -91v-275h-84v281q0 77 -31 116t-89 39q-36 0 -67.5 -21t-51 -60.5
t-19.5 -97.5v-257h-84z" />
    <glyph glyph-name="n" unicode="n" horiz-adv-x="533" 
d="M47 0v496h75l7 -81h3q26 43 68.5 68t101.5 25q57 0 100 -23.5t66.5 -72t23.5 -122.5v-290h-84v281q0 77 -33 116t-95 39q-43 0 -76.5 -21t-53 -60.5t-19.5 -97.5v-257h-84z" />
    <glyph glyph-name="o" unicode="o" horiz-adv-x="558" 
d="M278 -12q-70 0 -126 32t-88.5 90.5t-32.5 137.5t33 137.5t89.5 90.5t126.5 32t126 -32t88.5 -90.5t32.5 -137.5t-33 -137.5t-89.5 -90.5t-126.5 -32zM278 55q43 0 80 21.5t60 64t23 107.5t-22.5 108t-59.5 64t-79 21t-79.5 -21t-60.5 -64t-23 -108t23 -107.5t59.5 -64
t78.5 -21.5z" />
    <glyph glyph-name="p" unicode="p" horiz-adv-x="593" 
d="M51 -205v701h72l8 -92h3q20 33 48.5 56t65 35.5t77.5 12.5q73 0 126 -34.5t82 -93.5t29 -132q0 -74 -29 -133t-83.5 -93t-132.5 -34q-67 0 -112 28t-70 66v-287h-84zM308 61q51 0 89.5 23.5t59 65.5t20.5 98t-20.5 98t-59 65.5t-89.5 23.5q-52 0 -90.5 -23.5t-59.5 -65.5
t-21 -98t21 -98t59.5 -65.5t90.5 -23.5z" />
    <glyph glyph-name="q" unicode="q" horiz-adv-x="593" 
d="M458 -205v287q-24 -36 -68.5 -65t-113.5 -29q-77 0 -132 34.5t-84 93.5t-29 132q0 74 29 133t82.5 93t125.5 34q41 0 76.5 -11.5t65.5 -34.5t50 -58h3l8 92h71v-701h-84zM285 61q52 0 90.5 23.5t59.5 65.5t21 98t-21 98t-59.5 65.5t-90.5 23.5q-51 0 -89 -23.5t-59 -65.5
t-21 -98t21 -98t59 -65.5t89 -23.5z" />
    <glyph glyph-name="r" unicode="r" horiz-adv-x="326" 
d="M47 0v496h75l8 -105h3q22 49 46.5 74t57.5 34t79 9v-88h-22q-38 0 -68.5 -10t-51.5 -29.5t-32 -51t-11 -74.5v-255h-84z" />
    <glyph glyph-name="s" unicode="s" horiz-adv-x="457" 
d="M239 -12q-59 0 -106 20.5t-75.5 58t-35.5 88.5h86q6 -25 21 -48t42.5 -37.5t68.5 -14.5q36 0 59 10.5t34 28t11 37.5q0 27 -14.5 43t-43 27t-67.5 21q-30 8 -61 18.5t-56.5 25.5t-41 39t-15.5 60q0 40 22 72.5t62.5 51.5t95.5 19q79 0 129.5 -39t58.5 -113h-83
q-4 41 -31.5 63.5t-74.5 22.5q-46 0 -70.5 -20t-24.5 -50q0 -20 12.5 -33.5t39 -23t66.5 -21.5q46 -13 87.5 -29t68 -44t26.5 -77q1 -45 -22.5 -80.5t-66 -55.5t-101.5 -20z" />
    <glyph glyph-name="t" unicode="t" horiz-adv-x="341" 
d="M244 0q-45 0 -78 14t-50.5 47.5t-17.5 90.5v281h-86v63h86l10 119h74v-119h146v-63h-146v-281q0 -51 19 -68t67 -17h52v-67h-76z" />
    <glyph glyph-name="u" unicode="u" horiz-adv-x="533" 
d="M231 -12q-57 0 -99.5 23.5t-66.5 72t-24 122.5v290h84v-281q0 -77 33 -116t94 -39q43 0 77 21t53.5 61t19.5 97v257h84v-496h-75l-7 81h-3q-25 -42 -68 -67.5t-102 -25.5z" />
    <glyph glyph-name="v" unicode="v" horiz-adv-x="485" 
d="M190 0l-180 496h88l144 -425h3l144 425h86l-180 -496h-105z" />
    <glyph glyph-name="w" unicode="w" horiz-adv-x="726" 
d="M147 0l-137 496h84l107 -417h-3l113 417h103l115 -417h-3l105 417h85l-140 -496h-99l-116 426h2l-117 -426h-99z" />
    <glyph glyph-name="x" unicode="x" horiz-adv-x="477" 
d="M9 0l172 248l-172 248h91l137 -208h3l139 208h90l-172 -248l172 -248h-90l-139 209h-3l-137 -209h-91z" />
    <glyph glyph-name="y" unicode="y" horiz-adv-x="534" 
d="M119 -205l119 261h-30l-199 440h91l166 -379h3l169 379h87l-318 -701h-88z" />
    <glyph glyph-name="z" unicode="z" horiz-adv-x="432" 
d="M28 0v65l279 365h-274v66h365v-65l-279 -365h284v-66h-375z" />
    <glyph glyph-name="braceleft" unicode="{" horiz-adv-x="358" 
d="M281 -137q-68 0 -110 35.5t-42 107.5q0 35 5.5 60t11 51.5t5.5 66.5q0 24 -9 46.5t-31 39.5t-63 26v68q41 9 63 26t31 39.5t9 46.5q0 32 -5.5 59t-11 55t-5.5 64q0 72 42 107t110 35h53v-72h-38q-41 0 -63 -17.5t-22 -59.5q0 -31 5 -58t10.5 -54.5t5.5 -61.5
q0 -52 -26 -90t-85 -51v-4q59 -13 85 -51t26 -91q0 -40 -5.5 -67.5t-10.5 -51t-5 -54.5q0 -42 22 -60t63 -18h38v-72h-53z" />
    <glyph glyph-name="bar" unicode="|" horiz-adv-x="189" 
d="M52 -100v820h84v-820h-84z" />
    <glyph glyph-name="braceright" unicode="}" horiz-adv-x="358" 
d="M77 -137h-53v72h38q41 0 63 18t22 60q0 31 -5 54.5t-10.5 51t-5.5 67.5q0 53 26.5 91t84.5 51v4q-58 13 -84.5 51t-26.5 90q0 34 5.5 61.5t10.5 54.5t5 58q0 42 -22 59.5t-63 17.5h-38v72h53q68 0 110 -35t42 -107q0 -36 -5.5 -64t-11 -55t-5.5 -59q0 -24 9 -46.5
t31.5 -39.5t62.5 -26v-68q-40 -9 -62.5 -26t-31.5 -39.5t-9 -46.5q0 -40 5.5 -66.5t11 -51.5t5.5 -60q0 -72 -42 -107.5t-110 -35.5z" />
    <glyph glyph-name="asciitilde" unicode="~" horiz-adv-x="550" 
d="M358 249q-28 0 -50 10t-41.5 23.5t-38.5 23.5t-41 10q-27 0 -44 -18.5t-22 -47.5h-63q8 48 26 79.5t45.5 46.5t62.5 15q29 0 51.5 -10t41.5 -23t38 -23t40 -10q27 0 44.5 18t21.5 48h63q-7 -48 -25 -79.5t-45.5 -47t-63.5 -15.5z" />
    <glyph glyph-name="uni00A0" unicode="&#xa0;" horiz-adv-x="216" 
 />
    <glyph glyph-name="exclamdown" unicode="&#xa1;" horiz-adv-x="197" 
d="M63 309h71l10 -506h-91zM99 508q24 0 40 -16.5t16 -39.5t-16 -39.5t-40 -16.5q-23 0 -39.5 16.5t-16.5 39.5t16.5 39.5t39.5 16.5z" />
    <glyph glyph-name="cent" unicode="&#xa2;" horiz-adv-x="536" 
d="M242 -104v144h81v-144h-81zM242 456v144h81v-144h-81zM280 -12q-76 0 -132 32.5t-86.5 91t-30.5 136.5t32 136.5t89 91t128 32.5q89 0 149 -46t76 -123h-86q-10 50 -49 76t-91 26q-42 0 -79 -21t-60 -64t-23 -108q0 -47 12.5 -82.5t35 -59.5t52 -36t62.5 -12
q35 0 64 11.5t49 34t27 53.5h86q-16 -75 -76 -122t-149 -47z" />
    <glyph glyph-name="sterling" unicode="&#xa3;" horiz-adv-x="567" 
d="M72 0v55q25 28 43.5 53.5t29 57t10.5 74.5q0 34 -9 64.5t-21.5 61t-21.5 65t-9 76.5q0 62 27 108t75 71.5t111 25.5q71 0 117.5 -28t71.5 -74.5t28 -102.5h-77q-3 58 -38.5 96.5t-101.5 38.5q-35 0 -65.5 -14.5t-49 -45t-18.5 -79.5q0 -35 9 -67.5t21 -64.5t21 -64t9 -65
q0 -49 -17.5 -91.5t-55.5 -80.5h365v-70h-454zM30 310v59h367v-59h-367z" />
    <glyph glyph-name="currency" unicode="&#xa4;" horiz-adv-x="502" 
d="M251 121q-51 0 -90 21.5t-61.5 61t-22.5 93.5t23 93.5t62.5 61t89.5 21.5q49 0 88.5 -21.5t62.5 -61t23 -93.5t-23.5 -93.5t-63 -61t-88.5 -21.5zM88 92l-38 38l83 83l40 -36zM414 92l-79 80l37 38l80 -80zM251 186q23 0 45 11.5t36.5 36t14.5 63.5q0 40 -14.5 64.5
t-36.5 36t-45 11.5q-24 0 -46 -11.5t-35.5 -36t-13.5 -64.5q0 -39 13.5 -63.5t35.5 -36t46 -11.5zM132 385l-82 81l38 38l82 -82zM367 381l-34 40l81 83l38 -38z" />
    <glyph glyph-name="yen" unicode="&#xa5;" horiz-adv-x="601" 
d="M59 167v61h484v-61h-484zM272 319h-213v60h203zM343 319l10 60h190v-60h-200zM260 0v256l-228 444h95l179 -367h-5l178 367h92l-227 -444v-256h-84z" />
    <glyph glyph-name="brokenbar" unicode="&#xa6;" horiz-adv-x="189" 
d="M52 387v333h84v-333h-84zM52 -100v333h84v-333h-84z" />
    <glyph glyph-name="section" unicode="&#xa7;" horiz-adv-x="555" 
d="M275 -232q-66 0 -116 25t-77.5 69t-28.5 100h88q0 -29 15 -57t45.5 -46.5t76.5 -18.5q57 -1 93.5 29t36.5 83q0 34 -14.5 55t-42 35t-64.5 26t-82 27q-50 17 -90 41.5t-62.5 62.5t-22.5 96q0 37 14 71t42 62q-13 19 -20 41.5t-7 50.5q0 57 27 100t76.5 67.5t117.5 24.5
q67 0 116.5 -25t77.5 -68.5t28 -100.5h-88q0 29 -15 57t-45.5 46.5t-76.5 18.5q-57 1 -93.5 -29t-36.5 -83q0 -34 14.5 -55t42 -35t64.5 -26t82 -27q51 -17 90.5 -41.5t62 -62.5t22.5 -96q0 -37 -14 -71.5t-43 -61.5q14 -19 20.5 -41.5t6.5 -50.5q1 -56 -26 -99.5t-76.5 -68
t-117.5 -24.5zM408 104q15 15 22.5 34.5t7.5 41.5q0 41 -17 66t-47 40.5t-68.5 28t-81.5 27.5q-23 8 -42 16.5t-35 17.5q-15 -15 -22.5 -34t-7.5 -42q0 -32 11 -54t31 -37.5t47 -27t59 -21.5t66 -22q23 -7 42 -16t35 -18z" />
    <glyph glyph-name="dieresis" unicode="&#xa8;" horiz-adv-x="275" 
d="M218 571q-21 0 -35.5 14.5t-14.5 35.5q0 20 14.5 35t35.5 15q20 0 34.5 -15t14.5 -35q0 -21 -14.5 -35.5t-34.5 -14.5zM58 571q-21 0 -35.5 14.5t-14.5 35.5q0 20 14.5 35t35.5 15q20 0 35 -15t15 -35q0 -21 -15 -35.5t-35 -14.5z" />
    <glyph glyph-name="copyright" unicode="&#xa9;" horiz-adv-x="794" 
d="M397 -4q-103 0 -181 45.5t-121.5 125.5t-43.5 183q0 104 43.5 184t121.5 125t181 45t180.5 -45t121.5 -125t44 -184q0 -103 -44 -183t-121.5 -125.5t-180.5 -45.5zM397 119q-59 0 -108.5 27.5t-79 79.5t-29.5 125t29.5 125t79 79.5t108.5 27.5q74 0 130 -39.5t75 -113.5
h-77q-14 45 -49 68.5t-80 23.5q-39 0 -71 -19.5t-51.5 -57.5t-19.5 -95q0 -56 19.5 -94.5t51.5 -57.5t71 -19q47 0 80.5 23.5t48.5 67.5h77q-19 -70 -75 -110.5t-130 -40.5zM397 33q95 0 163.5 40.5t106 112t37.5 164.5q0 95 -37.5 166.5t-106 111.5t-163.5 40
q-94 0 -163 -40t-106.5 -111.5t-37.5 -166.5q0 -93 37.5 -164.5t106.5 -112t163 -40.5z" />
    <glyph glyph-name="ordfeminine" unicode="&#xaa;" horiz-adv-x="437" 
d="M199 347q-49 0 -86 24t-57.5 65.5t-20.5 93.5t20.5 93t58.5 64.5t91 23.5q50 0 81.5 -20t47.5 -47l5 60h57v-349h-53l-5 69h-2q-21 -38 -56.5 -57.5t-80.5 -19.5zM214 399q36 0 62.5 16t41.5 45.5t15 69.5q0 59 -32.5 94t-86.5 35q-52 0 -84.5 -35t-32.5 -94
q0 -60 32.5 -95.5t84.5 -35.5z" />
    <glyph glyph-name="guillemotleft" unicode="&#xab;" horiz-adv-x="452" 
d="M319 120l-97 175l97 175h83l-100 -175l100 -175h-83zM141 120l-97 175l97 175h83l-100 -175l100 -175h-83z" />
    <glyph glyph-name="logicalnot" unicode="&#xac;" horiz-adv-x="550" 
d="M476 223v142h-486v67h570v-209h-84z" />
    <glyph glyph-name="registered" unicode="&#xae;" horiz-adv-x="504" 
d="M253 307q-59 0 -104.5 26t-71 72t-25.5 104q0 59 25.5 104.5t71 72t104.5 26.5q58 0 103 -26.5t70.5 -72t25.5 -104.5q0 -58 -25.5 -104t-70.5 -72t-103 -26zM293 403l-62 99h51l67 -99h-56zM253 343q49 0 84.5 21.5t55.5 59t20 85.5q0 49 -20 86t-55.5 58.5t-84.5 21.5
t-85.5 -21.5t-56.5 -58.5t-20 -86q0 -48 20 -85.5t56.5 -59t85.5 -21.5zM173 403v215h95q34 0 53.5 -17.5t19.5 -48.5q0 -30 -19.5 -47.5t-53.5 -17.5h-48v-84h-47zM220 525h44q13 0 21.5 6t8.5 20t-8.5 19.5t-21.5 5.5h-44v-51z" />
    <glyph glyph-name="macron" unicode="&#xaf;" horiz-adv-x="358" 
d="M6 592v63h347v-63h-347z" />
    <glyph glyph-name="degree" unicode="&#xb0;" horiz-adv-x="342" 
d="M171 444q-36 0 -66 16.5t-48 46.5t-18 70q0 42 18.5 72t48.5 46.5t66 16.5t65.5 -16.5t47.5 -46.5t18 -72q0 -40 -18 -70t-48 -46.5t-66 -16.5zM171 506q24 0 45.5 18t21.5 54t-21 54t-45 18q-25 0 -46 -18t-21 -54t20.5 -54t45.5 -18z" />
    <glyph glyph-name="plusminus" unicode="&#xb1;" horiz-adv-x="550" 
d="M37 0v64h475v-64h-475zM237 125v353h75v-353h-75zM37 266v71h475v-71h-475z" />
    <glyph glyph-name="uni00B2" unicode="&#xb2;" horiz-adv-x="330" 
d="M35 352v48l112 92q29 24 48.5 49t19.5 59q0 29 -16 44t-39 15q-26 0 -41 -15.5t-19 -43.5h-67q3 46 36 78t95 32q38 0 65.5 -14.5t42 -38.5t14.5 -54q0 -41 -24.5 -71.5t-71.5 -65.5l-81 -60h181v-54h-255z" />
    <glyph glyph-name="uni00B3" unicode="&#xb3;" horiz-adv-x="330" 
d="M161 347q-61 0 -95.5 27.5t-39.5 79.5h67q3 -21 12 -33.5t23.5 -17.5t31.5 -5q30 0 47.5 14.5t17.5 39.5q0 27 -19.5 41.5t-48.5 14.5h-46v41h45q29 0 47.5 14t18.5 41q0 25 -17 39.5t-46 14.5q-28 0 -44.5 -12.5t-21.5 -34.5h-63q3 28 19.5 50.5t45.5 35.5t70 13
q54 0 91 -29t37 -73q0 -31 -17.5 -51t-47.5 -28v-2q29 -9 48.5 -29.5t19.5 -53.5q0 -40 -36 -68.5t-99 -28.5z" />
    <glyph glyph-name="acute" unicode="&#xb4;" horiz-adv-x="210" 
d="M0 539v73l207 122h3v-78z" />
    <glyph glyph-name="uni00B5" unicode="&#xb5;" horiz-adv-x="543" 
d="M51 -220v716h84v-281q0 -77 32.5 -116t95.5 -39q43 0 76.5 21t53 61t19.5 97v257h84v-496h-74l-5 96h-3q-24 -53 -69 -80.5t-102 -27.5q-31 0 -58.5 8t-49.5 24v-240h-84z" />
    <glyph glyph-name="paragraph" unicode="&#xb6;" horiz-adv-x="552" 
d="M270 -100v395h-10q-81 0 -133.5 26.5t-77.5 72.5t-25 103q0 58 25.5 103.5t78 72.5t132.5 27h240v-800h-74v734h-82v-734h-74z" />
    <glyph glyph-name="periodcentered" unicode="&#xb7;" horiz-adv-x="188" 
d="M94 265q-25 0 -41.5 16.5t-16.5 40.5q0 25 16.5 41t41.5 16t41 -16t16 -41q0 -24 -16 -40.5t-41 -16.5z" />
    <glyph glyph-name="cedilla" unicode="&#xb8;" horiz-adv-x="228" 
d="M0 -259v53h92q35 0 51.5 12t16.5 36q0 22 -16.5 33.5t-51.5 11.5h-49v120h56v-70q38 1 67 -9.5t45.5 -32.5t16.5 -54q0 -31 -15.5 -53.5t-43 -34.5t-62.5 -12h-107z" />
    <glyph glyph-name="uni00B9" unicode="&#xb9;" horiz-adv-x="204" 
d="M95 352v286l-67 -18v42l90 42h44v-352h-67z" />
    <glyph glyph-name="ordmasculine" unicode="&#xba;" horiz-adv-x="428" 
d="M213 347q-53 0 -94 23t-64.5 64.5t-23.5 95.5q0 55 24 96t65.5 63.5t93.5 22.5q54 0 95.5 -22.5t65 -63.5t23.5 -96q0 -54 -24 -95.5t-66 -64.5t-95 -23zM213 402q31 0 57.5 14.5t42.5 43t16 70.5q0 43 -16 71.5t-42 43t-58 14.5q-30 0 -56 -14.5t-41.5 -43t-15.5 -71.5
q0 -42 15.5 -70.5t41 -43t56.5 -14.5z" />
    <glyph glyph-name="guillemotright" unicode="&#xbb;" horiz-adv-x="452" 
d="M133 120h-83l100 175l-100 175h83l97 -175zM311 120h-83l100 175l-100 175h83l97 -175z" />
    <glyph glyph-name="onequarter" unicode="&#xbc;" horiz-adv-x="706" 
d="M95 352v286l-67 -18v42l90 42h44v-352h-67zM80 0l407 700h85l-408 -700h-84zM578 0v66h-172v50l160 232h78v-228h46v-54h-46v-66h-66zM476 120h107v156h-3z" />
    <glyph glyph-name="onehalf" unicode="&#xbd;" horiz-adv-x="745" 
d="M95 352v286l-67 -18v42l90 42h44v-352h-67zM80 0l407 700h85l-408 -700h-84zM450 0v48l112 92q29 24 48.5 49t19.5 59q0 29 -16 44t-39 15q-26 0 -41 -15.5t-19 -43.5h-67q3 46 36 78t95 32q38 0 65.5 -14.5t42 -38.5t14.5 -54q0 -41 -24.5 -71.5t-71.5 -65.5l-81 -60
h181v-54h-255z" />
    <glyph glyph-name="threequarters" unicode="&#xbe;" horiz-adv-x="812" 
d="M161 347q-61 0 -95.5 27.5t-39.5 79.5h67q3 -21 12 -33.5t23.5 -17.5t31.5 -5q30 0 47.5 14.5t17.5 39.5q0 27 -19.5 41.5t-48.5 14.5h-46v41h45q29 0 47.5 14t18.5 41q0 25 -17 39.5t-46 14.5q-28 0 -44.5 -12.5t-21.5 -34.5h-63q3 28 19.5 50.5t45.5 35.5t70 13
q54 0 91 -29t37 -73q0 -31 -17.5 -51t-47.5 -28v-2q29 -9 48.5 -29.5t19.5 -53.5q0 -40 -36 -68.5t-99 -28.5zM186 0l407 700h85l-408 -700h-84zM684 0v66h-172v50l160 232h78v-228h46v-54h-46v-66h-66zM582 120h107v156h-3z" />
    <glyph glyph-name="questiondown" unicode="&#xbf;" horiz-adv-x="511" 
d="M363 307l7 -161h-31q-42 0 -80.5 -5.5t-68 -21.5t-47 -45.5t-17.5 -77.5q0 -41 17.5 -71.5t49 -46.5t73.5 -16q43 0 73.5 16t47.5 45t17 68h80q0 -60 -27.5 -105t-76.5 -70t-114 -25t-115 25t-78 71t-28 109q0 74 31.5 120t87 67t126.5 21l7 103h66zM329 508
q23 0 40 -16.5t17 -39.5t-17 -39.5t-40 -16.5t-39 16.5t-16 39.5t16 39.5t39 16.5z" />
    <glyph glyph-name="Agrave" unicode="&#xc0;" horiz-adv-x="627" 
d="M11 0l244 700h120l240 -700h-89l-210 627h-3l-214 -627h-88zM129 209l24 68h317l24 -68h-365zM419 743l-210 117v78h3l207 -122v-73z" />
    <glyph glyph-name="Aacute" unicode="&#xc1;" horiz-adv-x="627" 
d="M11 0l244 700h120l240 -700h-89l-210 627h-3l-214 -627h-88zM129 209l24 68h317l24 -68h-365zM209 743v73l207 122h3v-78z" />
    <glyph glyph-name="Acircumflex" unicode="&#xc2;" horiz-adv-x="627" 
d="M11 0l244 700h120l240 -700h-89l-210 627h-3l-214 -627h-88zM129 209l24 68h317l24 -68h-365zM177 755v66l137 81l137 -81v-66l-137 84z" />
    <glyph glyph-name="Atilde" unicode="&#xc3;" horiz-adv-x="627" 
d="M11 0l244 700h120l240 -700h-89l-210 627h-3l-214 -627h-88zM129 209l24 68h317l24 -68h-365zM379 756q-27 0 -45 12t-33.5 23.5t-36.5 11.5q-16 0 -27.5 -11t-14.5 -34h-49q7 50 32.5 75.5t62.5 25.5q27 0 44.5 -11.5t33.5 -23.5t37 -12q17 0 28.5 11.5t14.5 33.5h49
q-6 -49 -32 -75t-64 -26z" />
    <glyph glyph-name="Adieresis" unicode="&#xc4;" horiz-adv-x="627" 
d="M11 0l244 700h120l240 -700h-89l-210 627h-3l-214 -627h-88zM129 209l24 68h317l24 -68h-365zM235 775q-21 0 -35.5 14.5t-14.5 35.5q0 20 14.5 35t35.5 15q20 0 35 -15t15 -35q0 -21 -15 -35.5t-35 -14.5zM395 775q-21 0 -35.5 14.5t-14.5 35.5q0 20 14.5 35t35.5 15
q20 0 34.5 -15t14.5 -35q0 -21 -14.5 -35.5t-34.5 -14.5z" />
    <glyph glyph-name="Aring" unicode="&#xc5;" horiz-adv-x="627" 
d="M11 0l244 700h120l240 -700h-89l-210 627h-3l-214 -627h-88zM129 209l24 68h317l24 -68h-365zM314 761q-43 0 -74 27.5t-31 75.5t31 75.5t74 27.5q44 0 74.5 -27.5t30.5 -75.5t-30.5 -75.5t-74.5 -27.5zM314 804q24 0 40.5 16.5t16.5 43.5q0 28 -16.5 43.5t-40.5 15.5
q-23 0 -40 -15.5t-17 -43.5q0 -27 17 -43.5t40 -16.5z" />
    <glyph glyph-name="AE" unicode="&#xc6;" horiz-adv-x="872" 
d="M11 0l399 700h425v-67h-289v-247h259v-66h-259v-253h289v-67h-373v633h-3l-356 -633h-92zM164 204l27 68h317l18 -68h-362z" />
    <glyph glyph-name="Ccedilla" unicode="&#xc7;" horiz-adv-x="702" 
d="M372 -12q-103 0 -178 45.5t-115.5 127t-40.5 189.5t40.5 189.5t115.5 127t178 45.5q121 0 196 -57t96 -161h-93q-16 65 -65 104t-134 39q-75 0 -131 -34.5t-86.5 -99t-30.5 -153.5t30.5 -153.5t86.5 -99t131 -34.5q85 0 135 38.5t66 101.5h91q-21 -101 -96 -158t-196 -57
zM284 -260v53h92q35 0 51.5 12t16.5 36q0 22 -16.5 33.5t-51.5 11.5h-49v120h56v-70q38 1 67 -9.5t45.5 -32.5t16.5 -54q0 -31 -15.5 -53.5t-43 -34.5t-62.5 -12h-107z" />
    <glyph glyph-name="Egrave" unicode="&#xc8;" horiz-adv-x="522" 
d="M52 0v700h433v-69h-349v-244h319v-68h-319v-250h349v-69h-433zM374 743l-210 117v78h3l207 -122v-73z" />
    <glyph glyph-name="Eacute" unicode="&#xc9;" horiz-adv-x="522" 
d="M52 0v700h433v-69h-349v-244h319v-68h-319v-250h349v-69h-433zM164 743v73l207 122h3v-78z" />
    <glyph glyph-name="Ecircumflex" unicode="&#xca;" horiz-adv-x="522" 
d="M52 0v700h433v-69h-349v-244h319v-68h-319v-250h349v-69h-433zM132 755v66l137 81l137 -81v-66l-137 84z" />
    <glyph glyph-name="Edieresis" unicode="&#xcb;" horiz-adv-x="522" 
d="M52 0v700h433v-69h-349v-244h319v-68h-319v-250h349v-69h-433zM190 775q-21 0 -35.5 14.5t-14.5 35.5q0 20 14.5 35t35.5 15q20 0 35 -15t15 -35q0 -21 -15 -35.5t-35 -14.5zM350 775q-21 0 -35.5 14.5t-14.5 35.5q0 20 14.5 35t35.5 15q20 0 34.5 -15t14.5 -35
q0 -21 -14.5 -35.5t-34.5 -14.5z" />
    <glyph glyph-name="Igrave" unicode="&#xcc;" horiz-adv-x="189" 
d="M52 0v700h84v-700h-84zM199 743l-210 117v78h3l207 -122v-73z" />
    <glyph glyph-name="Iacute" unicode="&#xcd;" horiz-adv-x="189" 
d="M52 0v700h84v-700h-84zM-11 743v73l207 122h3v-78z" />
    <glyph glyph-name="Icircumflex" unicode="&#xce;" horiz-adv-x="189" 
d="M52 0v700h84v-700h-84zM-43 755v66l137 81l137 -81v-66l-137 84z" />
    <glyph glyph-name="Idieresis" unicode="&#xcf;" horiz-adv-x="189" 
d="M52 0v700h84v-700h-84zM15 775q-21 0 -35.5 14.5t-14.5 35.5q0 20 14.5 35t35.5 15q20 0 35 -15t15 -35q0 -21 -15 -35.5t-35 -14.5zM175 775q-21 0 -35.5 14.5t-14.5 35.5q0 20 14.5 35t35.5 15q20 0 34.5 -15t14.5 -35q0 -21 -14.5 -35.5t-34.5 -14.5z" />
    <glyph glyph-name="Eth" unicode="&#xd0;" horiz-adv-x="688" 
d="M10 311v76h363v-76h-363zM75 0v700h215q123 0 203 -42.5t118.5 -121t38.5 -188.5q0 -108 -38.5 -186t-118.5 -120t-203 -42h-215zM159 70h129q102 0 162.5 33.5t86.5 96t26 148.5q0 88 -26 151t-86.5 97t-162.5 34h-129v-560z" />
    <glyph glyph-name="Ntilde" unicode="&#xd1;" horiz-adv-x="646" 
d="M52 0v700h111l343 -595h3v595h84v-700h-111l-343 595h-3v-595h-84zM388 756q-27 0 -45 12t-33.5 23.5t-36.5 11.5q-16 0 -27.5 -11t-14.5 -34h-49q7 50 32.5 75.5t62.5 25.5q27 0 44.5 -11.5t33.5 -23.5t37 -12q17 0 28.5 11.5t14.5 33.5h49q-6 -49 -32 -75t-64 -26z" />
    <glyph glyph-name="Ograve" unicode="&#xd2;" horiz-adv-x="766" 
d="M383 -12q-103 0 -180.5 45.5t-121 127t-43.5 189.5q0 107 43.5 188.5t121 127.5t180.5 46q104 0 181.5 -46t120.5 -127.5t43 -188.5q0 -108 -43 -189.5t-120.5 -127t-181.5 -45.5zM383 62q77 0 135.5 34.5t91 99t32.5 154.5t-32.5 154.5t-91 98.5t-135.5 34t-135.5 -34
t-91 -98.5t-32.5 -154.5t32.5 -154.5t91 -99t135.5 -34.5zM488 743l-210 117v78h3l207 -122v-73z" />
    <glyph glyph-name="Oacute" unicode="&#xd3;" horiz-adv-x="766" 
d="M383 -12q-103 0 -180.5 45.5t-121 127t-43.5 189.5q0 107 43.5 188.5t121 127.5t180.5 46q104 0 181.5 -46t120.5 -127.5t43 -188.5q0 -108 -43 -189.5t-120.5 -127t-181.5 -45.5zM383 62q77 0 135.5 34.5t91 99t32.5 154.5t-32.5 154.5t-91 98.5t-135.5 34t-135.5 -34
t-91 -98.5t-32.5 -154.5t32.5 -154.5t91 -99t135.5 -34.5zM278 743v73l207 122h3v-78z" />
    <glyph glyph-name="Ocircumflex" unicode="&#xd4;" horiz-adv-x="766" 
d="M383 -12q-103 0 -180.5 45.5t-121 127t-43.5 189.5q0 107 43.5 188.5t121 127.5t180.5 46q104 0 181.5 -46t120.5 -127.5t43 -188.5q0 -108 -43 -189.5t-120.5 -127t-181.5 -45.5zM383 62q77 0 135.5 34.5t91 99t32.5 154.5t-32.5 154.5t-91 98.5t-135.5 34t-135.5 -34
t-91 -98.5t-32.5 -154.5t32.5 -154.5t91 -99t135.5 -34.5zM246 755v66l137 81l137 -81v-66l-137 84z" />
    <glyph glyph-name="Otilde" unicode="&#xd5;" horiz-adv-x="766" 
d="M383 -12q-103 0 -180.5 45.5t-121 127t-43.5 189.5q0 107 43.5 188.5t121 127.5t180.5 46q104 0 181.5 -46t120.5 -127.5t43 -188.5q0 -108 -43 -189.5t-120.5 -127t-181.5 -45.5zM383 62q77 0 135.5 34.5t91 99t32.5 154.5t-32.5 154.5t-91 98.5t-135.5 34t-135.5 -34
t-91 -98.5t-32.5 -154.5t32.5 -154.5t91 -99t135.5 -34.5zM448 756q-27 0 -45 12t-33.5 23.5t-36.5 11.5q-16 0 -27.5 -11t-14.5 -34h-49q7 50 32.5 75.5t62.5 25.5q27 0 44.5 -11.5t33.5 -23.5t37 -12q17 0 28.5 11.5t14.5 33.5h49q-6 -49 -32 -75t-64 -26z" />
    <glyph glyph-name="Odieresis" unicode="&#xd6;" horiz-adv-x="766" 
d="M383 -12q-103 0 -180.5 45.5t-121 127t-43.5 189.5q0 107 43.5 188.5t121 127.5t180.5 46q104 0 181.5 -46t120.5 -127.5t43 -188.5q0 -108 -43 -189.5t-120.5 -127t-181.5 -45.5zM383 62q77 0 135.5 34.5t91 99t32.5 154.5t-32.5 154.5t-91 98.5t-135.5 34t-135.5 -34
t-91 -98.5t-32.5 -154.5t32.5 -154.5t91 -99t135.5 -34.5zM304 775q-21 0 -35.5 14.5t-14.5 35.5q0 20 14.5 35t35.5 15q20 0 35 -15t15 -35q0 -21 -15 -35.5t-35 -14.5zM464 775q-21 0 -35.5 14.5t-14.5 35.5q0 20 14.5 35t35.5 15q20 0 34.5 -15t14.5 -35
q0 -21 -14.5 -35.5t-34.5 -14.5z" />
    <glyph glyph-name="multiply" unicode="&#xd7;" horiz-adv-x="550" 
d="M140 106l-50 50l134 135l-129 129l51 50l129 -129l134 135l50 -50l-134 -135l129 -129l-51 -50l-129 129z" />
    <glyph glyph-name="Oslash" unicode="&#xd8;" horiz-adv-x="766" 
d="M29 0l619 700h89l-618 -700h-90zM383 -12q-103 0 -180.5 45.5t-121 127t-43.5 189.5q0 107 43.5 188.5t121 127.5t180.5 46q104 0 181.5 -46t120.5 -127.5t43 -188.5q0 -108 -43 -189.5t-120.5 -127t-181.5 -45.5zM383 62q77 0 135.5 34.5t91 99t32.5 154.5t-32.5 154.5
t-91 98.5t-135.5 34t-135.5 -34t-91 -98.5t-32.5 -154.5t32.5 -154.5t91 -99t135.5 -34.5z" />
    <glyph glyph-name="Ugrave" unicode="&#xd9;" horiz-adv-x="614" 
d="M306 -12q-72 0 -131 29t-93.5 88.5t-34.5 152.5v442h84v-443q0 -68 22.5 -111t62.5 -63t92 -20q53 0 92 20t61 63t22 111v443h84v-442q0 -93 -35 -152.5t-94 -88.5t-132 -29zM412 743l-210 117v78h3l207 -122v-73z" />
    <glyph glyph-name="Uacute" unicode="&#xda;" horiz-adv-x="614" 
d="M306 -12q-72 0 -131 29t-93.5 88.5t-34.5 152.5v442h84v-443q0 -68 22.5 -111t62.5 -63t92 -20q53 0 92 20t61 63t22 111v443h84v-442q0 -93 -35 -152.5t-94 -88.5t-132 -29zM202 743v73l207 122h3v-78z" />
    <glyph glyph-name="Ucircumflex" unicode="&#xdb;" horiz-adv-x="614" 
d="M306 -12q-72 0 -131 29t-93.5 88.5t-34.5 152.5v442h84v-443q0 -68 22.5 -111t62.5 -63t92 -20q53 0 92 20t61 63t22 111v443h84v-442q0 -93 -35 -152.5t-94 -88.5t-132 -29zM170 755v66l137 81l137 -81v-66l-137 84z" />
    <glyph glyph-name="Udieresis" unicode="&#xdc;" horiz-adv-x="614" 
d="M306 -12q-72 0 -131 29t-93.5 88.5t-34.5 152.5v442h84v-443q0 -68 22.5 -111t62.5 -63t92 -20q53 0 92 20t61 63t22 111v443h84v-442q0 -93 -35 -152.5t-94 -88.5t-132 -29zM228 775q-21 0 -35.5 14.5t-14.5 35.5q0 20 14.5 35t35.5 15q20 0 35 -15t15 -35
q0 -21 -15 -35.5t-35 -14.5zM388 775q-21 0 -35.5 14.5t-14.5 35.5q0 20 14.5 35t35.5 15q20 0 34.5 -15t14.5 -35q0 -21 -14.5 -35.5t-34.5 -14.5z" />
    <glyph glyph-name="Yacute" unicode="&#xdd;" horiz-adv-x="557" 
d="M237 0v256l-228 444h95l179 -367h-5l178 367h92l-227 -444v-256h-84zM174 743v73l207 122h3v-78z" />
    <glyph glyph-name="Thorn" unicode="&#xde;" horiz-adv-x="545" 
d="M52 0v700h84v-146h146q82 0 135 -26.5t78.5 -72.5t25.5 -105q0 -57 -25 -103t-78 -73t-136 -27h-146v-147h-84zM136 217h144q83 0 119 36t36 97q0 64 -36 99t-119 35h-144v-267z" />
    <glyph glyph-name="germandbls" unicode="&#xdf;" horiz-adv-x="627" 
d="M422 -10q-86 0 -140.5 47.5t-62.5 131.5h83q5 -51 35.5 -82t83.5 -31q48 0 74.5 23.5t26.5 64.5q0 38 -23 60.5t-81 41.5q-78 27 -112.5 55t-34.5 74q0 32 14.5 51.5t35.5 33t42 26t35.5 29.5t14.5 43q0 40 -35 64t-97 24q-75 0 -110.5 -40t-35.5 -109v-497h-83v505
q0 61 26 109t77.5 75.5t127.5 27.5q69 0 116.5 -21t72.5 -56.5t25 -77.5q0 -34 -14 -56.5t-35 -38t-42.5 -27.5t-35.5 -24.5t-14 -29.5q0 -15 9.5 -27.5t34.5 -24.5t70 -27q73 -25 105 -62.5t32 -94.5q0 -47 -22.5 -83.5t-64 -56.5t-98.5 -20z" />
    <glyph glyph-name="agrave" unicode="&#xe0;" horiz-adv-x="510" 
d="M215 -12q-60 0 -100.5 21t-60 56t-19.5 76q0 51 26.5 86t75 53.5t114.5 18.5h134q0 48 -15 80t-43 47.5t-67 15.5q-49 0 -85 -25t-44 -76h-86q6 54 36 91t76.5 56.5t102.5 19.5q71 0 117.5 -25.5t69 -71t22.5 -106.5v-305h-71l-7 86h-3q-13 -23 -31 -41t-39.5 -30.5
t-47.5 -19.5t-55 -7zM229 59q38 0 66.5 14.5t48.5 39.5t30.5 56.5t10.5 64.5v0h-127q-49 0 -79 -11.5t-43 -31.5t-13 -46t12.5 -45.5t36.5 -30t57 -10.5zM358 539l-210 117v78h3l207 -122v-73z" />
    <glyph glyph-name="aacute" unicode="&#xe1;" horiz-adv-x="510" 
d="M215 -12q-60 0 -100.5 21t-60 56t-19.5 76q0 51 26.5 86t75 53.5t114.5 18.5h134q0 48 -15 80t-43 47.5t-67 15.5q-49 0 -85 -25t-44 -76h-86q6 54 36 91t76.5 56.5t102.5 19.5q71 0 117.5 -25.5t69 -71t22.5 -106.5v-305h-71l-7 86h-3q-13 -23 -31 -41t-39.5 -30.5
t-47.5 -19.5t-55 -7zM229 59q38 0 66.5 14.5t48.5 39.5t30.5 56.5t10.5 64.5v0h-127q-49 0 -79 -11.5t-43 -31.5t-13 -46t12.5 -45.5t36.5 -30t57 -10.5zM148 539v73l207 122h3v-78z" />
    <glyph glyph-name="acircumflex" unicode="&#xe2;" horiz-adv-x="510" 
d="M215 -12q-60 0 -100.5 21t-60 56t-19.5 76q0 51 26.5 86t75 53.5t114.5 18.5h134q0 48 -15 80t-43 47.5t-67 15.5q-49 0 -85 -25t-44 -76h-86q6 54 36 91t76.5 56.5t102.5 19.5q71 0 117.5 -25.5t69 -71t22.5 -106.5v-305h-71l-7 86h-3q-13 -23 -31 -41t-39.5 -30.5
t-47.5 -19.5t-55 -7zM229 59q38 0 66.5 14.5t48.5 39.5t30.5 56.5t10.5 64.5v0h-127q-49 0 -79 -11.5t-43 -31.5t-13 -46t12.5 -45.5t36.5 -30t57 -10.5zM116 542v66l137 81l137 -81v-66l-137 84z" />
    <glyph glyph-name="atilde" unicode="&#xe3;" horiz-adv-x="510" 
d="M215 -12q-60 0 -100.5 21t-60 56t-19.5 76q0 51 26.5 86t75 53.5t114.5 18.5h134q0 48 -15 80t-43 47.5t-67 15.5q-49 0 -85 -25t-44 -76h-86q6 54 36 91t76.5 56.5t102.5 19.5q71 0 117.5 -25.5t69 -71t22.5 -106.5v-305h-71l-7 86h-3q-13 -23 -31 -41t-39.5 -30.5
t-47.5 -19.5t-55 -7zM229 59q38 0 66.5 14.5t48.5 39.5t30.5 56.5t10.5 64.5v0h-127q-49 0 -79 -11.5t-43 -31.5t-13 -46t12.5 -45.5t36.5 -30t57 -10.5zM308 562q-27 0 -45 12t-33.5 23.5t-36.5 11.5q-16 0 -27.5 -11t-14.5 -34h-49q7 50 32.5 75.5t62.5 25.5
q27 0 44.5 -11.5t33.5 -23.5t37 -12q17 0 28.5 11.5t14.5 33.5h49q-6 -49 -32 -75t-64 -26z" />
    <glyph glyph-name="adieresis" unicode="&#xe4;" horiz-adv-x="510" 
d="M215 -12q-60 0 -100.5 21t-60 56t-19.5 76q0 51 26.5 86t75 53.5t114.5 18.5h134q0 48 -15 80t-43 47.5t-67 15.5q-49 0 -85 -25t-44 -76h-86q6 54 36 91t76.5 56.5t102.5 19.5q71 0 117.5 -25.5t69 -71t22.5 -106.5v-305h-71l-7 86h-3q-13 -23 -31 -41t-39.5 -30.5
t-47.5 -19.5t-55 -7zM229 59q38 0 66.5 14.5t48.5 39.5t30.5 56.5t10.5 64.5v0h-127q-49 0 -79 -11.5t-43 -31.5t-13 -46t12.5 -45.5t36.5 -30t57 -10.5zM173 562q-21 0 -35.5 14.5t-14.5 35.5q0 20 14.5 35t35.5 15q20 0 35 -15t15 -35q0 -21 -15 -35.5t-35 -14.5zM333 562
q-21 0 -35.5 14.5t-14.5 35.5q0 20 14.5 35t35.5 15q20 0 34.5 -15t14.5 -35q0 -21 -14.5 -35.5t-34.5 -14.5z" />
    <glyph glyph-name="aring" unicode="&#xe5;" horiz-adv-x="510" 
d="M215 -12q-60 0 -100.5 21t-60 56t-19.5 76q0 51 26.5 86t75 53.5t114.5 18.5h134q0 48 -15 80t-43 47.5t-67 15.5q-49 0 -85 -25t-44 -76h-86q6 54 36 91t76.5 56.5t102.5 19.5q71 0 117.5 -25.5t69 -71t22.5 -106.5v-305h-71l-7 86h-3q-13 -23 -31 -41t-39.5 -30.5
t-47.5 -19.5t-55 -7zM229 59q38 0 66.5 14.5t48.5 39.5t30.5 56.5t10.5 64.5v0h-127q-49 0 -79 -11.5t-43 -31.5t-13 -46t12.5 -45.5t36.5 -30t57 -10.5zM253 562q-43 0 -74 27.5t-31 75.5t31 75.5t74 27.5q44 0 74.5 -27.5t30.5 -75.5t-30.5 -75.5t-74.5 -27.5zM253 605
q24 0 40.5 16.5t16.5 43.5q0 28 -16.5 43.5t-40.5 15.5q-23 0 -40 -15.5t-17 -43.5q0 -27 17 -43.5t40 -16.5z" />
    <glyph glyph-name="ae" unicode="&#xe6;" horiz-adv-x="889" 
d="M211 -12q-58 0 -97 21t-59 56t-20 76q0 51 26.5 86t74.5 53.5t114 18.5h135q0 48 -15 80t-43 47.5t-66 15.5q-48 0 -84 -25t-44 -76h-86q6 54 36 91t76 56.5t102 19.5q67 0 111.5 -23t68.5 -65q33 42 81.5 65t109.5 23q72 0 124 -32.5t80 -85t28 -113.5v-21.5t-2 -25.5
h-393q3 -57 26.5 -95.5t59 -57.5t75.5 -19q53 0 88 25t51 69h82q-13 -47 -43 -84t-74.5 -58.5t-103.5 -21.5q-68 0 -122 31t-86 86q-24 -42 -56.5 -67.5t-71 -37.5t-83.5 -12zM231 59q47 0 81 24.5t53 63.5t20 82v5h-128q-48 0 -78 -11.5t-43 -31.5t-13 -46t12.5 -45.5
t37 -30t58.5 -10.5zM470 295h311q-4 70 -46 108.5t-105 38.5q-39 0 -74 -16.5t-58 -49t-28 -81.5z" />
    <glyph glyph-name="ccedilla" unicode="&#xe7;" horiz-adv-x="536" 
d="M280 -12q-76 0 -132 32.5t-86.5 91t-30.5 136.5t32 136.5t89 91t128 32.5q89 0 149 -46t76 -123h-86q-10 50 -49 76t-91 26q-42 0 -79 -21t-60 -64t-23 -108q0 -47 12.5 -82.5t35 -59.5t52 -36t62.5 -12q35 0 64 11.5t49 34t27 53.5h86q-16 -75 -76 -122t-149 -47z
M201 -260v53h92q35 0 51.5 12t16.5 36q0 22 -16.5 33.5t-51.5 11.5h-49v120h56v-70q38 1 67 -9.5t45.5 -32.5t16.5 -54q0 -31 -15.5 -53.5t-43 -34.5t-62.5 -12h-107z" />
    <glyph glyph-name="egrave" unicode="&#xe8;" horiz-adv-x="535" 
d="M275 -12q-71 0 -126 32.5t-86.5 91t-31.5 136.5q0 79 31 137t86.5 90.5t128.5 32.5t125 -32.5t80 -85t28 -114.5v-21.5t-1 -25.5h-415v65h333q-3 70 -45.5 109t-106.5 39q-43 0 -80 -19t-59.5 -57t-22.5 -95v-28q0 -62 23 -103t60.5 -61.5t78.5 -20.5q52 0 87 24t51 66
h83q-13 -46 -43 -82t-74.5 -57t-103.5 -21zM374 539l-210 117v78h3l207 -122v-73z" />
    <glyph glyph-name="eacute" unicode="&#xe9;" horiz-adv-x="535" 
d="M275 -12q-71 0 -126 32.5t-86.5 91t-31.5 136.5q0 79 31 137t86.5 90.5t128.5 32.5t125 -32.5t80 -85t28 -114.5v-21.5t-1 -25.5h-415v65h333q-3 70 -45.5 109t-106.5 39q-43 0 -80 -19t-59.5 -57t-22.5 -95v-28q0 -62 23 -103t60.5 -61.5t78.5 -20.5q52 0 87 24t51 66
h83q-13 -46 -43 -82t-74.5 -57t-103.5 -21zM164 539v73l207 122h3v-78z" />
    <glyph glyph-name="ecircumflex" unicode="&#xea;" horiz-adv-x="535" 
d="M275 -12q-71 0 -126 32.5t-86.5 91t-31.5 136.5q0 79 31 137t86.5 90.5t128.5 32.5t125 -32.5t80 -85t28 -114.5v-21.5t-1 -25.5h-415v65h333q-3 70 -45.5 109t-106.5 39q-43 0 -80 -19t-59.5 -57t-22.5 -95v-28q0 -62 23 -103t60.5 -61.5t78.5 -20.5q52 0 87 24t51 66
h83q-13 -46 -43 -82t-74.5 -57t-103.5 -21zM132 542v66l137 81l137 -81v-66l-137 84z" />
    <glyph glyph-name="edieresis" unicode="&#xeb;" horiz-adv-x="535" 
d="M275 -12q-71 0 -126 32.5t-86.5 91t-31.5 136.5q0 79 31 137t86.5 90.5t128.5 32.5t125 -32.5t80 -85t28 -114.5v-21.5t-1 -25.5h-415v65h333q-3 70 -45.5 109t-106.5 39q-43 0 -80 -19t-59.5 -57t-22.5 -95v-28q0 -62 23 -103t60.5 -61.5t78.5 -20.5q52 0 87 24t51 66
h83q-13 -46 -43 -82t-74.5 -57t-103.5 -21zM190 562q-21 0 -35.5 14.5t-14.5 35.5q0 20 14.5 35t35.5 15q20 0 35 -15t15 -35q0 -21 -15 -35.5t-35 -14.5zM350 562q-21 0 -35.5 14.5t-14.5 35.5q0 20 14.5 35t35.5 15q20 0 34.5 -15t14.5 -35q0 -21 -14.5 -35.5t-34.5 -14.5
z" />
    <glyph glyph-name="igrave" unicode="&#xec;" horiz-adv-x="179" 
d="M47 0v496h84v-496h-84zM194 539l-210 117v78h3l207 -122v-73z" />
    <glyph glyph-name="iacute" unicode="&#xed;" horiz-adv-x="179" 
d="M47 0v496h84v-496h-84zM-16 539v73l207 122h3v-78z" />
    <glyph glyph-name="icircumflex" unicode="&#xee;" horiz-adv-x="179" 
d="M47 0v496h84v-496h-84zM-48 542v66l137 81l137 -81v-66l-137 84z" />
    <glyph glyph-name="idieresis" unicode="&#xef;" horiz-adv-x="179" 
d="M47 0v496h84v-496h-84zM10 562q-21 0 -35.5 14.5t-14.5 35.5q0 20 14.5 35t35.5 15q20 0 35 -15t15 -35q0 -21 -15 -35.5t-35 -14.5zM170 562q-21 0 -35.5 14.5t-14.5 35.5q0 20 14.5 35t35.5 15q20 0 34.5 -15t14.5 -35q0 -21 -14.5 -35.5t-34.5 -14.5z" />
    <glyph glyph-name="eth" unicode="&#xf0;" horiz-adv-x="565" 
d="M282 -12q-72 0 -128.5 33t-89.5 91.5t-33 135.5q0 78 33 136.5t90 91t128 32.5q42 0 81 -13t70 -38q-15 35 -34.5 67t-43.5 61.5t-53 58t-63 56.5h84q55 -45 94.5 -95.5t65.5 -105.5t38.5 -115t12.5 -125q0 -83 -33.5 -143.5t-90.5 -94t-128 -33.5zM282 55q44 0 82 21.5
t61.5 64.5t23.5 107t-23 107t-61 64.5t-81 21.5t-81.5 -21.5t-62 -64.5t-23.5 -107t23.5 -107t61 -64.5t80.5 -21.5zM208 551v57l287 100v-57z" />
    <glyph glyph-name="ntilde" unicode="&#xf1;" horiz-adv-x="533" 
d="M47 0v496h75l7 -81h3q26 43 68.5 68t101.5 25q57 0 100 -23.5t66.5 -72t23.5 -122.5v-290h-84v281q0 77 -33 116t-95 39q-43 0 -76.5 -21t-53 -60.5t-19.5 -97.5v-257h-84zM326 562q-27 0 -45 12t-33.5 23.5t-36.5 11.5q-16 0 -27.5 -11t-14.5 -34h-49q7 50 32.5 75.5
t62.5 25.5q27 0 44.5 -11.5t33.5 -23.5t37 -12q17 0 28.5 11.5t14.5 33.5h49q-6 -49 -32 -75t-64 -26z" />
    <glyph glyph-name="ograve" unicode="&#xf2;" horiz-adv-x="558" 
d="M278 -12q-70 0 -126 32t-88.5 90.5t-32.5 137.5t33 137.5t89.5 90.5t126.5 32t126 -32t88.5 -90.5t32.5 -137.5t-33 -137.5t-89.5 -90.5t-126.5 -32zM278 55q43 0 80 21.5t60 64t23 107.5t-22.5 108t-59.5 64t-79 21t-79.5 -21t-60.5 -64t-23 -108t23 -107.5t59.5 -64
t78.5 -21.5zM384 539l-210 117v78h3l207 -122v-73z" />
    <glyph glyph-name="oacute" unicode="&#xf3;" horiz-adv-x="558" 
d="M278 -12q-70 0 -126 32t-88.5 90.5t-32.5 137.5t33 137.5t89.5 90.5t126.5 32t126 -32t88.5 -90.5t32.5 -137.5t-33 -137.5t-89.5 -90.5t-126.5 -32zM278 55q43 0 80 21.5t60 64t23 107.5t-22.5 108t-59.5 64t-79 21t-79.5 -21t-60.5 -64t-23 -108t23 -107.5t59.5 -64
t78.5 -21.5zM174 539v73l207 122h3v-78z" />
    <glyph glyph-name="ocircumflex" unicode="&#xf4;" horiz-adv-x="558" 
d="M278 -12q-70 0 -126 32t-88.5 90.5t-32.5 137.5t33 137.5t89.5 90.5t126.5 32t126 -32t88.5 -90.5t32.5 -137.5t-33 -137.5t-89.5 -90.5t-126.5 -32zM278 55q43 0 80 21.5t60 64t23 107.5t-22.5 108t-59.5 64t-79 21t-79.5 -21t-60.5 -64t-23 -108t23 -107.5t59.5 -64
t78.5 -21.5zM142 542v66l137 81l137 -81v-66l-137 84z" />
    <glyph glyph-name="otilde" unicode="&#xf5;" horiz-adv-x="558" 
d="M278 -12q-70 0 -126 32t-88.5 90.5t-32.5 137.5t33 137.5t89.5 90.5t126.5 32t126 -32t88.5 -90.5t32.5 -137.5t-33 -137.5t-89.5 -90.5t-126.5 -32zM278 55q43 0 80 21.5t60 64t23 107.5t-22.5 108t-59.5 64t-79 21t-79.5 -21t-60.5 -64t-23 -108t23 -107.5t59.5 -64
t78.5 -21.5zM334 562q-27 0 -45 12t-33.5 23.5t-36.5 11.5q-16 0 -27.5 -11t-14.5 -34h-49q7 50 32.5 75.5t62.5 25.5q27 0 44.5 -11.5t33.5 -23.5t37 -12q17 0 28.5 11.5t14.5 33.5h49q-6 -49 -32 -75t-64 -26z" />
    <glyph glyph-name="odieresis" unicode="&#xf6;" horiz-adv-x="558" 
d="M278 -12q-70 0 -126 32t-88.5 90.5t-32.5 137.5t33 137.5t89.5 90.5t126.5 32t126 -32t88.5 -90.5t32.5 -137.5t-33 -137.5t-89.5 -90.5t-126.5 -32zM278 55q43 0 80 21.5t60 64t23 107.5t-22.5 108t-59.5 64t-79 21t-79.5 -21t-60.5 -64t-23 -108t23 -107.5t59.5 -64
t78.5 -21.5zM199 562q-21 0 -35.5 14.5t-14.5 35.5q0 20 14.5 35t35.5 15q20 0 35 -15t15 -35q0 -21 -15 -35.5t-35 -14.5zM359 562q-21 0 -35.5 14.5t-14.5 35.5q0 20 14.5 35t35.5 15q20 0 34.5 -15t14.5 -35q0 -21 -14.5 -35.5t-34.5 -14.5z" />
    <glyph glyph-name="divide" unicode="&#xf7;" horiz-adv-x="550" 
d="M76 255v71h398v-71h-398zM276 89q-23 0 -39.5 16.5t-16.5 39.5q0 24 16.5 40t39.5 16q24 0 40 -16t16 -40q0 -23 -16 -39.5t-40 -16.5zM276 379q-23 0 -39.5 16.5t-16.5 39.5q0 24 16.5 40t39.5 16q24 0 40 -16t16 -40q0 -23 -16 -39.5t-40 -16.5z" />
    <glyph glyph-name="oslash" unicode="&#xf8;" horiz-adv-x="559" 
d="M26 0l429 496h79l-428 -496h-80zM278 -12q-70 0 -126 32t-88.5 90.5t-32.5 137.5t33 137.5t89.5 90.5t126.5 32t126 -32t88.5 -90.5t32.5 -137.5t-33 -137.5t-89.5 -90.5t-126.5 -32zM278 55q43 0 80 21.5t60 64t23 107.5t-22.5 108t-59.5 64t-79 21t-79.5 -21t-60.5 -64
t-23 -108t23 -107.5t59.5 -64t78.5 -21.5z" />
    <glyph glyph-name="ugrave" unicode="&#xf9;" horiz-adv-x="533" 
d="M231 -12q-57 0 -99.5 23.5t-66.5 72t-24 122.5v290h84v-281q0 -77 33 -116t94 -39q43 0 77 21t53.5 61t19.5 97v257h84v-496h-75l-7 81h-3q-25 -42 -68 -67.5t-102 -25.5zM367 539l-210 117v78h3l207 -122v-73z" />
    <glyph glyph-name="uacute" unicode="&#xfa;" horiz-adv-x="533" 
d="M231 -12q-57 0 -99.5 23.5t-66.5 72t-24 122.5v290h84v-281q0 -77 33 -116t94 -39q43 0 77 21t53.5 61t19.5 97v257h84v-496h-75l-7 81h-3q-25 -42 -68 -67.5t-102 -25.5zM157 539v73l207 122h3v-78z" />
    <glyph glyph-name="ucircumflex" unicode="&#xfb;" horiz-adv-x="533" 
d="M231 -12q-57 0 -99.5 23.5t-66.5 72t-24 122.5v290h84v-281q0 -77 33 -116t94 -39q43 0 77 21t53.5 61t19.5 97v257h84v-496h-75l-7 81h-3q-25 -42 -68 -67.5t-102 -25.5zM125 542v66l137 81l137 -81v-66l-137 84z" />
    <glyph glyph-name="udieresis" unicode="&#xfc;" horiz-adv-x="533" 
d="M231 -12q-57 0 -99.5 23.5t-66.5 72t-24 122.5v290h84v-281q0 -77 33 -116t94 -39q43 0 77 21t53.5 61t19.5 97v257h84v-496h-75l-7 81h-3q-25 -42 -68 -67.5t-102 -25.5zM182 562q-21 0 -35.5 14.5t-14.5 35.5q0 20 14.5 35t35.5 15q20 0 35 -15t15 -35q0 -21 -15 -35.5
t-35 -14.5zM342 562q-21 0 -35.5 14.5t-14.5 35.5q0 20 14.5 35t35.5 15q20 0 34.5 -15t14.5 -35q0 -21 -14.5 -35.5t-34.5 -14.5z" />
    <glyph glyph-name="yacute" unicode="&#xfd;" horiz-adv-x="534" 
d="M119 -205l119 261h-30l-199 440h91l166 -379h3l169 379h87l-318 -701h-88zM162 539v73l207 122h3v-78z" />
    <glyph glyph-name="thorn" unicode="&#xfe;" horiz-adv-x="593" 
d="M51 -205v895h84v-277q17 29 43.5 50.5t61 33t76.5 11.5q74 0 129 -33t86 -92t31 -135q0 -77 -31 -135.5t-86.5 -91.5t-128.5 -33q-61 0 -108 25t-73 70v-288h-84zM307 61q50 0 88.5 23.5t60 65.5t21.5 98t-21.5 98t-60 65.5t-88.5 23.5t-88.5 -23.5t-60 -65.5t-21.5 -98
t21.5 -98t60 -65.5t88.5 -23.5z" />
    <glyph glyph-name="ydieresis" unicode="&#xff;" horiz-adv-x="534" 
d="M119 -205l119 261h-30l-199 440h91l166 -379h3l169 379h87l-318 -701h-88zM187 562q-21 0 -35.5 14.5t-14.5 35.5q0 20 14.5 35t35.5 15q20 0 35 -15t15 -35q0 -21 -15 -35.5t-35 -14.5zM347 562q-21 0 -35.5 14.5t-14.5 35.5q0 20 14.5 35t35.5 15q20 0 34.5 -15
t14.5 -35q0 -21 -14.5 -35.5t-34.5 -14.5z" />
    <glyph glyph-name="Amacron" unicode="&#x100;" horiz-adv-x="627" 
d="M11 0l244 700h120l240 -700h-89l-210 627h-3l-214 -627h-88zM129 209l24 68h317l24 -68h-365zM140 796v63h347v-63h-347z" />
    <glyph glyph-name="amacron" unicode="&#x101;" horiz-adv-x="510" 
d="M215 -12q-60 0 -100.5 21t-60 56t-19.5 76q0 51 26.5 86t75 53.5t114.5 18.5h134q0 48 -15 80t-43 47.5t-67 15.5q-49 0 -85 -25t-44 -76h-86q6 54 36 91t76.5 56.5t102.5 19.5q71 0 117.5 -25.5t69 -71t22.5 -106.5v-305h-71l-7 86h-3q-13 -23 -31 -41t-39.5 -30.5
t-47.5 -19.5t-55 -7zM229 59q38 0 66.5 14.5t48.5 39.5t30.5 56.5t10.5 64.5v0h-127q-49 0 -79 -11.5t-43 -31.5t-13 -46t12.5 -45.5t36.5 -30t57 -10.5zM79 586v63h347v-63h-347z" />
    <glyph glyph-name="Abreve" unicode="&#x102;" horiz-adv-x="627" 
d="M11 0l244 700h120l240 -700h-89l-210 627h-3l-214 -627h-88zM129 209l24 68h317l24 -68h-365zM314 757q-46 0 -77 17.5t-47 47t-16 65.5v14h50q0 -37 21 -57.5t69 -20.5t69 20.5t21 57.5h51v-14q0 -36 -16.5 -65.5t-47.5 -47t-77 -17.5z" />
    <glyph glyph-name="abreve" unicode="&#x103;" horiz-adv-x="510" 
d="M215 -12q-60 0 -100.5 21t-60 56t-19.5 76q0 51 26.5 86t75 53.5t114.5 18.5h134q0 48 -15 80t-43 47.5t-67 15.5q-49 0 -85 -25t-44 -76h-86q6 54 36 91t76.5 56.5t102.5 19.5q71 0 117.5 -25.5t69 -71t22.5 -106.5v-305h-71l-7 86h-3q-13 -23 -31 -41t-39.5 -30.5
t-47.5 -19.5t-55 -7zM229 59q38 0 66.5 14.5t48.5 39.5t30.5 56.5t10.5 64.5v0h-127q-49 0 -79 -11.5t-43 -31.5t-13 -46t12.5 -45.5t36.5 -30t57 -10.5zM253 555q-46 0 -77 17.5t-47 47t-16 65.5v14h50q0 -37 21 -57.5t69 -20.5t69 20.5t21 57.5h51v-14q0 -36 -16.5 -65.5
t-47.5 -47t-77 -17.5z" />
    <glyph glyph-name="Aogonek" unicode="&#x104;" horiz-adv-x="627" 
d="M11 0l244 700h120l240 -700h-89l-210 627h-3l-214 -627h-88zM129 209l24 68h317l24 -68h-365zM543 -203q-30 0 -57 9.5t-44 30.5t-17 55q0 24 11 45.5t36.5 42.5t68.5 40l53 23l21 -43l-58 -28q-35 -17 -49.5 -35t-14.5 -37q0 -23 16.5 -36t43.5 -13q14 0 31.5 4t33.5 11
v-56q-16 -6 -35.5 -9.5t-39.5 -3.5z" />
    <glyph glyph-name="aogonek" unicode="&#x105;" horiz-adv-x="510" 
d="M215 -12q-60 0 -100.5 21t-60 56t-19.5 76q0 51 26.5 86t75 53.5t114.5 18.5h134q0 48 -15 80t-43 47.5t-67 15.5q-49 0 -85 -25t-44 -76h-86q6 54 36 91t76.5 56.5t102.5 19.5q71 0 117.5 -25.5t69 -71t22.5 -106.5v-305h-71l-7 86h-3q-13 -23 -31 -41t-39.5 -30.5
t-47.5 -19.5t-55 -7zM229 59q38 0 66.5 14.5t48.5 39.5t30.5 56.5t10.5 64.5v0h-127q-49 0 -79 -11.5t-43 -31.5t-13 -46t12.5 -45.5t36.5 -30t57 -10.5zM397 -203q-30 0 -57 9.5t-44 30.5t-17 55q0 24 11 45.5t36.5 42.5t68.5 40l53 23l21 -43l-58 -28q-35 -17 -49.5 -35
t-14.5 -37q0 -23 16.5 -36t43.5 -13q14 0 31.5 4t33.5 11v-56q-16 -6 -35.5 -9.5t-39.5 -3.5z" />
    <glyph glyph-name="Cacute" unicode="&#x106;" horiz-adv-x="702" 
d="M372 -12q-103 0 -178 45.5t-115.5 127t-40.5 189.5t40.5 189.5t115.5 127t178 45.5q121 0 196 -57t96 -161h-93q-16 65 -65 104t-134 39q-75 0 -131 -34.5t-86.5 -99t-30.5 -153.5t30.5 -153.5t86.5 -99t131 -34.5q85 0 135 38.5t66 101.5h91q-21 -101 -96 -158t-196 -57
zM246 743v73l207 122h3v-78z" />
    <glyph glyph-name="cacute" unicode="&#x107;" horiz-adv-x="536" 
d="M280 -12q-76 0 -132 32.5t-86.5 91t-30.5 136.5t32 136.5t89 91t128 32.5q89 0 149 -46t76 -123h-86q-10 50 -49 76t-91 26q-42 0 -79 -21t-60 -64t-23 -108q0 -47 12.5 -82.5t35 -59.5t52 -36t62.5 -12q35 0 64 11.5t49 34t27 53.5h86q-16 -75 -76 -122t-149 -47z
M163 539v73l207 122h3v-78z" />
    <glyph glyph-name="Cdotaccent" unicode="&#x10a;" horiz-adv-x="702" 
d="M372 -12q-103 0 -178 45.5t-115.5 127t-40.5 189.5t40.5 189.5t115.5 127t178 45.5q121 0 196 -57t96 -161h-93q-16 65 -65 104t-134 39q-75 0 -131 -34.5t-86.5 -99t-30.5 -153.5t30.5 -153.5t86.5 -99t131 -34.5q85 0 135 38.5t66 101.5h91q-21 -101 -96 -158t-196 -57
zM351 766q-20 0 -35 15t-15 35t15 35t35 15t35 -15t15 -35t-15 -35t-35 -15z" />
    <glyph glyph-name="cdotaccent" unicode="&#x10b;" horiz-adv-x="536" 
d="M280 -12q-76 0 -132 32.5t-86.5 91t-30.5 136.5t32 136.5t89 91t128 32.5q89 0 149 -46t76 -123h-86q-10 50 -49 76t-91 26q-42 0 -79 -21t-60 -64t-23 -108q0 -47 12.5 -82.5t35 -59.5t52 -36t62.5 -12q35 0 64 11.5t49 34t27 53.5h86q-16 -75 -76 -122t-149 -47z
M268 563q-20 0 -35 15t-15 35t15 35t35 15t35 -15t15 -35t-15 -35t-35 -15z" />
    <glyph glyph-name="Ccaron" unicode="&#x10c;" horiz-adv-x="702" 
d="M372 -12q-103 0 -178 45.5t-115.5 127t-40.5 189.5t40.5 189.5t115.5 127t178 45.5q121 0 196 -57t96 -161h-93q-16 65 -65 104t-134 39q-75 0 -131 -34.5t-86.5 -99t-30.5 -153.5t30.5 -153.5t86.5 -99t131 -34.5q85 0 135 38.5t66 101.5h91q-21 -101 -96 -158t-196 -57
zM351 754l-137 82v65l137 -84l137 84v-65z" />
    <glyph glyph-name="ccaron" unicode="&#x10d;" horiz-adv-x="536" 
d="M280 -12q-76 0 -132 32.5t-86.5 91t-30.5 136.5t32 136.5t89 91t128 32.5q89 0 149 -46t76 -123h-86q-10 50 -49 76t-91 26q-42 0 -79 -21t-60 -64t-23 -108q0 -47 12.5 -82.5t35 -59.5t52 -36t62.5 -12q35 0 64 11.5t49 34t27 53.5h86q-16 -75 -76 -122t-149 -47z
M268 555l-137 82v65l137 -84l137 84v-65z" />
    <glyph glyph-name="Dcaron" unicode="&#x10e;" horiz-adv-x="665" 
d="M52 0v700h215q123 0 203 -42.5t118.5 -121t38.5 -188.5q0 -108 -38.5 -186t-118.5 -120t-203 -42h-215zM136 70h129q102 0 162.5 33.5t86.5 96t26 148.5q0 88 -26 151t-86.5 97t-162.5 34h-129v-560zM267 754l-137 82v65l137 -84l137 84v-65z" />
    <glyph glyph-name="dcaron" unicode="&#x10f;" horiz-adv-x="694" 
d="M268 -12q-73 0 -126 34.5t-82 93.5t-29 132q0 74 29 133t84 93t132 34q67 0 112.5 -28t69.5 -66v291h84v-705h-71l-8 92h-3q-20 -33 -49 -56t-65 -35.5t-78 -12.5zM285 61q52 0 90.5 23.5t59.5 65.5t21 98t-21 98t-59.5 65.5t-90.5 23.5q-51 0 -89 -23.5t-59 -65.5
t-21 -98t21 -98t59 -65.5t89 -23.5zM585 540v40q26 0 37 9.5t11 28.5v21h-48v83h96q2 -26 2.5 -45t0.5 -39q0 -52 -26 -75t-73 -23z" />
    <glyph glyph-name="Dcroat" unicode="&#x110;" horiz-adv-x="688" 
d="M10 311v76h363v-76h-363zM75 0v700h215q123 0 203 -42.5t118.5 -121t38.5 -188.5q0 -108 -38.5 -186t-118.5 -120t-203 -42h-215zM159 70h129q102 0 162.5 33.5t86.5 96t26 148.5q0 88 -26 151t-86.5 97t-162.5 34h-129v-560z" />
    <glyph glyph-name="dcroat" unicode="&#x111;" horiz-adv-x="626" 
d="M331 555v65h263v-65h-263zM268 -12q-73 0 -126 34.5t-82 93.5t-29 132q0 74 29 133t84 93t132 34q67 0 112.5 -28t69.5 -66v291h84v-705h-71l-8 92h-3q-20 -33 -49 -56t-65 -35.5t-78 -12.5zM285 61q52 0 90.5 23.5t59.5 65.5t21 98t-21 98t-59.5 65.5t-90.5 23.5
q-51 0 -89 -23.5t-59 -65.5t-21 -98t21 -98t59 -65.5t89 -23.5z" />
    <glyph glyph-name="Emacron" unicode="&#x112;" horiz-adv-x="522" 
d="M52 0v700h433v-69h-349v-244h319v-68h-319v-250h349v-69h-433zM95 796v63h347v-63h-347z" />
    <glyph glyph-name="emacron" unicode="&#x113;" horiz-adv-x="535" 
d="M275 -12q-71 0 -126 32.5t-86.5 91t-31.5 136.5q0 79 31 137t86.5 90.5t128.5 32.5t125 -32.5t80 -85t28 -114.5v-21.5t-1 -25.5h-415v65h333q-3 70 -45.5 109t-106.5 39q-43 0 -80 -19t-59.5 -57t-22.5 -95v-28q0 -62 23 -103t60.5 -61.5t78.5 -20.5q52 0 87 24t51 66
h83q-13 -46 -43 -82t-74.5 -57t-103.5 -21zM95 586v63h347v-63h-347z" />
    <glyph glyph-name="Ebreve" unicode="&#x114;" horiz-adv-x="522" 
d="M52 0v700h433v-69h-349v-244h319v-68h-319v-250h349v-69h-433zM269 757q-46 0 -77 17.5t-47 47t-16 65.5v14h50q0 -37 21 -57.5t69 -20.5t69 20.5t21 57.5h51v-14q0 -36 -16.5 -65.5t-47.5 -47t-77 -17.5z" />
    <glyph glyph-name="ebreve" unicode="&#x115;" horiz-adv-x="535" 
d="M275 -12q-71 0 -126 32.5t-86.5 91t-31.5 136.5q0 79 31 137t86.5 90.5t128.5 32.5t125 -32.5t80 -85t28 -114.5v-21.5t-1 -25.5h-415v65h333q-3 70 -45.5 109t-106.5 39q-43 0 -80 -19t-59.5 -57t-22.5 -95v-28q0 -62 23 -103t60.5 -61.5t78.5 -20.5q52 0 87 24t51 66
h83q-13 -46 -43 -82t-74.5 -57t-103.5 -21zM269 555q-46 0 -77 17.5t-47 47t-16 65.5v14h50q0 -37 21 -57.5t69 -20.5t69 20.5t21 57.5h51v-14q0 -36 -16.5 -65.5t-47.5 -47t-77 -17.5z" />
    <glyph glyph-name="Edotaccent" unicode="&#x116;" horiz-adv-x="522" 
d="M52 0v700h433v-69h-349v-244h319v-68h-319v-250h349v-69h-433zM269 766q-20 0 -35 15t-15 35t15 35t35 15t35 -15t15 -35t-15 -35t-35 -15z" />
    <glyph glyph-name="edotaccent" unicode="&#x117;" horiz-adv-x="535" 
d="M275 -12q-71 0 -126 32.5t-86.5 91t-31.5 136.5q0 79 31 137t86.5 90.5t128.5 32.5t125 -32.5t80 -85t28 -114.5v-21.5t-1 -25.5h-415v65h333q-3 70 -45.5 109t-106.5 39q-43 0 -80 -19t-59.5 -57t-22.5 -95v-28q0 -62 23 -103t60.5 -61.5t78.5 -20.5q52 0 87 24t51 66
h83q-13 -46 -43 -82t-74.5 -57t-103.5 -21zM269 563q-20 0 -35 15t-15 35t15 35t35 15t35 -15t15 -35t-15 -35t-35 -15z" />
    <glyph glyph-name="Eogonek" unicode="&#x118;" horiz-adv-x="522" 
d="M52 0v700h433v-69h-349v-244h319v-68h-319v-250h349v-69h-433zM413 -203q-30 0 -57 9.5t-44 30.5t-17 55q0 24 11 45.5t36.5 42.5t68.5 40l53 23l21 -43l-58 -28q-35 -17 -49.5 -35t-14.5 -37q0 -23 16.5 -36t43.5 -13q14 0 31.5 4t33.5 11v-56q-16 -6 -35.5 -9.5
t-39.5 -3.5z" />
    <glyph glyph-name="eogonek" unicode="&#x119;" horiz-adv-x="535" 
d="M275 -12q-71 0 -126 32.5t-86.5 91t-31.5 136.5q0 79 31 137t86.5 90.5t128.5 32.5t125 -32.5t80 -85t28 -114.5v-21.5t-1 -25.5h-415v65h333q-3 70 -45.5 109t-106.5 39q-43 0 -80 -19t-59.5 -57t-22.5 -95v-28q0 -62 23 -103t60.5 -61.5t78.5 -20.5q52 0 87 24t51 66
h83q-13 -46 -43 -82t-74.5 -57t-103.5 -21zM307 -192q-30 0 -57 9.5t-44 30.5t-17 55q0 24 11 45.5t36.5 42.5t68.5 40l53 23l21 -43l-58 -28q-35 -17 -49.5 -35t-14.5 -37q0 -23 16.5 -36t43.5 -13q14 0 31.5 4t33.5 11v-56q-16 -6 -35.5 -9.5t-39.5 -3.5z" />
    <glyph glyph-name="Ecaron" unicode="&#x11a;" horiz-adv-x="522" 
d="M52 0v700h433v-69h-349v-244h319v-68h-319v-250h349v-69h-433zM269 754l-137 82v65l137 -84l137 84v-65z" />
    <glyph glyph-name="ecaron" unicode="&#x11b;" horiz-adv-x="535" 
d="M275 -12q-71 0 -126 32.5t-86.5 91t-31.5 136.5q0 79 31 137t86.5 90.5t128.5 32.5t125 -32.5t80 -85t28 -114.5v-21.5t-1 -25.5h-415v65h333q-3 70 -45.5 109t-106.5 39q-43 0 -80 -19t-59.5 -57t-22.5 -95v-28q0 -62 23 -103t60.5 -61.5t78.5 -20.5q52 0 87 24t51 66
h83q-13 -46 -43 -82t-74.5 -57t-103.5 -21zM269 555l-137 82v65l137 -84l137 84v-65z" />
    <glyph glyph-name="Gbreve" unicode="&#x11e;" horiz-adv-x="738" 
d="M360 -12q-97 0 -169.5 45.5t-112.5 126.5t-40 189q0 107 41.5 189t118 128t180.5 46q118 0 197 -56.5t101 -157.5h-97q-14 63 -66 100t-135 37q-77 0 -134.5 -34.5t-88.5 -98.5t-31 -153t31 -153.5t86.5 -98.5t127.5 -34q112 0 169 66t65 179h-202v66h288v-374h-75
l-9 136h-3q-26 -48 -61.5 -81t-79.5 -50t-101 -17zM369 757q-46 0 -77 17.5t-47 47t-16 65.5v14h50q0 -37 21 -57.5t69 -20.5t69 20.5t21 57.5h51v-14q0 -36 -16.5 -65.5t-47.5 -47t-77 -17.5z" />
    <glyph glyph-name="gbreve" unicode="&#x11f;" horiz-adv-x="552" 
d="M266 -217q-67 0 -119 17.5t-81 51.5t-29 84q0 22 9.5 45.5t33 46.5t66.5 43l56 -34q-51 -22 -67 -47t-16 -52q0 -28 17 -48t50.5 -30.5t79.5 -10.5q47 0 77.5 12t45 33.5t14.5 49.5q0 32 -25.5 51.5t-96.5 23.5q-59 4 -98.5 11t-65.5 16.5t-43.5 21.5t-31.5 25v23l97 97
l54 -24l-81 -93l9 34q9 -6 19.5 -12.5t29 -11.5t49.5 -10t81 -9q67 -5 108 -22t59.5 -46.5t18.5 -71.5q0 -40 -23.5 -77.5t-72 -62t-124.5 -24.5zM265 156q-63 0 -107 23.5t-67 63.5t-23 89t23 88.5t67 63.5t107 24t107 -24t67 -63.5t23 -88.5t-23 -89t-67 -63.5t-107 -23.5
zM265 221q53 0 84.5 28.5t31.5 82.5q0 55 -31.5 83t-84.5 28t-85 -28t-32 -83q0 -54 32 -82.5t85 -28.5zM345 433l-25 63h206v-50zM265 555q-46 0 -77 17.5t-47 47t-16 65.5v14h50q0 -37 21 -57.5t69 -20.5t69 20.5t21 57.5h51v-14q0 -36 -16.5 -65.5t-47.5 -47t-77 -17.5z
" />
    <glyph glyph-name="Gdotaccent" unicode="&#x120;" horiz-adv-x="738" 
d="M360 -12q-97 0 -169.5 45.5t-112.5 126.5t-40 189q0 107 41.5 189t118 128t180.5 46q118 0 197 -56.5t101 -157.5h-97q-14 63 -66 100t-135 37q-77 0 -134.5 -34.5t-88.5 -98.5t-31 -153t31 -153.5t86.5 -98.5t127.5 -34q112 0 169 66t65 179h-202v66h288v-374h-75
l-9 136h-3q-26 -48 -61.5 -81t-79.5 -50t-101 -17zM369 766q-20 0 -35 15t-15 35t15 35t35 15t35 -15t15 -35t-15 -35t-35 -15z" />
    <glyph glyph-name="gdotaccent" unicode="&#x121;" horiz-adv-x="552" 
d="M266 -217q-67 0 -119 17.5t-81 51.5t-29 84q0 22 9.5 45.5t33 46.5t66.5 43l56 -34q-51 -22 -67 -47t-16 -52q0 -28 17 -48t50.5 -30.5t79.5 -10.5q47 0 77.5 12t45 33.5t14.5 49.5q0 32 -25.5 51.5t-96.5 23.5q-59 4 -98.5 11t-65.5 16.5t-43.5 21.5t-31.5 25v23l97 97
l54 -24l-81 -93l9 34q9 -6 19.5 -12.5t29 -11.5t49.5 -10t81 -9q67 -5 108 -22t59.5 -46.5t18.5 -71.5q0 -40 -23.5 -77.5t-72 -62t-124.5 -24.5zM265 156q-63 0 -107 23.5t-67 63.5t-23 89t23 88.5t67 63.5t107 24t107 -24t67 -63.5t23 -88.5t-23 -89t-67 -63.5t-107 -23.5
zM265 221q53 0 84.5 28.5t31.5 82.5q0 55 -31.5 83t-84.5 28t-85 -28t-32 -83q0 -54 32 -82.5t85 -28.5zM345 433l-25 63h206v-50zM265 563q-20 0 -35 15t-15 35t15 35t35 15t35 -15t15 -35t-15 -35t-35 -15z" />
    <glyph glyph-name="uni0122" unicode="&#x122;" horiz-adv-x="738" 
d="M360 -12q-97 0 -169.5 45.5t-112.5 126.5t-40 189q0 107 41.5 189t118 128t180.5 46q118 0 197 -56.5t101 -157.5h-97q-14 63 -66 100t-135 37q-77 0 -134.5 -34.5t-88.5 -98.5t-31 -153t31 -153.5t86.5 -98.5t127.5 -34q112 0 169 66t65 179h-202v66h288v-374h-75
l-9 136h-3q-26 -48 -61.5 -81t-79.5 -50t-101 -17zM321 -238v40q25 0 35.5 14.5t10.5 42.5v14h-45v77h93q1 -20 1.5 -39t0.5 -35q0 -60 -25 -87t-71 -27z" />
    <glyph glyph-name="uni0123" unicode="&#x123;" horiz-adv-x="552" 
d="M266 -217q-67 0 -119 17.5t-81 51.5t-29 84q0 22 9.5 45.5t33 46.5t66.5 43l56 -34q-51 -22 -67 -47t-16 -52q0 -28 17 -48t50.5 -30.5t79.5 -10.5q47 0 77.5 12t45 33.5t14.5 49.5q0 32 -25.5 51.5t-96.5 23.5q-59 4 -98.5 11t-65.5 16.5t-43.5 21.5t-31.5 25v23l97 97
l54 -24l-81 -93l9 34q9 -6 19.5 -12.5t29 -11.5t49.5 -10t81 -9q67 -5 108 -22t59.5 -46.5t18.5 -71.5q0 -40 -23.5 -77.5t-72 -62t-124.5 -24.5zM265 156q-63 0 -107 23.5t-67 63.5t-23 89t23 88.5t67 63.5t107 24t107 -24t67 -63.5t23 -88.5t-23 -89t-67 -63.5t-107 -23.5
zM265 221q53 0 84.5 28.5t31.5 82.5q0 55 -31.5 83t-84.5 28t-85 -28t-32 -83q0 -54 32 -82.5t85 -28.5zM345 433l-25 63h206v-50zM315 740v-40q-25 0 -36.5 -9.5t-11.5 -28.5v-21h48v-83h-96q-1 26 -2 45.5t-1 38.5q0 52 26 75t73 23z" />
    <glyph glyph-name="Hbar" unicode="&#x126;" horiz-adv-x="749" 
d="M40 495v76h669v-76h-669zM556 0v700h84v-700h-84zM109 0v700h84v-700h-84zM177 322v69h400v-69h-400z" />
    <glyph glyph-name="hbar" unicode="&#x127;" horiz-adv-x="570" 
d="M33 555v65h262v-65h-262zM84 0v705h84v-292h3q29 46 73 70.5t95 24.5q57 0 100 -23.5t66.5 -72t23.5 -122.5v-290h-83v281q0 77 -31.5 116t-93.5 39q-43 0 -78 -21t-55 -60.5t-20 -97.5v-257h-84z" />
    <glyph glyph-name="Itilde" unicode="&#x128;" horiz-adv-x="189" 
d="M52 0v700h84v-700h-84zM159 756q-27 0 -45 12t-33.5 23.5t-36.5 11.5q-16 0 -27.5 -11t-14.5 -34h-49q7 50 32.5 75.5t62.5 25.5q27 0 44.5 -11.5t33.5 -23.5t37 -12q17 0 28.5 11.5t14.5 33.5h49q-6 -49 -32 -75t-64 -26z" />
    <glyph glyph-name="itilde" unicode="&#x129;" horiz-adv-x="179" 
d="M47 0v496h84v-496h-84zM144 562q-27 0 -45 12t-33.5 23.5t-36.5 11.5q-16 0 -27.5 -11t-14.5 -34h-49q7 50 32.5 75.5t62.5 25.5q27 0 44.5 -11.5t33.5 -23.5t37 -12q17 0 28.5 11.5t14.5 33.5h49q-6 -49 -32 -75t-64 -26z" />
    <glyph glyph-name="Imacron" unicode="&#x12a;" horiz-adv-x="189" 
d="M52 0v700h84v-700h-84zM-80 796v63h347v-63h-347z" />
    <glyph glyph-name="imacron" unicode="&#x12b;" horiz-adv-x="179" 
d="M47 0v496h84v-496h-84zM-85 586v63h347v-63h-347z" />
    <glyph glyph-name="Ibreve" unicode="&#x12c;" horiz-adv-x="189" 
d="M52 0v700h84v-700h-84zM94 757q-46 0 -77 17.5t-47 47t-16 65.5v14h50q0 -37 21 -57.5t69 -20.5t69 20.5t21 57.5h51v-14q0 -36 -16.5 -65.5t-47.5 -47t-77 -17.5z" />
    <glyph glyph-name="ibreve" unicode="&#x12d;" horiz-adv-x="179" 
d="M47 0v496h84v-496h-84zM89 555q-46 0 -77 17.5t-47 47t-16 65.5v14h50q0 -37 21 -57.5t69 -20.5t69 20.5t21 57.5h51v-14q0 -36 -16.5 -65.5t-47.5 -47t-77 -17.5z" />
    <glyph glyph-name="Iogonek" unicode="&#x12e;" horiz-adv-x="189" 
d="M52 0v700h84v-700h-84zM64 -203q-30 0 -57 9.5t-44 30.5t-17 55q0 24 11 45.5t36.5 42.5t68.5 40l53 23l21 -43l-58 -28q-35 -17 -49.5 -35t-14.5 -37q0 -23 16.5 -36t43.5 -13q14 0 31.5 4t33.5 11v-56q-16 -6 -35.5 -9.5t-39.5 -3.5z" />
    <glyph glyph-name="iogonek" unicode="&#x12f;" horiz-adv-x="179" 
d="M47 0v496h84v-496h-84zM89 563q-20 0 -35 15t-15 35t15 35t35 15t35 -15t15 -35t-15 -35t-35 -15zM59 -203q-30 0 -57 9.5t-44 30.5t-17 55q0 24 11 45.5t36.5 42.5t68.5 40l53 23l21 -43l-58 -28q-35 -17 -49.5 -35t-14.5 -37q0 -23 16.5 -36t43.5 -13q14 0 31.5 4
t33.5 11v-56q-16 -6 -35.5 -9.5t-39.5 -3.5z" />
    <glyph glyph-name="Idotaccent" unicode="&#x130;" horiz-adv-x="189" 
d="M52 0v700h84v-700h-84zM94 766q-20 0 -35 15t-15 35t15 35t35 15t35 -15t15 -35t-15 -35t-35 -15z" />
    <glyph glyph-name="dotlessi" unicode="&#x131;" horiz-adv-x="179" 
d="M47 0v496h84v-496h-84z" />
    <glyph glyph-name="IJ" unicode="&#x132;" horiz-adv-x="636" 
d="M52 0v700h84v-700h-84zM389 -12q-63 0 -108.5 24t-70 69t-24.5 107h85q0 -35 11.5 -63.5t37 -45t68.5 -16.5q42 0 66.5 16t35 43.5t10.5 62.5v515h84v-515q0 -94 -51.5 -145.5t-143.5 -51.5z" />
    <glyph glyph-name="ij" unicode="&#x133;" horiz-adv-x="394" 
d="M62 0v496h84v-496h-84zM104 598q-25 0 -41.5 16.5t-16.5 42.5q0 24 16.5 40.5t41.5 16.5q24 0 41 -16.5t17 -41.5q0 -24 -17 -41t-41 -17zM135 -205v68h39q38 0 54 16t16 56v561h84v-563q0 -48 -16 -78.5t-47.5 -45t-77.5 -14.5h-52zM287 598q-26 0 -42.5 16.5
t-16.5 42.5q0 24 16.5 40.5t42.5 16.5q24 0 40.5 -16.5t16.5 -41.5q0 -24 -16.5 -41t-40.5 -17z" />
    <glyph glyph-name="uni0136" unicode="&#x136;" horiz-adv-x="548" 
d="M52 0v700h84v-312l292 312h106l-307 -324l311 -376h-105l-277 332l-20 -21v-311h-84zM226 -238v40q25 0 35.5 14.5t10.5 42.5v14h-45v77h93q1 -20 1.5 -39t0.5 -35q0 -60 -25 -87t-71 -27z" />
    <glyph glyph-name="uni0137" unicode="&#x137;" horiz-adv-x="477" 
d="M362 0l-241 273l217 223h103l-248 -253v60l276 -303h-107zM51 0v705h84v-705h-84zM191 -238v40q25 0 35.5 14.5t10.5 42.5v14h-45v77h93q1 -20 1.5 -39t0.5 -35q0 -60 -25 -87t-71 -27z" />
    <glyph glyph-name="Lacute" unicode="&#x139;" horiz-adv-x="484" 
d="M52 0v700h84v-633h326v-67h-410zM-8 743v73l207 122h3v-78z" />
    <glyph glyph-name="lacute" unicode="&#x13a;" horiz-adv-x="186" 
d="M51 0v705h84v-705h-84zM-12 748v73l207 122h3v-78z" />
    <glyph glyph-name="uni013B" unicode="&#x13b;" horiz-adv-x="484" 
d="M52 0v700h84v-633h326v-67h-410zM226 -238v40q25 0 35.5 14.5t10.5 42.5v14h-45v77h93q1 -20 1.5 -39t0.5 -35q0 -60 -25 -87t-71 -27z" />
    <glyph glyph-name="uni013C" unicode="&#x13c;" horiz-adv-x="186" 
d="M51 0v705h84v-705h-84zM45 -238v40q25 0 35.5 14.5t10.5 42.5v14h-45v77h93q1 -20 1.5 -39t0.5 -35q0 -60 -25 -87t-71 -27z" />
    <glyph glyph-name="Lcaron" unicode="&#x13d;" horiz-adv-x="484" 
d="M52 0v700h84v-633h326v-67h-410zM248 535v40q26 0 37 9.5t11 28.5v21h-48v83h96q2 -26 2.5 -45t0.5 -39q0 -52 -26 -75t-73 -23z" />
    <glyph glyph-name="lcaron" unicode="&#x13e;" horiz-adv-x="287" 
d="M51 0v705h84v-705h-84zM178 540v40q26 0 37 9.5t11 28.5v21h-48v83h96q2 -26 2.5 -45t0.5 -39q0 -52 -26 -75t-73 -23z" />
    <glyph glyph-name="Ldot" unicode="&#x13f;" horiz-adv-x="484" 
d="M52 0v700h84v-633h326v-67h-410zM339 293q-25 0 -41.5 16.5t-16.5 40.5q0 25 16.5 41t41.5 16t41 -16t16 -41q0 -24 -16 -40.5t-41 -16.5z" />
    <glyph glyph-name="ldot" unicode="&#x140;" horiz-adv-x="340" 
d="M51 0v705h84v-705h-84zM253 265q-25 0 -41.5 16.5t-16.5 40.5q0 25 16.5 41t41.5 16t41 -16t16 -41q0 -24 -16 -40.5t-41 -16.5z" />
    <glyph glyph-name="Lslash" unicode="&#x141;" horiz-adv-x="510" 
d="M20 284v67l286 108v-67zM78 0v700h84v-633h326v-67h-410z" />
    <glyph glyph-name="lslash" unicode="&#x142;" horiz-adv-x="251" 
d="M9 331v67l233 96v-68zM84 0v705h84v-705h-84z" />
    <glyph glyph-name="Nacute" unicode="&#x143;" horiz-adv-x="646" 
d="M52 0v700h111l343 -595h3v595h84v-700h-111l-343 595h-3v-595h-84zM218 743v73l207 122h3v-78z" />
    <glyph glyph-name="nacute" unicode="&#x144;" horiz-adv-x="533" 
d="M47 0v496h75l7 -81h3q26 43 68.5 68t101.5 25q57 0 100 -23.5t66.5 -72t23.5 -122.5v-290h-84v281q0 77 -33 116t-95 39q-43 0 -76.5 -21t-53 -60.5t-19.5 -97.5v-257h-84zM166 539v73l207 122h3v-78z" />
    <glyph glyph-name="uni0145" unicode="&#x145;" horiz-adv-x="646" 
d="M52 0v700h111l343 -595h3v595h84v-700h-111l-343 595h-3v-595h-84zM275 -238v40q25 0 35.5 14.5t10.5 42.5v14h-45v77h93q1 -20 1.5 -39t0.5 -35q0 -60 -25 -87t-71 -27z" />
    <glyph glyph-name="uni0146" unicode="&#x146;" horiz-adv-x="533" 
d="M47 0v496h75l7 -81h3q26 43 68.5 68t101.5 25q57 0 100 -23.5t66.5 -72t23.5 -122.5v-290h-84v281q0 77 -33 116t-95 39q-43 0 -76.5 -21t-53 -60.5t-19.5 -97.5v-257h-84zM219 -238v40q25 0 35.5 14.5t10.5 42.5v14h-45v77h93q1 -20 1.5 -39t0.5 -35q0 -60 -25 -87
t-71 -27z" />
    <glyph glyph-name="Ncaron" unicode="&#x147;" horiz-adv-x="646" 
d="M52 0v700h111l343 -595h3v595h84v-700h-111l-343 595h-3v-595h-84zM323 754l-137 82v65l137 -84l137 84v-65z" />
    <glyph glyph-name="ncaron" unicode="&#x148;" horiz-adv-x="533" 
d="M47 0v496h75l7 -81h3q26 43 68.5 68t101.5 25q57 0 100 -23.5t66.5 -72t23.5 -122.5v-290h-84v281q0 77 -33 116t-95 39q-43 0 -76.5 -21t-53 -60.5t-19.5 -97.5v-257h-84zM271 555l-137 82v65l137 -84l137 84v-65z" />
    <glyph glyph-name="Eng" unicode="&#x14a;" horiz-adv-x="646" 
d="M52 0v700h111l343 -552h3v552h84v-767q0 -48 -16 -78.5t-47.5 -45t-77.5 -14.5h-52v68h39q38 0 54 16t16 56v65l-370 595h-3v-595h-84z" />
    <glyph glyph-name="eng" unicode="&#x14b;" horiz-adv-x="541" 
d="M47 0v496h75l7 -81h3q26 43 68.5 68t101.5 25q57 0 100 -23.5t66.5 -72t23.5 -122.5v-357q0 -48 -16 -78.5t-47.5 -45t-77.5 -14.5h-52v68h39q38 0 54 16t16 56v346q0 77 -33 116t-95 39q-43 0 -76.5 -21t-53 -60.5t-19.5 -97.5v-257h-84z" />
    <glyph glyph-name="Omacron" unicode="&#x14c;" horiz-adv-x="766" 
d="M383 -12q-103 0 -180.5 45.5t-121 127t-43.5 189.5q0 107 43.5 188.5t121 127.5t180.5 46q104 0 181.5 -46t120.5 -127.5t43 -188.5q0 -108 -43 -189.5t-120.5 -127t-181.5 -45.5zM383 62q77 0 135.5 34.5t91 99t32.5 154.5t-32.5 154.5t-91 98.5t-135.5 34t-135.5 -34
t-91 -98.5t-32.5 -154.5t32.5 -154.5t91 -99t135.5 -34.5zM209 796v63h347v-63h-347z" />
    <glyph glyph-name="omacron" unicode="&#x14d;" horiz-adv-x="558" 
d="M278 -12q-70 0 -126 32t-88.5 90.5t-32.5 137.5t33 137.5t89.5 90.5t126.5 32t126 -32t88.5 -90.5t32.5 -137.5t-33 -137.5t-89.5 -90.5t-126.5 -32zM278 55q43 0 80 21.5t60 64t23 107.5t-22.5 108t-59.5 64t-79 21t-79.5 -21t-60.5 -64t-23 -108t23 -107.5t59.5 -64
t78.5 -21.5zM105 586v63h347v-63h-347z" />
    <glyph glyph-name="Obreve" unicode="&#x14e;" horiz-adv-x="766" 
d="M383 -12q-103 0 -180.5 45.5t-121 127t-43.5 189.5q0 107 43.5 188.5t121 127.5t180.5 46q104 0 181.5 -46t120.5 -127.5t43 -188.5q0 -108 -43 -189.5t-120.5 -127t-181.5 -45.5zM383 62q77 0 135.5 34.5t91 99t32.5 154.5t-32.5 154.5t-91 98.5t-135.5 34t-135.5 -34
t-91 -98.5t-32.5 -154.5t32.5 -154.5t91 -99t135.5 -34.5zM383 757q-46 0 -77 17.5t-47 47t-16 65.5v14h50q0 -37 21 -57.5t69 -20.5t69 20.5t21 57.5h51v-14q0 -36 -16.5 -65.5t-47.5 -47t-77 -17.5z" />
    <glyph glyph-name="obreve" unicode="&#x14f;" horiz-adv-x="558" 
d="M278 -12q-70 0 -126 32t-88.5 90.5t-32.5 137.5t33 137.5t89.5 90.5t126.5 32t126 -32t88.5 -90.5t32.5 -137.5t-33 -137.5t-89.5 -90.5t-126.5 -32zM278 55q43 0 80 21.5t60 64t23 107.5t-22.5 108t-59.5 64t-79 21t-79.5 -21t-60.5 -64t-23 -108t23 -107.5t59.5 -64
t78.5 -21.5zM279 555q-46 0 -77 17.5t-47 47t-16 65.5v14h50q0 -37 21 -57.5t69 -20.5t69 20.5t21 57.5h51v-14q0 -36 -16.5 -65.5t-47.5 -47t-77 -17.5z" />
    <glyph glyph-name="Ohungarumlaut" unicode="&#x150;" horiz-adv-x="766" 
d="M383 -12q-103 0 -180.5 45.5t-121 127t-43.5 189.5q0 107 43.5 188.5t121 127.5t180.5 46q104 0 181.5 -46t120.5 -127.5t43 -188.5q0 -108 -43 -189.5t-120.5 -127t-181.5 -45.5zM383 62q77 0 135.5 34.5t91 99t32.5 154.5t-32.5 154.5t-91 98.5t-135.5 34t-135.5 -34
t-91 -98.5t-32.5 -154.5t32.5 -154.5t91 -99t135.5 -34.5zM419 753l72 149h73l-89 -149h-56zM273 753l66 149h73l-82 -149h-57z" />
    <glyph glyph-name="ohungarumlaut" unicode="&#x151;" horiz-adv-x="558" 
d="M278 -12q-70 0 -126 32t-88.5 90.5t-32.5 137.5t33 137.5t89.5 90.5t126.5 32t126 -32t88.5 -90.5t32.5 -137.5t-33 -137.5t-89.5 -90.5t-126.5 -32zM278 55q43 0 80 21.5t60 64t23 107.5t-22.5 108t-59.5 64t-79 21t-79.5 -21t-60.5 -64t-23 -108t23 -107.5t59.5 -64
t78.5 -21.5zM315 549l72 149h73l-89 -149h-56zM169 549l66 149h73l-82 -149h-57z" />
    <glyph glyph-name="OE" unicode="&#x152;" horiz-adv-x="1108" 
d="M383 -12q-76 0 -139 26t-109.5 74.5t-71.5 114.5t-25 147q0 80 25 146.5t71.5 114.5t109.5 74.5t139 26.5q83 0 150 -31t113 -92v111h425v-69h-341v-244h311v-68h-311v-250h341v-69h-425v110q-31 -40 -71 -67.5t-88.5 -41t-103.5 -13.5zM384 62q76 0 134.5 34.5t92 99
t33.5 154.5t-33.5 154.5t-92 98.5t-134.5 34t-134.5 -34t-92 -98.5t-33.5 -154.5t33.5 -154.5t92 -99t134.5 -34.5z" />
    <glyph glyph-name="oe" unicode="&#x153;" horiz-adv-x="948" 
d="M279 -12q-70 0 -126 32t-89 90.5t-33 137.5t33.5 137.5t90 90.5t126.5 32q66 0 118.5 -28.5t83.5 -80.5q32 51 85 80t122 29q73 0 125 -32.5t80 -85t28 -114.5v-21.5t-1 -25.5h-396q3 -57 26.5 -95t59.5 -57t76 -19q53 0 88.5 25t51.5 69h82q-12 -47 -42 -84t-75 -58.5
t-105 -21.5q-67 0 -120 29t-84 81q-33 -52 -86 -81t-119 -29zM279 55q44 0 81.5 21.5t60.5 64t23 107.5t-23 108t-60 64t-80 21q-42 0 -79.5 -21t-61 -64t-23.5 -108t23 -107.5t60 -64t79 -21.5zM527 294h313q-3 70 -45.5 109t-106.5 39q-40 0 -75 -16.5t-58 -49.5t-28 -82z
" />
    <glyph glyph-name="Racute" unicode="&#x154;" horiz-adv-x="545" 
d="M52 0v700h226q82 0 134 -27.5t77 -73.5t25 -104q0 -56 -25.5 -103t-78.5 -75t-136 -28h-138v-289h-84zM422 0l-154 313h94l159 -313h-99zM136 355h136q80 0 117.5 39t37.5 100q0 62 -36.5 98.5t-119.5 36.5h-135v-274zM168 743v73l207 122h3v-78z" />
    <glyph glyph-name="racute" unicode="&#x155;" horiz-adv-x="326" 
d="M47 0v496h75l8 -105h3q22 49 46.5 74t57.5 34t79 9v-88h-22q-38 0 -68.5 -10t-51.5 -29.5t-32 -51t-11 -74.5v-255h-84zM68 539v73l207 122h3v-78z" />
    <glyph glyph-name="uni0156" unicode="&#x156;" horiz-adv-x="545" 
d="M52 0v700h226q82 0 134 -27.5t77 -73.5t25 -104q0 -56 -25.5 -103t-78.5 -75t-136 -28h-138v-289h-84zM422 0l-154 313h94l159 -313h-99zM136 355h136q80 0 117.5 39t37.5 100q0 62 -36.5 98.5t-119.5 36.5h-135v-274zM225 -238v40q25 0 35.5 14.5t10.5 42.5v14h-45v77
h93q1 -20 1.5 -39t0.5 -35q0 -60 -25 -87t-71 -27z" />
    <glyph glyph-name="uni0157" unicode="&#x157;" horiz-adv-x="326" 
d="M47 0v496h75l8 -105h3q22 49 46.5 74t57.5 34t79 9v-88h-22q-38 0 -68.5 -10t-51.5 -29.5t-32 -51t-11 -74.5v-255h-84zM45 -238v40q25 0 35.5 14.5t10.5 42.5v14h-45v77h93q1 -20 1.5 -39t0.5 -35q0 -60 -25 -87t-71 -27z" />
    <glyph glyph-name="Rcaron" unicode="&#x158;" horiz-adv-x="545" 
d="M52 0v700h226q82 0 134 -27.5t77 -73.5t25 -104q0 -56 -25.5 -103t-78.5 -75t-136 -28h-138v-289h-84zM422 0l-154 313h94l159 -313h-99zM136 355h136q80 0 117.5 39t37.5 100q0 62 -36.5 98.5t-119.5 36.5h-135v-274zM273 754l-137 82v65l137 -84l137 84v-65z" />
    <glyph glyph-name="rcaron" unicode="&#x159;" horiz-adv-x="326" 
d="M47 0v496h75l8 -105h3q22 49 46.5 74t57.5 34t79 9v-88h-22q-38 0 -68.5 -10t-51.5 -29.5t-32 -51t-11 -74.5v-255h-84zM173 555l-137 82v65l137 -84l137 84v-65z" />
    <glyph glyph-name="Sacute" unicode="&#x15a;" horiz-adv-x="548" 
d="M283 -12q-77 0 -134 28t-88 78t-31 116h88q0 -41 18 -75.5t55 -55t93 -20.5q45 0 79 13.5t53 40t19 64.5q0 39 -17.5 64.5t-48 42.5t-67.5 29.5t-76 25.5q-89 31 -130.5 75.5t-41.5 111.5q0 54 26.5 96t76 66t117.5 24q67 0 116.5 -25t77.5 -68.5t28 -100.5h-88
q0 35 -16 63t-46.5 45t-77.5 17q-37 0 -66.5 -11.5t-46 -35.5t-16.5 -62q0 -32 13 -53t39 -36.5t63.5 -29.5t85.5 -31q51 -18 91.5 -42.5t63.5 -61.5t23 -95q0 -50 -26 -95.5t-78 -73.5t-131 -28zM169 743v73l207 122h3v-78z" />
    <glyph glyph-name="sacute" unicode="&#x15b;" horiz-adv-x="457" 
d="M239 -12q-59 0 -106 20.5t-75.5 58t-35.5 88.5h86q6 -25 21 -48t42.5 -37.5t68.5 -14.5q36 0 59 10.5t34 28t11 37.5q0 27 -14.5 43t-43 27t-67.5 21q-30 8 -61 18.5t-56.5 25.5t-41 39t-15.5 60q0 40 22 72.5t62.5 51.5t95.5 19q79 0 129.5 -39t58.5 -113h-83
q-4 41 -31.5 63.5t-74.5 22.5q-46 0 -70.5 -20t-24.5 -50q0 -20 12.5 -33.5t39 -23t66.5 -21.5q46 -13 87.5 -29t68 -44t26.5 -77q1 -45 -22.5 -80.5t-66 -55.5t-101.5 -20zM123 539v73l207 122h3v-78z" />
    <glyph glyph-name="Scedilla" unicode="&#x15e;" horiz-adv-x="548" 
d="M283 -12q-77 0 -134 28t-88 78t-31 116h88q0 -41 18 -75.5t55 -55t93 -20.5q45 0 79 13.5t53 40t19 64.5q0 39 -17.5 64.5t-48 42.5t-67.5 29.5t-76 25.5q-89 31 -130.5 75.5t-41.5 111.5q0 54 26.5 96t76 66t117.5 24q67 0 116.5 -25t77.5 -68.5t28 -100.5h-88
q0 35 -16 63t-46.5 45t-77.5 17q-37 0 -66.5 -11.5t-46 -35.5t-16.5 -62q0 -32 13 -53t39 -36.5t63.5 -29.5t85.5 -31q51 -18 91.5 -42.5t63.5 -61.5t23 -95q0 -50 -26 -95.5t-78 -73.5t-131 -28zM209 -260v53h92q35 0 51.5 12t16.5 36q0 22 -16.5 33.5t-51.5 11.5h-49v120
h56v-70q38 1 67 -9.5t45.5 -32.5t16.5 -54q0 -31 -15.5 -53.5t-43 -34.5t-62.5 -12h-107z" />
    <glyph glyph-name="scedilla" unicode="&#x15f;" horiz-adv-x="457" 
d="M239 -12q-59 0 -106 20.5t-75.5 58t-35.5 88.5h86q6 -25 21 -48t42.5 -37.5t68.5 -14.5q36 0 59 10.5t34 28t11 37.5q0 27 -14.5 43t-43 27t-67.5 21q-30 8 -61 18.5t-56.5 25.5t-41 39t-15.5 60q0 40 22 72.5t62.5 51.5t95.5 19q79 0 129.5 -39t58.5 -113h-83
q-4 41 -31.5 63.5t-74.5 22.5q-46 0 -70.5 -20t-24.5 -50q0 -20 12.5 -33.5t39 -23t66.5 -21.5q46 -13 87.5 -29t68 -44t26.5 -77q1 -45 -22.5 -80.5t-66 -55.5t-101.5 -20zM161 -260v53h92q35 0 51.5 12t16.5 36q0 22 -16.5 33.5t-51.5 11.5h-49v120h56v-70q38 1 67 -9.5
t45.5 -32.5t16.5 -54q0 -31 -15.5 -53.5t-43 -34.5t-62.5 -12h-107z" />
    <glyph glyph-name="Scaron" unicode="&#x160;" horiz-adv-x="548" 
d="M283 -12q-77 0 -134 28t-88 78t-31 116h88q0 -41 18 -75.5t55 -55t93 -20.5q45 0 79 13.5t53 40t19 64.5q0 39 -17.5 64.5t-48 42.5t-67.5 29.5t-76 25.5q-89 31 -130.5 75.5t-41.5 111.5q0 54 26.5 96t76 66t117.5 24q67 0 116.5 -25t77.5 -68.5t28 -100.5h-88
q0 35 -16 63t-46.5 45t-77.5 17q-37 0 -66.5 -11.5t-46 -35.5t-16.5 -62q0 -32 13 -53t39 -36.5t63.5 -29.5t85.5 -31q51 -18 91.5 -42.5t63.5 -61.5t23 -95q0 -50 -26 -95.5t-78 -73.5t-131 -28zM274 754l-137 82v65l137 -84l137 84v-65z" />
    <glyph glyph-name="scaron" unicode="&#x161;" horiz-adv-x="457" 
d="M239 -12q-59 0 -106 20.5t-75.5 58t-35.5 88.5h86q6 -25 21 -48t42.5 -37.5t68.5 -14.5q36 0 59 10.5t34 28t11 37.5q0 27 -14.5 43t-43 27t-67.5 21q-30 8 -61 18.5t-56.5 25.5t-41 39t-15.5 60q0 40 22 72.5t62.5 51.5t95.5 19q79 0 129.5 -39t58.5 -113h-83
q-4 41 -31.5 63.5t-74.5 22.5q-46 0 -70.5 -20t-24.5 -50q0 -20 12.5 -33.5t39 -23t66.5 -21.5q46 -13 87.5 -29t68 -44t26.5 -77q1 -45 -22.5 -80.5t-66 -55.5t-101.5 -20zM228 555l-137 82v65l137 -84l137 84v-65z" />
    <glyph glyph-name="uni0162" unicode="&#x162;" horiz-adv-x="524" 
d="M220 0v631h-209v69h502v-69h-209v-631h-84zM195 -260v53h92q35 0 51.5 12t16.5 36q0 22 -16.5 33.5t-51.5 11.5h-49v120h56v-70q38 1 67 -9.5t45.5 -32.5t16.5 -54q0 -31 -15.5 -53.5t-43 -34.5t-62.5 -12h-107z" />
    <glyph glyph-name="uni0163" unicode="&#x163;" horiz-adv-x="341" 
d="M244 0q-45 0 -78 14t-50.5 47.5t-17.5 90.5v281h-86v63h86l10 119h74v-119h146v-63h-146v-281q0 -51 19 -68t67 -17h52v-67h-76zM152 -260v53h92q35 0 51.5 12t16.5 36q0 22 -16.5 33.5t-51.5 11.5h-49v120h56v-70q38 1 67 -9.5t45.5 -32.5t16.5 -54q0 -31 -15.5 -53.5
t-43 -34.5t-62.5 -12h-107z" />
    <glyph glyph-name="Tcaron" unicode="&#x164;" horiz-adv-x="524" 
d="M220 0v631h-209v69h502v-69h-209v-631h-84zM263 754l-137 82v65l137 -84l137 84v-65z" />
    <glyph glyph-name="tcaron" unicode="&#x165;" horiz-adv-x="341" 
d="M244 0q-45 0 -78 14t-50.5 47.5t-17.5 90.5v281h-86v63h86l10 119h74v-119h146v-63h-146v-281q0 -51 19 -68t67 -17h52v-67h-76zM242 543v40q26 0 37 9.5t11 28.5v21h-48v83h96q2 -26 2.5 -45t0.5 -39q0 -52 -26 -75t-73 -23z" />
    <glyph glyph-name="Utilde" unicode="&#x168;" horiz-adv-x="614" 
d="M306 -12q-72 0 -131 29t-93.5 88.5t-34.5 152.5v442h84v-443q0 -68 22.5 -111t62.5 -63t92 -20q53 0 92 20t61 63t22 111v443h84v-442q0 -93 -35 -152.5t-94 -88.5t-132 -29zM372 756q-27 0 -45 12t-33.5 23.5t-36.5 11.5q-16 0 -27.5 -11t-14.5 -34h-49q7 50 32.5 75.5
t62.5 25.5q27 0 44.5 -11.5t33.5 -23.5t37 -12q17 0 28.5 11.5t14.5 33.5h49q-6 -49 -32 -75t-64 -26z" />
    <glyph glyph-name="utilde" unicode="&#x169;" horiz-adv-x="533" 
d="M231 -12q-57 0 -99.5 23.5t-66.5 72t-24 122.5v290h84v-281q0 -77 33 -116t94 -39q43 0 77 21t53.5 61t19.5 97v257h84v-496h-75l-7 81h-3q-25 -42 -68 -67.5t-102 -25.5zM317 562q-27 0 -45 12t-33.5 23.5t-36.5 11.5q-16 0 -27.5 -11t-14.5 -34h-49q7 50 32.5 75.5
t62.5 25.5q27 0 44.5 -11.5t33.5 -23.5t37 -12q17 0 28.5 11.5t14.5 33.5h49q-6 -49 -32 -75t-64 -26z" />
    <glyph glyph-name="Umacron" unicode="&#x16a;" horiz-adv-x="614" 
d="M306 -12q-72 0 -131 29t-93.5 88.5t-34.5 152.5v442h84v-443q0 -68 22.5 -111t62.5 -63t92 -20q53 0 92 20t61 63t22 111v443h84v-442q0 -93 -35 -152.5t-94 -88.5t-132 -29zM133 796v63h347v-63h-347z" />
    <glyph glyph-name="umacron" unicode="&#x16b;" horiz-adv-x="533" 
d="M231 -12q-57 0 -99.5 23.5t-66.5 72t-24 122.5v290h84v-281q0 -77 33 -116t94 -39q43 0 77 21t53.5 61t19.5 97v257h84v-496h-75l-7 81h-3q-25 -42 -68 -67.5t-102 -25.5zM88 586v63h347v-63h-347z" />
    <glyph glyph-name="Ubreve" unicode="&#x16c;" horiz-adv-x="614" 
d="M306 -12q-72 0 -131 29t-93.5 88.5t-34.5 152.5v442h84v-443q0 -68 22.5 -111t62.5 -63t92 -20q53 0 92 20t61 63t22 111v443h84v-442q0 -93 -35 -152.5t-94 -88.5t-132 -29zM307 757q-46 0 -77 17.5t-47 47t-16 65.5v14h50q0 -37 21 -57.5t69 -20.5t69 20.5t21 57.5h51
v-14q0 -36 -16.5 -65.5t-47.5 -47t-77 -17.5z" />
    <glyph glyph-name="ubreve" unicode="&#x16d;" horiz-adv-x="533" 
d="M231 -12q-57 0 -99.5 23.5t-66.5 72t-24 122.5v290h84v-281q0 -77 33 -116t94 -39q43 0 77 21t53.5 61t19.5 97v257h84v-496h-75l-7 81h-3q-25 -42 -68 -67.5t-102 -25.5zM262 555q-46 0 -77 17.5t-47 47t-16 65.5v14h50q0 -37 21 -57.5t69 -20.5t69 20.5t21 57.5h51v-14
q0 -36 -16.5 -65.5t-47.5 -47t-77 -17.5z" />
    <glyph glyph-name="Uring" unicode="&#x16e;" horiz-adv-x="614" 
d="M306 -12q-72 0 -131 29t-93.5 88.5t-34.5 152.5v442h84v-443q0 -68 22.5 -111t62.5 -63t92 -20q53 0 92 20t61 63t22 111v443h84v-442q0 -93 -35 -152.5t-94 -88.5t-132 -29zM307 761q-43 0 -74 27.5t-31 75.5t31 75.5t74 27.5q44 0 74.5 -27.5t30.5 -75.5t-30.5 -75.5
t-74.5 -27.5zM307 804q24 0 40.5 16.5t16.5 43.5q0 28 -16.5 43.5t-40.5 15.5q-23 0 -40 -15.5t-17 -43.5q0 -27 17 -43.5t40 -16.5z" />
    <glyph glyph-name="uring" unicode="&#x16f;" horiz-adv-x="533" 
d="M231 -12q-57 0 -99.5 23.5t-66.5 72t-24 122.5v290h84v-281q0 -77 33 -116t94 -39q43 0 77 21t53.5 61t19.5 97v257h84v-496h-75l-7 81h-3q-25 -42 -68 -67.5t-102 -25.5zM262 562q-43 0 -74 27.5t-31 75.5t31 75.5t74 27.5q44 0 74.5 -27.5t30.5 -75.5t-30.5 -75.5
t-74.5 -27.5zM262 605q24 0 40.5 16.5t16.5 43.5q0 28 -16.5 43.5t-40.5 15.5q-23 0 -40 -15.5t-17 -43.5q0 -27 17 -43.5t40 -16.5z" />
    <glyph glyph-name="Uhungarumlaut" unicode="&#x170;" horiz-adv-x="614" 
d="M306 -12q-72 0 -131 29t-93.5 88.5t-34.5 152.5v442h84v-443q0 -68 22.5 -111t62.5 -63t92 -20q53 0 92 20t61 63t22 111v443h84v-442q0 -93 -35 -152.5t-94 -88.5t-132 -29zM343 753l72 149h73l-89 -149h-56zM197 753l66 149h73l-82 -149h-57z" />
    <glyph glyph-name="uhungarumlaut" unicode="&#x171;" horiz-adv-x="533" 
d="M231 -12q-57 0 -99.5 23.5t-66.5 72t-24 122.5v290h84v-281q0 -77 33 -116t94 -39q43 0 77 21t53.5 61t19.5 97v257h84v-496h-75l-7 81h-3q-25 -42 -68 -67.5t-102 -25.5zM298 549l72 149h73l-89 -149h-56zM152 549l66 149h73l-82 -149h-57z" />
    <glyph glyph-name="Uogonek" unicode="&#x172;" horiz-adv-x="614" 
d="M306 -12q-72 0 -131 29t-93.5 88.5t-34.5 152.5v442h84v-443q0 -68 22.5 -111t62.5 -63t92 -20q53 0 92 20t61 63t22 111v443h84v-442q0 -93 -35 -152.5t-94 -88.5t-132 -29zM340 -195q-30 0 -57 9.5t-44 30.5t-17 55q0 24 11 45.5t36.5 42.5t68.5 40l53 23l21 -43
l-58 -28q-35 -17 -49.5 -35t-14.5 -37q0 -23 16.5 -36t43.5 -13q14 0 31.5 4t33.5 11v-56q-16 -6 -35.5 -9.5t-39.5 -3.5z" />
    <glyph glyph-name="uogonek" unicode="&#x173;" horiz-adv-x="533" 
d="M231 -12q-57 0 -99.5 23.5t-66.5 72t-24 122.5v290h84v-281q0 -77 33 -116t94 -39q43 0 77 21t53.5 61t19.5 97v257h84v-496h-75l-7 81h-3q-25 -42 -68 -67.5t-102 -25.5zM414 -203q-30 0 -57 9.5t-44 30.5t-17 55q0 24 11 45.5t36.5 42.5t68.5 40l53 23l21 -43l-58 -28
q-35 -17 -49.5 -35t-14.5 -37q0 -23 16.5 -36t43.5 -13q14 0 31.5 4t33.5 11v-56q-16 -6 -35.5 -9.5t-39.5 -3.5z" />
    <glyph glyph-name="Wcircumflex" unicode="&#x174;" horiz-adv-x="967" 
d="M194 0l-184 700h87l158 -628h3l181 628h88l183 -629h3l157 629h87l-187 -700h-121l-166 559h-3l-165 -559h-121zM347 755v66l137 81l137 -81v-66l-137 84z" />
    <glyph glyph-name="wcircumflex" unicode="&#x175;" horiz-adv-x="726" 
d="M147 0l-137 496h84l107 -417h-3l113 417h103l115 -417h-3l105 417h85l-140 -496h-99l-116 426h2l-117 -426h-99zM226 542v66l137 81l137 -81v-66l-137 84z" />
    <glyph glyph-name="Ycircumflex" unicode="&#x176;" horiz-adv-x="557" 
d="M237 0v256l-228 444h95l179 -367h-5l178 367h92l-227 -444v-256h-84zM142 755v66l137 81l137 -81v-66l-137 84z" />
    <glyph glyph-name="ycircumflex" unicode="&#x177;" horiz-adv-x="534" 
d="M119 -205l119 261h-30l-199 440h91l166 -379h3l169 379h87l-318 -701h-88zM130 542v66l137 81l137 -81v-66l-137 84z" />
    <glyph glyph-name="Ydieresis" unicode="&#x178;" horiz-adv-x="557" 
d="M237 0v256l-228 444h95l179 -367h-5l178 367h92l-227 -444v-256h-84zM200 775q-21 0 -35.5 14.5t-14.5 35.5q0 20 14.5 35t35.5 15q20 0 35 -15t15 -35q0 -21 -15 -35.5t-35 -14.5zM360 775q-21 0 -35.5 14.5t-14.5 35.5q0 20 14.5 35t35.5 15q20 0 34.5 -15t14.5 -35
q0 -21 -14.5 -35.5t-34.5 -14.5z" />
    <glyph glyph-name="Zacute" unicode="&#x179;" horiz-adv-x="484" 
d="M19 0v66l345 561h-340v73h438v-66l-346 -561h350v-73h-447zM138 743v73l207 122h3v-78z" />
    <glyph glyph-name="zacute" unicode="&#x17a;" horiz-adv-x="432" 
d="M28 0v65l279 365h-274v66h365v-65l-279 -365h284v-66h-375zM111 539v73l207 122h3v-78z" />
    <glyph glyph-name="Zdotaccent" unicode="&#x17b;" horiz-adv-x="484" 
d="M19 0v66l345 561h-340v73h438v-66l-346 -561h350v-73h-447zM243 766q-20 0 -35 15t-15 35t15 35t35 15t35 -15t15 -35t-15 -35t-35 -15z" />
    <glyph glyph-name="zdotaccent" unicode="&#x17c;" horiz-adv-x="432" 
d="M28 0v65l279 365h-274v66h365v-65l-279 -365h284v-66h-375zM216 563q-20 0 -35 15t-15 35t15 35t35 15t35 -15t15 -35t-15 -35t-35 -15z" />
    <glyph glyph-name="Zcaron" unicode="&#x17d;" horiz-adv-x="484" 
d="M19 0v66l345 561h-340v73h438v-66l-346 -561h350v-73h-447zM243 754l-137 82v65l137 -84l137 84v-65z" />
    <glyph glyph-name="zcaron" unicode="&#x17e;" horiz-adv-x="432" 
d="M28 0v65l279 365h-274v66h365v-65l-279 -365h284v-66h-375zM216 555l-137 82v65l137 -84l137 84v-65z" />
    <glyph glyph-name="uni018F" unicode="&#x18f;" horiz-adv-x="737" 
d="M363 -12q-72 0 -131.5 22t-103 64.5t-67 103t-23.5 138.5q0 14 1 28.5t2 30.5h584v-72h-499q-1 -72 28.5 -125.5t83 -83.5t125.5 -30q52 0 97 17t78.5 49.5t52 79.5t18.5 108v42q0 87 -31.5 148.5t-86.5 94.5t-125 33q-82 0 -143.5 -41.5t-84.5 -115.5h-95
q21 71 66.5 123t111 81t145.5 29q99 0 174 -45.5t117 -128t42 -192.5q0 -107 -42 -187.5t-117.5 -125.5t-176.5 -45z" />
    <glyph glyph-name="florin" unicode="&#x192;" horiz-adv-x="333" 
d="M-44 -191l6 70h22q30 0 45.5 14.5t19.5 52.5l69 650q9 89 62 129.5t152 40.5l-6 -71q-60 0 -89.5 -23t-34.5 -76l-69 -650q-5 -48 -23 -78.5t-50 -44.5t-79 -14h-25zM33 478l6 70h278l-6 -70h-278z" />
    <glyph glyph-name="AEacute" unicode="&#x1fc;" horiz-adv-x="872" 
d="M11 0l399 700h425v-67h-289v-247h259v-66h-259v-253h289v-67h-373v633h-3l-356 -633h-92zM164 204l27 68h317l18 -68h-362zM446 743v73l207 122h3v-78z" />
    <glyph glyph-name="aeacute" unicode="&#x1fd;" horiz-adv-x="889" 
d="M211 -12q-58 0 -97 21t-59 56t-20 76q0 51 26.5 86t74.5 53.5t114 18.5h135q0 48 -15 80t-43 47.5t-66 15.5q-48 0 -84 -25t-44 -76h-86q6 54 36 91t76 56.5t102 19.5q67 0 111.5 -23t68.5 -65q33 42 81.5 65t109.5 23q72 0 124 -32.5t80 -85t28 -113.5v-21.5t-2 -25.5
h-393q3 -57 26.5 -95.5t59 -57.5t75.5 -19q53 0 88 25t51 69h82q-13 -47 -43 -84t-74.5 -58.5t-103.5 -21.5q-68 0 -122 31t-86 86q-24 -42 -56.5 -67.5t-71 -37.5t-83.5 -12zM231 59q47 0 81 24.5t53 63.5t20 82v5h-128q-48 0 -78 -11.5t-43 -31.5t-13 -46t12.5 -45.5
t37 -30t58.5 -10.5zM470 295h311q-4 70 -46 108.5t-105 38.5q-39 0 -74 -16.5t-58 -49t-28 -81.5zM340 539v73l207 122h3v-78z" />
    <glyph glyph-name="uni0218" unicode="&#x218;" horiz-adv-x="548" 
d="M283 -12q-77 0 -134 28t-88 78t-31 116h88q0 -41 18 -75.5t55 -55t93 -20.5q45 0 79 13.5t53 40t19 64.5q0 39 -17.5 64.5t-48 42.5t-67.5 29.5t-76 25.5q-89 31 -130.5 75.5t-41.5 111.5q0 54 26.5 96t76 66t117.5 24q67 0 116.5 -25t77.5 -68.5t28 -100.5h-88
q0 35 -16 63t-46.5 45t-77.5 17q-37 0 -66.5 -11.5t-46 -35.5t-16.5 -62q0 -32 13 -53t39 -36.5t63.5 -29.5t85.5 -31q51 -18 91.5 -42.5t63.5 -61.5t23 -95q0 -50 -26 -95.5t-78 -73.5t-131 -28zM228 -238v40q25 0 35.5 14.5t10.5 42.5v14h-45v77h93q1 -20 1.5 -39t0.5 -35
q0 -60 -25 -87t-71 -27z" />
    <glyph glyph-name="uni0219" unicode="&#x219;" horiz-adv-x="457" 
d="M239 -12q-59 0 -106 20.5t-75.5 58t-35.5 88.5h86q6 -25 21 -48t42.5 -37.5t68.5 -14.5q36 0 59 10.5t34 28t11 37.5q0 27 -14.5 43t-43 27t-67.5 21q-30 8 -61 18.5t-56.5 25.5t-41 39t-15.5 60q0 40 22 72.5t62.5 51.5t95.5 19q79 0 129.5 -39t58.5 -113h-83
q-4 41 -31.5 63.5t-74.5 22.5q-46 0 -70.5 -20t-24.5 -50q0 -20 12.5 -33.5t39 -23t66.5 -21.5q46 -13 87.5 -29t68 -44t26.5 -77q1 -45 -22.5 -80.5t-66 -55.5t-101.5 -20zM180 -238v40q25 0 35.5 14.5t10.5 42.5v14h-45v77h93q1 -20 1.5 -39t0.5 -35q0 -60 -25 -87
t-71 -27z" />
    <glyph glyph-name="uni021A" unicode="&#x21a;" horiz-adv-x="524" 
d="M220 0v631h-209v69h502v-69h-209v-631h-84zM214 -238v40q25 0 35.5 14.5t10.5 42.5v14h-45v77h93q1 -20 1.5 -39t0.5 -35q0 -60 -25 -87t-71 -27z" />
    <glyph glyph-name="uni021B" unicode="&#x21b;" horiz-adv-x="341" 
d="M244 0q-45 0 -78 14t-50.5 47.5t-17.5 90.5v281h-86v63h86l10 119h74v-119h146v-63h-146v-281q0 -51 19 -68t67 -17h52v-67h-76zM171 -238v40q25 0 35.5 14.5t10.5 42.5v14h-45v77h93q1 -20 1.5 -39t0.5 -35q0 -60 -25 -87t-71 -27z" />
    <glyph glyph-name="uni0237" unicode="&#x237;" horiz-adv-x="201" 
d="M-41 -205v68h39q38 0 54 16t16 56v561h84v-563q0 -48 -16 -78.5t-47.5 -45t-77.5 -14.5h-52z" />
    <glyph glyph-name="uni0259" unicode="&#x259;" horiz-adv-x="535" 
d="M261 508q71 0 126 -32.5t86.5 -90.5t31.5 -137q0 -78 -31 -136.5t-86.5 -91t-128.5 -32.5q-72 0 -124.5 32.5t-80.5 85.5t-28 114v22t1 25h415v-65h-333q3 -70 45.5 -108.5t106.5 -38.5q44 0 80.5 19t59 57t22.5 94v28q0 62 -23 103t-60 61.5t-79 20.5q-52 0 -87 -24
t-51 -66h-83q13 46 43 82t75 57t103 21z" />
    <glyph glyph-name="circumflex" unicode="&#x2c6;" horiz-adv-x="285" 
d="M6 551v66l137 81l137 -81v-66l-137 84z" />
    <glyph glyph-name="caron" unicode="&#x2c7;" horiz-adv-x="285" 
d="M143 550l-137 82v65l137 -84l137 84v-65z" />
    <glyph glyph-name="breve" unicode="&#x2d8;" horiz-adv-x="292" 
d="M146 553q-46 0 -77 17.5t-47 47t-16 65.5v14h50q0 -37 21 -57.5t69 -20.5t69 20.5t21 57.5h51v-14q0 -36 -16.5 -65.5t-47.5 -47t-77 -17.5z" />
    <glyph glyph-name="dotaccent" unicode="&#x2d9;" horiz-adv-x="113" 
d="M56 562q-20 0 -34.5 15t-14.5 35t14.5 35t34.5 15q21 0 35.5 -15t14.5 -35t-14.5 -35t-35.5 -15z" />
    <glyph glyph-name="ring" unicode="&#x2da;" horiz-adv-x="220" 
d="M110 557q-43 0 -74 27.5t-31 75.5t31 75.5t74 27.5q44 0 74.5 -27.5t30.5 -75.5t-30.5 -75.5t-74.5 -27.5zM110 600q24 0 40.5 16.5t16.5 43.5q0 28 -16.5 43.5t-40.5 15.5q-23 0 -40 -15.5t-17 -43.5q0 -27 17 -43.5t40 -16.5z" />
    <glyph glyph-name="ogonek" unicode="&#x2db;" horiz-adv-x="193" 
d="M118 -203q-30 0 -57 9.5t-44 30.5t-17 55q0 24 11 45.5t36.5 42.5t68.5 40l53 23l21 -43l-58 -28q-35 -17 -49.5 -35t-14.5 -37q0 -23 16.5 -36t43.5 -13q14 0 31.5 4t33.5 11v-56q-16 -6 -35.5 -9.5t-39.5 -3.5z" />
    <glyph glyph-name="tilde" unicode="&#x2dc;" horiz-adv-x="313" 
d="M211 552q-27 0 -45 12t-33.5 23.5t-36.5 11.5q-16 0 -27 -11t-15 -34h-49q8 50 33 75.5t62 25.5q27 0 44.5 -11.5t33.5 -23.5t37 -12q17 0 28.5 11.5t15.5 33.5h48q-5 -49 -31.5 -75t-64.5 -26z" />
    <glyph glyph-name="hungarumlaut" unicode="&#x2dd;" horiz-adv-x="304" 
d="M152 549l72 149h73l-89 -149h-56zM6 549l66 149h73l-82 -149h-57z" />
    <glyph glyph-name="gravecomb" unicode="&#x300;" 
d="M210 539l-210 117v78h3l207 -122v-73z" />
    <glyph glyph-name="acutecomb" unicode="&#x301;" 
d="M0 539v73l207 122h3v-78z" />
    <glyph glyph-name="uni0302" unicode="&#x302;" 
d="M0 542v66l137 81l137 -81v-66l-137 84z" />
    <glyph glyph-name="tildecomb" unicode="&#x303;" 
d="M206 562q-27 0 -45 12t-33.5 23.5t-36.5 11.5q-16 0 -27.5 -11t-14.5 -34h-49q7 50 32.5 75.5t62.5 25.5q27 0 44.5 -11.5t33.5 -23.5t37 -12q17 0 28.5 11.5t14.5 33.5h49q-6 -49 -32 -75t-64 -26z" />
    <glyph glyph-name="uni0304" unicode="&#x304;" 
d="M0 586v63h347v-63h-347z" />
    <glyph glyph-name="uni0306" unicode="&#x306;" 
d="M140 555q-46 0 -77 17.5t-47 47t-16 65.5v14h50q0 -37 21 -57.5t69 -20.5t69 20.5t21 57.5h51v-14q0 -36 -16.5 -65.5t-47.5 -47t-77 -17.5z" />
    <glyph glyph-name="uni0307" unicode="&#x307;" 
d="M50 563q-20 0 -35 15t-15 35t15 35t35 15t35 -15t15 -35t-15 -35t-35 -15z" />
    <glyph glyph-name="uni0308" unicode="&#x308;" 
d="M50 562q-21 0 -35.5 14.5t-14.5 35.5q0 20 14.5 35t35.5 15q20 0 35 -15t15 -35q0 -21 -15 -35.5t-35 -14.5zM210 562q-21 0 -35.5 14.5t-14.5 35.5q0 20 14.5 35t35.5 15q20 0 34.5 -15t14.5 -35q0 -21 -14.5 -35.5t-34.5 -14.5z" />
    <glyph glyph-name="uni030A" unicode="&#x30a;" 
d="M105 562q-43 0 -74 27.5t-31 75.5t31 75.5t74 27.5q44 0 74.5 -27.5t30.5 -75.5t-30.5 -75.5t-74.5 -27.5zM105 605q24 0 40.5 16.5t16.5 43.5q0 28 -16.5 43.5t-40.5 15.5q-23 0 -40 -15.5t-17 -43.5q0 -27 17 -43.5t40 -16.5z" />
    <glyph glyph-name="uni030B" unicode="&#x30b;" 
d="M146 549l72 149h73l-89 -149h-56zM0 549l66 149h73l-82 -149h-57z" />
    <glyph glyph-name="uni030C" unicode="&#x30c;" 
d="M137 555l-137 82v65l137 -84l137 84v-65z" />
    <glyph glyph-name="uni0312" unicode="&#x312;" 
d="M99 740v-40q-25 0 -36.5 -9.5t-11.5 -28.5v-21h48v-83h-96q-1 26 -2 45.5t-1 38.5q0 52 26 75t73 23z" />
    <glyph glyph-name="uni0326" unicode="&#x326;" 
d="M0 -238v40q25 0 35.5 14.5t10.5 42.5v14h-45v77h93q1 -20 1.5 -39t0.5 -35q0 -60 -25 -87t-71 -27z" />
    <glyph glyph-name="uni0327" unicode="&#x327;" 
d="M0 -259v53h92q35 0 51.5 12t16.5 36q0 22 -16.5 33.5t-51.5 11.5h-49v120h56v-70q38 1 67 -9.5t45.5 -32.5t16.5 -54q0 -31 -15.5 -53.5t-43 -34.5t-62.5 -12h-107z" />
    <glyph glyph-name="uni0328" unicode="&#x328;" 
d="M118 -203q-30 0 -57 9.5t-44 30.5t-17 55q0 24 11 45.5t36.5 42.5t68.5 40l53 23l21 -43l-58 -28q-35 -17 -49.5 -35t-14.5 -37q0 -23 16.5 -36t43.5 -13q14 0 31.5 4t33.5 11v-56q-16 -6 -35.5 -9.5t-39.5 -3.5z" />
    <glyph glyph-name="pi" unicode="&#x3c0;" horiz-adv-x="646" 
d="M125 0v430h-79v66h554v-66h-79v-430h-84v430h-228v-430h-84z" />
    <glyph glyph-name="Wgrave" unicode="&#x1e80;" horiz-adv-x="967" 
d="M194 0l-184 700h87l158 -628h3l181 628h88l183 -629h3l157 629h87l-187 -700h-121l-166 559h-3l-165 -559h-121zM589 743l-210 117v78h3l207 -122v-73z" />
    <glyph glyph-name="wgrave" unicode="&#x1e81;" horiz-adv-x="726" 
d="M147 0l-137 496h84l107 -417h-3l113 417h103l115 -417h-3l105 417h85l-140 -496h-99l-116 426h2l-117 -426h-99zM468 539l-210 117v78h3l207 -122v-73z" />
    <glyph glyph-name="Wacute" unicode="&#x1e82;" horiz-adv-x="967" 
d="M194 0l-184 700h87l158 -628h3l181 628h88l183 -629h3l157 629h87l-187 -700h-121l-166 559h-3l-165 -559h-121zM379 743v73l207 122h3v-78z" />
    <glyph glyph-name="wacute" unicode="&#x1e83;" horiz-adv-x="726" 
d="M147 0l-137 496h84l107 -417h-3l113 417h103l115 -417h-3l105 417h85l-140 -496h-99l-116 426h2l-117 -426h-99zM258 539v73l207 122h3v-78z" />
    <glyph glyph-name="Wdieresis" unicode="&#x1e84;" horiz-adv-x="967" 
d="M194 0l-184 700h87l158 -628h3l181 628h88l183 -629h3l157 629h87l-187 -700h-121l-166 559h-3l-165 -559h-121zM405 775q-21 0 -35.5 14.5t-14.5 35.5q0 20 14.5 35t35.5 15q20 0 35 -15t15 -35q0 -21 -15 -35.5t-35 -14.5zM565 775q-21 0 -35.5 14.5t-14.5 35.5
q0 20 14.5 35t35.5 15q20 0 34.5 -15t14.5 -35q0 -21 -14.5 -35.5t-34.5 -14.5z" />
    <glyph glyph-name="wdieresis" unicode="&#x1e85;" horiz-adv-x="726" 
d="M147 0l-137 496h84l107 -417h-3l113 417h103l115 -417h-3l105 417h85l-140 -496h-99l-116 426h2l-117 -426h-99zM283 562q-21 0 -35.5 14.5t-14.5 35.5q0 20 14.5 35t35.5 15q20 0 35 -15t15 -35q0 -21 -15 -35.5t-35 -14.5zM443 562q-21 0 -35.5 14.5t-14.5 35.5
q0 20 14.5 35t35.5 15q20 0 34.5 -15t14.5 -35q0 -21 -14.5 -35.5t-34.5 -14.5z" />
    <glyph glyph-name="uni1E9E" unicode="&#x1e9e;" horiz-adv-x="639" 
d="M401 -5q-101 0 -154 54t-53 159h83q0 -61 28.5 -102t95.5 -41q47 0 74.5 20t39.5 53t12 71q0 77 -41.5 118.5t-114.5 41.5h-115v59l202 201h-251q-38 0 -54.5 -16t-16.5 -54v-559h-84v562q0 48 16 78.5t47.5 45t77.5 14.5h369v-64l-206 -203h19q73 0 125.5 -25.5
t80.5 -74.5t28 -118q0 -67 -25 -116.5t-71.5 -76.5t-111.5 -27z" />
    <glyph glyph-name="uni1EBC" unicode="&#x1ebc;" horiz-adv-x="522" 
d="M52 0v700h433v-69h-349v-244h319v-68h-319v-250h349v-69h-433zM334 756q-27 0 -45 12t-33.5 23.5t-36.5 11.5q-16 0 -27.5 -11t-14.5 -34h-49q7 50 32.5 75.5t62.5 25.5q27 0 44.5 -11.5t33.5 -23.5t37 -12q17 0 28.5 11.5t14.5 33.5h49q-6 -49 -32 -75t-64 -26z" />
    <glyph glyph-name="uni1EBD" unicode="&#x1ebd;" horiz-adv-x="535" 
d="M275 -12q-71 0 -126 32.5t-86.5 91t-31.5 136.5q0 79 31 137t86.5 90.5t128.5 32.5t125 -32.5t80 -85t28 -114.5v-21.5t-1 -25.5h-415v65h333q-3 70 -45.5 109t-106.5 39q-43 0 -80 -19t-59.5 -57t-22.5 -95v-28q0 -62 23 -103t60.5 -61.5t78.5 -20.5q52 0 87 24t51 66
h83q-13 -46 -43 -82t-74.5 -57t-103.5 -21zM324 562q-27 0 -45 12t-33.5 23.5t-36.5 11.5q-16 0 -27.5 -11t-14.5 -34h-49q7 50 32.5 75.5t62.5 25.5q27 0 44.5 -11.5t33.5 -23.5t37 -12q17 0 28.5 11.5t14.5 33.5h49q-6 -49 -32 -75t-64 -26z" />
    <glyph glyph-name="Ygrave" unicode="&#x1ef2;" horiz-adv-x="557" 
d="M237 0v256l-228 444h95l179 -367h-5l178 367h92l-227 -444v-256h-84zM384 743l-210 117v78h3l207 -122v-73z" />
    <glyph glyph-name="ygrave" unicode="&#x1ef3;" horiz-adv-x="534" 
d="M119 -205l119 261h-30l-199 440h91l166 -379h3l169 379h87l-318 -701h-88zM372 539l-210 117v78h3l207 -122v-73z" />
    <glyph glyph-name="uni1EF8" unicode="&#x1ef8;" horiz-adv-x="557" 
d="M237 0v256l-228 444h95l179 -367h-5l178 367h92l-227 -444v-256h-84zM344 756q-27 0 -45 12t-33.5 23.5t-36.5 11.5q-16 0 -27.5 -11t-14.5 -34h-49q7 50 32.5 75.5t62.5 25.5q27 0 44.5 -11.5t33.5 -23.5t37 -12q17 0 28.5 11.5t14.5 33.5h49q-6 -49 -32 -75t-64 -26z
" />
    <glyph glyph-name="uni1EF9" unicode="&#x1ef9;" horiz-adv-x="534" 
d="M119 -205l119 261h-30l-199 440h91l166 -379h3l169 379h87l-318 -701h-88zM322 562q-27 0 -45 12t-33.5 23.5t-36.5 11.5q-16 0 -27.5 -11t-14.5 -34h-49q7 50 32.5 75.5t62.5 25.5q27 0 44.5 -11.5t33.5 -23.5t37 -12q17 0 28.5 11.5t14.5 33.5h49q-6 -49 -32 -75
t-64 -26z" />
    <glyph glyph-name="endash" unicode="&#x2013;" horiz-adv-x="676" 
d="M76 255v71h524v-71h-524z" />
    <glyph glyph-name="emdash" unicode="&#x2014;" horiz-adv-x="880" 
d="M76 255v71h728v-71h-728z" />
    <glyph glyph-name="quoteleft" unicode="&#x2018;" horiz-adv-x="203" 
d="M26 477l90 223h60l-56 -223h-94z" />
    <glyph glyph-name="quoteright" unicode="&#x2019;" horiz-adv-x="203" 
d="M176 700l-90 -223h-60l56 223h94z" />
    <glyph glyph-name="quotesinglbase" unicode="&#x201a;" horiz-adv-x="178" 
d="M8 -121l57 223h94l-91 -223h-60z" />
    <glyph glyph-name="quotedblleft" unicode="&#x201c;" horiz-adv-x="360" 
d="M182 477l91 223h60l-57 -223h-94zM26 477l90 223h60l-56 -223h-94z" />
    <glyph glyph-name="quotedblright" unicode="&#x201d;" horiz-adv-x="360" 
d="M177 700l-91 -223h-60l57 223h94zM333 700l-90 -223h-60l56 223h94z" />
    <glyph glyph-name="quotedblbase" unicode="&#x201e;" horiz-adv-x="336" 
d="M8 -121l57 223h94l-91 -223h-60zM167 -121l56 223h94l-90 -223h-60z" />
    <glyph glyph-name="dagger" unicode="&#x2020;" horiz-adv-x="531" 
d="M224 -259l8 747l-191 -7v67l191 -8l-8 240h83l-8 -240l190 8v-67l-190 7l8 -747h-83z" />
    <glyph glyph-name="daggerdbl" unicode="&#x2021;" horiz-adv-x="532" 
d="M224 -259l9 240l-191 -7v67l191 -8v455l-191 -7v67l191 -8l-9 240h83l-8 -240l191 8v-67l-191 7v-455l191 8v-67l-191 7l8 -240h-83z" />
    <glyph glyph-name="bullet" unicode="&#x2022;" horiz-adv-x="358" 
d="M178 213q-32 0 -59.5 16t-43.5 43.5t-16 60.5q0 34 16 61.5t43.5 43.5t59.5 16q34 0 61.5 -16t43.5 -43.5t16 -61.5q0 -33 -16 -60.5t-43.5 -43.5t-61.5 -16z" />
    <glyph glyph-name="ellipsis" unicode="&#x2026;" horiz-adv-x="553" 
d="M277 -5q-24 0 -40.5 16.5t-16.5 39.5q0 24 16.5 40t40.5 16q23 0 39 -16t16 -40q0 -23 -16 -39.5t-39 -16.5zM461 -5q-24 0 -40.5 16.5t-16.5 39.5q0 24 16.5 40t40.5 16q23 0 39 -16t16 -40q0 -23 -16 -39.5t-39 -16.5zM93 -5q-24 0 -40.5 16.5t-16.5 39.5q0 24 16.5 40
t40.5 16q23 0 39 -16t16 -40q0 -23 -16 -39.5t-39 -16.5z" />
    <glyph glyph-name="perthousand" unicode="&#x2030;" horiz-adv-x="1123" 
d="M923 -12q-45 0 -81 20.5t-57.5 58.5t-21.5 89q0 52 21.5 89.5t58 58t81.5 20.5t81 -20.5t57 -58t21 -89.5q0 -51 -21 -89t-57.5 -58.5t-81.5 -20.5zM923 51q24 0 44.5 12t33 35.5t12.5 57.5q0 36 -12 59.5t-32.5 35t-44.5 11.5t-45 -11.5t-33.5 -35t-12.5 -59.5
q0 -34 12.5 -57.5t33.5 -35.5t44 -12zM138 0l407 700h84l-407 -700h-84zM574 -12q-45 0 -81 20.5t-57.5 58.5t-21.5 89q0 52 21.5 89.5t57.5 58t81 20.5q46 0 81.5 -20.5t56.5 -58t21 -89.5q0 -51 -21 -89t-57 -58.5t-81 -20.5zM573 53q24 0 44 11.5t32.5 34.5t12.5 57
q0 35 -12 58t-32 34.5t-44 11.5q-23 0 -43.5 -11.5t-33 -34.5t-12.5 -58q0 -34 12.5 -57t32.5 -34.5t43 -11.5zM200 375q-45 0 -81 20.5t-57.5 58.5t-21.5 89q0 52 21.5 89.5t58 58t81.5 20.5t81 -20.5t57 -58t21 -89.5q0 -51 -21 -89t-57.5 -58.5t-81.5 -20.5zM200 440
q24 0 44 11.5t32 34.5t12 57q0 35 -12 58.5t-32 35t-43 11.5t-44 -11.5t-33.5 -35t-12.5 -58.5q0 -34 12.5 -57t33 -34.5t43.5 -11.5z" />
    <glyph glyph-name="guilsinglleft" unicode="&#x2039;" horiz-adv-x="260" 
d="M134 120l-97 175l97 175h83l-100 -175l100 -175h-83z" />
    <glyph glyph-name="guilsinglright" unicode="&#x203a;" horiz-adv-x="260" 
d="M126 120h-83l100 175l-100 175h83l97 -175z" />
    <glyph glyph-name="fraction" unicode="&#x2044;" horiz-adv-x="431" 
d="M-24 0l407 700h85l-408 -700h-84z" />
    <glyph glyph-name="uni2074" unicode="&#x2074;" horiz-adv-x="321" 
d="M193 352v66h-172v50l160 232h78v-228h46v-54h-46v-66h-66zM91 472h107v156h-3z" />
    <glyph glyph-name="uni20A8" unicode="&#x20a8;" horiz-adv-x="977" 
d="M52 0v700h226q82 0 134 -27.5t77 -73.5t25 -104q0 -56 -25.5 -103t-78.5 -75t-136 -28h-138v-289h-84zM422 0l-154 313h94l159 -313h-99zM136 355h136q80 0 117.5 39t37.5 100q0 62 -36.5 98.5t-119.5 36.5h-135v-274zM760 -12q-59 0 -106 20.5t-75.5 58t-35.5 88.5h86
q6 -25 21 -48t42.5 -37.5t68.5 -14.5q36 0 59 10.5t34 28t11 37.5q0 27 -14.5 43t-43 27t-67.5 21q-30 8 -61 18.5t-56.5 25.5t-41 39t-15.5 60q0 40 22 72.5t62.5 51.5t95.5 19q79 0 129.5 -39t58.5 -113h-83q-4 41 -31.5 63.5t-74.5 22.5q-46 0 -70.5 -20t-24.5 -50
q0 -20 12.5 -33.5t39 -23t66.5 -21.5q46 -13 87.5 -29t68 -44t26.5 -77q1 -45 -22.5 -80.5t-66 -55.5t-101.5 -20z" />
    <glyph glyph-name="Euro" unicode="&#x20ac;" horiz-adv-x="756" 
d="M23 242v63h432v-63h-432zM23 396v62h432v-62h-432zM426 -12q-103 0 -178 45.5t-115.5 127t-40.5 189.5t40.5 189.5t115.5 127t178 45.5q121 0 196 -57t96 -161h-93q-16 65 -65 104t-134 39q-75 0 -131 -34.5t-86.5 -99t-30.5 -153.5t30.5 -153.5t86.5 -99t131 -34.5
q85 0 135 38.5t66 101.5h91q-21 -101 -96 -158t-196 -57z" />
    <glyph glyph-name="uni20B9" unicode="&#x20b9;" horiz-adv-x="639" 
d="M298 -12q-100 0 -150.5 55.5t-50.5 154.5v144q96 0 153.5 6.5t86 26t37.5 58.5t9 104v127h79v-127q0 -72 -13.5 -121t-46 -78.5t-88 -42t-138.5 -12.5v-88q0 -64 28 -102.5t95 -38.5q62 0 90.5 36t28.5 99h78q-1 -99 -52.5 -150t-145.5 -51zM53 464v60h542v-60h-542z
M53 639v61h542v-61h-542z" />
    <glyph glyph-name="uni20BA" unicode="&#x20ba;" horiz-adv-x="815" 
d="M362 -12q-37 0 -78.5 5t-85.5 15v692h86v-626q21 -4 40 -6t38 -2q74 0 126.5 23.5t85.5 68.5t48.5 111t15.5 150h86q0 -142 -37.5 -238t-117 -144.5t-207.5 -48.5zM34 206v60l431 106v-60zM32 371v58l435 110v-59z" />
    <glyph glyph-name="uni20BD" unicode="&#x20bd;" horiz-adv-x="605" 
d="M27 126v67h87v102h-87v67h87v338h228q82 0 135 -27t78.5 -73t25.5 -104q0 -57 -25 -103t-78 -73t-136 -27h-144v-100h251v-67h-251v-126h-84v126h-87zM198 363h142q83 0 119 36t36 97q0 64 -36 99.5t-119 35.5h-142v-268z" />
    <glyph glyph-name="uni2113" unicode="&#x2113;" horiz-adv-x="189" 
d="M52 -100v820h84v-820h-84z" />
    <glyph glyph-name="trademark" unicode="&#x2122;" horiz-adv-x="772" 
d="M27 647v53h245v-53h-89v-299h-67v299h-89zM326 348v352h85l113 -273l118 273h80v-352h-62v262l-114 -262h-48l-112 264v-264h-60z" />
    <glyph glyph-name="uni2126" unicode="&#x2126;" horiz-adv-x="789" 
d="M56 0v66h195l-15 -17q-63 24 -106 70.5t-65 108t-22 129.5q0 79 27 144t75 112.5t112 73t137 25.5q74 0 138 -25.5t112.5 -73t75.5 -112.5t27 -144q0 -68 -22 -129.5t-65.5 -108t-107.5 -70.5l-15 17h195v-66h-274v69q59 15 105 53.5t72.5 97t26.5 132.5
q0 65 -20.5 117.5t-56.5 89.5t-85 57t-106 20q-58 0 -106.5 -20.5t-84.5 -58t-56 -89.5t-20 -116q0 -74 26.5 -132.5t72.5 -97t105 -53.5v-69h-275z" />
    <glyph glyph-name="estimated" unicode="&#x212e;" horiz-adv-x="762" 
d="M390 -7q-98 0 -175.5 39.5t-122 114.5t-44.5 183q0 103 38.5 186.5t113 133t181.5 49.5q80 0 142 -27t104.5 -72.5t64.5 -103.5t22 -121v-61h-536v-166q39 -49 89 -73.5t123 -24.5q51 0 94 15.5t82.5 44.5t80.5 69l39 -42q-62 -67 -136 -105.5t-160 -38.5zM178 376h396
v177q-31 43 -81 66t-112 23q-63 0 -115.5 -24t-87.5 -76v-166z" />
    <glyph glyph-name="arrowleft" unicode="&#x2190;" horiz-adv-x="765" 
d="M732 302h-576l290 -273l-54 -55l-360 347v44l360 346l53 -54l-292 -276h579v-79z" />
    <glyph glyph-name="arrowup" unicode="&#x2191;" horiz-adv-x="842" 
d="M33 340l366 360h45l366 -360l-54 -54l-293 291v-577h-82v579l-294 -292z" />
    <glyph glyph-name="arrowright" unicode="&#x2192;" horiz-adv-x="765" 
d="M34 302v79h579l-292 276l53 54l360 -346v-44l-360 -347l-54 55l290 273h-576z" />
    <glyph glyph-name="arrowdown" unicode="&#x2193;" horiz-adv-x="842" 
d="M33 360l54 53l294 -292v579h82v-577l293 291l54 -54l-366 -360h-45z" />
    <glyph glyph-name="arrowboth" unicode="&#x2194;" horiz-adv-x="999" 
d="M40 321v44l337 346l57 -50l-277 -281h685l-277 281l57 50l337 -346v-44l-337 -347l-57 50l275 280h-681l275 -280l-57 -50z" />
    <glyph glyph-name="arrowupdn" unicode="&#x2195;" horiz-adv-x="825" 
d="M34 241l47 56l291 -193v492l-291 -193l-47 56l356 241h45l357 -241l-47 -56l-291 193v-492l291 193l47 -56l-357 -241h-45z" />
    <glyph glyph-name="uni2196" unicode="&#x2196;" horiz-adv-x="614" 
d="M519 61l-411 411v-416h-75v519l32 31h517v-75h-422l415 -414z" />
    <glyph glyph-name="uni2197" unicode="&#x2197;" horiz-adv-x="614" 
d="M96 73l-56 56l415 414h-422v75h517l32 -31v-519h-75v416z" />
    <glyph glyph-name="uni2198" unicode="&#x2198;" horiz-adv-x="614" 
d="M96 611l411 -411v416h75v-519l-32 -31h-517v75h422l-415 414z" />
    <glyph glyph-name="uni2199" unicode="&#x2199;" horiz-adv-x="614" 
d="M519 611l56 -56l-415 -414h422v-75h-517l-32 31v519h75v-416z" />
    <glyph glyph-name="partialdiff" unicode="&#x2202;" horiz-adv-x="567" 
d="M234 -10q-53 0 -97.5 25t-71 76t-26.5 130q0 66 19 126.5t54.5 107.5t84.5 74.5t108 27.5q32 0 59.5 -10t48 -34.5t31.5 -68.5q-1 70 -17 125.5t-51 87.5t-95 32q-19 0 -38.5 -3.5t-41.5 -9.5v50q26 8 49 11t46 3q74 0 125.5 -37.5t79 -110.5t27.5 -179
q0 -130 -38.5 -225t-105 -146.5t-150.5 -51.5zM242 62q42 0 77 21.5t60 58t38.5 84.5t13.5 100q0 82 -32.5 121t-88.5 39q-41 0 -75 -20t-59 -56.5t-38.5 -84.5t-13.5 -104q0 -82 34.5 -120.5t83.5 -38.5z" />
    <glyph glyph-name="uni2206" unicode="&#x2206;" horiz-adv-x="658" 
d="M11 0v65l282 635h70l283 -635v-65h-635zM96 65h465l-233 539z" />
    <glyph glyph-name="product" unicode="&#x220f;" horiz-adv-x="725" 
d="M117 0v634h-80v66h651v-66h-79v-634h-84v634h-324v-634h-84z" />
    <glyph glyph-name="summation" unicode="&#x2211;" horiz-adv-x="450" 
d="M41 -49v96l262 279l-262 278v96h390v-65h-322l270 -275v-65l-269 -279h321v-65h-390z" />
    <glyph glyph-name="minus" unicode="&#x2212;" horiz-adv-x="550" 
d="M77 255v71h396v-71h-396z" />
    <glyph glyph-name="uni2215" unicode="&#x2215;" horiz-adv-x="393" 
d="M29 -95l251 859h83l-251 -859h-83z" />
    <glyph glyph-name="radical" unicode="&#x221a;" horiz-adv-x="712" 
d="M18 179l136 79l113 -199l431 806h60l-487 -909h-41l-122 215l-64 -36z" />
    <glyph glyph-name="infinity" unicode="&#x221e;" horiz-adv-x="703" 
d="M185 141q-63 0 -105.5 38t-42.5 107q0 47 20 80t54 50.5t75 17.5q43 0 75 -17t56.5 -43.5t46 -56t43 -56t46 -43.5t56.5 -17q40 0 63.5 23.5t23.5 63.5t-22.5 62.5t-60.5 22.5q-46 0 -82 -32.5t-56 -82.5l-41 29q12 37 36.5 70.5t61.5 55.5t85 21q64 0 106.5 -38
t42.5 -107q0 -47 -20.5 -80t-55 -50.5t-77.5 -17.5q-42 0 -74 17t-57.5 43.5t-47.5 56t-43.5 56t-46 43.5t-55.5 17q-35 0 -58.5 -23.5t-23.5 -64.5q0 -39 23 -61.5t60 -22.5q46 0 82.5 33t55.5 82l41 -29q-12 -36 -37 -70t-61.5 -55.5t-85.5 -21.5z" />
    <glyph glyph-name="integral" unicode="&#x222b;" horiz-adv-x="258" 
d="M-38 -191l7 70h21q28 0 39.5 14.5t15.5 52.5l93 836q5 48 23 77.5t49 42.5t73 13h22l-7 -71h-19q-25 0 -39 -13t-18 -49l-93 -836q-5 -48 -22 -78.5t-47 -44.5t-74 -14h-24z" />
    <glyph glyph-name="approxequal" unicode="&#x2248;" horiz-adv-x="550" 
d="M358 117q-28 0 -50 10t-41.5 23.5t-38.5 23.5t-41 10q-27 0 -44 -18.5t-22 -47.5h-63q8 48 26 79.5t45.5 46.5t62.5 15q29 0 51.5 -10t41.5 -23t38 -23t40 -10q27 0 44.5 18t21.5 48h63q-7 -48 -25 -79.5t-45.5 -47t-63.5 -15.5zM358 300q-28 0 -50 10t-41.5 23.5
t-38.5 23.5t-41 10q-27 0 -44 -18.5t-22 -47.5h-63q8 48 26 79.5t45.5 46.5t62.5 15q29 0 51.5 -10t41.5 -23t38 -23t40 -10q27 0 44.5 18t21.5 48h63q-7 -48 -25 -79.5t-45.5 -47t-63.5 -15.5z" />
    <glyph glyph-name="notequal" unicode="&#x2260;" horiz-adv-x="550" 
d="M94 84l219 413h76l-220 -413h-75zM76 359v72h399v-72h-399zM76 151v72h399v-72h-399z" />
    <glyph glyph-name="lessequal" unicode="&#x2264;" horiz-adv-x="550" 
d="M450 124h-109l-222 178v30l222 177h109l-243 -192zM451 0h-349v64h349v-64z" />
    <glyph glyph-name="greaterequal" unicode="&#x2265;" horiz-adv-x="550" 
d="M100 124l243 193l-243 192h109l222 -177v-30l-222 -178h-109zM99 0v64h349v-64h-349z" />
    <glyph glyph-name="lozenge" unicode="&#x25ca;" horiz-adv-x="553" 
d="M276 110l-239 240l240 239l239 -239zM276 198l151 152l-150 151l-150 -151z" />
    <glyph glyph-name="Q.ss06" horiz-adv-x="766" 
d="M621 -137l-178 174l78 27l209 -201h-109zM383 -12q-103 0 -180.5 45.5t-121 127t-43.5 189.5q0 107 43.5 188.5t121 127.5t180.5 46q104 0 181.5 -46t120.5 -127.5t43 -188.5q0 -108 -43 -189.5t-120.5 -127t-181.5 -45.5zM383 62q77 0 135.5 34.5t91 99t32.5 154.5
t-32.5 154.5t-91 98.5t-135.5 34t-135.5 -34t-91 -98.5t-32.5 -154.5t32.5 -154.5t91 -99t135.5 -34.5z" />
    <glyph glyph-name="i.loclTRK" horiz-adv-x="179" 
d="M47 0v496h84v-496h-84zM89 563q-20 0 -35 15t-15 35t15 35t35 15t35 -15t15 -35t-15 -35t-35 -15z" />
    <glyph glyph-name="a.ss02" horiz-adv-x="589" 
d="M268 -12q-73 0 -126 34.5t-82 93.5t-29 132q0 74 29 133t84 93t132 34q67 0 112.5 -28t69.5 -66l5 82h79v-496h-72l-7 92h-3q-30 -49 -79.5 -76.5t-112.5 -27.5zM285 61q52 0 90.5 23.5t59.5 65.5t21 98t-21 98t-59.5 65.5t-90.5 23.5q-51 0 -89 -23.5t-59 -65.5t-21 -98
t21 -98t59 -65.5t89 -23.5z" />
    <glyph glyph-name="aacute.ss02" horiz-adv-x="589" 
d="M268 -12q-73 0 -126 34.5t-82 93.5t-29 132q0 74 29 133t84 93t132 34q67 0 112.5 -28t69.5 -66l5 82h79v-496h-72l-7 92h-3q-30 -49 -79.5 -76.5t-112.5 -27.5zM285 61q52 0 90.5 23.5t59.5 65.5t21 98t-21 98t-59.5 65.5t-90.5 23.5q-51 0 -89 -23.5t-59 -65.5t-21 -98
t21 -98t59 -65.5t89 -23.5zM182 538v73l207 122h3v-78z" />
    <glyph glyph-name="abreve.ss02" horiz-adv-x="589" 
d="M268 -12q-73 0 -126 34.5t-82 93.5t-29 132q0 74 29 133t84 93t132 34q67 0 112.5 -28t69.5 -66l5 82h79v-496h-72l-7 92h-3q-30 -49 -79.5 -76.5t-112.5 -27.5zM285 61q52 0 90.5 23.5t59.5 65.5t21 98t-21 98t-59.5 65.5t-90.5 23.5q-51 0 -89 -23.5t-59 -65.5t-21 -98
t21 -98t59 -65.5t89 -23.5zM287 554q-46 0 -77 17.5t-47 47t-16 65.5v14h50q0 -37 21 -57.5t69 -20.5t69 20.5t21 57.5h51v-14q0 -36 -16.5 -65.5t-47.5 -47t-77 -17.5z" />
    <glyph glyph-name="acircumflex.ss02" horiz-adv-x="589" 
d="M268 -12q-73 0 -126 34.5t-82 93.5t-29 132q0 74 29 133t84 93t132 34q67 0 112.5 -28t69.5 -66l5 82h79v-496h-72l-7 92h-3q-30 -49 -79.5 -76.5t-112.5 -27.5zM285 61q52 0 90.5 23.5t59.5 65.5t21 98t-21 98t-59.5 65.5t-90.5 23.5q-51 0 -89 -23.5t-59 -65.5t-21 -98
t21 -98t59 -65.5t89 -23.5zM150 541v66l137 81l137 -81v-66l-137 84z" />
    <glyph glyph-name="adieresis.ss02" horiz-adv-x="589" 
d="M268 -12q-73 0 -126 34.5t-82 93.5t-29 132q0 74 29 133t84 93t132 34q67 0 112.5 -28t69.5 -66l5 82h79v-496h-72l-7 92h-3q-30 -49 -79.5 -76.5t-112.5 -27.5zM285 61q52 0 90.5 23.5t59.5 65.5t21 98t-21 98t-59.5 65.5t-90.5 23.5q-51 0 -89 -23.5t-59 -65.5t-21 -98
t21 -98t59 -65.5t89 -23.5zM207 561q-21 0 -35.5 14.5t-14.5 35.5q0 20 14.5 35t35.5 15q20 0 35 -15t15 -35q0 -21 -15 -35.5t-35 -14.5zM367 561q-21 0 -35.5 14.5t-14.5 35.5q0 20 14.5 35t35.5 15q20 0 34.5 -15t14.5 -35q0 -21 -14.5 -35.5t-34.5 -14.5z" />
    <glyph glyph-name="agrave.ss02" horiz-adv-x="589" 
d="M268 -12q-73 0 -126 34.5t-82 93.5t-29 132q0 74 29 133t84 93t132 34q67 0 112.5 -28t69.5 -66l5 82h79v-496h-72l-7 92h-3q-30 -49 -79.5 -76.5t-112.5 -27.5zM285 61q52 0 90.5 23.5t59.5 65.5t21 98t-21 98t-59.5 65.5t-90.5 23.5q-51 0 -89 -23.5t-59 -65.5t-21 -98
t21 -98t59 -65.5t89 -23.5zM392 538l-210 117v78h3l207 -122v-73z" />
    <glyph glyph-name="amacron.ss02" horiz-adv-x="589" 
d="M268 -12q-73 0 -126 34.5t-82 93.5t-29 132q0 74 29 133t84 93t132 34q67 0 112.5 -28t69.5 -66l5 82h79v-496h-72l-7 92h-3q-30 -49 -79.5 -76.5t-112.5 -27.5zM285 61q52 0 90.5 23.5t59.5 65.5t21 98t-21 98t-59.5 65.5t-90.5 23.5q-51 0 -89 -23.5t-59 -65.5t-21 -98
t21 -98t59 -65.5t89 -23.5zM113 585v63h347v-63h-347z" />
    <glyph glyph-name="aogonek.ss02" horiz-adv-x="589" 
d="M268 -12q-73 0 -126 34.5t-82 93.5t-29 132q0 74 29 133t84 93t132 34q67 0 112.5 -28t69.5 -66l5 82h79v-496h-72l-7 92h-3q-30 -49 -79.5 -76.5t-112.5 -27.5zM285 61q52 0 90.5 23.5t59.5 65.5t21 98t-21 98t-59.5 65.5t-90.5 23.5q-51 0 -89 -23.5t-59 -65.5t-21 -98
t21 -98t59 -65.5t89 -23.5zM470 -203q-30 0 -57 9.5t-44 30.5t-17 55q0 24 11 45.5t36.5 42.5t68.5 40l53 23l21 -43l-58 -28q-35 -17 -49.5 -35t-14.5 -37q0 -23 16.5 -36t43.5 -13q14 0 31.5 4t33.5 11v-56q-16 -6 -35.5 -9.5t-39.5 -3.5z" />
    <glyph glyph-name="aring.ss02" horiz-adv-x="589" 
d="M268 -12q-73 0 -126 34.5t-82 93.5t-29 132q0 74 29 133t84 93t132 34q67 0 112.5 -28t69.5 -66l5 82h79v-496h-72l-7 92h-3q-30 -49 -79.5 -76.5t-112.5 -27.5zM285 61q52 0 90.5 23.5t59.5 65.5t21 98t-21 98t-59.5 65.5t-90.5 23.5q-51 0 -89 -23.5t-59 -65.5t-21 -98
t21 -98t59 -65.5t89 -23.5zM287 561q-43 0 -74 27.5t-31 75.5t31 75.5t74 27.5q44 0 74.5 -27.5t30.5 -75.5t-30.5 -75.5t-74.5 -27.5zM287 604q24 0 40.5 16.5t16.5 43.5q0 28 -16.5 43.5t-40.5 15.5q-23 0 -40 -15.5t-17 -43.5q0 -27 17 -43.5t40 -16.5z" />
    <glyph glyph-name="atilde.ss02" horiz-adv-x="589" 
d="M268 -12q-73 0 -126 34.5t-82 93.5t-29 132q0 74 29 133t84 93t132 34q67 0 112.5 -28t69.5 -66l5 82h79v-496h-72l-7 92h-3q-30 -49 -79.5 -76.5t-112.5 -27.5zM285 61q52 0 90.5 23.5t59.5 65.5t21 98t-21 98t-59.5 65.5t-90.5 23.5q-51 0 -89 -23.5t-59 -65.5t-21 -98
t21 -98t59 -65.5t89 -23.5zM342 561q-27 0 -45 12t-33.5 23.5t-36.5 11.5q-16 0 -27.5 -11t-14.5 -34h-49q7 50 32.5 75.5t62.5 25.5q27 0 44.5 -11.5t33.5 -23.5t37 -12q17 0 28.5 11.5t14.5 33.5h49q-6 -49 -32 -75t-64 -26z" />
    <glyph glyph-name="ae.ss02" horiz-adv-x="964" 
d="M267 -12q-71 0 -124.5 34.5t-82.5 92.5t-29 128q0 79 30.5 138.5t86 93t128.5 33.5q67 0 111.5 -27.5t69.5 -64.5l4 80h79v-49q32 30 74 45.5t92 15.5q73 0 125 -32.5t79.5 -85t27.5 -114.5v-21.5t-1 -25.5h-395q1 -56 23 -94t59 -57.5t79 -19.5q53 0 88.5 25t51.5 69h83
q-13 -47 -43 -84t-75 -58.5t-104 -21.5q-49 0 -90.5 16t-73.5 45v-49h-74l-8 88h-3q-20 -36 -49.5 -58t-65 -32t-73.5 -10zM284 61q50 0 88.5 23t61 65t22.5 99q0 56 -21.5 98t-60 65.5t-88.5 23.5t-88.5 -23.5t-60 -65.5t-21.5 -98q0 -54 19.5 -96.5t57 -66.5t91.5 -24z
M543 294h312q-3 70 -45.5 109t-106.5 39q-40 0 -75 -16.5t-57.5 -49.5t-27.5 -82z" />
    <glyph glyph-name="aeacute.ss02" horiz-adv-x="964" 
d="M267 -12q-71 0 -124.5 34.5t-82.5 92.5t-29 128q0 79 30.5 138.5t86 93t128.5 33.5q67 0 111.5 -27.5t69.5 -64.5l4 80h79v-49q32 30 74 45.5t92 15.5q73 0 125 -32.5t79.5 -85t27.5 -114.5v-21.5t-1 -25.5h-395q1 -56 23 -94t59 -57.5t79 -19.5q53 0 88.5 25t51.5 69h83
q-13 -47 -43 -84t-75 -58.5t-104 -21.5q-49 0 -90.5 16t-73.5 45v-49h-74l-8 88h-3q-20 -36 -49.5 -58t-65 -32t-73.5 -10zM284 61q50 0 88.5 23t61 65t22.5 99q0 56 -21.5 98t-60 65.5t-88.5 23.5t-88.5 -23.5t-60 -65.5t-21.5 -98q0 -54 19.5 -96.5t57 -66.5t91.5 -24z
M543 294h312q-3 70 -45.5 109t-106.5 39q-40 0 -75 -16.5t-57.5 -49.5t-27.5 -82zM382 539v73l207 122h3v-78z" />
    <glyph glyph-name="g.ss03" horiz-adv-x="593" 
d="M294 -217q-53 0 -95 12.5t-73.5 37t-51 59.5t-27.5 80h84q10 -41 32 -68.5t55 -40.5t75 -13q52 0 89.5 21.5t58.5 64t21 103.5v48q-16 -25 -41.5 -47.5t-61 -36.5t-82.5 -14q-76 0 -131.5 34t-85 93t-29.5 133q0 73 29.5 132t83.5 93t125 34q42 0 78 -12.5t66 -35.5
t50 -57h3l8 93h72v-456q0 -60 -17.5 -107.5t-50 -81t-79 -51t-105.5 -17.5zM287 62q52 0 91 23.5t60.5 65.5t21.5 98t-21.5 97.5t-60.5 65t-91 23.5q-51 0 -90 -23.5t-60 -65t-21 -97.5t21 -98t60 -65.5t90 -23.5z" />
    <glyph glyph-name="gbreve.ss03" horiz-adv-x="593" 
d="M294 -217q-53 0 -95 12.5t-73.5 37t-51 59.5t-27.5 80h84q10 -41 32 -68.5t55 -40.5t75 -13q52 0 89.5 21.5t58.5 64t21 103.5v48q-16 -25 -41.5 -47.5t-61 -36.5t-82.5 -14q-76 0 -131.5 34t-85 93t-29.5 133q0 73 29.5 132t83.5 93t125 34q42 0 78 -12.5t66 -35.5
t50 -57h3l8 93h72v-456q0 -60 -17.5 -107.5t-50 -81t-79 -51t-105.5 -17.5zM287 62q52 0 91 23.5t60.5 65.5t21.5 98t-21.5 97.5t-60.5 65t-91 23.5q-51 0 -90 -23.5t-60 -65t-21 -97.5t21 -98t60 -65.5t90 -23.5zM297 555q-46 0 -77 17.5t-47 47t-16 65.5v14h50
q0 -37 21 -57.5t69 -20.5t69 20.5t21 57.5h51v-14q0 -36 -16.5 -65.5t-47.5 -47t-77 -17.5z" />
    <glyph glyph-name="uni0123.ss03" horiz-adv-x="593" 
d="M294 -217q-53 0 -95 12.5t-73.5 37t-51 59.5t-27.5 80h84q10 -41 32 -68.5t55 -40.5t75 -13q52 0 89.5 21.5t58.5 64t21 103.5v48q-16 -25 -41.5 -47.5t-61 -36.5t-82.5 -14q-76 0 -131.5 34t-85 93t-29.5 133q0 73 29.5 132t83.5 93t125 34q42 0 78 -12.5t66 -35.5
t50 -57h3l8 93h72v-456q0 -60 -17.5 -107.5t-50 -81t-79 -51t-105.5 -17.5zM287 62q52 0 91 23.5t60.5 65.5t21.5 98t-21.5 97.5t-60.5 65t-91 23.5q-51 0 -90 -23.5t-60 -65t-21 -97.5t21 -98t60 -65.5t90 -23.5zM347 740v-40q-25 0 -36.5 -9.5t-11.5 -28.5v-21h48v-83h-96
q-1 26 -2 45.5t-1 38.5q0 52 26 75t73 23z" />
    <glyph glyph-name="gdotaccent.ss03" horiz-adv-x="593" 
d="M294 -217q-53 0 -95 12.5t-73.5 37t-51 59.5t-27.5 80h84q10 -41 32 -68.5t55 -40.5t75 -13q52 0 89.5 21.5t58.5 64t21 103.5v48q-16 -25 -41.5 -47.5t-61 -36.5t-82.5 -14q-76 0 -131.5 34t-85 93t-29.5 133q0 73 29.5 132t83.5 93t125 34q42 0 78 -12.5t66 -35.5
t50 -57h3l8 93h72v-456q0 -60 -17.5 -107.5t-50 -81t-79 -51t-105.5 -17.5zM287 62q52 0 91 23.5t60.5 65.5t21.5 98t-21.5 97.5t-60.5 65t-91 23.5q-51 0 -90 -23.5t-60 -65t-21 -97.5t21 -98t60 -65.5t90 -23.5zM297 563q-20 0 -35 15t-15 35t15 35t35 15t35 -15t15 -35
t-15 -35t-35 -15z" />
    <glyph glyph-name="u.ss04" horiz-adv-x="523" 
d="M262 -12q-104 0 -162.5 55t-58.5 169v284h84v-275q0 -53 15 -89t45.5 -54t76.5 -18t76 18t45 54t15 89v275h84v-284q0 -114 -58 -169t-162 -55z" />
    <glyph glyph-name="uacute.ss04" horiz-adv-x="523" 
d="M262 -12q-104 0 -162.5 55t-58.5 169v284h84v-275q0 -53 15 -89t45.5 -54t76.5 -18t76 18t45 54t15 89v275h84v-284q0 -114 -58 -169t-162 -55zM157 539v73l207 122h3v-78z" />
    <glyph glyph-name="ubreve.ss04" horiz-adv-x="523" 
d="M262 -12q-104 0 -162.5 55t-58.5 169v284h84v-275q0 -53 15 -89t45.5 -54t76.5 -18t76 18t45 54t15 89v275h84v-284q0 -114 -58 -169t-162 -55zM262 555q-46 0 -77 17.5t-47 47t-16 65.5v14h50q0 -37 21 -57.5t69 -20.5t69 20.5t21 57.5h51v-14q0 -36 -16.5 -65.5
t-47.5 -47t-77 -17.5z" />
    <glyph glyph-name="ucircumflex.ss04" horiz-adv-x="523" 
d="M262 -12q-104 0 -162.5 55t-58.5 169v284h84v-275q0 -53 15 -89t45.5 -54t76.5 -18t76 18t45 54t15 89v275h84v-284q0 -114 -58 -169t-162 -55zM125 542v66l137 81l137 -81v-66l-137 84z" />
    <glyph glyph-name="udieresis.ss04" horiz-adv-x="523" 
d="M262 -12q-104 0 -162.5 55t-58.5 169v284h84v-275q0 -53 15 -89t45.5 -54t76.5 -18t76 18t45 54t15 89v275h84v-284q0 -114 -58 -169t-162 -55zM182 562q-21 0 -35.5 14.5t-14.5 35.5q0 20 14.5 35t35.5 15q20 0 35 -15t15 -35q0 -21 -15 -35.5t-35 -14.5zM342 562
q-21 0 -35.5 14.5t-14.5 35.5q0 20 14.5 35t35.5 15q20 0 34.5 -15t14.5 -35q0 -21 -14.5 -35.5t-34.5 -14.5z" />
    <glyph glyph-name="ugrave.ss04" horiz-adv-x="523" 
d="M262 -12q-104 0 -162.5 55t-58.5 169v284h84v-275q0 -53 15 -89t45.5 -54t76.5 -18t76 18t45 54t15 89v275h84v-284q0 -114 -58 -169t-162 -55zM367 539l-210 117v78h3l207 -122v-73z" />
    <glyph glyph-name="uhungarumlaut.ss04" horiz-adv-x="523" 
d="M262 -12q-104 0 -162.5 55t-58.5 169v284h84v-275q0 -53 15 -89t45.5 -54t76.5 -18t76 18t45 54t15 89v275h84v-284q0 -114 -58 -169t-162 -55zM298 549l72 149h73l-89 -149h-56zM152 549l66 149h73l-82 -149h-57z" />
    <glyph glyph-name="umacron.ss04" horiz-adv-x="523" 
d="M262 -12q-104 0 -162.5 55t-58.5 169v284h84v-275q0 -53 15 -89t45.5 -54t76.5 -18t76 18t45 54t15 89v275h84v-284q0 -114 -58 -169t-162 -55zM88 586v63h347v-63h-347z" />
    <glyph glyph-name="uogonek.ss04" horiz-adv-x="523" 
d="M262 -12q-104 0 -162.5 55t-58.5 169v284h84v-275q0 -53 15 -89t45.5 -54t76.5 -18t76 18t45 54t15 89v275h84v-284q0 -114 -58 -169t-162 -55zM303 -193q-30 0 -57 9.5t-44 30.5t-17 55q0 24 11 45.5t36.5 42.5t68.5 40l53 23l21 -43l-58 -28q-35 -17 -49.5 -35
t-14.5 -37q0 -23 16.5 -36t43.5 -13q14 0 31.5 4t33.5 11v-56q-16 -6 -35.5 -9.5t-39.5 -3.5z" />
    <glyph glyph-name="uring.ss04" horiz-adv-x="523" 
d="M262 -12q-104 0 -162.5 55t-58.5 169v284h84v-275q0 -53 15 -89t45.5 -54t76.5 -18t76 18t45 54t15 89v275h84v-284q0 -114 -58 -169t-162 -55zM262 562q-43 0 -74 27.5t-31 75.5t31 75.5t74 27.5q44 0 74.5 -27.5t30.5 -75.5t-30.5 -75.5t-74.5 -27.5zM262 605
q24 0 40.5 16.5t16.5 43.5q0 28 -16.5 43.5t-40.5 15.5q-23 0 -40 -15.5t-17 -43.5q0 -27 17 -43.5t40 -16.5z" />
    <glyph glyph-name="utilde.ss04" horiz-adv-x="523" 
d="M262 -12q-104 0 -162.5 55t-58.5 169v284h84v-275q0 -53 15 -89t45.5 -54t76.5 -18t76 18t45 54t15 89v275h84v-284q0 -114 -58 -169t-162 -55zM317 562q-27 0 -45 12t-33.5 23.5t-36.5 11.5q-16 0 -27.5 -11t-14.5 -34h-49q7 50 32.5 75.5t62.5 25.5q27 0 44.5 -11.5
t33.5 -23.5t37 -12q17 0 28.5 11.5t14.5 33.5h49q-6 -49 -32 -75t-64 -26z" />
    <glyph glyph-name="y.ss05" horiz-adv-x="539" 
d="M262 -217q-46 0 -84.5 12t-67 34.5t-45 55t-20.5 74.5h82q5 -35 23 -60t47 -38t67 -13q44 0 75 21t48 64.5t17 110.5v35h-3q-23 -41 -67 -66t-103 -25q-57 0 -99.5 23.5t-66.5 72t-24 122.5v290h84v-281q0 -77 33 -116t95 -39q43 0 77 21t54 61t20 97v257h84v-452
q0 -84 -27.5 -142t-78 -88.5t-120.5 -30.5z" />
    <glyph glyph-name="yacute.ss05" horiz-adv-x="539" 
d="M262 -217q-46 0 -84.5 12t-67 34.5t-45 55t-20.5 74.5h82q5 -35 23 -60t47 -38t67 -13q44 0 75 21t48 64.5t17 110.5v35h-3q-23 -41 -67 -66t-103 -25q-57 0 -99.5 23.5t-66.5 72t-24 122.5v290h84v-281q0 -77 33 -116t95 -39q43 0 77 21t54 61t20 97v257h84v-452
q0 -84 -27.5 -142t-78 -88.5t-120.5 -30.5zM165 539v73l207 122h3v-78z" />
    <glyph glyph-name="ycircumflex.ss05" horiz-adv-x="539" 
d="M262 -217q-46 0 -84.5 12t-67 34.5t-45 55t-20.5 74.5h82q5 -35 23 -60t47 -38t67 -13q44 0 75 21t48 64.5t17 110.5v35h-3q-23 -41 -67 -66t-103 -25q-57 0 -99.5 23.5t-66.5 72t-24 122.5v290h84v-281q0 -77 33 -116t95 -39q43 0 77 21t54 61t20 97v257h84v-452
q0 -84 -27.5 -142t-78 -88.5t-120.5 -30.5zM133 542v66l137 81l137 -81v-66l-137 84z" />
    <glyph glyph-name="ydieresis.ss05" horiz-adv-x="539" 
d="M262 -217q-46 0 -84.5 12t-67 34.5t-45 55t-20.5 74.5h82q5 -35 23 -60t47 -38t67 -13q44 0 75 21t48 64.5t17 110.5v35h-3q-23 -41 -67 -66t-103 -25q-57 0 -99.5 23.5t-66.5 72t-24 122.5v290h84v-281q0 -77 33 -116t95 -39q43 0 77 21t54 61t20 97v257h84v-452
q0 -84 -27.5 -142t-78 -88.5t-120.5 -30.5zM190 562q-21 0 -35.5 14.5t-14.5 35.5q0 20 14.5 35t35.5 15q20 0 35 -15t15 -35q0 -21 -15 -35.5t-35 -14.5zM350 562q-21 0 -35.5 14.5t-14.5 35.5q0 20 14.5 35t35.5 15q20 0 34.5 -15t14.5 -35q0 -21 -14.5 -35.5t-34.5 -14.5
z" />
    <glyph glyph-name="ygrave.ss05" horiz-adv-x="539" 
d="M262 -217q-46 0 -84.5 12t-67 34.5t-45 55t-20.5 74.5h82q5 -35 23 -60t47 -38t67 -13q44 0 75 21t48 64.5t17 110.5v35h-3q-23 -41 -67 -66t-103 -25q-57 0 -99.5 23.5t-66.5 72t-24 122.5v290h84v-281q0 -77 33 -116t95 -39q43 0 77 21t54 61t20 97v257h84v-452
q0 -84 -27.5 -142t-78 -88.5t-120.5 -30.5zM375 539l-210 117v78h3l207 -122v-73z" />
    <glyph glyph-name="uni1EF9.ss05" horiz-adv-x="539" 
d="M262 -217q-46 0 -84.5 12t-67 34.5t-45 55t-20.5 74.5h82q5 -35 23 -60t47 -38t67 -13q44 0 75 21t48 64.5t17 110.5v35h-3q-23 -41 -67 -66t-103 -25q-57 0 -99.5 23.5t-66.5 72t-24 122.5v290h84v-281q0 -77 33 -116t95 -39q43 0 77 21t54 61t20 97v257h84v-452
q0 -84 -27.5 -142t-78 -88.5t-120.5 -30.5zM325 562q-27 0 -45 12t-33.5 23.5t-36.5 11.5q-16 0 -27.5 -11t-14.5 -34h-49q7 50 32.5 75.5t62.5 25.5q27 0 44.5 -11.5t33.5 -23.5t37 -12q17 0 28.5 11.5t14.5 33.5h49q-6 -49 -32 -75t-64 -26z" />
    <glyph glyph-name="one.ss07" horiz-adv-x="331" 
d="M132 0v606l-113 -25v58l141 61h57v-700h-85zM37 70h275v-70h-275v70z" />
    <glyph glyph-name="three.ss07" horiz-adv-x="566" 
d="M284 -5q-67 0 -120 24t-85.5 71.5t-39.5 117.5h83q8 -61 48.5 -102t114.5 -41q73 0 115 40.5t42 110.5q0 72 -41.5 112.5t-114.5 40.5h-100v59l229 227l33 -26h-364v71h409v-64l-234 -230l-47 27h78q110 0 172 -57t62 -161q0 -67 -29 -116.5t-83 -76.5t-128 -27z" />
    <glyph glyph-name="four.ss07" horiz-adv-x="583" 
d="M365 0v165h-335v65l292 470h95l-294 -461h246v171l79 19v-190h104v-74h-104v-165h-83z" />
    <glyph glyph-name="six.ss07" horiz-adv-x="557" 
d="M279 -12q-75 0 -131 32.5t-86.5 87.5t-30.5 124q0 53 17.5 103.5t55.5 105.5l174 259h99l-192 -281l-2 25q25 11 51.5 17.5t55.5 6.5q71 0 124 -29.5t82.5 -82.5t29.5 -124q0 -72 -31.5 -127t-87 -86t-128.5 -31zM279 65q75 0 119 45.5t44 120.5q0 50 -20 87.5
t-56.5 58.5t-86.5 21q-49 0 -86 -21t-57 -58t-20 -87q0 -76 44.5 -121.5t118.5 -45.5z" />
    <glyph glyph-name="nine.ss07" horiz-adv-x="557" 
d="M180 0l192 281l2 -25q-25 -10 -51.5 -17t-55.5 -7q-70 0 -123.5 29.5t-83 83t-29.5 123.5q0 72 31.5 127t87 86t127.5 31q76 0 132 -32t86.5 -87.5t30.5 -124.5q0 -53 -17.5 -103t-55.5 -106l-174 -259h-99zM277 302q50 0 87 21t57 58.5t20 86.5q0 76 -44.5 121.5
t-119.5 45.5q-74 0 -118 -45.5t-44 -120.5q0 -50 20 -87.5t56.5 -58.5t85.5 -21z" />
    <glyph glyph-name="one.dnom" horiz-adv-x="204" 
d="M95 0v286l-67 -18v42l90 42h44v-352h-67z" />
    <glyph glyph-name="two.dnom" horiz-adv-x="330" 
d="M35 0v48l112 92q29 24 48.5 49t19.5 59q0 29 -16 44t-39 15q-26 0 -41 -15.5t-19 -43.5h-67q3 46 36 78t95 32q38 0 65.5 -14.5t42 -38.5t14.5 -54q0 -41 -24.5 -71.5t-71.5 -65.5l-81 -60h181v-54h-255z" />
    <glyph glyph-name="three.dnom" horiz-adv-x="330" 
d="M161 -5q-61 0 -95.5 27.5t-39.5 79.5h67q3 -21 12 -33.5t23.5 -17.5t31.5 -5q30 0 47.5 14.5t17.5 39.5q0 27 -19.5 41.5t-48.5 14.5h-46v41h45q29 0 47.5 14t18.5 41q0 25 -17 39.5t-46 14.5q-28 0 -44.5 -12.5t-21.5 -34.5h-63q3 28 19.5 50.5t45.5 35.5t70 13
q54 0 91 -29t37 -73q0 -31 -17.5 -51t-47.5 -28v-2q29 -9 48.5 -29.5t19.5 -53.5q0 -40 -36 -68.5t-99 -28.5z" />
    <glyph glyph-name="four.dnom" horiz-adv-x="321" 
d="M193 0v66h-172v50l160 232h78v-228h46v-54h-46v-66h-66zM91 120h107v156h-3z" />
    <glyph glyph-name="one.numr" horiz-adv-x="204" 
d="M95 352v286l-67 -18v42l90 42h44v-352h-67z" />
    <glyph glyph-name="two.numr" horiz-adv-x="330" 
d="M35 352v48l112 92q29 24 48.5 49t19.5 59q0 29 -16 44t-39 15q-26 0 -41 -15.5t-19 -43.5h-67q3 46 36 78t95 32q38 0 65.5 -14.5t42 -38.5t14.5 -54q0 -41 -24.5 -71.5t-71.5 -65.5l-81 -60h181v-54h-255z" />
    <glyph glyph-name="three.numr" horiz-adv-x="330" 
d="M161 347q-61 0 -95.5 27.5t-39.5 79.5h67q3 -21 12 -33.5t23.5 -17.5t31.5 -5q30 0 47.5 14.5t17.5 39.5q0 27 -19.5 41.5t-48.5 14.5h-46v41h45q29 0 47.5 14t18.5 41q0 25 -17 39.5t-46 14.5q-28 0 -44.5 -12.5t-21.5 -34.5h-63q3 28 19.5 50.5t45.5 35.5t70 13
q54 0 91 -29t37 -73q0 -31 -17.5 -51t-47.5 -28v-2q29 -9 48.5 -29.5t19.5 -53.5q0 -40 -36 -68.5t-99 -28.5z" />
    <glyph glyph-name="four.numr" horiz-adv-x="321" 
d="M193 352v66h-172v50l160 232h78v-228h46v-54h-46v-66h-66zM91 472h107v156h-3z" />
    <glyph glyph-name="comma.ss01" horiz-adv-x="173" 
d="M34 -98v39q26 0 36.5 13.5t10.5 40.5v24h-48v82h96q2 -25 2.5 -48t0.5 -42q0 -57 -25.5 -83t-72.5 -26z" />
    <glyph glyph-name="semicolon.ss01" horiz-adv-x="173" 
d="M80 394q-24 0 -40.5 16.5t-16.5 39.5q0 24 16.5 40t40.5 16q23 0 39 -16t16 -40q0 -23 -16 -39.5t-39 -16.5zM31 -98v39q26 0 36.5 13.5t10.5 40.5v24h-48v82h96q2 -25 2.5 -48t0.5 -42q0 -57 -25.5 -83t-72.5 -26z" />
    <glyph glyph-name="quotesinglbase.ss01" horiz-adv-x="173" 
d="M34 -98v39q26 0 36.5 13.5t10.5 40.5v24h-48v82h96q2 -23 2.5 -45.5t0.5 -44.5q0 -57 -25.5 -83t-72.5 -26z" />
    <glyph glyph-name="quotedblbase.ss01" horiz-adv-x="300" 
d="M161 -98v39q26 0 36.5 13.5t10.5 40.5v24h-48v82h96q2 -23 2.5 -45.5t0.5 -44.5q0 -57 -25.5 -83t-72.5 -26zM34 -98v39q26 0 36.5 13.5t10.5 40.5v24h-48v82h96q2 -23 2.5 -45.5t0.5 -44.5q0 -57 -25.5 -83t-72.5 -26z" />
    <glyph glyph-name="quotedblleft.ss01" horiz-adv-x="283" 
d="M130 730v-39q-25 0 -36 -13.5t-11 -40.5v-24h48v-82h-96q-2 24 -2.5 46.5t-0.5 43.5q0 57 25 83t73 26zM257 730v-39q-25 0 -36 -13.5t-11 -40.5v-24h48v-82h-96q-2 24 -2.5 46.5t-0.5 43.5q0 57 25.5 83t72.5 26z" />
    <glyph glyph-name="quotedblright.ss01" horiz-adv-x="283" 
d="M153 531v39q26 0 36.5 13.5t10.5 40.5v24h-48v82h96q2 -23 2.5 -45.5t0.5 -44.5q0 -57 -25.5 -83t-72.5 -26zM26 531v39q26 0 36.5 13.5t10.5 40.5v24h-48v82h96q2 -23 2.5 -45.5t0.5 -44.5q0 -57 -25.5 -83t-72.5 -26z" />
    <glyph glyph-name="quoteleft.ss01" horiz-adv-x="156" 
d="M130 730v-39q-25 0 -36 -13.5t-11 -40.5v-24h48v-82h-96q-2 24 -2.5 46.5t-0.5 43.5q0 57 25 83t73 26z" />
    <glyph glyph-name="quoteright.ss01" horiz-adv-x="156" 
d="M26 529v39q26 0 36.5 13.5t10.5 40.5v24h-48v82h96q2 -23 2.5 -45.5t0.5 -44.5q0 -57 -25.5 -83t-72.5 -26z" />
    <glyph glyph-name="quotedblleft.ss08" horiz-adv-x="764" 
d="M382 -12q75 0 140.5 28t115.5 78t78 115.5t28 140.5t-28 140.5t-78 115.5t-115.5 78t-140.5 28t-140.5 -28t-115.5 -78t-78 -115.5t-28 -140.5t28 -140.5t78 -115.5t115.5 -78t140.5 -28zM361 483v-51q-33 0 -47 -17.5t-14 -52.5v-31h63v-107h-125q-2 30 -3 59.5t-1 57.5
q0 50 14.5 81t43 46t69.5 15zM527 483v-51q-33 0 -47 -17.5t-14 -52.5v-31h62v-107h-125q-2 30 -2.5 59.5t-0.5 57.5q0 50 14.5 81t43 46t69.5 15z" />
    <glyph glyph-name="quotedblright.ss08" horiz-adv-x="764" 
d="M382 712q-75 0 -140.5 -28t-115.5 -78t-78 -115.5t-28 -140.5t28 -140.5t78 -115.5t115.5 -78t140.5 -28t140.5 28t115.5 78t78 115.5t28 140.5t-28 140.5t-78 115.5t-115.5 78t-140.5 28zM403 217v51q33 0 47 17.5t14 52.5v31h-63v107h125q3 -30 3.5 -59.5t0.5 -57.5
q0 -49 -14.5 -80.5t-43 -46.5t-69.5 -15zM237 217v51q33 0 47.5 17.5t14.5 52.5v31h-63v107h125q2 -30 3 -59.5t1 -57.5q0 -49 -15 -80.5t-43.5 -46.5t-69.5 -15z" />
    <glyph glyph-name="arrowup.ss08" horiz-adv-x="764" 
d="M382 -12q-75 0 -140.5 28t-115.5 78t-78 115.5t-28 140.5t28 140.5t78 115.5t115.5 78t140.5 28t140.5 -28t115.5 -77.5t78 -115t28 -141.5q0 -75 -28 -140.5t-78 -115.5t-115.5 -78t-140.5 -28zM347 171h71v258l125 -123l46 46l-182 180h-49l-182 -180l46 -46l125 123
v-258z" />
    <glyph glyph-name="uni2197.ss08" horiz-adv-x="764" 
d="M382 -12q-75 0 -140.5 28t-115.5 78t-78 115.5t-28 140.5t28 140.5t78 115.5t115.5 78t140.5 28t140.5 -28t115.5 -77.5t78 -115.5t28 -141t-28 -140.5t-78 -115.5t-115.5 -78t-140.5 -28zM279 203l187 185v-181h65v256l-35 35h-256v-64h180l-188 -186z" />
    <glyph glyph-name="arrowright.ss08" horiz-adv-x="764" 
d="M382 -12q-75 0 -140.5 28t-115.5 78t-78 115.5t-28 140.5t28 140.5t78 115.5t115.5 78t140.5 28t140.5 -28t115.5 -77.5t78 -115.5t28 -141t-28 -140.5t-78 -115.5t-115.5 -78t-140.5 -28zM382 145l182 181v50l-182 180l-46 -46l128 -126h-264v-67h264l-128 -125z" />
    <glyph glyph-name="uni2198.ss08" horiz-adv-x="764" 
d="M382 712q75 0 140.5 -28t115.5 -78t78 -115.5t28 -140.5t-28 -141t-78 -115.5t-115.5 -77.5t-140.5 -28t-140.5 28t-115.5 78t-78 115.5t-28 140.5t28 140.5t78 115.5t115.5 78t140.5 28zM279 497l-47 -45l188 -186h-180v-64h256l35 35v256h-65v-181z" />
    <glyph glyph-name="arrowdown.ss08" horiz-adv-x="764" 
d="M382 712q75 0 140.5 -28t115.5 -78t78 -115.5t28 -140.5q0 -76 -28 -141.5t-78 -115t-115.5 -77.5t-140.5 -28t-140.5 28t-115.5 78t-78 115.5t-28 140.5t28 140.5t78 115.5t115.5 78t140.5 28zM347 529v-258l-125 123l-46 -46l182 -180h49l182 180l-46 46l-125 -123v258
h-71z" />
    <glyph glyph-name="uni2199.ss08" horiz-adv-x="764" 
d="M382 712q75 0 140.5 -28t115.5 -78t78 -115.5t28 -140.5t-28 -140.5t-78 -115.5t-115.5 -78t-140.5 -28t-140.5 28t-115.5 77.5t-78 115.5t-28 141t28 140.5t78 115.5t115.5 78t140.5 28zM485 497l-187 -185v181h-65v-256l35 -35h256v64h-180l188 186z" />
    <glyph glyph-name="arrowleft.ss08" horiz-adv-x="764" 
d="M382 -12q-75 0 -140.5 28t-115.5 78t-78 115.5t-28 140.5t28 141t78 115.5t115.5 77.5t140.5 28t140.5 -28t115.5 -78t78 -115.5t28 -140.5t-28 -140.5t-78 -115.5t-115.5 -78t-140.5 -28zM382 145l46 47l-128 125h264v67h-264l128 126l-46 46l-182 -180v-50z" />
    <glyph glyph-name="uni2196.ss08" horiz-adv-x="764" 
d="M382 -12q-75 0 -140.5 28t-115.5 78t-78 115.5t-28 140.5t28 141t78 115.5t115.5 77.5t140.5 28t140.5 -28t115.5 -78t78 -115.5t28 -140.5t-28 -140.5t-78 -115.5t-115.5 -78t-140.5 -28zM485 203l47 45l-188 186h180v64h-256l-35 -35v-256h65v181z" />
    <glyph glyph-name="arrowboth.ss08" horiz-adv-x="764" 
d="M382 -12q-75 0 -140.5 28t-115.5 78t-78 115.5t-28 140.5t28 140.5t78 115.5t115.5 78t140.5 28t140.5 -28t115.5 -77.5t78 -115.5t28 -141t-28 -140.5t-78 -115.5t-115.5 -78t-140.5 -28zM299 164l51 40l-92 113h249l-92 -113l51 -40l128 161v50l-128 161l-51 -40
l92 -113h-249l92 113l-51 40l-129 -161v-50z" />
    <glyph glyph-name="arrowupdn.ss08" horiz-adv-x="764" 
d="M382 -12q-75 0 -140.5 28t-115.5 78t-78 115.5t-28 140.5t28 140.5t78 115.5t115.5 78t140.5 28t140.5 -28t115.5 -78t78 -115.5t28 -140.5t-28 -140.5t-77.5 -115.5t-115.5 -78t-141 -28zM358 139h49l163 128l-40 51l-114 -91v246l114 -91l40 51l-163 128h-49l-163 -128
l40 -51l114 91v-246l-114 91l-40 -51z" />
    <glyph glyph-name="uni030C.alt" 
d="M0 543v40q26 0 37 9.5t11 28.5v21h-48v83h96q2 -26 2.5 -45t0.5 -39q0 -52 -26 -75t-73 -23z" />
    <glyph glyph-name="uni0308.case" 
d="M50 775q-21 0 -35.5 14.5t-14.5 35.5q0 20 14.5 35t35.5 15q20 0 35 -15t15 -35q0 -21 -15 -35.5t-35 -14.5zM210 775q-21 0 -35.5 14.5t-14.5 35.5q0 20 14.5 35t35.5 15q20 0 34.5 -15t14.5 -35q0 -21 -14.5 -35.5t-34.5 -14.5z" />
    <glyph glyph-name="uni0307.case" 
d="M50 766q-20 0 -35 15t-15 35t15 35t35 15t35 -15t15 -35t-15 -35t-35 -15z" />
    <glyph glyph-name="gravecomb.case" 
d="M210 743l-210 117v78h3l207 -122v-73z" />
    <glyph glyph-name="acutecomb.case" 
d="M0 743v73l207 122h3v-78z" />
    <glyph glyph-name="uni030B.case" 
d="M146 753l72 149h73l-89 -149h-56zM0 753l66 149h73l-82 -149h-57z" />
    <glyph glyph-name="uni0302.case" 
d="M0 755v66l137 81l137 -81v-66l-137 84z" />
    <glyph glyph-name="uni030C.case" 
d="M137 754l-137 82v65l137 -84l137 84v-65z" />
    <glyph glyph-name="uni0306.case" 
d="M140 757q-46 0 -77 17.5t-47 47t-16 65.5v14h50q0 -37 21 -57.5t69 -20.5t69 20.5t21 57.5h51v-14q0 -36 -16.5 -65.5t-47.5 -47t-77 -17.5z" />
    <glyph glyph-name="uni030A.case" 
d="M105 761q-43 0 -74 27.5t-31 75.5t31 75.5t74 27.5q44 0 74.5 -27.5t30.5 -75.5t-30.5 -75.5t-74.5 -27.5zM105 804q24 0 40.5 16.5t16.5 43.5q0 28 -16.5 43.5t-40.5 15.5q-23 0 -40 -15.5t-17 -43.5q0 -27 17 -43.5t40 -16.5z" />
    <glyph glyph-name="tildecomb.case" 
d="M206 756q-27 0 -45 12t-33.5 23.5t-36.5 11.5q-16 0 -27.5 -11t-14.5 -34h-49q7 50 32.5 75.5t62.5 25.5q27 0 44.5 -11.5t33.5 -23.5t37 -12q17 0 28.5 11.5t14.5 33.5h49q-6 -49 -32 -75t-64 -26z" />
    <glyph glyph-name="uni0304.case" 
d="M0 796v63h347v-63h-347z" />
    <glyph glyph-name="uni0327.case" 
d="M0 -259v53h92q35 0 51.5 12t16.5 36q0 22 -16.5 33.5t-51.5 11.5h-49v120h56v-70q38 1 67 -9.5t45.5 -32.5t16.5 -54q0 -31 -15.5 -53.5t-43 -34.5t-62.5 -12h-107z" />
    <glyph glyph-name="uni0328.case" 
d="M118 -203q-30 0 -57 9.5t-44 30.5t-17 55q0 24 11 45.5t36.5 42.5t68.5 40l53 23l21 -43l-58 -28q-35 -17 -49.5 -35t-14.5 -37q0 -23 16.5 -36t43.5 -13q14 0 31.5 4t33.5 11v-56q-16 -6 -35.5 -9.5t-39.5 -3.5z" />
    </font>
</defs>
</svg>
