<?xml version="1.0" standalone="no"?>
<!DOCTYPE svg PUBLIC "-//W3C//DTD SVG 1.1//EN" "http://www.w3.org/Graphics/SVG/1.1/DTD/svg11.dtd" >
<svg xmlns="http://www.w3.org/2000/svg" xmlns:xlink="http://www.w3.org/1999/xlink" version="1.1">
<metadata>
Created by FontForge 20201107 at Wed Jun 14 12:00:55 2023
 By 
Copyright 2014 The DM Sans Project Authors (https://github.com/googlefonts/dm-fonts)
</metadata>
<defs>
<font id="DMSans24pt-BlackItalic" horiz-adv-x="0" >
  <font-face 
    font-family="DM Sans 24pt Black"
    font-weight="900"
    font-style="italic"
    font-stretch="normal"
    units-per-em="1000"
    panose-1="0 0 0 0 0 0 0 0 0 0"
    ascent="800"
    descent="-200"
    x-height="496"
    cap-height="700"
    bbox="-146 -293 1264 1003"
    underline-thickness="50"
    underline-position="-125"
    slope="-10"
    unicode-range="U+000D-FB02"
  />
<missing-glyph horiz-adv-x="531" 
d="M21 0l124 700h401l-124 -700h-401zM101 57h261l104 586h-261z" />
    <glyph glyph-name="fi" unicode="fi" horiz-adv-x="628" 
d="M41 0l66 371h-66l22 125h66l8 44q12 66 41.5 105.5t74 57t99.5 17.5h57l-23 -127h-34q-30 0 -45 -12t-20 -40l-8 -45h326l-88 -496h-150l66 371h-176l-66 -371h-150zM556 554q-41 0 -66.5 24.5t-25.5 58.5q0 36 25.5 60.5t66.5 24.5q40 0 65 -24.5t25 -60.5
q0 -34 -25 -58.5t-65 -24.5z" />
    <glyph glyph-name="fl" unicode="fl" horiz-adv-x="652" 
d="M41 0l96 540q12 66 41.5 105.5t74 57t99.5 17.5h57l-23 -127h-34q-30 0 -45 -12t-20 -40l-96 -541h-150zM41 371l22 125h315l-22 -125h-315zM393 0l128 720h150l-128 -720h-150z" />
    <glyph glyph-name=".notdef" horiz-adv-x="531" 
d="M21 0l124 700h401l-124 -700h-401zM101 57h261l104 586h-261z" />
    <glyph glyph-name=".null" 
 />
    <glyph glyph-name="nonmarkingreturn" horiz-adv-x="333" 
 />
    <glyph glyph-name="CR" unicode="&#xd;" horiz-adv-x="600" 
 />
    <glyph glyph-name="space" unicode=" " horiz-adv-x="244" 
 />
    <glyph glyph-name="exclam" unicode="!" horiz-adv-x="322" 
d="M85 235l66 465h160l-99 -465h-127zM128 -7q-39 0 -64 24t-25 60q0 35 25 59.5t65 24.5q39 0 64 -24t25 -60q0 -35 -25 -59.5t-65 -24.5z" />
    <glyph glyph-name="quotedbl" unicode="&#x22;" horiz-adv-x="405" 
d="M266 540l62 215h127l-88 -215h-101zM90 540l62 215h126l-86 -215h-102z" />
    <glyph glyph-name="numbersign" unicode="#" horiz-adv-x="882" 
d="M412 0l286 732h140l-286 -732h-140zM93 0l286 732h141l-286 -732h-141zM11 164l25 135h760l-24 -135h-761zM119 437l23 135h761l-23 -135h-761z" />
    <glyph glyph-name="dollar" unicode="$" horiz-adv-x="610" 
d="M204 -87l155 879h65l-155 -879h-65zM271 -12q-77 0 -133.5 26t-84.5 76t-17 122h160q-4 -31 6.5 -53t33.5 -33.5t53 -11.5q32 0 56 11t36.5 31.5t12.5 46.5q0 19 -8.5 33t-24 25t-35 19.5t-43 16.5t-46.5 17q-66 23 -102.5 65.5t-36.5 101.5q0 70 36 121.5t99.5 80.5
t144.5 29q71 0 121.5 -23.5t76 -69.5t17.5 -113h-162q5 26 -4.5 44t-29.5 27t-45 9q-28 0 -48.5 -10t-32 -27t-11.5 -40q0 -16 7 -28.5t19 -22t29 -17.5t37 -15.5t42 -15.5q33 -12 62.5 -28.5t52.5 -39.5t36 -52.5t13 -66.5q0 -71 -37 -124t-102.5 -82t-147.5 -29z" />
    <glyph glyph-name="percent" unicode="%" horiz-adv-x="923" 
d="M149 0l513 700h145l-512 -700h-146zM664 -12q-44 0 -79 18t-55.5 51.5t-20.5 78.5q0 61 27.5 110t75 78t106.5 29q44 0 79 -18t55 -51t20 -79q0 -61 -27.5 -110t-74 -78t-106.5 -29zM242 347q-44 0 -79 18t-55.5 51.5t-20.5 78.5q0 62 27.5 110.5t75 77.5t106.5 29
q44 0 78.5 -18t54.5 -51t20 -79q0 -62 -27 -110.5t-74 -77.5t-106 -29zM676 88q22 0 40 14.5t28.5 38.5t10.5 53q0 30 -14 45t-37 15q-21 0 -39 -14.5t-28.5 -38.5t-10.5 -54q0 -29 13.5 -44t36.5 -15zM253 447q23 0 40.5 14t28.5 38t11 54q0 29 -14 44.5t-37 15.5
q-21 0 -39.5 -14.5t-29 -38.5t-10.5 -54q0 -29 14 -44t36 -15z" />
    <glyph glyph-name="ampersand" unicode="&#x26;" horiz-adv-x="796" 
d="M563 0l-319 378q-31 37 -45 68t-14 64q0 61 31 106t85.5 70.5t123.5 25.5q60 0 102.5 -21t62.5 -59t11 -90h-142q6 27 -9.5 44t-44.5 17q-33 0 -54.5 -21t-21.5 -52q0 -21 11 -42.5t32 -49.5l367 -438h-176zM257 -11q-71 0 -123 22t-80 62.5t-28 94.5q0 63 31 113.5
t86 88t122 58.5l62 18l49 -90l-54 -16q-65 -20 -104 -57.5t-39 -86.5q0 -24 12.5 -43.5t36.5 -30.5t57 -11q52 0 96.5 22t89.5 68q24 24 48.5 56t49.5 71l26 36h151l-38 -58q-39 -60 -76.5 -107.5t-76.5 -83.5q-68 -66 -141 -96t-157 -30z" />
    <glyph glyph-name="quotesingle" unicode="'" horiz-adv-x="205" 
d="M104 540l24 215h127l-50 -215h-101z" />
    <glyph glyph-name="parenleft" unicode="(" horiz-adv-x="414" 
d="M166 -145q-36 45 -62.5 102.5t-40.5 123.5t-14 137q0 109 34.5 216t99 204t151.5 173h149l-2 -14q-90 -82 -153.5 -174.5t-97 -190.5t-33.5 -196q0 -66 14.5 -131t41.5 -124.5t65 -111.5l-3 -14h-149z" />
    <glyph glyph-name="parenright" unicode=")" horiz-adv-x="414" 
d="M278 811q36 -45 62.5 -102.5t40.5 -123.5t14 -137q0 -109 -34.5 -216t-98.5 -203.5t-152 -173.5h-149l2 14q90 83 153.5 175t97 190t33.5 196q0 67 -14.5 131.5t-41 124.5t-65.5 111l3 14h149z" />
    <glyph glyph-name="asterisk" unicode="*" horiz-adv-x="521" 
d="M230 360l45 136l-121 -89l-38 97l134 47l-116 45l67 92l93 -87l2 137h106l-47 -137l123 87l36 -91l-135 -48l119 -46l-70 -95l-92 88l-1 -136h-105z" />
    <glyph glyph-name="plus" unicode="+" horiz-adv-x="588" 
d="M198 58l81 462h126l-81 -462h-126zM42 227l22 125h497l-22 -125h-497z" />
    <glyph glyph-name="comma" unicode="," horiz-adv-x="258" 
d="M-40 -114l103 263h142l-149 -263h-96z" />
    <glyph glyph-name="hyphen" unicode="-" horiz-adv-x="534" 
d="M75 227l22 125h429l-22 -125h-429z" />
    <glyph glyph-name="period" unicode="." horiz-adv-x="265" 
d="M101 -7q-39 0 -64.5 24t-25.5 60q0 35 25.5 59.5t64.5 24.5q40 0 65 -24t25 -60q0 -35 -25.5 -59.5t-64.5 -24.5z" />
    <glyph glyph-name="slash" unicode="/" horiz-adv-x="436" 
d="M-44 -119l409 903h145l-409 -903h-145z" />
    <glyph glyph-name="zero" unicode="0" horiz-adv-x="721" 
d="M318 -12q-83 0 -142 34t-90 96t-31 144q0 95 29 177t81 143t122 95.5t152 34.5q84 0 142.5 -34t89.5 -96t31 -144q0 -95 -29 -177t-81 -143t-122 -95.5t-152 -34.5zM339 123q43 0 80.5 23t66 64t45 94t16.5 113q0 50 -15.5 85.5t-44 54.5t-68.5 19q-44 0 -81.5 -23
t-66.5 -63t-45 -93.5t-16 -113.5q0 -50 15.5 -86t44.5 -55t69 -19z" />
    <glyph glyph-name="one" unicode="1" horiz-adv-x="366" 
d="M101 0l93 527l-123 -31l22 123l198 81h89l-123 -700h-156z" />
    <glyph glyph-name="two" unicode="2" horiz-adv-x="582" 
d="M12 0l19 111q79 56 149 109.5t123 103.5t83.5 97.5t30.5 91.5q0 20 -7.5 36.5t-24 26t-42.5 9.5q-31 0 -54.5 -14t-39 -38.5t-21.5 -56.5h-145q17 78 57 130.5t96.5 79t123.5 26.5t114 -23.5t71.5 -64t24.5 -91.5q0 -49 -19.5 -95t-53.5 -89.5t-76.5 -83t-89 -75.5
t-91.5 -68h286l-22 -122h-492z" />
    <glyph glyph-name="three" unicode="3" horiz-adv-x="601" 
d="M254 -12q-78 0 -130 29t-74 81.5t-11 122.5h147q-4 -36 5.5 -59.5t30.5 -36t53 -12.5q34 0 60 14.5t41.5 39.5t15.5 56q0 25 -13 43.5t-36.5 28t-57.5 9.5h-52l21 123h52q55 0 88.5 27t33.5 71q0 29 -19 45t-52 16q-44 0 -72.5 -26.5t-37.5 -63.5h-145q15 68 53.5 116.5
t96 74t126.5 25.5q66 0 110.5 -21t67 -57t22.5 -81q0 -43 -17.5 -80t-48.5 -64.5t-75 -41.5q33 -6 55 -24t34 -46t12 -63q0 -70 -37.5 -125.5t-101.5 -88t-145 -32.5z" />
    <glyph glyph-name="four" unicode="4" horiz-adv-x="660" 
d="M343 0l21 120h-340l20 120l404 460h168l-79 -450h87l-23 -130h-87l-21 -120h-150zM205 250h192l51 285v0z" />
    <glyph glyph-name="five" unicode="5" horiz-adv-x="626" 
d="M277 -12q-71 0 -123 24.5t-78.5 71.5t-21.5 117h147q0 -38 27 -62t69 -24q40 0 70.5 20t48 53t17.5 74q0 29 -11 51t-31 34.5t-48 12.5q-40 0 -72 -20t-47 -48h-145l132 408h398l-23 -131h-287l-52 -137q26 22 63 35.5t81 13.5q49 0 85 -16t59 -43.5t34 -62.5t11 -72
q0 -86 -40.5 -153.5t-108.5 -106.5t-154 -39z" />
    <glyph glyph-name="six" unicode="6" horiz-adv-x="635" 
d="M293 -12q-63 0 -108 20t-73.5 55t-42.5 80t-14 95q0 97 25.5 183t73 151.5t111.5 102.5t140 37q77 0 124 -29.5t67 -76.5t15 -101h-140q0 41 -20.5 63t-61.5 22q-37 0 -70 -22t-58.5 -66.5t-40.5 -111.5q0 -2 -0.5 -4t-1.5 -5q20 22 46 38.5t57 25.5t67 9
q53 0 96.5 -25.5t69 -69.5t25.5 -101t-22.5 -106t-61.5 -86t-90.5 -57.5t-111.5 -20.5zM305 116q38 0 66.5 15.5t45 43t16.5 61.5q0 26 -11.5 47t-33.5 33t-51 12q-37 0 -66.5 -16t-46.5 -43.5t-17 -61.5q0 -26 12.5 -46.5t34.5 -32.5t51 -12z" />
    <glyph glyph-name="seven" unicode="7" horiz-adv-x="535" 
d="M49 0l358 572h-322l23 128h479l-17 -105l-363 -595h-158z" />
    <glyph glyph-name="eight" unicode="8" horiz-adv-x="634" 
d="M275 -12q-67 0 -119 21t-81 62.5t-29 101.5q0 45 18.5 85t52.5 71t81 49q-37 19 -58 50t-21 71q0 63 37.5 110.5t101.5 75t143 27.5q70 0 115.5 -20.5t69 -57t23.5 -84.5q0 -44 -20 -78.5t-49 -57.5t-59 -36q45 -20 67.5 -58t22.5 -89q0 -73 -40.5 -128t-108 -85
t-147.5 -30zM294 112q37 0 66.5 15.5t46.5 42t17 59.5q0 38 -26.5 60.5t-71.5 22.5q-35 0 -64.5 -15t-48 -41t-18.5 -59q0 -36 26 -60.5t73 -24.5zM349 420q29 0 54 12.5t40 35.5t15 52q0 23 -10.5 39t-29 24t-42.5 8q-30 0 -55 -12t-40.5 -34.5t-15.5 -50.5q0 -34 24 -54
t60 -20z" />
    <glyph glyph-name="nine" unicode="9" horiz-adv-x="635" 
d="M266 -12q-76 0 -123 29.5t-67 77t-16 100.5h140q1 -41 21.5 -63t60.5 -22q28 0 52 11.5t43 31t33.5 46t25 57.5t17.5 63q-20 -22 -45.5 -38.5t-56.5 -25.5t-67 -9q-54 0 -97.5 25.5t-68.5 69.5t-25 101t22 106t61 86t91 57.5t111 20.5q63 0 108 -20t74 -55t42.5 -80
t13.5 -95q0 -97 -25.5 -183t-73 -151.5t-111 -102.5t-140.5 -37zM335 372q36 0 65.5 16t47 43.5t17.5 61.5q0 27 -12.5 47t-34.5 32t-52 12q-37 0 -66 -15.5t-45.5 -42.5t-16.5 -62q0 -26 12 -47t33.5 -33t51.5 -12z" />
    <glyph glyph-name="colon" unicode=":" horiz-adv-x="266" 
d="M101 -7q-39 0 -64.5 24t-25.5 60q0 35 25.5 59.5t64.5 24.5q40 0 65 -24t25 -60q0 -35 -25.5 -59.5t-64.5 -24.5zM162 340q-39 0 -64.5 24t-25.5 60q0 35 25.5 59.5t64.5 24.5q40 0 65 -24t25 -60q0 -35 -25.5 -59.5t-64.5 -24.5z" />
    <glyph glyph-name="semicolon" unicode=";" horiz-adv-x="272" 
d="M158 340q-39 0 -64.5 24t-25.5 60q0 35 25.5 59.5t64.5 24.5q40 0 65 -24t25 -60q0 -35 -25.5 -59.5t-64.5 -24.5zM-35 -114l103 263h142l-149 -263h-96z" />
    <glyph glyph-name="less" unicode="&#x3c;" horiz-adv-x="588" 
d="M554 573l-256 -224l174 -223h-189l-173 223v0l252 224h192z" />
    <glyph glyph-name="equal" unicode="=" horiz-adv-x="588" 
d="M91 338l23 132h438l-24 -132h-437zM51 109l23 132h438l-24 -132h-437z" />
    <glyph glyph-name="greater" unicode="&#x3e;" horiz-adv-x="588" 
d="M70 127l256 224l-174 222h189l173 -223v0l-252 -223h-192z" />
    <glyph glyph-name="question" unicode="?" horiz-adv-x="536" 
d="M128 229l24 167h53q39 0 74 5.5t61.5 19t41.5 37t15 60.5q0 22 -9 37.5t-25.5 24.5t-40.5 9q-29 0 -51.5 -11t-36.5 -31t-19 -47h-141q10 60 45.5 108t93 76t133.5 28q60 0 104.5 -21.5t69.5 -61t25 -93.5q0 -75 -35 -128t-95.5 -81t-138.5 -29l-16 -69h-132zM170 -7
q-40 0 -65 24.5t-25 59.5t25 59.5t65 24.5q39 0 64 -24.5t25 -59.5t-25 -59.5t-64 -24.5z" />
    <glyph glyph-name="at" unicode="@" horiz-adv-x="1048" 
d="M438 -219q-113 0 -198 43.5t-131.5 122.5t-46.5 187q0 113 40 209t112 167.5t170 111t212 39.5q118 0 204 -44.5t132.5 -123t46.5 -182.5q0 -62 -16 -118.5t-47 -101t-76 -70.5t-105 -26q-72 0 -105.5 41t-24.5 109l4 32l20 -61q-24 -57 -75.5 -90t-115.5 -33
q-75 0 -117.5 45t-42.5 122q0 55 17 105t48 89.5t74 62.5t96 23q57 0 89.5 -27t39.5 -78l-21 -16l20 113h122l-47 -259q-5 -36 2 -58.5t39 -22.5q28 0 48 19.5t33 51t19.5 69.5t6.5 74q0 79 -33.5 136t-97 87.5t-152.5 30.5q-87 0 -161 -32t-128.5 -88.5t-85 -132
t-30.5 -162.5q0 -82 33 -141t95 -89.5t149 -30.5q47 0 92 9t82 26l24 -96q-47 -21 -101.5 -31.5t-111.5 -10.5zM486 102q32 0 59 18.5t43.5 49.5t17.5 70q1 27 -7.5 47.5t-26.5 32.5t-45 12t-49 -12t-37.5 -32t-24 -46.5t-8.5 -55.5q0 -37 20 -60.5t58 -23.5z" />
    <glyph glyph-name="A" unicode="A" horiz-adv-x="720" 
d="M-25 0l378 700h174l130 -700h-159l-87 534v0l-278 -534h-158zM106 153l59 114h378l17 -114h-454z" />
    <glyph glyph-name="B" unicode="B" horiz-adv-x="646" 
d="M21 0l124 700h299q64 0 108 -18.5t66.5 -52.5t22.5 -83q0 -52 -26 -94.5t-70.5 -68.5t-101.5 -31l18 12q42 -2 73 -21t48 -50.5t17 -70.5q0 -68 -36 -118t-97 -77t-135 -27h-310zM192 120h135q38 0 65 13.5t42 38.5t15 58t-24 52.5t-68 19.5h-133zM244 411h122
q54 0 85.5 28t31.5 75q0 23 -10 38t-29 23t-48 7l-122 -1z" />
    <glyph glyph-name="C" unicode="C" horiz-adv-x="748" 
d="M343 -12q-92 0 -156 35.5t-97.5 99t-33.5 146.5q0 95 31 175.5t87 140.5t131.5 93.5t162.5 33.5q129 0 201.5 -65t72.5 -183h-166q-1 54 -35 83t-97 29q-50 0 -93 -22t-74.5 -61t-48.5 -91.5t-17 -114.5q0 -52 18.5 -88.5t53.5 -56t85 -19.5q62 0 103.5 26.5t62.5 76.5
h166q-27 -76 -79 -129t-123 -81t-155 -28z" />
    <glyph glyph-name="D" unicode="D" horiz-adv-x="724" 
d="M22 0l123 700h251q106 0 173.5 -35.5t100 -100t32.5 -150.5q0 -92 -31 -167.5t-87.5 -131t-135 -85.5t-175.5 -30h-251zM195 129h92q84 0 141.5 33.5t88 94.5t30.5 144q0 58 -19.5 96t-60 56.5t-101.5 18.5h-93z" />
    <glyph glyph-name="E" unicode="E" horiz-adv-x="563" 
d="M21 0l124 700h447l-22 -119h-296l-30 -168h267l-20 -114h-267l-32 -180h297l-21 -119h-447z" />
    <glyph glyph-name="F" unicode="F" horiz-adv-x="541" 
d="M21 0l124 700h447l-21 -119h-297l-30 -173h229l-21 -114h-229l-52 -294h-150z" />
    <glyph glyph-name="G" unicode="G" horiz-adv-x="785" 
d="M333 -12q-87 0 -148 39t-94 105.5t-33 149.5q0 96 32 175t89 136t134.5 88t168.5 31q126 0 199.5 -60t78.5 -166h-166q-9 42 -42 65t-92 23q-73 0 -129 -35.5t-87 -98t-31 -145.5q0 -54 18.5 -93t54.5 -60t87 -21q58 0 100 20.5t70 56.5t43 81h-164l20 112h314l-69 -391
h-136v81v0q-26 -30 -58 -51t-71 -31.5t-89 -10.5z" />
    <glyph glyph-name="H" unicode="H" horiz-adv-x="719" 
d="M461 0l124 700h150l-124 -700h-150zM21 0l124 700h150l-124 -700h-150zM204 299l21 118h332l-21 -118h-332z" />
    <glyph glyph-name="I" unicode="I" horiz-adv-x="280" 
d="M21 0l124 700h150l-124 -700h-150z" />
    <glyph glyph-name="J" unicode="J" horiz-adv-x="544" 
d="M213 -12q-69 0 -116.5 26.5t-68 78.5t-7.5 126h150q-5 -31 -0.5 -52.5t20.5 -33t42 -11.5q25 0 43 10.5t30 29.5t17 46l86 492h150l-86 -492q-19 -106 -89.5 -163t-170.5 -57z" />
    <glyph glyph-name="K" unicode="K" horiz-adv-x="670" 
d="M22 0l123 700h150l-46 -265l288 265h184l-305 -277l191 -423h-179l-137 311l-76 -71l-43 -240h-150z" />
    <glyph glyph-name="L" unicode="L" horiz-adv-x="565" 
d="M22 0l123 700h150l-103 -584h302l-20 -116h-452z" />
    <glyph glyph-name="M" unicode="M" horiz-adv-x="903" 
d="M22 0l123 700h180l134 -420v0l278 420h180l-123 -700h-150l79 448v0l-237 -348h-120l-115 349v0l-79 -449h-150z" />
    <glyph glyph-name="N" unicode="N" horiz-adv-x="737" 
d="M21 0l124 700h151l224 -465v0l82 465h150l-124 -700h-150l-224 465v0l-82 -465h-151z" />
    <glyph glyph-name="O" unicode="O" horiz-adv-x="808" 
d="M365 -12q-89 0 -158.5 39.5t-109 108.5t-39.5 156q0 88 32.5 164t90 134t134 90t164.5 32q90 0 159 -39.5t108.5 -108t39.5 -156.5q0 -87 -32.5 -163.5t-90.5 -134.5t-134 -90t-164 -32zM382 123q52 0 97 21t79.5 58t53.5 86.5t19 106.5q0 55 -18.5 95.5t-56.5 63
t-94 22.5q-52 0 -97 -20.5t-79.5 -57.5t-53.5 -86t-19 -107q0 -54 20 -95t58 -64t91 -23z" />
    <glyph glyph-name="P" unicode="P" horiz-adv-x="625" 
d="M22 0l123 700h273q75 0 123.5 -26.5t72.5 -69.5t24 -94q0 -77 -38.5 -133.5t-105 -86.5t-153.5 -30h-123l-46 -260h-150zM239 380h113q61 0 96 32t35 86q0 38 -23 59t-73 21h-113z" />
    <glyph glyph-name="Q" unicode="Q" horiz-adv-x="808" 
d="M485 -114l-158 411h161l158 -411h-161zM365 -12q-89 0 -158.5 39.5t-109 108.5t-39.5 156q0 88 32.5 164t90 134t134 90t164.5 32q90 0 159 -39.5t108.5 -108t39.5 -156.5q0 -87 -32.5 -163.5t-90.5 -134.5t-134 -90t-164 -32zM382 123q52 0 97 21t79.5 58t53.5 86.5
t19 106.5q0 55 -18.5 95.5t-56.5 63t-94 22.5q-52 0 -97 -20.5t-79.5 -57.5t-53.5 -86t-19 -107q0 -54 20 -95t58 -64t91 -23z" />
    <glyph glyph-name="R" unicode="R" horiz-adv-x="639" 
d="M22 0l123 700h267q75 0 125 -26t74 -69t24 -93q0 -74 -37.5 -128.5t-104 -84.5t-153.5 -30h-121l-47 -269h-150zM389 0l-87 306h156l95 -306h-164zM239 377h113q58 0 93 32t35 87q0 35 -22.5 57t-71.5 22h-113z" />
    <glyph glyph-name="S" unicode="S" horiz-adv-x="610" 
d="M271 -12q-77 0 -133.5 26t-84.5 76t-17 122h160q-4 -31 6.5 -53t33.5 -33.5t53 -11.5q32 0 56 11t36.5 31.5t12.5 46.5q0 19 -8.5 33t-24 25t-35 19.5t-43 16.5t-46.5 17q-66 23 -102.5 65.5t-36.5 101.5q0 70 36 121.5t99.5 80.5t144.5 29q71 0 121.5 -23.5t76 -69.5
t17.5 -113h-162q5 26 -4.5 44t-29.5 27t-45 9q-28 0 -48.5 -10t-32 -27t-11.5 -40q0 -16 7 -28.5t19 -22t29 -17.5t37 -15.5t42 -15.5q33 -12 62.5 -28.5t52.5 -39.5t36 -52.5t13 -66.5q0 -71 -37 -124t-102.5 -82t-147.5 -29z" />
    <glyph glyph-name="T" unicode="T" horiz-adv-x="608" 
d="M185 0l103 582h-204l21 118h557l-21 -118h-204l-103 -582h-149z" />
    <glyph glyph-name="U" unicode="U" horiz-adv-x="694" 
d="M299 -12q-87 0 -144.5 34.5t-80 98.5t-7.5 152l74 427h150l-75 -427q-8 -45 0.5 -78t35.5 -50.5t74 -17.5q43 0 76.5 16.5t55 49.5t30.5 80l75 427h150l-75 -427q-17 -97 -67 -160t-120.5 -94t-151.5 -31z" />
    <glyph glyph-name="V" unicode="V" horiz-adv-x="715" 
d="M221 0l-129 700h160l89 -547v0l281 547h160l-375 -700h-186z" />
    <glyph glyph-name="W" unicode="W" horiz-adv-x="1029" 
d="M161 0l-57 700h161l19 -530v0l229 530h167l37 -528v0l206 528h162l-309 -700h-181l-39 489v0l-215 -489h-180z" />
    <glyph glyph-name="X" unicode="X" horiz-adv-x="687" 
d="M-13 0l285 356l-165 344h175l107 -227v0l172 227h171l-283 -352l167 -348h-174l-109 231v0l-176 -231h-170z" />
    <glyph glyph-name="Y" unicode="Y" horiz-adv-x="650" 
d="M207 0l43 240l-159 460h171l99 -338l-27 4l216 334h169l-319 -460l-43 -240h-150z" />
    <glyph glyph-name="Z" unicode="Z" horiz-adv-x="581" 
d="M5 0l20 115l392 461h-310l23 124h482l-21 -115l-394 -461h314l-22 -124h-484z" />
    <glyph glyph-name="bracketleft" unicode="[" horiz-adv-x="388" 
d="M-10 -181l174 991h270l-22 -121h-128l-132 -747h129l-22 -123h-269z" />
    <glyph glyph-name="backslash" unicode="\" horiz-adv-x="754" 
d="M669 -119h-144l-410 903h146z" />
    <glyph glyph-name="bracketright" unicode="]" horiz-adv-x="388" 
d="M422 812l-175 -991h-269l21 121h129l131 747h-129l22 123h270z" />
    <glyph glyph-name="asciicircum" unicode="^" horiz-adv-x="688" 
d="M17 165l335 535h145l145 -535h-152l-96 360v0l-225 -360h-152z" />
    <glyph glyph-name="underscore" unicode="_" horiz-adv-x="702" 
d="M3 -183l24 143h597l-24 -143h-597z" />
    <glyph glyph-name="grave" unicode="`" horiz-adv-x="234" 
d="M284 535l-214 105l20 118v0l213 -119z" />
    <glyph glyph-name="a" unicode="a" horiz-adv-x="604" 
d="M193 -12q-57 0 -93 17t-53 46.5t-17 67.5q0 52 30 90.5t85 59.5t130 21h122q6 33 0.5 54.5t-23 32t-49.5 10.5q-34 0 -62.5 -15t-39.5 -46h-145q15 55 53 95.5t94 63.5t122 23q72 0 121.5 -24t71.5 -69.5t10 -109.5l-54 -305h-133l1 71v0q-14 -18 -32 -33.5t-39.5 -26.5
t-46.5 -17t-53 -6zM250 102q23 0 43 8t36.5 21.5t27.5 31.5t17 39v0h-96q-26 0 -45.5 -7.5t-30 -21t-10.5 -31.5q0 -21 16.5 -30.5t41.5 -9.5z" />
    <glyph glyph-name="b" unicode="b" horiz-adv-x="660" 
d="M326 -12q-34 0 -62.5 9t-49.5 26t-34 37v0l-28 -60h-132l127 720h150l-50 -280q28 28 69 48t96 20q60 0 105 -28.5t70.5 -77t25.5 -109.5q0 -62 -22 -117.5t-61 -97.5t-91 -66t-113 -24zM314 119q41 0 73.5 19.5t51.5 53t19 75.5q0 30 -13.5 55t-37.5 40t-58 15
q-41 0 -73.5 -20t-51 -54t-18.5 -77q0 -31 13.5 -55t37.5 -38t57 -14z" />
    <glyph glyph-name="c" unicode="c" horiz-adv-x="618" 
d="M269 -12q-67 0 -117.5 27t-77.5 75t-27 112q0 63 23 118.5t65.5 97.5t99.5 66t125 24q100 0 159 -53t59 -148h-159q-1 34 -23 53.5t-58 19.5q-38 0 -69 -22t-49.5 -59t-18.5 -83q0 -23 6.5 -41.5t18 -31.5t28 -20t37.5 -7q25 0 46 9t37.5 25.5t24.5 38.5h159
q-22 -61 -65 -106t-100 -70t-124 -25z" />
    <glyph glyph-name="d" unicode="d" horiz-adv-x="658" 
d="M243 -12q-60 0 -103.5 29t-67.5 78.5t-24 112.5t21.5 118t59.5 95.5t88.5 63.5t108.5 23q61 0 97.5 -21t54.5 -51l49 284h150l-126 -720h-133l-6 65v0q-18 -21 -42 -38.5t-55.5 -28t-71.5 -10.5zM306 119q41 0 74 21.5t52.5 57t19.5 76.5q0 31 -13 54t-36.5 36t-56.5 13
q-41 0 -73.5 -20t-51 -54t-18.5 -76q0 -30 12 -55t35 -39t56 -14z" />
    <glyph glyph-name="e" unicode="e" horiz-adv-x="615" 
d="M270 -12q-69 0 -119 26t-77 74t-27 112q0 62 22 117.5t64 98.5t99.5 67.5t128.5 24.5q66 0 114.5 -25.5t75 -71t26.5 -104.5q0 -26 -4.5 -51t-10.5 -45h-410l16 88h259q3 28 -8 48t-31 30.5t-46 10.5q-33 0 -62 -14.5t-50 -44t-29 -74.5l-5 -29q-5 -34 4 -60t32 -41
t58 -15q32 0 57 14t40 36h154q-23 -49 -64.5 -88t-94 -61.5t-112.5 -22.5z" />
    <glyph glyph-name="f" unicode="f" horiz-adv-x="373" 
d="M41 0l96 540q12 66 41.5 105.5t74 57t99.5 17.5h57l-23 -127h-34q-30 0 -45 -12t-20 -40l-96 -541h-150zM41 371l22 125h315l-22 -125h-315z" />
    <glyph glyph-name="g" unicode="g" horiz-adv-x="566" 
d="M186 -232q-66 0 -114.5 15.5t-75 46t-26.5 76.5q0 44 25 80.5t70 64.5t106 48l34 -77q-52 -15 -74 -38.5t-22 -47.5q0 -19 12 -32t34 -19t49 -6q43 0 74 16.5t31 51.5q0 20 -15 34t-60 17q-44 3 -81 11t-66 19t-49.5 24t-31.5 27l4 23l129 119l95 -32l-154 -135l59 77
q10 -7 21.5 -12t26.5 -9.5t36.5 -7.5t51.5 -6q59 -5 97 -21.5t56 -44.5t18 -67q0 -58 -33.5 -102t-92.5 -68.5t-134 -24.5zM250 144q-56 0 -95 19.5t-60 53t-21 76.5q0 60 32.5 108.5t86.5 77.5t121 29q56 0 95 -20t59 -53.5t20 -75.5q0 -60 -32 -109t-86 -77.5t-120 -28.5z
M269 255q40 0 66.5 24t26.5 60q0 27 -19 41.5t-49 14.5q-40 0 -67 -24t-27 -60q0 -26 19.5 -41t49.5 -15zM377 394l-5 102h208l-15 -86z" />
    <glyph glyph-name="h" unicode="h" horiz-adv-x="627" 
d="M21 0l126 720h150l-52 -295v0q30 37 75.5 60t101.5 23q62 0 101 -27.5t52.5 -79t-0.5 -126.5l-49 -275h-149l46 261q10 58 -7 89.5t-69 31.5q-32 0 -59.5 -15t-46 -43.5t-25.5 -68.5l-45 -255h-150z" />
    <glyph glyph-name="i" unicode="i" horiz-adv-x="284" 
d="M24 0l87 496h150l-87 -496h-150zM211 552q-41 0 -66 24.5t-25 59.5t25.5 59.5t65.5 24.5t65.5 -24t25.5 -60q0 -35 -25.5 -59.5t-65.5 -24.5z" />
    <glyph glyph-name="j" unicode="j" horiz-adv-x="298" 
d="M-113 -220l23 127h40q31 0 45.5 12.5t19.5 39.5l95 537h150l-95 -536q-11 -66 -41 -105.5t-74.5 -57t-99.5 -17.5h-63zM211 552q-41 0 -66.5 24.5t-25.5 59.5q0 36 25.5 60t66.5 24q40 0 65 -24t25 -60q0 -35 -25 -59.5t-65 -24.5z" />
    <glyph glyph-name="k" unicode="k" horiz-adv-x="610" 
d="M377 0l-177 281l225 215h183l-279 -249l8 67l216 -314h-176zM20 0l128 720h150l-128 -720h-150z" />
    <glyph glyph-name="l" unicode="l" horiz-adv-x="278" 
d="M20 0l128 720h150l-128 -720h-150z" />
    <glyph glyph-name="m" unicode="m" horiz-adv-x="949" 
d="M21 0l87 496h131l1 -66v0q28 36 67.5 57t90.5 21q37 0 67 -10t51 -29t33 -47v0q34 39 80 62.5t99 23.5q67 0 109 -27.5t58.5 -79t2.5 -126.5l-49 -275h-149l46 261q10 58 -9 89.5t-64 31.5q-28 0 -50.5 -13t-39 -38t-25.5 -60l-48 -271h-149l46 261q10 58 -8 89.5
t-65 31.5q-29 0 -53.5 -15t-41 -43.5t-23.5 -68.5l-45 -255h-150z" />
    <glyph glyph-name="n" unicode="n" horiz-adv-x="627" 
d="M21 0l87 496h131l1 -77v0q30 40 75.5 64.5t103.5 24.5q67 0 105 -29t50.5 -81t0.5 -123l-49 -275h-149l46 261q9 58 -7 89.5t-69 31.5q-32 0 -59 -15t-45.5 -42.5t-26.5 -66.5l-45 -258h-150z" />
    <glyph glyph-name="o" unicode="o" horiz-adv-x="620" 
d="M270 -12q-67 0 -116.5 29t-77.5 79.5t-28 114.5q0 63 22.5 117t63.5 94.5t95 63t118 22.5q66 0 116.5 -28t79 -78.5t28.5 -115.5q0 -63 -22.5 -117t-64 -95t-96 -63.5t-118.5 -22.5zM289 118q37 0 65.5 21t45.5 57.5t17 82.5q0 32 -11.5 54t-31 33.5t-44.5 11.5
q-36 0 -65 -21t-46 -57.5t-17 -82.5q0 -31 11.5 -53.5t31.5 -34t44 -11.5z" />
    <glyph glyph-name="p" unicode="p" horiz-adv-x="660" 
d="M-18 -220l126 716h132l6 -65v0q19 23 44 40.5t55.5 27t66.5 9.5q60 0 105 -28.5t70.5 -77t25.5 -109.5q0 -62 -21.5 -117.5t-61 -97.5t-91.5 -66t-113 -24q-34 0 -62.5 9t-49 26t-34.5 37l-48 -280h-150zM314 119q41 0 73.5 19.5t51.5 53t19 75.5q0 30 -13 55t-37.5 40
t-58.5 15q-41 0 -73.5 -20t-51 -54t-18.5 -77q0 -31 13.5 -55t38 -38t56.5 -14z" />
    <glyph glyph-name="q" unicode="q" horiz-adv-x="660" 
d="M363 -220l49 285q-27 -31 -68.5 -54t-100.5 -23q-60 0 -103.5 29t-67.5 78.5t-24 112.5t21.5 118t59.5 95.5t88.5 63.5t108.5 23q41 0 70 -9.5t49.5 -26t32.5 -36.5v0l28 60h132l-125 -716h-150zM306 119q41 0 74 21.5t52.5 57t19.5 76.5q0 31 -13 54t-36.5 36t-56.5 13
q-41 0 -73.5 -20t-51 -54t-18.5 -76q0 -30 12 -55t35 -39t56 -14z" />
    <glyph glyph-name="r" unicode="r" horiz-adv-x="414" 
d="M21 0l87 496h133l-1 -90v0q24 31 54.5 53.5t67.5 35.5t76 13l-28 -159h-41q-31 0 -57.5 -6t-47 -21t-34.5 -40.5t-21 -63.5l-38 -218h-150z" />
    <glyph glyph-name="s" unicode="s" horiz-adv-x="545" 
d="M237 -12q-71 0 -120 24t-74 64.5t-21 89.5h149q0 -21 10 -36t29 -23t45 -8q24 0 40.5 7.5t25.5 19t9 26.5q0 13 -10.5 22t-28 15t-39.5 11q-33 8 -65 19.5t-58 27t-41 38t-15 53.5q0 50 29.5 88t82.5 60t120 22q93 0 146 -43t51 -115h-142q-3 21 -22.5 33.5t-49.5 12.5
t-49 -12.5t-19 -30.5q0 -12 11.5 -20.5t32 -14.5t47.5 -12q37 -10 68.5 -21t54.5 -26.5t36 -37t13 -51.5q0 -55 -32.5 -96.5t-88 -63.5t-125.5 -22z" />
    <glyph glyph-name="t" unicode="t" horiz-adv-x="436" 
d="M252 0q-64 0 -102 20.5t-50 62t-2 101.5l34 187h-82l22 125h82l41 139h134l-25 -139h128l-22 -125h-128l-34 -188q-5 -32 9 -44t41 -12h70l-23 -127h-93z" />
    <glyph glyph-name="u" unicode="u" horiz-adv-x="627" 
d="M208 -12q-66 0 -104.5 29t-50.5 81.5t-1 122.5l49 275h149l-46 -261q-9 -57 7 -89t69 -32q32 0 59 15t46 43t26 66l45 258h150l-87 -496h-131l-1 77v0q-30 -40 -75 -64.5t-104 -24.5z" />
    <glyph glyph-name="v" unicode="v" horiz-adv-x="573" 
d="M150 0l-93 496h157l53 -355v0l179 355h158l-269 -496h-185z" />
    <glyph glyph-name="w" unicode="w" horiz-adv-x="827" 
d="M116 0l-59 496h148l23 -415l-37 1l184 414h165l39 -414l-37 -1l168 415h147l-232 -496h-156l-45 425h42l-194 -425h-156z" />
    <glyph glyph-name="x" unicode="x" horiz-adv-x="593" 
d="M-27 0l230 249l-142 247h161l90 -162v0l147 162h161l-229 -249l141 -247h-160l-90 162v0l-147 -162h-162z" />
    <glyph glyph-name="y" unicode="y" horiz-adv-x="618" 
d="M47 -220l154 246h-30l-109 470h163l69 -330v0l188 330h161l-436 -716h-160z" />
    <glyph glyph-name="z" unicode="z" horiz-adv-x="496" 
d="M-13 0l22 120l295 252h-239l22 124h411l-22 -120l-299 -252h252l-23 -124h-419z" />
    <glyph glyph-name="braceleft" unicode="{" horiz-adv-x="482" 
d="M271 -184q-70 0 -112.5 34.5t-42.5 99.5q0 42 15 83.5t29.5 80.5t14.5 73q0 18 -8.5 32t-27 23.5t-48.5 11.5l21 120q42 4 68 18.5t38 47.5t12 89v13.5t-0.5 12.5t-0.5 12q0 89 30 142t80 77.5t108 24.5h67l-22 -124h-38q-22 0 -38.5 -6.5t-26.5 -22.5t-14 -45
q-3 -21 -3 -43t-1 -47t-6 -55q-4 -41 -20.5 -73.5t-45 -52t-67.5 -27.5v-2q47 -10 67 -38t20 -66q0 -41 -13 -78.5t-26.5 -72.5t-13.5 -66q0 -30 15 -41t41 -11h39l-22 -124h-68z" />
    <glyph glyph-name="bar" unicode="|" horiz-adv-x="281" 
d="M4 -100l145 820h150l-145 -820h-150z" />
    <glyph glyph-name="braceright" unicode="}" horiz-adv-x="481" 
d="M234 811q70 0 112 -34t42 -100q0 -42 -14.5 -83.5t-29 -80t-14.5 -73.5q0 -17 8.5 -31.5t27 -23.5t48.5 -12l-21 -120q-42 -3 -68 -18t-38 -47.5t-12 -89.5q0 -7 0.5 -13.5t0.5 -12.5v-12q0 -88 -30 -141.5t-80 -78t-108 -24.5h-68l22 124h39q21 0 38 6.5t27.5 22.5
t12.5 45q4 21 4 43t1 47.5t6 54.5q4 42 20.5 74t45 52t67.5 27v2q-46 10 -66.5 38.5t-20.5 65.5q0 42 13.5 79.5t26.5 72t13 66.5q0 30 -15 40.5t-41 10.5h-39l22 124h68z" />
    <glyph glyph-name="asciitilde" unicode="~" horiz-adv-x="588" 
d="M377 218q-32 0 -55.5 10t-42 23t-37 23t-40.5 10q-25 0 -45 -16.5t-31 -49.5h-111q25 70 58.5 114t74.5 64.5t87 20.5q32 0 55.5 -10t42.5 -23t37 -23t40 -10q26 0 45.5 16.5t29.5 49.5h112q-23 -70 -57 -114t-75 -64.5t-88 -20.5z" />
    <glyph glyph-name="uni00A0" unicode="&#xa0;" horiz-adv-x="244" 
 />
    <glyph glyph-name="exclamdown" unicode="&#xa1;" horiz-adv-x="322" 
d="M233 267l-66 -465h-161l100 465h127zM189 509q40 0 65 -24.5t25 -59.5q0 -36 -25 -60.5t-65 -24.5q-39 0 -64 24.5t-25 60.5q0 35 25 59.5t64 24.5z" />
    <glyph glyph-name="cent" unicode="&#xa2;" horiz-adv-x="618" 
d="M182 -89l31 180h137l-32 -180h-136zM271 418l31 180h137l-32 -180h-136zM269 -12q-67 0 -117.5 27t-77.5 75t-27 112q0 63 23 118.5t65.5 97.5t99.5 66t125 24q100 0 159 -53t59 -148h-159q-1 34 -23 53.5t-58 19.5q-38 0 -69 -22t-49.5 -59t-18.5 -83q0 -23 6.5 -41.5
t18 -31.5t28 -20t37.5 -7q25 0 46 9t37.5 25.5t24.5 38.5h159q-22 -61 -65 -106t-100 -70t-124 -25z" />
    <glyph glyph-name="sterling" unicode="&#xa3;" horiz-adv-x="633" 
d="M31 0l14 81q37 31 62 66t38 74t13 80q0 19 -2.5 37t-5.5 36t-5.5 36.5t-2.5 38.5q0 77 34.5 136.5t95 93t139.5 33.5q54 0 95.5 -15t69.5 -44t40 -70t4 -93h-137q5 29 -4.5 51t-30 35t-50.5 13q-39 0 -65 -17.5t-38 -46t-12 -60.5q0 -19 2.5 -37.5t6 -37.5t6.5 -39t3 -41
q0 -57 -27 -107.5t-73 -84.5h351l-20 -118h-501zM46 293l18 101h412l-17 -101h-413z" />
    <glyph glyph-name="currency" unicode="&#xa4;" horiz-adv-x="567" 
d="M261 117q-51 0 -90 19.5t-60 54t-21 79.5q0 61 31 107.5t84.5 73t119.5 26.5q51 0 90 -19t60.5 -52.5t21.5 -78.5q0 -60 -31.5 -108t-84.5 -75t-120 -27zM90 75l-48 60l111 95l64 -47zM416 75l-77 95l72 56l74 -91zM277 209q28 0 49.5 14.5t34.5 39.5t13 56q0 23 -9 38
t-24 22t-33 7q-27 0 -48.5 -14.5t-34.5 -39.5t-13 -57q0 -23 8.5 -37.5t23.5 -21.5t33 -7zM175 371l-76 91l70 60l83 -100zM423 361l-47 61l118 100l49 -60z" />
    <glyph glyph-name="yen" unicode="&#xa5;" horiz-adv-x="663" 
d="M30 142l18 101h550l-18 -101h-550zM290 311l-230 1l18 102h227zM415 311l20 103h193l-18 -102zM213 0l43 240l-159 460h171l100 -338l-28 4l216 334h169l-319 -460l-43 -240h-150z" />
    <glyph glyph-name="brokenbar" unicode="&#xa6;" horiz-adv-x="281" 
d="M91 397l58 323h150l-58 -323h-150zM4 -100l57 323h150l-57 -323h-150z" />
    <glyph glyph-name="section" unicode="&#xa7;" horiz-adv-x="626" 
d="M234 -232q-71 0 -124.5 24.5t-79.5 71t-18 110.5h162q-3 -22 5 -40t25.5 -28.5t43.5 -11.5q29 0 50.5 10t33.5 29t12 42q0 18 -10.5 30.5t-28.5 21.5t-42.5 17t-53.5 18q-44 16 -81 40.5t-60 60t-23 82.5q0 49 22.5 91t61.5 76q-7 13 -10.5 28t-3.5 32q0 69 35 123
t96 85.5t142 31.5q72 0 124.5 -24.5t79.5 -71t18 -110.5h-162q3 22 -5 40t-25.5 29t-43.5 11q-27 1 -49 -9.5t-34.5 -29t-12.5 -42.5q0 -18 10.5 -31t29 -21.5t43.5 -16.5t52 -18q45 -16 82 -40.5t59 -59.5t22 -83q0 -49 -22 -91t-61 -76q8 -14 11 -31.5t2 -34.5
q-2 -67 -36.5 -120t-95 -83.5t-140.5 -30.5zM386 149q12 12 19 27.5t7 33.5t-9 31.5t-26 26t-41 23t-53 21.5q-11 4 -24 9.5t-22 9.5q-12 -11 -19.5 -27.5t-7.5 -33.5q0 -13 5 -24.5t16 -21.5t26.5 -19t35.5 -18t45 -19q15 -5 26.5 -10t21.5 -9z" />
    <glyph glyph-name="dieresis" unicode="&#xa8;" horiz-adv-x="329" 
d="M136 561q-29 0 -48 19.5t-19 48.5t19 48.5t48 19.5t48.5 -19.5t19.5 -48.5t-19.5 -48.5t-48.5 -19.5zM327 561q-29 0 -48.5 19.5t-19.5 48.5t19.5 48.5t48.5 19.5t48.5 -19.5t19.5 -48.5t-19.5 -48.5t-48.5 -19.5z" />
    <glyph glyph-name="copyright" unicode="&#xa9;" horiz-adv-x="789" 
d="M350 -6q-91 0 -157 38t-102 104.5t-36 151.5q0 88 32 165t89.5 134.5t134 90t165.5 32.5q92 0 158 -38t101.5 -104t35.5 -151q0 -88 -32 -165t-89 -135t-133.5 -90.5t-166.5 -32.5zM374 126q-55 0 -97 23t-65 64t-23 97q0 57 19.5 106t56 85.5t84.5 57t105 20.5
q78 0 127.5 -42.5t51.5 -118.5h-130q-3 27 -21 43t-50 16q-39 0 -66 -24t-40.5 -61t-13.5 -76q0 -43 21 -65.5t55 -22.5q33 0 56 16t37 43h129q-19 -49 -55 -85t-82.5 -56t-98.5 -20zM359 44q80 0 145.5 28.5t112.5 79t72.5 117.5t25.5 145q0 73 -28.5 128.5t-84 86.5
t-134.5 31q-80 0 -145.5 -28t-112.5 -77.5t-72.5 -116.5t-25.5 -146q0 -71 29 -127.5t84 -88.5t134 -32z" />
    <glyph glyph-name="ordfeminine" unicode="&#xaa;" horiz-adv-x="509" 
d="M235 349q-40 0 -71.5 17.5t-49.5 49t-18 74.5q0 59 26.5 109t72 81t103.5 31q45 0 72.5 -17.5t38.5 -48.5l20 61h104l-61 -352h-105l2 61v0q-22 -30 -55.5 -48t-78.5 -18zM287 439q26 0 50 13.5t39 39t15 58.5q0 35 -21 53t-51 18q-26 0 -50 -13.5t-39 -38.5t-15 -59
q0 -35 21 -53t51 -18z" />
    <glyph glyph-name="guillemotleft" unicode="&#xab;" horiz-adv-x="532" 
d="M319 120l-56 175l118 175h140l-121 -175l59 -175h-140zM105 120l-56 175l118 175h140l-121 -175l59 -175h-140z" />
    <glyph glyph-name="logicalnot" unicode="&#xac;" horiz-adv-x="588" 
d="M436 190l24 135h-454l20 115h604l-44 -250h-150z" />
    <glyph glyph-name="registered" unicode="&#xae;" horiz-adv-x="512" 
d="M263 287q-62 0 -105.5 27.5t-62.5 75t-8 109.5q10 63 46 110.5t89.5 75t115.5 27.5q63 0 106 -27.5t62 -75t7 -110.5q-11 -62 -46.5 -109.5t-88 -75t-115.5 -27.5zM310 395l-37 96h72l42 -95zM271 338q49 0 87.5 20t65 57t34.5 84q13 72 -22.5 117t-106.5 45
q-48 0 -87.5 -20.5t-65 -57t-34.5 -84.5q-12 -71 23 -116t106 -45zM193 395l38 213h107q35 0 52.5 -18t12.5 -50q-5 -31 -29.5 -49.5t-58.5 -18.5h-41l-13 -77h-68zM282 520h28q9 0 14.5 3.5t7.5 12.5q1 7 -3 11t-13 4h-29z" />
    <glyph glyph-name="macron" unicode="&#xaf;" horiz-adv-x="388" 
d="M57 572l19 105h387l-18 -105h-388z" />
    <glyph glyph-name="degree" unicode="&#xb0;" horiz-adv-x="374" 
d="M242 417q-39 0 -72.5 18t-54 51t-20.5 77q0 46 21 79.5t54.5 51.5t73.5 18q39 0 72.5 -18t53.5 -51.5t20 -79.5q0 -44 -20.5 -77t-54 -51t-73.5 -18zM242 508q19 0 36 14t17 43q0 28 -16.5 41.5t-35.5 13.5t-35.5 -13.5t-16.5 -41.5t16 -42.5t35 -14.5z" />
    <glyph glyph-name="plusminus" unicode="&#xb1;" horiz-adv-x="588" 
d="M15 89l23 130h502l-23 -130h-502zM233 258l65 366h126l-66 -366h-125zM66 379l22 124h502l-23 -124h-501z" />
    <glyph glyph-name="uni00B2" unicode="&#xb2;" horiz-adv-x="370" 
d="M56 352l15 84l134 79q31 18 49.5 38t23.5 42q2 17 -5 26.5t-21 9.5q-16 0 -27.5 -11t-16.5 -31h-114q13 54 61 89t122 35q48 0 76.5 -16t40 -41t6.5 -53q-7 -38 -39 -66t-97 -59l-72 -37h176l-16 -89h-296z" />
    <glyph glyph-name="uni00B3" unicode="&#xb3;" horiz-adv-x="363" 
d="M199 348q-81 0 -115 32t-28 86h116q-1 -13 3 -21.5t12.5 -12t19.5 -3.5q18 0 30.5 9.5t15.5 27.5q3 20 -7.5 30t-32.5 10h-36l9 52h32q21 0 35 9.5t17 28.5q3 17 -5.5 26t-25.5 9q-19 0 -30 -8.5t-17 -25.5h-108q10 46 55 81t125 35q67 0 102.5 -29.5t27.5 -74.5
q-5 -31 -27 -50.5t-54 -26.5l-1 -3q33 -9 48.5 -29t10.5 -52q-8 -45 -55 -72.5t-117 -27.5z" />
    <glyph glyph-name="acute" unicode="&#xb4;" horiz-adv-x="235" 
d="M50 535l19 104l255 119v0l-21 -118z" />
    <glyph glyph-name="uni00B5" unicode="&#xb5;" horiz-adv-x="636" 
d="M-19 -220l127 716h150l-46 -261q-8 -57 7.5 -89t69.5 -32q31 0 58 15t46 42.5t26 66.5l46 258h150l-87 -496h-131l-2 77v0q-30 -40 -75 -64.5t-103 -24.5q-13 0 -25.5 2.5t-22.5 7.5l-38 -218h-150z" />
    <glyph glyph-name="paragraph" unicode="&#xb6;" horiz-adv-x="671" 
d="M229 -100l66 377h-20q-72 0 -117.5 27.5t-66 70t-20.5 88.5q0 75 35.5 127.5t99 81t144.5 28.5h336l-141 -800h-125l121 685h-67l-120 -685h-125z" />
    <glyph glyph-name="periodcentered" unicode="&#xb7;" horiz-adv-x="267" 
d="M146 237q-41 0 -66.5 24.5t-25.5 59.5q0 36 25.5 60.5t66.5 24.5q40 0 65 -24.5t25 -60.5q0 -35 -25 -59.5t-65 -24.5z" />
    <glyph glyph-name="cedilla" unicode="&#xb8;" horiz-adv-x="278" 
d="M-91 -265l16 84h120q25 0 39.5 8t14.5 26q0 16 -10 21.5t-30 5.5h-68l23 127h92l-10 -50q29 0 54.5 -9t41.5 -29t16 -54q0 -40 -21.5 -69.5t-56.5 -45t-77 -15.5h-144z" />
    <glyph glyph-name="uni00B9" unicode="&#xb9;" horiz-adv-x="247" 
d="M111 352l43 246l-73 -15l12 70l131 51h63l-62 -352h-114z" />
    <glyph glyph-name="ordmasculine" unicode="&#xba;" horiz-adv-x="496" 
d="M267 350q-53 0 -91 18t-58.5 51.5t-20.5 77.5q0 62 31 110.5t84 76.5t116 28q54 0 92 -18.5t59 -51t21 -76.5q0 -62 -31.5 -111t-84.5 -77t-117 -28zM282 437q31 0 53.5 17t35 43.5t12.5 55.5q0 25 -9.5 41t-25 24t-34.5 8q-32 0 -54.5 -17.5t-34.5 -44.5t-12 -56
q0 -23 9 -39t24.5 -24t35.5 -8z" />
    <glyph glyph-name="guillemotright" unicode="&#xbb;" horiz-adv-x="532" 
d="M229 470l56 -175l-118 -175h-140l121 175l-59 175h140zM443 470l56 -175l-118 -175h-140l121 175l-60 175h141z" />
    <glyph glyph-name="onequarter" unicode="&#xbc;" horiz-adv-x="894" 
d="M111 352l43 246l-73 -15l12 70l131 51h63l-62 -352h-114zM110 0l513 700h145l-513 -700h-145zM682 0l11 59h-163l13 74l189 215h121l-36 -214h34l-14 -75h-34l-11 -59h-110zM650 134h65l15 93v0z" />
    <glyph glyph-name="onehalf" unicode="&#xbd;" horiz-adv-x="945" 
d="M111 352l43 246l-73 -15l12 70l131 51h63l-62 -352h-114zM110 0l513 700h145l-513 -700h-145zM569 0l15 84l134 79q31 18 49.5 38t23.5 42q2 17 -5 26.5t-21 9.5q-16 0 -27.5 -11t-16.5 -31h-114q13 54 61 89t122 35q48 0 76.5 -16t40 -41t6.5 -53q-7 -38 -39 -66
t-97 -59l-72 -37h176l-16 -89h-296z" />
    <glyph glyph-name="threequarters" unicode="&#xbe;" horiz-adv-x="973" 
d="M199 348q-81 0 -115 32t-28 86h116q-1 -13 3 -21.5t12.5 -12t19.5 -3.5q18 0 30.5 9.5t15.5 27.5q3 20 -7.5 30t-32.5 10h-36l9 52h32q21 0 35 9.5t17 28.5q3 17 -5.5 26t-25.5 9q-19 0 -30 -8.5t-17 -25.5h-108q10 46 55 81t125 35q67 0 102.5 -29.5t27.5 -74.5
q-5 -31 -27 -50.5t-54 -26.5l-1 -3q33 -9 48.5 -29t10.5 -52q-8 -45 -55 -72.5t-117 -27.5zM188 0l513 700h145l-513 -700h-145zM761 0l11 59h-163l13 74l189 215h121l-36 -214h34l-14 -75h-34l-11 -59h-110zM729 134h65l15 93v0z" />
    <glyph glyph-name="questiondown" unicode="&#xbf;" horiz-adv-x="535" 
d="M408 272l-24 -168h-53q-39 0 -74 -5.5t-61.5 -18.5t-41.5 -36.5t-15 -60.5q0 -22 9 -38t26 -24.5t40 -8.5q30 0 52 11t36 31t19 47h141q-9 -60 -45 -108t-93.5 -76t-133.5 -28q-60 0 -105 21.5t-69.5 60.5t-24.5 94q0 75 35 128t96 81t138 28l16 70h132zM366 508
q40 0 65 -24.5t25 -59.5q0 -36 -25 -60.5t-65 -24.5q-39 0 -64 24.5t-25 60.5q0 35 25 59.5t64 24.5z" />
    <glyph glyph-name="Agrave" unicode="&#xc0;" horiz-adv-x="720" 
d="M-25 0l378 700h174l130 -700h-159l-87 534v0l-278 -534h-158zM106 153l59 114h378l17 -114h-454zM564 753l-214 105l20 118v0l213 -119z" />
    <glyph glyph-name="Aacute" unicode="&#xc1;" horiz-adv-x="720" 
d="M-25 0l378 700h174l130 -700h-159l-87 534v0l-278 -534h-158zM106 153l59 114h378l17 -114h-454zM330 753l19 104l255 119v0l-21 -118z" />
    <glyph glyph-name="Acircumflex" unicode="&#xc2;" horiz-adv-x="720" 
d="M-25 0l378 700h174l130 -700h-159l-87 534v0l-278 -534h-158zM106 153l59 114h378l17 -114h-454zM297 760l19 106l165 83l136 -83l-19 -106l-135 87z" />
    <glyph glyph-name="Atilde" unicode="&#xc3;" horiz-adv-x="720" 
d="M-25 0l378 700h174l130 -700h-159l-87 534v0l-278 -534h-158zM106 153l59 114h378l17 -114h-454zM263 770q24 72 63.5 104t88.5 32q29 0 48 -11.5t35 -22.5t36 -11q17 0 30.5 11t20.5 34h79q-24 -72 -63.5 -104.5t-88.5 -32.5q-30 0 -49 11.5t-34.5 23t-35.5 11.5
q-17 0 -30.5 -11t-21.5 -34h-78z" />
    <glyph glyph-name="Adieresis" unicode="&#xc4;" horiz-adv-x="720" 
d="M-25 0l378 700h174l130 -700h-159l-87 534v0l-278 -534h-158zM106 153l59 114h378l17 -114h-454zM368 766q-29 0 -48 19.5t-19 48.5t19 48.5t48 19.5t48.5 -19.5t19.5 -48.5t-19.5 -48.5t-48.5 -19.5zM559 766q-29 0 -48.5 19.5t-19.5 48.5t19.5 48.5t48.5 19.5
t48.5 -19.5t19.5 -48.5t-19.5 -48.5t-48.5 -19.5z" />
    <glyph glyph-name="Aring" unicode="&#xc5;" horiz-adv-x="720" 
d="M-25 0l378 700h174l130 -700h-159l-87 534v0l-278 -534h-158zM106 153l59 114h378l17 -114h-454zM472 770q-48 0 -83 31t-35 85q0 55 35 86t83 31q49 0 84 -31t35 -86q0 -54 -35 -85t-84 -31zM472 835q21 0 35.5 14t14.5 38t-14.5 37.5t-35.5 13.5q-20 0 -35 -13.5
t-15 -37.5t15 -38t35 -14z" />
    <glyph glyph-name="AE" unicode="&#xc6;" horiz-adv-x="953" 
d="M-25 0l494 700h512l-21 -119h-262l-30 -167h232l-19 -114h-232l-32 -181h261l-21 -119h-412l104 587v0l-410 -587h-164zM142 128l85 115h333l-21 -115h-397z" />
    <glyph glyph-name="Ccedilla" unicode="&#xc7;" horiz-adv-x="748" 
d="M343 -12q-92 0 -156 35.5t-97.5 99t-33.5 146.5q0 95 31 175.5t87 140.5t131.5 93.5t162.5 33.5q129 0 201.5 -65t72.5 -183h-166q-1 54 -35 83t-97 29q-50 0 -93 -22t-74.5 -61t-48.5 -91.5t-17 -114.5q0 -52 18.5 -88.5t53.5 -56t85 -19.5q62 0 103.5 26.5t62.5 76.5
h166q-27 -76 -79 -129t-123 -81t-155 -28zM193 -265l16 84h120q25 0 39.5 8t14.5 26q0 16 -10 21.5t-30 5.5h-68l23 127h92l-10 -50q29 0 54.5 -9t41.5 -29t16 -54q0 -40 -21.5 -69.5t-56.5 -45t-77 -15.5h-144z" />
    <glyph glyph-name="Egrave" unicode="&#xc8;" horiz-adv-x="563" 
d="M21 0l124 700h447l-22 -119h-296l-30 -168h267l-20 -114h-267l-32 -180h297l-21 -119h-447zM489 753l-214 105l20 118v0l213 -119z" />
    <glyph glyph-name="Eacute" unicode="&#xc9;" horiz-adv-x="563" 
d="M21 0l124 700h447l-22 -119h-296l-30 -168h267l-20 -114h-267l-32 -180h297l-21 -119h-447zM255 753l19 104l255 119v0l-21 -118z" />
    <glyph glyph-name="Ecircumflex" unicode="&#xca;" horiz-adv-x="563" 
d="M21 0l124 700h447l-22 -119h-296l-30 -168h267l-20 -114h-267l-32 -180h297l-21 -119h-447zM221 760l19 106l165 83l136 -83l-19 -106l-135 87z" />
    <glyph glyph-name="Edieresis" unicode="&#xcb;" horiz-adv-x="563" 
d="M21 0l124 700h447l-22 -119h-296l-30 -168h267l-20 -114h-267l-32 -180h297l-21 -119h-447zM293 766q-29 0 -48 19.5t-19 48.5t19 48.5t48 19.5t48.5 -19.5t19.5 -48.5t-19.5 -48.5t-48.5 -19.5zM484 766q-29 0 -48.5 19.5t-19.5 48.5t19.5 48.5t48.5 19.5t48.5 -19.5
t19.5 -48.5t-19.5 -48.5t-48.5 -19.5z" />
    <glyph glyph-name="Igrave" unicode="&#xcc;" horiz-adv-x="280" 
d="M21 0l124 700h150l-124 -700h-150zM344 753l-214 105l20 118v0l213 -119z" />
    <glyph glyph-name="Iacute" unicode="&#xcd;" horiz-adv-x="280" 
d="M21 0l124 700h150l-124 -700h-150zM110 753l19 104l255 119v0l-21 -118z" />
    <glyph glyph-name="Icircumflex" unicode="&#xce;" horiz-adv-x="280" 
d="M21 0l124 700h150l-124 -700h-150zM77 760l19 106l165 83l136 -83l-19 -106l-135 87z" />
    <glyph glyph-name="Idieresis" unicode="&#xcf;" horiz-adv-x="280" 
d="M21 0l124 700h150l-124 -700h-150zM149 766q-29 0 -48 19.5t-19 48.5t19 48.5t48 19.5t48.5 -19.5t19.5 -48.5t-19.5 -48.5t-48.5 -19.5zM340 766q-29 0 -48.5 19.5t-19.5 48.5t19.5 48.5t48.5 19.5t48.5 -19.5t19.5 -48.5t-19.5 -48.5t-48.5 -19.5z" />
    <glyph glyph-name="Eth" unicode="&#xd0;" horiz-adv-x="733" 
d="M12 287l23 127h383l-22 -127h-384zM31 0l123 700h251q105 0 172.5 -35.5t100.5 -100t33 -150.5q0 -92 -31 -167.5t-87.5 -131t-135 -85.5t-175.5 -30h-251zM203 129h93q84 0 141.5 33.5t88 94.5t30.5 144q0 58 -20 96t-60.5 56.5t-101.5 18.5h-92z" />
    <glyph glyph-name="Ntilde" unicode="&#xd1;" horiz-adv-x="737" 
d="M21 0l124 700h151l224 -465v0l82 465h150l-124 -700h-150l-224 465v0l-82 -465h-151zM272 770q24 72 63.5 104t88.5 32q29 0 48 -11.5t35 -22.5t36 -11q17 0 30.5 11t20.5 34h79q-24 -72 -63.5 -104.5t-88.5 -32.5q-30 0 -49 11.5t-34.5 23t-35.5 11.5q-17 0 -30.5 -11
t-21.5 -34h-78z" />
    <glyph glyph-name="Ograve" unicode="&#xd2;" horiz-adv-x="808" 
d="M365 -12q-89 0 -158.5 39.5t-109 108.5t-39.5 156q0 88 32.5 164t90 134t134 90t164.5 32q90 0 159 -39.5t108.5 -108t39.5 -156.5q0 -87 -32.5 -163.5t-90.5 -134.5t-134 -90t-164 -32zM382 123q52 0 97 21t79.5 58t53.5 86.5t19 106.5q0 55 -18.5 95.5t-56.5 63
t-94 22.5q-52 0 -97 -20.5t-79.5 -57.5t-53.5 -86t-19 -107q0 -54 20 -95t58 -64t91 -23zM608 753l-214 105l20 118v0l213 -119z" />
    <glyph glyph-name="Oacute" unicode="&#xd3;" horiz-adv-x="808" 
d="M365 -12q-89 0 -158.5 39.5t-109 108.5t-39.5 156q0 88 32.5 164t90 134t134 90t164.5 32q90 0 159 -39.5t108.5 -108t39.5 -156.5q0 -87 -32.5 -163.5t-90.5 -134.5t-134 -90t-164 -32zM382 123q52 0 97 21t79.5 58t53.5 86.5t19 106.5q0 55 -18.5 95.5t-56.5 63
t-94 22.5q-52 0 -97 -20.5t-79.5 -57.5t-53.5 -86t-19 -107q0 -54 20 -95t58 -64t91 -23zM374 753l19 104l255 119v0l-21 -118z" />
    <glyph glyph-name="Ocircumflex" unicode="&#xd4;" horiz-adv-x="808" 
d="M365 -12q-89 0 -158.5 39.5t-109 108.5t-39.5 156q0 88 32.5 164t90 134t134 90t164.5 32q90 0 159 -39.5t108.5 -108t39.5 -156.5q0 -87 -32.5 -163.5t-90.5 -134.5t-134 -90t-164 -32zM382 123q52 0 97 21t79.5 58t53.5 86.5t19 106.5q0 55 -18.5 95.5t-56.5 63
t-94 22.5q-52 0 -97 -20.5t-79.5 -57.5t-53.5 -86t-19 -107q0 -54 20 -95t58 -64t91 -23zM341 760l19 106l165 83l136 -83l-19 -106l-135 87z" />
    <glyph glyph-name="Otilde" unicode="&#xd5;" horiz-adv-x="808" 
d="M365 -12q-89 0 -158.5 39.5t-109 108.5t-39.5 156q0 88 32.5 164t90 134t134 90t164.5 32q90 0 159 -39.5t108.5 -108t39.5 -156.5q0 -87 -32.5 -163.5t-90.5 -134.5t-134 -90t-164 -32zM382 123q52 0 97 21t79.5 58t53.5 86.5t19 106.5q0 55 -18.5 95.5t-56.5 63
t-94 22.5q-52 0 -97 -20.5t-79.5 -57.5t-53.5 -86t-19 -107q0 -54 20 -95t58 -64t91 -23zM308 770q24 72 63.5 104t88.5 32q29 0 48 -11.5t35 -22.5t36 -11q17 0 30.5 11t20.5 34h79q-24 -72 -63.5 -104.5t-88.5 -32.5q-30 0 -49 11.5t-34.5 23t-35.5 11.5q-17 0 -30.5 -11
t-21.5 -34h-78z" />
    <glyph glyph-name="Odieresis" unicode="&#xd6;" horiz-adv-x="808" 
d="M365 -12q-89 0 -158.5 39.5t-109 108.5t-39.5 156q0 88 32.5 164t90 134t134 90t164.5 32q90 0 159 -39.5t108.5 -108t39.5 -156.5q0 -87 -32.5 -163.5t-90.5 -134.5t-134 -90t-164 -32zM382 123q52 0 97 21t79.5 58t53.5 86.5t19 106.5q0 55 -18.5 95.5t-56.5 63
t-94 22.5q-52 0 -97 -20.5t-79.5 -57.5t-53.5 -86t-19 -107q0 -54 20 -95t58 -64t91 -23zM413 766q-29 0 -48 19.5t-19 48.5t19 48.5t48 19.5t48.5 -19.5t19.5 -48.5t-19.5 -48.5t-48.5 -19.5zM604 766q-29 0 -48.5 19.5t-19.5 48.5t19.5 48.5t48.5 19.5t48.5 -19.5
t19.5 -48.5t-19.5 -48.5t-48.5 -19.5z" />
    <glyph glyph-name="multiply" unicode="&#xd7;" horiz-adv-x="588" 
d="M144 81l-72 88l141 120l-98 120l104 87l98 -119l142 121l72 -88l-142 -121l98 -119l-103 -88l-98 120z" />
    <glyph glyph-name="Oslash" unicode="&#xd8;" horiz-adv-x="786" 
d="M-18 0l717 700h138l-716 -700h-139zM360 -12q-90 0 -159 39.5t-108.5 108.5t-39.5 156q0 88 32 164t90 134t134.5 90t164.5 32q90 0 159 -39.5t108 -108t39 -156.5q0 -87 -32.5 -163.5t-90 -134.5t-133.5 -90t-164 -32zM377 123q52 0 96.5 21t79 58t54 86.5t19.5 106.5
q0 55 -19 95.5t-56.5 63t-93.5 22.5q-52 0 -97 -20.5t-79.5 -57.5t-53.5 -86t-19 -107q0 -54 20 -95t58 -64t91 -23z" />
    <glyph glyph-name="Ugrave" unicode="&#xd9;" horiz-adv-x="694" 
d="M299 -12q-87 0 -144.5 34.5t-80 98.5t-7.5 152l74 427h150l-75 -427q-8 -45 0.5 -78t35.5 -50.5t74 -17.5q43 0 76.5 16.5t55 49.5t30.5 80l75 427h150l-75 -427q-17 -97 -67 -160t-120.5 -94t-151.5 -31zM558 753l-214 105l20 118v0l213 -119z" />
    <glyph glyph-name="Uacute" unicode="&#xda;" horiz-adv-x="694" 
d="M299 -12q-87 0 -144.5 34.5t-80 98.5t-7.5 152l74 427h150l-75 -427q-8 -45 0.5 -78t35.5 -50.5t74 -17.5q43 0 76.5 16.5t55 49.5t30.5 80l75 427h150l-75 -427q-17 -97 -67 -160t-120.5 -94t-151.5 -31zM324 753l19 104l255 119v0l-21 -118z" />
    <glyph glyph-name="Ucircumflex" unicode="&#xdb;" horiz-adv-x="694" 
d="M299 -12q-87 0 -144.5 34.5t-80 98.5t-7.5 152l74 427h150l-75 -427q-8 -45 0.5 -78t35.5 -50.5t74 -17.5q43 0 76.5 16.5t55 49.5t30.5 80l75 427h150l-75 -427q-17 -97 -67 -160t-120.5 -94t-151.5 -31zM291 760l19 106l165 83l136 -83l-19 -106l-135 87z" />
    <glyph glyph-name="Udieresis" unicode="&#xdc;" horiz-adv-x="694" 
d="M299 -12q-87 0 -144.5 34.5t-80 98.5t-7.5 152l74 427h150l-75 -427q-8 -45 0.5 -78t35.5 -50.5t74 -17.5q43 0 76.5 16.5t55 49.5t30.5 80l75 427h150l-75 -427q-17 -97 -67 -160t-120.5 -94t-151.5 -31zM362 766q-29 0 -48 19.5t-19 48.5t19 48.5t48 19.5t48.5 -19.5
t19.5 -48.5t-19.5 -48.5t-48.5 -19.5zM553 766q-29 0 -48.5 19.5t-19.5 48.5t19.5 48.5t48.5 19.5t48.5 -19.5t19.5 -48.5t-19.5 -48.5t-48.5 -19.5z" />
    <glyph glyph-name="Yacute" unicode="&#xdd;" horiz-adv-x="650" 
d="M207 0l43 240l-159 460h171l99 -338l-27 4l216 334h169l-319 -460l-43 -240h-150zM303 753l19 104l255 119v0l-21 -118z" />
    <glyph glyph-name="Thorn" unicode="&#xde;" horiz-adv-x="624" 
d="M22 0l123 700h150l-23 -130h123q75 0 123.5 -25.5t72.5 -68t24 -95.5q0 -76 -38.5 -132.5t-105 -87.5t-153.5 -31h-123l-23 -130h-150zM216 250h113q61 0 96 33t35 91q0 35 -23 54.5t-73 19.5h-113z" />
    <glyph glyph-name="germandbls" unicode="&#xdf;" horiz-adv-x="730" 
d="M450 -10q-98 0 -150 50t-47 138h139q-2 -36 16.5 -57t53.5 -21q36 0 57 17t21 49q0 14 -7 25.5t-23.5 21.5t-44.5 20q-69 26 -101.5 52.5t-32.5 67.5q0 30 15 51.5t37.5 38.5t45 32.5t37.5 32.5t15 40q0 28 -23 43.5t-65 15.5q-60 0 -93 -30.5t-43 -84.5l-88 -492h-149
l89 503q13 68 51.5 119.5t102.5 80.5t151 29q70 0 119.5 -22t76 -58t26.5 -79q0 -33 -15.5 -57.5t-37.5 -42.5t-44.5 -32.5t-38 -27.5t-15.5 -28q0 -8 6.5 -16t25 -17t56.5 -24q61 -24 88 -56.5t27 -88.5q0 -57 -30.5 -100.5t-84 -68t-123.5 -24.5z" />
    <glyph glyph-name="agrave" unicode="&#xe0;" horiz-adv-x="604" 
d="M193 -12q-57 0 -93 17t-53 46.5t-17 67.5q0 52 30 90.5t85 59.5t130 21h122q6 33 0.5 54.5t-23 32t-49.5 10.5q-34 0 -62.5 -15t-39.5 -46h-145q15 55 53 95.5t94 63.5t122 23q72 0 121.5 -24t71.5 -69.5t10 -109.5l-54 -305h-133l1 71v0q-14 -18 -32 -33.5t-39.5 -26.5
t-46.5 -17t-53 -6zM250 102q23 0 43 8t36.5 21.5t27.5 31.5t17 39v0h-96q-26 0 -45.5 -7.5t-30 -21t-10.5 -31.5q0 -21 16.5 -30.5t41.5 -9.5zM462 535l-214 105l20 118v0l213 -119z" />
    <glyph glyph-name="aacute" unicode="&#xe1;" horiz-adv-x="604" 
d="M193 -12q-57 0 -93 17t-53 46.5t-17 67.5q0 52 30 90.5t85 59.5t130 21h122q6 33 0.5 54.5t-23 32t-49.5 10.5q-34 0 -62.5 -15t-39.5 -46h-145q15 55 53 95.5t94 63.5t122 23q72 0 121.5 -24t71.5 -69.5t10 -109.5l-54 -305h-133l1 71v0q-14 -18 -32 -33.5t-39.5 -26.5
t-46.5 -17t-53 -6zM250 102q23 0 43 8t36.5 21.5t27.5 31.5t17 39v0h-96q-26 0 -45.5 -7.5t-30 -21t-10.5 -31.5q0 -21 16.5 -30.5t41.5 -9.5zM229 535l19 104l255 119v0l-21 -118z" />
    <glyph glyph-name="acircumflex" unicode="&#xe2;" horiz-adv-x="604" 
d="M193 -12q-57 0 -93 17t-53 46.5t-17 67.5q0 52 30 90.5t85 59.5t130 21h122q6 33 0.5 54.5t-23 32t-49.5 10.5q-34 0 -62.5 -15t-39.5 -46h-145q15 55 53 95.5t94 63.5t122 23q72 0 121.5 -24t71.5 -69.5t10 -109.5l-54 -305h-133l1 71v0q-14 -18 -32 -33.5t-39.5 -26.5
t-46.5 -17t-53 -6zM250 102q23 0 43 8t36.5 21.5t27.5 31.5t17 39v0h-96q-26 0 -45.5 -7.5t-30 -21t-10.5 -31.5q0 -21 16.5 -30.5t41.5 -9.5zM196 537l19 106l165 83l136 -83l-19 -106l-135 87z" />
    <glyph glyph-name="atilde" unicode="&#xe3;" horiz-adv-x="604" 
d="M193 -12q-57 0 -93 17t-53 46.5t-17 67.5q0 52 30 90.5t85 59.5t130 21h122q6 33 0.5 54.5t-23 32t-49.5 10.5q-34 0 -62.5 -15t-39.5 -46h-145q15 55 53 95.5t94 63.5t122 23q72 0 121.5 -24t71.5 -69.5t10 -109.5l-54 -305h-133l1 71v0q-14 -18 -32 -33.5t-39.5 -26.5
t-46.5 -17t-53 -6zM250 102q23 0 43 8t36.5 21.5t27.5 31.5t17 39v0h-96q-26 0 -45.5 -7.5t-30 -21t-10.5 -31.5q0 -21 16.5 -30.5t41.5 -9.5zM160 550q24 72 63.5 104t88.5 32q29 0 48 -11.5t35 -22.5t36 -11q17 0 30.5 11t20.5 34h79q-24 -72 -63.5 -104.5t-88.5 -32.5
q-30 0 -49 11.5t-34.5 23t-35.5 11.5q-17 0 -30.5 -11t-21.5 -34h-78z" />
    <glyph glyph-name="adieresis" unicode="&#xe4;" horiz-adv-x="604" 
d="M193 -12q-57 0 -93 17t-53 46.5t-17 67.5q0 52 30 90.5t85 59.5t130 21h122q6 33 0.5 54.5t-23 32t-49.5 10.5q-34 0 -62.5 -15t-39.5 -46h-145q15 55 53 95.5t94 63.5t122 23q72 0 121.5 -24t71.5 -69.5t10 -109.5l-54 -305h-133l1 71v0q-14 -18 -32 -33.5t-39.5 -26.5
t-46.5 -17t-53 -6zM250 102q23 0 43 8t36.5 21.5t27.5 31.5t17 39v0h-96q-26 0 -45.5 -7.5t-30 -21t-10.5 -31.5q0 -21 16.5 -30.5t41.5 -9.5zM267 561q-29 0 -48 19.5t-19 48.5t19 48.5t48 19.5t48.5 -19.5t19.5 -48.5t-19.5 -48.5t-48.5 -19.5zM458 561q-29 0 -48.5 19.5
t-19.5 48.5t19.5 48.5t48.5 19.5t48.5 -19.5t19.5 -48.5t-19.5 -48.5t-48.5 -19.5z" />
    <glyph glyph-name="aring" unicode="&#xe5;" horiz-adv-x="604" 
d="M193 -12q-57 0 -93 17t-53 46.5t-17 67.5q0 52 30 90.5t85 59.5t130 21h122q6 33 0.5 54.5t-23 32t-49.5 10.5q-34 0 -62.5 -15t-39.5 -46h-145q15 55 53 95.5t94 63.5t122 23q72 0 121.5 -24t71.5 -69.5t10 -109.5l-54 -305h-133l1 71v0q-14 -18 -32 -33.5t-39.5 -26.5
t-46.5 -17t-53 -6zM250 102q23 0 43 8t36.5 21.5t27.5 31.5t17 39v0h-96q-26 0 -45.5 -7.5t-30 -21t-10.5 -31.5q0 -21 16.5 -30.5t41.5 -9.5zM368 542q-48 0 -83 31t-35 85q0 55 35 86t83 31q49 0 84 -31t35 -86q0 -54 -35 -85t-84 -31zM368 607q21 0 35.5 14t14.5 38
t-14.5 37.5t-35.5 13.5q-20 0 -35 -13.5t-15 -37.5t15 -38t35 -14z" />
    <glyph glyph-name="ae" unicode="&#xe6;" horiz-adv-x="964" 
d="M209 -12q-56 0 -96.5 15t-62 43.5t-21.5 69.5q0 52 30 91t84.5 61t128.5 22h136q6 31 1 53t-22.5 33t-50.5 11q-35 0 -63 -15t-40 -46h-144q15 55 53 95.5t94 63.5t122 23q38 0 69.5 -6.5t56.5 -20.5t42 -33q39 29 86 44.5t100 15.5q65 0 113.5 -25.5t75 -71t26.5 -104.5
q0 -17 -3 -37.5t-6.5 -37t-5.5 -21.5h-367q-3 -27 7 -50t32 -37t56 -14q38 0 65 19t43 44h150q-22 -52 -64 -94t-97 -66.5t-117 -24.5q-64 0 -112.5 25.5t-75.5 68.5q-27 -30 -63 -51t-76.5 -32t-83.5 -11zM249 102q31 0 56 12.5t44.5 33.5t31.5 48l1 6h-107q-25 0 -44 -7
t-29.5 -20t-10.5 -30q0 -14 8 -23.5t21 -14.5t29 -5zM564 299h213q3 27 -7.5 46.5t-30.5 31t-47 11.5q-28 0 -52.5 -10t-44 -29.5t-31.5 -49.5z" />
    <glyph glyph-name="ccedilla" unicode="&#xe7;" horiz-adv-x="618" 
d="M269 -12q-67 0 -117.5 27t-77.5 75t-27 112q0 63 23 118.5t65.5 97.5t99.5 66t125 24q100 0 159 -53t59 -148h-159q-1 34 -23 53.5t-58 19.5q-38 0 -69 -22t-49.5 -59t-18.5 -83q0 -23 6.5 -41.5t18 -31.5t28 -20t37.5 -7q25 0 46 9t37.5 25.5t24.5 38.5h159
q-22 -61 -65 -106t-100 -70t-124 -25zM114 -265l16 84h120q25 0 39.5 8t14.5 26q0 16 -10 21.5t-30 5.5h-68l23 127h92l-10 -50q29 0 54.5 -9t41.5 -29t16 -54q0 -40 -21.5 -69.5t-56.5 -45t-77 -15.5h-144z" />
    <glyph glyph-name="egrave" unicode="&#xe8;" horiz-adv-x="615" 
d="M270 -12q-69 0 -119 26t-77 74t-27 112q0 62 22 117.5t64 98.5t99.5 67.5t128.5 24.5q66 0 114.5 -25.5t75 -71t26.5 -104.5q0 -26 -4.5 -51t-10.5 -45h-410l16 88h259q3 28 -8 48t-31 30.5t-46 10.5q-33 0 -62 -14.5t-50 -44t-29 -74.5l-5 -29q-5 -34 4 -60t32 -41
t58 -15q32 0 57 14t40 36h154q-23 -49 -64.5 -88t-94 -61.5t-112.5 -22.5zM481 535l-214 105l20 118v0l213 -119z" />
    <glyph glyph-name="eacute" unicode="&#xe9;" horiz-adv-x="615" 
d="M270 -12q-69 0 -119 26t-77 74t-27 112q0 62 22 117.5t64 98.5t99.5 67.5t128.5 24.5q66 0 114.5 -25.5t75 -71t26.5 -104.5q0 -26 -4.5 -51t-10.5 -45h-410l16 88h259q3 28 -8 48t-31 30.5t-46 10.5q-33 0 -62 -14.5t-50 -44t-29 -74.5l-5 -29q-5 -34 4 -60t32 -41
t58 -15q32 0 57 14t40 36h154q-23 -49 -64.5 -88t-94 -61.5t-112.5 -22.5zM248 535l19 104l255 119v0l-21 -118z" />
    <glyph glyph-name="ecircumflex" unicode="&#xea;" horiz-adv-x="615" 
d="M270 -12q-69 0 -119 26t-77 74t-27 112q0 62 22 117.5t64 98.5t99.5 67.5t128.5 24.5q66 0 114.5 -25.5t75 -71t26.5 -104.5q0 -26 -4.5 -51t-10.5 -45h-410l16 88h259q3 28 -8 48t-31 30.5t-46 10.5q-33 0 -62 -14.5t-50 -44t-29 -74.5l-5 -29q-5 -34 4 -60t32 -41
t58 -15q32 0 57 14t40 36h154q-23 -49 -64.5 -88t-94 -61.5t-112.5 -22.5zM215 537l19 106l165 83l136 -83l-19 -106l-135 87z" />
    <glyph glyph-name="edieresis" unicode="&#xeb;" horiz-adv-x="615" 
d="M270 -12q-69 0 -119 26t-77 74t-27 112q0 62 22 117.5t64 98.5t99.5 67.5t128.5 24.5q66 0 114.5 -25.5t75 -71t26.5 -104.5q0 -26 -4.5 -51t-10.5 -45h-410l16 88h259q3 28 -8 48t-31 30.5t-46 10.5q-33 0 -62 -14.5t-50 -44t-29 -74.5l-5 -29q-5 -34 4 -60t32 -41
t58 -15q32 0 57 14t40 36h154q-23 -49 -64.5 -88t-94 -61.5t-112.5 -22.5zM286 561q-29 0 -48 19.5t-19 48.5t19 48.5t48 19.5t48.5 -19.5t19.5 -48.5t-19.5 -48.5t-48.5 -19.5zM477 561q-29 0 -48.5 19.5t-19.5 48.5t19.5 48.5t48.5 19.5t48.5 -19.5t19.5 -48.5
t-19.5 -48.5t-48.5 -19.5z" />
    <glyph glyph-name="igrave" unicode="&#xec;" horiz-adv-x="278" 
d="M20 0l88 496h150l-88 -496h-150zM305 535l-214 105l20 118v0l213 -119z" />
    <glyph glyph-name="iacute" unicode="&#xed;" horiz-adv-x="278" 
d="M20 0l88 496h150l-88 -496h-150zM72 535l19 104l255 119v0l-21 -118z" />
    <glyph glyph-name="icircumflex" unicode="&#xee;" horiz-adv-x="278" 
d="M20 0l88 496h150l-88 -496h-150zM38 537l19 106l165 83l136 -83l-19 -106l-135 87z" />
    <glyph glyph-name="idieresis" unicode="&#xef;" horiz-adv-x="278" 
d="M20 0l88 496h150l-88 -496h-150zM110 561q-29 0 -48 19.5t-19 48.5t19 48.5t48 19.5t48.5 -19.5t19.5 -48.5t-19.5 -48.5t-48.5 -19.5zM301 561q-29 0 -48.5 19.5t-19.5 48.5t19.5 48.5t48.5 19.5t48.5 -19.5t19.5 -48.5t-19.5 -48.5t-48.5 -19.5z" />
    <glyph glyph-name="eth" unicode="&#xf0;" horiz-adv-x="652" 
d="M293 -12q-75 0 -130 32.5t-84.5 85t-29.5 113.5t23 112.5t64 89.5t95 59t115 21q39 0 69 -8.5t54 -28.5q-6 32 -16.5 64t-25.5 63t-33.5 58.5t-41.5 50.5h139q33 -33 56.5 -73t39 -83.5t22.5 -87.5t7 -85q0 -87 -25 -157t-68.5 -121t-102.5 -78t-127 -27zM309 116
q29 0 54.5 12t45 33t30.5 48.5t11 56.5q0 35 -14 59t-37.5 36.5t-53.5 12.5q-39 0 -70.5 -20t-51 -53t-19.5 -74q0 -33 13.5 -58t37.5 -39t54 -14zM315 530l16 87l310 93l-16 -88z" />
    <glyph glyph-name="ntilde" unicode="&#xf1;" horiz-adv-x="627" 
d="M21 0l87 496h131l1 -77v0q30 40 75.5 64.5t103.5 24.5q67 0 105 -29t50.5 -81t0.5 -123l-49 -275h-149l46 261q9 58 -7 89.5t-69 31.5q-32 0 -59 -15t-45.5 -42.5t-26.5 -66.5l-45 -258h-150zM178 550q24 72 63.5 104t88.5 32q29 0 48 -11.5t35 -22.5t36 -11
q17 0 30.5 11t20.5 34h79q-24 -72 -63.5 -104.5t-88.5 -32.5q-30 0 -49 11.5t-34.5 23t-35.5 11.5q-17 0 -30.5 -11t-21.5 -34h-78z" />
    <glyph glyph-name="ograve" unicode="&#xf2;" horiz-adv-x="620" 
d="M270 -12q-67 0 -116.5 29t-77.5 79.5t-28 114.5q0 63 22.5 117t63.5 94.5t95 63t118 22.5q66 0 116.5 -28t79 -78.5t28.5 -115.5q0 -63 -22.5 -117t-64 -95t-96 -63.5t-118.5 -22.5zM289 118q37 0 65.5 21t45.5 57.5t17 82.5q0 32 -11.5 54t-31 33.5t-44.5 11.5
q-36 0 -65 -21t-46 -57.5t-17 -82.5q0 -31 11.5 -53.5t31.5 -34t44 -11.5zM476 535l-214 105l20 118v0l213 -119z" />
    <glyph glyph-name="oacute" unicode="&#xf3;" horiz-adv-x="620" 
d="M270 -12q-67 0 -116.5 29t-77.5 79.5t-28 114.5q0 63 22.5 117t63.5 94.5t95 63t118 22.5q66 0 116.5 -28t79 -78.5t28.5 -115.5q0 -63 -22.5 -117t-64 -95t-96 -63.5t-118.5 -22.5zM289 118q37 0 65.5 21t45.5 57.5t17 82.5q0 32 -11.5 54t-31 33.5t-44.5 11.5
q-36 0 -65 -21t-46 -57.5t-17 -82.5q0 -31 11.5 -53.5t31.5 -34t44 -11.5zM242 535l19 104l255 119v0l-21 -118z" />
    <glyph glyph-name="ocircumflex" unicode="&#xf4;" horiz-adv-x="620" 
d="M270 -12q-67 0 -116.5 29t-77.5 79.5t-28 114.5q0 63 22.5 117t63.5 94.5t95 63t118 22.5q66 0 116.5 -28t79 -78.5t28.5 -115.5q0 -63 -22.5 -117t-64 -95t-96 -63.5t-118.5 -22.5zM289 118q37 0 65.5 21t45.5 57.5t17 82.5q0 32 -11.5 54t-31 33.5t-44.5 11.5
q-36 0 -65 -21t-46 -57.5t-17 -82.5q0 -31 11.5 -53.5t31.5 -34t44 -11.5zM209 537l19 106l165 83l136 -83l-19 -106l-135 87z" />
    <glyph glyph-name="otilde" unicode="&#xf5;" horiz-adv-x="620" 
d="M270 -12q-67 0 -116.5 29t-77.5 79.5t-28 114.5q0 63 22.5 117t63.5 94.5t95 63t118 22.5q66 0 116.5 -28t79 -78.5t28.5 -115.5q0 -63 -22.5 -117t-64 -95t-96 -63.5t-118.5 -22.5zM289 118q37 0 65.5 21t45.5 57.5t17 82.5q0 32 -11.5 54t-31 33.5t-44.5 11.5
q-36 0 -65 -21t-46 -57.5t-17 -82.5q0 -31 11.5 -53.5t31.5 -34t44 -11.5zM173 550q24 72 63.5 104t88.5 32q29 0 48 -11.5t35 -22.5t36 -11q17 0 30.5 11t20.5 34h79q-24 -72 -63.5 -104.5t-88.5 -32.5q-30 0 -49 11.5t-34.5 23t-35.5 11.5q-17 0 -30.5 -11t-21.5 -34h-78z
" />
    <glyph glyph-name="odieresis" unicode="&#xf6;" horiz-adv-x="620" 
d="M270 -12q-67 0 -116.5 29t-77.5 79.5t-28 114.5q0 63 22.5 117t63.5 94.5t95 63t118 22.5q66 0 116.5 -28t79 -78.5t28.5 -115.5q0 -63 -22.5 -117t-64 -95t-96 -63.5t-118.5 -22.5zM289 118q37 0 65.5 21t45.5 57.5t17 82.5q0 32 -11.5 54t-31 33.5t-44.5 11.5
q-36 0 -65 -21t-46 -57.5t-17 -82.5q0 -31 11.5 -53.5t31.5 -34t44 -11.5zM280 561q-29 0 -48 19.5t-19 48.5t19 48.5t48 19.5t48.5 -19.5t19.5 -48.5t-19.5 -48.5t-48.5 -19.5zM471 561q-29 0 -48.5 19.5t-19.5 48.5t19.5 48.5t48.5 19.5t48.5 -19.5t19.5 -48.5
t-19.5 -48.5t-48.5 -19.5z" />
    <glyph glyph-name="divide" unicode="&#xf7;" horiz-adv-x="588" 
d="M68 227l22 125h445l-22 -125h-445zM267 11q-40 0 -65 24.5t-25 60.5q0 35 25 59.5t65 24.5q39 0 64 -24.5t25 -59.5q0 -36 -25 -60.5t-64 -24.5zM335 398q-40 0 -65 24.5t-25 59.5q0 36 25 60.5t65 24.5q39 0 64 -24.5t25 -59.5q0 -36 -25 -60.5t-64 -24.5z" />
    <glyph glyph-name="oslash" unicode="&#xf8;" horiz-adv-x="584" 
d="M-21 0l514 496h112l-514 -496h-112zM255 -12q-66 0 -116 29t-78 79.5t-28 114.5q0 63 22.5 117t63.5 94.5t95.5 63t117.5 22.5q66 0 117 -28t79.5 -78.5t28.5 -115.5q0 -63 -23 -117t-64.5 -95t-96 -63.5t-118.5 -22.5zM275 118q37 0 65.5 21t45 57.5t16.5 82.5
q0 32 -11 54t-31 33.5t-44 11.5q-36 0 -65.5 -21t-46.5 -57.5t-17 -82.5q0 -31 12 -53.5t32 -34t44 -11.5z" />
    <glyph glyph-name="ugrave" unicode="&#xf9;" horiz-adv-x="627" 
d="M208 -12q-66 0 -104.5 29t-50.5 81.5t-1 122.5l49 275h149l-46 -261q-9 -57 7 -89t69 -32q32 0 59 15t46 43t26 66l45 258h150l-87 -496h-131l-1 77v0q-30 -40 -75 -64.5t-104 -24.5zM480 535l-214 105l20 118v0l213 -119z" />
    <glyph glyph-name="uacute" unicode="&#xfa;" horiz-adv-x="627" 
d="M208 -12q-66 0 -104.5 29t-50.5 81.5t-1 122.5l49 275h149l-46 -261q-9 -57 7 -89t69 -32q32 0 59 15t46 43t26 66l45 258h150l-87 -496h-131l-1 77v0q-30 -40 -75 -64.5t-104 -24.5zM247 535l19 104l255 119v0l-21 -118z" />
    <glyph glyph-name="ucircumflex" unicode="&#xfb;" horiz-adv-x="627" 
d="M208 -12q-66 0 -104.5 29t-50.5 81.5t-1 122.5l49 275h149l-46 -261q-9 -57 7 -89t69 -32q32 0 59 15t46 43t26 66l45 258h150l-87 -496h-131l-1 77v0q-30 -40 -75 -64.5t-104 -24.5zM213 537l19 106l165 83l136 -83l-19 -106l-135 87z" />
    <glyph glyph-name="udieresis" unicode="&#xfc;" horiz-adv-x="627" 
d="M208 -12q-66 0 -104.5 29t-50.5 81.5t-1 122.5l49 275h149l-46 -261q-9 -57 7 -89t69 -32q32 0 59 15t46 43t26 66l45 258h150l-87 -496h-131l-1 77v0q-30 -40 -75 -64.5t-104 -24.5zM285 561q-29 0 -48 19.5t-19 48.5t19 48.5t48 19.5t48.5 -19.5t19.5 -48.5
t-19.5 -48.5t-48.5 -19.5zM476 561q-29 0 -48.5 19.5t-19.5 48.5t19.5 48.5t48.5 19.5t48.5 -19.5t19.5 -48.5t-19.5 -48.5t-48.5 -19.5z" />
    <glyph glyph-name="yacute" unicode="&#xfd;" horiz-adv-x="618" 
d="M47 -220l154 246h-30l-109 470h163l69 -330v0l188 330h161l-436 -716h-160zM243 535l19 104l255 119v0l-21 -118z" />
    <glyph glyph-name="thorn" unicode="&#xfe;" horiz-adv-x="660" 
d="M-18 -220l165 940h146l-48 -288q19 23 44 40t56 26.5t67 9.5q60 0 105 -28.5t70.5 -77t25.5 -109.5q0 -62 -21.5 -117.5t-61 -97.5t-91.5 -66t-113 -24q-34 0 -62.5 9t-49 26t-34.5 37l-48 -280h-150zM314 119q41 0 73.5 19.5t51.5 53t19 75.5q0 30 -13 55t-37.5 40
t-58.5 15q-41 0 -73.5 -20t-51 -54t-18.5 -77q0 -31 13.5 -55t38 -38t56.5 -14z" />
    <glyph glyph-name="ydieresis" unicode="&#xff;" horiz-adv-x="618" 
d="M47 -220l154 246h-30l-109 470h163l69 -330v0l188 330h161l-436 -716h-160zM281 561q-29 0 -48 19.5t-19 48.5t19 48.5t48 19.5t48.5 -19.5t19.5 -48.5t-19.5 -48.5t-48.5 -19.5zM472 561q-29 0 -48.5 19.5t-19.5 48.5t19.5 48.5t48.5 19.5t48.5 -19.5t19.5 -48.5
t-19.5 -48.5t-48.5 -19.5z" />
    <glyph glyph-name="Amacron" unicode="&#x100;" horiz-adv-x="720" 
d="M-25 0l378 700h174l130 -700h-159l-87 534v0l-278 -534h-158zM106 153l59 114h378l17 -114h-454zM266 816l19 105h387l-18 -105h-388z" />
    <glyph glyph-name="amacron" unicode="&#x101;" horiz-adv-x="604" 
d="M193 -12q-57 0 -93 17t-53 46.5t-17 67.5q0 52 30 90.5t85 59.5t130 21h122q6 33 0.5 54.5t-23 32t-49.5 10.5q-34 0 -62.5 -15t-39.5 -46h-145q15 55 53 95.5t94 63.5t122 23q72 0 121.5 -24t71.5 -69.5t10 -109.5l-54 -305h-133l1 71v0q-14 -18 -32 -33.5t-39.5 -26.5
t-46.5 -17t-53 -6zM250 102q23 0 43 8t36.5 21.5t27.5 31.5t17 39v0h-96q-26 0 -45.5 -7.5t-30 -21t-10.5 -31.5q0 -21 16.5 -30.5t41.5 -9.5zM159 572l19 105h387l-18 -105h-388z" />
    <glyph glyph-name="Abreve" unicode="&#x102;" horiz-adv-x="720" 
d="M-25 0l378 700h174l130 -700h-159l-87 534v0l-278 -534h-158zM106 153l59 114h378l17 -114h-454zM451 770q-49 0 -82.5 19.5t-47.5 56t-4 87.5l4 18h76q-6 -33 9.5 -51.5t64.5 -18.5q48 0 70 18.5t29 51.5h76l-3 -19q-8 -51 -35 -87t-67 -55.5t-90 -19.5z" />
    <glyph glyph-name="abreve" unicode="&#x103;" horiz-adv-x="604" 
d="M193 -12q-57 0 -93 17t-53 46.5t-17 67.5q0 52 30 90.5t85 59.5t130 21h122q6 33 0.5 54.5t-23 32t-49.5 10.5q-34 0 -62.5 -15t-39.5 -46h-145q15 55 53 95.5t94 63.5t122 23q72 0 121.5 -24t71.5 -69.5t10 -109.5l-54 -305h-133l1 71v0q-14 -18 -32 -33.5t-39.5 -26.5
t-46.5 -17t-53 -6zM250 102q23 0 43 8t36.5 21.5t27.5 31.5t17 39v0h-96q-26 0 -45.5 -7.5t-30 -21t-10.5 -31.5q0 -21 16.5 -30.5t41.5 -9.5zM348 546q-49 0 -82.5 19.5t-47.5 56t-4 87.5l4 18h76q-6 -33 9.5 -51.5t64.5 -18.5q48 0 70 18.5t29 51.5h76l-3 -19
q-8 -51 -35 -87t-67 -55.5t-90 -19.5z" />
    <glyph glyph-name="Aogonek" unicode="&#x104;" horiz-adv-x="720" 
d="M-25 0l378 700h174l130 -700h-159l-87 534v0l-278 -534h-158zM106 153l59 114h378l17 -114h-454zM533 -214q-38 0 -68 12t-44.5 36.5t-8.5 61.5q6 28 23.5 54t55 51t100.5 49l46 19l20 -69l-52 -24q-40 -19 -57.5 -34t-20.5 -33q-4 -17 7 -27t34 -10q15 0 34.5 4t41.5 11
l-15 -86q-21 -7 -45.5 -11t-50.5 -4z" />
    <glyph glyph-name="aogonek" unicode="&#x105;" horiz-adv-x="604" 
d="M193 -12q-57 0 -93 17t-53 46.5t-17 67.5q0 52 30 90.5t85 59.5t130 21h122q6 33 0.5 54.5t-23 32t-49.5 10.5q-34 0 -62.5 -15t-39.5 -46h-145q15 55 53 95.5t94 63.5t122 23q72 0 121.5 -24t71.5 -69.5t10 -109.5l-54 -305h-133l1 71v0q-14 -18 -32 -33.5t-39.5 -26.5
t-46.5 -17t-53 -6zM250 102q23 0 43 8t36.5 21.5t27.5 31.5t17 39v0h-96q-26 0 -45.5 -7.5t-30 -21t-10.5 -31.5q0 -21 16.5 -30.5t41.5 -9.5zM372 -214q-38 0 -68 12t-44.5 36.5t-8.5 61.5q6 28 23.5 54t55 51t100.5 49l46 19l20 -69l-52 -24q-40 -19 -57.5 -34t-20.5 -33
q-4 -17 7 -27t34 -10q15 0 34.5 4t41.5 11l-15 -86q-21 -7 -45.5 -11t-50.5 -4z" />
    <glyph glyph-name="Cacute" unicode="&#x106;" horiz-adv-x="748" 
d="M343 -12q-92 0 -156 35.5t-97.5 99t-33.5 146.5q0 95 31 175.5t87 140.5t131.5 93.5t162.5 33.5q129 0 201.5 -65t72.5 -183h-166q-1 54 -35 83t-97 29q-50 0 -93 -22t-74.5 -61t-48.5 -91.5t-17 -114.5q0 -52 18.5 -88.5t53.5 -56t85 -19.5q62 0 103.5 26.5t62.5 76.5
h166q-27 -76 -79 -129t-123 -81t-155 -28zM358 753l19 104l255 119v0l-21 -118z" />
    <glyph glyph-name="cacute" unicode="&#x107;" horiz-adv-x="618" 
d="M269 -12q-67 0 -117.5 27t-77.5 75t-27 112q0 63 23 118.5t65.5 97.5t99.5 66t125 24q100 0 159 -53t59 -148h-159q-1 34 -23 53.5t-58 19.5q-38 0 -69 -22t-49.5 -59t-18.5 -83q0 -23 6.5 -41.5t18 -31.5t28 -20t37.5 -7q25 0 46 9t37.5 25.5t24.5 38.5h159
q-22 -61 -65 -106t-100 -70t-124 -25zM243 535l19 104l255 119v0l-21 -118z" />
    <glyph glyph-name="Cdotaccent" unicode="&#x10a;" horiz-adv-x="748" 
d="M343 -12q-92 0 -156 35.5t-97.5 99t-33.5 146.5q0 95 31 175.5t87 140.5t131.5 93.5t162.5 33.5q129 0 201.5 -65t72.5 -183h-166q-1 54 -35 83t-97 29q-50 0 -93 -22t-74.5 -61t-48.5 -91.5t-17 -114.5q0 -52 18.5 -88.5t53.5 -56t85 -19.5q62 0 103.5 26.5t62.5 76.5
h166q-27 -76 -79 -129t-123 -81t-155 -28zM490 765q-28 0 -47.5 19.5t-19.5 47.5q0 30 19.5 49.5t47.5 19.5q30 0 49 -19.5t19 -49.5q0 -28 -19 -47.5t-49 -19.5z" />
    <glyph glyph-name="cdotaccent" unicode="&#x10b;" horiz-adv-x="618" 
d="M269 -12q-67 0 -117.5 27t-77.5 75t-27 112q0 63 23 118.5t65.5 97.5t99.5 66t125 24q100 0 159 -53t59 -148h-159q-1 34 -23 53.5t-58 19.5q-38 0 -69 -22t-49.5 -59t-18.5 -83q0 -23 6.5 -41.5t18 -31.5t28 -20t37.5 -7q25 0 46 9t37.5 25.5t24.5 38.5h159
q-22 -61 -65 -106t-100 -70t-124 -25zM375 559q-28 0 -47.5 19.5t-19.5 47.5q0 30 19.5 49.5t47.5 19.5q30 0 49 -19.5t19 -49.5q0 -28 -19 -47.5t-49 -19.5z" />
    <glyph glyph-name="Ccaron" unicode="&#x10c;" horiz-adv-x="748" 
d="M343 -12q-92 0 -156 35.5t-97.5 99t-33.5 146.5q0 95 31 175.5t87 140.5t131.5 93.5t162.5 33.5q129 0 201.5 -65t72.5 -183h-166q-1 54 -35 83t-97 29q-50 0 -93 -22t-74.5 -61t-48.5 -91.5t-17 -114.5q0 -52 18.5 -88.5t53.5 -56t85 -19.5q62 0 103.5 26.5t62.5 76.5
h166q-27 -76 -79 -129t-123 -81t-155 -28zM661 949l-19 -105l-166 -84l-136 84l19 105l135 -87z" />
    <glyph glyph-name="ccaron" unicode="&#x10d;" horiz-adv-x="618" 
d="M269 -12q-67 0 -117.5 27t-77.5 75t-27 112q0 63 23 118.5t65.5 97.5t99.5 66t125 24q100 0 159 -53t59 -148h-159q-1 34 -23 53.5t-58 19.5q-38 0 -69 -22t-49.5 -59t-18.5 -83q0 -23 6.5 -41.5t18 -31.5t28 -20t37.5 -7q25 0 46 9t37.5 25.5t24.5 38.5h159
q-22 -61 -65 -106t-100 -70t-124 -25zM544 724l-19 -105l-165 -84l-136 84l19 105l135 -86z" />
    <glyph glyph-name="Dcaron" unicode="&#x10e;" horiz-adv-x="724" 
d="M22 0l123 700h251q106 0 173.5 -35.5t100 -100t32.5 -150.5q0 -92 -31 -167.5t-87.5 -131t-135 -85.5t-175.5 -30h-251zM195 129h92q84 0 141.5 33.5t88 94.5t30.5 144q0 58 -19.5 96t-60 56.5t-101.5 18.5h-93zM595 949l-19 -105l-165 -84l-136 84l19 105l135 -87z" />
    <glyph glyph-name="dcaron" unicode="&#x10f;" horiz-adv-x="771" 
d="M243 -12q-60 0 -103.5 29t-67.5 78.5t-24 112.5t21.5 118t59.5 95.5t88.5 63.5t108.5 23q61 0 97.5 -21t54.5 -51l49 284h150l-126 -720h-133l-6 65v0q-18 -21 -42 -38.5t-55.5 -28t-71.5 -10.5zM306 119q41 0 74 21.5t52.5 57t19.5 76.5q0 31 -13 54t-36.5 36t-56.5 13
q-41 0 -73.5 -20t-51 -54t-18.5 -76q0 -30 12 -55t35 -39t56 -14zM684 511l10 59q24 0 37 8.5t17 27.5l2 18h-46l20 113h110q2 -30 1 -53.5t-6 -48.5q-10 -58 -46.5 -91t-98.5 -33z" />
    <glyph glyph-name="Dcroat" unicode="&#x110;" horiz-adv-x="733" 
d="M12 287l23 127h383l-22 -127h-384zM31 0l123 700h251q105 0 172.5 -35.5t100.5 -100t33 -150.5q0 -92 -31 -167.5t-87.5 -131t-135 -85.5t-175.5 -30h-251zM203 129h93q84 0 141.5 33.5t88 94.5t30.5 144q0 58 -20 96t-60.5 56.5t-101.5 18.5h-92z" />
    <glyph glyph-name="dcroat" unicode="&#x111;" horiz-adv-x="682" 
d="M361 563l15 86h356l-14 -86h-357zM243 -12q-60 0 -103.5 29t-67.5 78.5t-24 112.5t21.5 118t59.5 95.5t88.5 63.5t108.5 23q61 0 97.5 -21t54.5 -51l49 284h150l-126 -720h-133l-6 65v0q-18 -21 -42 -38.5t-55.5 -28t-71.5 -10.5zM306 119q41 0 74 21.5t52.5 57
t19.5 76.5q0 31 -13 54t-36.5 36t-56.5 13q-41 0 -73.5 -20t-51 -54t-18.5 -76q0 -30 12 -55t35 -39t56 -14z" />
    <glyph glyph-name="Emacron" unicode="&#x112;" horiz-adv-x="563" 
d="M21 0l124 700h447l-22 -119h-296l-30 -168h267l-20 -114h-267l-32 -180h297l-21 -119h-447zM191 816l19 105h387l-18 -105h-388z" />
    <glyph glyph-name="emacron" unicode="&#x113;" horiz-adv-x="615" 
d="M270 -12q-69 0 -119 26t-77 74t-27 112q0 62 22 117.5t64 98.5t99.5 67.5t128.5 24.5q66 0 114.5 -25.5t75 -71t26.5 -104.5q0 -26 -4.5 -51t-10.5 -45h-410l16 88h259q3 28 -8 48t-31 30.5t-46 10.5q-33 0 -62 -14.5t-50 -44t-29 -74.5l-5 -29q-5 -34 4 -60t32 -41
t58 -15q32 0 57 14t40 36h154q-23 -49 -64.5 -88t-94 -61.5t-112.5 -22.5zM177 572l19 105h387l-18 -105h-388z" />
    <glyph glyph-name="Ebreve" unicode="&#x114;" horiz-adv-x="563" 
d="M21 0l124 700h447l-22 -119h-296l-30 -168h267l-20 -114h-267l-32 -180h297l-21 -119h-447zM375 770q-49 0 -82.5 19.5t-47.5 56t-4 87.5l4 18h76q-6 -33 9.5 -51.5t64.5 -18.5q48 0 70 18.5t29 51.5h76l-3 -19q-8 -51 -35 -87t-67 -55.5t-90 -19.5z" />
    <glyph glyph-name="ebreve" unicode="&#x115;" horiz-adv-x="615" 
d="M270 -12q-69 0 -119 26t-77 74t-27 112q0 62 22 117.5t64 98.5t99.5 67.5t128.5 24.5q66 0 114.5 -25.5t75 -71t26.5 -104.5q0 -26 -4.5 -51t-10.5 -45h-410l16 88h259q3 28 -8 48t-31 30.5t-46 10.5q-33 0 -62 -14.5t-50 -44t-29 -74.5l-5 -29q-5 -34 4 -60t32 -41
t58 -15q32 0 57 14t40 36h154q-23 -49 -64.5 -88t-94 -61.5t-112.5 -22.5zM366 546q-49 0 -82.5 19.5t-47.5 56t-4 87.5l4 18h76q-6 -33 9.5 -51.5t64.5 -18.5q48 0 70 18.5t29 51.5h76l-3 -19q-8 -51 -35 -87t-67 -55.5t-90 -19.5z" />
    <glyph glyph-name="Edotaccent" unicode="&#x116;" horiz-adv-x="563" 
d="M21 0l124 700h447l-22 -119h-296l-30 -168h267l-20 -114h-267l-32 -180h297l-21 -119h-447zM387 765q-28 0 -47.5 19.5t-19.5 47.5q0 30 19.5 49.5t47.5 19.5q30 0 49 -19.5t19 -49.5q0 -28 -19 -47.5t-49 -19.5z" />
    <glyph glyph-name="edotaccent" unicode="&#x117;" horiz-adv-x="615" 
d="M270 -12q-69 0 -119 26t-77 74t-27 112q0 62 22 117.5t64 98.5t99.5 67.5t128.5 24.5q66 0 114.5 -25.5t75 -71t26.5 -104.5q0 -26 -4.5 -51t-10.5 -45h-410l16 88h259q3 28 -8 48t-31 30.5t-46 10.5q-33 0 -62 -14.5t-50 -44t-29 -74.5l-5 -29q-5 -34 4 -60t32 -41
t58 -15q32 0 57 14t40 36h154q-23 -49 -64.5 -88t-94 -61.5t-112.5 -22.5zM380 559q-28 0 -47.5 19.5t-19.5 47.5q0 30 19.5 49.5t47.5 19.5q30 0 49 -19.5t19 -49.5q0 -28 -19 -47.5t-49 -19.5z" />
    <glyph glyph-name="Eogonek" unicode="&#x118;" horiz-adv-x="563" 
d="M21 0l124 700h447l-22 -119h-296l-30 -168h267l-20 -114h-267l-32 -180h297l-21 -119h-447zM343 -206q-38 0 -68 12t-44.5 36.5t-8.5 61.5q6 28 23.5 54t55 51t100.5 49l46 19l20 -69l-52 -24q-40 -19 -57.5 -34t-20.5 -33q-4 -17 7 -27t34 -10q15 0 34.5 4t41.5 11
l-15 -86q-21 -7 -45.5 -11t-50.5 -4z" />
    <glyph glyph-name="eogonek" unicode="&#x119;" horiz-adv-x="615" 
d="M270 -12q-69 0 -119 26t-77 74t-27 112q0 62 22 117.5t64 98.5t99.5 67.5t128.5 24.5q66 0 114.5 -25.5t75 -71t26.5 -104.5q0 -26 -4.5 -51t-10.5 -45h-410l16 88h259q3 28 -8 48t-31 30.5t-46 10.5q-33 0 -62 -14.5t-50 -44t-29 -74.5l-5 -29q-5 -34 4 -60t32 -41
t58 -15q32 0 57 14t40 36h154q-23 -49 -64.5 -88t-94 -61.5t-112.5 -22.5zM256 -203q-38 0 -68 12t-44.5 36.5t-8.5 61.5q6 28 23.5 54t55 51t100.5 49l46 19l20 -69l-52 -24q-40 -19 -57.5 -34t-20.5 -33q-4 -17 7 -27t34 -10q15 0 34.5 4t41.5 11l-15 -86
q-21 -7 -45.5 -11t-50.5 -4z" />
    <glyph glyph-name="Ecaron" unicode="&#x11a;" horiz-adv-x="563" 
d="M21 0l124 700h447l-22 -119h-296l-30 -168h267l-20 -114h-267l-32 -180h297l-21 -119h-447zM557 949l-18 -105l-166 -84l-136 84l19 105l135 -87z" />
    <glyph glyph-name="ecaron" unicode="&#x11b;" horiz-adv-x="615" 
d="M270 -12q-69 0 -119 26t-77 74t-27 112q0 62 22 117.5t64 98.5t99.5 67.5t128.5 24.5q66 0 114.5 -25.5t75 -71t26.5 -104.5q0 -26 -4.5 -51t-10.5 -45h-410l16 88h259q3 28 -8 48t-31 30.5t-46 10.5q-33 0 -62 -14.5t-50 -44t-29 -74.5l-5 -29q-5 -34 4 -60t32 -41
t58 -15q32 0 57 14t40 36h154q-23 -49 -64.5 -88t-94 -61.5t-112.5 -22.5zM549 724l-18 -105l-166 -84l-136 84l19 105l135 -86z" />
    <glyph glyph-name="Gbreve" unicode="&#x11e;" horiz-adv-x="785" 
d="M333 -12q-87 0 -148 39t-94 105.5t-33 149.5q0 96 32 175t89 136t134.5 88t168.5 31q126 0 199.5 -60t78.5 -166h-166q-9 42 -42 65t-92 23q-73 0 -129 -35.5t-87 -98t-31 -145.5q0 -54 18.5 -93t54.5 -60t87 -21q58 0 100 20.5t70 56.5t43 81h-164l20 112h314l-69 -391
h-136v81v0q-26 -30 -58 -51t-71 -31.5t-89 -10.5zM486 770q-49 0 -82.5 19.5t-47.5 56t-4 87.5l4 18h76q-6 -33 9.5 -51.5t64.5 -18.5q48 0 70 18.5t29 51.5h76l-3 -19q-8 -51 -35 -87t-67 -55.5t-90 -19.5z" />
    <glyph glyph-name="gbreve" unicode="&#x11f;" horiz-adv-x="566" 
d="M186 -232q-66 0 -114.5 15.5t-75 46t-26.5 76.5q0 44 25 80.5t70 64.5t106 48l34 -77q-52 -15 -74 -38.5t-22 -47.5q0 -19 12 -32t34 -19t49 -6q43 0 74 16.5t31 51.5q0 20 -15 34t-60 17q-44 3 -81 11t-66 19t-49.5 24t-31.5 27l4 23l129 119l95 -32l-154 -135l59 77
q10 -7 21.5 -12t26.5 -9.5t36.5 -7.5t51.5 -6q59 -5 97 -21.5t56 -44.5t18 -67q0 -58 -33.5 -102t-92.5 -68.5t-134 -24.5zM250 144q-56 0 -95 19.5t-60 53t-21 76.5q0 60 32.5 108.5t86.5 77.5t121 29q56 0 95 -20t59 -53.5t20 -75.5q0 -60 -32 -109t-86 -77.5t-120 -28.5z
M269 255q40 0 66.5 24t26.5 60q0 27 -19 41.5t-49 14.5q-40 0 -67 -24t-27 -60q0 -26 19.5 -41t49.5 -15zM377 394l-5 102h208l-15 -86zM342 546q-49 0 -82.5 19.5t-47.5 56t-4 87.5l4 18h76q-6 -33 9.5 -51.5t64.5 -18.5q48 0 70 18.5t29 51.5h76l-3 -19q-8 -51 -35 -87
t-67 -55.5t-90 -19.5z" />
    <glyph glyph-name="Gdotaccent" unicode="&#x120;" horiz-adv-x="785" 
d="M333 -12q-87 0 -148 39t-94 105.5t-33 149.5q0 96 32 175t89 136t134.5 88t168.5 31q126 0 199.5 -60t78.5 -166h-166q-9 42 -42 65t-92 23q-73 0 -129 -35.5t-87 -98t-31 -145.5q0 -54 18.5 -93t54.5 -60t87 -21q58 0 100 20.5t70 56.5t43 81h-164l20 112h314l-69 -391
h-136v81v0q-26 -30 -58 -51t-71 -31.5t-89 -10.5zM498 765q-28 0 -47.5 19.5t-19.5 47.5q0 30 19.5 49.5t47.5 19.5q30 0 49 -19.5t19 -49.5q0 -28 -19 -47.5t-49 -19.5z" />
    <glyph glyph-name="gdotaccent" unicode="&#x121;" horiz-adv-x="566" 
d="M186 -232q-66 0 -114.5 15.5t-75 46t-26.5 76.5q0 44 25 80.5t70 64.5t106 48l34 -77q-52 -15 -74 -38.5t-22 -47.5q0 -19 12 -32t34 -19t49 -6q43 0 74 16.5t31 51.5q0 20 -15 34t-60 17q-44 3 -81 11t-66 19t-49.5 24t-31.5 27l4 23l129 119l95 -32l-154 -135l59 77
q10 -7 21.5 -12t26.5 -9.5t36.5 -7.5t51.5 -6q59 -5 97 -21.5t56 -44.5t18 -67q0 -58 -33.5 -102t-92.5 -68.5t-134 -24.5zM250 144q-56 0 -95 19.5t-60 53t-21 76.5q0 60 32.5 108.5t86.5 77.5t121 29q56 0 95 -20t59 -53.5t20 -75.5q0 -60 -32 -109t-86 -77.5t-120 -28.5z
M269 255q40 0 66.5 24t26.5 60q0 27 -19 41.5t-49 14.5q-40 0 -67 -24t-27 -60q0 -26 19.5 -41t49.5 -15zM377 394l-5 102h208l-15 -86zM355 559q-28 0 -47.5 19.5t-19.5 47.5q0 30 19.5 49.5t47.5 19.5q30 0 49 -19.5t19 -49.5q0 -28 -19 -47.5t-49 -19.5z" />
    <glyph glyph-name="uni0122" unicode="&#x122;" horiz-adv-x="785" 
d="M333 -12q-87 0 -148 39t-94 105.5t-33 149.5q0 96 32 175t89 136t134.5 88t168.5 31q126 0 199.5 -60t78.5 -166h-166q-9 42 -42 65t-92 23q-73 0 -129 -35.5t-87 -98t-31 -145.5q0 -54 18.5 -93t54.5 -60t87 -21q58 0 100 20.5t70 56.5t43 81h-164l20 112h314l-69 -391
h-136v81v0q-26 -30 -58 -51t-71 -31.5t-89 -10.5zM239 -293l11 59q26 0 41 16t21 48l2 16h-58l20 112h120q4 -29 3 -56t-5 -52q-12 -65 -51 -104t-104 -39z" />
    <glyph glyph-name="uni0123" unicode="&#x123;" horiz-adv-x="566" 
d="M186 -232q-66 0 -114.5 15.5t-75 46t-26.5 76.5q0 44 25 80.5t70 64.5t106 48l34 -77q-52 -15 -74 -38.5t-22 -47.5q0 -19 12 -32t34 -19t49 -6q43 0 74 16.5t31 51.5q0 20 -15 34t-60 17q-44 3 -81 11t-66 19t-49.5 24t-31.5 27l4 23l129 119l95 -32l-154 -135l59 77
q10 -7 21.5 -12t26.5 -9.5t36.5 -7.5t51.5 -6q59 -5 97 -21.5t56 -44.5t18 -67q0 -58 -33.5 -102t-92.5 -68.5t-134 -24.5zM250 144q-56 0 -95 19.5t-60 53t-21 76.5q0 60 32.5 108.5t86.5 77.5t121 29q56 0 95 -20t59 -53.5t20 -75.5q0 -60 -32 -109t-86 -77.5t-120 -28.5z
M269 255q40 0 66.5 24t26.5 60q0 27 -19 41.5t-49 14.5q-40 0 -67 -24t-27 -60q0 -26 19.5 -41t49.5 -15zM377 394l-5 102h208l-15 -86zM445 784l-10 -59q-23 0 -36 -8.5t-17 -27.5l-3 -18h47l-21 -113h-110q-1 31 0 54t5 48q11 58 47.5 91t97.5 33z" />
    <glyph glyph-name="Hbar" unicode="&#x126;" horiz-adv-x="780" 
d="M69 493l20 117h730l-20 -117h-730zM491 0l124 700h150l-124 -700h-150zM52 0l123 700h150l-123 -700h-150zM235 299l21 118h332l-21 -118h-332z" />
    <glyph glyph-name="hbar" unicode="&#x127;" horiz-adv-x="651" 
d="M75 563l15 86h356l-15 -86h-356zM45 0l126 720h150l-52 -295v0q30 37 75.5 60t101.5 23q62 0 101 -27.5t52.5 -79t-0.5 -126.5l-49 -275h-149l46 261q10 58 -7 89.5t-69 31.5q-32 0 -59.5 -15t-46 -43.5t-25.5 -68.5l-45 -255h-150z" />
    <glyph glyph-name="Itilde" unicode="&#x128;" horiz-adv-x="280" 
d="M21 0l124 700h150l-124 -700h-150zM44 770q24 72 63.5 104t88.5 32q29 0 48 -11.5t35 -22.5t36 -11q17 0 30.5 11t20.5 34h79q-24 -72 -63.5 -104.5t-88.5 -32.5q-30 0 -49 11.5t-34.5 23t-35.5 11.5q-17 0 -30.5 -11t-21.5 -34h-78z" />
    <glyph glyph-name="itilde" unicode="&#x129;" horiz-adv-x="278" 
d="M20 0l88 496h150l-88 -496h-150zM3 550q24 72 63.5 104t88.5 32q29 0 48 -11.5t35 -22.5t36 -11q17 0 30.5 11t20.5 34h79q-24 -72 -63.5 -104.5t-88.5 -32.5q-30 0 -49 11.5t-34.5 23t-35.5 11.5q-17 0 -30.5 -11t-21.5 -34h-78z" />
    <glyph glyph-name="Imacron" unicode="&#x12a;" horiz-adv-x="280" 
d="M21 0l124 700h150l-124 -700h-150zM47 816l19 105h387l-18 -105h-388z" />
    <glyph glyph-name="imacron" unicode="&#x12b;" horiz-adv-x="278" 
d="M20 0l88 496h150l-88 -496h-150zM1 572l19 105h387l-18 -105h-388z" />
    <glyph glyph-name="Ibreve" unicode="&#x12c;" horiz-adv-x="280" 
d="M21 0l124 700h150l-124 -700h-150zM231 770q-49 0 -82.5 19.5t-47.5 56t-4 87.5l4 18h76q-6 -33 9.5 -51.5t64.5 -18.5q48 0 70 18.5t29 51.5h76l-3 -19q-8 -51 -35 -87t-67 -55.5t-90 -19.5z" />
    <glyph glyph-name="ibreve" unicode="&#x12d;" horiz-adv-x="278" 
d="M20 0l88 496h150l-88 -496h-150zM190 546q-49 0 -82.5 19.5t-47.5 56t-4 87.5l4 18h76q-6 -33 9.5 -51.5t64.5 -18.5q48 0 70 18.5t29 51.5h76l-3 -19q-8 -51 -35 -87t-67 -55.5t-90 -19.5z" />
    <glyph glyph-name="Iogonek" unicode="&#x12e;" horiz-adv-x="280" 
d="M21 0l124 700h150l-124 -700h-150zM47 -214q-38 0 -68 12t-44.5 36.5t-8.5 61.5q6 28 23.5 54t55 51t100.5 49l46 19l20 -69l-52 -24q-40 -19 -57.5 -34t-20.5 -33q-4 -17 7 -27t34 -10q15 0 34.5 4t41.5 11l-15 -86q-21 -7 -45.5 -11t-50.5 -4z" />
    <glyph glyph-name="iogonek" unicode="&#x12f;" horiz-adv-x="278" 
d="M20 0l88 496h150l-88 -496h-150zM204 559q-28 0 -47.5 19.5t-19.5 47.5q0 30 19.5 49.5t47.5 19.5q30 0 49 -19.5t19 -49.5q0 -28 -19 -47.5t-49 -19.5zM46 -214q-38 0 -68 12t-44.5 36.5t-8.5 61.5q6 28 23.5 54t55 51t100.5 49l46 19l20 -69l-52 -24q-40 -19 -57.5 -34
t-20.5 -33q-4 -17 7 -27t34 -10q15 0 34.5 4t41.5 11l-15 -86q-21 -7 -45.5 -11t-50.5 -4z" />
    <glyph glyph-name="Idotaccent" unicode="&#x130;" horiz-adv-x="280" 
d="M21 0l124 700h150l-124 -700h-150zM243 765q-28 0 -47.5 19.5t-19.5 47.5q0 30 19.5 49.5t47.5 19.5q30 0 49 -19.5t19 -49.5q0 -28 -19 -47.5t-49 -19.5z" />
    <glyph glyph-name="dotlessi" unicode="&#x131;" horiz-adv-x="278" 
d="M20 0l88 496h150l-88 -496h-150z" />
    <glyph glyph-name="IJ" unicode="&#x132;" horiz-adv-x="792" 
d="M21 0l124 700h150l-124 -700h-150zM461 -12q-69 0 -116.5 26.5t-68 78.5t-7.5 126h150q-5 -31 -0.5 -52.5t20.5 -33t42 -11.5q25 0 43 10.5t30 29.5t17 46l86 492h150l-86 -492q-19 -106 -89.5 -163t-170.5 -57z" />
    <glyph glyph-name="ij" unicode="&#x133;" horiz-adv-x="550" 
d="M24 0l87 496h150l-87 -496h-150zM211 552q-41 0 -66 24.5t-25 59.5t25.5 59.5t65.5 24.5t65.5 -24t25.5 -60q0 -35 -25.5 -59.5t-65.5 -24.5zM139 -220l23 127h40q31 0 45.5 12.5t19.5 39.5l95 537h150l-95 -536q-11 -66 -41 -105.5t-74.5 -57t-99.5 -17.5h-63zM463 552
q-41 0 -66.5 24.5t-25.5 59.5q0 36 25.5 60t66.5 24q40 0 65 -24t25 -60q0 -35 -25 -59.5t-65 -24.5z" />
    <glyph glyph-name="uni0136" unicode="&#x136;" horiz-adv-x="670" 
d="M22 0l123 700h150l-46 -265l288 265h184l-305 -277l191 -423h-179l-137 311l-76 -71l-43 -240h-150zM178 -293l11 59q26 0 41 16t21 48l2 16h-58l20 112h120q4 -29 3 -56t-5 -52q-12 -65 -51 -104t-104 -39z" />
    <glyph glyph-name="uni0137" unicode="&#x137;" horiz-adv-x="610" 
d="M377 0l-177 281l225 215h183l-279 -249l8 67l216 -314h-176zM20 0l128 720h150l-128 -720h-150zM148 -293l11 59q26 0 41 16t21 48l2 16h-58l20 112h120q4 -29 3 -56t-5 -52q-12 -65 -51 -104t-104 -39z" />
    <glyph glyph-name="Lacute" unicode="&#x139;" horiz-adv-x="565" 
d="M22 0l123 700h150l-103 -584h302l-20 -116h-452zM111 753l19 104l255 119v0l-21 -118z" />
    <glyph glyph-name="lacute" unicode="&#x13a;" horiz-adv-x="278" 
d="M20 0l128 720h150l-128 -720h-150zM112 759l19 104l255 119v0l-21 -118z" />
    <glyph glyph-name="uni013B" unicode="&#x13b;" horiz-adv-x="565" 
d="M22 0l123 700h150l-103 -584h302l-20 -116h-452zM126 -293l11 59q26 0 41 16t21 48l2 16h-58l20 112h120q4 -29 3 -56t-5 -52q-12 -65 -51 -104t-104 -39z" />
    <glyph glyph-name="uni013C" unicode="&#x13c;" horiz-adv-x="278" 
d="M20 0l128 720h150l-128 -720h-150zM-17 -293l11 59q26 0 41 16t21 48l2 16h-58l20 112h120q4 -29 3 -56t-5 -52q-12 -65 -51 -104t-104 -39z" />
    <glyph glyph-name="Lcaron" unicode="&#x13d;" horiz-adv-x="565" 
d="M22 0l123 700h150l-103 -584h302l-20 -116h-452zM325 499l10 59q24 0 37 8.5t17 27.5l2 18h-46l20 113h110q2 -30 1 -53.5t-6 -48.5q-10 -58 -46.5 -91t-98.5 -33z" />
    <glyph glyph-name="lcaron" unicode="&#x13e;" horiz-adv-x="392" 
d="M20 0l128 720h150l-128 -720h-150zM305 511l10 59q24 0 37 8.5t17 27.5l2 18h-46l20 113h110q2 -30 1 -53.5t-6 -48.5q-10 -58 -46.5 -91t-98.5 -33z" />
    <glyph glyph-name="Ldot" unicode="&#x13f;" horiz-adv-x="565" 
d="M22 0l123 700h150l-103 -584h302l-20 -116h-452zM405 265q-41 0 -66.5 24.5t-25.5 59.5q0 36 25.5 60.5t66.5 24.5q40 0 65 -24.5t25 -60.5q0 -35 -25 -59.5t-65 -24.5z" />
    <glyph glyph-name="ldot" unicode="&#x140;" horiz-adv-x="408" 
d="M20 0l128 720h150l-128 -720h-150zM364 275q-41 0 -66.5 24.5t-25.5 59.5q0 36 25.5 60.5t66.5 24.5q40 0 65 -24.5t25 -60.5q0 -35 -25 -59.5t-65 -24.5z" />
    <glyph glyph-name="Lslash" unicode="&#x141;" horiz-adv-x="589" 
d="M21 250l25 143l329 99l-25 -144zM46 0l123 700h150l-103 -584h302l-21 -116h-451z" />
    <glyph glyph-name="lslash" unicode="&#x142;" horiz-adv-x="315" 
d="M15 272l23 129l309 93l-23 -130zM38 0l128 720h150l-128 -720h-150z" />
    <glyph glyph-name="Nacute" unicode="&#x143;" horiz-adv-x="737" 
d="M21 0l124 700h151l224 -465v0l82 465h150l-124 -700h-150l-224 465v0l-82 -465h-151zM338 753l19 104l255 119v0l-21 -118z" />
    <glyph glyph-name="nacute" unicode="&#x144;" horiz-adv-x="627" 
d="M21 0l87 496h131l1 -77v0q30 40 75.5 64.5t103.5 24.5q67 0 105 -29t50.5 -81t0.5 -123l-49 -275h-149l46 261q9 58 -7 89.5t-69 31.5q-32 0 -59 -15t-45.5 -42.5t-26.5 -66.5l-45 -258h-150zM247 535l19 104l255 119v0l-21 -118z" />
    <glyph glyph-name="uni0145" unicode="&#x145;" horiz-adv-x="737" 
d="M21 0l124 700h151l224 -465v0l82 465h150l-124 -700h-150l-224 465v0l-82 -465h-151zM213 -293l11 59q26 0 41 16t21 48l2 16h-58l20 112h120q4 -29 3 -56t-5 -52q-12 -65 -51 -104t-104 -39z" />
    <glyph glyph-name="uni0146" unicode="&#x146;" horiz-adv-x="627" 
d="M21 0l87 496h131l1 -77v0q30 40 75.5 64.5t103.5 24.5q67 0 105 -29t50.5 -81t0.5 -123l-49 -275h-149l46 261q9 58 -7 89.5t-69 31.5q-32 0 -59 -15t-45.5 -42.5t-26.5 -66.5l-45 -258h-150zM157 -293l11 59q26 0 41 16t21 48l2 16h-58l20 112h120q4 -29 3 -56t-5 -52
q-12 -65 -51 -104t-104 -39z" />
    <glyph glyph-name="Ncaron" unicode="&#x147;" horiz-adv-x="737" 
d="M21 0l124 700h151l224 -465v0l82 465h150l-124 -700h-150l-224 465v0l-83 -465h-150zM641 949l-19 -105l-165 -84l-136 84l19 105l135 -87z" />
    <glyph glyph-name="ncaron" unicode="&#x148;" horiz-adv-x="627" 
d="M21 0l87 496h131l1 -77v0q30 40 75.5 64.5t103.5 24.5q67 0 105 -29t50.5 -81t0.5 -123l-49 -275h-149l46 261q9 58 -7 89.5t-69 31.5q-32 0 -59 -15t-45.5 -42.5t-26.5 -66.5l-45 -258h-150zM549 724l-19 -105l-166 -84l-135 84l18 105l135 -86z" />
    <glyph glyph-name="Eng" unicode="&#x14a;" horiz-adv-x="737" 
d="M22 0l123 700h150l226 -459v0l81 459h150l-131 -740q-11 -66 -41 -105.5t-74 -57t-100 -17.5h-63l22 127h41q31 0 46 12.5t20 39.5l7 41l-226 458v0l-81 -458h-150z" />
    <glyph glyph-name="eng" unicode="&#x14b;" horiz-adv-x="633" 
d="M21 0l87 496h131l-3 -81v0q31 41 78 67t107 26q63 0 102 -27.5t52 -79t-1 -126.5l-55 -315q-12 -66 -42 -105.5t-74 -57t-99 -17.5h-63l22 127h40q31 0 46.5 12.5t20.5 39.5l53 302q10 58 -7 89.5t-70 31.5q-31 0 -58.5 -15t-46 -43.5t-25.5 -68.5l-45 -255h-150z" />
    <glyph glyph-name="Omacron" unicode="&#x14c;" horiz-adv-x="808" 
d="M365 -12q-89 0 -158.5 39.5t-109 108.5t-39.5 156q0 88 32.5 164t90 134t134 90t164.5 32q90 0 159 -39.5t108.5 -108t39.5 -156.5q0 -87 -32.5 -163.5t-90.5 -134.5t-134 -90t-164 -32zM382 123q52 0 97 21t79.5 58t53.5 86.5t19 106.5q0 55 -18.5 95.5t-56.5 63
t-94 22.5q-52 0 -97 -20.5t-79.5 -57.5t-53.5 -86t-19 -107q0 -54 20 -95t58 -64t91 -23zM311 816l19 105h387l-18 -105h-388z" />
    <glyph glyph-name="omacron" unicode="&#x14d;" horiz-adv-x="620" 
d="M270 -12q-67 0 -116.5 29t-77.5 79.5t-28 114.5q0 63 22.5 117t63.5 94.5t95 63t118 22.5q66 0 116.5 -28t79 -78.5t28.5 -115.5q0 -63 -22.5 -117t-64 -95t-96 -63.5t-118.5 -22.5zM289 118q37 0 65.5 21t45.5 57.5t17 82.5q0 32 -11.5 54t-31 33.5t-44.5 11.5
q-36 0 -65 -21t-46 -57.5t-17 -82.5q0 -31 11.5 -53.5t31.5 -34t44 -11.5zM172 572l19 105h387l-18 -105h-388z" />
    <glyph glyph-name="Obreve" unicode="&#x14e;" horiz-adv-x="808" 
d="M365 -12q-89 0 -158.5 39.5t-109 108.5t-39.5 156q0 88 32.5 164t90 134t134 90t164.5 32q90 0 159 -39.5t108.5 -108t39.5 -156.5q0 -87 -32.5 -163.5t-90.5 -134.5t-134 -90t-164 -32zM382 123q52 0 97 21t79.5 58t53.5 86.5t19 106.5q0 55 -18.5 95.5t-56.5 63
t-94 22.5q-52 0 -97 -20.5t-79.5 -57.5t-53.5 -86t-19 -107q0 -54 20 -95t58 -64t91 -23zM495 770q-49 0 -82.5 19.5t-47.5 56t-4 87.5l4 18h76q-6 -33 9.5 -51.5t64.5 -18.5q48 0 70 18.5t29 51.5h76l-3 -19q-8 -51 -35 -87t-67 -55.5t-90 -19.5z" />
    <glyph glyph-name="obreve" unicode="&#x14f;" horiz-adv-x="620" 
d="M270 -12q-67 0 -116.5 29t-77.5 79.5t-28 114.5q0 63 22.5 117t63.5 94.5t95 63t118 22.5q66 0 116.5 -28t79 -78.5t28.5 -115.5q0 -63 -22.5 -117t-64 -95t-96 -63.5t-118.5 -22.5zM289 118q37 0 65.5 21t45.5 57.5t17 82.5q0 32 -11.5 54t-31 33.5t-44.5 11.5
q-36 0 -65 -21t-46 -57.5t-17 -82.5q0 -31 11.5 -53.5t31.5 -34t44 -11.5zM361 546q-49 0 -82.5 19.5t-47.5 56t-4 87.5l4 18h76q-6 -33 9.5 -51.5t64.5 -18.5q48 0 70 18.5t29 51.5h76l-3 -19q-8 -51 -35 -87t-67 -55.5t-90 -19.5z" />
    <glyph glyph-name="Ohungarumlaut" unicode="&#x150;" horiz-adv-x="808" 
d="M365 -12q-89 0 -158.5 39.5t-109 108.5t-39.5 156q0 88 32.5 164t90 134t134 90t164.5 32q90 0 159 -39.5t108.5 -108t39.5 -156.5q0 -87 -32.5 -163.5t-90.5 -134.5t-134 -90t-164 -32zM382 123q52 0 97 21t79.5 58t53.5 86.5t19 106.5q0 55 -18.5 95.5t-56.5 63
t-94 22.5q-52 0 -97 -20.5t-79.5 -57.5t-53.5 -86t-19 -107q0 -54 20 -95t58 -64t91 -23zM478 760l126 195h120l-152 -195h-94zM296 760l108 195h120l-134 -195h-94z" />
    <glyph glyph-name="ohungarumlaut" unicode="&#x151;" horiz-adv-x="620" 
d="M270 -12q-67 0 -116.5 29t-77.5 79.5t-28 114.5q0 63 22.5 117t63.5 94.5t95 63t118 22.5q66 0 116.5 -28t79 -78.5t28.5 -115.5q0 -63 -22.5 -117t-64 -95t-96 -63.5t-118.5 -22.5zM289 118q37 0 65.5 21t45.5 57.5t17 82.5q0 32 -11.5 54t-31 33.5t-44.5 11.5
q-36 0 -65 -21t-46 -57.5t-17 -82.5q0 -31 11.5 -53.5t31.5 -34t44 -11.5zM346 541l126 195h120l-152 -195h-94zM164 541l108 195h120l-134 -195h-94z" />
    <glyph glyph-name="OE" unicode="&#x152;" horiz-adv-x="1097" 
d="M343 -12q-85 0 -149 40.5t-99.5 110t-35.5 156.5q0 89 31.5 165t86.5 132.5t127 88t153 31.5q44 0 86 -12t75.5 -34t52.5 -52l16 86h438l-22 -121h-289l-28 -165h258l-20 -116h-259l-31 -177h288l-21 -121h-438l14 82q-29 -29 -68 -50t-82 -32.5t-84 -11.5zM381 123
q51 0 96 22t79 60.5t53.5 88.5t19.5 107q0 54 -22 93.5t-61 60.5t-88 21q-50 0 -94 -21t-77.5 -58t-53 -85.5t-19.5 -104.5t21.5 -97t59.5 -64t86 -23z" />
    <glyph glyph-name="oe" unicode="&#x153;" horiz-adv-x="982" 
d="M270 -12q-67 0 -116.5 29t-77.5 79.5t-28 114.5q0 63 22.5 117t63.5 94.5t95 63t118 22.5q55 0 99.5 -20.5t73.5 -57.5q40 37 93 57.5t116 20.5q66 0 114.5 -25.5t75 -71t26.5 -104.5q0 -17 -2.5 -35.5t-6 -34t-6.5 -26.5h-368q-2 -29 8.5 -52t32.5 -36t54 -13
q34 0 59 15t42 39h153q-23 -50 -65 -90t-95 -63t-113 -23q-57 0 -101 19t-72 52q-39 -33 -88.5 -52t-106.5 -19zM289 118q37 0 65.5 21t45.5 57.5t17 82.5q0 32 -11.5 54t-31 33.5t-44.5 11.5q-36 0 -65 -21t-46 -57.5t-17 -82.5q0 -31 11.5 -53.5t31.5 -34t44 -11.5z
M582 299h213q2 28 -8.5 48t-31 30.5t-46.5 10.5q-27 0 -51.5 -10t-44 -29.5t-31.5 -49.5z" />
    <glyph glyph-name="Racute" unicode="&#x154;" horiz-adv-x="639" 
d="M22 0l123 700h267q75 0 125 -26t74 -69t24 -93q0 -74 -37.5 -128.5t-104 -84.5t-153.5 -30h-121l-47 -269h-150zM389 0l-87 306h156l95 -306h-164zM239 377h113q58 0 93 32t35 87q0 35 -22.5 57t-71.5 22h-113zM255 753l19 104l255 119v0l-21 -118z" />
    <glyph glyph-name="racute" unicode="&#x155;" horiz-adv-x="414" 
d="M21 0l87 496h133l-1 -90v0q24 31 54.5 53.5t67.5 35.5t76 13l-28 -159h-41q-31 0 -57.5 -6t-47 -21t-34.5 -40.5t-21 -63.5l-38 -218h-150zM183 535l19 104l255 119v0l-21 -118z" />
    <glyph glyph-name="uni0156" unicode="&#x156;" horiz-adv-x="639" 
d="M22 0l123 700h267q75 0 125 -26t74 -69t24 -93q0 -74 -37.5 -128.5t-104 -84.5t-153.5 -30h-121l-47 -269h-150zM389 0l-87 306h156l95 -306h-164zM239 377h113q58 0 93 32t35 87q0 35 -22.5 57t-71.5 22h-113zM162 -293l11 59q26 0 41 16t21 48l2 16h-58l20 112h120
q4 -29 3 -56t-5 -52q-12 -65 -51 -104t-104 -39z" />
    <glyph glyph-name="uni0157" unicode="&#x157;" horiz-adv-x="414" 
d="M21 0l87 496h133l-1 -90v0q24 31 54.5 53.5t67.5 35.5t76 13l-28 -159h-41q-31 0 -57.5 -6t-47 -21t-34.5 -40.5t-21 -63.5l-38 -218h-150zM-19 -293l11 59q26 0 41 16t21 48l2 16h-58l20 112h120q4 -29 3 -56t-5 -52q-12 -65 -51 -104t-104 -39z" />
    <glyph glyph-name="Rcaron" unicode="&#x158;" horiz-adv-x="639" 
d="M22 0l123 700h267q75 0 125 -26t74 -69t24 -93q0 -74 -37.5 -128.5t-104 -84.5t-153.5 -30h-121l-47 -269h-150zM389 0l-87 306h156l95 -306h-164zM239 377h113q58 0 93 32t35 87q0 35 -22.5 57t-71.5 22h-113zM558 949l-19 -105l-166 -84l-135 84l19 105l135 -87z" />
    <glyph glyph-name="rcaron" unicode="&#x159;" horiz-adv-x="414" 
d="M21 0l87 496h133l-1 -90v0q24 31 54.5 53.5t67.5 35.5t76 13l-28 -159h-41q-31 0 -57.5 -6t-47 -21t-34.5 -40.5t-21 -63.5l-38 -218h-150zM485 724l-19 -105l-166 -84l-136 84l19 105l135 -86z" />
    <glyph glyph-name="Sacute" unicode="&#x15a;" horiz-adv-x="610" 
d="M271 -12q-77 0 -133.5 26t-84.5 76t-17 122h160q-4 -31 6.5 -53t33.5 -33.5t53 -11.5q32 0 56 11t36.5 31.5t12.5 46.5q0 19 -8.5 33t-24 25t-35 19.5t-43 16.5t-46.5 17q-66 23 -102.5 65.5t-36.5 101.5q0 70 36 121.5t99.5 80.5t144.5 29q71 0 121.5 -23.5t76 -69.5
t17.5 -113h-162q5 26 -4.5 44t-29.5 27t-45 9q-28 0 -48.5 -10t-32 -27t-11.5 -40q0 -16 7 -28.5t19 -22t29 -17.5t37 -15.5t42 -15.5q33 -12 62.5 -28.5t52.5 -39.5t36 -52.5t13 -66.5q0 -71 -37 -124t-102.5 -82t-147.5 -29zM276 753l19 104l255 119v0l-21 -118z" />
    <glyph glyph-name="sacute" unicode="&#x15b;" horiz-adv-x="545" 
d="M237 -12q-71 0 -120 24t-74 64.5t-21 89.5h149q0 -21 10 -36t29 -23t45 -8q24 0 40.5 7.5t25.5 19t9 26.5q0 13 -10.5 22t-28 15t-39.5 11q-33 8 -65 19.5t-58 27t-41 38t-15 53.5q0 50 29.5 88t82.5 60t120 22q93 0 146 -43t51 -115h-142q-3 21 -22.5 33.5t-49.5 12.5
t-49 -12.5t-19 -30.5q0 -12 11.5 -20.5t32 -14.5t47.5 -12q37 -10 68.5 -21t54.5 -26.5t36 -37t13 -51.5q0 -55 -32.5 -96.5t-88 -63.5t-125.5 -22zM199 535l19 104l255 119v0l-21 -118z" />
    <glyph glyph-name="Scedilla" unicode="&#x15e;" horiz-adv-x="610" 
d="M271 -12q-77 0 -133.5 26t-84.5 76t-17 122h160q-4 -31 6.5 -53t33.5 -33.5t53 -11.5q32 0 56 11t36.5 31.5t12.5 46.5q0 19 -8.5 33t-24 25t-35 19.5t-43 16.5t-46.5 17q-66 23 -102.5 65.5t-36.5 101.5q0 70 36 121.5t99.5 80.5t144.5 29q71 0 121.5 -23.5t76 -69.5
t17.5 -113h-162q5 26 -4.5 44t-29.5 27t-45 9q-28 0 -48.5 -10t-32 -27t-11.5 -40q0 -16 7 -28.5t19 -22t29 -17.5t37 -15.5t42 -15.5q33 -12 62.5 -28.5t52.5 -39.5t36 -52.5t13 -66.5q0 -71 -37 -124t-102.5 -82t-147.5 -29zM115 -265l16 84h120q25 0 39.5 8t14.5 26
q0 16 -10 21.5t-30 5.5h-68l23 127h92l-10 -50q29 0 54.5 -9t41.5 -29t16 -54q0 -40 -21.5 -69.5t-56.5 -45t-77 -15.5h-144z" />
    <glyph glyph-name="scedilla" unicode="&#x15f;" horiz-adv-x="545" 
d="M237 -12q-71 0 -120 24t-74 64.5t-21 89.5h149q0 -21 10 -36t29 -23t45 -8q24 0 40.5 7.5t25.5 19t9 26.5q0 13 -10.5 22t-28 15t-39.5 11q-33 8 -65 19.5t-58 27t-41 38t-15 53.5q0 50 29.5 88t82.5 60t120 22q93 0 146 -43t51 -115h-142q-3 21 -22.5 33.5t-49.5 12.5
t-49 -12.5t-19 -30.5q0 -12 11.5 -20.5t32 -14.5t47.5 -12q37 -10 68.5 -21t54.5 -26.5t36 -37t13 -51.5q0 -55 -32.5 -96.5t-88 -63.5t-125.5 -22zM82 -265l16 84h120q25 0 39.5 8t14.5 26q0 16 -10 21.5t-30 5.5h-68l23 127h92l-10 -50q29 0 54.5 -9t41.5 -29t16 -54
q0 -40 -21.5 -69.5t-56.5 -45t-77 -15.5h-144z" />
    <glyph glyph-name="Scaron" unicode="&#x160;" horiz-adv-x="610" 
d="M271 -12q-77 0 -133.5 26t-84.5 76t-17 122h160q-4 -31 6.5 -53t33.5 -33.5t53 -11.5q32 0 56 11t36.5 31.5t12.5 46.5q0 19 -8.5 33t-24 25t-35 19.5t-43 16.5t-46.5 17q-66 23 -102.5 65.5t-36.5 101.5q0 70 36 121.5t99.5 80.5t144.5 29q71 0 121.5 -23.5t76 -69.5
t17.5 -113h-162q5 26 -4.5 44t-29.5 27t-45 9q-28 0 -48.5 -10t-32 -27t-11.5 -40q0 -16 7 -28.5t19 -22t29 -17.5t37 -15.5t42 -15.5q33 -12 62.5 -28.5t52.5 -39.5t36 -52.5t13 -66.5q0 -71 -37 -124t-102.5 -82t-147.5 -29zM579 949l-19 -105l-166 -84l-135 84l18 105
l135 -87z" />
    <glyph glyph-name="scaron" unicode="&#x161;" horiz-adv-x="545" 
d="M237 -12q-71 0 -120 24t-74 64.5t-21 89.5h149q0 -21 10 -36t29 -23t45 -8q24 0 40.5 7.5t25.5 19t9 26.5q0 13 -10.5 22t-28 15t-39.5 11q-33 8 -65 19.5t-58 27t-41 38t-15 53.5q0 50 29.5 88t82.5 60t120 22q93 0 146 -43t51 -115h-142q-3 21 -22.5 33.5t-49.5 12.5
t-49 -12.5t-19 -30.5q0 -12 11.5 -20.5t32 -14.5t47.5 -12q37 -10 68.5 -21t54.5 -26.5t36 -37t13 -51.5q0 -55 -32.5 -96.5t-88 -63.5t-125.5 -22zM500 724l-18 -105l-166 -84l-136 84l19 105l135 -86z" />
    <glyph glyph-name="uni0162" unicode="&#x162;" horiz-adv-x="608" 
d="M185 0l103 582h-204l21 118h557l-21 -118h-204l-103 -582h-149zM109 -265l16 84h120q25 0 39.5 8t14.5 26q0 16 -10 21.5t-30 5.5h-68l23 127h92l-10 -50q29 0 54.5 -9t41.5 -29t16 -54q0 -40 -21.5 -69.5t-56.5 -45t-77 -15.5h-144z" />
    <glyph glyph-name="uni0163" unicode="&#x163;" horiz-adv-x="436" 
d="M252 0q-64 0 -102 20.5t-50 62t-2 101.5l34 187h-82l22 125h82l41 139h134l-25 -139h128l-22 -125h-128l-34 -188q-5 -32 9 -44t41 -12h70l-23 -127h-93zM85 -265l16 84h120q25 0 39.5 8t14.5 26q0 16 -10 21.5t-30 5.5h-68l23 127h92l-10 -50q29 0 54.5 -9t41.5 -29
t16 -54q0 -40 -21.5 -69.5t-56.5 -45t-77 -15.5h-144z" />
    <glyph glyph-name="Tcaron" unicode="&#x164;" horiz-adv-x="608" 
d="M185 0l103 582h-204l21 118h557l-21 -118h-203l-103 -582h-150zM575 928l-18 -105l-166 -84l-136 84l19 105l135 -86z" />
    <glyph glyph-name="tcaron" unicode="&#x165;" horiz-adv-x="436" 
d="M252 0q-64 0 -102 20.5t-50 62t-2 101.5l34 187h-82l22 125h82l41 139h134l-25 -139h128l-22 -125h-128l-34 -188q-5 -32 9 -44t41 -12h70l-23 -127h-93zM365 547l10 59q24 0 37 8.5t17 27.5l2 18h-46l20 113h110q2 -30 1 -53.5t-6 -48.5q-10 -58 -46.5 -91t-98.5 -33z
" />
    <glyph glyph-name="Utilde" unicode="&#x168;" horiz-adv-x="694" 
d="M299 -12q-87 0 -144.5 34.5t-80 98.5t-7.5 152l74 427h150l-75 -427q-8 -45 0.5 -78t35.5 -50.5t74 -17.5q43 0 76.5 16.5t55 49.5t30.5 80l75 427h150l-75 -427q-17 -97 -67 -160t-120.5 -94t-151.5 -31zM257 770q24 72 63.5 104t88.5 32q29 0 48 -11.5t35 -22.5t36 -11
q17 0 30.5 11t20.5 34h79q-24 -72 -63.5 -104.5t-88.5 -32.5q-30 0 -49 11.5t-34.5 23t-35.5 11.5q-17 0 -30.5 -11t-21.5 -34h-78z" />
    <glyph glyph-name="utilde" unicode="&#x169;" horiz-adv-x="627" 
d="M208 -12q-66 0 -104.5 29t-50.5 81.5t-1 122.5l49 275h149l-46 -261q-9 -57 7 -89t69 -32q32 0 59 15t46 43t26 66l45 258h150l-87 -496h-131l-1 77v0q-30 -40 -75 -64.5t-104 -24.5zM178 550q24 72 63.5 104t88.5 32q29 0 48 -11.5t35 -22.5t36 -11q17 0 30.5 11
t20.5 34h79q-24 -72 -63.5 -104.5t-88.5 -32.5q-30 0 -49 11.5t-34.5 23t-35.5 11.5q-17 0 -30.5 -11t-21.5 -34h-78z" />
    <glyph glyph-name="Umacron" unicode="&#x16a;" horiz-adv-x="694" 
d="M299 -12q-87 0 -144.5 34.5t-80 98.5t-7.5 152l74 427h150l-75 -427q-8 -45 0.5 -78t35.5 -50.5t74 -17.5q43 0 76.5 16.5t55 49.5t30.5 80l75 427h150l-75 -427q-17 -97 -67 -160t-120.5 -94t-151.5 -31zM260 816l19 105h387l-18 -105h-388z" />
    <glyph glyph-name="umacron" unicode="&#x16b;" horiz-adv-x="627" 
d="M208 -12q-66 0 -104.5 29t-50.5 81.5t-1 122.5l49 275h149l-46 -261q-9 -57 7 -89t69 -32q32 0 59 15t46 43t26 66l45 258h150l-87 -496h-131l-1 77v0q-30 -40 -75 -64.5t-104 -24.5zM176 572l19 105h387l-18 -105h-388z" />
    <glyph glyph-name="Ubreve" unicode="&#x16c;" horiz-adv-x="694" 
d="M299 -12q-87 0 -144.5 34.5t-80 98.5t-7.5 152l74 427h150l-75 -427q-8 -45 0.5 -78t35.5 -50.5t74 -17.5q43 0 76.5 16.5t55 49.5t30.5 80l75 427h150l-75 -427q-17 -97 -67 -160t-120.5 -94t-151.5 -31zM445 770q-49 0 -82.5 19.5t-47.5 56t-4 87.5l4 18h76
q-6 -33 9.5 -51.5t64.5 -18.5q48 0 70 18.5t29 51.5h76l-3 -19q-8 -51 -35 -87t-67 -55.5t-90 -19.5z" />
    <glyph glyph-name="ubreve" unicode="&#x16d;" horiz-adv-x="627" 
d="M208 -12q-66 0 -104.5 29t-50.5 81.5t-1 122.5l49 275h149l-46 -261q-9 -57 7 -89t69 -32q32 0 59 15t46 43t26 66l45 258h150l-87 -496h-131l-1 77v0q-30 -40 -75 -64.5t-104 -24.5zM365 546q-49 0 -82.5 19.5t-47.5 56t-4 87.5l4 18h76q-6 -33 9.5 -51.5t64.5 -18.5
q48 0 70 18.5t29 51.5h76l-3 -19q-8 -51 -35 -87t-67 -55.5t-90 -19.5z" />
    <glyph glyph-name="Uring" unicode="&#x16e;" horiz-adv-x="694" 
d="M299 -12q-87 0 -144.5 34.5t-80 98.5t-7.5 152l74 427h150l-75 -427q-8 -45 0.5 -78t35.5 -50.5t74 -17.5q43 0 76.5 16.5t55 49.5t30.5 80l75 427h150l-75 -427q-17 -97 -67 -160t-120.5 -94t-151.5 -31zM466 770q-48 0 -83 31t-35 85q0 55 35 86t83 31q49 0 84 -31
t35 -86q0 -54 -35 -85t-84 -31zM466 835q21 0 35.5 14t14.5 38t-14.5 37.5t-35.5 13.5q-20 0 -35 -13.5t-15 -37.5t15 -38t35 -14z" />
    <glyph glyph-name="uring" unicode="&#x16f;" horiz-adv-x="627" 
d="M208 -12q-66 0 -104.5 29t-50.5 81.5t-1 122.5l49 275h149l-46 -261q-9 -57 7 -89t69 -32q32 0 59 15t46 43t26 66l45 258h150l-87 -496h-131l-1 77v0q-30 -40 -75 -64.5t-104 -24.5zM385 542q-48 0 -83 31t-35 85q0 55 35 86t83 31q49 0 84 -31t35 -86q0 -54 -35 -85
t-84 -31zM385 607q21 0 35.5 14t14.5 38t-14.5 37.5t-35.5 13.5q-20 0 -35 -13.5t-15 -37.5t15 -38t35 -14z" />
    <glyph glyph-name="Uhungarumlaut" unicode="&#x170;" horiz-adv-x="694" 
d="M299 -12q-87 0 -144.5 34.5t-80 98.5t-7.5 152l74 427h150l-75 -427q-8 -45 0.5 -78t35.5 -50.5t74 -17.5q43 0 76.5 16.5t55 49.5t30.5 80l75 427h150l-75 -427q-17 -97 -67 -160t-120.5 -94t-151.5 -31zM427 760l126 195h120l-152 -195h-94zM245 760l108 195h120
l-134 -195h-94z" />
    <glyph glyph-name="uhungarumlaut" unicode="&#x171;" horiz-adv-x="627" 
d="M208 -12q-66 0 -104.5 29t-50.5 81.5t-1 122.5l49 275h149l-46 -261q-9 -57 7 -89t69 -32q32 0 59 15t46 43t26 66l45 258h150l-87 -496h-131l-1 77v0q-30 -40 -75 -64.5t-104 -24.5zM350 541l126 195h120l-152 -195h-94zM168 541l108 195h120l-134 -195h-94z" />
    <glyph glyph-name="Uogonek" unicode="&#x172;" horiz-adv-x="694" 
d="M299 -12q-87 0 -144.5 34.5t-80 98.5t-7.5 152l74 427h150l-75 -427q-8 -45 0.5 -78t35.5 -50.5t74 -17.5q43 0 76.5 16.5t55 49.5t30.5 80l75 427h150l-75 -427q-17 -97 -67 -160t-120.5 -94t-151.5 -31zM304 -204q-38 0 -68 12t-44.5 36.5t-8.5 61.5q6 28 23.5 54
t55 51t100.5 49l46 19l20 -69l-52 -24q-40 -19 -57.5 -34t-20.5 -33q-4 -17 7 -27t34 -10q15 0 34.5 4t41.5 11l-15 -86q-21 -7 -45.5 -11t-50.5 -4z" />
    <glyph glyph-name="uogonek" unicode="&#x173;" horiz-adv-x="627" 
d="M208 -12q-66 0 -104.5 29t-50.5 81.5t-1 122.5l49 275h149l-46 -261q-9 -57 7 -89t69 -32q32 0 59 15t46 43t26 66l45 258h150l-87 -496h-131l-1 77v0q-30 -40 -75 -64.5t-104 -24.5zM395 -214q-38 0 -68 12t-44.5 36.5t-8.5 61.5q6 28 23.5 54t55 51t100.5 49l46 19
l20 -69l-52 -24q-40 -19 -57.5 -34t-20.5 -33q-4 -17 7 -27t34 -10q15 0 34.5 4t41.5 11l-15 -86q-21 -7 -45.5 -11t-50.5 -4z" />
    <glyph glyph-name="Wcircumflex" unicode="&#x174;" horiz-adv-x="1029" 
d="M161 0l-57 700h161l19 -530v0l229 530h167l37 -528v0l206 528h162l-309 -700h-181l-39 489v0l-215 -489h-180zM458 760l19 106l165 83l136 -83l-19 -106l-135 87z" />
    <glyph glyph-name="wcircumflex" unicode="&#x175;" horiz-adv-x="827" 
d="M116 0l-59 496h148l23 -415l-37 1l184 414h165l39 -414l-37 -1l168 415h147l-232 -496h-156l-45 425h42l-194 -425h-156zM314 537l19 106l165 83l136 -83l-19 -106l-135 87z" />
    <glyph glyph-name="Ycircumflex" unicode="&#x176;" horiz-adv-x="650" 
d="M207 0l43 240l-159 460h171l99 -338l-27 4l216 334h169l-319 -460l-43 -240h-150zM269 760l19 106l165 83l136 -83l-19 -106l-135 87z" />
    <glyph glyph-name="ycircumflex" unicode="&#x177;" horiz-adv-x="618" 
d="M47 -220l154 246h-30l-109 470h163l69 -330v0l188 330h161l-436 -716h-160zM210 537l19 106l165 83l136 -83l-19 -106l-135 87z" />
    <glyph glyph-name="Ydieresis" unicode="&#x178;" horiz-adv-x="650" 
d="M207 0l43 240l-159 460h171l99 -338l-27 4l216 334h169l-319 -460l-43 -240h-150zM341 766q-29 0 -48 19.5t-19 48.5t19 48.5t48 19.5t48.5 -19.5t19.5 -48.5t-19.5 -48.5t-48.5 -19.5zM532 766q-29 0 -48.5 19.5t-19.5 48.5t19.5 48.5t48.5 19.5t48.5 -19.5t19.5 -48.5
t-19.5 -48.5t-48.5 -19.5z" />
    <glyph glyph-name="Zacute" unicode="&#x179;" horiz-adv-x="581" 
d="M5 0l20 115l392 461h-310l23 124h482l-21 -115l-394 -461h314l-22 -124h-484zM267 753l19 104l255 119v0l-21 -118z" />
    <glyph glyph-name="zacute" unicode="&#x17a;" horiz-adv-x="496" 
d="M-13 0l22 120l295 252h-239l22 124h411l-22 -120l-299 -252h252l-23 -124h-419zM181 535l19 104l255 119v0l-21 -118z" />
    <glyph glyph-name="Zdotaccent" unicode="&#x17b;" horiz-adv-x="581" 
d="M5 0l20 115l392 461h-310l23 124h482l-21 -115l-394 -461h314l-22 -124h-484zM400 765q-28 0 -47.5 19.5t-19.5 47.5q0 30 19.5 49.5t47.5 19.5q30 0 49 -19.5t19 -49.5q0 -28 -19 -47.5t-49 -19.5z" />
    <glyph glyph-name="zdotaccent" unicode="&#x17c;" horiz-adv-x="496" 
d="M-13 0l22 120l295 252h-239l22 124h411l-22 -120l-299 -252h252l-23 -124h-419zM313 559q-28 0 -47.5 19.5t-19.5 47.5q0 30 19.5 49.5t47.5 19.5q30 0 49 -19.5t19 -49.5q0 -28 -19 -47.5t-49 -19.5z" />
    <glyph glyph-name="Zcaron" unicode="&#x17d;" horiz-adv-x="581" 
d="M5 0l20 115l392 461h-310l23 124h482l-21 -115l-394 -461h314l-22 -124h-484zM570 949l-19 -105l-165 -84l-136 84l19 105l135 -87z" />
    <glyph glyph-name="zcaron" unicode="&#x17e;" horiz-adv-x="496" 
d="M-13 0l22 120l295 252h-239l22 124h411l-22 -120l-299 -252h252l-23 -124h-419zM482 724l-19 -105l-165 -84l-136 84l19 105l135 -86z" />
    <glyph glyph-name="uni018F" unicode="&#x18f;" horiz-adv-x="772" 
d="M337 -12q-65 0 -117.5 20.5t-90 58.5t-57.5 91t-19 117q1 28 6 59t15 61h544l-18 -102h-393q-6 -53 9.5 -90t51.5 -57.5t89 -20.5q42 0 79.5 13.5t68.5 38.5t51.5 61t26.5 80l11 69q8 58 -8.5 100.5t-53 66t-90.5 23.5q-59 0 -109.5 -28.5t-75.5 -77.5h-164
q32 73 86.5 127t127 84t155.5 30q88 0 153 -36.5t101.5 -99.5t36.5 -143q0 -92 -30 -173t-85.5 -142t-132 -95.5t-168.5 -34.5z" />
    <glyph glyph-name="florin" unicode="&#x192;" horiz-adv-x="336" 
d="M-146 -248l35 127h27q19 0 31 11t19 35l186 658q30 103 99.5 149.5t187.5 46.5l-34 -127q-44 0 -68.5 -15.5t-34.5 -53.5l-185 -658q-19 -66 -53 -104t-80 -53.5t-103 -15.5h-27zM52 431l34 125h299l-35 -125h-298z" />
    <glyph glyph-name="AEacute" unicode="&#x1fc;" horiz-adv-x="953" 
d="M-25 0l494 700h512l-21 -119h-262l-30 -167h232l-19 -114h-232l-32 -181h261l-21 -119h-412l104 587v0l-410 -587h-164zM142 128l85 115h333l-21 -115h-397zM532 753l19 104l255 119v0l-21 -118z" />
    <glyph glyph-name="aeacute" unicode="&#x1fd;" horiz-adv-x="964" 
d="M209 -12q-56 0 -96.5 15t-62 43.5t-21.5 69.5q0 52 30 91t84.5 61t128.5 22h136q6 31 1 53t-22.5 33t-50.5 11q-35 0 -63 -15t-40 -46h-144q15 55 53 95.5t94 63.5t122 23q38 0 69.5 -6.5t56.5 -20.5t42 -33q39 29 86 44.5t100 15.5q65 0 113.5 -25.5t75 -71t26.5 -104.5
q0 -17 -3 -37.5t-6.5 -37t-5.5 -21.5h-367q-3 -27 7 -50t32 -37t56 -14q38 0 65 19t43 44h150q-22 -52 -64 -94t-97 -66.5t-117 -24.5q-64 0 -112.5 25.5t-75.5 68.5q-27 -30 -63 -51t-76.5 -32t-83.5 -11zM249 102q31 0 56 12.5t44.5 33.5t31.5 48l1 6h-107q-25 0 -44 -7
t-29.5 -20t-10.5 -30q0 -14 8 -23.5t21 -14.5t29 -5zM564 299h213q3 27 -7.5 46.5t-30.5 31t-47 11.5q-28 0 -52.5 -10t-44 -29.5t-31.5 -49.5zM416 535l19 104l255 119v0l-21 -118z" />
    <glyph glyph-name="uni0218" unicode="&#x218;" horiz-adv-x="610" 
d="M271 -12q-77 0 -133.5 26t-84.5 76t-17 122h160q-4 -31 6.5 -53t33.5 -33.5t53 -11.5q32 0 56 11t36.5 31.5t12.5 46.5q0 19 -8.5 33t-24 25t-35 19.5t-43 16.5t-46.5 17q-66 23 -102.5 65.5t-36.5 101.5q0 70 36 121.5t99.5 80.5t144.5 29q71 0 121.5 -23.5t76 -69.5
t17.5 -113h-162q5 26 -4.5 44t-29.5 27t-45 9q-28 0 -48.5 -10t-32 -27t-11.5 -40q0 -16 7 -28.5t19 -22t29 -17.5t37 -15.5t42 -15.5q33 -12 62.5 -28.5t52.5 -39.5t36 -52.5t13 -66.5q0 -71 -37 -124t-102.5 -82t-147.5 -29zM150 -293l11 59q26 0 41 16t21 48l2 16h-58
l20 112h120q4 -29 3 -56t-5 -52q-12 -65 -51 -104t-104 -39z" />
    <glyph glyph-name="uni0219" unicode="&#x219;" horiz-adv-x="545" 
d="M237 -12q-71 0 -120 24t-74 64.5t-21 89.5h149q0 -21 10 -36t29 -23t45 -8q24 0 40.5 7.5t25.5 19t9 26.5q0 13 -10.5 22t-28 15t-39.5 11q-33 8 -65 19.5t-58 27t-41 38t-15 53.5q0 50 29.5 88t82.5 60t120 22q93 0 146 -43t51 -115h-142q-3 21 -22.5 33.5t-49.5 12.5
t-49 -12.5t-19 -30.5q0 -12 11.5 -20.5t32 -14.5t47.5 -12q37 -10 68.5 -21t54.5 -26.5t36 -37t13 -51.5q0 -55 -32.5 -96.5t-88 -63.5t-125.5 -22zM121 -293l11 59q26 0 41 16t21 48l2 16h-58l20 112h120q4 -29 3 -56t-5 -52q-12 -65 -51 -104t-104 -39z" />
    <glyph glyph-name="uni021A" unicode="&#x21a;" horiz-adv-x="608" 
d="M185 0l103 582h-204l21 118h557l-21 -118h-204l-103 -582h-149zM148 -293l11 59q26 0 41 16t21 48l2 16h-58l20 112h120q4 -29 3 -56t-5 -52q-12 -65 -51 -104t-104 -39z" />
    <glyph glyph-name="uni021B" unicode="&#x21b;" horiz-adv-x="436" 
d="M252 0q-64 0 -102 20.5t-50 62t-2 101.5l34 187h-82l22 125h82l41 139h134l-25 -139h128l-22 -125h-128l-34 -188q-5 -32 9 -44t41 -12h70l-23 -127h-93zM124 -293l11 59q26 0 41 16t21 48l2 16h-58l20 112h120q4 -29 3 -56t-5 -52q-12 -65 -51 -104t-104 -39z" />
    <glyph glyph-name="uni0237" unicode="&#x237;" horiz-adv-x="279" 
d="M-113 -220l23 127h40q31 0 46 12.5t19 39.5l95 537h150l-95 -536q-12 -66 -41.5 -105.5t-74 -57t-99.5 -17.5h-63z" />
    <glyph glyph-name="uni0259" unicode="&#x259;" horiz-adv-x="615" 
d="M345 508q69 0 119 -26t77 -73.5t27 -112.5q0 -62 -22 -117.5t-64 -98.5t-99.5 -67.5t-128.5 -24.5q-66 0 -114.5 25.5t-75 71t-26.5 104.5q0 26 4.5 51.5t10.5 44.5h410l-16 -88h-259q-2 -28 8.5 -48t31 -30.5t45.5 -10.5q34 0 62.5 14.5t49.5 44.5t29 74l5 29
q6 34 -3.5 60.5t-32.5 41t-58 14.5q-31 0 -56 -14t-41 -36h-154q24 49 65 88t94 61.5t112 22.5z" />
    <glyph glyph-name="circumflex" unicode="&#x2c6;" horiz-adv-x="302" 
d="M51 537l19 106l165 83l136 -83l-19 -106l-135 87z" />
    <glyph glyph-name="caron" unicode="&#x2c7;" horiz-adv-x="302" 
d="M386 724l-19 -105l-166 -84l-135 84l19 105l134 -86z" />
    <glyph glyph-name="breve" unicode="&#x2d8;" horiz-adv-x="327" 
d="M215 546q-49 0 -82.5 19.5t-47.5 56t-4 87.5l4 18h76q-6 -33 9.5 -51.5t64.5 -18.5q48 0 70 18.5t29 51.5h76l-3 -19q-8 -51 -35 -87t-67 -55.5t-90 -19.5z" />
    <glyph glyph-name="dotaccent" unicode="&#x2d9;" horiz-adv-x="138" 
d="M135 559q-28 0 -47.5 19.5t-19.5 47.5q0 30 19.5 49.5t47.5 19.5q30 0 49 -19.5t19 -49.5q0 -28 -19 -47.5t-49 -19.5z" />
    <glyph glyph-name="ring" unicode="&#x2da;" horiz-adv-x="241" 
d="M193 542q-48 0 -83 31t-35 85q0 55 35 86t83 31q49 0 84 -31t35 -86q0 -54 -35 -85t-84 -31zM193 607q21 0 35.5 14t14.5 38t-14.5 37.5t-35.5 13.5q-20 0 -35 -13.5t-15 -37.5t15 -38t35 -14z" />
    <glyph glyph-name="ogonek" unicode="&#x2db;" horiz-adv-x="233" 
d="M59 -214q-38 0 -68 12t-44.5 36.5t-8.5 61.5q6 28 23.5 54t55 51t100.5 49l46 19l20 -69l-52 -24q-40 -19 -57.5 -34t-20.5 -33q-4 -17 7 -27t34 -10q15 0 34.5 4t41.5 11l-15 -86q-21 -7 -45.5 -11t-50.5 -4z" />
    <glyph glyph-name="tilde" unicode="&#x2dc;" horiz-adv-x="376" 
d="M53 550q24 72 63.5 104t88.5 32q29 0 48 -11.5t35 -22.5t36 -11q17 0 30.5 11t20.5 34h79q-24 -72 -63.5 -104.5t-88.5 -32.5q-30 0 -49 11.5t-34.5 23t-35.5 11.5q-17 0 -30.5 -11t-21.5 -34h-78z" />
    <glyph glyph-name="hungarumlaut" unicode="&#x2dd;" horiz-adv-x="393" 
d="M233 541l126 195h120l-152 -195h-94zM51 541l108 195h120l-134 -195h-94z" />
    <glyph glyph-name="gravecomb" unicode="&#x300;" 
d="M284 535l-214 105l20 118v0l213 -119z" />
    <glyph glyph-name="acutecomb" unicode="&#x301;" 
d="M50 535l19 104l255 119v0l-21 -118z" />
    <glyph glyph-name="uni0302" unicode="&#x302;" 
d="M51 537l19 106l165 83l136 -83l-19 -106l-135 87z" />
    <glyph glyph-name="tildecomb" unicode="&#x303;" 
d="M53 550q24 72 63.5 104t88.5 32q29 0 48 -11.5t35 -22.5t36 -11q17 0 30.5 11t20.5 34h79q-24 -72 -63.5 -104.5t-88.5 -32.5q-30 0 -49 11.5t-34.5 23t-35.5 11.5q-17 0 -30.5 -11t-21.5 -34h-78z" />
    <glyph glyph-name="uni0304" unicode="&#x304;" 
d="M57 572l19 105h387l-18 -105h-388z" />
    <glyph glyph-name="uni0306" unicode="&#x306;" 
d="M215 546q-49 0 -82.5 19.5t-47.5 56t-4 87.5l4 18h76q-6 -33 9.5 -51.5t64.5 -18.5q48 0 70 18.5t29 51.5h76l-3 -19q-8 -51 -35 -87t-67 -55.5t-90 -19.5z" />
    <glyph glyph-name="uni0307" unicode="&#x307;" 
d="M135 559q-28 0 -47.5 19.5t-19.5 47.5q0 30 19.5 49.5t47.5 19.5q30 0 49 -19.5t19 -49.5q0 -28 -19 -47.5t-49 -19.5z" />
    <glyph glyph-name="uni0308" unicode="&#x308;" 
d="M136 561q-29 0 -48 19.5t-19 48.5t19 48.5t48 19.5t48.5 -19.5t19.5 -48.5t-19.5 -48.5t-48.5 -19.5zM327 561q-29 0 -48.5 19.5t-19.5 48.5t19.5 48.5t48.5 19.5t48.5 -19.5t19.5 -48.5t-19.5 -48.5t-48.5 -19.5z" />
    <glyph glyph-name="uni030A" unicode="&#x30a;" 
d="M193 542q-48 0 -83 31t-35 85q0 55 35 86t83 31q49 0 84 -31t35 -86q0 -54 -35 -85t-84 -31zM193 607q21 0 35.5 14t14.5 38t-14.5 37.5t-35.5 13.5q-20 0 -35 -13.5t-15 -37.5t15 -38t35 -14z" />
    <glyph glyph-name="uni030B" unicode="&#x30b;" 
d="M233 541l126 195h120l-152 -195h-94zM51 541l108 195h120l-134 -195h-94z" />
    <glyph glyph-name="uni030C" unicode="&#x30c;" 
d="M386 724l-19 -105l-166 -84l-135 84l19 105l134 -86z" />
    <glyph glyph-name="uni0312" unicode="&#x312;" 
d="M218 784l-10 -59q-23 0 -36.5 -8.5t-17.5 -27.5l-2 -18h47l-21 -113h-110q-1 31 0 54t5 48q11 58 47 91t98 33z" />
    <glyph glyph-name="uni0326" unicode="&#x326;" 
d="M-87 -293l11 59q26 0 41 16t21 48l2 16h-58l20 112h120q4 -29 3 -56t-5 -52q-12 -65 -51 -104t-104 -39z" />
    <glyph glyph-name="uni0327" unicode="&#x327;" 
d="M-91 -265l16 84h120q25 0 39.5 8t14.5 26q0 16 -10 21.5t-30 5.5h-68l23 127h92l-10 -50q29 0 54.5 -9t41.5 -29t16 -54q0 -40 -21.5 -69.5t-56.5 -45t-77 -15.5h-144z" />
    <glyph glyph-name="uni0328" unicode="&#x328;" 
d="M59 -214q-38 0 -68 12t-44.5 36.5t-8.5 61.5q6 28 23.5 54t55 51t100.5 49l46 19l20 -69l-52 -24q-40 -19 -57.5 -34t-20.5 -33q-4 -17 7 -27t34 -10q15 0 34.5 4t41.5 11l-15 -86q-21 -7 -45.5 -11t-50.5 -4z" />
    <glyph glyph-name="pi" unicode="&#x3c0;" horiz-adv-x="647" 
d="M54 0l68 381h-72l20 115h594l-20 -115h-72l-68 -381h-150l68 381h-150l-68 -381h-150z" />
    <glyph glyph-name="Wgrave" unicode="&#x1e80;" horiz-adv-x="1029" 
d="M161 0l-57 700h161l19 -530v0l229 530h167l37 -528v0l206 528h162l-309 -700h-181l-39 489v0l-215 -489h-180zM725 753l-214 105l20 118v0l213 -119z" />
    <glyph glyph-name="wgrave" unicode="&#x1e81;" horiz-adv-x="827" 
d="M116 0l-59 496h148l23 -415l-37 1l184 414h165l39 -414l-37 -1l168 415h147l-232 -496h-156l-45 425h42l-194 -425h-156zM580 535l-214 105l20 118v0l213 -119z" />
    <glyph glyph-name="Wacute" unicode="&#x1e82;" horiz-adv-x="1029" 
d="M161 0l-57 700h161l19 -530v0l229 530h167l37 -528v0l206 528h162l-309 -700h-181l-39 489v0l-215 -489h-180zM491 753l19 104l255 119v0l-21 -118z" />
    <glyph glyph-name="wacute" unicode="&#x1e83;" horiz-adv-x="827" 
d="M116 0l-59 496h148l23 -415l-37 1l184 414h165l39 -414l-37 -1l168 415h147l-232 -496h-156l-45 425h42l-194 -425h-156zM347 535l19 104l255 119v0l-21 -118z" />
    <glyph glyph-name="Wdieresis" unicode="&#x1e84;" horiz-adv-x="1029" 
d="M161 0l-57 700h161l19 -530v0l229 530h167l37 -528v0l206 528h162l-309 -700h-181l-39 489v0l-215 -489h-180zM530 766q-29 0 -48 19.5t-19 48.5t19 48.5t48 19.5t48.5 -19.5t19.5 -48.5t-19.5 -48.5t-48.5 -19.5zM721 766q-29 0 -48.5 19.5t-19.5 48.5t19.5 48.5
t48.5 19.5t48.5 -19.5t19.5 -48.5t-19.5 -48.5t-48.5 -19.5z" />
    <glyph glyph-name="wdieresis" unicode="&#x1e85;" horiz-adv-x="827" 
d="M116 0l-59 496h148l23 -415l-37 1l184 414h165l39 -414l-37 -1l168 415h147l-232 -496h-156l-45 425h42l-194 -425h-156zM385 561q-29 0 -48 19.5t-19 48.5t19 48.5t48 19.5t48.5 -19.5t19.5 -48.5t-19.5 -48.5t-48.5 -19.5zM576 561q-29 0 -48.5 19.5t-19.5 48.5
t19.5 48.5t48.5 19.5t48.5 -19.5t19.5 -48.5t-19.5 -48.5t-48.5 -19.5z" />
    <glyph glyph-name="uni1E9E" unicode="&#x1e9e;" horiz-adv-x="746" 
d="M436 -6q-108 0 -156.5 58.5t-29.5 169.5h147q-5 -30 -2 -53.5t18.5 -36.5t45.5 -13q29 0 48 13t30.5 36.5t17.5 53.5q10 60 -14 87t-81 27h-106l18 98l157 138h-201q-31 0 -45.5 -12t-20.5 -40l-91 -520h-150l91 520q12 66 42 105.5t74 57t99 17.5h398l-20 -113
l-181 -156h13q64 0 102.5 -27.5t53 -74.5t4.5 -106q-13 -73 -47.5 -124.5t-88.5 -78t-125 -26.5z" />
    <glyph glyph-name="uni1EBC" unicode="&#x1ebc;" horiz-adv-x="563" 
d="M21 0l124 700h447l-22 -119h-296l-30 -168h267l-20 -114h-267l-32 -180h297l-21 -119h-447zM188 770q24 72 63.5 104t88.5 32q29 0 48 -11.5t35 -22.5t36 -11q17 0 30.5 11t20.5 34h79q-24 -72 -63.5 -104.5t-88.5 -32.5q-30 0 -49 11.5t-34.5 23t-35.5 11.5
q-17 0 -30.5 -11t-21.5 -34h-78z" />
    <glyph glyph-name="uni1EBD" unicode="&#x1ebd;" horiz-adv-x="615" 
d="M270 -12q-69 0 -119 26t-77 74t-27 112q0 62 22 117.5t64 98.5t99.5 67.5t128.5 24.5q66 0 114.5 -25.5t75 -71t26.5 -104.5q0 -26 -4.5 -51t-10.5 -45h-410l16 88h259q3 28 -8 48t-31 30.5t-46 10.5q-33 0 -62 -14.5t-50 -44t-29 -74.5l-5 -29q-5 -34 4 -60t32 -41
t58 -15q32 0 57 14t40 36h154q-23 -49 -64.5 -88t-94 -61.5t-112.5 -22.5zM179 550q24 72 63.5 104t88.5 32q29 0 48 -11.5t35 -22.5t36 -11q17 0 30.5 11t20.5 34h79q-24 -72 -63.5 -104.5t-88.5 -32.5q-30 0 -49 11.5t-34.5 23t-35.5 11.5q-17 0 -30.5 -11t-21.5 -34h-78z
" />
    <glyph glyph-name="Ygrave" unicode="&#x1ef2;" horiz-adv-x="650" 
d="M207 0l43 240l-159 460h171l99 -338l-27 4l216 334h169l-319 -460l-43 -240h-150zM537 753l-214 105l20 118v0l213 -119z" />
    <glyph glyph-name="ygrave" unicode="&#x1ef3;" horiz-adv-x="618" 
d="M47 -220l154 246h-30l-109 470h163l69 -330v0l188 330h161l-436 -716h-160zM476 535l-214 105l20 118v0l213 -119z" />
    <glyph glyph-name="uni1EF8" unicode="&#x1ef8;" horiz-adv-x="650" 
d="M207 0l43 240l-159 460h171l99 -338l-27 4l216 334h169l-319 -460l-43 -240h-150zM236 770q24 72 63.5 104t88.5 32q29 0 48 -11.5t35 -22.5t36 -11q17 0 30.5 11t20.5 34h79q-24 -72 -63.5 -104.5t-88.5 -32.5q-30 0 -49 11.5t-34.5 23t-35.5 11.5q-17 0 -30.5 -11
t-21.5 -34h-78z" />
    <glyph glyph-name="uni1EF9" unicode="&#x1ef9;" horiz-adv-x="618" 
d="M47 -220l154 246h-30l-109 470h163l69 -330v0l188 330h161l-436 -716h-160zM174 550q24 72 63.5 104t88.5 32q29 0 48 -11.5t35 -22.5t36 -11q17 0 30.5 11t20.5 34h79q-24 -72 -63.5 -104.5t-88.5 -32.5q-30 0 -49 11.5t-34.5 23t-35.5 11.5q-17 0 -30.5 -11t-21.5 -34
h-78z" />
    <glyph glyph-name="endash" unicode="&#x2013;" horiz-adv-x="652" 
d="M75 227l22 125h547l-22 -125h-547z" />
    <glyph glyph-name="emdash" unicode="&#x2014;" horiz-adv-x="880" 
d="M75 227l22 125h775l-22 -125h-775z" />
    <glyph glyph-name="quoteleft" unicode="&#x2018;" horiz-adv-x="289" 
d="M73 443l153 257h101l-98 -257h-156z" />
    <glyph glyph-name="quoteright" unicode="&#x2019;" horiz-adv-x="289" 
d="M329 700l-153 -257h-101l99 257h155z" />
    <glyph glyph-name="quotesinglbase" unicode="&#x201a;" horiz-adv-x="268" 
d="M-39 -108l99 257h155l-152 -257h-102z" />
    <glyph glyph-name="quotedblleft" unicode="&#x201c;" horiz-adv-x="505" 
d="M289 443l153 257h101l-98 -257h-156zM73 443l153 257h101l-98 -257h-156z" />
    <glyph glyph-name="quotedblright" unicode="&#x201d;" horiz-adv-x="505" 
d="M329 699l-152 -257h-102l98 257h156zM545 699l-153 -257h-101l99 257h155z" />
    <glyph glyph-name="quotedblbase" unicode="&#x201e;" horiz-adv-x="482" 
d="M-39 -108l99 257h155l-152 -257h-102zM176 -108l99 257h155l-152 -257h-102z" />
    <glyph glyph-name="dagger" unicode="&#x2020;" horiz-adv-x="624" 
d="M147 -264l141 716l-206 -11l20 115l202 -12l27 243h151l-58 -243l207 12l-21 -115l-202 11l-111 -716h-150z" />
    <glyph glyph-name="daggerdbl" unicode="&#x2021;" horiz-adv-x="626" 
d="M146 -264l59 243l-206 -12l20 115l202 -12l67 382l-206 -11l21 115l202 -12l27 243h150l-57 -243l206 12l-20 -115l-203 11l-67 -382l207 12l-21 -115l-202 12l-29 -243h-150z" />
    <glyph glyph-name="bullet" unicode="&#x2022;" horiz-adv-x="395" 
d="M212 190q-40 0 -72.5 19t-51.5 51.5t-19 72.5q0 41 19 73.5t51.5 51.5t72.5 19q41 0 73.5 -19t51.5 -51.5t19 -73.5q0 -40 -19 -72.5t-51.5 -51.5t-73.5 -19z" />
    <glyph glyph-name="ellipsis" unicode="&#x2026;" horiz-adv-x="719" 
d="M328 -7q-39 0 -64.5 24t-25.5 60q0 35 25.5 59.5t64.5 24.5q40 0 65 -24t25 -60q0 -35 -25.5 -59.5t-64.5 -24.5zM555 -7q-39 0 -64.5 24t-25.5 60q0 35 25.5 59.5t64.5 24.5q40 0 65 -24t25 -60q0 -35 -25.5 -59.5t-64.5 -24.5zM101 -7q-39 0 -64.5 24t-25.5 60
q0 35 25.5 59.5t64.5 24.5q40 0 65 -24t25 -60q0 -35 -25.5 -59.5t-64.5 -24.5z" />
    <glyph glyph-name="perthousand" unicode="&#x2030;" horiz-adv-x="1315" 
d="M1056 -12q-44 0 -79.5 18t-56 51.5t-20.5 78.5q0 61 27.5 110t75 78t106.5 29q44 0 79 -18t55.5 -51t20.5 -79q0 -61 -27.5 -110t-74.5 -78t-106 -29zM1067 88q23 0 41 14.5t28.5 38.5t10.5 53q0 30 -14 45t-37 15q-22 0 -39.5 -14.5t-28 -38.5t-10.5 -54q0 -29 13.5 -44
t35.5 -15zM149 0l513 700h145l-512 -700h-146zM664 -12q-44 0 -79 18t-55.5 51.5t-20.5 78.5q0 61 27.5 110t75 78t106.5 29q44 0 79 -18t55 -51t20 -79q0 -61 -27.5 -110t-74 -78t-106.5 -29zM242 347q-44 0 -79 18t-55.5 51.5t-20.5 78.5q0 62 27.5 110.5t75 77.5
t106.5 29q44 0 78.5 -18t54.5 -51t20 -79q0 -62 -27 -110.5t-74 -77.5t-106 -29zM676 88q22 0 40 14.5t28.5 38.5t10.5 53q0 30 -14 45t-37 15q-21 0 -39 -14.5t-28.5 -38.5t-10.5 -54q0 -29 13.5 -44t36.5 -15zM253 447q23 0 40.5 14t28.5 38t11 54q0 29 -14 44.5t-37 15.5
q-21 0 -39.5 -14.5t-29 -38.5t-10.5 -54q0 -29 14 -44t36 -15z" />
    <glyph glyph-name="guilsinglleft" unicode="&#x2039;" horiz-adv-x="318" 
d="M105 120l-56 175l118 175h140l-121 -175l59 -175h-140z" />
    <glyph glyph-name="guilsinglright" unicode="&#x203a;" horiz-adv-x="318" 
d="M229 470l56 -175l-118 -175h-140l121 175l-59 175h140z" />
    <glyph glyph-name="fraction" unicode="&#x2044;" horiz-adv-x="536" 
d="M-42 0l513 700h145l-513 -700h-145z" />
    <glyph glyph-name="uni2074" unicode="&#x2074;" horiz-adv-x="359" 
d="M209 352l11 59h-163l13 74l189 215h121l-36 -214h34l-14 -75h-34l-11 -59h-110zM177 486h65l15 93v0z" />
    <glyph glyph-name="uni20A8" unicode="&#x20a8;" horiz-adv-x="1121" 
d="M22 0l123 700h267q75 0 125 -26t74 -69t24 -93q0 -74 -37.5 -128.5t-104 -84.5t-153.5 -30h-121l-47 -269h-150zM389 0l-87 306h156l95 -306h-164zM239 377h113q58 0 93 32t35 87q0 35 -22.5 57t-71.5 22h-113zM813 -12q-71 0 -120 24t-74 64.5t-21 89.5h149
q0 -21 10 -36t29 -23t45 -8q24 0 40.5 7.5t25.5 19t9 26.5q0 13 -10.5 22t-28 15t-39.5 11q-33 8 -65 19.5t-58 27t-41 38t-15 53.5q0 50 29.5 88t82.5 60t120 22q93 0 146 -43t51 -115h-142q-3 21 -22.5 33.5t-49.5 12.5t-49 -12.5t-19 -30.5q0 -12 11.5 -20.5t32 -14.5
t47.5 -12q37 -10 68.5 -21t54.5 -26.5t36 -37t13 -51.5q0 -55 -32.5 -96.5t-88 -63.5t-125.5 -22z" />
    <glyph glyph-name="Euro" unicode="&#x20ac;" horiz-adv-x="798" 
d="M19 237l15 82h432l-15 -82h-432zM45 384l14 83h432l-14 -83h-432zM393 -12q-92 0 -156 35.5t-97.5 99t-33.5 146.5q0 95 31 175.5t87 140.5t131.5 93.5t162.5 33.5q129 0 201.5 -65t71.5 -183h-165q-1 54 -35 83t-97 29q-50 0 -93 -22t-74.5 -61t-48.5 -91.5t-17 -114.5
q0 -52 18.5 -88.5t53.5 -56t85 -19.5q62 0 103.5 26.5t62.5 76.5h166q-27 -76 -79 -129t-123 -81t-155 -28z" />
    <glyph glyph-name="uni20B9" unicode="&#x20b9;" horiz-adv-x="609" 
d="M246 -10q-107 0 -155.5 57t-28.5 171l24 132q92 0 147 5t84 19.5t43 45.5t23 84l25 144h141l-25 -141q-11 -63 -33.5 -111t-59.5 -80t-92 -48.5t-130 -16.5l-9 -51q-8 -42 4.5 -69t58.5 -27q43 0 65 25.5t30 70.5h139q-21 -99 -84 -154.5t-167 -55.5zM74 433l17 93h533
l-17 -93h-533zM104 600l19 102h532l-18 -102h-533z" />
    <glyph glyph-name="uni20BA" unicode="&#x20ba;" horiz-adv-x="829" 
d="M338 -10q-53 0 -109.5 7t-117.5 19l121 690h153l-100 -569q20 -4 39 -5.5t37 -1.5q69 0 117 23.5t80 65.5t51.5 100.5t31.5 126.5h153q-27 -157 -83 -258t-147 -149.5t-226 -48.5zM12 218l16 95l448 85l-17 -95zM39 382l16 92l451 89l-17 -95z" />
    <glyph glyph-name="uni20BD" unicode="&#x20bd;" horiz-adv-x="665" 
d="M-4 93l21 115h92l12 69h-92l20 116h92l55 307h263q75 0 124 -23.5t73 -64.5t24 -96q0 -71 -39.5 -124.5t-105.5 -84t-150 -30.5h-114l-12 -69h171l-20 -115h-172l-16 -93h-150l16 93h-92zM292 393h107q61 0 93 32.5t32 83.5q0 35 -22 55.5t-69 20.5h-107z" />
    <glyph glyph-name="uni2113" unicode="&#x2113;" horiz-adv-x="282" 
d="M4 -100l146 820h150l-146 -820h-150z" />
    <glyph glyph-name="trademark" unicode="&#x2122;" horiz-adv-x="856" 
d="M91 612l16 88h278l-16 -88h-84l-47 -263h-109l47 263h-85zM374 349l62 351h147l42 -219l129 219h136l-62 -351h-101l36 215l-129 -215h-74l-49 224l-39 -224h-98z" />
    <glyph glyph-name="uni2126" unicode="&#x2126;" horiz-adv-x="794" 
d="M4 0l21 115h194l-31 -38q-43 21 -72.5 59t-45 85t-15.5 93q0 87 32.5 160t91 126.5t136 82.5t165.5 29q67 0 122 -19.5t95.5 -57t63 -89t22.5 -116.5q0 -80 -28 -149t-80.5 -121.5t-127.5 -82.5l-17 38h196l-22 -115h-271l22 118q41 23 72.5 53.5t53.5 68t33.5 79
t11.5 85.5q0 40 -11.5 71.5t-34 54t-54 34t-70.5 11.5q-57 0 -103.5 -21.5t-79 -58.5t-50 -86.5t-17.5 -105.5q0 -40 11.5 -75.5t32 -63t47.5 -46.5l-22 -118h-271z" />
    <glyph glyph-name="estimated" unicode="&#x212e;" horiz-adv-x="763" 
d="M344 -7q-105 0 -175.5 42.5t-100 119.5t-10.5 180q14 79 47.5 147t86 119t120 80t148.5 29q90 0 149 -30t91.5 -80t41.5 -111t-2 -123l-10 -47h-500l-31 -179q30 -29 69.5 -43.5t91.5 -14.5q49 0 93 13.5t87 39t85 61.5l44 -61q-75 -67 -156 -104.5t-169 -37.5zM245 400
h321l30 169q-25 27 -63 40.5t-87 13.5q-51 0 -94.5 -15.5t-79.5 -46.5z" />
    <glyph glyph-name="arrowleft" unicode="&#x2190;" horiz-adv-x="759" 
d="M746 282h-491l237 -210l-94 -94l-352 326v90l352 325l94 -94l-237 -210h491v-133z" />
    <glyph glyph-name="arrowup" unicode="&#x2191;" horiz-adv-x="859" 
d="M38 348l364 352h91l364 -352l-94 -95l-245 240v-493h-142v493l-244 -239z" />
    <glyph glyph-name="arrowright" unicode="&#x2192;" horiz-adv-x="759" 
d="M49 282v133h491l-237 210l94 94l352 -325v-90l-352 -326l-95 94l238 210h-491z" />
    <glyph glyph-name="arrowdown" unicode="&#x2193;" horiz-adv-x="859" 
d="M38 352l95 94l244 -239v493h142v-493l245 240l94 -95l-365 -352h-90z" />
    <glyph glyph-name="arrowboth" unicode="&#x2194;" horiz-adv-x="915" 
d="M46 301v91l281 310l94 -78l-193 -208h494l-193 208l93 78l282 -310v-91l-282 -310l-93 79l197 214h-503l198 -214l-94 -79z" />
    <glyph glyph-name="arrowupdn" unicode="&#x2195;" horiz-adv-x="816" 
d="M63 209l77 93l219 -142v382l-219 -142l-77 93l317 209h91l317 -209l-77 -93l-218 141v-379l218 140l77 -93l-317 -209h-91z" />
    <glyph glyph-name="uni2196" unicode="&#x2196;" horiz-adv-x="691" 
d="M553 41l-348 348v-343h-131v509l64 64h508v-130h-343l349 -349z" />
    <glyph glyph-name="uni2197" unicode="&#x2197;" horiz-adv-x="713" 
d="M181 53l-100 99l349 349h-343v130h508l64 -64v-509h-130v343z" />
    <glyph glyph-name="uni2198" unicode="&#x2198;" horiz-adv-x="691" 
d="M169 631l348 -348v343h131v-509l-64 -64h-508v130h343l-349 349z" />
    <glyph glyph-name="uni2199" unicode="&#x2199;" horiz-adv-x="713" 
d="M565 631l99 -99l-349 -349h343v-130h-508l-63 64v509h130v-343z" />
    <glyph glyph-name="partialdiff" unicode="&#x2202;" horiz-adv-x="603" 
d="M215 -8q-61 0 -107.5 27t-67.5 82.5t-6 140.5q12 69 43 127t76 101t98.5 66.5t109.5 23.5q25 0 45.5 -6t36 -19t25.5 -35q2 46 -9 80.5t-39 54t-77 19.5q-15 0 -32.5 -2t-37.5 -6l14 78q31 8 59.5 12t53.5 4q84 0 133.5 -40.5t65 -115t-2.5 -177.5q-17 -97 -53 -173.5
t-86.5 -130.5t-112 -82.5t-129.5 -28.5zM252 120q30 0 57 15.5t49 42.5t37.5 63.5t22.5 76.5q11 60 -8.5 88t-58.5 28q-30 0 -56.5 -14t-48 -40.5t-37 -61t-22.5 -75.5q-8 -43 -1 -70t24.5 -40t41.5 -13z" />
    <glyph glyph-name="uni2206" unicode="&#x2206;" horiz-adv-x="720" 
d="M-25 0l21 114l383 586h122l176 -586l-21 -114h-681zM151 114h371l-112 416z" />
    <glyph glyph-name="product" unicode="&#x220f;" horiz-adv-x="743" 
d="M53 0l102 585h-71l21 115h694l-21 -115h-74l-102 -585h-150l103 585h-250l-102 -585h-150z" />
    <glyph glyph-name="summation" unicode="&#x2211;" horiz-adv-x="514" 
d="M-8 -50l31 174l279 210l-208 192l32 174h440l-21 -114h-312l220 -200l-19 -108l-288 -213h307l-21 -115h-440z" />
    <glyph glyph-name="minus" unicode="&#x2212;" horiz-adv-x="588" 
d="M76 227l22 125h429l-22 -125h-429z" />
    <glyph glyph-name="uni2215" unicode="&#x2215;" horiz-adv-x="436" 
d="M-44 -119l409 903h145l-409 -903h-145z" />
    <glyph glyph-name="radical" unicode="&#x221a;" horiz-adv-x="817" 
d="M17 237l232 123l88 -230l557 765h94l-684 -937h-73l-98 253l-84 -45z" />
    <glyph glyph-name="infinity" unicode="&#x221e;" horiz-adv-x="761" 
d="M186 121q-64 0 -106.5 36t-42.5 105q0 55 27 98.5t73 68.5t104 25q48 0 80.5 -17t55 -43.5t40 -56t34 -56t38 -43t52.5 -16.5q35 0 56 22t21 52q0 28 -16.5 42.5t-42.5 14.5q-35 0 -71 -26t-61 -71l-69 31q20 45 53.5 83t78.5 61t98 23q67 0 109 -37t42 -104
q0 -55 -28 -98t-74.5 -68.5t-104.5 -25.5q-47 0 -81.5 17t-59 43.5t-43 56t-35 56t-36.5 43t-46 16.5q-30 0 -51.5 -21.5t-21.5 -52.5q0 -28 17 -42.5t42 -14.5q35 0 70.5 26t60.5 71l69 -31q-19 -45 -52.5 -83t-79 -61t-99.5 -23z" />
    <glyph glyph-name="integral" unicode="&#x222b;" horiz-adv-x="284" 
d="M-135 -248l34 127h18q20 0 31.5 11t17.5 35l236 839q19 66 53 103.5t80 52.5t100 15h19l-35 -127h-17q-18 0 -30 -10t-20 -34l-236 -839q-18 -66 -52 -104t-80 -53.5t-101 -15.5h-18z" />
    <glyph glyph-name="approxequal" unicode="&#x2248;" horiz-adv-x="588" 
d="M351 74q-32 0 -55.5 10t-42 23t-37 23t-40.5 10q-25 0 -45 -16.5t-31 -49.5h-111q25 70 58.5 114t74.5 64.5t87 20.5q32 0 55.5 -10t42.5 -23t37 -23t40 -10q26 0 45.5 16.5t29.5 49.5h112q-23 -70 -57 -114t-75 -64.5t-88 -20.5zM394 314q-32 0 -55.5 10t-42 23t-37 23
t-40.5 10q-25 0 -45 -16.5t-31 -49.5h-111q25 70 58.5 114t74.5 64.5t87 20.5q32 0 55.5 -10t42.5 -23t37 -23t40 -10q26 0 45.5 16.5t29.5 49.5h112q-23 -70 -57 -114t-75 -64.5t-88 -20.5z" />
    <glyph glyph-name="notequal" unicode="&#x2260;" horiz-adv-x="588" 
d="M53 42l347 495h113l-346 -495h-114zM92 338l23 132h438l-24 -132h-437zM52 109l23 132h438l-24 -132h-437z" />
    <glyph glyph-name="lessequal" unicode="&#x2264;" horiz-adv-x="588" 
d="M310 271l-181 187v0l246 187h190l-246 -187l180 -187h-189zM79 89l20 115h386l-20 -115h-386z" />
    <glyph glyph-name="greaterequal" unicode="&#x2265;" horiz-adv-x="588" 
d="M101 271l245 187l-179 187h188l181 -187v0l-246 -187h-189zM60 89l21 115h386l-20 -115h-387z" />
    <glyph glyph-name="lozenge" unicode="&#x25ca;" horiz-adv-x="563" 
d="M255 95l-212 257l303 257l212 -257zM281 241l131 111l-91 111l-131 -111z" />
    <glyph glyph-name="Q.ss06" horiz-adv-x="809" 
d="M509 -124l-119 190l148 31l155 -221h-184zM365 -12q-89 0 -158.5 39.5t-109 108.5t-39.5 156q0 88 32.5 164t90 134t134 90t164.5 32q90 0 159 -39.5t108.5 -108t39.5 -156.5q0 -87 -32.5 -163.5t-90.5 -134.5t-134 -90t-164 -32zM382 123q52 0 97 21t79.5 58t53.5 86.5
t19 106.5q0 55 -18.5 95.5t-56.5 63t-94 22.5q-52 0 -97 -20.5t-79.5 -57.5t-53.5 -86t-19 -107q0 -54 20 -95t58 -64t91 -23z" />
    <glyph glyph-name="i.loclTRK" horiz-adv-x="278" 
d="M20 0l88 496h150l-88 -496h-150zM204 559q-28 0 -47.5 19.5t-19.5 47.5q0 30 19.5 49.5t47.5 19.5q30 0 49 -19.5t19 -49.5q0 -28 -19 -47.5t-49 -19.5z" />
    <glyph glyph-name="a.ss02" horiz-adv-x="658" 
d="M243 -12q-60 0 -103.5 29t-67.5 78.5t-24 112.5t21.5 118t59.5 95.5t88.5 63.5t108.5 23q61 0 97.5 -21t54.5 -51l28 60h132l-87 -496h-132l-7 65v0q-18 -21 -42 -38.5t-55.5 -28t-71.5 -10.5zM306 119q41 0 74 21.5t52.5 57t19.5 76.5q0 31 -13 54t-36.5 36t-56.5 13
q-41 0 -73.5 -20t-51 -54t-18.5 -76q0 -30 12 -55t35 -39t56 -14z" />
    <glyph glyph-name="aacute.ss02" horiz-adv-x="658" 
d="M243 -12q-60 0 -103.5 29t-67.5 78.5t-24 112.5t21.5 118t59.5 95.5t88.5 63.5t108.5 23q61 0 97.5 -21t54.5 -51l28 60h132l-87 -496h-132l-7 65v0q-18 -21 -42 -38.5t-55.5 -28t-71.5 -10.5zM306 119q41 0 74 21.5t52.5 57t19.5 76.5q0 31 -13 54t-36.5 36t-56.5 13
q-41 0 -73.5 -20t-51 -54t-18.5 -76q0 -30 12 -55t35 -39t56 -14zM261 535l19 104l255 119v0l-21 -118z" />
    <glyph glyph-name="abreve.ss02" horiz-adv-x="658" 
d="M243 -12q-60 0 -103.5 29t-67.5 78.5t-24 112.5t21.5 118t59.5 95.5t88.5 63.5t108.5 23q61 0 97.5 -21t54.5 -51l28 60h132l-87 -496h-132l-7 65v0q-18 -21 -42 -38.5t-55.5 -28t-71.5 -10.5zM306 119q41 0 74 21.5t52.5 57t19.5 76.5q0 31 -13 54t-36.5 36t-56.5 13
q-41 0 -73.5 -20t-51 -54t-18.5 -76q0 -30 12 -55t35 -39t56 -14zM380 546q-49 0 -82.5 19.5t-47.5 56t-4 87.5l4 18h76q-6 -33 9.5 -51.5t64.5 -18.5q48 0 70 18.5t29 51.5h76l-3 -19q-8 -51 -35 -87t-67 -55.5t-90 -19.5z" />
    <glyph glyph-name="acircumflex.ss02" horiz-adv-x="658" 
d="M243 -12q-60 0 -103.5 29t-67.5 78.5t-24 112.5t21.5 118t59.5 95.5t88.5 63.5t108.5 23q61 0 97.5 -21t54.5 -51l28 60h132l-87 -496h-132l-7 65v0q-18 -21 -42 -38.5t-55.5 -28t-71.5 -10.5zM306 119q41 0 74 21.5t52.5 57t19.5 76.5q0 31 -13 54t-36.5 36t-56.5 13
q-41 0 -73.5 -20t-51 -54t-18.5 -76q0 -30 12 -55t35 -39t56 -14zM228 537l19 106l165 83l136 -83l-19 -106l-135 87z" />
    <glyph glyph-name="adieresis.ss02" horiz-adv-x="658" 
d="M243 -12q-60 0 -103.5 29t-67.5 78.5t-24 112.5t21.5 118t59.5 95.5t88.5 63.5t108.5 23q61 0 97.5 -21t54.5 -51l28 60h132l-87 -496h-132l-7 65v0q-18 -21 -42 -38.5t-55.5 -28t-71.5 -10.5zM306 119q41 0 74 21.5t52.5 57t19.5 76.5q0 31 -13 54t-36.5 36t-56.5 13
q-41 0 -73.5 -20t-51 -54t-18.5 -76q0 -30 12 -55t35 -39t56 -14zM299 561q-29 0 -48 19.5t-19 48.5t19 48.5t48 19.5t48.5 -19.5t19.5 -48.5t-19.5 -48.5t-48.5 -19.5zM490 561q-29 0 -48.5 19.5t-19.5 48.5t19.5 48.5t48.5 19.5t48.5 -19.5t19.5 -48.5t-19.5 -48.5
t-48.5 -19.5z" />
    <glyph glyph-name="agrave.ss02" horiz-adv-x="658" 
d="M243 -12q-60 0 -103.5 29t-67.5 78.5t-24 112.5t21.5 118t59.5 95.5t88.5 63.5t108.5 23q61 0 97.5 -21t54.5 -51l28 60h132l-87 -496h-132l-7 65v0q-18 -21 -42 -38.5t-55.5 -28t-71.5 -10.5zM306 119q41 0 74 21.5t52.5 57t19.5 76.5q0 31 -13 54t-36.5 36t-56.5 13
q-41 0 -73.5 -20t-51 -54t-18.5 -76q0 -30 12 -55t35 -39t56 -14zM494 535l-214 105l20 118v0l213 -119z" />
    <glyph glyph-name="amacron.ss02" horiz-adv-x="658" 
d="M243 -12q-60 0 -103.5 29t-67.5 78.5t-24 112.5t21.5 118t59.5 95.5t88.5 63.5t108.5 23q61 0 97.5 -21t54.5 -51l28 60h132l-87 -496h-132l-7 65v0q-18 -21 -42 -38.5t-55.5 -28t-71.5 -10.5zM306 119q41 0 74 21.5t52.5 57t19.5 76.5q0 31 -13 54t-36.5 36t-56.5 13
q-41 0 -73.5 -20t-51 -54t-18.5 -76q0 -30 12 -55t35 -39t56 -14zM191 572l19 105h387l-18 -105h-388z" />
    <glyph glyph-name="aogonek.ss02" horiz-adv-x="658" 
d="M243 -12q-60 0 -103.5 29t-67.5 78.5t-24 112.5t21.5 118t59.5 95.5t88.5 63.5t108.5 23q61 0 97.5 -21t54.5 -51l28 60h132l-87 -496h-132l-7 65v0q-18 -21 -42 -38.5t-55.5 -28t-71.5 -10.5zM306 119q41 0 74 21.5t52.5 57t19.5 76.5q0 31 -13 54t-36.5 36t-56.5 13
q-41 0 -73.5 -20t-51 -54t-18.5 -76q0 -30 12 -55t35 -39t56 -14zM427 -214q-38 0 -68 12t-44.5 36.5t-8.5 61.5q6 28 23.5 54t55 51t100.5 49l46 19l20 -69l-52 -24q-40 -19 -57.5 -34t-20.5 -33q-4 -17 7 -27t34 -10q15 0 34.5 4t41.5 11l-15 -86q-21 -7 -45.5 -11
t-50.5 -4z" />
    <glyph glyph-name="aring.ss02" horiz-adv-x="658" 
d="M243 -12q-60 0 -103.5 29t-67.5 78.5t-24 112.5t21.5 118t59.5 95.5t88.5 63.5t108.5 23q61 0 97.5 -21t54.5 -51l28 60h132l-87 -496h-132l-7 65v0q-18 -21 -42 -38.5t-55.5 -28t-71.5 -10.5zM306 119q41 0 74 21.5t52.5 57t19.5 76.5q0 31 -13 54t-36.5 36t-56.5 13
q-41 0 -73.5 -20t-51 -54t-18.5 -76q0 -30 12 -55t35 -39t56 -14zM400 542q-48 0 -83 31t-35 85q0 55 35 86t83 31q49 0 84 -31t35 -86q0 -54 -35 -85t-84 -31zM400 607q21 0 35.5 14t14.5 38t-14.5 37.5t-35.5 13.5q-20 0 -35 -13.5t-15 -37.5t15 -38t35 -14z" />
    <glyph glyph-name="atilde.ss02" horiz-adv-x="658" 
d="M243 -12q-60 0 -103.5 29t-67.5 78.5t-24 112.5t21.5 118t59.5 95.5t88.5 63.5t108.5 23q61 0 97.5 -21t54.5 -51l28 60h132l-87 -496h-132l-7 65v0q-18 -21 -42 -38.5t-55.5 -28t-71.5 -10.5zM306 119q41 0 74 21.5t52.5 57t19.5 76.5q0 31 -13 54t-36.5 36t-56.5 13
q-41 0 -73.5 -20t-51 -54t-18.5 -76q0 -30 12 -55t35 -39t56 -14zM192 550q24 72 63.5 104t88.5 32q29 0 48 -11.5t35 -22.5t36 -11q17 0 30.5 11t20.5 34h79q-24 -72 -63.5 -104.5t-88.5 -32.5q-30 0 -49 11.5t-34.5 23t-35.5 11.5q-17 0 -30.5 -11t-21.5 -34h-78z" />
    <glyph glyph-name="ae.ss02" horiz-adv-x="1015" 
d="M243 -12q-60 0 -103.5 29t-67.5 78.5t-24 112.5t21.5 118t59.5 95.5t88.5 63.5t108.5 23q55 0 90 -17.5t53 -43.5l14 49h116l-6 -34q36 22 78 34t90 12q66 0 114.5 -25.5t75 -71t26.5 -104.5q0 -26 -4.5 -51t-10.5 -45h-367q-2 -30 8.5 -53t32.5 -35.5t54 -12.5t57 14
t40 36h154q-23 -49 -64.5 -88t-94 -61.5t-112.5 -22.5q-47 0 -85 12.5t-66 36.5l-7 -37h-116l5 53v0q-18 -17 -41.5 -32.5t-52 -24t-64.5 -8.5zM306 119q41 0 74 21.5t52.5 57t19.5 76.5q0 31 -13 54t-36.5 36t-56.5 13q-41 0 -73.5 -20t-51 -54t-18.5 -76q0 -30 12 -55
t35 -39t56 -14zM614 299h213q3 28 -8 48t-31 30.5t-46 10.5q-27 0 -52 -10t-44 -29.5t-32 -49.5z" />
    <glyph glyph-name="aeacute.ss02" horiz-adv-x="1015" 
d="M243 -12q-60 0 -103.5 29t-67.5 78.5t-24 112.5t21.5 118t59.5 95.5t88.5 63.5t108.5 23q55 0 90 -17.5t53 -43.5l14 49h116l-6 -34q36 22 78 34t90 12q66 0 114.5 -25.5t75 -71t26.5 -104.5q0 -26 -4.5 -51t-10.5 -45h-367q-2 -30 8.5 -53t32.5 -35.5t54 -12.5t57 14
t40 36h154q-23 -49 -64.5 -88t-94 -61.5t-112.5 -22.5q-47 0 -85 12.5t-66 36.5l-7 -37h-116l5 53v0q-18 -17 -41.5 -32.5t-52 -24t-64.5 -8.5zM306 119q41 0 74 21.5t52.5 57t19.5 76.5q0 31 -13 54t-36.5 36t-56.5 13q-41 0 -73.5 -20t-51 -54t-18.5 -76q0 -30 12 -55
t35 -39t56 -14zM614 299h213q3 28 -8 48t-31 30.5t-46 10.5q-27 0 -52 -10t-44 -29.5t-32 -49.5zM426 535l19 104l255 119v0l-21 -118z" />
    <glyph glyph-name="g.ss03" horiz-adv-x="673" 
d="M255 -232q-45 0 -89 11t-79 35.5t-54 63.5t-15 95h149q0 -24 13.5 -41t37.5 -25.5t56 -8.5t63 13t53.5 40.5t30.5 71.5l9 57q-18 -22 -44 -40t-58.5 -28.5t-71.5 -10.5q-62 0 -109 28.5t-73 76.5t-26 108t22 113.5t62 94.5t92 63.5t112 22.5q52 0 94.5 -20.5t62.5 -52.5
v0l27 61h134l-83 -467q-12 -68 -42.5 -117.5t-73.5 -81.5t-94 -47t-106 -15zM311 130q41 0 75.5 20t54.5 53t20 73q0 29 -13.5 51.5t-38.5 36t-59 13.5q-42 0 -75.5 -19.5t-52.5 -52t-19 -72.5q0 -28 12.5 -51.5t37 -37.5t58.5 -14z" />
    <glyph glyph-name="gbreve.ss03" horiz-adv-x="673" 
d="M255 -232q-45 0 -89 11t-79 35.5t-54 63.5t-15 95h149q0 -24 13.5 -41t37.5 -25.5t56 -8.5t63 13t53.5 40.5t30.5 71.5l9 57q-18 -22 -44 -40t-58.5 -28.5t-71.5 -10.5q-62 0 -109 28.5t-73 76.5t-26 108t22 113.5t62 94.5t92 63.5t112 22.5q52 0 94.5 -20.5t62.5 -52.5
v0l27 61h134l-83 -467q-12 -68 -42.5 -117.5t-73.5 -81.5t-94 -47t-106 -15zM311 130q41 0 75.5 20t54.5 53t20 73q0 29 -13.5 51.5t-38.5 36t-59 13.5q-42 0 -75.5 -19.5t-52.5 -52t-19 -72.5q0 -28 12.5 -51.5t37 -37.5t58.5 -14zM365 546q-49 0 -82.5 19.5t-47.5 56
t-4 87.5l4 18h76q-6 -33 9.5 -51.5t64.5 -18.5q48 0 70 18.5t29 51.5h76l-3 -19q-8 -51 -35 -87t-67 -55.5t-90 -19.5z" />
    <glyph glyph-name="uni0123.ss03" horiz-adv-x="673" 
d="M255 -232q-45 0 -89 11t-79 35.5t-54 63.5t-15 95h149q0 -24 13.5 -41t37.5 -25.5t56 -8.5t63 13t53.5 40.5t30.5 71.5l9 57q-18 -22 -44 -40t-58.5 -28.5t-71.5 -10.5q-62 0 -109 28.5t-73 76.5t-26 108t22 113.5t62 94.5t92 63.5t112 22.5q52 0 94.5 -20.5t62.5 -52.5
v0l27 61h134l-83 -467q-12 -68 -42.5 -117.5t-73.5 -81.5t-94 -47t-106 -15zM311 130q41 0 75.5 20t54.5 53t20 73q0 29 -13.5 51.5t-38.5 36t-59 13.5q-42 0 -75.5 -19.5t-52.5 -52t-19 -72.5q0 -28 12.5 -51.5t37 -37.5t58.5 -14zM468 784l-10 -59q-22 0 -35.5 -8.5
t-17.5 -27.5l-2 -18h46l-20 -113h-110q-2 31 -1 54t5 48q11 58 47.5 91t97.5 33z" />
    <glyph glyph-name="gdotaccent.ss03" horiz-adv-x="673" 
d="M255 -232q-45 0 -89 11t-79 35.5t-54 63.5t-15 95h149q0 -24 13.5 -41t37.5 -25.5t56 -8.5t63 13t53.5 40.5t30.5 71.5l9 57q-18 -22 -44 -40t-58.5 -28.5t-71.5 -10.5q-62 0 -109 28.5t-73 76.5t-26 108t22 113.5t62 94.5t92 63.5t112 22.5q52 0 94.5 -20.5t62.5 -52.5
v0l27 61h134l-83 -467q-12 -68 -42.5 -117.5t-73.5 -81.5t-94 -47t-106 -15zM311 130q41 0 75.5 20t54.5 53t20 73q0 29 -13.5 51.5t-38.5 36t-59 13.5q-42 0 -75.5 -19.5t-52.5 -52t-19 -72.5q0 -28 12.5 -51.5t37 -37.5t58.5 -14zM379 559q-28 0 -47.5 19.5t-19.5 47.5
q0 30 19.5 49.5t47.5 19.5q30 0 49 -19.5t19 -49.5q0 -28 -19 -47.5t-49 -19.5z" />
    <glyph glyph-name="u.ss04" horiz-adv-x="622" 
d="M266 -12q-130 0 -181 64.5t-31 178.5l46 265h150l-45 -253q-9 -47 -4.5 -79t25.5 -48t59 -16t64 16t42 48t24 79l46 253h149l-47 -265q-20 -114 -94 -178.5t-203 -64.5z" />
    <glyph glyph-name="uacute.ss04" horiz-adv-x="622" 
d="M266 -12q-130 0 -181 64.5t-31 178.5l46 265h150l-45 -253q-9 -47 -4.5 -79t25.5 -48t59 -16t64 16t42 48t24 79l46 253h149l-47 -265q-20 -114 -94 -178.5t-203 -64.5zM245 535l19 104l255 119v0l-21 -118z" />
    <glyph glyph-name="ubreve.ss04" horiz-adv-x="622" 
d="M266 -12q-130 0 -181 64.5t-31 178.5l46 265h150l-45 -253q-9 -47 -4.5 -79t25.5 -48t59 -16t64 16t42 48t24 79l46 253h149l-47 -265q-20 -114 -94 -178.5t-203 -64.5zM364 546q-49 0 -82.5 19.5t-47.5 56t-4 87.5l4 18h76q-6 -33 9.5 -51.5t64.5 -18.5q48 0 70 18.5
t29 51.5h76l-3 -19q-8 -51 -35 -87t-67 -55.5t-90 -19.5z" />
    <glyph glyph-name="ucircumflex.ss04" horiz-adv-x="622" 
d="M266 -12q-130 0 -181 64.5t-31 178.5l46 265h150l-45 -253q-9 -47 -4.5 -79t25.5 -48t59 -16t64 16t42 48t24 79l46 253h149l-47 -265q-20 -114 -94 -178.5t-203 -64.5zM212 537l19 106l165 83l136 -83l-19 -106l-135 87z" />
    <glyph glyph-name="udieresis.ss04" horiz-adv-x="622" 
d="M266 -12q-130 0 -181 64.5t-31 178.5l46 265h150l-45 -253q-9 -47 -4.5 -79t25.5 -48t59 -16t64 16t42 48t24 79l46 253h149l-47 -265q-20 -114 -94 -178.5t-203 -64.5zM283 561q-29 0 -48 19.5t-19 48.5t19 48.5t48 19.5t48.5 -19.5t19.5 -48.5t-19.5 -48.5t-48.5 -19.5
zM474 561q-29 0 -48.5 19.5t-19.5 48.5t19.5 48.5t48.5 19.5t48.5 -19.5t19.5 -48.5t-19.5 -48.5t-48.5 -19.5z" />
    <glyph glyph-name="ugrave.ss04" horiz-adv-x="622" 
d="M266 -12q-130 0 -181 64.5t-31 178.5l46 265h150l-45 -253q-9 -47 -4.5 -79t25.5 -48t59 -16t64 16t42 48t24 79l46 253h149l-47 -265q-20 -114 -94 -178.5t-203 -64.5zM478 535l-214 105l20 118v0l213 -119z" />
    <glyph glyph-name="uhungarumlaut.ss04" horiz-adv-x="622" 
d="M266 -12q-130 0 -181 64.5t-31 178.5l46 265h150l-45 -253q-9 -47 -4.5 -79t25.5 -48t59 -16t64 16t42 48t24 79l46 253h149l-47 -265q-20 -114 -94 -178.5t-203 -64.5zM348 541l126 195h120l-152 -195h-94zM166 541l108 195h120l-134 -195h-94z" />
    <glyph glyph-name="umacron.ss04" horiz-adv-x="622" 
d="M266 -12q-130 0 -181 64.5t-31 178.5l46 265h150l-45 -253q-9 -47 -4.5 -79t25.5 -48t59 -16t64 16t42 48t24 79l46 253h149l-47 -265q-20 -114 -94 -178.5t-203 -64.5zM174 572l19 105h387l-18 -105h-388z" />
    <glyph glyph-name="uogonek.ss04" horiz-adv-x="622" 
d="M266 -12q-130 0 -181 64.5t-31 178.5l46 265h150l-45 -253q-9 -47 -4.5 -79t25.5 -48t59 -16t64 16t42 48t24 79l46 253h149l-47 -265q-20 -114 -94 -178.5t-203 -64.5zM271 -204q-38 0 -68 12t-44.5 36.5t-8.5 61.5q6 28 23.5 54t55 51t100.5 49l46 19l20 -69l-52 -24
q-40 -19 -57.5 -34t-20.5 -33q-4 -17 7 -27t34 -10q15 0 34.5 4t41.5 11l-15 -86q-21 -7 -45.5 -11t-50.5 -4z" />
    <glyph glyph-name="uring.ss04" horiz-adv-x="622" 
d="M266 -12q-130 0 -181 64.5t-31 178.5l46 265h150l-45 -253q-9 -47 -4.5 -79t25.5 -48t59 -16t64 16t42 48t24 79l46 253h149l-47 -265q-20 -114 -94 -178.5t-203 -64.5zM384 542q-48 0 -83 31t-35 85q0 55 35 86t83 31q49 0 84 -31t35 -86q0 -54 -35 -85t-84 -31z
M384 607q21 0 35.5 14t14.5 38t-14.5 37.5t-35.5 13.5q-20 0 -35 -13.5t-15 -37.5t15 -38t35 -14z" />
    <glyph glyph-name="utilde.ss04" horiz-adv-x="622" 
d="M266 -12q-130 0 -181 64.5t-31 178.5l46 265h150l-45 -253q-9 -47 -4.5 -79t25.5 -48t59 -16t64 16t42 48t24 79l46 253h149l-47 -265q-20 -114 -94 -178.5t-203 -64.5zM176 550q24 72 63.5 104t88.5 32q29 0 48 -11.5t35 -22.5t36 -11q17 0 30.5 11t20.5 34h79
q-24 -72 -63.5 -104.5t-88.5 -32.5q-30 0 -49 11.5t-34.5 23t-35.5 11.5q-17 0 -30.5 -11t-21.5 -34h-78z" />
    <glyph glyph-name="y.ss05" horiz-adv-x="634" 
d="M233 -232q-42 0 -82.5 11t-73 33.5t-50 60t-14.5 89.5h149q1 -21 11.5 -37t30.5 -25t46 -9q36 0 62 15t43.5 44t25.5 74l8 47v0q-29 -31 -71.5 -51t-103.5 -20q-63 0 -103.5 26t-55 78t-1.5 129l46 263h150l-45 -254q-7 -39 -0.5 -65.5t27 -41t56.5 -14.5q37 0 64 15
t44 43.5t24 67.5l43 249h150l-82 -472q-15 -86 -60 -143t-107 -85t-131 -28z" />
    <glyph glyph-name="yacute.ss05" horiz-adv-x="634" 
d="M233 -232q-42 0 -82.5 11t-73 33.5t-50 60t-14.5 89.5h149q1 -21 11.5 -37t30.5 -25t46 -9q36 0 62 15t43.5 44t25.5 74l8 47v0q-29 -31 -71.5 -51t-103.5 -20q-63 0 -103.5 26t-55 78t-1.5 129l46 263h150l-45 -254q-7 -39 -0.5 -65.5t27 -41t56.5 -14.5q37 0 64 15
t44 43.5t24 67.5l43 249h150l-82 -472q-15 -86 -60 -143t-107 -85t-131 -28zM251 535l19 104l255 119v0l-21 -118z" />
    <glyph glyph-name="ycircumflex.ss05" horiz-adv-x="634" 
d="M233 -232q-42 0 -82.5 11t-73 33.5t-50 60t-14.5 89.5h149q1 -21 11.5 -37t30.5 -25t46 -9q36 0 62 15t43.5 44t25.5 74l8 47v0q-29 -31 -71.5 -51t-103.5 -20q-63 0 -103.5 26t-55 78t-1.5 129l46 263h150l-45 -254q-7 -39 -0.5 -65.5t27 -41t56.5 -14.5q37 0 64 15
t44 43.5t24 67.5l43 249h150l-82 -472q-15 -86 -60 -143t-107 -85t-131 -28zM218 537l19 106l165 83l136 -83l-19 -106l-135 87z" />
    <glyph glyph-name="ydieresis.ss05" horiz-adv-x="634" 
d="M233 -232q-42 0 -82.5 11t-73 33.5t-50 60t-14.5 89.5h149q1 -21 11.5 -37t30.5 -25t46 -9q36 0 62 15t43.5 44t25.5 74l8 47v0q-29 -31 -71.5 -51t-103.5 -20q-63 0 -103.5 26t-55 78t-1.5 129l46 263h150l-45 -254q-7 -39 -0.5 -65.5t27 -41t56.5 -14.5q37 0 64 15
t44 43.5t24 67.5l43 249h150l-82 -472q-15 -86 -60 -143t-107 -85t-131 -28zM289 561q-29 0 -48 19.5t-19 48.5t19 48.5t48 19.5t48.5 -19.5t19.5 -48.5t-19.5 -48.5t-48.5 -19.5zM480 561q-29 0 -48.5 19.5t-19.5 48.5t19.5 48.5t48.5 19.5t48.5 -19.5t19.5 -48.5
t-19.5 -48.5t-48.5 -19.5z" />
    <glyph glyph-name="ygrave.ss05" horiz-adv-x="634" 
d="M233 -232q-42 0 -82.5 11t-73 33.5t-50 60t-14.5 89.5h149q1 -21 11.5 -37t30.5 -25t46 -9q36 0 62 15t43.5 44t25.5 74l8 47v0q-29 -31 -71.5 -51t-103.5 -20q-63 0 -103.5 26t-55 78t-1.5 129l46 263h150l-45 -254q-7 -39 -0.5 -65.5t27 -41t56.5 -14.5q37 0 64 15
t44 43.5t24 67.5l43 249h150l-82 -472q-15 -86 -60 -143t-107 -85t-131 -28zM484 535l-214 105l20 118v0l213 -119z" />
    <glyph glyph-name="uni1EF9.ss05" horiz-adv-x="634" 
d="M233 -232q-42 0 -82.5 11t-73 33.5t-50 60t-14.5 89.5h149q1 -21 11.5 -37t30.5 -25t46 -9q36 0 62 15t43.5 44t25.5 74l8 47v0q-29 -31 -71.5 -51t-103.5 -20q-63 0 -103.5 26t-55 78t-1.5 129l46 263h150l-45 -254q-7 -39 -0.5 -65.5t27 -41t56.5 -14.5q37 0 64 15
t44 43.5t24 67.5l43 249h150l-82 -472q-15 -86 -60 -143t-107 -85t-131 -28zM182 550q24 72 63.5 104t88.5 32q29 0 48 -11.5t35 -22.5t36 -11q17 0 30.5 11t20.5 34h79q-24 -72 -63.5 -104.5t-88.5 -32.5q-30 0 -49 11.5t-34.5 23t-35.5 11.5q-17 0 -30.5 -11t-21.5 -34
h-78z" />
    <glyph glyph-name="one.ss07" horiz-adv-x="446" 
d="M104 0l93 527l-122 -27l20 119l198 81h90l-124 -700h-155zM12 117h382l-22 -117h-382z" />
    <glyph glyph-name="three.ss07" horiz-adv-x="605" 
d="M258 -6q-63 0 -106.5 16.5t-69.5 47t-35.5 73t-3.5 94.5h144q-9 -45 15.5 -75.5t77.5 -30.5q38 0 66.5 17t44 47t15.5 68q0 42 -27 67t-76 25h-99l17 97l222 166l37 -35h-340l23 129h444l-20 -111l-256 -192l-57 41h67q96 0 150.5 -47t54.5 -128q0 -80 -37.5 -140.5
t-102.5 -94.5t-148 -34z" />
    <glyph glyph-name="four.ss07" horiz-adv-x="665" 
d="M338 0l22 123h-336l21 121l368 456h159l-366 -447h187l27 153l145 32l-32 -185h87l-23 -130h-87l-22 -123h-150z" />
    <glyph glyph-name="six.ss07" horiz-adv-x="614" 
d="M265 -10q-69 0 -118.5 25.5t-76 71t-26.5 105.5q0 39 10 76t28 71t39.5 64.5t45.5 58.5l205 240h165l-246 -280l3 25q13 6 27.5 9.5t29.5 5.5t31 2q56 0 97 -23t63.5 -64t22.5 -98q0 -83 -39.5 -148.5t-108 -103t-152.5 -37.5zM286 117q41 0 71.5 18.5t48 50.5t17.5 73
q0 28 -11.5 49t-33 33t-52.5 12q-40 0 -72 -19t-49.5 -52t-17.5 -74q0 -42 26.5 -66.5t72.5 -24.5z" />
    <glyph glyph-name="nine.ss07" horiz-adv-x="614" 
d="M113 0l246 280l-3 -25q-13 -5 -27 -9t-29.5 -6t-31.5 -2q-55 0 -96.5 23t-64 65t-22.5 97q0 84 39.5 149t108 102.5t152.5 37.5q69 0 118.5 -25.5t76 -71t26.5 -105.5q0 -40 -10 -76.5t-28 -70.5t-39.5 -64t-45.5 -58l-205 -241h-165zM324 350q41 0 72 19t49 52t18 74
t-26 66t-73 25q-40 0 -71.5 -18.5t-48.5 -50.5t-17 -74q0 -41 25.5 -67t71.5 -26z" />
    <glyph glyph-name="one.dnom" horiz-adv-x="247" 
d="M49 0l43 246l-73 -15l12 70l131 51h63l-62 -352h-114z" />
    <glyph glyph-name="two.dnom" horiz-adv-x="370" 
d="M-6 0l15 84l134 79q31 18 49.5 38t23.5 42q2 17 -5 26.5t-21 9.5q-16 0 -27.5 -11t-16.5 -31h-114q13 54 61 89t122 35q48 0 76.5 -16t40 -41t6.5 -53q-7 -38 -39 -66t-97 -59l-72 -37h176l-16 -89h-296z" />
    <glyph glyph-name="three.dnom" horiz-adv-x="363" 
d="M137 -4q-81 0 -115 32t-28 86h116q-1 -13 3 -21.5t12.5 -12t19.5 -3.5q18 0 30.5 9.5t15.5 27.5q3 20 -7.5 30t-32.5 10h-36l9 52h32q21 0 35 9.5t17 28.5q3 17 -5.5 26t-25.5 9q-19 0 -30 -8.5t-17 -25.5h-108q10 46 55 81t125 35q67 0 102.5 -29.5t27.5 -74.5
q-5 -31 -27 -50.5t-54 -26.5l-1 -3q33 -9 48.5 -29t10.5 -52q-8 -45 -55 -72.5t-117 -27.5z" />
    <glyph glyph-name="four.dnom" horiz-adv-x="359" 
d="M147 0l11 59h-163l13 74l189 215h121l-36 -214h34l-14 -75h-34l-11 -59h-110zM115 134h65l15 93v0z" />
    <glyph glyph-name="one.numr" horiz-adv-x="247" 
d="M111 352l43 246l-73 -15l12 70l131 51h63l-62 -352h-114z" />
    <glyph glyph-name="two.numr" horiz-adv-x="370" 
d="M56 352l15 84l134 79q31 18 49.5 38t23.5 42q2 17 -5 26.5t-21 9.5q-16 0 -27.5 -11t-16.5 -31h-114q13 54 61 89t122 35q48 0 76.5 -16t40 -41t6.5 -53q-7 -38 -39 -66t-97 -59l-72 -37h176l-16 -89h-296z" />
    <glyph glyph-name="three.numr" horiz-adv-x="363" 
d="M199 348q-81 0 -115 32t-28 86h116q-1 -13 3 -21.5t12.5 -12t19.5 -3.5q18 0 30.5 9.5t15.5 27.5q3 20 -7.5 30t-32.5 10h-36l9 52h32q21 0 35 9.5t17 28.5q3 17 -5.5 26t-25.5 9q-19 0 -30 -8.5t-17 -25.5h-108q10 46 55 81t125 35q67 0 102.5 -29.5t27.5 -74.5
q-5 -31 -27 -50.5t-54 -26.5l-1 -3q33 -9 48.5 -29t10.5 -52q-8 -45 -55 -72.5t-117 -27.5z" />
    <glyph glyph-name="four.numr" horiz-adv-x="359" 
d="M209 352l11 59h-163l13 74l189 215h121l-36 -214h34l-14 -75h-34l-11 -59h-110zM177 486h65l15 93v0z" />
    <glyph glyph-name="comma.ss01" horiz-adv-x="234" 
d="M-7 -104l11 59q26 0 41 15.5t20 47.5l3 18h-59l20 113h129q5 -30 4 -58t-6 -53q-10 -65 -50.5 -103.5t-112.5 -38.5z" />
    <glyph glyph-name="semicolon.ss01" horiz-adv-x="265" 
d="M161 340q-39 0 -64.5 24t-25.5 60q0 35 25.5 59.5t64.5 24.5q40 0 65 -24t25 -60q0 -35 -25.5 -59.5t-64.5 -24.5zM11 -104l11 59q26 0 41 15.5t20 47.5l3 18h-59l20 113h129q5 -30 4 -58t-6 -53q-10 -65 -50.5 -103.5t-112.5 -38.5z" />
    <glyph glyph-name="quotesinglbase.ss01" horiz-adv-x="225" 
d="M-7 -104l11 59q26 0 41 15.5t20 47.5l3 18h-59l20 113h121q4 -30 3 -58t-5 -53q-11 -65 -50 -103.5t-105 -38.5z" />
    <glyph glyph-name="quotedblbase.ss01" horiz-adv-x="400" 
d="M168 -104l11 59q26 0 41 15.5t20 47.5l3 18h-59l20 113h121q4 -30 3 -58t-5 -53q-11 -65 -50 -103.5t-105 -38.5zM-7 -104l11 59q26 0 41 15.5t20 47.5l3 18h-59l20 113h121q4 -30 3 -58t-5 -53q-11 -65 -50 -103.5t-105 -38.5z" />
    <glyph glyph-name="quotedblleft.ss01" horiz-adv-x="390" 
d="M254 738l-11 -59q-25 0 -40.5 -15.5t-20.5 -47.5l-4 -18h60l-21 -113h-120q-4 31 -3 58.5t5 52.5q11 66 50 104t105 38zM428 738l-10 -59q-25 0 -40.5 -15.5t-21.5 -47.5l-3 -18h59l-20 -113h-120q-4 31 -3 58.5t5 52.5q10 66 49.5 104t104.5 38z" />
    <glyph glyph-name="quotedblright.ss01" horiz-adv-x="389" 
d="M263 485l11 59q26 0 41 15.5t20 47.5l3 18h-59l20 113h121q4 -30 3 -58t-5 -53q-11 -65 -50 -103.5t-105 -38.5zM89 485l11 59q26 0 41 15.5t20 47.5l3 18h-59l20 113h121q4 -30 3 -58t-5 -53q-11 -65 -50 -103.5t-105 -38.5z" />
    <glyph glyph-name="quoteleft.ss01" horiz-adv-x="214" 
d="M254 739l-11 -59q-25 0 -40.5 -15.5t-20.5 -47.5l-4 -18h60l-21 -113h-120q-4 30 -3 58t5 53q11 65 50 103.5t105 38.5z" />
    <glyph glyph-name="quoteright.ss01" horiz-adv-x="214" 
d="M89 485l11 59q26 0 41 15.5t20 47.5l3 18h-59l20 113h121q4 -30 3 -58t-5 -53q-11 -65 -50 -103.5t-105 -38.5z" />
    <glyph glyph-name="quotedblleft.ss08" horiz-adv-x="776" 
d="M406 -12q75 0 140.5 28t115.5 78t78 115.5t28 140.5t-28 140.5t-78 115.5t-115.5 78t-140.5 28t-140.5 -28t-115.5 -78t-78 -115.5t-28 -140.5t28 -140.5t78 -115.5t115.5 -78t140.5 -28zM399 484l-11 -62q-27 0 -43.5 -16.5t-22.5 -50.5l-3 -19h63l-22 -120h-127
q-4 33 -2.5 62.5t4.5 55.5q12 70 53.5 110t110.5 40zM583 484l-11 -62q-27 0 -43.5 -16.5t-22.5 -50.5l-3 -19h63l-22 -120h-127q-4 33 -2.5 62.5t5.5 55.5q11 70 52.5 110t110.5 40z" />
    <glyph glyph-name="quotedblright.ss08" horiz-adv-x="776" 
d="M406 712q-75 0 -140.5 -28t-115.5 -78t-78 -115.5t-28 -140.5t28 -140.5t78 -115.5t115.5 -78t140.5 -28t140.5 28t115.5 78t78 115.5t28 140.5t-28 140.5t-78 115.5t-115.5 78t-140.5 28zM413 216l11 62q28 0 44 16.5t22 50.5l3 19h-63l22 120h127q4 -32 3 -62t-5 -56
q-12 -69 -53.5 -109.5t-110.5 -40.5zM229 216l11 62q28 0 44 16.5t22 50.5l3 19h-63l22 120h127q4 -32 3 -62t-6 -56q-11 -69 -52.5 -109.5t-110.5 -40.5z" />
    <glyph glyph-name="arrowup.ss08" horiz-adv-x="776" 
d="M406 -12q-75 0 -140.5 28t-115.5 78t-78 115.5t-28 140.5t28 140.5t78 115.5t115.5 78t140.5 28t140.5 -28t115.5 -77.5t78 -115t28 -141.5q0 -75 -28 -140.5t-78 -115.5t-115.5 -78t-140.5 -28zM359 163h95v235l102 -101l61 61l-184 179h-54l-183 -180l60 -61l103 102
v-235z" />
    <glyph glyph-name="uni2197.ss08" horiz-adv-x="776" 
d="M406 -12q-75 0 -140.5 28t-115.5 78t-78 115.5t-28 140.5t28 140.5t78 115.5t115.5 78t140.5 28t140.5 -28t115.5 -77.5t78 -115.5t28 -141t-28 -140.5t-78 -115.5t-115.5 -78t-140.5 -28zM312 195l167 165v-161h83v269l-38 38h-268v-83h159l-165 -165z" />
    <glyph glyph-name="arrowright.ss08" horiz-adv-x="776" 
d="M406 -12q-75 0 -140.5 28t-115.5 78t-78 115.5t-28 140.5t28 140.5t78 115.5t115.5 78t140.5 28t140.5 -28t115.5 -78t78 -115.5t28 -140.5t-28 -140.5t-77.5 -115.5t-115.5 -78t-141 -28zM413 141l180 182v55l-180 181l-61 -59l107 -105h-240v-90h240l-107 -105z" />
    <glyph glyph-name="uni2198.ss08" horiz-adv-x="776" 
d="M406 712q75 0 140.5 -28t115.5 -78t78 -115.5t28 -140.5t-28 -141t-78 -115.5t-115.5 -77.5t-140.5 -28t-140.5 28t-115.5 78t-78 115.5t-28 140.5t28 140.5t78 115.5t115.5 78t140.5 28zM312 505l-62 -63l165 -165h-159v-83h268l38 38v269h-83v-161z" />
    <glyph glyph-name="arrowdown.ss08" horiz-adv-x="776" 
d="M406 712q75 0 140.5 -28t115.5 -78t78 -115.5t28 -140.5q0 -76 -28 -141.5t-78 -115t-115.5 -77.5t-140.5 -28t-140.5 28t-115.5 78t-78 115.5t-28 140.5t28 140.5t78 115.5t115.5 78t140.5 28zM359 537v-235l-103 102l-60 -61l183 -180h54l184 179l-61 61l-102 -101v235
h-95z" />
    <glyph glyph-name="uni2199.ss08" horiz-adv-x="776" 
d="M406 712q75 0 140.5 -28t115.5 -78t78 -115.5t28 -140.5t-28 -140.5t-78 -115.5t-115.5 -78t-140.5 -28t-140.5 28t-115.5 77.5t-78 115.5t-28 141t28 140.5t78 115.5t115.5 78t140.5 28zM500 505l-167 -165v161h-83v-269l38 -38h268v83h-159l165 165z" />
    <glyph glyph-name="arrowleft.ss08" horiz-adv-x="776" 
d="M406 -12q-75 0 -141 28t-115.5 78t-77.5 115.5t-28 140.5t28 140.5t78 115.5t115.5 78t140.5 28t140.5 -28t115.5 -78t78 -115.5t28 -140.5t-28 -140.5t-78 -115.5t-115.5 -78t-140.5 -28zM399 141l61 59l-107 105h240v90h-240l107 105l-61 59l-180 -181v-55z" />
    <glyph glyph-name="uni2196.ss08" horiz-adv-x="776" 
d="M406 -12q-75 0 -140.5 28t-115.5 78t-78 115.5t-28 140.5t28 141t78 115.5t115.5 77.5t140.5 28t140.5 -28t115.5 -78t78 -115.5t28 -140.5t-28 -140.5t-78 -115.5t-115.5 -78t-140.5 -28zM500 195l62 63l-165 165h159v83h-268l-38 -38v-269h83v161z" />
    <glyph glyph-name="arrowboth.ss08" horiz-adv-x="776" 
d="M406 -12q-75 0 -140.5 28t-115.5 78t-78 115.5t-28 140.5t28 140.5t78 115.5t115.5 78t140.5 28t140.5 -28t115.5 -77.5t78 -115.5t28 -141t-28 -140.5t-78 -115.5t-115.5 -78t-140.5 -28zM309 144l68 52l-89 107h242l-89 -107l69 -52l146 179v55l-147 178l-68 -51
l89 -108h-242l89 108l-68 51l-147 -178v-55z" />
    <glyph glyph-name="arrowupdn.ss08" horiz-adv-x="776" 
d="M406 -12q-75 0 -140.5 28t-115.5 78t-78 115.5t-28 140.5t28 140.5t78 115.5t115.5 78t140.5 28t140.5 -28t115.5 -78t78 -115.5t28 -140.5t-28 -140.5t-77.5 -115.5t-115.5 -78t-141 -28zM380 105h55l176 146l-49 67l-108 -88v240l108 -88l49 67l-176 146h-55l-178 -145
l51 -68l107 88v-240l-107 88l-51 -68z" />
    <glyph glyph-name="uni030C.alt" 
d="M44 499l10 59q24 0 37 8.5t17 27.5l2 18h-46l20 113h110q2 -30 1 -53.5t-6 -48.5q-10 -58 -46.5 -91t-98.5 -33z" />
    <glyph glyph-name="uni0308.case" 
d="M172 766q-29 0 -48 19.5t-19 48.5t19 48.5t48 19.5t48.5 -19.5t19.5 -48.5t-19.5 -48.5t-48.5 -19.5zM363 766q-29 0 -48.5 19.5t-19.5 48.5t19.5 48.5t48.5 19.5t48.5 -19.5t19.5 -48.5t-19.5 -48.5t-48.5 -19.5z" />
    <glyph glyph-name="uni0307.case" 
d="M171 765q-28 0 -47.5 19.5t-19.5 47.5q0 30 19.5 49.5t47.5 19.5q30 0 49 -19.5t19 -49.5q0 -28 -19 -47.5t-49 -19.5z" />
    <glyph glyph-name="gravecomb.case" 
d="M323 753l-214 105l20 118v0l213 -119z" />
    <glyph glyph-name="acutecomb.case" 
d="M89 753l19 104l255 119v0l-21 -118z" />
    <glyph glyph-name="uni030B.case" 
d="M272 760l126 195h120l-152 -195h-94zM90 760l108 195h120l-134 -195h-94z" />
    <glyph glyph-name="uni0302.case" 
d="M90 760l19 106l165 83l136 -83l-19 -106l-135 87z" />
    <glyph glyph-name="uni030C.case" 
d="M426 949l-19 -105l-166 -84l-135 84l19 105l134 -87z" />
    <glyph glyph-name="uni0306.case" 
d="M254 770q-49 0 -82.5 19.5t-47.5 56t-4 87.5l4 18h76q-6 -33 9.5 -51.5t64.5 -18.5q48 0 70 18.5t29 51.5h76l-3 -19q-8 -51 -35 -87t-67 -55.5t-90 -19.5z" />
    <glyph glyph-name="uni030A.case" 
d="M233 770q-48 0 -83 31t-35 85q0 55 35 86t83 31q49 0 84 -31t35 -86q0 -54 -35 -85t-84 -31zM233 835q21 0 35.5 14t14.5 38t-14.5 37.5t-35.5 13.5q-20 0 -35 -13.5t-15 -37.5t15 -38t35 -14z" />
    <glyph glyph-name="tildecomb.case" 
d="M92 770q24 72 63.5 104t88.5 32q29 0 48 -11.5t35 -22.5t36 -11q17 0 30.5 11t20.5 34h79q-24 -72 -63.5 -104.5t-88.5 -32.5q-30 0 -49 11.5t-34.5 23t-35.5 11.5q-17 0 -30.5 -11t-21.5 -34h-78z" />
    <glyph glyph-name="uni0304.case" 
d="M100 816l19 105h387l-18 -105h-388z" />
    <glyph glyph-name="uni0327.case" 
d="M-91 -265l16 84h120q25 0 39.5 8t14.5 26q0 16 -10 21.5t-30 5.5h-68l23 127h92l-10 -50q29 0 54.5 -9t41.5 -29t16 -54q0 -40 -21.5 -69.5t-56.5 -45t-77 -15.5h-144z" />
    <glyph glyph-name="uni0328.case" 
d="M59 -214q-38 0 -68 12t-44.5 36.5t-8.5 61.5q6 28 23.5 54t55 51t100.5 49l46 19l20 -69l-52 -24q-40 -19 -57.5 -34t-20.5 -33q-4 -17 7 -27t34 -10q15 0 34.5 4t41.5 11l-15 -86q-21 -7 -45.5 -11t-50.5 -4z" />
    </font>
</defs>
</svg>
