<svg width="19" height="20" viewBox="0 0 19 20" fill="none" xmlns="http://www.w3.org/2000/svg">
<path d="M9.44568 5.5C8.55566 5.5 7.68563 5.76392 6.94561 6.25839C6.20559 6.75285 5.62882 7.45566 5.28822 8.27792C4.94763 9.10019 4.85851 10.005 5.03215 10.8779C5.20578 11.7508 5.63436 12.5526 6.2637 13.182C6.89303 13.8113 7.69486 14.2399 8.56777 14.4135C9.44069 14.5872 10.3455 14.4981 11.1678 14.1575C11.99 13.8169 12.6928 13.2401 13.1873 12.5001C13.6818 11.76 13.9457 10.89 13.9457 10C13.9457 8.80653 13.4716 7.66193 12.6277 6.81802C11.7837 5.97411 10.6392 5.5 9.44568 5.5ZM9.44568 13C8.85233 13 8.27232 12.8241 7.77897 12.4944C7.28562 12.1648 6.9011 11.6962 6.67404 11.1481C6.44698 10.5999 6.38757 9.99667 6.50332 9.41473C6.61908 8.83279 6.9048 8.29824 7.32436 7.87868C7.74392 7.45912 8.27847 7.1734 8.86041 7.05764C9.44235 6.94189 10.0456 7.0013 10.5937 7.22836C11.1419 7.45542 11.6104 7.83994 11.9401 8.33329C12.2697 8.82664 12.4457 9.40666 12.4457 10C12.4432 10.7949 12.1263 11.5565 11.5643 12.1186C11.0022 12.6807 10.2406 12.9975 9.44568 13ZM13.5707 0.625H5.32068C3.92829 0.625 2.59293 1.17812 1.60837 2.16269C0.623802 3.14726 0.0706787 4.48261 0.0706787 5.875V14.125C0.0706787 15.5174 0.623802 16.8527 1.60837 17.8373C2.59293 18.8219 3.92829 19.375 5.32068 19.375H13.5707C14.9631 19.375 16.2984 18.8219 17.283 17.8373C18.2676 16.8527 18.8207 15.5174 18.8207 14.125V5.875C18.8207 4.48261 18.2676 3.14726 17.283 2.16269C16.2984 1.17812 14.9631 0.625 13.5707 0.625ZM17.3207 14.125C17.3207 14.6175 17.2237 15.1051 17.0352 15.5601C16.8468 16.015 16.5705 16.4284 16.2223 16.7766C15.8741 17.1249 15.4607 17.4011 15.0057 17.5895C14.5508 17.778 14.0631 17.875 13.5707 17.875H5.32068C4.82822 17.875 4.34059 17.778 3.88562 17.5895C3.43064 17.4011 3.01725 17.1249 2.66903 16.7766C2.32081 16.4284 2.04459 16.015 1.85613 15.5601C1.66768 15.1051 1.57068 14.6175 1.57068 14.125V5.875C1.57068 4.88044 1.96577 3.92661 2.66903 3.22335C3.37229 2.52009 4.32612 2.125 5.32068 2.125H13.5707C14.0631 2.125 14.5508 2.222 15.0057 2.41045C15.4607 2.59891 15.8741 2.87513 16.2223 3.22335C16.5705 3.57157 16.8468 3.98497 17.0352 4.43994C17.2237 4.89491 17.3207 5.38254 17.3207 5.875V14.125ZM15.4457 5.125C15.4457 5.3475 15.3797 5.56501 15.2561 5.75002C15.1325 5.93502 14.9568 6.07922 14.7512 6.16436C14.5456 6.24951 14.3194 6.27179 14.1012 6.22838C13.883 6.18498 13.6825 6.07783 13.5252 5.9205C13.3679 5.76316 13.2607 5.56271 13.2173 5.34448C13.1739 5.12625 13.1962 4.90005 13.2813 4.69448C13.3665 4.48891 13.5107 4.31321 13.6957 4.1896C13.8807 4.06598 14.0982 4 14.3207 4C14.619 4 14.9052 4.11853 15.1162 4.3295C15.3272 4.54048 15.4457 4.82663 15.4457 5.125Z" fill="white"/>
</svg>
