<svg width="21" height="20" viewBox="0 0 21 20" fill="none" xmlns="http://www.w3.org/2000/svg">
<path d="M20.4047 11.7189V19.0979H16.1267V12.2129C16.1267 10.4829 15.5077 9.30288 13.9597 9.30288C12.7777 9.30288 12.0737 10.0989 11.7647 10.8679C11.6517 11.1429 11.6227 11.5259 11.6227 11.9109V19.0979H7.34268C7.34268 19.0979 7.40068 7.43788 7.34268 6.22888H11.6227V8.05288L11.5947 8.09488H11.6227V8.05288C12.1907 7.17788 13.2057 5.92688 15.4787 5.92688C18.2937 5.92688 20.4047 7.76688 20.4047 11.7189ZM2.86668 0.0258789C1.40368 0.0258789 0.445679 0.985879 0.445679 2.24888C0.445679 3.48388 1.37568 4.47288 2.81068 4.47288H2.83868C4.33168 4.47288 5.25868 3.48388 5.25868 2.24888C5.23268 0.985879 4.33268 0.0258789 2.86768 0.0258789H2.86668ZM0.699679 19.0979H4.97768V6.22888H0.699679V19.0979Z" fill="white"/>
</svg>
